<?xml version="1.0" encoding="UTF-8"?>
<svg width="1214px" height="732px" viewBox="0 0 1214 732" version="1.1" xmlns="http://www.w3.org/2000/svg" xmlns:xlink="http://www.w3.org/1999/xlink">
    <!-- Generator: Sketch 51.3 (57544) - http://www.bohemiancoding.com/sketch -->
    <title>logic gates</title>
    <desc>Created with Sketch.</desc>
    <defs></defs>
    <g id="logic-gates" stroke="none" stroke-width="1" fill="none" fill-rule="evenodd">
        <polygon id="Page-1" fill="#204056" points="-6 802 1219 802 1219 -71 -6 -71"></polygon>
        <g id="Group" transform="translate(37.000000, 51.000000)">
            <path d="M43.5374586,64 L43.5374586,41.824707 L47.8968336,41.824707 C48.6839469,43.055833 50.2833775,45.53823 52.6951734,49.2719727 C55.1069694,53.0057153 56.5752164,55.2762004 57.0999586,56.0834961 C57.2513265,56.3155936 57.5111709,56.7066216 57.8794996,57.2565918 C58.2478283,57.806562 58.5076727,58.19759 58.6590406,58.4296875 C58.5884023,54.9684072 58.5530836,53.1722012 58.5530836,53.0410156 L58.5530836,41.824707 L62.2918531,41.824707 L62.2918531,64 L57.8719313,64 L47.8665602,48.4091797 L47.1399977,47.2133789 C47.2207272,49.8774547 47.2610914,51.7493436 47.2610914,52.8291016 L47.2610914,64 L43.5374586,64 Z M72.219298,64.3178711 C70.675345,64.3178711 69.4265782,63.8915244 68.4729601,63.0388184 C67.5193421,62.1861123 67.0425402,60.9575276 67.0425402,59.3530273 C67.0425402,57.6274328 67.6076387,56.3483928 68.7378527,55.5158691 C69.8680667,54.6833454 71.5734533,54.1560883 73.8540636,53.934082 C74.1668907,53.8937172 74.5049407,53.8533531 74.8682238,53.8129883 C75.2315068,53.7726235 75.6401942,53.7322593 76.094298,53.6918945 C76.5484018,53.6515297 76.9066339,53.6162111 77.169005,53.5859375 L77.169005,52.7080078 C77.169005,51.6988882 76.936911,50.9647647 76.472716,50.5056152 C76.0085209,50.0464658 75.3021478,49.8168945 74.3535753,49.8168945 C73.001355,49.8168945 71.3312871,50.1953087 69.3433214,50.9521484 C69.3332302,50.9218748 69.166728,50.4627323 68.8438097,49.574707 C68.5208914,48.6866818 68.3543892,48.2325847 68.344298,48.2124023 C70.3019901,47.3748331 72.4211095,46.9560547 74.7017199,46.9560547 C76.9419655,46.9560547 78.5716692,47.4429476 79.59088,48.416748 C80.6100909,49.3905485 81.1196886,50.9672743 81.1196886,53.1469727 L81.1196886,64 L78.1831652,64 C78.173074,63.9596352 78.0620725,63.6215852 77.8501574,62.9858398 C77.6382423,62.3500945 77.5322863,62.0120445 77.5322863,61.9716797 C76.7048082,62.7789754 75.8950018,63.3718243 75.1028429,63.7502441 C74.310684,64.128664 73.349512,64.3178711 72.219298,64.3178711 Z M73.294005,61.5024414 C74.2123039,61.5024414 75.0120192,61.2829612 75.693175,60.8439941 C76.3743307,60.4050271 76.8612236,59.8727245 77.1538683,59.2470703 L77.1538683,56.0380859 C77.1235947,56.0380859 76.8587048,56.058268 76.3591906,56.0986328 C75.8596764,56.1389976 75.5897409,56.1591797 75.5493761,56.1591797 C73.9448759,56.3004564 72.7692692,56.6031878 72.0225207,57.0673828 C71.2757721,57.5315778 70.9024035,58.2783152 70.9024035,59.3076172 C70.9024035,60.0140009 71.1092699,60.5563946 71.5230089,60.9348145 C71.936748,61.3132343 72.5270741,61.5024414 73.294005,61.5024414 Z M86.2639304,64 L86.2639304,47.3647461 L89.4729148,47.3647461 L89.9270163,49.4838867 C90.1288402,49.2316068 90.3230929,49.0070811 90.50978,48.8103027 C90.6964671,48.6135244 90.9537888,48.3915214 91.2817526,48.1442871 C91.6097165,47.8970528 91.9578576,47.6927091 92.3261862,47.53125 C92.6945149,47.3697909 93.1486119,47.2335618 93.6884909,47.1225586 C94.2283699,47.0115554 94.8060822,46.9560547 95.4216452,46.9560547 C96.7435919,46.9560547 97.8006289,47.2234674 98.5927878,47.7583008 C99.3849467,48.2931342 99.9424769,48.918779 100.265395,49.6352539 C100.860776,48.7775022 101.632741,48.1165388 102.581313,47.6523438 C103.529886,47.1881487 104.5844,46.9560547 105.744887,46.9560547 C107.652124,46.9560547 109.052256,47.4959256 109.945327,48.5756836 C110.838398,49.6554416 111.284926,51.2548722 111.284926,53.3740234 L111.284926,64 L107.303969,64 L107.303969,54.5546875 C107.303969,52.9300049 107.124853,51.7569209 106.766616,51.0354004 C106.408378,50.3138799 105.72471,49.953125 104.715591,49.953125 C103.171638,49.953125 102.061623,50.6494071 101.385512,52.0419922 C101.102959,52.6575552 100.911229,53.399247 100.810317,54.2670898 L100.810317,64 L96.8444968,64 L96.8444968,54.3730469 C96.8444968,52.889641 96.6477214,51.7846716 96.2541648,51.0581055 C95.8606081,50.3315393 95.1491894,49.9682617 94.1198874,49.9682617 C93.2823181,49.9682617 92.5608084,50.1801737 91.9553366,50.6040039 C91.3498648,51.0278342 90.8907223,51.5828416 90.5778952,52.269043 C90.3457977,53.2882538 90.2297507,54.5092702 90.2297507,55.9321289 L90.2297507,64 L86.2639304,64 Z M124.027801,64.3178711 C121.353634,64.3178711 119.272356,63.5484289 117.783905,62.0095215 C116.295453,60.4706141 115.551239,58.3439263 115.551239,55.6293945 C115.551239,52.9855011 116.252566,50.8815182 117.655242,49.3173828 C119.057919,47.7532474 120.970172,46.9661459 123.392059,46.9560547 C125.68276,46.9560547 127.461307,47.6725189 128.727752,49.1054688 C129.994197,50.5384186 130.62741,52.4405806 130.62741,54.8120117 C130.62741,54.9835621 130.624888,55.2610658 130.619842,55.6445312 C130.614796,56.0279967 130.612274,56.310546 130.612274,56.4921875 L119.547332,56.4921875 C119.587697,58.0462317 120.014044,59.2495888 120.826385,60.1022949 C121.638726,60.955001 122.75631,61.3813477 124.179168,61.3813477 C125.995584,61.3813477 127.741334,60.9070685 129.416473,59.9584961 L129.976532,62.7739258 C128.311484,63.8032278 126.328594,64.3178711 124.027801,64.3178711 Z M119.623016,53.9946289 L126.888641,53.9946289 C126.888641,52.6424086 126.580864,51.603031 125.965301,50.8764648 C125.349738,50.1498987 124.497045,49.7866211 123.407196,49.7866211 C122.387985,49.7866211 121.527723,50.1398077 120.826385,50.8461914 C120.125047,51.5525751 119.723928,52.6020438 119.623016,53.9946289 Z" id="Name" fill="#FFFFFF"></path>
            <path d="M286.861533,65 L295.020224,42.8095703 L299.485556,42.8095703 L307.523154,65 L303.315146,65 L301.120322,58.7333984 L293.355185,58.7333984 L291.145224,65 L286.861533,65 Z M294.384482,55.6757812 L300.075888,55.6757812 C298.259473,49.853161 297.326051,46.8460296 297.275595,46.6542969 L294.384482,55.6757812 Z M310.881263,65 L310.881263,42.824707 L315.240638,42.824707 C316.027751,44.055833 317.627182,46.53823 320.038977,50.2719727 C322.450773,54.0057153 323.91902,56.2762004 324.443763,57.0834961 C324.595131,57.3155936 324.854975,57.7066216 325.223304,58.2565918 C325.591632,58.806562 325.851477,59.19759 326.002845,59.4296875 C325.932206,55.9684072 325.896888,54.1722012 325.896888,54.0410156 L325.896888,42.824707 L329.635657,42.824707 L329.635657,65 L325.215735,65 L315.210364,49.4091797 L314.483802,48.2133789 C314.564531,50.8774547 314.604895,52.7493436 314.604895,53.8291016 L314.604895,65 L310.881263,65 Z M339.669059,61.715332 L342.605583,61.715332 C345.138473,61.715332 347.065862,61.0518458 348.387809,59.7248535 C349.709756,58.3978612 350.370719,56.4629033 350.370719,53.9199219 C350.370719,51.1952989 349.689574,49.2149313 348.327262,47.9787598 C346.964951,46.7425882 344.911423,46.1245117 342.166618,46.1245117 L339.669059,46.1245117 L339.669059,61.715332 Z M335.567008,65 L335.567008,42.824707 L341.984977,42.824707 C343.922487,42.824707 345.658146,43.04671 347.192008,43.4907227 C348.72587,43.9347353 350.045274,44.603267 351.15026,45.4963379 C352.255246,46.3894088 353.102894,47.5397879 353.693229,48.9475098 C354.283564,50.3552316 354.578727,51.9824126 354.578727,53.8291016 C354.578727,57.4114762 353.498985,60.1688543 351.339469,62.1013184 C349.179953,64.0337824 346.187958,65 342.363395,65 L335.567008,65 Z" id="AND" fill="#FFFFFF"></path>
            <path d="M306.982581,359.575368 L306.982581,337.400075 L313.900061,337.400075 C316.8366,337.400075 319.026356,337.828944 320.469397,338.686696 C321.912438,339.544447 322.633948,340.97233 322.633948,342.970387 C322.633948,343.293305 322.613766,343.611173 322.573401,343.924 C322.533037,344.236828 322.442217,344.592537 322.30094,344.991139 C322.159664,345.389741 321.972979,345.750496 321.740882,346.073415 C321.508784,346.396333 321.185871,346.711678 320.772132,347.019459 C320.358393,347.327241 319.874023,347.566903 319.319007,347.738454 C320.691409,348.071463 321.740878,348.709722 322.467444,349.653249 C323.19401,350.596775 323.557288,351.759768 323.557288,353.142262 C323.557288,355.23114 322.818119,356.825525 321.339759,357.925465 C319.861398,359.025406 317.815439,359.575368 315.201819,359.575368 L306.982581,359.575368 Z M311.084632,356.608571 L314.641761,356.608571 C317.790214,356.608571 319.364417,355.377463 319.364417,352.915211 C319.364417,351.673994 318.970866,350.780937 318.183753,350.236012 C317.39664,349.691088 316.180669,349.418629 314.535804,349.418629 L311.084632,349.418629 L311.084632,356.608571 Z M311.084632,346.55779 L314.596351,346.55779 C317.310882,346.55779 318.668128,345.523457 318.668128,343.454762 C318.668128,342.294275 318.2771,341.497082 317.495032,341.063161 C316.712964,340.629239 315.469243,340.412282 313.763831,340.412282 L311.084632,340.412282 L311.084632,346.55779 Z M314.694739,438.744801 C315.502035,438.744801 316.190749,438.512707 316.760901,438.048512 C317.331054,437.584317 317.764969,436.941013 318.062659,436.118581 C318.360349,435.296148 318.574784,434.418227 318.70597,433.484791 C318.837155,432.551356 318.902747,431.514501 318.902747,430.374196 C318.902747,424.904767 317.500092,422.170094 314.694739,422.170094 C311.909569,422.170094 310.496823,424.884585 310.456458,430.313649 C310.456458,431.464045 310.52205,432.508468 310.653235,433.44695 C310.784421,434.385431 311.001378,435.27092 311.304114,436.103444 C311.60685,436.935968 312.045811,437.584317 312.621009,438.048512 C313.196207,438.512707 313.887443,438.744801 314.694739,438.744801 Z M314.694739,441.893239 C313.493887,441.893239 312.414145,441.688895 311.455481,441.280202 C310.496818,440.871508 309.704671,440.316501 309.079017,439.615163 C308.453362,438.913824 307.931151,438.073745 307.512366,437.094899 C307.093581,436.116053 306.795896,435.081721 306.6193,433.991872 C306.442704,432.902022 306.354407,431.736507 306.354407,430.49529 C306.354407,429.23389 306.445227,428.050715 306.626868,426.945729 C306.80851,425.840743 307.111241,424.79632 307.535071,423.812428 C307.958901,422.828537 308.486159,421.988457 309.116858,421.292165 C309.747558,420.595872 310.537182,420.043387 311.485755,419.634694 C312.434327,419.226 313.503978,419.021657 314.694739,419.021657 C315.8855,419.021657 316.955151,419.226 317.903724,419.634694 C318.852296,420.043387 319.639398,420.598395 320.265052,421.299733 C320.890706,422.001071 321.412917,422.843673 321.831702,423.827565 C322.250487,424.811457 322.550695,425.853357 322.732337,426.953297 C322.913978,428.053238 323.004798,429.23389 323.004798,430.49529 C323.004798,431.736507 322.916501,432.902022 322.739905,433.991872 C322.563309,435.081721 322.268146,436.118576 321.854407,437.102467 C321.440668,438.086359 320.920979,438.926438 320.295325,439.622731 C319.669671,440.319023 318.880047,440.871508 317.926429,441.280202 C316.972811,441.688895 315.895592,441.893239 314.694739,441.893239 Z M314.694739,479.744801 C315.502035,479.744801 316.190749,479.512707 316.760901,479.048512 C317.331054,478.584317 317.764969,477.941013 318.062659,477.118581 C318.360349,476.296148 318.574784,475.418227 318.70597,474.484791 C318.837155,473.551356 318.902747,472.514501 318.902747,471.374196 C318.902747,465.904767 317.500092,463.170094 314.694739,463.170094 C311.909569,463.170094 310.496823,465.884585 310.456458,471.313649 C310.456458,472.464045 310.52205,473.508468 310.653235,474.44695 C310.784421,475.385431 311.001378,476.27092 311.304114,477.103444 C311.60685,477.935968 312.045811,478.584317 312.621009,479.048512 C313.196207,479.512707 313.887443,479.744801 314.694739,479.744801 Z M314.694739,482.893239 C313.493887,482.893239 312.414145,482.688895 311.455481,482.280202 C310.496818,481.871508 309.704671,481.316501 309.079017,480.615163 C308.453362,479.913824 307.931151,479.073745 307.512366,478.094899 C307.093581,477.116053 306.795896,476.081721 306.6193,474.991872 C306.442704,473.902022 306.354407,472.736507 306.354407,471.49529 C306.354407,470.23389 306.445227,469.050715 306.626868,467.945729 C306.80851,466.840743 307.111241,465.79632 307.535071,464.812428 C307.958901,463.828537 308.486159,462.988457 309.116858,462.292165 C309.747558,461.595872 310.537182,461.043387 311.485755,460.634694 C312.434327,460.226 313.503978,460.021657 314.694739,460.021657 C315.8855,460.021657 316.955151,460.226 317.903724,460.634694 C318.852296,461.043387 319.639398,461.598395 320.265052,462.299733 C320.890706,463.001071 321.412917,463.843673 321.831702,464.827565 C322.250487,465.811457 322.550695,466.853357 322.732337,467.953297 C322.913978,469.053238 323.004798,470.23389 323.004798,471.49529 C323.004798,472.736507 322.916501,473.902022 322.739905,474.991872 C322.563309,476.081721 322.268146,477.118576 321.854407,478.102467 C321.440668,479.086359 320.920979,479.926438 320.295325,480.622731 C319.669671,481.319023 318.880047,481.871508 317.926429,482.280202 C316.972811,482.688895 315.895592,482.893239 314.694739,482.893239 Z M314.074134,523.560231 L314.074134,505.108571 C313.932857,505.199392 313.279462,505.489509 312.113929,505.978932 C310.948395,506.468355 310.289955,506.733245 310.138587,506.77361 L310.138587,503.746266 C310.380776,503.635263 311.147695,503.254326 312.439368,502.603444 C313.731041,501.952562 314.44246,501.581716 314.573645,501.490895 L317.903724,501.490895 L317.903724,523.560231 L314.074134,523.560231 Z M314.074134,564.560231 L314.074134,546.108571 C313.932857,546.199392 313.279462,546.489509 312.113929,546.978932 C310.948395,547.468355 310.289955,547.733245 310.138587,547.77361 L310.138587,544.746266 C310.380776,544.635263 311.147695,544.254326 312.439368,543.603444 C313.731041,542.952562 314.44246,542.581716 314.573645,542.490895 L317.903724,542.490895 L317.903724,564.560231 L314.074134,564.560231 Z" id="B-0-0-1-1" fill="#FFFFFF"></path>
            <path d="M625.614934,359.575368 L625.614934,337.400075 L632.532414,337.400075 C635.468953,337.400075 637.658709,337.828944 639.10175,338.686696 C640.544791,339.544447 641.266301,340.97233 641.266301,342.970387 C641.266301,343.293305 641.246119,343.611173 641.205754,343.924 C641.165389,344.236828 641.07457,344.592537 640.933293,344.991139 C640.792017,345.389741 640.605332,345.750496 640.373235,346.073415 C640.141137,346.396333 639.818224,346.711678 639.404485,347.019459 C638.990746,347.327241 638.506376,347.566903 637.95136,347.738454 C639.323762,348.071463 640.373231,348.709722 641.099797,349.653249 C641.826363,350.596775 642.189641,351.759768 642.189641,353.142262 C642.189641,355.23114 641.450472,356.825525 639.972112,357.925465 C638.493751,359.025406 636.447792,359.575368 633.834172,359.575368 L625.614934,359.575368 Z M629.716985,356.608571 L633.274114,356.608571 C636.422567,356.608571 637.99677,355.377463 637.99677,352.915211 C637.99677,351.673994 637.603219,350.780937 636.816106,350.236012 C636.028992,349.691088 634.813022,349.418629 633.168157,349.418629 L629.716985,349.418629 L629.716985,356.608571 Z M629.716985,346.55779 L633.228703,346.55779 C635.943235,346.55779 637.300481,345.523457 637.300481,343.454762 C637.300481,342.294275 636.909453,341.497082 636.127385,341.063161 C635.345317,340.629239 634.101596,340.412282 632.396184,340.412282 L629.716985,340.412282 L629.716985,346.55779 Z M633.327092,438.744801 C634.134388,438.744801 634.823102,438.512707 635.393254,438.048512 C635.963407,437.584317 636.397322,436.941013 636.695012,436.118581 C636.992702,435.296148 637.207137,434.418227 637.338323,433.484791 C637.469508,432.551356 637.5351,431.514501 637.5351,430.374196 C637.5351,424.904767 636.132445,422.170094 633.327092,422.170094 C630.541922,422.170094 629.129176,424.884585 629.088811,430.313649 C629.088811,431.464045 629.154403,432.508468 629.285588,433.44695 C629.416774,434.385431 629.633731,435.27092 629.936467,436.103444 C630.239203,436.935968 630.678163,437.584317 631.253362,438.048512 C631.82856,438.512707 632.519796,438.744801 633.327092,438.744801 Z M633.327092,441.893239 C632.12624,441.893239 631.046498,441.688895 630.087834,441.280202 C629.129171,440.871508 628.337024,440.316501 627.711369,439.615163 C627.085715,438.913824 626.563504,438.073745 626.144719,437.094899 C625.725934,436.116053 625.428249,435.081721 625.251653,433.991872 C625.075057,432.902022 624.98676,431.736507 624.98676,430.49529 C624.98676,429.23389 625.07758,428.050715 625.259221,426.945729 C625.440863,425.840743 625.743594,424.79632 626.167424,423.812428 C626.591254,422.828537 627.118512,421.988457 627.749211,421.292165 C628.379911,420.595872 629.169535,420.043387 630.118108,419.634694 C631.06668,419.226 632.136331,419.021657 633.327092,419.021657 C634.517853,419.021657 635.587504,419.226 636.536077,419.634694 C637.484649,420.043387 638.27175,420.598395 638.897405,421.299733 C639.523059,422.001071 640.04527,422.843673 640.464055,423.827565 C640.88284,424.811457 641.183048,425.853357 641.36469,426.953297 C641.546331,428.053238 641.637151,429.23389 641.637151,430.49529 C641.637151,431.736507 641.548854,432.902022 641.372258,433.991872 C641.195662,435.081721 640.900499,436.118576 640.48676,437.102467 C640.073021,438.086359 639.553332,438.926438 638.927678,439.622731 C638.302024,440.319023 637.5124,440.871508 636.558782,441.280202 C635.605164,441.688895 634.527944,441.893239 633.327092,441.893239 Z M633.327092,479.744801 C634.134388,479.744801 634.823102,479.512707 635.393254,479.048512 C635.963407,478.584317 636.397322,477.941013 636.695012,477.118581 C636.992702,476.296148 637.207137,475.418227 637.338323,474.484791 C637.469508,473.551356 637.5351,472.514501 637.5351,471.374196 C637.5351,465.904767 636.132445,463.170094 633.327092,463.170094 C630.541922,463.170094 629.129176,465.884585 629.088811,471.313649 C629.088811,472.464045 629.154403,473.508468 629.285588,474.44695 C629.416774,475.385431 629.633731,476.27092 629.936467,477.103444 C630.239203,477.935968 630.678163,478.584317 631.253362,479.048512 C631.82856,479.512707 632.519796,479.744801 633.327092,479.744801 Z M633.327092,482.893239 C632.12624,482.893239 631.046498,482.688895 630.087834,482.280202 C629.129171,481.871508 628.337024,481.316501 627.711369,480.615163 C627.085715,479.913824 626.563504,479.073745 626.144719,478.094899 C625.725934,477.116053 625.428249,476.081721 625.251653,474.991872 C625.075057,473.902022 624.98676,472.736507 624.98676,471.49529 C624.98676,470.23389 625.07758,469.050715 625.259221,467.945729 C625.440863,466.840743 625.743594,465.79632 626.167424,464.812428 C626.591254,463.828537 627.118512,462.988457 627.749211,462.292165 C628.379911,461.595872 629.169535,461.043387 630.118108,460.634694 C631.06668,460.226 632.136331,460.021657 633.327092,460.021657 C634.517853,460.021657 635.587504,460.226 636.536077,460.634694 C637.484649,461.043387 638.27175,461.598395 638.897405,462.299733 C639.523059,463.001071 640.04527,463.843673 640.464055,464.827565 C640.88284,465.811457 641.183048,466.853357 641.36469,467.953297 C641.546331,469.053238 641.637151,470.23389 641.637151,471.49529 C641.637151,472.736507 641.548854,473.902022 641.372258,474.991872 C641.195662,476.081721 640.900499,477.118576 640.48676,478.102467 C640.073021,479.086359 639.553332,479.926438 638.927678,480.622731 C638.302024,481.319023 637.5124,481.871508 636.558782,482.280202 C635.605164,482.688895 634.527944,482.893239 633.327092,482.893239 Z M632.706487,523.560231 L632.706487,505.108571 C632.56521,505.199392 631.911815,505.489509 630.746282,505.978932 C629.580748,506.468355 628.922308,506.733245 628.77094,506.77361 L628.77094,503.746266 C629.013128,503.635263 629.780048,503.254326 631.071721,502.603444 C632.363394,501.952562 633.074813,501.581716 633.205998,501.490895 L636.536077,501.490895 L636.536077,523.560231 L632.706487,523.560231 Z M632.706487,564.560231 L632.706487,546.108571 C632.56521,546.199392 631.911815,546.489509 630.746282,546.978932 C629.580748,547.468355 628.922308,547.733245 628.77094,547.77361 L628.77094,544.746266 C629.013128,544.635263 629.780048,544.254326 631.071721,543.603444 C632.363394,542.952562 633.074813,542.581716 633.205998,542.490895 L636.536077,542.490895 L636.536077,564.560231 L632.706487,564.560231 Z" id="B-0-0-1-1-Copy" fill="#FFFFFF"></path>
            <path d="M957.986257,359.575368 L957.986257,337.400075 L964.903738,337.400075 C967.840276,337.400075 970.030033,337.828944 971.473074,338.686696 C972.916115,339.544447 973.637625,340.97233 973.637625,342.970387 C973.637625,343.293305 973.617443,343.611173 973.577078,343.924 C973.536713,344.236828 973.445894,344.592537 973.304617,344.991139 C973.16334,345.389741 972.976656,345.750496 972.744558,346.073415 C972.512461,346.396333 972.189547,346.711678 971.775808,347.019459 C971.362069,347.327241 970.877699,347.566903 970.322683,347.738454 C971.695086,348.071463 972.744555,348.709722 973.471121,349.653249 C974.197687,350.596775 974.560964,351.759768 974.560964,353.142262 C974.560964,355.23114 973.821795,356.825525 972.343435,357.925465 C970.865075,359.025406 968.819116,359.575368 966.205496,359.575368 L957.986257,359.575368 Z M962.088308,356.608571 L965.645437,356.608571 C968.79389,356.608571 970.368093,355.377463 970.368093,352.915211 C970.368093,351.673994 969.974543,350.780937 969.187429,350.236012 C968.400316,349.691088 967.184345,349.418629 965.53948,349.418629 L962.088308,349.418629 L962.088308,356.608571 Z M962.088308,346.55779 L965.600027,346.55779 C968.314559,346.55779 969.671804,345.523457 969.671804,343.454762 C969.671804,342.294275 969.280776,341.497082 968.498709,341.063161 C967.716641,340.629239 966.47292,340.412282 964.767507,340.412282 L962.088308,340.412282 L962.088308,346.55779 Z M965.698416,438.744801 C966.505711,438.744801 967.194425,438.512707 967.764578,438.048512 C968.33473,437.584317 968.768645,436.941013 969.066336,436.118581 C969.364026,435.296148 969.578461,434.418227 969.709646,433.484791 C969.840832,432.551356 969.906423,431.514501 969.906423,430.374196 C969.906423,424.904767 968.503768,422.170094 965.698416,422.170094 C962.913245,422.170094 961.500499,424.884585 961.460134,430.313649 C961.460134,431.464045 961.525726,432.508468 961.656912,433.44695 C961.788097,434.385431 962.005055,435.27092 962.307791,436.103444 C962.610527,436.935968 963.049487,437.584317 963.624685,438.048512 C964.199883,438.512707 964.89112,438.744801 965.698416,438.744801 Z M965.698416,441.893239 C964.497563,441.893239 963.417821,441.688895 962.459158,441.280202 C961.500494,440.871508 960.708347,440.316501 960.082693,439.615163 C959.457039,438.913824 958.934827,438.073745 958.516043,437.094899 C958.097258,436.116053 957.799572,435.081721 957.622976,433.991872 C957.44638,432.902022 957.358084,431.736507 957.358084,430.49529 C957.358084,429.23389 957.448903,428.050715 957.630545,426.945729 C957.812186,425.840743 958.114917,424.79632 958.538748,423.812428 C958.962578,422.828537 959.489835,421.988457 960.120535,421.292165 C960.751235,420.595872 961.540859,420.043387 962.489431,419.634694 C963.438004,419.226 964.507654,419.021657 965.698416,419.021657 C966.889177,419.021657 967.958828,419.226 968.9074,419.634694 C969.855972,420.043387 970.643074,420.598395 971.268728,421.299733 C971.894382,422.001071 972.416594,422.843673 972.835379,423.827565 C973.254163,424.811457 973.554372,425.853357 973.736013,426.953297 C973.917655,428.053238 974.008474,429.23389 974.008474,430.49529 C974.008474,431.736507 973.920178,432.902022 973.743582,433.991872 C973.566986,435.081721 973.271823,436.118576 972.858084,437.102467 C972.444345,438.086359 971.924656,438.926438 971.299002,439.622731 C970.673347,440.319023 969.883723,440.871508 968.930105,441.280202 C967.976487,441.688895 966.899268,441.893239 965.698416,441.893239 Z M965.698416,479.744801 C966.505711,479.744801 967.194425,479.512707 967.764578,479.048512 C968.33473,478.584317 968.768645,477.941013 969.066336,477.118581 C969.364026,476.296148 969.578461,475.418227 969.709646,474.484791 C969.840832,473.551356 969.906423,472.514501 969.906423,471.374196 C969.906423,465.904767 968.503768,463.170094 965.698416,463.170094 C962.913245,463.170094 961.500499,465.884585 961.460134,471.313649 C961.460134,472.464045 961.525726,473.508468 961.656912,474.44695 C961.788097,475.385431 962.005055,476.27092 962.307791,477.103444 C962.610527,477.935968 963.049487,478.584317 963.624685,479.048512 C964.199883,479.512707 964.89112,479.744801 965.698416,479.744801 Z M965.698416,482.893239 C964.497563,482.893239 963.417821,482.688895 962.459158,482.280202 C961.500494,481.871508 960.708347,481.316501 960.082693,480.615163 C959.457039,479.913824 958.934827,479.073745 958.516043,478.094899 C958.097258,477.116053 957.799572,476.081721 957.622976,474.991872 C957.44638,473.902022 957.358084,472.736507 957.358084,471.49529 C957.358084,470.23389 957.448903,469.050715 957.630545,467.945729 C957.812186,466.840743 958.114917,465.79632 958.538748,464.812428 C958.962578,463.828537 959.489835,462.988457 960.120535,462.292165 C960.751235,461.595872 961.540859,461.043387 962.489431,460.634694 C963.438004,460.226 964.507654,460.021657 965.698416,460.021657 C966.889177,460.021657 967.958828,460.226 968.9074,460.634694 C969.855972,461.043387 970.643074,461.598395 971.268728,462.299733 C971.894382,463.001071 972.416594,463.843673 972.835379,464.827565 C973.254163,465.811457 973.554372,466.853357 973.736013,467.953297 C973.917655,469.053238 974.008474,470.23389 974.008474,471.49529 C974.008474,472.736507 973.920178,473.902022 973.743582,474.991872 C973.566986,476.081721 973.271823,477.118576 972.858084,478.102467 C972.444345,479.086359 971.924656,479.926438 971.299002,480.622731 C970.673347,481.319023 969.883723,481.871508 968.930105,482.280202 C967.976487,482.688895 966.899268,482.893239 965.698416,482.893239 Z M965.07781,523.560231 L965.07781,505.108571 C964.936533,505.199392 964.283138,505.489509 963.117605,505.978932 C961.952072,506.468355 961.293631,506.733245 961.142263,506.77361 L961.142263,503.746266 C961.384452,503.635263 962.151371,503.254326 963.443045,502.603444 C964.734718,501.952562 965.446136,501.581716 965.577322,501.490895 L968.9074,501.490895 L968.9074,523.560231 L965.07781,523.560231 Z M965.07781,564.560231 L965.07781,546.108571 C964.936533,546.199392 964.283138,546.489509 963.117605,546.978932 C961.952072,547.468355 961.293631,547.733245 961.142263,547.77361 L961.142263,544.746266 C961.384452,544.635263 962.151371,544.254326 963.443045,543.603444 C964.734718,542.952562 965.446136,542.581716 965.577322,542.490895 L968.9074,542.490895 L968.9074,564.560231 L965.07781,564.560231 Z" id="B-0-0-1-1-Copy-2" fill="#FFFFFF"></path>
            <path d="M248.885557,359.575368 L257.044248,337.384938 L261.50958,337.384938 L269.547178,359.575368 L265.33917,359.575368 L263.144346,353.308766 L255.379209,353.308766 L253.169248,359.575368 L248.885557,359.575368 Z M256.408506,350.251149 L262.099912,350.251149 C260.283497,344.428529 259.350075,341.421397 259.299619,341.229665 L256.408506,350.251149 Z M259.231504,438.744801 C260.0388,438.744801 260.727513,438.512707 261.297666,438.048512 C261.867819,437.584317 262.301734,436.941013 262.599424,436.118581 C262.897114,435.296148 263.111549,434.418227 263.242734,433.484791 C263.37392,432.551356 263.439512,431.514501 263.439512,430.374196 C263.439512,424.904767 262.036856,422.170094 259.231504,422.170094 C256.446334,422.170094 255.033587,424.884585 254.993223,430.313649 C254.993223,431.464045 255.058814,432.508468 255.19,433.44695 C255.321186,434.385431 255.538143,435.27092 255.840879,436.103444 C256.143615,436.935968 256.582575,437.584317 257.157773,438.048512 C257.732972,438.512707 258.424208,438.744801 259.231504,438.744801 Z M259.231504,441.893239 C258.030652,441.893239 256.95091,441.688895 255.992246,441.280202 C255.033582,440.871508 254.241435,440.316501 253.615781,439.615163 C252.990127,438.913824 252.467915,438.073745 252.049131,437.094899 C251.630346,436.116053 251.33266,435.081721 251.156064,433.991872 C250.979469,432.902022 250.891172,431.736507 250.891172,430.49529 C250.891172,429.23389 250.981991,428.050715 251.163633,426.945729 C251.345274,425.840743 251.648006,424.79632 252.071836,423.812428 C252.495666,422.828537 253.022923,421.988457 253.653623,421.292165 C254.284323,420.595872 255.073947,420.043387 256.02252,419.634694 C256.971092,419.226 258.040743,419.021657 259.231504,419.021657 C260.422265,419.021657 261.491916,419.226 262.440488,419.634694 C263.389061,420.043387 264.176162,420.598395 264.801816,421.299733 C265.427471,422.001071 265.949682,422.843673 266.368467,423.827565 C266.787251,424.811457 267.08746,425.853357 267.269102,426.953297 C267.450743,428.053238 267.541562,429.23389 267.541562,430.49529 C267.541562,431.736507 267.453266,432.902022 267.27667,433.991872 C267.100074,435.081721 266.804911,436.118576 266.391172,437.102467 C265.977433,438.086359 265.457744,438.926438 264.83209,439.622731 C264.206436,440.319023 263.416811,440.871508 262.463193,441.280202 C261.509575,441.688895 260.432356,441.893239 259.231504,441.893239 Z M258.610898,482.560231 L258.610898,464.108571 C258.469622,464.199392 257.816227,464.489509 256.650693,464.978932 C255.48516,465.468355 254.826719,465.733245 254.675352,465.77361 L254.675352,462.746266 C254.91754,462.635263 255.68446,462.254326 256.976133,461.603444 C258.267806,460.952562 258.979225,460.581716 259.11041,460.490895 L262.440488,460.490895 L262.440488,482.560231 L258.610898,482.560231 Z M259.231504,520.744801 C260.0388,520.744801 260.727513,520.512707 261.297666,520.048512 C261.867819,519.584317 262.301734,518.941013 262.599424,518.118581 C262.897114,517.296148 263.111549,516.418227 263.242734,515.484791 C263.37392,514.551356 263.439512,513.514501 263.439512,512.374196 C263.439512,506.904767 262.036856,504.170094 259.231504,504.170094 C256.446334,504.170094 255.033587,506.884585 254.993223,512.313649 C254.993223,513.464045 255.058814,514.508468 255.19,515.44695 C255.321186,516.385431 255.538143,517.27092 255.840879,518.103444 C256.143615,518.935968 256.582575,519.584317 257.157773,520.048512 C257.732972,520.512707 258.424208,520.744801 259.231504,520.744801 Z M259.231504,523.893239 C258.030652,523.893239 256.95091,523.688895 255.992246,523.280202 C255.033582,522.871508 254.241435,522.316501 253.615781,521.615163 C252.990127,520.913824 252.467915,520.073745 252.049131,519.094899 C251.630346,518.116053 251.33266,517.081721 251.156064,515.991872 C250.979469,514.902022 250.891172,513.736507 250.891172,512.49529 C250.891172,511.23389 250.981991,510.050715 251.163633,508.945729 C251.345274,507.840743 251.648006,506.79632 252.071836,505.812428 C252.495666,504.828537 253.022923,503.988457 253.653623,503.292165 C254.284323,502.595872 255.073947,502.043387 256.02252,501.634694 C256.971092,501.226 258.040743,501.021657 259.231504,501.021657 C260.422265,501.021657 261.491916,501.226 262.440488,501.634694 C263.389061,502.043387 264.176162,502.598395 264.801816,503.299733 C265.427471,504.001071 265.949682,504.843673 266.368467,505.827565 C266.787251,506.811457 267.08746,507.853357 267.269102,508.953297 C267.450743,510.053238 267.541562,511.23389 267.541562,512.49529 C267.541562,513.736507 267.453266,514.902022 267.27667,515.991872 C267.100074,517.081721 266.804911,518.118576 266.391172,519.102467 C265.977433,520.086359 265.457744,520.926438 264.83209,521.622731 C264.206436,522.319023 263.416811,522.871508 262.463193,523.280202 C261.509575,523.688895 260.432356,523.893239 259.231504,523.893239 Z M258.610898,564.560231 L258.610898,546.108571 C258.469622,546.199392 257.816227,546.489509 256.650693,546.978932 C255.48516,547.468355 254.826719,547.733245 254.675352,547.77361 L254.675352,544.746266 C254.91754,544.635263 255.68446,544.254326 256.976133,543.603444 C258.267806,542.952562 258.979225,542.581716 259.11041,542.490895 L262.440488,542.490895 L262.440488,564.560231 L258.610898,564.560231 Z" id="A-0-1-0-1" fill="#FFFFFF"></path>
            <path d="M567.51791,359.575368 L575.676601,337.384938 L580.141933,337.384938 L588.179531,359.575368 L583.971523,359.575368 L581.776699,353.308766 L574.011562,353.308766 L571.801601,359.575368 L567.51791,359.575368 Z M575.040859,350.251149 L580.732265,350.251149 C578.91585,344.428529 577.982428,341.421397 577.931972,341.229665 L575.040859,350.251149 Z M577.863857,438.744801 C578.671153,438.744801 579.359866,438.512707 579.930019,438.048512 C580.500172,437.584317 580.934086,436.941013 581.231777,436.118581 C581.529467,435.296148 581.743902,434.418227 581.875087,433.484791 C582.006273,432.551356 582.071865,431.514501 582.071865,430.374196 C582.071865,424.904767 580.669209,422.170094 577.863857,422.170094 C575.078687,422.170094 573.66594,424.884585 573.625576,430.313649 C573.625576,431.464045 573.691167,432.508468 573.822353,433.44695 C573.953538,434.385431 574.170496,435.27092 574.473232,436.103444 C574.775968,436.935968 575.214928,437.584317 575.790126,438.048512 C576.365325,438.512707 577.056561,438.744801 577.863857,438.744801 Z M577.863857,441.893239 C576.663004,441.893239 575.583263,441.688895 574.624599,441.280202 C573.665935,440.871508 572.873788,440.316501 572.248134,439.615163 C571.62248,438.913824 571.100268,438.073745 570.681484,437.094899 C570.262699,436.116053 569.965013,435.081721 569.788417,433.991872 C569.611821,432.902022 569.523525,431.736507 569.523525,430.49529 C569.523525,429.23389 569.614344,428.050715 569.795986,426.945729 C569.977627,425.840743 570.280359,424.79632 570.704189,423.812428 C571.128019,422.828537 571.655276,421.988457 572.285976,421.292165 C572.916676,420.595872 573.7063,420.043387 574.654872,419.634694 C575.603445,419.226 576.673096,419.021657 577.863857,419.021657 C579.054618,419.021657 580.124269,419.226 581.072841,419.634694 C582.021414,420.043387 582.808515,420.598395 583.434169,421.299733 C584.059824,422.001071 584.582035,422.843673 585.00082,423.827565 C585.419604,424.811457 585.719813,425.853357 585.901454,426.953297 C586.083096,428.053238 586.173915,429.23389 586.173915,430.49529 C586.173915,431.736507 586.085619,432.902022 585.909023,433.991872 C585.732427,435.081721 585.437264,436.118576 585.023525,437.102467 C584.609786,438.086359 584.090097,438.926438 583.464443,439.622731 C582.838789,440.319023 582.049164,440.871508 581.095546,441.280202 C580.141928,441.688895 579.064709,441.893239 577.863857,441.893239 Z M577.243251,482.560231 L577.243251,464.108571 C577.101975,464.199392 576.448579,464.489509 575.283046,464.978932 C574.117513,465.468355 573.459072,465.733245 573.307704,465.77361 L573.307704,462.746266 C573.549893,462.635263 574.316813,462.254326 575.608486,461.603444 C576.900159,460.952562 577.611578,460.581716 577.742763,460.490895 L581.072841,460.490895 L581.072841,482.560231 L577.243251,482.560231 Z M577.863857,520.744801 C578.671153,520.744801 579.359866,520.512707 579.930019,520.048512 C580.500172,519.584317 580.934086,518.941013 581.231777,518.118581 C581.529467,517.296148 581.743902,516.418227 581.875087,515.484791 C582.006273,514.551356 582.071865,513.514501 582.071865,512.374196 C582.071865,506.904767 580.669209,504.170094 577.863857,504.170094 C575.078687,504.170094 573.66594,506.884585 573.625576,512.313649 C573.625576,513.464045 573.691167,514.508468 573.822353,515.44695 C573.953538,516.385431 574.170496,517.27092 574.473232,518.103444 C574.775968,518.935968 575.214928,519.584317 575.790126,520.048512 C576.365325,520.512707 577.056561,520.744801 577.863857,520.744801 Z M577.863857,523.893239 C576.663004,523.893239 575.583263,523.688895 574.624599,523.280202 C573.665935,522.871508 572.873788,522.316501 572.248134,521.615163 C571.62248,520.913824 571.100268,520.073745 570.681484,519.094899 C570.262699,518.116053 569.965013,517.081721 569.788417,515.991872 C569.611821,514.902022 569.523525,513.736507 569.523525,512.49529 C569.523525,511.23389 569.614344,510.050715 569.795986,508.945729 C569.977627,507.840743 570.280359,506.79632 570.704189,505.812428 C571.128019,504.828537 571.655276,503.988457 572.285976,503.292165 C572.916676,502.595872 573.7063,502.043387 574.654872,501.634694 C575.603445,501.226 576.673096,501.021657 577.863857,501.021657 C579.054618,501.021657 580.124269,501.226 581.072841,501.634694 C582.021414,502.043387 582.808515,502.598395 583.434169,503.299733 C584.059824,504.001071 584.582035,504.843673 585.00082,505.827565 C585.419604,506.811457 585.719813,507.853357 585.901454,508.953297 C586.083096,510.053238 586.173915,511.23389 586.173915,512.49529 C586.173915,513.736507 586.085619,514.902022 585.909023,515.991872 C585.732427,517.081721 585.437264,518.118576 585.023525,519.102467 C584.609786,520.086359 584.090097,520.926438 583.464443,521.622731 C582.838789,522.319023 582.049164,522.871508 581.095546,523.280202 C580.141928,523.688895 579.064709,523.893239 577.863857,523.893239 Z M577.243251,564.560231 L577.243251,546.108571 C577.101975,546.199392 576.448579,546.489509 575.283046,546.978932 C574.117513,547.468355 573.459072,547.733245 573.307704,547.77361 L573.307704,544.746266 C573.549893,544.635263 574.316813,544.254326 575.608486,543.603444 C576.900159,542.952562 577.611578,542.581716 577.742763,542.490895 L581.072841,542.490895 L581.072841,564.560231 L577.243251,564.560231 Z" id="A-0-1-0-1-Copy" fill="#FFFFFF"></path>
            <path d="M900.889233,359.575368 L909.047925,337.384938 L913.513257,337.384938 L921.550854,359.575368 L917.342846,359.575368 L915.148022,353.308766 L907.382885,353.308766 L905.172925,359.575368 L900.889233,359.575368 Z M908.412182,350.251149 L914.103589,350.251149 C912.287173,344.428529 911.353752,341.421397 911.303296,341.229665 L908.412182,350.251149 Z M911.23518,438.744801 C912.042476,438.744801 912.73119,438.512707 913.301342,438.048512 C913.871495,437.584317 914.30541,436.941013 914.6031,436.118581 C914.900791,435.296148 915.115225,434.418227 915.246411,433.484791 C915.377596,432.551356 915.443188,431.514501 915.443188,430.374196 C915.443188,424.904767 914.040533,422.170094 911.23518,422.170094 C908.45001,422.170094 907.037264,424.884585 906.996899,430.313649 C906.996899,431.464045 907.062491,432.508468 907.193676,433.44695 C907.324862,434.385431 907.541819,435.27092 907.844555,436.103444 C908.147291,436.935968 908.586252,437.584317 909.16145,438.048512 C909.736648,438.512707 910.427885,438.744801 911.23518,438.744801 Z M911.23518,441.893239 C910.034328,441.893239 908.954586,441.688895 907.995923,441.280202 C907.037259,440.871508 906.245112,440.316501 905.619458,439.615163 C904.993804,438.913824 904.471592,438.073745 904.052807,437.094899 C903.634023,436.116053 903.336337,435.081721 903.159741,433.991872 C902.983145,432.902022 902.894848,431.736507 902.894848,430.49529 C902.894848,429.23389 902.985668,428.050715 903.167309,426.945729 C903.348951,425.840743 903.651682,424.79632 904.075512,423.812428 C904.499343,422.828537 905.0266,421.988457 905.6573,421.292165 C906.287999,420.595872 907.077624,420.043387 908.026196,419.634694 C908.974768,419.226 910.044419,419.021657 911.23518,419.021657 C912.425942,419.021657 913.495592,419.226 914.444165,419.634694 C915.392737,420.043387 916.179839,420.598395 916.805493,421.299733 C917.431147,422.001071 917.953359,422.843673 918.372143,423.827565 C918.790928,424.811457 919.091136,425.853357 919.272778,426.953297 C919.45442,428.053238 919.545239,429.23389 919.545239,430.49529 C919.545239,431.736507 919.456942,432.902022 919.280346,433.991872 C919.10375,435.081721 918.808587,436.118576 918.394848,437.102467 C917.981109,438.086359 917.46142,438.926438 916.835766,439.622731 C916.210112,440.319023 915.420488,440.871508 914.46687,441.280202 C913.513252,441.688895 912.436033,441.893239 911.23518,441.893239 Z M910.614575,482.560231 L910.614575,464.108571 C910.473298,464.199392 909.819903,464.489509 908.65437,464.978932 C907.488837,465.468355 906.830396,465.733245 906.679028,465.77361 L906.679028,462.746266 C906.921217,462.635263 907.688136,462.254326 908.979809,461.603444 C910.271482,460.952562 910.982901,460.581716 911.114087,460.490895 L914.444165,460.490895 L914.444165,482.560231 L910.614575,482.560231 Z M911.23518,520.744801 C912.042476,520.744801 912.73119,520.512707 913.301342,520.048512 C913.871495,519.584317 914.30541,518.941013 914.6031,518.118581 C914.900791,517.296148 915.115225,516.418227 915.246411,515.484791 C915.377596,514.551356 915.443188,513.514501 915.443188,512.374196 C915.443188,506.904767 914.040533,504.170094 911.23518,504.170094 C908.45001,504.170094 907.037264,506.884585 906.996899,512.313649 C906.996899,513.464045 907.062491,514.508468 907.193676,515.44695 C907.324862,516.385431 907.541819,517.27092 907.844555,518.103444 C908.147291,518.935968 908.586252,519.584317 909.16145,520.048512 C909.736648,520.512707 910.427885,520.744801 911.23518,520.744801 Z M911.23518,523.893239 C910.034328,523.893239 908.954586,523.688895 907.995923,523.280202 C907.037259,522.871508 906.245112,522.316501 905.619458,521.615163 C904.993804,520.913824 904.471592,520.073745 904.052807,519.094899 C903.634023,518.116053 903.336337,517.081721 903.159741,515.991872 C902.983145,514.902022 902.894848,513.736507 902.894848,512.49529 C902.894848,511.23389 902.985668,510.050715 903.167309,508.945729 C903.348951,507.840743 903.651682,506.79632 904.075512,505.812428 C904.499343,504.828537 905.0266,503.988457 905.6573,503.292165 C906.287999,502.595872 907.077624,502.043387 908.026196,501.634694 C908.974768,501.226 910.044419,501.021657 911.23518,501.021657 C912.425942,501.021657 913.495592,501.226 914.444165,501.634694 C915.392737,502.043387 916.179839,502.598395 916.805493,503.299733 C917.431147,504.001071 917.953359,504.843673 918.372143,505.827565 C918.790928,506.811457 919.091136,507.853357 919.272778,508.953297 C919.45442,510.053238 919.545239,511.23389 919.545239,512.49529 C919.545239,513.736507 919.456942,514.902022 919.280346,515.991872 C919.10375,517.081721 918.808587,518.118576 918.394848,519.102467 C917.981109,520.086359 917.46142,520.926438 916.835766,521.622731 C916.210112,522.319023 915.420488,522.871508 914.46687,523.280202 C913.513252,523.688895 912.436033,523.893239 911.23518,523.893239 Z M910.614575,564.560231 L910.614575,546.108571 C910.473298,546.199392 909.819903,546.489509 908.65437,546.978932 C907.488837,547.468355 906.830396,547.733245 906.679028,547.77361 L906.679028,544.746266 C906.921217,544.635263 907.688136,544.254326 908.979809,543.603444 C910.271482,542.952562 910.982901,542.581716 911.114087,542.490895 L914.444165,542.490895 L914.444165,564.560231 L910.614575,564.560231 Z" id="A-0-1-0-1-Copy-2" fill="#FFFFFF"></path>
            <path d="M373.62582,359.575368 L381.390956,348.222829 L374.201015,337.400075 L378.817714,337.400075 L384.039882,345.664723 L389.413417,337.400075 L393.787929,337.400075 L386.446621,348.283375 L394.181484,359.575368 L389.443691,359.575368 L383.843105,350.947438 L378.121425,359.575368 L373.62582,359.575368 Z M383.926357,438.744801 C384.733653,438.744801 385.422366,438.512707 385.992519,438.048512 C386.562672,437.584317 386.996586,436.941013 387.294277,436.118581 C387.591967,435.296148 387.806402,434.418227 387.937587,433.484791 C388.068773,432.551356 388.134365,431.514501 388.134365,430.374196 C388.134365,424.904767 386.731709,422.170094 383.926357,422.170094 C381.141187,422.170094 379.72844,424.884585 379.688076,430.313649 C379.688076,431.464045 379.753667,432.508468 379.884853,433.44695 C380.016038,434.385431 380.232996,435.27092 380.535732,436.103444 C380.838468,436.935968 381.277428,437.584317 381.852626,438.048512 C382.427825,438.512707 383.119061,438.744801 383.926357,438.744801 Z M383.926357,441.893239 C382.725504,441.893239 381.645763,441.688895 380.687099,441.280202 C379.728435,440.871508 378.936288,440.316501 378.310634,439.615163 C377.68498,438.913824 377.162768,438.073745 376.743984,437.094899 C376.325199,436.116053 376.027513,435.081721 375.850917,433.991872 C375.674321,432.902022 375.586025,431.736507 375.586025,430.49529 C375.586025,429.23389 375.676844,428.050715 375.858486,426.945729 C376.040127,425.840743 376.342859,424.79632 376.766689,423.812428 C377.190519,422.828537 377.717776,421.988457 378.348476,421.292165 C378.979176,420.595872 379.7688,420.043387 380.717372,419.634694 C381.665945,419.226 382.735596,419.021657 383.926357,419.021657 C385.117118,419.021657 386.186769,419.226 387.135341,419.634694 C388.083914,420.043387 388.871015,420.598395 389.496669,421.299733 C390.122324,422.001071 390.644535,422.843673 391.06332,423.827565 C391.482104,424.811457 391.782313,425.853357 391.963954,426.953297 C392.145596,428.053238 392.236415,429.23389 392.236415,430.49529 C392.236415,431.736507 392.148119,432.902022 391.971523,433.991872 C391.794927,435.081721 391.499764,436.118576 391.086025,437.102467 C390.672286,438.086359 390.152597,438.926438 389.526943,439.622731 C388.901289,440.319023 388.111664,440.871508 387.158046,441.280202 C386.204428,441.688895 385.127209,441.893239 383.926357,441.893239 Z M383.926357,479.744801 C384.733653,479.744801 385.422366,479.512707 385.992519,479.048512 C386.562672,478.584317 386.996586,477.941013 387.294277,477.118581 C387.591967,476.296148 387.806402,475.418227 387.937587,474.484791 C388.068773,473.551356 388.134365,472.514501 388.134365,471.374196 C388.134365,465.904767 386.731709,463.170094 383.926357,463.170094 C381.141187,463.170094 379.72844,465.884585 379.688076,471.313649 C379.688076,472.464045 379.753667,473.508468 379.884853,474.44695 C380.016038,475.385431 380.232996,476.27092 380.535732,477.103444 C380.838468,477.935968 381.277428,478.584317 381.852626,479.048512 C382.427825,479.512707 383.119061,479.744801 383.926357,479.744801 Z M383.926357,482.893239 C382.725504,482.893239 381.645763,482.688895 380.687099,482.280202 C379.728435,481.871508 378.936288,481.316501 378.310634,480.615163 C377.68498,479.913824 377.162768,479.073745 376.743984,478.094899 C376.325199,477.116053 376.027513,476.081721 375.850917,474.991872 C375.674321,473.902022 375.586025,472.736507 375.586025,471.49529 C375.586025,470.23389 375.676844,469.050715 375.858486,467.945729 C376.040127,466.840743 376.342859,465.79632 376.766689,464.812428 C377.190519,463.828537 377.717776,462.988457 378.348476,462.292165 C378.979176,461.595872 379.7688,461.043387 380.717372,460.634694 C381.665945,460.226 382.735596,460.021657 383.926357,460.021657 C385.117118,460.021657 386.186769,460.226 387.135341,460.634694 C388.083914,461.043387 388.871015,461.598395 389.496669,462.299733 C390.122324,463.001071 390.644535,463.843673 391.06332,464.827565 C391.482104,465.811457 391.782313,466.853357 391.963954,467.953297 C392.145596,469.053238 392.236415,470.23389 392.236415,471.49529 C392.236415,472.736507 392.148119,473.902022 391.971523,474.991872 C391.794927,476.081721 391.499764,477.118576 391.086025,478.102467 C390.672286,479.086359 390.152597,479.926438 389.526943,480.622731 C388.901289,481.319023 388.111664,481.871508 387.158046,482.280202 C386.204428,482.688895 385.127209,482.893239 383.926357,482.893239 Z M383.926357,520.744801 C384.733653,520.744801 385.422366,520.512707 385.992519,520.048512 C386.562672,519.584317 386.996586,518.941013 387.294277,518.118581 C387.591967,517.296148 387.806402,516.418227 387.937587,515.484791 C388.068773,514.551356 388.134365,513.514501 388.134365,512.374196 C388.134365,506.904767 386.731709,504.170094 383.926357,504.170094 C381.141187,504.170094 379.72844,506.884585 379.688076,512.313649 C379.688076,513.464045 379.753667,514.508468 379.884853,515.44695 C380.016038,516.385431 380.232996,517.27092 380.535732,518.103444 C380.838468,518.935968 381.277428,519.584317 381.852626,520.048512 C382.427825,520.512707 383.119061,520.744801 383.926357,520.744801 Z M383.926357,523.893239 C382.725504,523.893239 381.645763,523.688895 380.687099,523.280202 C379.728435,522.871508 378.936288,522.316501 378.310634,521.615163 C377.68498,520.913824 377.162768,520.073745 376.743984,519.094899 C376.325199,518.116053 376.027513,517.081721 375.850917,515.991872 C375.674321,514.902022 375.586025,513.736507 375.586025,512.49529 C375.586025,511.23389 375.676844,510.050715 375.858486,508.945729 C376.040127,507.840743 376.342859,506.79632 376.766689,505.812428 C377.190519,504.828537 377.717776,503.988457 378.348476,503.292165 C378.979176,502.595872 379.7688,502.043387 380.717372,501.634694 C381.665945,501.226 382.735596,501.021657 383.926357,501.021657 C385.117118,501.021657 386.186769,501.226 387.135341,501.634694 C388.083914,502.043387 388.871015,502.598395 389.496669,503.299733 C390.122324,504.001071 390.644535,504.843673 391.06332,505.827565 C391.482104,506.811457 391.782313,507.853357 391.963954,508.953297 C392.145596,510.053238 392.236415,511.23389 392.236415,512.49529 C392.236415,513.736507 392.148119,514.902022 391.971523,515.991872 C391.794927,517.081721 391.499764,518.118576 391.086025,519.102467 C390.672286,520.086359 390.152597,520.926438 389.526943,521.622731 C388.901289,522.319023 388.111664,522.871508 387.158046,523.280202 C386.204428,523.688895 385.127209,523.893239 383.926357,523.893239 Z M383.305751,564.560231 L383.305751,546.108571 C383.164475,546.199392 382.511079,546.489509 381.345546,546.978932 C380.180013,547.468355 379.521572,547.733245 379.370204,547.77361 L379.370204,544.746266 C379.612393,544.635263 380.379313,544.254326 381.670986,543.603444 C382.962659,542.952562 383.674078,542.581716 383.805263,542.490895 L387.135341,542.490895 L387.135341,564.560231 L383.305751,564.560231 Z" id="X-0-0-0-1" fill="#FFFFFF"></path>
            <path d="M693.258173,359.575368 L701.023309,348.222829 L693.833368,337.400075 L698.450067,337.400075 L703.672235,345.664723 L709.04577,337.400075 L713.420282,337.400075 L706.078973,348.283375 L713.813837,359.575368 L709.076044,359.575368 L703.475458,350.947438 L697.753778,359.575368 L693.258173,359.575368 Z M703.55871,438.744801 C704.366005,438.744801 705.054719,438.512707 705.624872,438.048512 C706.195024,437.584317 706.628939,436.941013 706.92663,436.118581 C707.22432,435.296148 707.438755,434.418227 707.56994,433.484791 C707.701126,432.551356 707.766718,431.514501 707.766718,430.374196 C707.766718,424.904767 706.364062,422.170094 703.55871,422.170094 C700.77354,422.170094 699.360793,424.884585 699.320429,430.313649 C699.320429,431.464045 699.38602,432.508468 699.517206,433.44695 C699.648391,434.385431 699.865349,435.27092 700.168085,436.103444 C700.470821,436.935968 700.909781,437.584317 701.484979,438.048512 C702.060177,438.512707 702.751414,438.744801 703.55871,438.744801 Z M703.55871,441.893239 C702.357857,441.893239 701.278116,441.688895 700.319452,441.280202 C699.360788,440.871508 698.568641,440.316501 697.942987,439.615163 C697.317333,438.913824 696.795121,438.073745 696.376337,437.094899 C695.957552,436.116053 695.659866,435.081721 695.48327,433.991872 C695.306674,432.902022 695.218378,431.736507 695.218378,430.49529 C695.218378,429.23389 695.309197,428.050715 695.490839,426.945729 C695.67248,425.840743 695.975212,424.79632 696.399042,423.812428 C696.822872,422.828537 697.350129,421.988457 697.980829,421.292165 C698.611529,420.595872 699.401153,420.043387 700.349725,419.634694 C701.298298,419.226 702.367949,419.021657 703.55871,419.021657 C704.749471,419.021657 705.819122,419.226 706.767694,419.634694 C707.716267,420.043387 708.503368,420.598395 709.129022,421.299733 C709.754676,422.001071 710.276888,422.843673 710.695673,423.827565 C711.114457,424.811457 711.414666,425.853357 711.596307,426.953297 C711.777949,428.053238 711.868768,429.23389 711.868768,430.49529 C711.868768,431.736507 711.780472,432.902022 711.603876,433.991872 C711.42728,435.081721 711.132117,436.118576 710.718378,437.102467 C710.304639,438.086359 709.78495,438.926438 709.159296,439.622731 C708.533642,440.319023 707.744017,440.871508 706.790399,441.280202 C705.836781,441.688895 704.759562,441.893239 703.55871,441.893239 Z M702.938104,482.560231 L702.938104,464.108571 C702.796828,464.199392 702.143432,464.489509 700.977899,464.978932 C699.812366,465.468355 699.153925,465.733245 699.002557,465.77361 L699.002557,462.746266 C699.244746,462.635263 700.011666,462.254326 701.303339,461.603444 C702.595012,460.952562 703.30643,460.581716 703.437616,460.490895 L706.767694,460.490895 L706.767694,482.560231 L702.938104,482.560231 Z M702.938104,523.560231 L702.938104,505.108571 C702.796828,505.199392 702.143432,505.489509 700.977899,505.978932 C699.812366,506.468355 699.153925,506.733245 699.002557,506.77361 L699.002557,503.746266 C699.244746,503.635263 700.011666,503.254326 701.303339,502.603444 C702.595012,501.952562 703.30643,501.581716 703.437616,501.490895 L706.767694,501.490895 L706.767694,523.560231 L702.938104,523.560231 Z M702.938104,564.560231 L702.938104,546.108571 C702.796828,546.199392 702.143432,546.489509 700.977899,546.978932 C699.812366,547.468355 699.153925,547.733245 699.002557,547.77361 L699.002557,544.746266 C699.244746,544.635263 700.011666,544.254326 701.303339,543.603444 C702.595012,542.952562 703.30643,542.581716 703.437616,542.490895 L706.767694,542.490895 L706.767694,564.560231 L702.938104,564.560231 Z" id="X-0-1-1-1" fill="#FFFFFF"></path>
            <path d="M1025.6295,359.575368 L1033.39463,348.222829 L1026.20469,337.400075 L1030.82139,337.400075 L1036.04356,345.664723 L1041.41709,337.400075 L1045.79161,337.400075 L1038.4503,348.283375 L1046.18516,359.575368 L1041.44737,359.575368 L1035.84678,350.947438 L1030.1251,359.575368 L1025.6295,359.575368 Z M1035.93003,438.744801 C1036.73733,438.744801 1037.42604,438.512707 1037.9962,438.048512 C1038.56635,437.584317 1039.00026,436.941013 1039.29795,436.118581 C1039.59564,435.296148 1039.81008,434.418227 1039.94126,433.484791 C1040.07245,432.551356 1040.13804,431.514501 1040.13804,430.374196 C1040.13804,424.904767 1038.73539,422.170094 1035.93003,422.170094 C1033.14486,422.170094 1031.73212,424.884585 1031.69175,430.313649 C1031.69175,431.464045 1031.75734,432.508468 1031.88853,433.44695 C1032.01971,434.385431 1032.23667,435.27092 1032.53941,436.103444 C1032.84214,436.935968 1033.2811,437.584317 1033.8563,438.048512 C1034.4315,438.512707 1035.12274,438.744801 1035.93003,438.744801 Z M1035.93003,441.893239 C1034.72918,441.893239 1033.64944,441.688895 1032.69078,441.280202 C1031.73211,440.871508 1030.93996,440.316501 1030.31431,439.615163 C1029.68866,438.913824 1029.16644,438.073745 1028.74766,437.094899 C1028.32888,436.116053 1028.03119,435.081721 1027.85459,433.991872 C1027.678,432.902022 1027.5897,431.736507 1027.5897,430.49529 C1027.5897,429.23389 1027.68052,428.050715 1027.86216,426.945729 C1028.0438,425.840743 1028.34654,424.79632 1028.77037,423.812428 C1029.1942,422.828537 1029.72145,421.988457 1030.35215,421.292165 C1030.98285,420.595872 1031.77248,420.043387 1032.72105,419.634694 C1033.66962,419.226 1034.73927,419.021657 1035.93003,419.021657 C1037.12079,419.021657 1038.19045,419.226 1039.13902,419.634694 C1040.08759,420.043387 1040.87469,420.598395 1041.50035,421.299733 C1042.126,422.001071 1042.64821,422.843673 1043.067,423.827565 C1043.48578,424.811457 1043.78599,425.853357 1043.96763,426.953297 C1044.14927,428.053238 1044.24009,429.23389 1044.24009,430.49529 C1044.24009,431.736507 1044.1518,432.902022 1043.9752,433.991872 C1043.7986,435.081721 1043.50344,436.118576 1043.0897,437.102467 C1042.67596,438.086359 1042.15627,438.926438 1041.53062,439.622731 C1040.90497,440.319023 1040.11534,440.871508 1039.16172,441.280202 C1038.2081,441.688895 1037.13089,441.893239 1035.93003,441.893239 Z M1035.30943,482.560231 L1035.30943,464.108571 C1035.16815,464.199392 1034.51476,464.489509 1033.34922,464.978932 C1032.18369,465.468355 1031.52525,465.733245 1031.37388,465.77361 L1031.37388,462.746266 C1031.61607,462.635263 1032.38299,462.254326 1033.67466,461.603444 C1034.96634,460.952562 1035.67775,460.581716 1035.80894,460.490895 L1039.13902,460.490895 L1039.13902,482.560231 L1035.30943,482.560231 Z M1035.30943,523.560231 L1035.30943,505.108571 C1035.16815,505.199392 1034.51476,505.489509 1033.34922,505.978932 C1032.18369,506.468355 1031.52525,506.733245 1031.37388,506.77361 L1031.37388,503.746266 C1031.61607,503.635263 1032.38299,503.254326 1033.67466,502.603444 C1034.96634,501.952562 1035.67775,501.581716 1035.80894,501.490895 L1039.13902,501.490895 L1039.13902,523.560231 L1035.30943,523.560231 Z M1035.93003,561.744801 C1036.73733,561.744801 1037.42604,561.512707 1037.9962,561.048512 C1038.56635,560.584317 1039.00026,559.941013 1039.29795,559.118581 C1039.59564,558.296148 1039.81008,557.418227 1039.94126,556.484791 C1040.07245,555.551356 1040.13804,554.514501 1040.13804,553.374196 C1040.13804,547.904767 1038.73539,545.170094 1035.93003,545.170094 C1033.14486,545.170094 1031.73212,547.884585 1031.69175,553.313649 C1031.69175,554.464045 1031.75734,555.508468 1031.88853,556.44695 C1032.01971,557.385431 1032.23667,558.27092 1032.53941,559.103444 C1032.84214,559.935968 1033.2811,560.584317 1033.8563,561.048512 C1034.4315,561.512707 1035.12274,561.744801 1035.93003,561.744801 Z M1035.93003,564.893239 C1034.72918,564.893239 1033.64944,564.688895 1032.69078,564.280202 C1031.73211,563.871508 1030.93996,563.316501 1030.31431,562.615163 C1029.68866,561.913824 1029.16644,561.073745 1028.74766,560.094899 C1028.32888,559.116053 1028.03119,558.081721 1027.85459,556.991872 C1027.678,555.902022 1027.5897,554.736507 1027.5897,553.49529 C1027.5897,552.23389 1027.68052,551.050715 1027.86216,549.945729 C1028.0438,548.840743 1028.34654,547.79632 1028.77037,546.812428 C1029.1942,545.828537 1029.72145,544.988457 1030.35215,544.292165 C1030.98285,543.595872 1031.77248,543.043387 1032.72105,542.634694 C1033.66962,542.226 1034.73927,542.021657 1035.93003,542.021657 C1037.12079,542.021657 1038.19045,542.226 1039.13902,542.634694 C1040.08759,543.043387 1040.87469,543.598395 1041.50035,544.299733 C1042.126,545.001071 1042.64821,545.843673 1043.067,546.827565 C1043.48578,547.811457 1043.78599,548.853357 1043.96763,549.953297 C1044.14927,551.053238 1044.24009,552.23389 1044.24009,553.49529 C1044.24009,554.736507 1044.1518,555.902022 1043.9752,556.991872 C1043.7986,558.081721 1043.50344,559.118576 1043.0897,560.102467 C1042.67596,561.086359 1042.15627,561.926438 1041.53062,562.622731 C1040.90497,563.319023 1040.11534,563.871508 1039.16172,564.280202 C1038.2081,564.688895 1037.13089,564.893239 1035.93003,564.893239 Z" id="X-0-1-1-0" fill="#FFFFFF"></path>
            <path d="M633.382872,61.9726562 C635.532297,61.9726562 637.154433,61.2738514 638.249327,59.8762207 C639.344222,58.47859 639.891661,56.503268 639.891661,53.9501953 C639.891661,51.3668491 639.344222,49.3637766 638.249327,47.940918 C637.154433,46.5180593 635.537343,45.8066406 633.398009,45.8066406 C631.248584,45.8066406 629.621403,46.5205821 628.516417,47.9484863 C627.411431,49.3763906 626.858946,51.3769403 626.858946,53.9501953 C626.858946,56.4931768 627.408908,58.4659761 628.508849,59.8686523 C629.608789,61.2713286 631.233447,61.9726562 633.382872,61.9726562 Z M633.367736,65.3178711 C630.02755,65.3178711 627.391264,64.3062438 625.4588,62.282959 C623.526336,60.2596741 622.560118,57.4669774 622.560118,53.9047852 C622.560118,50.3224105 623.528859,47.527191 625.466368,45.519043 C627.403878,43.5108949 630.042686,42.5068359 633.382872,42.5068359 C636.723058,42.5068359 639.356821,43.5134177 641.284239,45.5266113 C643.211658,47.539805 644.175353,50.3375472 644.175353,53.9199219 C644.175353,57.4619318 643.206612,60.2470602 641.269103,62.2753906 C639.331593,64.3037211 636.69783,65.3178711 633.367736,65.3178711 Z M649.10768,65 L649.10768,42.7641602 L657.326919,42.7641602 C658.447041,42.7641602 659.418305,42.8146154 660.240737,42.9155273 C661.06317,43.0164393 661.845225,43.2006009 662.586928,43.4680176 C663.328631,43.7354343 663.929049,44.0961891 664.388198,44.550293 C664.847347,45.0043968 665.210625,45.5972457 665.478042,46.3288574 C665.745458,47.0604692 665.879165,47.9257763 665.879165,48.9248047 C665.879165,51.871434 664.542101,53.8089146 661.867934,54.7373047 C662.412859,55.3528677 663.088959,56.4931557 663.896255,58.1582031 L667.196059,65 L662.715591,65 L660.127212,59.2026367 C659.148366,57.1238503 658.542903,55.8927428 658.310805,55.5092773 C658.139255,55.4991861 657.569111,55.4941406 656.600356,55.4941406 L653.164321,55.4638672 L653.164321,65 L649.10768,65 Z M657.6902,52.5273438 C659.264427,52.5273438 660.394624,52.2473173 661.080825,51.6872559 C661.767026,51.1271945 662.110122,50.2265687 662.110122,48.9853516 C662.110122,47.8955024 661.761981,47.0932643 661.065688,46.5786133 C660.369396,46.0639623 659.30479,45.8066406 657.871841,45.8066406 L653.164321,45.8066406 L653.164321,52.512207 C653.315689,52.512207 654.067472,52.5147298 655.419692,52.5197754 C656.771912,52.524821 657.528741,52.5273438 657.6902,52.5273438 Z" id="OR" fill="#FFFFFF"></path>
            <path d="M941.202109,65 L948.967245,53.6474609 L941.777304,42.824707 L946.394003,42.824707 L951.616171,51.0893555 L956.989706,42.824707 L961.364218,42.824707 L954.02291,53.7080078 L961.757773,65 L957.01998,65 L951.419394,56.3720703 L945.697714,65 L941.202109,65 Z M975.075843,61.9726562 C977.225268,61.9726562 978.847403,61.2738514 979.942298,59.8762207 C981.037193,58.47859 981.584632,56.503268 981.584632,53.9501953 C981.584632,51.3668491 981.037193,49.3637766 979.942298,47.940918 C978.847403,46.5180593 977.230313,45.8066406 975.090979,45.8066406 C972.941555,45.8066406 971.314374,46.5205821 970.209388,47.9484863 C969.104402,49.3763906 968.551917,51.3769403 968.551917,53.9501953 C968.551917,56.4931768 969.101879,58.4659761 970.201819,59.8686523 C971.30176,61.2713286 972.926418,61.9726562 975.075843,61.9726562 Z M975.060706,65.3178711 C971.72052,65.3178711 969.084235,64.3062438 967.15177,62.282959 C965.219306,60.2596741 964.253089,57.4669774 964.253089,53.9047852 C964.253089,50.3224105 965.221829,47.527191 967.159339,45.519043 C969.096848,43.5108949 971.735657,42.5068359 975.075843,42.5068359 C978.416029,42.5068359 981.049791,43.5134177 982.97721,45.5266113 C984.904628,47.539805 985.868323,50.3375472 985.868323,53.9199219 C985.868323,57.4619318 984.899583,60.2470602 982.962073,62.2753906 C981.024563,64.3037211 978.390801,65.3178711 975.060706,65.3178711 Z M990.800651,65 L990.800651,42.7641602 L999.019889,42.7641602 C1000.14001,42.7641602 1001.11128,42.8146154 1001.93371,42.9155273 C1002.75614,43.0164393 1003.5382,43.2006009 1004.2799,43.4680176 C1005.0216,43.7354343 1005.62202,44.0961891 1006.08117,44.550293 C1006.54032,45.0043968 1006.9036,45.5972457 1007.17101,46.3288574 C1007.43843,47.0604692 1007.57214,47.9257763 1007.57214,48.9248047 C1007.57214,51.871434 1006.23507,53.8089146 1003.5609,54.7373047 C1004.10583,55.3528677 1004.78193,56.4931557 1005.58923,58.1582031 L1008.88903,65 L1004.40856,65 L1001.82018,59.2026367 C1000.84134,57.1238503 1000.23587,55.8927428 1000.00378,55.5092773 C999.832226,55.4991861 999.262081,55.4941406 998.293327,55.4941406 L994.857291,55.4638672 L994.857291,65 L990.800651,65 Z M999.38317,52.5273438 C1000.9574,52.5273438 1002.08759,52.2473173 1002.7738,51.6872559 C1003.46,51.1271945 1003.80309,50.2265687 1003.80309,48.9853516 C1003.80309,47.8955024 1003.45495,47.0932643 1002.75866,46.5786133 C1002.06237,46.0639623 1000.99776,45.8066406 999.564811,45.8066406 L994.857291,45.8066406 L994.857291,52.512207 C995.008659,52.512207 995.760442,52.5147298 997.112663,52.5197754 C998.464883,52.524821 999.221711,52.5273438 999.38317,52.5273438 Z" id="XOR" fill="#FFFFFF"></path>
            <path d="M36.2589395,202.302734 C33.5847725,202.302734 31.1881493,201.687181 29.0689981,200.456055 L30.0680215,197.20166 C31.016594,197.726402 32.0484033,198.150226 33.1634805,198.473145 C34.2785577,198.796063 35.3658678,198.95752 36.4254434,198.95752 C37.7272077,198.95752 38.7110846,198.677493 39.3771036,198.117432 C40.0431225,197.55737 40.376127,196.752609 40.376127,195.703125 C40.376127,194.31054 39.4477509,193.346845 37.5909708,192.812012 C37.4597852,192.771647 37.0914621,192.663168 36.4859903,192.486572 C35.8805185,192.309976 35.3128972,192.138429 34.7831094,191.971924 C34.2533216,191.805419 33.8723847,191.676758 33.6402872,191.585938 C30.6633843,190.536453 29.1749551,188.57879 29.1749551,185.712891 C29.1749551,183.704743 29.8888966,182.155767 31.3168008,181.065918 C32.7447051,179.976069 34.6392988,179.431152 37.0006387,179.431152 C39.6748057,179.431152 41.9806095,179.981114 43.9181192,181.081055 L42.6769083,184.078125 C40.6990338,183.1901 38.8624636,182.746094 37.1671426,182.746094 C35.9461079,182.746094 35.0253,182.960528 34.4046915,183.389404 C33.7840829,183.81828 33.4536012,184.532222 33.4132364,185.53125 C33.4132364,186.762376 34.0237446,187.564614 35.2447793,187.937988 C35.4869681,188.028809 36.0823397,188.225584 37.0309122,188.52832 C37.9794846,188.831056 38.5950383,189.027832 38.8775918,189.118652 C40.9059223,189.784671 42.35651,190.612137 43.2293985,191.601074 C44.102287,192.590011 44.5387247,193.967439 44.5387247,195.733398 C44.5387247,197.842458 43.7919873,199.464594 42.2984903,200.599854 C40.8049932,201.735113 38.7918298,202.302734 36.2589395,202.302734 Z M49.6829664,209.008301 C49.0371298,209.008301 48.3509388,208.967937 47.6243727,208.887207 L47.4275953,205.814453 C47.8917903,205.864909 48.4821165,205.890137 49.1985914,205.890137 C50.1168903,205.890137 50.8535365,205.708498 51.4085523,205.345215 C51.9635681,204.981932 52.4227107,204.336105 52.7859938,203.407715 C52.8263585,203.306803 53.0281794,202.736659 53.3914625,201.697266 L46.7010328,185.364746 L50.9393141,185.364746 L55.3138258,197.428711 C55.6367441,196.227859 56.3607765,193.997738 57.4859449,190.738281 C58.6111133,187.478825 59.2291898,185.687664 59.340193,185.364746 L63.5784742,185.364746 C58.9667975,197.554911 56.6408117,203.700358 56.6004469,203.80127 C55.8839719,205.668141 54.9808234,207.002682 53.8909742,207.804932 C52.801125,208.607182 51.3984698,209.008301 49.6829664,209.008301 Z M66.8457628,202 L66.8457628,185.364746 L70.0547472,185.364746 L70.5088488,187.483887 C70.7106727,187.231607 70.9049253,187.007081 71.0916125,186.810303 C71.2782996,186.613524 71.5356212,186.391521 71.8635851,186.144287 C72.191549,185.897053 72.53969,185.692709 72.9080187,185.53125 C73.2763474,185.369791 73.7304444,185.233562 74.2703234,185.122559 C74.8102024,185.011555 75.3879147,184.956055 76.0034777,184.956055 C77.3254244,184.956055 78.3824614,185.223467 79.1746203,185.758301 C79.9667792,186.293134 80.5243094,186.918779 80.8472277,187.635254 C81.4426083,186.777502 82.2145732,186.116539 83.1631457,185.652344 C84.1117181,185.188149 85.1662323,184.956055 86.3267199,184.956055 C88.233956,184.956055 89.6340885,185.495926 90.5271593,186.575684 C91.4202302,187.655442 91.8667589,189.254872 91.8667589,191.374023 L91.8667589,202 L87.8858019,202 L87.8858019,192.554688 C87.8858019,190.930005 87.7066859,189.756921 87.3484484,189.0354 C86.9902109,188.31388 86.3065426,187.953125 85.297423,187.953125 C83.75347,187.953125 82.643455,188.649407 81.9673449,190.041992 C81.6847914,190.657555 81.4930615,191.399247 81.3921496,192.26709 L81.3921496,202 L77.4263293,202 L77.4263293,192.373047 C77.4263293,190.889641 77.2295539,189.784672 76.8359972,189.058105 C76.4424406,188.331539 75.7310219,187.968262 74.7017199,187.968262 C73.8641506,187.968262 73.1426409,188.180174 72.5371691,188.604004 C71.9316973,189.027834 71.4725548,189.582842 71.1597277,190.269043 C70.9276302,191.288254 70.8115832,192.50927 70.8115832,193.932129 L70.8115832,202 L66.8457628,202 Z M105.835708,202.317871 C104.705494,202.317871 103.67873,202.068118 102.755385,201.568604 C101.832041,201.069089 101.163509,200.501468 100.74977,199.865723 L100.356216,201.984863 L96.9201804,201.984863 L96.9201804,179.234375 L100.886001,178.977051 L100.886001,184.123535 C100.886001,185.122564 100.855728,186.257806 100.79518,187.529297 C102.107036,185.813794 103.817468,184.956055 105.926528,184.956055 C108.045679,184.956055 109.708179,185.743156 110.914077,187.317383 C112.119975,188.891609 112.722915,190.950183 112.722915,193.493164 C112.722915,196.137057 112.099793,198.268791 110.85353,199.888428 C109.607267,201.508065 107.934677,202.317871 105.835708,202.317871 Z M104.882094,199.305664 C106.062764,199.305664 107.006277,198.806157 107.712661,197.807129 C108.419045,196.8081 108.772231,195.390309 108.772231,193.553711 C108.772231,191.707022 108.426613,190.309412 107.735366,189.36084 C107.044119,188.412267 106.108175,187.937988 104.927505,187.937988 C102.243246,187.937988 100.886001,189.749331 100.855727,193.37207 C100.855727,195.410492 101.193777,196.909012 101.869887,197.867676 C102.545998,198.826339 103.550057,199.305664 104.882094,199.305664 Z M124.360809,199.305664 C125.702938,199.305664 126.712042,198.816248 127.388153,197.837402 C128.064263,196.858556 128.402313,195.455901 128.402313,193.629395 C128.402313,191.782706 128.064263,190.375005 127.388153,189.40625 C126.712042,188.437495 125.692847,187.953125 124.330535,187.953125 C122.988406,187.953125 121.976779,188.440018 121.295623,189.413818 C120.614468,190.387619 120.273895,191.797842 120.273895,193.644531 C120.273895,195.460947 120.61699,196.858556 121.303192,197.837402 C121.989393,198.816248 123.008589,199.305664 124.360809,199.305664 Z M124.254852,202.317871 C121.7926,202.317871 119.855119,201.520679 118.442352,199.92627 C117.029584,198.331861 116.323211,196.232923 116.323211,193.629395 C116.323211,190.945136 117.029584,188.82854 118.442352,187.279541 C119.855119,185.730542 121.848101,184.956055 124.421356,184.956055 C126.90379,184.956055 128.848839,185.745679 130.256561,187.324951 C131.664283,188.904223 132.368133,191.005683 132.368133,193.629395 C132.368133,196.283379 131.656714,198.39493 130.233856,199.964111 C128.810997,201.533292 126.818016,202.317871 124.254852,202.317871 Z M142.583176,202.227051 C141.44287,202.227051 140.496835,202.093344 139.745041,201.825928 C138.993247,201.558511 138.400398,201.132164 137.966476,200.546875 C137.532555,199.961586 137.229824,199.265304 137.058273,198.458008 C136.886723,197.650712 136.800949,196.646653 136.800949,195.445801 L136.800949,179.234375 L140.766769,178.977051 L140.766769,195.370117 C140.766769,196.863614 140.943363,197.875241 141.296555,198.405029 C141.649746,198.934817 142.335937,199.199707 143.355148,199.199707 C143.859708,199.199707 144.500489,199.144206 145.277512,199.033203 L145.383469,201.86377 C145.373377,201.86377 145.249762,201.888997 145.012619,201.939453 C144.775476,201.989909 144.548427,202.032796 144.331467,202.068115 C144.114506,202.103434 143.839525,202.138753 143.506515,202.174072 C143.173506,202.209391 142.865729,202.227051 142.583176,202.227051 Z" id="Symbol" fill="#FFFFFF"></path>
            <path d="M51.7502498,442 L51.7502498,423.109375 L45.2868709,423.109375 L45.2868709,419.824707 L62.3005428,419.824707 L62.3005428,423.109375 L55.8674373,423.109375 L55.8674373,442 L51.7502498,442 Z M65.6889252,442 L65.6889252,425.364746 L69.0190033,425.364746 L69.5336517,427.907715 C70.6235009,426.161938 72.2027495,425.289062 74.2714447,425.289062 C74.7053661,425.289062 75.0585527,425.309245 75.331015,425.349609 L75.2704681,428.664551 C74.8668203,428.604004 74.4480419,428.57373 74.0141205,428.57373 C72.550897,428.57373 71.4585414,428.962236 70.7370209,429.739258 C70.0155003,430.51628 69.6547455,431.596022 69.6547455,432.978516 L69.6547455,442 L65.6889252,442 Z M85.682288,442.317871 C83.522772,442.317871 81.7845895,441.778 80.4676884,440.698242 C79.1507873,439.618484 78.4923466,438.03419 78.4923466,435.945312 L78.4923466,425.364746 L82.4733036,425.364746 L82.4733036,435.793945 C82.4733036,437.035162 82.733148,437.933265 83.2528447,438.488281 C83.7725413,439.043297 84.5974842,439.320801 85.7276982,439.320801 C86.8377298,439.320801 87.6475361,439.04582 88.1571415,438.49585 C88.6667469,437.945879 88.9215458,437.045254 88.9215458,435.793945 L88.9215458,425.364746 L92.8873661,425.364746 L92.8873661,435.945312 C92.8873661,438.024099 92.2264027,439.60587 90.904456,440.690674 C89.5825093,441.775477 87.841804,442.317871 85.682288,442.317871 Z M104.298209,442.227051 C103.167995,442.227051 102.227006,442.093344 101.475211,441.825928 C100.723417,441.558511 100.135614,441.13721 99.7117837,440.562012 C99.2879534,439.986814 98.9877448,439.308191 98.8111489,438.526123 C98.634553,437.744055 98.5462563,436.777838 98.5462563,435.627441 L98.5462563,427.771484 L95.821647,427.771484 L95.9730141,425.62207 L98.8187173,425.364746 L100.090202,420.854004 L102.512077,420.838867 L102.512077,425.364746 L106.644401,425.364746 L106.644401,427.771484 L102.512077,427.771484 L102.512077,435.703125 C102.512077,436.964525 102.693715,437.862628 103.056999,438.397461 C103.420282,438.932294 104.091336,439.199707 105.070182,439.199707 C105.64538,439.199707 106.260934,439.149252 106.916862,439.04834 L107.022819,441.894043 C107.002636,441.894043 106.879021,441.916748 106.651969,441.962158 C106.424917,442.007569 106.20796,442.047933 106.00109,442.083252 C105.794221,442.118571 105.529331,442.151367 105.206413,442.181641 C104.883494,442.211914 104.580763,442.227051 104.298209,442.227051 Z M110.956123,442 L110.956123,419.234375 L114.921943,418.977051 L114.921943,423.775391 C114.921943,424.007488 114.906807,424.650792 114.876533,425.705322 C114.84626,426.759852 114.831123,427.2972 114.831123,427.317383 C116.15307,425.743156 117.929094,424.956055 120.159248,424.956055 C122.016028,424.956055 123.456525,425.488357 124.480781,426.552979 C125.505038,427.6176 126.017158,429.254872 126.017158,431.464844 L126.017158,442 L122.051338,442 L122.051338,431.903809 C122.051338,430.541497 121.83438,429.542484 121.400459,428.906738 C120.966538,428.270993 120.229891,427.953125 119.190498,427.953125 C118.302473,427.953125 117.515371,428.177651 116.82917,428.626709 C116.142969,429.075767 115.628325,429.65348 115.285225,430.359863 C115.043036,431.288253 114.921943,432.499179 114.921943,433.992676 L114.921943,442 L110.956123,442 Z M50.0776424,483 L50.0776424,464.109375 L43.6142635,464.109375 L43.6142635,460.824707 L60.6279354,460.824707 L60.6279354,464.109375 L54.1948299,464.109375 L54.1948299,483 L50.0776424,483 Z M68.1940521,483.317871 C66.6500991,483.317871 65.4013323,482.891524 64.4477142,482.038818 C63.4940962,481.186112 63.0172943,479.957528 63.0172943,478.353027 C63.0172943,476.627433 63.5823928,475.348393 64.7126068,474.515869 C65.8428208,473.683345 67.5482074,473.156088 69.8288178,472.934082 C70.1416448,472.893717 70.4796948,472.853353 70.8429779,472.812988 C71.206261,472.772623 71.6149483,472.732259 72.0690521,472.691895 C72.523156,472.65153 72.8813881,472.616211 73.1437592,472.585938 L73.1437592,471.708008 C73.1437592,470.698888 72.9116651,469.964765 72.4474701,469.505615 C71.9832751,469.046466 71.2769019,468.816895 70.3283295,468.816895 C68.9761092,468.816895 67.3060412,469.195309 65.3180756,469.952148 C65.3079844,469.921875 65.1414821,469.462732 64.8185638,468.574707 C64.4956456,467.686682 64.3291433,467.232585 64.3190521,467.212402 C66.2767442,466.374833 68.3958636,465.956055 70.676474,465.956055 C72.9167196,465.956055 74.5464233,466.442948 75.5656342,467.416748 C76.584845,468.390548 77.0944428,469.967274 77.0944428,472.146973 L77.0944428,483 L74.1579193,483 C74.1478281,482.959635 74.0368266,482.621585 73.8249115,481.98584 C73.6129964,481.350094 73.5070404,481.012044 73.5070404,480.97168 C72.6795623,481.778975 71.869756,482.371824 71.077597,482.750244 C70.2854381,483.128664 69.3242661,483.317871 68.1940521,483.317871 Z M69.2687592,480.502441 C70.187058,480.502441 70.9867733,480.282961 71.6679291,479.843994 C72.3490848,479.405027 72.8359777,478.872724 73.1286224,478.24707 L73.1286224,475.038086 C73.0983489,475.038086 72.8334589,475.058268 72.3339447,475.098633 C71.8344305,475.138998 71.564495,475.15918 71.5241303,475.15918 C69.91963,475.300456 68.7440233,475.603188 67.9972748,476.067383 C67.2505263,476.531578 66.8771576,477.278315 66.8771576,478.307617 C66.8771576,479.014001 67.084024,479.556395 67.4977631,479.934814 C67.9115021,480.313234 68.5018282,480.502441 69.2687592,480.502441 Z M91.1542118,483.317871 C90.0239979,483.317871 88.997234,483.068118 88.0738896,482.568604 C87.1505451,482.069089 86.4820134,481.501468 86.0682743,480.865723 L85.6747197,482.984863 L82.2386845,482.984863 L82.2386845,460.234375 L86.2045048,459.977051 L86.2045048,465.123535 C86.2045048,466.122564 86.1742317,467.257806 86.1136845,468.529297 C87.42554,466.813794 89.1359721,465.956055 91.2450322,465.956055 C93.3641834,465.956055 95.026683,466.743156 96.232581,468.317383 C97.4384789,469.891609 98.0414189,471.950183 98.0414189,474.493164 C98.0414189,477.137057 97.4182969,479.268791 96.1720341,480.888428 C94.9257714,482.508065 93.2531807,483.317871 91.1542118,483.317871 Z M90.2005986,480.305664 C91.3812685,480.305664 92.3247812,479.806157 93.031165,478.807129 C93.7375487,477.8081 94.0907353,476.390309 94.0907353,474.553711 C94.0907353,472.707022 93.745117,471.309412 93.05387,470.36084 C92.3626231,469.412267 91.4266787,468.937988 90.2460087,468.937988 C87.5617505,468.937988 86.204505,470.749331 86.1742314,474.37207 C86.1742314,476.410492 86.5122814,477.909012 87.1883915,478.867676 C87.8645017,479.826339 88.8685607,480.305664 90.2005986,480.305664 Z M108.256461,483.227051 C107.116156,483.227051 106.170121,483.093344 105.418327,482.825928 C104.666533,482.558511 104.073684,482.132164 103.639762,481.546875 C103.205841,480.961586 102.903109,480.265304 102.731559,479.458008 C102.560009,478.650712 102.474235,477.646653 102.474235,476.445801 L102.474235,460.234375 L106.440055,459.977051 L106.440055,476.370117 C106.440055,477.863614 106.616648,478.875241 106.96984,479.405029 C107.323032,479.934817 108.009223,480.199707 109.028434,480.199707 C109.532994,480.199707 110.173775,480.144206 110.950797,480.033203 L111.056754,482.86377 C111.046663,482.86377 110.923048,482.888997 110.685905,482.939453 C110.448762,482.989909 110.221713,483.032796 110.004752,483.068115 C109.787792,483.103434 109.512811,483.138753 109.179801,483.174072 C108.846792,483.209391 108.539015,483.227051 108.256461,483.227051 Z M121.771309,483.317871 C119.097142,483.317871 117.015864,482.548429 115.527412,481.009521 C114.038961,479.470614 113.294746,477.343926 113.294746,474.629395 C113.294746,471.985501 113.996074,469.881518 115.39875,468.317383 C116.801426,466.753247 118.713679,465.966146 121.135566,465.956055 C123.426268,465.956055 125.204815,466.672519 126.47126,468.105469 C127.737705,469.538419 128.370918,471.440581 128.370918,473.812012 C128.370918,473.983562 128.368395,474.261066 128.36335,474.644531 C128.358304,475.027997 128.355781,475.310546 128.355781,475.492188 L117.29084,475.492188 C117.331205,477.046232 117.757551,478.249589 118.569893,479.102295 C119.382234,479.955001 120.499817,480.381348 121.922676,480.381348 C123.739091,480.381348 125.484842,479.907069 127.159981,478.958496 L127.720039,481.773926 C126.054992,482.803228 124.072101,483.317871 121.771309,483.317871 Z M117.366523,472.994629 L124.632148,472.994629 C124.632148,471.642409 124.324372,470.603031 123.708809,469.876465 C123.093246,469.149899 122.240552,468.786621 121.150703,468.786621 C120.131492,468.786621 119.271231,469.139808 118.569893,469.846191 C117.868554,470.552575 117.467435,471.602044 117.366523,472.994629 Z" id="Truth-Table" fill="#FFFFFF"></path>
            <rect id="Rectangle" stroke="#FFFFFF" stroke-width="4" fill-rule="nonzero" x="2" y="2" width="1135.55882" height="626" rx="10"></rect>
            <path d="M4.63235294,106.544118 L1137.40073,106.544118" id="Line" stroke="#FFFFFF" stroke-width="4" stroke-linecap="square" fill-rule="nonzero"></path>
            <path d="M4.63235294,281.665441 L1137.40073,281.665441" id="Line-Copy" stroke="#FFFFFF" stroke-width="4" stroke-linecap="square" fill-rule="nonzero"></path>
            <path d="M237.987132,387.090993 L408.226103,387.090993" id="Line-Copy-5" stroke="#FFFFFF" stroke-width="2" stroke-linecap="square" fill-rule="nonzero"></path>
            <path d="M248.988971,172.501838 L286.531839,172.501838" id="Line-Copy-10" stroke="#FFFFFF" stroke-width="3" stroke-linecap="square" fill-rule="nonzero"></path>
            <path d="M557.619485,387.090993 L727.858456,387.090993" id="Line-Copy-6" stroke="#FFFFFF" stroke-width="2" stroke-linecap="square" fill-rule="nonzero"></path>
            <path d="M889.990809,387.090993 L1060.22978,387.090993" id="Line-Copy-8" stroke="#FFFFFF" stroke-width="2" stroke-linecap="square" fill-rule="nonzero"></path>
            <path d="M352.058824,591.204044 L352.058824,323.106618" id="Line-Copy-5" stroke="#FFFFFF" stroke-width="3" stroke-linecap="square" fill-rule="nonzero"></path>
            <path d="M671.691176,591.204044 L671.691176,323.106618" id="Line-Copy-7" stroke="#FFFFFF" stroke-width="3" stroke-linecap="square" fill-rule="nonzero"></path>
            <path d="M1004.0625,591.204044 L1004.0625,323.106618" id="Line-Copy-9" stroke="#FFFFFF" stroke-width="3" stroke-linecap="square" fill-rule="nonzero"></path>
            <path d="M169.080882,627.625919 L169.080882,2.25827206" id="Line-Copy-2" stroke="#FFFFFF" stroke-width="4" stroke-linecap="square" fill-rule="nonzero"></path>
            <path d="M475.066176,627.625919 L475.066176,2.25827206" id="Line-Copy-3" stroke="#FFFFFF" stroke-width="4" stroke-linecap="square" fill-rule="nonzero"></path>
            <path d="M810.911765,627.625919 L810.911765,2.25827206" id="Line-Copy-4" stroke="#FFFFFF" stroke-width="4" stroke-linecap="square" fill-rule="nonzero"></path>
            <g id="Group-2" transform="translate(245.000000, 133.000000)">
                <path d="M2.95019531,31 L11.8984375,6.66210938 L16.7958984,6.66210938 L25.6113281,31 L20.9960938,31 L18.5888672,24.1269531 L10.0722656,24.1269531 L7.6484375,31 L2.95019531,31 Z M11.2011719,20.7734375 L17.4433594,20.7734375 C15.4511619,14.3873379 14.4274091,11.0891938 14.3720703,10.8789062 L11.2011719,20.7734375 Z" id="A" fill="#FFFFFF"></path>
                <polygon id="X" fill="#FFFFFF" points="161.685847 57.7606209 170.202448 45.309449 162.316706 33.4393319 167.380183 33.4393319 173.107722 42.503785 179.001277 33.4393319 183.799128 33.4393319 175.74737 45.3758553 184.230769 57.7606209 179.03448 57.7606209 172.891902 48.2977303 166.616511 57.7606209"></polygon>
                <path d="M2.62304688,85 L2.62304688,60.6787109 L10.2099609,60.6787109 C13.4306802,60.6787109 15.8323489,61.1490838 17.4150391,62.0898438 C18.9977293,63.0306037 19.7890625,64.5966687 19.7890625,66.7880859 C19.7890625,67.1422544 19.7669273,67.4908837 19.7226562,67.8339844 C19.6783852,68.177085 19.5787768,68.5672179 19.4238281,69.0043945 C19.2688794,69.4415712 19.0641289,69.8372378 18.8095703,70.1914062 C18.5550117,70.5455747 18.2008486,70.8914371 17.7470703,71.2290039 C17.293292,71.5665707 16.7620473,71.8294261 16.1533203,72.0175781 C17.6585362,72.3828143 18.8095663,73.0828399 19.6064453,74.1176758 C20.4033243,75.1525117 20.8017578,76.4280523 20.8017578,77.9443359 C20.8017578,80.235363 19.9910563,81.9840434 18.3696289,83.1904297 C16.7482015,84.3968159 14.5042461,85 11.6376953,85 L2.62304688,85 Z M7.12207031,81.7460938 L11.0234375,81.7460938 C14.4765798,81.7460938 16.203125,80.3958468 16.203125,77.6953125 C16.203125,76.3339776 15.7714887,75.3544952 14.9082031,74.7568359 C14.0449176,74.1591767 12.711272,73.8603516 10.9072266,73.8603516 L7.12207031,73.8603516 L7.12207031,81.7460938 Z M7.12207031,70.7226562 L10.9736328,70.7226562 C13.9508612,70.7226562 15.4394531,69.5882275 15.4394531,67.3193359 C15.4394531,66.0465431 15.0105837,65.1722029 14.152832,64.6962891 C13.2950803,64.2203752 11.9309989,63.9824219 10.0605469,63.9824219 L7.12207031,63.9824219 L7.12207031,70.7226562 Z" id="B-Copy" fill="#FFFFFF"></path>
                <path d="M3.01552288,94.5 L39.7250819,94.5" id="Line-Copy-10" stroke="#FFFFFF" stroke-width="3" stroke-linecap="square" fill-rule="nonzero"></path>
                <path d="M137.975082,66.4076797 L182.561479,66.4076797" id="Line-Copy-11" stroke="#FFFFFF" stroke-width="3" stroke-linecap="square" fill-rule="nonzero"></path>
                <path d="M41.8096405,32.5216503 L41.8096405,101.70915 L101.881332,101.70915 C120.986932,101.70915 136.475082,86.2210009 136.475082,67.1154003 C136.475082,48.0097998 120.986932,32.5216503 101.881332,32.5216503 L41.8096405,32.5216503 Z" id="Rectangle-2" stroke="#FFFFFF" stroke-width="3" fill-rule="nonzero"></path>
            </g>
            <g id="Group-3" transform="translate(551.000000, 133.000000)">
                <path d="M2.95019531,31 L11.8984375,6.66210938 L16.7958984,6.66210938 L25.6113281,31 L20.9960938,31 L18.5888672,24.1269531 L10.0722656,24.1269531 L7.6484375,31 L2.95019531,31 Z M11.2011719,20.7734375 L17.4433594,20.7734375 C15.4511619,14.3873379 14.4274091,11.0891938 14.3720703,10.8789062 L11.2011719,20.7734375 Z" id="A-Copy" fill="#FFFFFF"></path>
                <polygon id="X-Copy" fill="#FFFFFF" points="167.134729 58.193516 175.651331 45.7423442 167.765588 33.872227 172.829065 33.872227 178.556604 42.9366801 184.450159 33.872227 189.24801 33.872227 181.196253 45.8087504 189.679651 58.193516 184.483362 58.193516 178.340784 48.7306254 172.065393 58.193516"></polygon>
                <path d="M2.62304688,88 L2.62304688,63.6787109 L10.2099609,63.6787109 C13.4306802,63.6787109 15.8323489,64.1490838 17.4150391,65.0898438 C18.9977293,66.0306037 19.7890625,67.5966687 19.7890625,69.7880859 C19.7890625,70.1422544 19.7669273,70.4908837 19.7226562,70.8339844 C19.6783852,71.177085 19.5787768,71.5672179 19.4238281,72.0043945 C19.2688794,72.4415712 19.0641289,72.8372378 18.8095703,73.1914062 C18.5550117,73.5455747 18.2008486,73.8914371 17.7470703,74.2290039 C17.293292,74.5665707 16.7620473,74.8294261 16.1533203,75.0175781 C17.6585362,75.3828143 18.8095663,76.0828399 19.6064453,77.1176758 C20.4033243,78.1525117 20.8017578,79.4280523 20.8017578,80.9443359 C20.8017578,83.235363 19.9910563,84.9840434 18.3696289,86.1904297 C16.7482015,87.3968159 14.5042461,88 11.6376953,88 L2.62304688,88 Z M7.12207031,84.7460938 L11.0234375,84.7460938 C14.4765798,84.7460938 16.203125,83.3958468 16.203125,80.6953125 C16.203125,79.3339776 15.7714887,78.3544952 14.9082031,77.7568359 C14.0449176,77.1591767 12.711272,76.8603516 10.9072266,76.8603516 L7.12207031,76.8603516 L7.12207031,84.7460938 Z M7.12207031,73.7226562 L10.9736328,73.7226562 C13.9508612,73.7226562 15.4394531,72.5882275 15.4394531,70.3193359 C15.4394531,69.0465431 15.0105837,68.1722029 14.152832,67.6962891 C13.2950803,67.2203752 11.9309989,66.9824219 10.0605469,66.9824219 L7.12207031,66.9824219 L7.12207031,73.7226562 Z" id="B-Copy-2" fill="#FFFFFF"></path>
                <path d="M3.60511364,40.2478275 L51.101742,40.2478275" id="Line-Copy-12" stroke="#FFFFFF" stroke-width="3" stroke-linecap="square" fill-rule="nonzero"></path>
                <path d="M2.18382353,97.0994318 L51.9289773,97.0994318" id="Line-Copy-13" stroke="#FFFFFF" stroke-width="3" stroke-linecap="square" fill-rule="nonzero"></path>
                <path d="M144.506852,69.0949198 L189.27749,69.0949198" id="Line-Copy-14" stroke="#FFFFFF" stroke-width="3" stroke-linecap="square" fill-rule="nonzero"></path>
                <path d="M49.301646,33.2200869 C56.9091643,44.5853661 60.7294452,56.0080522 60.7294452,67.4688642 C60.7294452,78.969224 56.8827965,90.7191005 49.2223981,102.705882 L101.809852,102.705882 C110.387719,102.705882 118.509359,98.8423645 123.921364,92.1872901 L142.60024,69.2181089 L123.888475,44.5127312 C118.500889,37.3994344 110.092676,33.2200869 101.169388,33.2200869 L49.301646,33.2200869 Z" id="Rectangle-2-Copy" stroke="#FFFFFF" stroke-width="3" fill-rule="nonzero"></path>
            </g>
            <g id="Group-4" transform="translate(879.000000, 138.000000)">
                <path d="M1.95019531,25 L10.8984375,0.662109375 L15.7958984,0.662109375 L24.6113281,25 L19.9960938,25 L17.5888672,18.1269531 L9.07226562,18.1269531 L6.6484375,25 L1.95019531,25 Z M10.2011719,14.7734375 L16.4433594,14.7734375 C14.4511619,8.38733786 13.4274091,5.08919376 13.3720703,4.87890625 L10.2011719,14.7734375 Z" id="A-Copy-2" fill="#FFFFFF"></path>
                <polygon id="X-Copy-2" fill="#FFFFFF" points="175.076778 51.7606209 183.59338 39.309449 175.707638 27.4393319 180.771114 27.4393319 186.498653 36.503785 192.392208 27.4393319 197.190059 27.4393319 189.138302 39.3758553 197.6217 51.7606209 192.425411 51.7606209 186.282833 42.2977303 180.007442 51.7606209"></polygon>
                <path d="M1.62304688,83 L1.62304688,58.6787109 L9.20996094,58.6787109 C12.4306802,58.6787109 14.8323489,59.1490838 16.4150391,60.0898438 C17.9977293,61.0306037 18.7890625,62.5966687 18.7890625,64.7880859 C18.7890625,65.1422544 18.7669273,65.4908837 18.7226562,65.8339844 C18.6783852,66.177085 18.5787768,66.5672179 18.4238281,67.0043945 C18.2688794,67.4415712 18.0641289,67.8372378 17.8095703,68.1914062 C17.5550117,68.5455747 17.2008486,68.8914371 16.7470703,69.2290039 C16.293292,69.5665707 15.7620473,69.8294261 15.1533203,70.0175781 C16.6585362,70.3828143 17.8095663,71.0828399 18.6064453,72.1176758 C19.4033243,73.1525117 19.8017578,74.4280523 19.8017578,75.9443359 C19.8017578,78.235363 18.9910563,79.9840434 17.3696289,81.1904297 C15.7482015,82.3968159 13.5042461,83 10.6376953,83 L1.62304688,83 Z M6.12207031,79.7460938 L10.0234375,79.7460938 C13.4765798,79.7460938 15.203125,78.3958468 15.203125,75.6953125 C15.203125,74.3339776 14.7714887,73.3544952 13.9082031,72.7568359 C13.0449176,72.1591767 11.711272,71.8603516 9.90722656,71.8603516 L6.12207031,71.8603516 L6.12207031,79.7460938 Z M6.12207031,68.7226562 L9.97363281,68.7226562 C12.9508612,68.7226562 14.4394531,67.5882275 14.4394531,65.3193359 C14.4394531,64.0465431 14.0105837,63.1722029 13.152832,62.6962891 C12.2950803,62.2203752 10.9309989,61.9824219 9.06054688,61.9824219 L6.12207031,61.9824219 L6.12207031,68.7226562 Z" id="B-Copy-3" fill="#FFFFFF"></path>
                <path d="M1.91380719,34.5142974 L49.2149762,34.5142974" id="Line-Copy-15" stroke="#FFFFFF" stroke-width="3" stroke-linecap="square" fill-rule="nonzero"></path>
                <path d="M0.498366013,91.1319444 L50.0388072,91.1319444" id="Line-Copy-16" stroke="#FFFFFF" stroke-width="3" stroke-linecap="square" fill-rule="nonzero"></path>
                <path d="M153.366013,63.0163399 L197.95241,63.0163399" id="Line-Copy-17" stroke="#FFFFFF" stroke-width="3" stroke-linecap="square" fill-rule="nonzero"></path>
                <path d="M58.5641574,27.5216503 C66.1367423,38.8379615 69.9395425,50.2116041 69.9395425,61.6233134 C69.9395425,73.0745642 66.1103861,84.7740437 58.4849464,96.7091503 L110.785992,96.7091503 C119.363859,96.7091503 127.485499,92.8456325 132.897504,86.190558 L151.459402,63.3652241 L132.864615,38.8142946 C127.477029,31.7009979 119.068816,27.5216503 110.145528,27.5216503 L58.5641574,27.5216503 Z" id="Rectangle-2-Copy-2" stroke="#FFFFFF" stroke-width="3" fill-rule="nonzero"></path>
                <path d="M48.623366,31.3615022 C55.1353137,41.515949 58.3623366,51.5919575 58.3623366,61.6233134 C58.3623366,71.6554012 55.1348824,81.9979866 48.623366,92.6727692 L48.623366,98.2091503 C57.1160131,85.6962665 61.3623366,73.5009875 61.3623366,61.6233134 C61.3623366,49.7456392 57.1160131,37.8784182 48.623366,26.0216503 L48.623366,31.3615022 Z" id="Rectangle-2-Copy-2" fill="#FFFFFF" fill-rule="nonzero"></path>
            </g>
        </g>
    </g>
</svg>