<?xml version="1.0" encoding="UTF-8" standalone="no"?>
<svg
   xmlns:dc="http://purl.org/dc/elements/1.1/"
   xmlns:cc="http://creativecommons.org/ns#"
   xmlns:rdf="http://www.w3.org/1999/02/22-rdf-syntax-ns#"
   xmlns:svg="http://www.w3.org/2000/svg"
   xmlns="http://www.w3.org/2000/svg"
   xmlns:sodipodi="http://sodipodi.sourceforge.net/DTD/sodipodi-0.dtd"
   xmlns:inkscape="http://www.inkscape.org/namespaces/inkscape"
   width="1214px"
   height="866px"
   viewBox="0 0 1214 866"
   version="1.1"
   id="svg14"
   sodipodi:docname="linearSearchGraph1_bg.svg"
   inkscape:version="0.92.3 (2405546, 2018-03-11)">
  <metadata
     id="metadata18">
    <rdf:RDF>
      <cc:Work
         rdf:about="">
        <dc:format>image/svg+xml</dc:format>
        <dc:type
           rdf:resource="http://purl.org/dc/dcmitype/StillImage" />
        <dc:title>linear search graph</dc:title>
      </cc:Work>
    </rdf:RDF>
  </metadata>
  <sodipodi:namedview
     pagecolor="#2c3a67"
     bordercolor="#666666"
     borderopacity="1"
     objecttolerance="10"
     gridtolerance="10"
     guidetolerance="10"
     inkscape:pageopacity="1"
     inkscape:pageshadow="2"
     inkscape:window-width="1280"
     inkscape:window-height="657"
     id="namedview16"
     showgrid="false"
     inkscape:pagecheckerboard="true"
     inkscape:zoom="0.23640857"
     inkscape:cx="80.369338"
     inkscape:cy="433"
     inkscape:window-x="-8"
     inkscape:window-y="-8"
     inkscape:window-maximized="1"
     inkscape:current-layer="linear-search-graph" />
  <!-- Generator: Sketch 50 (54983) - http://www.bohemiancoding.com/sketch -->
  <title
     id="title2">linear search graph</title>
  <desc
     id="desc4">Created with Sketch.</desc>
  <defs
     id="defs6" />
  <g
     id="linear-search-graph"
     stroke-width="1"
     stroke="none"
     fill-rule="evenodd"
     fill="none">
    <path
       d="M447.085937,396 L447.085937,372.890625 L449.804687,372.890625 L449.804687,393.59375 L459.976562,393.59375 L459.882812,396 L447.085937,396 Z M466.432812,378.859375 L466.432812,396 L463.807812,396 L463.807812,378.859375 L466.432812,378.859375 Z M466.432812,372.625 L466.432812,375.71875 L463.807812,375.71875 L463.807812,372.625 L466.432812,372.625 Z M472.139062,396 L472.139062,378.859375 L474.326562,378.859375 L474.654687,381.3125 C475.331774,380.468746 476.17812,379.789065 477.19375,379.273438 C478.20938,378.75781 479.305723,378.5 480.482812,378.5 C482.461989,378.5 483.925516,379.054682 484.873437,380.164062 C485.821359,381.273443 486.295312,382.979155 486.295312,385.28125 L486.295312,396 L483.685937,396 C483.685937,389.124966 483.680729,385.442711 483.670312,384.953125 C483.628646,383.494784 483.334378,382.427087 482.7875,381.75 C482.240622,381.072913 481.326569,380.734375 480.045312,380.734375 C478.701556,380.734375 477.581775,381.057288 476.685937,381.703125 C475.7901,382.348962 475.206772,383.187495 474.935937,384.21875 C474.83177,384.91667 474.779687,385.718745 474.779687,386.625 L474.779687,396 L472.139062,396 Z M498.173437,380.65625 C496.840097,380.65625 495.751567,381.127599 494.907812,382.070312 C494.064058,383.013026 493.569272,384.302075 493.423437,385.9375 L502.470312,385.9375 C502.470312,384.239575 502.087504,382.9349 501.321875,382.023438 C500.556246,381.111975 499.506777,380.65625 498.173437,380.65625 Z M498.689062,396.359375 C496.199467,396.359375 494.238549,395.567716 492.80625,393.984375 C491.373951,392.401034 490.657812,390.234389 490.657812,387.484375 C490.657812,384.828112 491.350514,382.674487 492.735937,381.023438 C494.121361,379.372388 495.944259,378.53125 498.204687,378.5 C500.329698,378.5 502.014577,379.226555 503.259375,380.679688 C504.504173,382.13282 505.126562,384.072905 505.126562,386.5 C505.126562,386.625001 505.123958,386.854165 505.11875,387.1875 C505.113542,387.520835 505.110937,387.760416 505.110937,387.90625 L493.345312,387.90625 C493.376563,389.854176 493.879162,391.37239 494.853125,392.460938 C495.827088,393.549485 497.136971,394.09375 498.782812,394.09375 C500.595322,394.09375 502.413012,393.614588 504.235937,392.65625 L504.642187,394.765625 C502.902595,395.82813 500.91824,396.359375 498.689062,396.359375 Z M514.317187,394.25 C515.556777,394.25 516.647912,393.908858 517.590625,393.226562 C518.533338,392.544267 519.140103,391.625006 519.410937,390.46875 L519.410937,387.578125 C519.358854,387.578125 519.043753,387.604166 518.465625,387.65625 C517.887497,387.708334 517.509897,387.739583 517.332812,387.75 C515.072384,387.947918 513.496879,388.317706 512.60625,388.859375 C511.71562,389.401044 511.270312,390.270827 511.270312,391.46875 C511.270312,392.385421 511.541143,393.078123 512.082812,393.546875 C512.624482,394.015627 513.369266,394.25 514.317187,394.25 Z M519.989062,396 C519.832812,395.33333 519.681772,394.614587 519.535937,393.84375 C518.588016,394.791671 517.6974,395.447915 516.864062,395.8125 C516.030725,396.177085 515.051568,396.359375 513.926562,396.359375 C512.322388,396.359375 511.033338,395.940108 510.059375,395.101562 C509.085412,394.263017 508.598437,393.0573 508.598437,391.484375 C508.598437,389.734366 509.262493,388.437504 510.590625,387.59375 C511.918757,386.749996 513.8328,386.223959 516.332812,386.015625 C516.676564,385.984375 517.194788,385.940104 517.8875,385.882812 C518.580212,385.825521 519.098436,385.78125 519.442187,385.75 L519.442187,384.234375 C519.442187,383.026036 519.16094,382.130211 518.598437,381.546875 C518.035935,380.963539 517.150527,380.671875 515.942187,380.671875 C514.254679,380.671875 512.551571,381.088538 510.832812,381.921875 C510.780729,381.796874 510.645314,381.434899 510.426562,380.835938 C510.207811,380.236976 510.093229,379.927083 510.082812,379.90625 C510.843233,379.479165 511.74687,379.138022 512.79375,378.882812 C513.84063,378.627603 514.905724,378.5 515.989062,378.5 C518.12449,378.5 519.663537,378.966141 520.60625,379.898438 C521.548963,380.830734 522.020312,382.416655 522.020312,384.65625 L522.020312,396 L519.989062,396 Z M535.007812,378.703125 C535.476565,378.703125 535.903644,378.734375 536.289062,378.796875 L536.195312,381.203125 C535.716143,381.119791 535.299481,381.078125 534.945312,381.078125 C533.486972,381.078125 532.302088,381.585932 531.390625,382.601562 C530.479162,383.617193 530.023437,384.874993 530.023437,386.375 L530.023437,396 L527.414062,396 C527.403646,385.479114 527.398437,379.76563 527.398437,378.859375 L529.570312,378.859375 L529.820312,381.9375 C530.414065,380.968745 531.169266,380.187503 532.085937,379.59375 C533.002609,378.999997 533.976557,378.703125 535.007812,378.703125 Z M548.607812,392.1875 C551.014075,393.375006 553.592174,393.96875 556.342187,393.96875 C559.727621,393.96875 561.420312,392.427099 561.420312,389.34375 C561.420312,388.343745 561.152086,387.533857 560.615625,386.914062 C560.079164,386.294268 559.102611,385.807293 557.685937,385.453125 L553.092187,384.296875 C549.581753,383.411454 547.826562,381.536473 547.826562,378.671875 C547.826562,376.473947 548.581763,374.841151 550.092187,373.773438 C551.602612,372.705724 553.691132,372.171875 556.357812,372.171875 C557.753653,372.171875 559.060931,372.322915 560.279687,372.625 C561.498444,372.927085 562.519267,373.333331 563.342187,373.84375 L562.560937,376.046875 C561.863017,375.661456 560.938547,375.31771 559.7875,375.015625 C558.636453,374.71354 557.472402,374.5625 556.295312,374.5625 C552.52446,374.5625 550.639062,375.869779 550.639062,378.484375 C550.639062,379.369796 550.928122,380.080726 551.50625,380.617188 C552.084378,381.153649 552.951557,381.562499 554.107812,381.84375 L558.498437,382.90625 C560.373447,383.354169 561.795308,384.070308 562.764062,385.054688 C563.732817,386.039067 564.217187,387.437491 564.217187,389.25 C564.217187,391.604178 563.495841,393.377598 562.053125,394.570312 C560.610409,395.763027 558.649492,396.359375 556.170312,396.359375 C554.316137,396.359375 552.667716,396.169273 551.225,395.789062 C549.782284,395.408852 548.639067,394.958336 547.795312,394.4375 L548.607812,392.1875 Z M575.267187,380.65625 C573.933847,380.65625 572.845317,381.127599 572.001562,382.070312 C571.157808,383.013026 570.663022,384.302075 570.517187,385.9375 L579.564062,385.9375 C579.564062,384.239575 579.181254,382.9349 578.415625,382.023438 C577.649996,381.111975 576.600527,380.65625 575.267187,380.65625 Z M575.782812,396.359375 C573.293217,396.359375 571.332299,395.567716 569.9,393.984375 C568.467701,392.401034 567.751562,390.234389 567.751562,387.484375 C567.751562,384.828112 568.444264,382.674487 569.829687,381.023438 C571.215111,379.372388 573.03801,378.53125 575.298437,378.5 C577.423448,378.5 579.108327,379.226555 580.353125,380.679688 C581.597923,382.13282 582.220312,384.072905 582.220312,386.5 C582.220312,386.625001 582.217708,386.854165 582.2125,387.1875 C582.207292,387.520835 582.204687,387.760416 582.204687,387.90625 L570.439062,387.90625 C570.470313,389.854176 570.972912,391.37239 571.946875,392.460938 C572.920838,393.549485 574.230721,394.09375 575.876562,394.09375 C577.689072,394.09375 579.506762,393.614588 581.329687,392.65625 L581.735937,394.765625 C579.996345,395.82813 578.01199,396.359375 575.782812,396.359375 Z M591.410938,394.25 C592.650527,394.25 593.741662,393.908858 594.684375,393.226562 C595.627088,392.544267 596.233853,391.625006 596.504688,390.46875 L596.504688,387.578125 C596.452604,387.578125 596.137503,387.604166 595.559375,387.65625 C594.981247,387.708334 594.603647,387.739583 594.426563,387.75 C592.166135,387.947918 590.590629,388.317706 589.7,388.859375 C588.809371,389.401044 588.364063,390.270827 588.364063,391.46875 C588.364063,392.385421 588.634893,393.078123 589.176563,393.546875 C589.718232,394.015627 590.463016,394.25 591.410938,394.25 Z M597.082813,396 C596.926562,395.33333 596.775522,394.614587 596.629688,393.84375 C595.681766,394.791671 594.79115,395.447915 593.957813,395.8125 C593.124475,396.177085 592.145318,396.359375 591.020313,396.359375 C589.416138,396.359375 588.127088,395.940108 587.153125,395.101562 C586.179162,394.263017 585.692188,393.0573 585.692188,391.484375 C585.692188,389.734366 586.356243,388.437504 587.684375,387.59375 C589.012507,386.749996 590.92655,386.223959 593.426563,386.015625 C593.770314,385.984375 594.288538,385.940104 594.98125,385.882812 C595.673962,385.825521 596.192186,385.78125 596.535938,385.75 L596.535938,384.234375 C596.535938,383.026036 596.25469,382.130211 595.692188,381.546875 C595.129685,380.963539 594.244277,380.671875 593.035938,380.671875 C591.348429,380.671875 589.645321,381.088538 587.926563,381.921875 C587.874479,381.796874 587.739064,381.434899 587.520313,380.835938 C587.301561,380.236976 587.186979,379.927083 587.176563,379.90625 C587.936983,379.479165 588.84062,379.138022 589.8875,378.882812 C590.93438,378.627603 591.999474,378.5 593.082813,378.5 C595.21824,378.5 596.757287,378.966141 597.7,379.898438 C598.642713,380.830734 599.114063,382.416655 599.114063,384.65625 L599.114063,396 L597.082813,396 Z M612.101563,378.703125 C612.570315,378.703125 612.997394,378.734375 613.382813,378.796875 L613.289063,381.203125 C612.809893,381.119791 612.393231,381.078125 612.039063,381.078125 C610.580722,381.078125 609.395838,381.585932 608.484375,382.601562 C607.572912,383.617193 607.117188,384.874993 607.117188,386.375 L607.117188,396 L604.507813,396 C604.497396,385.479114 604.492188,379.76563 604.492188,378.859375 L606.664063,378.859375 L606.914063,381.9375 C607.507815,380.968745 608.263016,380.187503 609.179688,379.59375 C610.096359,378.999997 611.070307,378.703125 612.101563,378.703125 Z M623.807813,396.359375 C621.286967,396.359375 619.315632,395.541675 617.89375,393.90625 C616.471868,392.270825 615.760938,390.130222 615.760938,387.484375 C615.771354,384.817695 616.497909,382.653654 617.940625,380.992188 C619.383341,379.330721 621.359883,378.5 623.870313,378.5 C624.755734,378.5 625.612496,378.609374 626.440625,378.828125 C627.268754,379.046876 627.922393,379.333332 628.401563,379.6875 L627.682813,381.71875 C626.464056,381.062497 625.177611,380.734375 623.823438,380.734375 C622.167179,380.734375 620.857297,381.338536 619.89375,382.546875 C618.930204,383.755214 618.448438,385.40624 618.448438,387.5 C618.448438,389.541677 618.924995,391.158848 619.878125,392.351562 C620.831255,393.544277 622.151554,394.140625 623.839063,394.140625 C625.182819,394.140625 626.557806,393.776045 627.964063,393.046875 L628.292188,395.125 C627.156765,395.947921 625.661988,396.359375 623.807813,396.359375 Z M644.029688,396 L644.029688,385.640625 C644.029688,383.921866 643.756253,382.671879 643.209375,381.890625 C642.662497,381.109371 641.706778,380.71875 640.342188,380.71875 C639.029681,380.71875 637.922921,381.046872 637.021875,381.703125 C636.120829,382.359378 635.534897,383.208328 635.264063,384.25 C635.170312,385.031254 635.123438,385.901037 635.123438,386.859375 L635.123438,396 L632.514063,396 L632.514063,372.203125 L635.123438,372.046875 L635.123438,379.015625 C635.123438,379.609378 635.102604,380.343746 635.060938,381.21875 C636.529695,379.406241 638.477592,378.5 640.904688,378.5 C644.727623,378.5 646.639063,380.744769 646.639063,385.234375 L646.639063,396 L644.029688,396 Z M661.832813,384.453125 C661.832813,387.42189 662.515097,389.752596 663.879688,391.445312 C665.244278,393.138029 667.259883,393.984375 669.926563,393.984375 C672.593243,393.984375 674.601035,393.140633 675.95,391.453125 C677.298965,389.765617 677.973438,387.432307 677.973438,384.453125 C677.973438,381.411443 677.293757,379.052092 675.934375,377.375 C674.574993,375.697908 672.577617,374.859375 669.942188,374.859375 C667.306758,374.859375 665.296361,375.697908 663.910938,377.375 C662.525514,379.052092 661.832813,381.411443 661.832813,384.453125 Z M680.864063,384.453125 C680.864063,386.21355 680.621877,387.822909 680.1375,389.28125 C679.653123,390.739591 678.955213,391.992182 678.04375,393.039062 C677.132287,394.085943 675.983861,394.898435 674.598438,395.476562 C673.213014,396.05469 671.655738,396.34375 669.926563,396.34375 C667.593218,396.34375 665.595842,395.846359 663.934375,394.851562 C662.272908,393.856766 661.028129,392.471363 660.2,390.695312 C659.371871,388.919262 658.957813,386.833345 658.957813,384.4375 C658.957813,380.739565 659.921345,377.822927 661.848438,375.6875 C663.775531,373.552073 666.47342,372.484375 669.942188,372.484375 C673.358871,372.484375 676.033324,373.559885 677.965625,375.710938 C679.897926,377.86199 680.864063,380.776023 680.864063,384.453125 Z M686.923438,386.65625 C686.923438,381.552058 688.345298,376.927104 691.189063,372.78125 L693.610938,372.78125 C690.923424,376.968771 689.579688,381.572892 689.579688,386.59375 C689.579688,388.947928 689.933851,391.322905 690.642188,393.71875 C691.350524,396.114595 692.340098,398.286449 693.610938,400.234375 L691.220313,400.234375 C689.876556,398.369782 688.824483,396.268241 688.064063,393.929688 C687.303642,391.591134 686.923438,389.166679 686.923438,386.65625 Z M716.598438,396 L713.535938,396 L701.535938,377.8125 L700.754688,376.734375 C700.838021,378.921886 700.879688,380.874991 700.879688,382.59375 L700.879688,396 L698.348438,396 L698.348438,372.890625 L701.364063,372.890625 L713.395313,391.078125 L714.192188,392.15625 C714.119271,388.833317 714.082813,386.911461 714.082813,386.390625 L714.082813,372.890625 L716.598438,372.890625 L716.598438,396 Z M728.023438,386.65625 C728.023438,389.166679 727.643233,391.58853 726.882813,393.921875 C726.122392,396.25522 725.065111,398.359366 723.710938,400.234375 L721.335938,400.234375 C722.606777,398.286449 723.596351,396.114595 724.304688,393.71875 C725.013024,391.322905 725.367188,388.947928 725.367188,386.59375 C725.367188,381.593725 724.018243,376.989604 721.320313,372.78125 L723.742188,372.78125 C726.596369,376.989604 728.023438,381.614558 728.023438,386.65625 Z"
       id="Linear-Search-O(N)"
       transform="translate(587.554688, 386.140625) rotate(-32.000000) translate(-587.554688, -386.140625) "
       fill="#FFFFFF" />
    <path
       d="M513.101562,695 L510.039062,695 L498.039062,676.8125 L497.257812,675.734375 C497.341146,677.921886 497.382812,679.874991 497.382812,681.59375 L497.382812,695 L494.851562,695 L494.851562,671.890625 L497.867188,671.890625 L509.898438,690.078125 L510.695312,691.15625 C510.622395,687.833317 510.585938,685.911461 510.585938,685.390625 L510.585938,671.890625 L513.101562,671.890625 L513.101562,695 Z M517.460938,689.28125 L517.460938,677.859375 L520.085938,677.859375 L520.085938,689.3125 C520.085938,690.062504 520.192707,690.697914 520.40625,691.21875 C520.619793,691.739586 520.927081,692.143228 521.328125,692.429688 C521.729169,692.716147 522.182289,692.921874 522.6875,693.046875 C523.192711,693.171876 523.773434,693.234375 524.429688,693.234375 C525.783861,693.234375 526.838538,692.937503 527.59375,692.34375 C528.348962,691.749997 528.726562,690.73959 528.726562,689.3125 L528.726562,677.859375 L531.351562,677.859375 L531.351562,689.28125 C531.351562,690.156254 531.226564,690.942705 530.976562,691.640625 C530.726561,692.338545 530.390627,692.919269 529.96875,693.382812 C529.546873,693.846356 529.039065,694.229165 528.445312,694.53125 C527.85156,694.833335 527.223962,695.052083 526.5625,695.1875 C525.901038,695.322917 525.190108,695.390625 524.429688,695.390625 C523.679684,695.390625 522.971357,695.322917 522.304688,695.1875 C521.638018,695.052083 521.005211,694.830731 520.40625,694.523438 C519.807289,694.216144 519.291669,693.830731 518.859375,693.367188 C518.427081,692.903644 518.085939,692.32292 517.835938,691.625 C517.585936,690.92708 517.460938,690.145838 517.460938,689.28125 Z M557.007812,695 L557.007812,686.078125 C557.007812,685.244788 556.989584,684.546878 556.953125,683.984375 C556.916666,683.421872 556.833334,682.848961 556.703125,682.265625 C556.572916,681.682289 556.390626,681.221356 556.15625,680.882812 C555.921874,680.544269 555.596356,680.26823 555.179688,680.054688 C554.763019,679.841145 554.263024,679.734375 553.679688,679.734375 C552.533848,679.734375 551.557296,680.041664 550.75,680.65625 C549.942704,681.270836 549.367189,682.135411 549.023438,683.25 C548.929687,684.000004 548.882812,684.802079 548.882812,685.65625 L548.882812,695 L546.273438,695 L546.273438,685.796875 C546.273438,685.026038 546.247396,684.356774 546.195312,683.789062 C546.143229,683.221351 546.044272,682.669274 545.898438,682.132812 C545.752603,681.596351 545.557293,681.16146 545.3125,680.828125 C545.067707,680.49479 544.74219,680.229168 544.335938,680.03125 C543.929685,679.833332 543.445315,679.734375 542.882812,679.734375 C541.632806,679.734375 540.583338,680.05208 539.734375,680.6875 C538.885412,681.32292 538.315106,682.166661 538.023438,683.21875 C537.929687,684.020837 537.882812,684.89062 537.882812,685.828125 L537.882812,695 L535.273438,695 C535.252604,684.281196 535.242188,678.567712 535.242188,677.859375 L537.429688,677.859375 L537.757812,680.3125 C538.278648,679.520829 539.018224,678.854169 539.976562,678.3125 C540.934901,677.770831 542.023431,677.5 543.242188,677.5 C543.877607,677.5 544.463539,677.565104 545,677.695312 C545.536461,677.825521 545.984373,677.989582 546.34375,678.1875 C546.703127,678.385418 547.023436,678.622394 547.304688,678.898438 C547.585939,679.174481 547.804687,679.445311 547.960938,679.710938 C548.117188,679.976564 548.247395,680.255207 548.351562,680.546875 C549.601569,678.515615 551.513008,677.5 554.085938,677.5 C555.992197,677.5 557.390621,678.044265 558.28125,679.132812 C559.171879,680.22136 559.617188,681.833323 559.617188,683.96875 L559.617188,695 L557.007812,695 Z M570.742188,679.671875 C569.085929,679.671875 567.817713,680.242182 566.9375,681.382812 C566.057287,682.523443 565.617188,684.197906 565.617188,686.40625 C565.617188,690.927106 567.320295,693.1875 570.726562,693.1875 C571.570317,693.1875 572.312497,693.013023 572.953125,692.664062 C573.593753,692.315102 574.098956,691.825524 574.46875,691.195312 C574.838544,690.565101 575.114582,689.854171 575.296875,689.0625 C575.479168,688.270829 575.570312,687.39063 575.570312,686.421875 C575.570312,685.109368 575.416668,683.963547 575.109375,682.984375 C574.802082,682.005203 574.27865,681.208336 573.539062,680.59375 C572.799475,679.979164 571.867193,679.671875 570.742188,679.671875 Z M571.007812,677.5 C572.528653,677.5 573.84114,677.885413 574.945312,678.65625 C576.049485,679.427087 576.877601,680.473952 577.429688,681.796875 C577.981774,683.119798 578.257812,684.635408 578.257812,686.34375 C578.257812,688.114592 577.984378,689.671868 577.4375,691.015625 C576.890622,692.359382 576.062506,693.419267 574.953125,694.195312 C573.843744,694.971358 572.518237,695.359375 570.976562,695.359375 C569.84114,695.359375 568.804692,695.114586 567.867188,694.625 C566.929683,694.135414 566.148441,693.468754 565.523438,692.625 L565.257812,695 L563.023438,695 L563.023438,671.203125 L565.632812,671.046875 L565.632812,676.71875 C565.632812,678.11459 565.611979,679.312495 565.570312,680.3125 C566.174482,679.447912 566.958329,678.763023 567.921875,678.257812 C568.885421,677.752602 569.914057,677.5 571.007812,677.5 Z M588.664062,679.65625 C587.330722,679.65625 586.242192,680.127599 585.398438,681.070312 C584.554683,682.013026 584.059897,683.302075 583.914062,684.9375 L592.960938,684.9375 C592.960938,683.239575 592.578129,681.9349 591.8125,681.023438 C591.046871,680.111975 589.997403,679.65625 588.664062,679.65625 Z M589.179688,695.359375 C586.690092,695.359375 584.729174,694.567716 583.296875,692.984375 C581.864576,691.401034 581.148438,689.234389 581.148438,686.484375 C581.148438,683.828112 581.841139,681.674487 583.226562,680.023438 C584.611986,678.372388 586.434885,677.53125 588.695312,677.5 C590.820323,677.5 592.505202,678.226555 593.75,679.679688 C594.994798,681.13282 595.617188,683.072905 595.617188,685.5 C595.617188,685.625001 595.614583,685.854165 595.609375,686.1875 C595.604167,686.520835 595.601562,686.760416 595.601562,686.90625 L583.835938,686.90625 C583.867188,688.854176 584.369787,690.37239 585.34375,691.460938 C586.317713,692.549485 587.627596,693.09375 589.273438,693.09375 C591.085947,693.09375 592.903637,692.614588 594.726562,691.65625 L595.132812,693.765625 C593.39322,694.82813 591.408865,695.359375 589.179688,695.359375 Z M606.929688,677.703125 C607.39844,677.703125 607.825519,677.734375 608.210938,677.796875 L608.117188,680.203125 C607.638018,680.119791 607.221356,680.078125 606.867188,680.078125 C605.408847,680.078125 604.223963,680.585932 603.3125,681.601562 C602.401037,682.617193 601.945312,683.874992 601.945312,685.375 L601.945312,695 L599.335938,695 C599.325521,684.479114 599.320312,678.76563 599.320312,677.859375 L601.492188,677.859375 L601.742188,680.9375 C602.33594,679.968745 603.091141,679.187503 604.007812,678.59375 C604.924484,677.999997 605.898432,677.703125 606.929688,677.703125 Z M620.789062,686.46875 C620.789062,688.50001 621.239579,690.127598 622.140625,691.351562 C623.041671,692.575527 624.356762,693.1875 626.085938,693.1875 C627.794279,693.1875 629.083329,692.578131 629.953125,691.359375 C630.822921,690.140619 631.257812,688.50001 631.257812,686.4375 C631.257812,684.34374 630.828129,682.695319 629.96875,681.492188 C629.109371,680.289056 627.799488,679.6875 626.039062,679.6875 C624.330721,679.6875 623.02865,680.302077 622.132812,681.53125 C621.236975,682.760423 620.789062,684.40624 620.789062,686.46875 Z M633.960938,686.421875 C633.960938,689.078138 633.252611,691.231763 631.835938,692.882812 C630.419264,694.533862 628.46095,695.359375 625.960938,695.359375 C623.554675,695.359375 621.640632,694.52605 620.21875,692.859375 C618.796868,691.1927 618.085938,689.052096 618.085938,686.4375 C618.085938,683.77082 618.799472,681.614592 620.226562,679.96875 C621.653653,678.322908 623.611967,677.5 626.101562,677.5 C628.549491,677.5 630.471347,678.325513 631.867188,679.976562 C633.263028,681.627612 633.960938,683.776028 633.960938,686.421875 Z M644.164062,672.875 C643.080724,672.875 642.338544,673.187497 641.9375,673.8125 C641.536456,674.437503 641.335938,675.520826 641.335938,677.0625 L641.335938,677.859375 L645.460938,677.859375 L645.460938,679.796875 L641.335938,679.796875 L641.335938,695 L638.726562,695 L638.726562,679.796875 L635.945312,679.796875 L636.164062,678.078125 L638.726562,677.859375 L638.726562,677.09375 C638.747396,674.885406 639.161454,673.283859 639.96875,672.289062 C640.776046,671.294266 642.08072,670.796875 643.882812,670.796875 C644.580733,670.796875 645.434891,670.874999 646.445312,671.03125 L646.273438,673.078125 C645.34635,672.942708 644.643232,672.875 644.164062,672.875 Z M662.820312,679.65625 C661.486972,679.65625 660.398442,680.127599 659.554688,681.070312 C658.710933,682.013026 658.216147,683.302075 658.070312,684.9375 L667.117188,684.9375 C667.117188,683.239575 666.734379,681.9349 665.96875,681.023438 C665.203121,680.111975 664.153653,679.65625 662.820312,679.65625 Z M663.335938,695.359375 C660.846342,695.359375 658.885424,694.567716 657.453125,692.984375 C656.020826,691.401034 655.304688,689.234389 655.304688,686.484375 C655.304688,683.828112 655.997389,681.674487 657.382812,680.023438 C658.768236,678.372388 660.591135,677.53125 662.851562,677.5 C664.976573,677.5 666.661452,678.226555 667.90625,679.679688 C669.151048,681.13282 669.773438,683.072905 669.773438,685.5 C669.773438,685.625001 669.770833,685.854165 669.765625,686.1875 C669.760417,686.520835 669.757812,686.760416 669.757812,686.90625 L657.992188,686.90625 C658.023438,688.854176 658.526037,690.37239 659.5,691.460938 C660.473963,692.549485 661.783846,693.09375 663.429688,693.09375 C665.242197,693.09375 667.059887,692.614588 668.882812,691.65625 L669.289062,693.765625 C667.54947,694.82813 665.565115,695.359375 663.335938,695.359375 Z M678.007812,695.3125 C676.341138,695.3125 675.161462,694.864588 674.46875,693.96875 C673.776038,693.072912 673.429688,691.515636 673.429688,689.296875 L673.429688,671.203125 L676.023438,671.046875 L676.023438,688.265625 C676.023438,688.973962 676.03125,689.541665 676.046875,689.96875 C676.0625,690.395835 676.101562,690.815102 676.164062,691.226562 C676.226563,691.638023 676.309895,691.947916 676.414062,692.15625 C676.51823,692.364584 676.66927,692.554687 676.867188,692.726562 C677.065105,692.898438 677.302082,693.013021 677.578125,693.070312 C677.854168,693.127604 678.19531,693.15625 678.601562,693.15625 C678.934898,693.15625 679.591141,693.093751 680.570312,692.96875 L680.710938,695.046875 C679.638015,695.223959 678.736983,695.3125 678.007812,695.3125 Z M689.023438,679.65625 C687.690097,679.65625 686.601567,680.127599 685.757812,681.070312 C684.914058,682.013026 684.419272,683.302075 684.273438,684.9375 L693.320312,684.9375 C693.320312,683.239575 692.937504,681.9349 692.171875,681.023438 C691.406246,680.111975 690.356778,679.65625 689.023438,679.65625 Z M689.539062,695.359375 C687.049467,695.359375 685.088549,694.567716 683.65625,692.984375 C682.223951,691.401034 681.507812,689.234389 681.507812,686.484375 C681.507812,683.828112 682.200514,681.674487 683.585938,680.023438 C684.971361,678.372388 686.79426,677.53125 689.054688,677.5 C691.179698,677.5 692.864577,678.226555 694.109375,679.679688 C695.354173,681.13282 695.976562,683.072905 695.976562,685.5 C695.976562,685.625001 695.973958,685.854165 695.96875,686.1875 C695.963542,686.520835 695.960938,686.760416 695.960938,686.90625 L684.195312,686.90625 C684.226563,688.854176 684.729162,690.37239 685.703125,691.460938 C686.677088,692.549485 687.986971,693.09375 689.632812,693.09375 C691.445322,693.09375 693.263012,692.614588 695.085938,691.65625 L695.492188,693.765625 C693.752595,694.82813 691.76824,695.359375 689.539062,695.359375 Z M721.367188,695 L721.367188,686.078125 C721.367188,685.244788 721.348959,684.546878 721.3125,683.984375 C721.276041,683.421872 721.192709,682.848961 721.0625,682.265625 C720.932291,681.682289 720.750001,681.221356 720.515625,680.882812 C720.281249,680.544269 719.955731,680.26823 719.539062,680.054688 C719.122394,679.841145 718.622399,679.734375 718.039062,679.734375 C716.893223,679.734375 715.916671,680.041664 715.109375,680.65625 C714.302079,681.270836 713.726564,682.135411 713.382812,683.25 C713.289062,684.000004 713.242188,684.802079 713.242188,685.65625 L713.242188,695 L710.632812,695 L710.632812,685.796875 C710.632812,685.026038 710.606771,684.356774 710.554688,683.789062 C710.502604,683.221351 710.403647,682.669274 710.257812,682.132812 C710.111978,681.596351 709.916668,681.16146 709.671875,680.828125 C709.427082,680.49479 709.101565,680.229168 708.695312,680.03125 C708.28906,679.833332 707.80469,679.734375 707.242188,679.734375 C705.992181,679.734375 704.942713,680.05208 704.09375,680.6875 C703.244787,681.32292 702.674481,682.166661 702.382812,683.21875 C702.289062,684.020837 702.242188,684.89062 702.242188,685.828125 L702.242188,695 L699.632812,695 C699.611979,684.281196 699.601562,678.567712 699.601562,677.859375 L701.789062,677.859375 L702.117188,680.3125 C702.638023,679.520829 703.377599,678.854169 704.335938,678.3125 C705.294276,677.770831 706.382806,677.5 707.601562,677.5 C708.236982,677.5 708.822914,677.565104 709.359375,677.695312 C709.895836,677.825521 710.343748,677.989582 710.703125,678.1875 C711.062502,678.385418 711.382811,678.622394 711.664062,678.898438 C711.945314,679.174481 712.164062,679.445311 712.320312,679.710938 C712.476563,679.976564 712.60677,680.255207 712.710938,680.546875 C713.960944,678.515615 715.872383,677.5 718.445312,677.5 C720.351572,677.5 721.749996,678.044265 722.640625,679.132812 C723.531254,680.22136 723.976562,681.833323 723.976562,683.96875 L723.976562,695 L721.367188,695 Z M734.039062,679.65625 C732.705722,679.65625 731.617192,680.127599 730.773438,681.070312 C729.929683,682.013026 729.434897,683.302075 729.289062,684.9375 L738.335938,684.9375 C738.335938,683.239575 737.953129,681.9349 737.1875,681.023438 C736.421871,680.111975 735.372403,679.65625 734.039062,679.65625 Z M734.554688,695.359375 C732.065092,695.359375 730.104174,694.567716 728.671875,692.984375 C727.239576,691.401034 726.523438,689.234389 726.523438,686.484375 C726.523438,683.828112 727.216139,681.674487 728.601562,680.023438 C729.986986,678.372388 731.809885,677.53125 734.070312,677.5 C736.195323,677.5 737.880202,678.226555 739.125,679.679688 C740.369798,681.13282 740.992188,683.072905 740.992188,685.5 C740.992188,685.625001 740.989583,685.854165 740.984375,686.1875 C740.979167,686.520835 740.976562,686.760416 740.976562,686.90625 L729.210938,686.90625 C729.242188,688.854176 729.744787,690.37239 730.71875,691.460938 C731.692713,692.549485 733.002596,693.09375 734.648438,693.09375 C736.460947,693.09375 738.278637,692.614588 740.101562,691.65625 L740.507812,693.765625 C738.76822,694.82813 736.783865,695.359375 734.554688,695.359375 Z M744.617188,695 L744.617188,677.859375 L746.804688,677.859375 L747.132812,680.3125 C747.809899,679.468746 748.656245,678.789065 749.671875,678.273438 C750.687505,677.75781 751.783848,677.5 752.960938,677.5 C754.940114,677.5 756.403641,678.054682 757.351562,679.164062 C758.299484,680.273443 758.773438,681.979155 758.773438,684.28125 L758.773438,695 L756.164062,695 C756.164062,688.124966 756.158854,684.442711 756.148438,683.953125 C756.106771,682.494784 755.812503,681.427087 755.265625,680.75 C754.718747,680.072913 753.804694,679.734375 752.523438,679.734375 C751.179681,679.734375 750.0599,680.057288 749.164062,680.703125 C748.268225,681.348962 747.684897,682.187495 747.414062,683.21875 C747.309895,683.91667 747.257812,684.718745 747.257812,685.625 L747.257812,695 L744.617188,695 Z M768.585938,695.3125 C766.898429,695.3125 765.700524,694.901046 764.992188,694.078125 C764.283851,693.255204 763.908854,691.927092 763.867188,690.09375 L763.867188,679.796875 L761.320312,679.796875 L761.429688,678.078125 L763.851562,677.859375 L764.742188,673.9375 L766.460938,673.875 L766.460938,677.859375 L771.226562,677.859375 L771.226562,679.796875 L766.460938,679.796875 L766.460938,689.625 C766.460938,690.92709 766.658852,691.843747 767.054688,692.375 C767.450523,692.906253 768.127599,693.171875 769.085938,693.171875 C769.429689,693.171875 770.174473,693.088543 771.320312,692.921875 L771.429688,694.984375 C770.190098,695.203126 769.242191,695.3125 768.585938,695.3125 Z M779.320312,695.359375 C778.15364,695.359375 777.07813,695.234376 776.09375,694.984375 C775.10937,694.734374 774.309899,694.41146 773.695312,694.015625 L774.023438,691.8125 C775.76303,692.739588 777.471346,693.203125 779.148438,693.203125 C781.690117,693.203125 782.997395,692.307301 783.070312,690.515625 C783.070312,689.755205 782.799482,689.156252 782.257812,688.71875 C781.716143,688.281248 780.653654,687.791669 779.070312,687.25 L777.773438,686.796875 C776.27343,686.296872 775.203128,685.677087 774.5625,684.9375 C773.921872,684.197913 773.596354,683.276047 773.585938,682.171875 C773.585938,680.828118 774.124995,679.713546 775.203125,678.828125 C776.281255,677.942704 777.757803,677.5 779.632812,677.5 C781.570322,677.5 783.33593,677.874996 784.929688,678.625 L784.164062,680.625 C782.549471,679.95833 781.03907,679.625 779.632812,679.625 C778.539057,679.625 777.682295,679.841144 777.0625,680.273438 C776.442705,680.705731 776.132812,681.312496 776.132812,682.09375 C776.132812,682.76042 776.356769,683.270832 776.804688,683.625 C777.252606,683.979168 778.148431,684.385414 779.492188,684.84375 C779.835939,684.968751 780.268227,685.114582 780.789062,685.28125 C782.518238,685.843753 783.742184,686.507809 784.460938,687.273438 C785.179691,688.039066 785.539062,689.07291 785.539062,690.375 C785.518229,691.958341 784.950526,693.184891 783.835938,694.054688 C782.721349,694.924484 781.216155,695.359375 779.320312,695.359375 Z"
       id="Number-of-elements"
       fill="#FFFFFF" />
    <path
       d="m 242.84816,579.53465 v 3.0625 l -18.1875,12 -1.07813,0.78125 c 2.18751,-0.0833 4.14062,-0.125 5.85938,-0.125 h 13.40625 v 2.53125 h -23.10938 v -3.01562 l 18.1875,-12.03125 1.07813,-0.79688 c -3.32293,0.0729 -5.24479,0.10938 -5.76563,0.10938 h -13.5 v -2.51563 z m -5.71875,-4.35937 h -11.42188 v -2.625 h 11.45313 c 0.75,0 1.38541,-0.10677 1.90625,-0.32031 0.52083,-0.21355 0.92448,-0.52084 1.21094,-0.92188 0.28646,-0.40104 0.49218,-0.85416 0.61718,-1.35937 0.125,-0.50522 0.1875,-1.08594 0.1875,-1.74219 0,-1.35418 -0.29687,-2.40885 -0.89062,-3.16406 -0.59375,-0.75522 -1.60416,-1.13282 -3.03125,-1.13282 h -11.45313 v -2.625 h 11.42188 c 0.875,0 1.66145,0.125 2.35937,0.375 0.69792,0.25 1.27865,0.58594 1.74219,1.00782 0.46354,0.42187 0.84635,0.92968 1.14844,1.52343 0.30208,0.59376 0.52083,1.22135 0.65625,1.88282 0.13542,0.66146 0.20312,1.37239 0.20312,2.13281 0,0.75 -0.0677,1.45833 -0.20312,2.125 -0.13542,0.66667 -0.35677,1.29947 -0.66406,1.89844 -0.3073,0.59896 -0.69271,1.11458 -1.15625,1.54687 -0.46355,0.43229 -1.04427,0.77344 -1.74219,1.02344 -0.69792,0.25 -1.47916,0.375 -2.34375,0.375 z m 5.71875,-39.54688 h -8.92188 c -0.83333,0 -1.53124,0.0182 -2.09375,0.0547 -0.5625,0.0365 -1.13541,0.11979 -1.71875,0.25 -0.58333,0.13021 -1.04427,0.3125 -1.38281,0.54688 -0.33854,0.23437 -0.61458,0.55989 -0.82812,0.97656 -0.21355,0.41667 -0.32032,0.91666 -0.32032,1.5 0,1.14584 0.30729,2.12239 0.92188,2.92969 0.61458,0.80729 1.47916,1.38281 2.59375,1.72656 0.75,0.0937 1.55208,0.14062 2.40625,0.14062 h 9.34375 v 2.60938 h -9.20313 c -0.77083,0 -1.4401,0.026 -2.00781,0.0781 -0.56771,0.0521 -1.11979,0.15104 -1.65625,0.29688 -0.53646,0.14583 -0.97135,0.34114 -1.30469,0.58594 -0.33333,0.24479 -0.59895,0.57031 -0.79687,0.97656 -0.19792,0.40625 -0.29688,0.89062 -0.29688,1.45312 0,1.25001 0.31771,2.29948 0.95313,3.14844 0.63542,0.84896 1.47916,1.41927 2.53125,1.71094 0.80209,0.0937 1.67187,0.14062 2.60937,0.14062 h 9.17188 v 2.60938 c -10.71881,0.0208 -16.43229,0.0312 -17.14063,0.0312 v -2.1875 l 2.45313,-0.32813 c -0.79167,-0.52083 -1.45833,-1.26041 -2,-2.21875 -0.54167,-0.95834 -0.8125,-2.04687 -0.8125,-3.26562 0,-0.63542 0.0651,-1.22135 0.19531,-1.75781 0.13021,-0.53647 0.29427,-0.98438 0.49219,-1.34375 0.19792,-0.35938 0.43489,-0.67969 0.71094,-0.96094 0.27604,-0.28125 0.54687,-0.5 0.8125,-0.65625 0.26562,-0.15625 0.54427,-0.28646 0.83593,-0.39063 -2.03126,-1.25 -3.04687,-3.16144 -3.04687,-5.73437 0,-1.90626 0.54426,-3.30469 1.63281,-4.19531 1.08855,-0.89063 2.70051,-1.33594 4.83594,-1.33594 h 11.03125 z m -15.32813,-13.73437 c 0,1.65626 0.57031,2.92447 1.71094,3.80469 1.14063,0.88021 2.81509,1.32031 5.02344,1.32031 4.52085,0 6.78125,-1.70311 6.78125,-5.10938 0,-0.84375 -0.17448,-1.58593 -0.52344,-2.22656 -0.34896,-0.64063 -0.83854,-1.14583 -1.46875,-1.51562 -0.63021,-0.3698 -1.34114,-0.64584 -2.13281,-0.82813 -0.79167,-0.18229 -1.67187,-0.27344 -2.64063,-0.27344 -1.3125,0 -2.45832,0.15365 -3.4375,0.46094 -0.97917,0.30729 -1.77604,0.83073 -2.39062,1.57031 -0.61459,0.73959 -0.92188,1.67187 -0.92188,2.79688 z m -2.17187,-0.26563 c 0,-1.52084 0.38541,-2.83332 1.15625,-3.9375 0.77084,-1.10417 1.8177,-1.93229 3.14062,-2.48437 1.32293,-0.55209 2.83854,-0.82813 4.54688,-0.82813 1.77084,0 3.32812,0.27344 4.67187,0.82032 1.34376,0.54687 2.40365,1.37499 3.17969,2.48437 0.77605,1.10938 1.16406,2.43489 1.16406,3.97656 0,1.13543 -0.24479,2.17187 -0.73437,3.10938 -0.48959,0.9375 -1.15625,1.71874 -2,2.34375 l 2.375,0.26562 v 2.23438 h -23.79688 l -0.15625,-2.60938 h 5.67188 c 1.39584,0 2.59374,0.0208 3.59375,0.0625 -0.86459,-0.60417 -1.54948,-1.38801 -2.05469,-2.35156 -0.50521,-0.96355 -0.75781,-1.99218 -0.75781,-3.08594 z m 2.15625,-17.65625 c 0,1.33334 0.47135,2.42187 1.41406,3.26563 0.94271,0.84375 2.23176,1.33854 3.86719,1.48437 v -9.04687 c -1.69793,0 -3.0026,0.38281 -3.91406,1.14844 -0.91147,0.76562 -1.36719,1.81509 -1.36719,3.14843 z m 15.70312,-0.51562 c 0,2.48959 -0.79166,4.45051 -2.375,5.88281 -1.58334,1.4323 -3.74998,2.14844 -6.5,2.14844 -2.65626,0 -4.80988,-0.6927 -6.46093,-2.07813 -1.65105,-1.38542 -2.49219,-3.20832 -2.52344,-5.46875 0,-2.12501 0.72655,-3.80989 2.17969,-5.05468 1.45313,-1.2448 3.39321,-1.86719 5.82031,-1.86719 0.125,0 0.35416,0.003 0.6875,0.008 0.33333,0.005 0.57291,0.008 0.71875,0.008 v 11.76563 c 1.94792,-0.0312 3.46614,-0.53385 4.55469,-1.50781 1.08854,-0.97397 1.63281,-2.28385 1.63281,-3.92969 0,-1.81251 -0.47916,-3.6302 -1.4375,-5.45313 l 2.10937,-0.40625 c 1.06251,1.7396 1.59375,3.72395 1.59375,5.95313 z m -17.65625,-17.75 c 0,-0.46875 0.0312,-0.89583 0.0937,-1.28125 l 2.40625,0.0937 c -0.0833,0.47917 -0.125,0.89583 -0.125,1.25 0,1.45834 0.50781,2.64322 1.52344,3.55469 1.01563,0.91146 2.27343,1.36718 3.77344,1.36718 h 9.625 v 2.60938 c -10.52089,0.0104 -16.23437,0.0156 -17.14063,0.0156 v -2.17187 l 3.07813,-0.25 c -0.96876,-0.59375 -1.75,-1.34896 -2.34375,-2.26563 -0.59375,-0.91667 -0.89063,-1.89062 -0.89063,-2.92187 z m 8.76563,-13.85938 c 2.03126,0 3.65885,-0.45051 4.88281,-1.35156 1.22397,-0.90105 1.83594,-2.21614 1.83594,-3.94531 0,-1.70834 -0.60937,-2.99739 -1.82813,-3.86719 -1.21875,-0.8698 -2.85936,-1.30469 -4.92187,-1.30469 -2.09376,0 -3.74218,0.42969 -4.94531,1.28907 -1.20314,0.85937 -1.80469,2.16926 -1.80469,3.92968 0,1.70834 0.61458,3.01042 1.84375,3.90625 1.22917,0.89584 2.87499,1.34375 4.9375,1.34375 z m -0.0469,-13.17187 c 2.65627,0 4.80989,0.70832 6.46094,2.125 1.65105,1.41667 2.47656,3.37499 2.47656,5.875 0,2.40626 -0.83332,4.3203 -2.5,5.74219 -1.66667,1.42188 -3.80728,2.13281 -6.42187,2.13281 -2.66668,0 -4.82291,-0.71354 -6.46875,-2.14063 -1.64584,-1.42709 -2.46875,-3.3854 -2.46875,-5.875 0,-2.44793 0.82551,-4.36978 2.47656,-5.76562 1.65105,-1.39584 3.79947,-2.09375 6.44531,-2.09375 z m -13.54687,-10.20313 c 0,1.08334 0.3125,1.82552 0.9375,2.22657 0.625,0.40104 1.70832,0.60156 3.25,0.60156 h 0.79687 v -4.125 h 1.9375 v 4.125 h 15.20313 v 2.60937 h -15.20313 v 2.78125 l -1.71875,-0.21875 -0.21875,-2.5625 h -0.76562 c -2.20835,-0.0208 -3.80989,-0.43489 -4.80469,-1.24218 -0.9948,-0.8073 -1.49219,-2.11197 -1.49219,-3.91407 0,-0.69792 0.0781,-1.55208 0.23438,-2.5625 l 2.04687,0.17188 c -0.13541,0.92709 -0.20312,1.6302 -0.20312,2.10937 z m 22.48437,-19.17187 c 0,2.52084 -0.8177,4.49218 -2.45312,5.91406 -1.63543,1.42188 -3.77603,2.13281 -6.42188,2.13281 -2.66668,-0.0104 -4.83072,-0.73697 -6.49218,-2.17968 -1.66147,-1.44272 -2.49219,-3.41926 -2.49219,-5.92969 0,-0.88542 0.10937,-1.74219 0.32812,-2.57031 0.21875,-0.82813 0.50521,-1.48177 0.85938,-1.96094 l 2.03125,0.71875 c -0.65625,1.21875 -0.98438,2.5052 -0.98438,3.85937 0,1.65626 0.60416,2.96614 1.8125,3.92969 1.20834,0.96355 2.85937,1.44531 4.95313,1.44531 2.04168,0 3.65885,-0.47655 4.85156,-1.42968 1.19272,-0.95313 1.78906,-2.27343 1.78906,-3.96094 0,-1.34376 -0.36458,-2.71874 -1.09375,-4.125 l 2.07813,-0.32813 c 0.82292,1.13543 1.23437,2.6302 1.23437,4.48438 z m -8.89062,-9.78125 c 2.03126,0 3.65885,-0.45052 4.88281,-1.35156 1.22397,-0.90105 1.83594,-2.21614 1.83594,-3.94532 0,-1.70834 -0.60937,-2.99739 -1.82813,-3.86718 -1.21875,-0.8698 -2.85936,-1.30469 -4.92187,-1.30469 -2.09376,0 -3.74218,0.42968 -4.94531,1.28906 -1.20314,0.85938 -1.80469,2.16926 -1.80469,3.92969 0,1.70834 0.61458,3.01041 1.84375,3.90625 1.22917,0.89584 2.87499,1.34375 4.9375,1.34375 z m -0.0469,-13.17188 c 2.65627,0 4.80989,0.70833 6.46094,2.125 1.65105,1.41668 2.47656,3.37499 2.47656,5.875 0,2.40627 -0.83332,4.32031 -2.5,5.74219 -1.66667,1.42188 -3.80728,2.13281 -6.42187,2.13281 -2.66668,0 -4.82291,-0.71353 -6.46875,-2.14062 -1.64584,-1.42709 -2.46875,-3.38541 -2.46875,-5.875 0,-2.44793 0.82551,-4.36979 2.47656,-5.76563 1.65105,-1.39584 3.79947,-2.09375 6.44531,-2.09375 z m 8.57813,-25.45312 h -8.92188 c -0.83333,0 -1.53124,0.0182 -2.09375,0.0547 -0.5625,0.0365 -1.13541,0.11979 -1.71875,0.25 -0.58333,0.1302 -1.04427,0.31249 -1.38281,0.54687 -0.33854,0.23438 -0.61458,0.55989 -0.82812,0.97656 -0.21355,0.41667 -0.32032,0.91667 -0.32032,1.5 0,1.14584 0.30729,2.12239 0.92188,2.92969 0.61458,0.8073 1.47916,1.38281 2.59375,1.72656 0.75,0.0937 1.55208,0.14063 2.40625,0.14063 h 9.34375 v 2.60937 h -9.20313 c -0.77083,0 -1.4401,0.026 -2.00781,0.0781 -0.56771,0.0521 -1.11979,0.15104 -1.65625,0.29687 -0.53646,0.14584 -0.97135,0.34115 -1.30469,0.58594 -0.33333,0.24479 -0.59895,0.57031 -0.79687,0.97656 -0.19792,0.40626 -0.29688,0.89063 -0.29688,1.45313 0,1.25 0.31771,2.29947 0.95313,3.14844 0.63542,0.84896 1.47916,1.41926 2.53125,1.71093 0.80209,0.0937 1.67187,0.14063 2.60937,0.14063 h 9.17188 v 2.60937 c -10.71881,0.0208 -16.43229,0.0312 -17.14063,0.0312 v -2.1875 l 2.45313,-0.32812 c -0.79167,-0.52084 -1.45833,-1.26041 -2,-2.21875 -0.54167,-0.95834 -0.8125,-2.04687 -0.8125,-3.26563 0,-0.63542 0.0651,-1.22135 0.19531,-1.75781 0.13021,-0.53646 0.29427,-0.98437 0.49219,-1.34375 0.19792,-0.35938 0.43489,-0.67969 0.71094,-0.96094 0.27604,-0.28125 0.54687,-0.5 0.8125,-0.65625 0.26562,-0.15625 0.54427,-0.28645 0.83593,-0.39062 -2.03126,-1.25001 -3.04687,-3.16145 -3.04687,-5.73438 0,-1.90626 0.54426,-3.30468 1.63281,-4.19531 1.08855,-0.89063 2.70051,-1.33594 4.83594,-1.33594 h 11.03125 z m 7.4375,-5.9375 h -24.57813 v -2.29688 l 2.32813,-0.25 c -1.79168,-1.5 -2.6875,-3.30207 -2.6875,-5.40625 0,-1.5625 0.39062,-2.88541 1.17187,-3.96875 0.78126,-1.08334 1.83854,-1.88281 3.17188,-2.39843 1.33334,-0.51563 2.89061,-0.77344 4.67187,-0.77344 1.70835,0 3.22656,0.28125 4.55469,0.84375 1.32813,0.5625 2.375,1.38801 3.14063,2.47656 0.76562,1.08855 1.14843,2.36197 1.14843,3.82031 0,1.10418 -0.24739,2.14062 -0.74218,3.10938 -0.4948,0.96875 -1.14844,1.74479 -1.96094,2.32812 1.125,-0.0625 2.21874,-0.0937 3.28125,-0.0937 h 6.32812 z m -9.28125,-7.59375 c 0,-0.79167 -0.17969,-1.5 -0.53906,-2.125 -0.35938,-0.62501 -0.85156,-1.13021 -1.47657,-1.51563 -0.625,-0.38542 -1.33593,-0.67708 -2.13281,-0.875 -0.79688,-0.19791 -1.65885,-0.29687 -2.58594,-0.29687 -1.95834,0 -3.56509,0.41145 -4.82031,1.23437 -1.25521,0.82292 -1.88281,2.02604 -1.88281,3.60938 0,3.31251 2.1406,4.96875 6.42187,4.96875 2.32293,0 4.07291,-0.38802 5.25,-1.16406 1.17709,-0.77605 1.76563,-2.05468 1.76563,-3.83594 z m 0.0937,-16.125 c 0,-1.23959 -0.34114,-2.33073 -1.02344,-3.27344 -0.68229,-0.94271 -1.60156,-1.54948 -2.75781,-1.82031 h -2.89063 c 0,0.0521 0.026,0.36718 0.0781,0.94531 0.0521,0.57813 0.0833,0.95573 0.0937,1.13281 0.19792,2.26043 0.5677,3.83594 1.10937,4.72657 0.54167,0.89062 1.41146,1.33593 2.60938,1.33593 0.91667,0 1.60937,-0.27083 2.07812,-0.8125 0.46876,-0.54167 0.70313,-1.28645 0.70313,-2.23437 z m 1.75,-5.67188 c -0.66667,0.15625 -1.38541,0.30729 -2.15625,0.45313 0.94792,0.94792 1.60416,1.83854 1.96875,2.67187 0.36458,0.83334 0.54687,1.8125 0.54687,2.9375 0,1.60418 -0.41926,2.89323 -1.25781,3.86719 -0.83854,0.97396 -2.04426,1.46094 -3.61719,1.46094 -1.75001,0 -3.04687,-0.66406 -3.89062,-1.99219 -0.84376,-1.32813 -1.36979,-3.24217 -1.57813,-5.74219 -0.0312,-0.34375 -0.0755,-0.86197 -0.13281,-1.55468 -0.0573,-0.69272 -0.10156,-1.21094 -0.13281,-1.55469 h -1.51563 c -1.20834,0 -2.10416,0.28125 -2.6875,0.84375 -0.58333,0.5625 -0.875,1.44791 -0.875,2.65625 0,1.68751 0.41667,3.39061 1.25,5.10937 -0.125,0.0521 -0.48697,0.1875 -1.08593,0.40625 -0.59897,0.21875 -0.90886,0.33334 -0.92969,0.34375 -0.42709,-0.76042 -0.76823,-1.66405 -1.02344,-2.71093 -0.25521,-1.04688 -0.38281,-2.11198 -0.38281,-3.19532 0,-2.13542 0.46614,-3.67447 1.39844,-4.61718 0.93229,-0.94272 2.51821,-1.41407 4.75781,-1.41407 h 11.34375 z m -17.29688,-14.21875 c 0,-0.46875 0.0312,-0.89583 0.0937,-1.28125 l 2.40625,0.0937 c -0.0833,0.47917 -0.125,0.89583 -0.125,1.25 0,1.45834 0.50781,2.64323 1.52344,3.55469 1.01563,0.91146 2.27343,1.36719 3.77344,1.36719 h 9.625 v 2.60937 c -10.52089,0.0104 -16.23437,0.0156 -17.14063,0.0156 v -2.17188 l 3.07813,-0.25 c -0.96876,-0.59375 -1.75,-1.34895 -2.34375,-2.26562 -0.59375,-0.91667 -0.89063,-1.89062 -0.89063,-2.92188 z m 0.15625,-7.04687 h 17.14063 v 2.625 h -17.14063 z m -6.23437,0 h 3.09375 v 2.625 h -3.09375 z m 23.73437,-10.01563 c 0,1.16668 -0.125,2.24219 -0.375,3.22657 -0.25,0.98438 -0.57291,1.78385 -0.96875,2.39843 l -2.20312,-0.32812 c 0.92709,-1.73959 1.39062,-3.44791 1.39062,-5.125 0,-2.54168 -0.89582,-3.84896 -2.6875,-3.92188 -0.76042,0 -1.35937,0.27083 -1.79687,0.8125 -0.4375,0.54167 -0.92708,1.60416 -1.46875,3.1875 l -0.45313,1.29688 c -0.5,1.50001 -1.11978,2.57031 -1.85937,3.21094 -0.73959,0.64062 -1.66145,0.96614 -2.76563,0.97656 -1.34375,0 -2.45833,-0.53906 -3.34375,-1.61719 -0.88542,-1.07813 -1.32812,-2.55468 -1.32812,-4.42969 0,-1.93751 0.37499,-3.70311 1.125,-5.29687 l 2,0.76562 c -0.66667,1.61459 -1,3.125 -1,4.53125 0,1.09376 0.21614,1.95052 0.64844,2.57032 0.43229,0.61979 1.03905,0.92968 1.82031,0.92968 0.66667,0 1.17708,-0.22395 1.53125,-0.67187 0.35417,-0.44792 0.76041,-1.34375 1.21875,-2.6875 0.125,-0.34375 0.27083,-0.77604 0.4375,-1.29688 0.5625,-1.72917 1.22656,-2.95312 1.99219,-3.67187 0.76562,-0.71876 1.79947,-1.07813 3.10156,-1.07813 1.58334,0.0208 2.80989,0.58854 3.67969,1.70313 0.86979,1.11459 1.30468,2.61978 1.30468,4.51562 z m -8.89062,-11.6875 c 2.03126,0 3.65885,-0.45051 4.88281,-1.35156 1.22397,-0.90105 1.83594,-2.21614 1.83594,-3.94531 0,-1.70834 -0.60937,-2.99739 -1.82813,-3.86719 -1.21875,-0.8698 -2.85936,-1.30469 -4.92187,-1.30469 -2.09376,0 -3.74218,0.42969 -4.94531,1.28907 -1.20314,0.85937 -1.80469,2.16926 -1.80469,3.92968 0,1.70834 0.61458,3.01042 1.84375,3.90625 1.22917,0.89584 2.87499,1.34375 4.9375,1.34375 z m -0.0469,-13.17187 c 2.65627,0 4.80989,0.70832 6.46094,2.125 1.65105,1.41667 2.47656,3.37499 2.47656,5.875 0,2.40626 -0.83332,4.3203 -2.5,5.74219 -1.66667,1.42188 -3.80728,2.13281 -6.42187,2.13281 -2.66668,0 -4.82291,-0.71354 -6.46875,-2.14063 -1.64584,-1.42709 -2.46875,-3.3854 -2.46875,-5.875 0,-2.44793 0.82551,-4.36978 2.47656,-5.76562 1.65105,-1.39584 3.79947,-2.09375 6.44531,-2.09375 z m 8.57813,-3.6875 h -17.14063 v -2.1875 l 2.45313,-0.32813 c -0.84376,-0.67708 -1.52344,-1.52343 -2.03906,-2.53906 -0.51563,-1.01563 -0.77344,-2.11197 -0.77344,-3.28906 0,-1.97918 0.55468,-3.44271 1.66406,-4.39063 1.10938,-0.94792 2.81509,-1.42187 5.11719,-1.42187 h 10.71875 v 2.60937 c -6.87504,0 -10.55729,0.005 -11.04688,0.0156 -1.45834,0.0417 -2.52603,0.33593 -3.20312,0.88281 -0.67709,0.54688 -1.01563,1.46093 -1.01563,2.74219 0,1.34375 0.32292,2.46354 0.96875,3.35937 0.64584,0.89584 1.48437,1.47917 2.51563,1.75 0.69792,0.10417 1.49999,0.15625 2.40625,0.15625 h 9.375 z m 0.35937,-23.60938 c 0,1.16668 -0.125,2.24219 -0.375,3.22657 -0.25,0.98438 -0.57291,1.78385 -0.96875,2.39843 l -2.20312,-0.32812 c 0.92709,-1.73959 1.39062,-3.44791 1.39062,-5.125 0,-2.54168 -0.89582,-3.84896 -2.6875,-3.92188 -0.76042,0 -1.35937,0.27083 -1.79687,0.8125 -0.4375,0.54167 -0.92708,1.60416 -1.46875,3.1875 l -0.45313,1.29688 c -0.5,1.50001 -1.11978,2.57031 -1.85937,3.21094 -0.73959,0.64062 -1.66145,0.96614 -2.76563,0.97656 -1.34375,0 -2.45833,-0.53906 -3.34375,-1.61719 -0.88542,-1.07813 -1.32812,-2.55468 -1.32812,-4.42969 0,-1.93751 0.37499,-3.70311 1.125,-5.29687 l 2,0.76562 c -0.66667,1.61459 -1,3.125 -1,4.53125 0,1.09376 0.21614,1.95052 0.64844,2.57032 0.43229,0.61979 1.03905,0.92968 1.82031,0.92968 0.66667,0 1.17708,-0.22395 1.53125,-0.67187 0.35417,-0.44792 0.76041,-1.34375 1.21875,-2.6875 0.125,-0.34375 0.27083,-0.77604 0.4375,-1.29688 0.5625,-1.72917 1.22656,-2.95312 1.99219,-3.67187 0.76562,-0.71876 1.79947,-1.07813 3.10156,-1.07813 1.58334,0.0208 2.80989,0.58854 3.67969,1.70313 0.86979,1.11459 1.30468,2.61978 1.30468,4.51562 z"
       id="Number-of-comparison"
       inkscape:connector-curvature="0"
       style="fill:#ffffff" />
    <polyline
       id="Path-2"
       points="282 202 282 633.519287 997.298912 633.519287"
       stroke-width="5"
       stroke="#FFFFFF" />
    <path
       d="M297,617.5 L901.5,240"
       id="Line-7"
       stroke-linecap="round"
       stroke-width="8"
       stroke="#37C3BE" />
  </g>
</svg>
