<svg height="345.6pt" stroke-linejoin="round" viewBox="0 0 460.8 345.6" width="460.8pt" xmlns="http://www.w3.org/2000/svg" xmlns:xlink="http://www.w3.org/1999/xlink"><defs stroke-linejoin="round"><clipPath id="a" stroke-linejoin="round"><path d="m57.6 41.472h357.12v266.112h-357.12z"/></clipPath><path id="b" d="m0 0v3.5" stroke="#000" stroke-linejoin="round" stroke-width=".8"/><path id="c" d="m31.78125 66.40625q-7.609375 0-11.453125-7.5-3.828125-7.484375-3.828125-22.53125 0-14.984375 3.828125-22.484375 3.84375-7.5 11.453125-7.5 7.671875 0 11.5 7.5 3.84375 7.5 3.84375 22.484375 0 15.046875-3.84375 22.53125-3.828125 7.5-11.5 7.5zm0 7.8125q12.265625 0 18.734375-9.703125 6.46875-9.6875 6.46875-28.140625 0-18.40625-6.46875-28.109375-6.46875-9.6875-18.734375-9.6875-12.25 0-18.71875 9.6875-6.46875 9.703125-6.46875 28.109375 0 18.453125 6.46875 28.140625 6.46875 9.703125 18.71875 9.703125z" stroke-linejoin="round"/><path id="d" d="m12.40625 8.296875h16.109375v55.625l-17.53125-3.515625v8.984375l17.4375 3.515625h9.859375v-64.609375h16.109375v-8.296875h-41.984375z" stroke-linejoin="round"/><path id="e" d="m19.1875 8.296875h34.421875v-8.296875h-46.28125v8.296875q5.609375 5.8125 15.296875 15.59375 9.703125 9.796875 12.1875 12.640625 4.734375 5.3125 6.609375 9 1.890625 3.6875 1.890625 7.25 0 5.8125-4.078125 9.46875-4.078125 3.671875-10.625 3.671875-4.640625 0-9.796875-1.609375-5.140625-1.609375-11-4.890625v9.96875q5.953125 2.390625 11.125 3.609375 5.1875 1.21875 9.484375 1.21875 11.328125 0 18.0625-5.671875 6.734375-5.65625 6.734375-15.125 0-4.5-1.6875-8.53125-1.671875-4.015625-6.125-9.484375-1.21875-1.421875-7.765625-8.1875-6.53125-6.765625-18.453125-18.921875z" stroke-linejoin="round"/><path id="f" d="m40.578125 39.3125q7.078125-1.515625 11.046875-6.3125 3.984375-4.78125 3.984375-11.8125 0-10.78125-7.421875-16.703125-7.421875-5.90625-21.09375-5.90625-4.578125 0-9.4375.90625-4.859375.90625-10.03125 2.71875v9.515625q4.09375-2.390625 8.96875-3.609375 4.890625-1.21875 10.21875-1.21875 9.265625 0 14.125 3.65625 4.859375 3.65625 4.859375 10.640625 0 6.453125-4.515625 10.078125-4.515625 3.640625-12.5625 3.640625h-8.5v8.109375h8.890625q7.265625 0 11.125 2.90625 3.859375 2.90625 3.859375 8.375 0 5.609375-3.984375 8.609375-3.96875 3.015625-11.390625 3.015625-4.0625 0-8.703125-.890625-4.640625-.875-10.203125-2.71875v8.78125q5.625 1.5625 10.53125 2.34375 4.90625.78125 9.25.78125 11.234375 0 17.765625-5.109375 6.546875-5.09375 6.546875-13.78125 0-6.0625-3.46875-10.234375-3.46875-4.171875-9.859375-5.78125z" stroke-linejoin="round"/><path id="g" d="m37.796875 64.3125-24.90625-38.921875h24.90625zm-2.59375 8.59375h12.40625v-47.515625h10.40625v-8.203125h-10.40625v-17.1875h-9.8125v17.1875h-32.90625v9.515625z" stroke-linejoin="round"/><path id="h" d="m10.796875 72.90625h38.71875v-8.3125h-29.6875v-17.859375q2.140625.734375 4.28125 1.09375 2.15625.359375 4.3125.359375 12.203125 0 19.328125-6.6875 7.140625-6.6875 7.140625-18.109375 0-11.765625-7.328125-18.296875-7.328125-6.515625-20.65625-6.515625-4.59375 0-9.359375.78125-4.75.78125-9.828125 2.34375v9.921875q4.390625-2.390625 9.078125-3.5625 4.6875-1.171875 9.90625-1.171875 8.453125 0 13.375 4.4375 4.9375 4.4375 4.9375 12.0625 0 7.609375-4.9375 12.046875-4.921875 4.453125-13.375 4.453125-3.953125 0-7.890625-.875-3.921875-.875-8.015625-2.734375z" stroke-linejoin="round"/><path id="i" d="m0 0h-3.5" stroke="#000" stroke-linejoin="round" stroke-width=".8"/><path id="j" d="m10.6875 12.40625h10.3125v-12.40625h-10.3125z" stroke-linejoin="round"/><path id="k" d="m30.609375 48.390625q-7.21875 0-11.421875-5.640625-4.203125-5.640625-4.203125-15.453125 0-9.8125 4.171875-15.453125 4.1875-5.640625 11.453125-5.640625 7.1875 0 11.375 5.65625 4.203125 5.671875 4.203125 15.4375 0 9.71875-4.203125 15.40625-4.1875 5.6875-11.375 5.6875zm0 7.609375q11.71875 0 18.40625-7.625 6.703125-7.609375 6.703125-21.078125 0-13.421875-6.703125-21.078125-6.6875-7.640625-18.40625-7.640625-11.765625 0-18.4375 7.640625-6.65625 7.65625-6.65625 21.078125 0 13.46875 6.65625 21.078125 6.671875 7.625 18.4375 7.625z" stroke-linejoin="round"/><path id="l" d="m9.421875 54.6875h8.984375v-54.6875h-8.984375zm0 21.296875h8.984375v-11.390625h-8.984375z" stroke-linejoin="round"/><path id="m" d="m44.28125 53.078125v-8.5q-3.796875 1.953125-7.90625 2.921875-4.09375.984375-8.5.984375-6.6875 0-10.03125-2.046875-3.34375-2.046875-3.34375-6.15625 0-3.125 2.390625-4.90625 2.390625-1.78125 9.625-3.390625l3.078125-.6875q9.5625-2.046875 13.59375-5.78125 4.03125-3.734375 4.03125-10.421875 0-7.625-6.03125-12.078125-6.03125-4.4375-16.578125-4.4375-4.390625 0-9.15625.859375-4.765625.859375-10.03125 2.5625v9.28125q4.984375-2.59375 9.8125-3.890625 4.828125-1.28125 9.578125-1.28125 6.34375 0 9.75 2.171875 3.421875 2.171875 3.421875 6.125 0 3.65625-2.46875 5.609375-2.453125 1.953125-10.8125 3.765625l-3.125.734375q-8.34375 1.75-12.0625 5.390625-3.703125 3.640625-3.703125 9.984375 0 7.71875 5.46875 11.90625 5.46875 4.203125 15.53125 4.203125 4.96875 0 9.359375-.734375 4.40625-.71875 8.109375-2.1875z" stroke-linejoin="round"/><path id="n" d="m54.890625 33.015625v-33.015625h-8.984375v32.71875q0 7.765625-3.03125 11.609375-3.03125 3.859375-9.078125 3.859375-7.28125 0-11.484375-4.640625-4.203125-4.625-4.203125-12.640625v-30.90625h-9.03125v54.6875h9.03125v-8.5q3.234375 4.9375 7.59375 7.375 4.375 2.4375 10.09375 2.4375 9.421875 0 14.25-5.828125 4.84375-5.828125 4.84375-17.15625z" stroke-linejoin="round"/><path id="o" d="m18.3125 70.21875v-15.53125h18.5v-6.984375h-18.5v-29.6875q0-6.6875 1.828125-8.59375 1.828125-1.90625 7.453125-1.90625h9.21875v-7.515625h-9.21875q-10.40625 0-14.359375 3.875-3.953125 3.890625-3.953125 14.140625v29.6875h-6.59375v6.984375h6.59375v15.53125z" stroke-linejoin="round"/></defs><g stroke-linejoin="round"><path d="m0 345.6h460.8v-345.6h-460.8z" fill="#fff"/><g><g stroke-linejoin="round"><path d="m57.6 307.584h357.12v-266.112h-357.12z" fill="#fff"/><path clip-path="url(#a)" d="m73.832727 307.584h17.548895v-56.32h-17.548895z" fill="#1f77b4"/><path clip-path="url(#a)" d="m95.768845 307.584h17.548895v-168.96h-17.548895z" fill="#1f77b4"/><path clip-path="url(#a)" d="m117.704963 307.584h17.548894v-253.44h-17.548894z" fill="#1f77b4"/><path clip-path="url(#a)" d="m139.641081 307.584h17.548894v-253.44h-17.548894z" fill="#1f77b4"/><path clip-path="url(#a)" d="m161.577199 307.584h17.548894v-190.08h-17.548894z" fill="#1f77b4"/><path clip-path="url(#a)" d="m183.513317 307.584h17.548894v-114.048h-17.548894z" fill="#1f77b4"/><path clip-path="url(#a)" d="m205.449435 307.584h17.548894v-57.024h-17.548894z" fill="#1f77b4"/><path clip-path="url(#a)" d="m227.385553 307.584h17.548894v-24.438857h-17.548894z" fill="#1f77b4"/><path clip-path="url(#a)" d="m249.321671 307.584h17.548894v-9.164571h-17.548894z" fill="#1f77b4"/><path clip-path="url(#a)" d="m271.257789 307.584h17.548894v-3.054857h-17.548894z" fill="#1f77b4"/><path clip-path="url(#a)" d="m293.193907 307.584h17.548894v-.916457h-17.548894z" fill="#1f77b4"/><path clip-path="url(#a)" d="m315.130025 307.584h17.548894v-.249943h-17.548894z" fill="#1f77b4"/><path clip-path="url(#a)" d="m337.066143 307.584h17.548894v-.062486h-17.548894z" fill="#1f77b4"/><path clip-path="url(#a)" d="m359.00226 307.584h17.548895v-.01442h-17.548895z" fill="#1f77b4"/><path clip-path="url(#a)" d="m380.938378 307.584h17.548895v-.00309h-17.548895z" fill="#1f77b4"/><g><g><use stroke="#000" stroke-width=".8" x="82.607174" xlink:href="#b" y="307.584"/><use transform="matrix(.1 0 0 -.1 79.425924 322.182437)" xlink:href="#c"/></g><g><use stroke="#000" stroke-width=".8" x="104.543292" xlink:href="#b" y="307.584"/><use transform="matrix(.1 0 0 -.1 101.362042 322.182437)" xlink:href="#d"/></g><g><use stroke="#000" stroke-width=".8" x="126.47941" xlink:href="#b" y="307.584"/><use transform="matrix(.1 0 0 -.1 123.29816 322.182437)" xlink:href="#e"/></g><g><use stroke="#000" stroke-width=".8" x="148.415528" xlink:href="#b" y="307.584"/><use transform="matrix(.1 0 0 -.1 145.234278 322.182437)" xlink:href="#f"/></g><g><use stroke="#000" stroke-width=".8" x="170.351646" xlink:href="#b" y="307.584"/><use transform="matrix(.1 0 0 -.1 167.170396 322.182437)" xlink:href="#g"/></g><g><use stroke="#000" stroke-width=".8" x="192.287764" xlink:href="#b" y="307.584"/><use transform="matrix(.1 0 0 -.1 189.106514 322.182437)" xlink:href="#h"/></g><g><use stroke="#000" stroke-width=".8" x="214.223882" xlink:href="#b" y="307.584"/><path d="m33.015625 40.375q-6.640625 0-10.53125-4.546875-3.875-4.53125-3.875-12.4375 0-7.859375 3.875-12.4375 3.890625-4.5625 10.53125-4.5625 6.640625 0 10.515625 4.5625 3.875 4.578125 3.875 12.4375 0 7.90625-3.875 12.4375-3.875 4.546875-10.515625 4.546875zm19.578125 30.921875v-8.984375q-3.71875 1.75-7.5 2.671875-3.78125.9375-7.5.9375-9.765625 0-14.921875-6.59375-5.140625-6.59375-5.875-19.921875 2.875 4.25 7.21875 6.515625 4.359375 2.265625 9.578125 2.265625 10.984375 0 17.359375-6.671875 6.375-6.65625 6.375-18.125 0-11.234375-6.640625-18.03125-6.640625-6.78125-17.671875-6.78125-12.65625 0-19.34375 9.6875-6.6875 9.703125-6.6875 28.109375 0 17.28125 8.203125 27.5625 8.203125 10.28125 22.015625 10.28125 3.71875 0 7.5-.734375 3.78125-.734375 7.890625-2.1875z" transform="matrix(.1 0 0 -.1 211.042632 322.182437)"/></g><g><use stroke="#000" stroke-width=".8" x="236.16" xlink:href="#b" y="307.584"/><path d="m8.203125 72.90625h46.875v-4.203125l-26.46875-68.703125h-10.296875l24.90625 64.59375h-35.015625z" transform="matrix(.1 0 0 -.1 232.97875 322.182437)"/></g><g><use stroke="#000" stroke-width=".8" x="258.096118" xlink:href="#b" y="307.584"/><path d="m31.78125 34.625q-7.03125 0-11.0625-3.765625-4.015625-3.765625-4.015625-10.34375 0-6.59375 4.015625-10.359375 4.03125-3.765625 11.0625-3.765625 7.03125 0 11.078125 3.78125 4.0625 3.796875 4.0625 10.34375 0 6.578125-4.03125 10.34375-4.015625 3.765625-11.109375 3.765625zm-9.859375 4.1875q-6.34375 1.5625-9.890625 5.90625-3.53125 4.359375-3.53125 10.609375 0 8.734375 6.21875 13.8125 6.234375 5.078125 17.0625 5.078125 10.890625 0 17.09375-5.078125 6.203125-5.078125 6.203125-13.8125 0-6.25-3.546875-10.609375-3.53125-4.34375-9.828125-5.90625 7.125-1.65625 11.09375-6.5 3.984375-4.828125 3.984375-11.796875 0-10.609375-6.46875-16.28125-6.46875-5.65625-18.53125-5.65625-12.046875 0-18.53125 5.65625-6.46875 5.671875-6.46875 16.28125 0 6.96875 4 11.796875 4.015625 4.84375 11.140625 6.5zm-3.609375 15.578125q0-5.65625 3.53125-8.828125 3.546875-3.171875 9.9375-3.171875 6.359375 0 9.9375 3.171875 3.59375 3.171875 3.59375 8.828125 0 5.671875-3.59375 8.84375-3.578125 3.171875-9.9375 3.171875-6.390625 0-9.9375-3.171875-3.53125-3.171875-3.53125-8.84375z" transform="matrix(.1 0 0 -.1 254.914868 322.182437)"/></g><g><use stroke="#000" stroke-width=".8" x="280.032236" xlink:href="#b" y="307.584"/><path d="m10.984375 1.515625v8.984375q3.71875-1.765625 7.515625-2.6875 3.8125-.921875 7.484375-.921875 9.765625 0 14.90625 6.5625 5.15625 6.5625 5.890625 19.953125-2.828125-4.203125-7.1875-6.453125-4.34375-2.25-9.609375-2.25-10.9375 0-17.3125 6.609375-6.375 6.625-6.375 18.109375 0 11.21875 6.640625 18 6.640625 6.796875 17.671875 6.796875 12.65625 0 19.3125-9.703125 6.671875-9.6875 6.671875-28.140625 0-17.234375-8.1875-27.515625-8.171875-10.28125-21.984375-10.28125-3.71875 0-7.53125.734375-3.796875.734375-7.90625 2.203125zm19.625 30.90625q6.640625 0 10.515625 4.53125 3.890625 4.546875 3.890625 12.46875 0 7.859375-3.890625 12.421875-3.875 4.5625-10.515625 4.5625-6.640625 0-10.515625-4.5625-3.875-4.5625-3.875-12.421875 0-7.921875 3.875-12.46875 3.875-4.53125 10.515625-4.53125z" transform="matrix(.1 0 0 -.1 276.850986 322.182437)"/></g><g><use stroke="#000" stroke-width=".8" x="301.968354" xlink:href="#b" y="307.584"/><g transform="matrix(.1 0 0 -.1 295.605854 322.182437)"><use xlink:href="#d"/><use x="63.623047" xlink:href="#c"/></g></g><g><use stroke="#000" stroke-width=".8" x="323.904472" xlink:href="#b" y="307.584"/><g transform="matrix(.1 0 0 -.1 317.541972 322.182437)"><use xlink:href="#d"/><use x="63.623047" xlink:href="#d"/></g></g><g><use stroke="#000" stroke-width=".8" x="345.84059" xlink:href="#b" y="307.584"/><g transform="matrix(.1 0 0 -.1 339.47809 322.182437)"><use xlink:href="#d"/><use x="63.623047" xlink:href="#e"/></g></g><g><use stroke="#000" stroke-width=".8" x="367.776708" xlink:href="#b" y="307.584"/><g transform="matrix(.1 0 0 -.1 361.414208 322.182437)"><use xlink:href="#d"/><use x="63.623047" xlink:href="#f"/></g></g><g><use stroke="#000" stroke-width=".8" x="389.712826" xlink:href="#b" y="307.584"/><g transform="matrix(.1 0 0 -.1 383.350326 322.182437)"><use xlink:href="#d"/><use x="63.623047" xlink:href="#g"/></g></g></g><g><g><use stroke="#000" stroke-width=".8" x="57.6" xlink:href="#i" y="307.584"/><g transform="matrix(.1 0 0 -.1 28.334375 311.383219)"><use xlink:href="#c"/><use x="63.623047" xlink:href="#j"/><use x="95.410156" xlink:href="#c"/><use x="159.033203" xlink:href="#c"/></g></g><g><use stroke="#000" stroke-width=".8" x="57.6" xlink:href="#i" y="251.023128"/><g transform="matrix(.1 0 0 -.1 28.334375 254.822347)"><use xlink:href="#c"/><use x="63.623047" xlink:href="#j"/><use x="95.410156" xlink:href="#c"/><use x="159.033203" xlink:href="#h"/></g></g><g><use stroke="#000" stroke-width=".8" x="57.6" xlink:href="#i" y="194.462256"/><g transform="matrix(.1 0 0 -.1 28.334375 198.261475)"><use xlink:href="#c"/><use x="63.623047" xlink:href="#j"/><use x="95.410156" xlink:href="#d"/><use x="159.033203" xlink:href="#c"/></g></g><g><use stroke="#000" stroke-width=".8" x="57.6" xlink:href="#i" y="137.901384"/><g transform="matrix(.1 0 0 -.1 28.334375 141.700603)"><use xlink:href="#c"/><use x="63.623047" xlink:href="#j"/><use x="95.410156" xlink:href="#d"/><use x="159.033203" xlink:href="#h"/></g></g><g><use stroke="#000" stroke-width=".8" x="57.6" xlink:href="#i" y="81.340512"/><g transform="matrix(.1 0 0 -.1 28.334375 85.139731)"><use xlink:href="#c"/><use x="63.623047" xlink:href="#j"/><use x="95.410156" xlink:href="#e"/><use x="159.033203" xlink:href="#c"/></g></g></g></g><path d="m57.6 307.584v-266.112" fill="none" stroke="#000" stroke-linecap="square" stroke-linejoin="miter" stroke-width=".8"/><path d="m414.72 307.584v-266.112" fill="none" stroke="#000" stroke-linecap="square" stroke-linejoin="miter" stroke-width=".8"/><path d="m57.6 307.584h357.12" fill="none" stroke="#000" stroke-linecap="square" stroke-linejoin="miter" stroke-width=".8"/><path d="m57.6 41.472h357.12" fill="none" stroke="#000" stroke-linecap="square" stroke-linejoin="miter" stroke-width=".8"/><g stroke-linejoin="round" transform="matrix(.12 0 0 -.12 156.64875 35.472)"><path d="m19.671875 64.796875v-27.390625h12.40625q6.890625 0 10.640625 3.5625 3.765625 3.5625 3.765625 10.15625 0 6.546875-3.765625 10.109375-3.75 3.5625-10.640625 3.5625zm-9.859375 8.109375h22.265625q12.265625 0 18.53125-5.546875 6.28125-5.546875 6.28125-16.234375 0-10.796875-6.28125-16.3125-6.265625-5.515625-18.53125-5.515625h-12.40625v-29.296875h-9.859375z"/><use x="56.677734" xlink:href="#k"/><use x="117.859375" xlink:href="#l"/><use x="145.642578" xlink:href="#m"/><use x="197.742188" xlink:href="#m"/><use x="249.841797" xlink:href="#k"/><use x="311.023438" xlink:href="#n"/><path d="m19.671875 64.796875v-56.6875h11.921875q15.09375 0 22.09375 6.828125 7 6.84375 7 21.59375 0 14.640625-7 21.453125-7 6.8125-22.09375 6.8125zm-9.859375 8.109375h20.265625q21.1875 0 31.09375-8.8125 9.921875-8.8125 9.921875-27.5625 0-18.859375-9.96875-27.703125-9.953125-8.828125-31.046875-8.828125h-20.265625z" transform="translate(406.189453)"/><use x="483.191406" xlink:href="#l"/><use x="510.974609" xlink:href="#m"/><use x="563.074219" xlink:href="#o"/><path d="m41.109375 46.296875q-1.515625.875-3.296875 1.28125-1.78125.421875-3.921875.421875-7.625 0-11.703125-4.953125-4.078125-4.953125-4.078125-14.234375v-28.8125h-9.03125v54.6875h9.03125v-8.5q2.84375 4.984375 7.375 7.390625 4.546875 2.421875 11.046875 2.421875.921875 0 2.046875-.125 1.125-.109375 2.484375-.359375z" transform="translate(602.283203)"/><use x="643.396484" xlink:href="#l"/><path d="m48.6875 27.296875q0 9.90625-4.078125 15.546875-4.078125 5.640625-11.203125 5.640625-7.140625 0-11.21875-5.640625-4.078125-5.640625-4.078125-15.546875 0-9.90625 4.078125-15.546875 4.078125-5.640625 11.21875-5.640625 7.125 0 11.203125 5.640625 4.078125 5.640625 4.078125 15.546875zm-30.578125 19.09375q2.84375 4.875 7.15625 7.234375 4.328125 2.375 10.328125 2.375 9.96875 0 16.1875-7.90625 6.234375-7.90625 6.234375-20.796875 0-12.890625-6.234375-20.8125-6.21875-7.90625-16.1875-7.90625-6 0-10.328125 2.375-4.3125 2.375-7.15625 7.25v-8.203125h-9.03125v75.984375h9.03125z" transform="translate(671.179688)"/><path d="m8.5 21.578125v33.109375h8.984375v-32.765625q0-7.765625 3.015625-11.65625 3.03125-3.875 9.09375-3.875 7.265625 0 11.484375 4.640625 4.234375 4.640625 4.234375 12.65625v31h8.984375v-54.6875h-8.984375v8.40625q-3.265625-4.984375-7.59375-7.40625-4.3125-2.421875-10.03125-2.421875-9.421875 0-14.3125 5.859375-4.875 5.859375-4.875 17.140625z" transform="translate(734.65625)"/><use x="798.035156" xlink:href="#o"/><use x="837.244141" xlink:href="#l"/><use x="865.027344" xlink:href="#k"/><use x="926.208984" xlink:href="#n"/><path d="m11.71875 12.40625h10.296875v-12.40625h-10.296875zm0 39.296875h10.296875v-12.390625h-10.296875z" transform="translate(989.587891)"/><path d="m30.953125 67.4375 25.25-67.4375h-9.515625l-15.34375 40.4375-18.84375-40.4375h-9.515625l23.96875 52.4375-3.609375 9.671875q-2.296875 6.15625-7.515625 6.15625h-4.6875v7.71875l5.703125-.109375q11.03125-.140625 14.109375-8.4375z" transform="translate(1055.066406)"/><path d="m10.59375 45.40625h62.59375v-8.203125h-62.59375zm0-19.921875h62.59375v-8.296875h-62.59375z" transform="translate(1146.033203)"/><use x="1261.609375" xlink:href="#f"/></g></g></g></svg>