<?xml version="1.0" encoding="UTF-8" standalone="no"?>
<svg
   xmlns:dc="http://purl.org/dc/elements/1.1/"
   xmlns:cc="http://creativecommons.org/ns#"
   xmlns:rdf="http://www.w3.org/1999/02/22-rdf-syntax-ns#"
   xmlns:svg="http://www.w3.org/2000/svg"
   xmlns="http://www.w3.org/2000/svg"
   xmlns:sodipodi="http://sodipodi.sourceforge.net/DTD/sodipodi-0.dtd"
   xmlns:inkscape="http://www.inkscape.org/namespaces/inkscape"
   width="1214px"
   height="941px"
   viewBox="0 0 1214 941"
   version="1.1"
   id="svg33"
   sodipodi:docname="directed_graph.svg"
   inkscape:version="0.92.3 (2405546, 2018-03-11)">
  <metadata
     id="metadata37">
    <rdf:RDF>
      <cc:Work
         rdf:about="">
        <dc:format>image/svg+xml</dc:format>
        <dc:type
           rdf:resource="http://purl.org/dc/dcmitype/StillImage" />
        <dc:title>directed graph</dc:title>
      </cc:Work>
    </rdf:RDF>
  </metadata>
  <sodipodi:namedview
     pagecolor="#ffffff"
     bordercolor="#666666"
     borderopacity="1"
     objecttolerance="10"
     gridtolerance="10"
     guidetolerance="10"
     inkscape:pageopacity="0"
     inkscape:pageshadow="2"
     inkscape:window-width="1280"
     inkscape:window-height="657"
     id="namedview35"
     showgrid="false"
     inkscape:zoom="0.23640857"
     inkscape:cx="80.369338"
     inkscape:cy="470.5"
     inkscape:window-x="-8"
     inkscape:window-y="-8"
     inkscape:window-maximized="1"
     inkscape:current-layer="svg33" />
  <!-- Generator: Sketch 50 (54983) - http://www.bohemiancoding.com/sketch -->
  <title
     id="title2">directed graph</title>
  <desc
     id="desc4">Created with Sketch.</desc>
  <defs
     id="defs6" />
  <rect
     style="opacity:1;fill:#262656;fill-opacity:1;fill-rule:nonzero;stroke:#03f3f4;stroke-width:0.75590551;stroke-linecap:round;stroke-linejoin:miter;stroke-miterlimit:4;stroke-dasharray:none;stroke-dashoffset:0;stroke-opacity:1;paint-order:stroke fill markers"
     id="rect844"
     width="1235.1498"
     height="964.43207"
     x="-12.689896"
     y="-6.5121951"
     rx="13.8545" />
  <g
     id="directed-graph"
     style="fill:none;fill-rule:evenodd;stroke:none;stroke-width:1"
     transform="matrix(1.2974761,0,0,1.2317738,-186.46676,-73.759517)">
    <path
       d="m 498.92969,119.60938 h 3.03125 c 2.61459,0 4.60416,-0.68489 5.96875,-2.05469 1.36459,-1.3698 2.04687,-3.36718 2.04687,-5.99219 0,-2.81251 -0.70312,-4.85676 -2.10937,-6.13281 -1.40626,-1.27605 -3.52603,-1.91406 -6.35938,-1.91406 h -2.57812 z M 494.69531,123 v -22.89062 h 6.625 c 2.00001,0 3.79166,0.22916 5.375,0.6875 1.58334,0.45833 2.94531,1.14843 4.08594,2.07031 1.14063,0.92188 2.01562,2.10937 2.625,3.5625 0.60938,1.45313 0.91406,3.1328 0.91406,5.03906 0,3.69794 -1.11457,6.54426 -3.34375,8.53906 -2.22918,1.9948 -5.31769,2.99219 -9.26562,2.99219 z m 23.34375,0 v -17.17187 h 4.09375 V 123 Z m 0,-19.67187 v -3.500005 h 4.10938 v 3.500005 z M 526.41406,123 v -17.17187 h 3.4375 l 0.53125,2.625 c 1.12501,-1.8021 2.7552,-2.70313 4.89063,-2.70313 0.44792,0 0.8125,0.0208 1.09375,0.0625 l -0.0625,3.42188 c -0.41667,-0.0625 -0.84896,-0.0937 -1.29688,-0.0937 -1.51042,0 -2.63802,0.40103 -3.38281,1.20312 -0.74479,0.80209 -1.11719,1.91666 -1.11719,3.34375 V 123 Z m 20.39063,0.32813 c -2.76043,0 -4.90885,-0.79427 -6.44532,-2.38282 -1.53646,-1.58855 -2.30468,-3.78384 -2.30468,-6.58593 0,-2.72918 0.72395,-4.90104 2.17187,-6.51563 1.44793,-1.61459 3.42186,-2.42708 5.92188,-2.4375 2.36459,0 4.20051,0.73958 5.50781,2.21875 1.3073,1.47917 1.96094,3.4427 1.96094,5.89063 0,0.17708 -0.003,0.46353 -0.008,0.85937 -0.005,0.39584 -0.008,0.6875 -0.008,0.875 h -11.42187 c 0.0417,1.60417 0.48176,2.84635 1.32031,3.72656 0.83855,0.88022 1.99218,1.32032 3.46094,1.32032 1.87501,0 3.67707,-0.48958 5.40625,-1.46875 l 0.57812,2.90625 c -1.71876,1.0625 -3.76561,1.59375 -6.14062,1.59375 z m -4.54688,-10.65625 h 7.5 c 0,-1.39585 -0.3177,-2.46875 -0.95312,-3.21875 -0.63542,-0.75001 -1.51562,-1.125 -2.64063,-1.125 -1.05209,0 -1.9401,0.36458 -2.66406,1.09375 -0.72396,0.72916 -1.13802,1.81249 -1.24219,3.25 z m 22.20313,10.65625 c -2.62502,0 -4.66927,-0.78125 -6.13282,-2.34375 -1.46354,-1.56251 -2.19531,-3.79686 -2.19531,-6.70313 0,-2.81251 0.76822,-4.99478 2.30469,-6.54687 1.53647,-1.5521 3.55988,-2.32813 6.07031,-2.32813 2.01043,0 3.70833,0.43229 5.09375,1.29688 l -0.96875,2.92187 c -1.41667,-0.73959 -2.73437,-1.10937 -3.95312,-1.10937 -1.38543,0 -2.47656,0.49478 -3.27344,1.48437 -0.79688,0.98959 -1.19531,2.43228 -1.19531,4.32813 0,1.91667 0.39322,3.37499 1.17968,4.375 0.78647,1 1.89843,1.5 3.33594,1.5 1.50001,0 2.9427,-0.44271 4.32813,-1.32813 l 0.39062,3.10938 c -0.71875,0.47916 -1.46354,0.82291 -2.23437,1.03125 -0.77084,0.20833 -1.6875,0.3125 -2.75,0.3125 z m 15.09375,-0.0937 c -1.16668,0 -2.13802,-0.13802 -2.91407,-0.41407 -0.77604,-0.27604 -1.3828,-0.71093 -1.82031,-1.30468 -0.4375,-0.59376 -0.74739,-1.29427 -0.92969,-2.10157 -0.18229,-0.80729 -0.27343,-1.80468 -0.27343,-2.99218 v -8.10938 h -2.8125 l 0.15625,-2.21875 2.9375,-0.26562 1.3125,-4.65625 2.5,-0.0156 v 4.67188 h 4.26562 v 2.48437 h -4.26562 V 116.5 c 0,1.30209 0.1875,2.22916 0.5625,2.78125 0.375,0.55209 1.0677,0.82813 2.07812,0.82813 0.59376,0 1.22917,-0.0521 1.90625,-0.15625 l 0.10938,2.9375 c -0.0208,0 -0.14844,0.0234 -0.38282,0.0703 -0.23437,0.0469 -0.45833,0.0885 -0.67187,0.125 -0.21354,0.0365 -0.48698,0.0703 -0.82031,0.10156 -0.33334,0.0312 -0.64583,0.0469 -0.9375,0.0469 z m 13.625,0.0937 c -2.76043,0 -4.90885,-0.79427 -6.44532,-2.38282 -1.53646,-1.58855 -2.30468,-3.78384 -2.30468,-6.58593 0,-2.72918 0.72395,-4.90104 2.17187,-6.51563 1.44793,-1.61459 3.42186,-2.42708 5.92188,-2.4375 2.36459,0 4.20051,0.73958 5.50781,2.21875 1.3073,1.47917 1.96094,3.4427 1.96094,5.89063 0,0.17708 -0.003,0.46353 -0.008,0.85937 -0.005,0.39584 -0.008,0.6875 -0.008,0.875 h -11.42187 c 0.0417,1.60417 0.48176,2.84635 1.32031,3.72656 0.83855,0.88022 1.99218,1.32032 3.46094,1.32032 1.87501,0 3.67707,-0.48958 5.40625,-1.46875 l 0.57812,2.90625 c -1.71876,1.0625 -3.76561,1.59375 -6.14062,1.59375 z m -4.54688,-10.65625 h 7.5 c 0,-1.39585 -0.3177,-2.46875 -0.95312,-3.21875 -0.63542,-0.75001 -1.51562,-1.125 -2.64063,-1.125 -1.05209,0 -1.9401,0.36458 -2.66406,1.09375 -0.72396,0.72916 -1.13802,1.81249 -1.24219,3.25 z m 21.07813,10.65625 c -2.2396,0 -4,-0.82291 -5.28125,-2.46875 -1.28126,-1.64585 -1.92188,-3.84374 -1.92188,-6.59375 0,-2.66668 0.63802,-4.80989 1.91406,-6.42969 1.27605,-1.6198 3.03385,-2.42969 5.27344,-2.42969 2.43752,0 4.16146,0.86458 5.17188,2.59375 -0.10417,-1.02084 -0.15625,-2.0052 -0.15625,-2.95312 V 99.5 l 4.09375,-0.265625 V 123 h -3.54688 l -0.45312,-2.34375 c -0.17709,0.28125 -0.34115,0.52344 -0.49219,0.72656 -0.15104,0.20313 -0.37239,0.4375 -0.66406,0.70313 -0.29167,0.26562 -0.60677,0.47916 -0.94532,0.64062 -0.33854,0.16146 -0.76562,0.30208 -1.28125,0.42188 -0.51562,0.11979 -1.08593,0.17969 -1.71093,0.17969 z m 0.96875,-3.10938 c 2.75001,0 4.14583,-1.86977 4.1875,-5.60937 0,-2.1146 -0.35417,-3.65625 -1.0625,-4.625 -0.70834,-0.96876 -1.76562,-1.45313 -3.17188,-1.45313 -1.22917,0 -2.21093,0.49218 -2.94531,1.47656 -0.73438,0.98438 -1.10156,2.43489 -1.10156,4.35157 0,1.90626 0.36718,3.35937 1.10156,4.35937 0.73438,1.00001 1.73176,1.5 2.99219,1.5 z m 31.375,3.10938 c -3.4896,0 -6.21614,-1.05208 -8.17969,-3.15625 -1.96355,-2.10418 -2.94531,-4.98436 -2.94531,-8.64063 0,-2.32293 0.45833,-4.36718 1.375,-6.13281 0.91667,-1.76564 2.26561,-3.14323 4.04687,-4.13281 1.78126,-0.98959 3.88541,-1.48438 6.3125,-1.48438 2.78127,0 5.16666,0.59895 7.15625,1.79688 l -1.375,3.15625 c -1.89584,-1.02084 -3.79686,-1.53125 -5.70312,-1.53125 -2.31251,0 -4.1302,0.74999 -5.45313,2.25 -1.32292,1.5 -1.98437,3.54165 -1.98437,6.125 0,2.56251 0.58853,4.58853 1.76562,6.07812 1.17709,1.48959 2.90103,2.23438 5.17188,2.23438 1.45834,0 2.78124,-0.22917 3.96875,-0.6875 v -5.3125 h -4.79688 l 0.0312,-3.32813 h 8.75 v 11.04688 c -1.41667,0.58333 -2.7578,1.01562 -4.02344,1.29687 -1.26563,0.28125 -2.63801,0.42188 -4.11718,0.42188 z M 654.36719,123 v -17.17187 h 3.4375 l 0.53125,2.625 c 1.125,-1.8021 2.75519,-2.70313 4.89062,-2.70313 0.44792,0 0.8125,0.0208 1.09375,0.0625 l -0.0625,3.42188 c -0.41667,-0.0625 -0.84895,-0.0937 -1.29687,-0.0937 -1.51043,0 -2.63802,0.40103 -3.38282,1.20312 -0.74479,0.80209 -1.11718,1.91666 -1.11718,3.34375 V 123 Z m 16.98437,0.32813 c -1.59376,0 -2.88281,-0.4401 -3.86719,-1.32032 -0.98437,-0.88021 -1.47656,-2.14843 -1.47656,-3.80468 0,-1.78126 0.58333,-3.10156 1.75,-3.96094 1.16667,-0.85938 2.92707,-1.40365 5.28125,-1.63281 0.32292,-0.0417 0.67188,-0.0833 1.04688,-0.125 0.375,-0.0417 0.79687,-0.0833 1.26562,-0.125 0.46876,-0.0417 0.83854,-0.0781 1.10938,-0.10938 v -0.90625 c 0,-1.04167 -0.23958,-1.79948 -0.71875,-2.27344 -0.47917,-0.47396 -1.20833,-0.71093 -2.1875,-0.71093 -1.39584,0 -3.11978,0.39062 -5.17188,1.17187 -0.0104,-0.0312 -0.18229,-0.5052 -0.51562,-1.42187 -0.33334,-0.91668 -0.50521,-1.38542 -0.51563,-1.40625 2.02085,-0.86459 4.20832,-1.29688 6.5625,-1.29688 2.31251,0 3.99479,0.5026 5.04688,1.50781 1.05209,1.00522 1.57812,2.6328 1.57812,4.88282 V 123 h -3.03125 c -0.0104,-0.0417 -0.125,-0.39062 -0.34375,-1.04687 -0.21875,-0.65626 -0.32812,-1.00521 -0.32812,-1.04688 -0.85417,0.83334 -1.6901,1.44531 -2.50782,1.83594 -0.81771,0.39062 -1.80989,0.58594 -2.97656,0.58594 z m 1.10938,-2.90625 c 0.94792,0 1.77343,-0.22657 2.47656,-0.67969 0.70313,-0.45313 1.20573,-1.0026 1.50781,-1.64844 v -3.3125 c -0.0312,0 -0.30468,0.0208 -0.82031,0.0625 -0.51563,0.0417 -0.79427,0.0625 -0.83594,0.0625 -1.65626,0.14583 -2.86979,0.45833 -3.64062,0.9375 -0.77084,0.47917 -1.15625,1.25 -1.15625,2.3125 0,0.72917 0.21354,1.28906 0.64062,1.67969 0.42709,0.39062 1.03646,0.58594 1.82813,0.58594 z m 12.20312,9.71874 v -24.31249 h 3.51563 l 0.4375,2.40625 c 0.5625,-0.90626 1.30989,-1.60677 2.24218,-2.10157 0.9323,-0.49479 1.97135,-0.74218 3.11719,-0.74218 1.40626,0 2.64323,0.39062 3.71094,1.17187 1.06771,0.78125 1.8776,1.84635 2.42969,3.19531 0.55208,1.34897 0.82812,2.87239 0.82812,4.57032 0,2.65626 -0.64322,4.8203 -1.92969,6.49218 -1.28646,1.67189 -3.02863,2.50782 -5.22656,2.50782 -1.08334,0 -2.0651,-0.21615 -2.94531,-0.64844 -0.88021,-0.4323 -1.61718,-1.01823 -2.21094,-1.75781 0.0833,1.5 0.125,2.34374 0.125,2.53125 v 6.48437 z m 8.25,-9.93749 c 1.21876,0 2.17969,-0.51042 2.88281,-1.53125 0.70313,-1.02084 1.05469,-2.47916 1.05469,-4.375 0,-1.9271 -0.35416,-3.375 -1.0625,-4.34375 -0.70833,-0.96876 -1.6927,-1.45313 -2.95312,-1.45313 -2.70835,0 -4.07813,1.84373 -4.10938,5.53125 0,2.12501 0.35156,3.68489 1.05469,4.67969 0.70313,0.99479 1.74739,1.49219 3.13281,1.49219 z M 704.28906,123 V 99.5 l 4.09375,-0.265625 v 4.953125 c 0,0.23959 -0.0156,0.90364 -0.0469,1.99219 -0.0312,1.08855 -0.0469,1.64323 -0.0469,1.66406 1.36459,-1.62501 3.19791,-2.4375 5.5,-2.4375 1.91668,0 3.40364,0.54947 4.46094,1.64844 1.0573,1.09896 1.58594,2.78905 1.58594,5.07031 V 123 h -4.09375 v -10.42187 c 0,-1.40626 -0.22396,-2.4375 -0.67188,-3.09375 -0.44792,-0.65626 -1.20833,-0.98438 -2.28125,-0.98438 -0.91667,0 -1.72916,0.23177 -2.4375,0.69531 -0.70833,0.46355 -1.23958,1.0599 -1.59375,1.78907 -0.25,0.95833 -0.375,2.20832 -0.375,3.75 V 123 Z"
       id="Directed-Graph"
       inkscape:connector-curvature="0"
       style="fill:#ffffff" />
    <path
       d="m 337.80371,455.66406 c 2.10548,1.03907 4.36132,1.5586 6.76758,1.5586 2.96225,0 4.44336,-1.34895 4.44336,-4.04688 0,-0.875 -0.2347,-1.58366 -0.7041,-2.12598 -0.46941,-0.54232 -1.32389,-0.96842 -2.56348,-1.27832 l -4.01953,-1.01171 c -3.07163,-0.77475 -4.60742,-2.41536 -4.60742,-4.92188 0,-1.92319 0.6608,-3.35188 1.98242,-4.28613 1.32162,-0.93425 3.14908,-1.40137 5.48242,-1.40137 1.22136,0 2.36523,0.13216 3.43164,0.39648 1.06641,0.26433 1.95963,0.61979 2.67969,1.06641 l -0.6836,1.92774 c -0.61068,-0.33725 -1.41959,-0.63802 -2.42675,-0.90235 -1.00717,-0.26432 -2.02571,-0.39648 -3.05567,-0.39648 -3.29949,0 -4.94922,1.14387 -4.94922,3.43164 0,0.77474 0.25293,1.39681 0.75879,1.86621 0.50587,0.4694 1.26465,0.82715 2.27637,1.07324 l 3.8418,0.92969 c 1.64063,0.39193 2.88476,1.01855 3.73242,1.87988 0.84766,0.86133 1.27148,2.08496 1.27148,3.6709 0,2.05991 -0.63118,3.61165 -1.89355,4.65527 -1.26238,1.04363 -2.97818,1.56543 -5.14746,1.56543 -1.62241,0 -3.06477,-0.16634 -4.32715,-0.49902 -1.26238,-0.33268 -2.26269,-0.72689 -3.00098,-1.18262 z M 354.53809,459 v -14.99805 h 1.91406 l 0.28711,2.14649 c 0.59245,-0.73829 1.333,-1.33301 2.22168,-1.78418 0.88867,-0.45118 1.84797,-0.67676 2.87793,-0.67676 1.73178,0 3.01236,0.48535 3.84179,1.45605 0.82943,0.97071 1.24414,2.46321 1.24414,4.47754 V 459 h -2.2832 c 0,-6.01565 -0.005,-9.23763 -0.0137,-9.66602 -0.0365,-1.27604 -0.29394,-2.21028 -0.77246,-2.80273 -0.47852,-0.59245 -1.27832,-0.88867 -2.39942,-0.88867 -1.17578,0 -2.15559,0.28255 -2.93945,0.84765 -0.78386,0.56511 -1.29427,1.29883 -1.53125,2.20118 -0.0911,0.61068 -0.13672,1.31249 -0.13672,2.10546 V 459 Z m 20.52148,-1.53125 c 1.08464,0 2.03938,-0.2985 2.86426,-0.89551 0.82487,-0.59701 1.35579,-1.40136 1.59277,-2.41308 v -2.5293 c -0.0456,0 -0.32129,0.0228 -0.82715,0.0684 -0.50586,0.0456 -0.83626,0.0729 -0.99121,0.082 -1.97787,0.17318 -3.35644,0.49674 -4.13574,0.9707 -0.7793,0.47396 -1.16895,1.23502 -1.16895,2.28321 0,0.80208 0.23698,1.4082 0.71094,1.81836 0.47396,0.41015 1.12565,0.61523 1.95508,0.61523 z M 380.02246,459 c -0.13672,-0.58334 -0.26888,-1.21224 -0.39648,-1.88672 -0.82944,0.82943 -1.60872,1.40365 -2.33789,1.72266 -0.72917,0.31901 -1.58594,0.47851 -2.57032,0.47851 -1.40365,0 -2.53157,-0.36686 -3.38379,-1.10058 -0.85221,-0.73373 -1.27832,-1.78873 -1.27832,-3.16504 0,-1.53126 0.58105,-2.66601 1.74317,-3.4043 1.16211,-0.73828 2.8369,-1.19857 5.02441,-1.38086 0.30079,-0.0273 0.75423,-0.0661 1.36035,-0.11621 0.60613,-0.0501 1.05957,-0.0889 1.36035,-0.11621 v -1.32617 c 0,-1.0573 -0.24609,-1.84114 -0.73828,-2.35156 -0.49219,-0.51042 -1.26692,-0.76563 -2.32422,-0.76563 -1.47656,0 -2.96678,0.36458 -4.4707,1.09375 -0.0456,-0.10937 -0.16406,-0.4261 -0.35547,-0.9502 -0.1914,-0.52409 -0.29166,-0.79524 -0.30078,-0.81347 0.66537,-0.3737 1.45605,-0.6722 2.37207,-0.89551 0.91602,-0.22331 1.84798,-0.33496 2.7959,-0.33496 1.8685,0 3.21517,0.40787 4.04004,1.22363 0.82487,0.81576 1.2373,2.20344 1.2373,4.16309 V 459 Z m 5.74219,0 v -20.82227 l 2.26953,-0.13671 v 12.81054 c 0.0547,-0.0547 0.13672,-0.14583 0.24609,-0.27344 0.10938,-0.1276 0.19597,-0.2233 0.25977,-0.2871 0.79297,-0.86589 2.84373,-2.96223 6.15234,-6.28907 h 2.89844 l -6.23438,6.31641 6.67188,8.68164 h -2.84375 l -5.48242,-7.38281 -1.66797,1.43554 V 459 Z m 20.09765,-13.42578 c -1.16667,0 -2.11913,0.41243 -2.85742,1.2373 -0.73828,0.82488 -1.17122,1.9528 -1.29883,3.38379 h 7.91602 c 0,-1.48568 -0.33496,-2.62727 -1.00488,-3.4248 -0.66993,-0.79753 -1.58821,-1.19629 -2.75489,-1.19629 z m 0.45118,13.74023 c -2.1784,0 -3.8942,-0.6927 -5.14746,-2.07812 -1.25327,-1.38543 -1.87989,-3.28124 -1.87989,-5.6875 0,-2.32423 0.60612,-4.20865 1.81836,-5.65332 1.21225,-1.44467 2.80728,-2.18067 4.78516,-2.20801 1.85938,0 3.33365,0.63574 4.42285,1.90723 1.0892,1.27149 1.63379,2.96906 1.63379,5.09277 0,0.10938 -0.002,0.30989 -0.007,0.60156 -0.005,0.29167 -0.007,0.5013 -0.007,0.62891 h -10.29493 c 0.0273,1.70443 0.46712,3.03287 1.31934,3.98535 0.85222,0.95248 1.99837,1.42871 3.43848,1.42871 1.58594,0 3.17642,-0.41927 4.77148,-1.25781 l 0.35547,1.8457 c -1.52214,0.92969 -3.25845,1.39453 -5.20898,1.39453 z m 13.27539,0 c -1.02084,0 -1.96191,-0.10937 -2.82325,-0.32812 -0.86133,-0.21875 -1.56087,-0.5013 -2.09863,-0.84766 l 0.28711,-1.92773 c 1.52214,0.8112 3.01692,1.21679 4.48438,1.21679 2.22397,0 3.36783,-0.78384 3.43164,-2.35156 0,-0.66537 -0.23698,-1.18945 -0.71094,-1.57226 -0.47396,-0.38282 -1.40364,-0.8112 -2.78906,-1.28516 l -1.13477,-0.39648 c -1.31251,-0.43751 -2.24902,-0.97982 -2.80957,-1.62696 -0.56055,-0.64714 -0.84538,-1.45377 -0.85449,-2.41992 0,-1.17579 0.47167,-2.15104 1.41504,-2.92578 0.94336,-0.77474 2.23534,-1.16211 3.87597,-1.16211 1.69533,0 3.24023,0.32812 4.63477,0.98437 l -0.66992,1.75 c -1.41277,-0.58333 -2.73437,-0.875 -3.96485,-0.875 -0.95703,0 -1.7067,0.18913 -2.24902,0.56739 -0.54232,0.37826 -0.81348,0.90917 -0.81348,1.59277 0,0.58334 0.19597,1.02995 0.58789,1.33984 0.39193,0.3099 1.17578,0.66537 2.35157,1.06641 0.30078,0.10938 0.67903,0.23698 1.13476,0.38281 1.51303,0.49219 2.58399,1.07324 3.21289,1.74317 0.62891,0.66992 0.94336,1.57454 0.94336,2.71386 -0.0182,1.38543 -0.51497,2.45866 -1.49023,3.21973 -0.97527,0.76107 -2.29231,1.1416 -3.95117,1.1416 z"
       id="Snakes"
       inkscape:connector-curvature="0"
       style="fill:#ffffff" />
    <path
       d="m 714.19043,528 v -20.2207 h 2.37891 v 18.11523 h 8.90039 L 725.38769,528 Z m 17.86914,-1.53125 c 1.08464,0 2.03938,-0.2985 2.86426,-0.89551 0.82487,-0.59701 1.35579,-1.40136 1.59277,-2.41308 v -2.5293 c -0.0456,0 -0.32128,0.0228 -0.82715,0.0684 -0.50586,0.0456 -0.83626,0.0729 -0.99121,0.082 -1.97787,0.17318 -3.35644,0.49674 -4.13574,0.9707 -0.7793,0.47396 -1.16895,1.23502 -1.16895,2.28321 0,0.80208 0.23698,1.4082 0.71094,1.81836 0.47396,0.41015 1.12565,0.61523 1.95508,0.61523 z M 737.02246,528 c -0.13672,-0.58334 -0.26888,-1.21224 -0.39648,-1.88672 -0.82943,0.82943 -1.60872,1.40365 -2.33789,1.72266 -0.72917,0.31901 -1.58594,0.47851 -2.57032,0.47851 -1.40365,0 -2.53157,-0.36686 -3.38379,-1.10058 -0.85221,-0.73373 -1.27832,-1.78873 -1.27832,-3.16504 0,-1.53126 0.58105,-2.66601 1.74317,-3.4043 1.16211,-0.73828 2.8369,-1.19857 5.02441,-1.38086 0.30078,-0.0273 0.75423,-0.0661 1.36035,-0.11621 0.60613,-0.0501 1.05957,-0.0889 1.36035,-0.11621 v -1.32617 c 0,-1.0573 -0.24609,-1.84115 -0.73828,-2.35156 -0.49219,-0.51042 -1.26692,-0.76563 -2.32422,-0.76563 -1.47657,0 -2.96678,0.36458 -4.4707,1.09375 -0.0456,-0.10937 -0.16406,-0.4261 -0.35547,-0.9502 -0.1914,-0.52409 -0.29166,-0.79524 -0.30078,-0.81347 0.66537,-0.3737 1.45605,-0.6722 2.37207,-0.89551 0.91602,-0.22331 1.84798,-0.33496 2.7959,-0.33496 1.8685,0 3.21517,0.40787 4.04004,1.22363 0.82487,0.81576 1.2373,2.20344 1.2373,4.16309 V 528 Z m 10.18555,0.31445 c -1.02084,0 -1.96191,-0.10937 -2.82324,-0.32812 -0.86134,-0.21875 -1.56087,-0.5013 -2.09864,-0.84766 l 0.28711,-1.92773 c 1.52214,0.8112 3.01692,1.21679 4.48438,1.21679 2.22397,0 3.36784,-0.78384 3.43164,-2.35156 0,-0.66537 -0.23698,-1.18945 -0.71094,-1.57226 -0.47396,-0.38282 -1.40364,-0.8112 -2.78906,-1.28516 l -1.13477,-0.39648 c -1.3125,-0.43751 -2.24902,-0.97982 -2.80957,-1.62696 -0.56055,-0.64714 -0.84538,-1.45377 -0.85449,-2.41992 0,-1.17579 0.47167,-2.15104 1.41504,-2.92578 0.94336,-0.77474 2.23534,-1.16211 3.87597,-1.16211 1.69533,0 3.24023,0.32812 4.63477,0.98437 l -0.66992,1.75 c -1.41277,-0.58333 -2.73437,-0.875 -3.96485,-0.875 -0.95703,0 -1.7067,0.18913 -2.24902,0.56739 -0.54232,0.37826 -0.81348,0.90917 -0.81348,1.59277 0,0.58334 0.19597,1.02995 0.5879,1.33984 0.39193,0.3099 1.17577,0.66537 2.35156,1.06641 0.30078,0.10938 0.67903,0.23698 1.13476,0.38281 1.51303,0.49219 2.58398,1.07324 3.21289,1.74317 0.62891,0.66992 0.94336,1.57454 0.94336,2.71386 -0.0182,1.38543 -0.51496,2.45866 -1.49023,3.21973 -0.97527,0.76107 -2.29231,1.1416 -3.95117,1.1416 z m 14.45117,-13.74023 c -1.16667,0 -2.11914,0.41243 -2.85742,1.2373 -0.73829,0.82488 -1.17123,1.9528 -1.29883,3.38379 h 7.91601 c 0,-1.48568 -0.33495,-2.62727 -1.00488,-3.4248 -0.66992,-0.79753 -1.58821,-1.19629 -2.75488,-1.19629 z m 0.45117,13.74023 c -2.17839,0 -3.8942,-0.6927 -5.14746,-2.07812 -1.25326,-1.38543 -1.87988,-3.28124 -1.87988,-5.6875 0,-2.32423 0.60611,-4.20865 1.81836,-5.65332 1.21224,-1.44467 2.80728,-2.18067 4.78515,-2.20801 1.85939,0 3.33366,0.63574 4.42285,1.90723 1.0892,1.27149 1.63379,2.96906 1.63379,5.09277 0,0.10938 -0.002,0.30989 -0.007,0.60156 -0.005,0.29167 -0.007,0.5013 -0.007,0.62891 h -10.29492 c 0.0273,1.70443 0.46712,3.03287 1.31934,3.98535 0.85221,0.95248 1.99836,1.42871 3.43847,1.42871 1.58595,0 3.17643,-0.41926 4.77149,-1.25781 l 0.35547,1.8457 c -1.52215,0.92969 -3.25846,1.39453 -5.20899,1.39453 z m 15.53125,-15.44922 c 0.41016,0 0.78385,0.0273 1.12109,0.082 l -0.082,2.10546 c -0.41927,-0.0729 -0.78385,-0.10937 -1.09375,-0.10937 -1.27604,0 -2.31282,0.44433 -3.11035,1.33301 -0.79753,0.88867 -1.19629,1.98925 -1.19629,3.30175 V 528 h -2.2832 c -0.009,-9.20578 -0.0137,-14.20507 -0.0137,-14.99805 h 1.90039 l 0.21875,2.69336 c 0.51953,-0.84766 1.18033,-1.53124 1.98242,-2.05078 0.80209,-0.51953 1.65429,-0.7793 2.55664,-0.7793 z m 7.94336,15.44922 c -1.02084,0 -1.96191,-0.10937 -2.82324,-0.32812 -0.86133,-0.21875 -1.56087,-0.5013 -2.09863,-0.84766 l 0.2871,-1.92773 c 1.52215,0.8112 3.01693,1.21679 4.48438,1.21679 2.22397,0 3.36784,-0.78384 3.43164,-2.35156 0,-0.66537 -0.23698,-1.18945 -0.71094,-1.57226 -0.47396,-0.38282 -1.40364,-0.8112 -2.78906,-1.28516 l -1.13477,-0.39648 c -1.3125,-0.43751 -2.24901,-0.97982 -2.80957,-1.62696 -0.56055,-0.64714 -0.84537,-1.45377 -0.85449,-2.41992 0,-1.17579 0.47168,-2.15104 1.41504,-2.92578 0.94337,-0.77474 2.23534,-1.16211 3.87598,-1.16211 1.69532,0 3.24023,0.32812 4.63476,0.98437 l -0.66992,1.75 c -1.41276,-0.58333 -2.73437,-0.875 -3.96484,-0.875 -0.95704,0 -1.7067,0.18913 -2.24903,0.56739 -0.54232,0.37826 -0.81347,0.90917 -0.81347,1.59277 0,0.58334 0.19596,1.02995 0.58789,1.33984 0.39193,0.3099 1.17577,0.66537 2.35156,1.06641 0.30078,0.10938 0.67904,0.23698 1.13477,0.38281 1.51303,0.49219 2.58398,1.07324 3.21289,1.74317 0.62891,0.66992 0.94336,1.57454 0.94336,2.71386 -0.0182,1.38543 -0.51497,2.45866 -1.49024,3.21973 -0.97526,0.76107 -2.29231,1.1416 -3.95117,1.1416 z"
       id="Lasers"
       inkscape:connector-curvature="0"
       style="fill:#ffffff" />
    <path
       d="m 441.70019,679.66406 c 2.10548,1.03907 4.36132,1.5586 6.76758,1.5586 2.96226,0 4.44336,-1.34895 4.44336,-4.04688 0,-0.875 -0.23469,-1.58366 -0.7041,-2.12598 -0.4694,-0.54232 -1.32389,-0.96842 -2.56348,-1.27832 l -4.01953,-1.01171 c -3.07163,-0.77475 -4.60742,-2.41536 -4.60742,-4.92188 0,-1.92319 0.6608,-3.35188 1.98242,-4.28613 1.32163,-0.93425 3.14908,-1.40137 5.48242,-1.40137 1.22137,0 2.36523,0.13216 3.43165,0.39648 1.06641,0.26433 1.95963,0.61979 2.67968,1.06641 l -0.68359,1.92774 c -0.61068,-0.33725 -1.41959,-0.63802 -2.42676,-0.90235 -1.00717,-0.26432 -2.02571,-0.39648 -3.05566,-0.39648 -3.2995,0 -4.94922,1.14387 -4.94922,3.43164 0,0.77474 0.25293,1.39681 0.75879,1.86621 0.50586,0.4694 1.26464,0.82715 2.27636,1.07324 l 3.8418,0.92969 c 1.64063,0.39193 2.88476,1.01855 3.73242,1.87988 0.84766,0.86133 1.27149,2.08495 1.27149,3.6709 0,2.05991 -0.63118,3.61165 -1.89356,4.65527 -1.26237,1.04363 -2.97818,1.56543 -5.14746,1.56543 -1.6224,0 -3.06477,-0.16634 -4.32715,-0.49902 -1.26237,-0.33268 -2.26269,-0.72689 -3.00097,-1.18262 z m 16.73438,9.84375 v -21.50586 h 2.00977 l 0.21875,2.03711 c 1.3125,-1.56771 2.88931,-2.35156 4.73046,-2.35156 1.3672,0 2.52474,0.34179 3.47266,1.02539 0.94792,0.6836 1.64746,1.60872 2.09863,2.77539 0.45118,1.16667 0.67676,2.52929 0.67676,4.08789 0,1.4948 -0.24609,2.82324 -0.73828,3.98535 -0.49219,1.16212 -1.21451,2.07812 -2.16699,2.74805 -0.95248,0.66993 -2.06673,1.00488 -3.34278,1.00488 -0.96615,0 -1.87304,-0.21647 -2.7207,-0.64941 -0.84766,-0.43295 -1.52669,-1.00488 -2.03711,-1.71582 0.0547,0.98438 0.082,1.9414 0.082,2.87109 v 5.53711 z m 6.64453,-8.12109 c 0.69271,0 1.3125,-0.15723 1.85938,-0.47168 0.54687,-0.31446 0.98893,-0.74511 1.32617,-1.29199 0.33724,-0.54688 0.59245,-1.16894 0.76562,-1.86621 0.17318,-0.69727 0.25977,-1.4515 0.25977,-2.2627 0,-1.71355 -0.36002,-3.11946 -1.08008,-4.21777 -0.72005,-1.09832 -1.77278,-1.64746 -3.1582,-1.64746 -2.89845,0 -4.34766,1.87302 -4.34766,5.61914 0,2.03256 0.33952,3.56379 1.01856,4.59375 0.67904,1.02995 1.79784,1.54492 3.35644,1.54492 z m 12.46875,-13.38477 V 683 h -2.29687 v -14.99805 z m 0,-5.45508 v 2.70704 h -2.29687 v -2.70704 z M 481.86816,683 v -20.82227 l 2.26953,-0.13671 v 12.81054 c 0.0547,-0.0547 0.13672,-0.14583 0.2461,-0.27344 0.10937,-0.1276 0.19596,-0.2233 0.25976,-0.2871 0.79298,-0.86589 2.84374,-2.96223 6.15235,-6.28907 h 2.89844 l -6.23438,6.31641 6.67188,8.68164 h -2.84375 l -5.48243,-7.38281 -1.66797,1.43554 V 683 Z m 20.09766,-13.42578 c -1.16667,0 -2.11914,0.41243 -2.85742,1.2373 -0.73829,0.82488 -1.17122,1.9528 -1.29883,3.38379 h 7.91602 c 0,-1.48568 -0.33496,-2.62727 -1.00489,-3.4248 -0.66992,-0.79753 -1.58821,-1.19629 -2.75488,-1.19629 z m 0.45117,13.74023 c -2.17839,0 -3.8942,-0.6927 -5.14746,-2.07812 -1.25326,-1.38543 -1.87988,-3.28124 -1.87988,-5.6875 0,-2.32423 0.60611,-4.20865 1.81836,-5.65332 1.21224,-1.44467 2.80728,-2.18067 4.78515,-2.20801 1.85939,0 3.33366,0.63574 4.42286,1.90723 1.08919,1.27149 1.63378,2.96906 1.63378,5.09277 0,0.10938 -0.002,0.30989 -0.007,0.60156 -0.005,0.29167 -0.007,0.5013 -0.007,0.62891 h -10.29492 c 0.0273,1.70443 0.46712,3.03287 1.31934,3.98535 0.85221,0.95248 1.99836,1.42871 3.43847,1.42871 1.58595,0 3.17643,-0.41926 4.77149,-1.25781 l 0.35547,1.8457 c -1.52215,0.92969 -3.25846,1.39453 -5.20899,1.39453 z m 13.27539,0 c -1.02084,0 -1.96191,-0.10937 -2.82324,-0.32812 -0.86133,-0.21875 -1.56087,-0.5013 -2.09863,-0.84766 l 0.28711,-1.92773 c 1.52214,0.8112 3.01692,1.21679 4.48437,1.21679 2.22397,0 3.36784,-0.78384 3.43164,-2.35156 0,-0.66537 -0.23697,-1.18945 -0.71094,-1.57226 -0.47396,-0.38282 -1.40363,-0.8112 -2.78906,-1.28516 l -1.13476,-0.39648 c -1.31251,-0.43751 -2.24902,-0.97982 -2.80957,-1.62696 -0.56055,-0.64714 -0.84538,-1.45377 -0.8545,-2.41992 0,-1.17579 0.47168,-2.15104 1.41504,-2.92578 0.94337,-0.77474 2.23535,-1.16211 3.87598,-1.16211 1.69532,0 3.24023,0.32812 4.63477,0.98437 l -0.66993,1.75 c -1.41276,-0.58333 -2.73437,-0.875 -3.96484,-0.875 -0.95704,0 -1.7067,0.18913 -2.24902,0.56739 -0.54232,0.37826 -0.81348,0.90917 -0.81348,1.59277 0,0.58334 0.19596,1.02995 0.58789,1.33984 0.39193,0.3099 1.17578,0.66537 2.35156,1.06641 0.30079,0.10938 0.67904,0.23698 1.13477,0.38281 1.51303,0.49219 2.58398,1.07324 3.21289,1.74317 0.62891,0.66992 0.94336,1.57454 0.94336,2.71386 -0.0182,1.38543 -0.51497,2.45866 -1.49024,3.21973 -0.97526,0.76107 -2.29231,1.1416 -3.95117,1.1416 z"
       id="Spikes"
       inkscape:connector-curvature="0"
       style="fill:#ffffff" />
    <path
       d="m 740.33984,266 v -20.2207 h 2.37891 v 18.11523 h 8.90039 L 751.53711,266 Z m 17.86914,-1.53125 c 1.08465,0 2.03939,-0.2985 2.86426,-0.89551 0.82488,-0.59701 1.35579,-1.40136 1.59278,-2.41308 v -2.5293 c -0.0456,0 -0.32129,0.0228 -0.82715,0.0684 -0.50587,0.0456 -0.83626,0.0729 -0.99121,0.082 -1.97788,0.17318 -3.35645,0.49674 -4.13575,0.9707 -0.7793,0.47396 -1.16894,1.23502 -1.16894,2.28321 0,0.80208 0.23698,1.4082 0.71094,1.81836 0.47396,0.41015 1.12564,0.61523 1.95507,0.61523 z M 763.17187,266 c -0.13671,-0.58334 -0.26887,-1.21224 -0.39648,-1.88672 -0.82943,0.82943 -1.60872,1.40365 -2.33789,1.72266 -0.72917,0.31901 -1.58593,0.47851 -2.57031,0.47851 -1.40366,0 -2.53157,-0.36686 -3.38379,-1.10058 -0.85222,-0.73373 -1.27832,-1.78873 -1.27832,-3.16504 0,-1.53126 0.58105,-2.66601 1.74316,-3.4043 1.16212,-0.73828 2.83691,-1.19857 5.02442,-1.38086 0.30078,-0.0273 0.75423,-0.0661 1.36035,-0.11621 0.60612,-0.0501 1.05957,-0.0889 1.36035,-0.11621 v -1.32617 c 0,-1.0573 -0.24609,-1.84115 -0.73828,-2.35156 -0.49219,-0.51042 -1.26692,-0.76563 -2.32422,-0.76563 -1.47657,0 -2.96679,0.36458 -4.4707,1.09375 -0.0456,-0.10938 -0.16407,-0.4261 -0.35547,-0.9502 -0.19141,-0.52409 -0.29167,-0.79524 -0.30078,-0.81347 0.66536,-0.3737 1.45605,-0.6722 2.37207,-0.89551 0.91602,-0.22331 1.84797,-0.33496 2.79589,-0.33496 1.8685,0 3.21517,0.40787 4.04004,1.22363 0.82488,0.81576 1.23731,2.20344 1.23731,4.16309 V 266 Z m 9.55665,0 -5.81055,-14.99805 h 2.44726 l 3.3086,8.91407 1.36719,3.80078 c 0.30989,-0.97527 0.73827,-2.23307 1.28515,-3.77344 0.69271,-1.94142 1.76822,-4.92186 3.22656,-8.94141 h 2.4336 L 775.2168,266 Z m 14.58789,-1.53125 c 1.08464,0 2.03938,-0.2985 2.86425,-0.89551 0.82488,-0.59701 1.3558,-1.40136 1.59278,-2.41308 v -2.5293 c -0.0456,0 -0.32129,0.0228 -0.82715,0.0684 -0.50586,0.0456 -0.83626,0.0729 -0.99121,0.082 -1.97788,0.17318 -3.35644,0.49674 -4.13574,0.9707 -0.77931,0.47396 -1.16895,1.23502 -1.16895,2.28321 0,0.80208 0.23698,1.4082 0.71094,1.81836 0.47396,0.41015 1.12565,0.61523 1.95508,0.61523 z M 792.2793,266 c -0.13672,-0.58334 -0.26888,-1.21224 -0.39649,-1.88672 -0.82943,0.82943 -1.60872,1.40365 -2.33789,1.72266 -0.72917,0.31901 -1.58593,0.47851 -2.57031,0.47851 -1.40365,0 -2.53157,-0.36686 -3.38379,-1.10058 -0.85222,-0.73373 -1.27832,-1.78873 -1.27832,-3.16504 0,-1.53126 0.58105,-2.66601 1.74316,-3.4043 1.16212,-0.73828 2.83691,-1.19857 5.02442,-1.38086 0.30078,-0.0273 0.75423,-0.0661 1.36035,-0.11621 0.60612,-0.0501 1.05957,-0.0889 1.36035,-0.11621 v -1.32617 c 0,-1.0573 -0.24609,-1.84115 -0.73828,-2.35156 -0.49219,-0.51042 -1.26692,-0.76563 -2.32422,-0.76563 -1.47657,0 -2.96679,0.36458 -4.4707,1.09375 -0.0456,-0.10938 -0.16406,-0.4261 -0.35547,-0.9502 -0.19141,-0.52409 -0.29167,-0.79524 -0.30078,-0.81347 0.66537,-0.3737 1.45605,-0.6722 2.37207,-0.89551 0.91602,-0.22331 1.84797,-0.33496 2.7959,-0.33496 1.8685,0 3.21516,0.40787 4.04004,1.22363 0.82487,0.81576 1.2373,2.20344 1.2373,4.16309 V 266 Z"
       id="Lava"
       inkscape:connector-curvature="0"
       style="fill:#ffffff" />
    <path
       d="m 781.67871,755 h -2.41992 v -20.45313 h 6.58984 c 1.00261,0 1.9095,0.10482 2.72071,0.31446 0.8112,0.20963 1.53124,0.52864 2.16015,0.95703 0.62891,0.42839 1.11654,1.0026 1.46289,1.72266 0.34636,0.72005 0.51953,1.55858 0.51953,2.51562 0,0.79297 -0.0729,1.50162 -0.21875,2.12598 -0.14583,0.62435 -0.39648,1.20995 -0.75195,1.75683 -0.35547,0.54688 -0.82031,1.00033 -1.39453,1.36035 -0.57422,0.36003 -1.31022,0.64258 -2.20801,0.84766 -0.89779,0.20508 -1.93912,0.30762 -3.12402,0.30762 -0.93881,0 -2.05078,-0.0592 -3.33594,-0.17774 z m 3.56836,-10.63672 c 0.89323,0 1.65885,-0.0866 2.29687,-0.25976 0.63803,-0.17318 1.12793,-0.38737 1.46973,-0.64258 0.3418,-0.25521 0.61068,-0.58789 0.80664,-0.99805 0.19597,-0.41016 0.31673,-0.78613 0.36231,-1.12793 0.0456,-0.3418 0.0684,-0.75423 0.0684,-1.2373 0,-1.15756 -0.38965,-2.00977 -1.16895,-2.55664 -0.7793,-0.54688 -1.83886,-0.82032 -3.17871,-0.82032 h -4.22461 v 7.61524 c 1.75912,0.0182 2.94857,0.0273 3.56836,0.0273 z m 12.50977,-4.36133 V 755 h -2.29688 v -14.99805 z m 0,-5.45508 v 2.70704 h -2.29688 v -2.70704 z m 11.01953,5.31836 c 0.41015,0 0.78385,0.0273 1.12109,0.082 l -0.082,2.10546 c -0.41927,-0.0729 -0.78385,-0.10937 -1.09375,-0.10937 -1.27605,0 -2.31282,0.44433 -3.11035,1.33301 -0.79753,0.88867 -1.19629,1.98925 -1.19629,3.30175 V 755 h -2.2832 c -0.009,-9.20578 -0.0137,-14.20507 -0.0137,-14.99805 h 1.90039 l 0.21875,2.69336 c 0.51954,-0.84766 1.18034,-1.53124 1.98243,-2.05078 0.80208,-0.51953 1.65429,-0.7793 2.55664,-0.7793 z m 7.80664,13.60352 c 1.08464,0 2.03938,-0.2985 2.86426,-0.89551 0.82487,-0.59701 1.35579,-1.40136 1.59277,-2.41308 v -2.5293 c -0.0456,0 -0.32129,0.0228 -0.82715,0.0684 -0.50586,0.0456 -0.83626,0.0729 -0.99121,0.082 -1.97788,0.17318 -3.35644,0.49674 -4.13574,0.9707 -0.7793,0.47396 -1.16895,1.23502 -1.16895,2.28321 0,0.80208 0.23698,1.4082 0.71094,1.81836 0.47396,0.41015 1.12565,0.61523 1.95508,0.61523 z M 821.5459,755 c -0.13672,-0.58334 -0.26888,-1.21224 -0.39649,-1.88672 -0.82943,0.82943 -1.60872,1.40365 -2.33789,1.72266 -0.72917,0.31901 -1.58593,0.47851 -2.57031,0.47851 -1.40365,0 -2.53157,-0.36686 -3.38379,-1.10058 -0.85222,-0.73373 -1.27832,-1.78873 -1.27832,-3.16504 0,-1.53126 0.58105,-2.66601 1.74317,-3.4043 1.16211,-0.73828 2.8369,-1.19857 5.02441,-1.38086 0.30078,-0.0273 0.75423,-0.0661 1.36035,-0.11621 0.60612,-0.0501 1.05957,-0.0889 1.36035,-0.11621 v -1.32617 c 0,-1.0573 -0.24609,-1.84115 -0.73828,-2.35156 -0.49219,-0.51042 -1.26692,-0.76563 -2.32422,-0.76563 -1.47657,0 -2.96679,0.36458 -4.4707,1.09375 -0.0456,-0.10937 -0.16406,-0.4261 -0.35547,-0.9502 -0.19141,-0.52409 -0.29167,-0.79524 -0.30078,-0.81347 0.66537,-0.3737 1.45605,-0.6722 2.37207,-0.89551 0.91602,-0.22331 1.84798,-0.33496 2.7959,-0.33496 1.8685,0 3.21516,0.40787 4.04004,1.22363 0.82487,0.81576 1.2373,2.20344 1.2373,4.16309 V 755 Z m 5.71484,0 v -14.99805 h 1.91406 l 0.28711,2.14649 c 0.59245,-0.73829 1.33301,-1.33301 2.22168,-1.78418 0.88868,-0.45118 1.84798,-0.67676 2.87793,-0.67676 1.73178,0 3.01237,0.48535 3.8418,1.45605 0.82943,0.97071 1.24414,2.46321 1.24414,4.47754 V 755 h -2.2832 c 0,-6.01566 -0.005,-9.23763 -0.0137,-9.66602 -0.0365,-1.27604 -0.29395,-2.21028 -0.77247,-2.80273 -0.47851,-0.59245 -1.27831,-0.88867 -2.39941,-0.88867 -1.17579,0 -2.15559,0.28255 -2.93945,0.84765 -0.78386,0.56511 -1.29427,1.29883 -1.53125,2.20118 -0.0911,0.61068 -0.13672,1.31249 -0.13672,2.10546 V 755 Z m 26.29102,0 v -9.06445 c 0,-1.50392 -0.23926,-2.59766 -0.71778,-3.28125 -0.47851,-0.6836 -1.31477,-1.02539 -2.50879,-1.02539 -1.14844,0 -2.11685,0.2871 -2.90527,0.86132 -0.78841,0.57423 -1.3011,1.31706 -1.53808,2.22852 -0.082,0.6836 -0.12305,1.44466 -0.12305,2.2832 V 755 h -2.2832 v -20.82227 l 2.2832,-0.13671 v 6.09765 c 0,0.51954 -0.0182,1.16211 -0.0547,1.92774 1.28516,-1.58595 2.98957,-2.37891 5.11328,-2.37891 3.34507,0 5.01758,1.96417 5.01758,5.89258 V 755 Z m 9.43359,-1.53125 c 1.08464,0 2.03938,-0.2985 2.86426,-0.89551 0.82487,-0.59701 1.35579,-1.40136 1.59277,-2.41308 v -2.5293 c -0.0456,0 -0.32128,0.0228 -0.82715,0.0684 -0.50586,0.0456 -0.83626,0.0729 -0.99121,0.082 -1.97787,0.17318 -3.35644,0.49674 -4.13574,0.9707 -0.7793,0.47396 -1.16894,1.23502 -1.16894,2.28321 0,0.80208 0.23697,1.4082 0.71093,1.81836 0.47396,0.41015 1.12565,0.61523 1.95508,0.61523 z M 867.94824,755 c -0.13672,-0.58334 -0.26888,-1.21224 -0.39648,-1.88672 -0.82943,0.82943 -1.60872,1.40365 -2.33789,1.72266 -0.72917,0.31901 -1.58594,0.47851 -2.57032,0.47851 -1.40365,0 -2.53157,-0.36686 -3.38378,-1.10058 -0.85222,-0.73373 -1.27833,-1.78873 -1.27833,-3.16504 0,-1.53126 0.58105,-2.66601 1.74317,-3.4043 1.16211,-0.73828 2.8369,-1.19857 5.02441,-1.38086 0.30079,-0.0273 0.75423,-0.0661 1.36035,-0.11621 0.60613,-0.0501 1.05957,-0.0889 1.36036,-0.11621 v -1.32617 c 0,-1.0573 -0.2461,-1.84115 -0.73829,-2.35156 -0.49219,-0.51042 -1.26692,-0.76563 -2.32421,-0.76563 -1.47657,0 -2.96679,0.36458 -4.47071,1.09375 -0.0456,-0.10937 -0.16406,-0.4261 -0.35547,-0.9502 -0.1914,-0.52409 -0.29166,-0.79524 -0.30078,-0.81347 0.66537,-0.3737 1.45605,-0.6722 2.37207,-0.89551 0.91602,-0.22331 1.84798,-0.33496 2.7959,-0.33496 1.8685,0 3.21517,0.40787 4.04004,1.22363 0.82488,0.81576 1.23731,2.20344 1.23731,4.16309 V 755 Z m 10.18555,0.31445 c -1.02084,0 -1.96191,-0.10937 -2.82324,-0.32812 -0.86134,-0.21875 -1.56087,-0.5013 -2.09864,-0.84766 l 0.28711,-1.92773 c 1.52215,0.8112 3.01692,1.21679 4.48438,1.21679 2.22397,0 3.36784,-0.78384 3.43164,-2.35156 0,-0.66537 -0.23698,-1.18945 -0.71094,-1.57226 -0.47396,-0.38282 -1.40364,-0.8112 -2.78906,-1.28516 l -1.13477,-0.39648 c -1.3125,-0.43751 -2.24902,-0.97982 -2.80957,-1.62696 -0.56055,-0.64714 -0.84537,-1.45377 -0.85449,-2.41992 0,-1.17579 0.47168,-2.15104 1.41504,-2.92578 0.94336,-0.77474 2.23534,-1.16211 3.87598,-1.16211 1.69532,0 3.24022,0.32812 4.63476,0.98437 l -0.66992,1.75 c -1.41277,-0.58333 -2.73437,-0.875 -3.96484,-0.875 -0.95704,0 -1.70671,0.18913 -2.24903,0.56739 -0.54232,0.37826 -0.81347,0.90917 -0.81347,1.59277 0,0.58334 0.19596,1.02995 0.58789,1.33984 0.39193,0.3099 1.17577,0.66537 2.35156,1.06641 0.30078,0.10938 0.67903,0.23698 1.13476,0.38281 1.51303,0.49219 2.58399,1.07324 3.2129,1.74317 0.62891,0.66992 0.94335,1.57454 0.94335,2.71386 -0.0182,1.38543 -0.51496,2.45866 -1.49023,3.21973 -0.97526,0.76107 -2.29231,1.1416 -3.95117,1.1416 z"
       id="Piranhas"
       inkscape:connector-curvature="0"
       style="fill:#ffffff" />
    <path
       d="m 380.5,515 c -36.72694,0 -66.5,-29.77306 -66.5,-66.5 0,-36.72694 29.77306,-66.5 66.5,-66.5 36.72694,0 66.5,29.77306 66.5,66.5 0,36.72694 -29.77306,66.5 -66.5,66.5 z m 0,-4 c 34.5178,0 62.5,-27.9822 62.5,-62.5 0,-34.5178 -27.9822,-62.5 -62.5,-62.5 -34.5178,0 -62.5,27.9822 -62.5,62.5 0,34.5178 27.9822,62.5 62.5,62.5 z"
       id="Oval-2"
       inkscape:connector-curvature="0"
       style="fill:#ffffff;fill-rule:nonzero" />
    <path
       d="m 751.5,584 c -36.72694,0 -66.5,-29.77306 -66.5,-66.5 0,-36.72694 29.77306,-66.5 66.5,-66.5 36.72694,0 66.5,29.77306 66.5,66.5 0,36.72694 -29.77306,66.5 -66.5,66.5 z m 0,-4 c 34.5178,0 62.5,-27.9822 62.5,-62.5 0,-34.5178 -27.9822,-62.5 -62.5,-62.5 -34.5178,0 -62.5,27.9822 -62.5,62.5 0,34.5178 27.9822,62.5 62.5,62.5 z"
       id="Oval-2-Copy"
       inkscape:connector-curvature="0"
       style="fill:#ffffff;fill-rule:nonzero" />
    <polygon
       id="Line"
       points="761.17379,336.84015 765.15985,337.17379 755.32621,454.65985 751.34015,454.32621 "
       style="fill:#ffffff;fill-rule:nonzero" />
    <path
       d="m 480.5,739 c -36.72694,0 -66.5,-29.77306 -66.5,-66.5 0,-36.72694 29.77306,-66.5 66.5,-66.5 36.72694,0 66.5,29.77306 66.5,66.5 0,36.72694 -29.77306,66.5 -66.5,66.5 z m 0,-4 c 34.5178,0 62.5,-27.9822 62.5,-62.5 0,-34.5178 -27.9822,-62.5 -62.5,-62.5 -34.5178,0 -62.5,27.9822 -62.5,62.5 0,34.5178 27.9822,62.5 62.5,62.5 z"
       id="Oval-2-Copy-2"
       inkscape:connector-curvature="0"
       style="fill:#ffffff;fill-rule:nonzero" />
    <path
       d="m 766.5,322 c -36.72694,0 -66.5,-29.77306 -66.5,-66.5 0,-36.72694 29.77306,-66.5 66.5,-66.5 36.72694,0 66.5,29.77306 66.5,66.5 0,36.72694 -29.77306,66.5 -66.5,66.5 z m 0,-4 c 34.5178,0 62.5,-27.9822 62.5,-62.5 0,-34.5178 -27.9822,-62.5 -62.5,-62.5 -34.5178,0 -62.5,27.9822 -62.5,62.5 0,34.5178 27.9822,62.5 62.5,62.5 z"
       id="Oval-2-Copy-3"
       inkscape:connector-curvature="0"
       style="fill:#ffffff;fill-rule:nonzero" />
    <path
       d="m 830.5,811 c -36.72694,0 -66.5,-29.77306 -66.5,-66.5 0,-36.72694 29.77306,-66.5 66.5,-66.5 36.72694,0 66.5,29.77306 66.5,66.5 0,36.72694 -29.77306,66.5 -66.5,66.5 z m 0,-4 c 34.5178,0 62.5,-27.9822 62.5,-62.5 0,-34.5178 -27.9822,-62.5 -62.5,-62.5 -34.5178,0 -62.5,27.9822 -62.5,62.5 0,34.5178 27.9822,62.5 62.5,62.5 z"
       id="Oval-2-Copy-4"
       inkscape:connector-curvature="0"
       style="fill:#ffffff;fill-rule:nonzero" />
    <polygon
       id="Line-4"
       points="702.84284,270.30007 704.69993,273.84284 453.15716,405.69993 451.30007,402.15716 "
       style="fill:#ffffff;fill-rule:nonzero" />
    <polygon
       id="Line-2"
       points="675.70639,553.2612 677.7388,556.70639 535.29361,640.7388 533.2612,637.29361 "
       style="fill:#ffffff;fill-rule:nonzero" />
    <polygon
       id="Line-5"
       points="444.72974,595.74063 441.25937,597.72974 392.27026,512.25937 395.74063,510.27026 "
       style="fill:#ffffff;fill-rule:nonzero" />
    <polygon
       id="Line-3"
       points="802.60088,666.11149 798.88851,667.60088 763.89912,580.38851 767.61149,578.89912 "
       style="fill:#ffffff;fill-rule:nonzero" />
    <polygon
       id="Triangle"
       transform="rotate(-120,461.20303,397.9547)"
       points="443.28048,409.93019 440.42708,407.12696 461.20303,385.97922 481.97898,407.12696 479.12558,409.93019 461.20303,391.68691 "
       style="fill:#ffffff;fill-rule:nonzero" />
    <polygon
       id="Triangle-Copy"
       transform="rotate(150,438.68082,588.47692)"
       points="420.75827,600.4524 417.90487,597.64917 438.68082,576.50143 459.45677,597.64917 456.60337,600.4524 438.68082,582.20912 "
       style="fill:#ffffff;fill-rule:nonzero" />
    <polygon
       id="Triangle-Copy-3"
       transform="rotate(61,668.99374,557.97141)"
       points="651.07119,569.94689 648.21779,567.14366 668.99374,545.99592 689.76969,567.14366 686.9163,569.94689 668.99374,551.70362 "
       style="fill:#ffffff;fill-rule:nonzero" />
    <g
       id="Group"
       transform="rotate(-144,485.60394,302.73833)"
       style="fill:#ffffff;fill-rule:nonzero">
      <polygon
         id="Line-2-Copy"
         points="-0.96441122,110.65893 -2.6589304,107.03559 187.85823,17.936901 189.55275,21.560243 " />
      <polygon
         id="Triangle-Copy-5"
         transform="rotate(61,181.48173,21.88901)"
         points="163.55918,33.864496 160.70578,31.061262 181.48173,9.9135243 202.25768,31.061262 199.40428,33.864496 181.48173,15.621218 " />
    </g>
    <polygon
       id="Triangle-Copy-4"
       transform="rotate(6,762.27262,345.09024)"
       points="744.35007,357.06573 741.49667,354.26249 762.27262,333.11475 783.04858,354.26249 780.19518,357.06573 762.27262,338.82245 "
       style="fill:#ffffff;fill-rule:nonzero" />
    <polygon
       id="Triangle-Copy-2"
       transform="rotate(158,796.68082,656.47692)"
       points="778.75827,668.4524 775.90487,665.64917 796.68082,644.50143 817.45677,665.64917 814.60337,668.4524 796.68082,650.20912 "
       style="fill:#ffffff;fill-rule:nonzero" />
  </g>
</svg>
