<?xml version="1.0" encoding="UTF-8" standalone="no"?>
<svg
   xmlns:dc="http://purl.org/dc/elements/1.1/"
   xmlns:cc="http://creativecommons.org/ns#"
   xmlns:rdf="http://www.w3.org/1999/02/22-rdf-syntax-ns#"
   xmlns:svg="http://www.w3.org/2000/svg"
   xmlns="http://www.w3.org/2000/svg"
   xmlns:sodipodi="http://sodipodi.sourceforge.net/DTD/sodipodi-0.dtd"
   xmlns:inkscape="http://www.inkscape.org/namespaces/inkscape"
   width="1214px"
   height="941px"
   viewBox="0 0 1214 941"
   version="1.1"
   id="svg27"
   sodipodi:docname="disconnected_graph.svg"
   inkscape:version="0.92.3 (2405546, 2018-03-11)">
  <metadata
     id="metadata31">
    <rdf:RDF>
      <cc:Work
         rdf:about="">
        <dc:format>image/svg+xml</dc:format>
        <dc:type
           rdf:resource="http://purl.org/dc/dcmitype/StillImage" />
        <dc:title>disconnected graph</dc:title>
      </cc:Work>
    </rdf:RDF>
  </metadata>
  <sodipodi:namedview
     pagecolor="#ffffff"
     bordercolor="#666666"
     borderopacity="1"
     objecttolerance="10"
     gridtolerance="10"
     guidetolerance="10"
     inkscape:pageopacity="0"
     inkscape:pageshadow="2"
     inkscape:window-width="1280"
     inkscape:window-height="657"
     id="namedview29"
     showgrid="false"
     inkscape:zoom="0.23640857"
     inkscape:cx="80.369338"
     inkscape:cy="470.5"
     inkscape:window-x="-8"
     inkscape:window-y="-8"
     inkscape:window-maximized="1"
     inkscape:current-layer="svg27" />
  <!-- Generator: Sketch 50 (54983) - http://www.bohemiancoding.com/sketch -->
  <title
     id="title2">disconnected graph</title>
  <desc
     id="desc4">Created with Sketch.</desc>
  <defs
     id="defs6" />
  <rect
     style="opacity:1;fill:#262656;fill-opacity:1;fill-rule:nonzero;stroke:#03f3f4;stroke-width:0.75590551;stroke-linecap:round;stroke-linejoin:miter;stroke-miterlimit:4;stroke-dasharray:none;stroke-dashoffset:0;stroke-opacity:1;paint-order:stroke fill markers"
     id="rect838"
     width="1226.6899"
     height="960.20209"
     x="-12.689896"
     y="-19.202089"
     rx="13.8545" />
  <g
     id="disconnected-graph"
     style="fill:none;fill-rule:evenodd;stroke:none;stroke-width:1"
     transform="matrix(1.1881657,0,0,1.2043562,-129.02148,-92.188559)">
    <path
       d="m 460.95312,119.60938 h 3.03125 c 2.6146,0 4.60416,-0.68489 5.96875,-2.05469 1.3646,-1.3698 2.04688,-3.36718 2.04688,-5.99219 0,-2.81251 -0.70312,-4.85676 -2.10938,-6.13281 -1.40625,-1.27605 -3.52602,-1.91406 -6.35937,-1.91406 h -2.57813 z M 456.71875,123 v -22.89062 h 6.625 c 2.00001,0 3.79166,0.22916 5.375,0.6875 1.58334,0.45833 2.94531,1.14843 4.08594,2.07031 1.14063,0.92188 2.01562,2.10937 2.625,3.5625 0.60938,1.45313 0.91406,3.1328 0.91406,5.03906 0,3.69794 -1.11457,6.54426 -3.34375,8.53906 -2.22918,1.9948 -5.31769,2.99219 -9.26563,2.99219 z m 23.34375,0 v -17.17187 h 4.09375 V 123 Z m 0,-19.67187 v -3.500005 h 4.10937 v 3.500005 z m 13.84375,19.98437 c -2.53126,0 -4.55728,-0.43229 -6.07813,-1.29687 L 488.25,118.9375 c 0.6875,0.375 1.5625,0.71094 2.625,1.00781 1.0625,0.29688 2.03125,0.44532 2.90625,0.44532 0.90625,0 1.61198,-0.16927 2.11719,-0.50782 0.50521,-0.33854 0.76302,-0.83593 0.77343,-1.49218 0,-0.59376 -0.23697,-1.0625 -0.71093,-1.40625 -0.47396,-0.34376 -1.3776,-0.77084 -2.71094,-1.28125 -0.45834,-0.16667 -0.75521,-0.27605 -0.89063,-0.32813 -1.58334,-0.61459 -2.72395,-1.29947 -3.42187,-2.05469 -0.69792,-0.75521 -1.04688,-1.77864 -1.04688,-3.07031 0,-1.56251 0.5651,-2.76041 1.69532,-3.59375 1.13021,-0.83334 2.70572,-1.25 4.72656,-1.25 2.18751,0 4.10937,0.41145 5.76562,1.23438 l -1.01562,2.82812 c -1.63543,-0.76042 -3.1927,-1.14062 -4.67188,-1.14062 -0.82292,0 -1.46614,0.13801 -1.92968,0.41406 -0.46355,0.27604 -0.69532,0.69531 -0.69532,1.25781 0,0.53125 0.22396,0.94531 0.67188,1.24219 0.44792,0.29687 1.32291,0.68489 2.625,1.16406 0.0417,0.0104 0.17708,0.0573 0.40625,0.14063 0.22917,0.0833 0.40625,0.15104 0.53125,0.20312 1.57292,0.57292 2.72916,1.25781 3.46875,2.05469 0.73959,0.79688 1.10937,1.83593 1.10937,3.11719 -0.0104,1.71875 -0.59374,3.04687 -1.75,3.98437 -1.15625,0.93751 -2.79686,1.40625 -4.92187,1.40625 z m 17.42187,0.0156 c -2.62501,0 -4.66926,-0.78125 -6.13281,-2.34375 C 503.73176,119.42187 503,117.18752 503,114.28125 c 0,-2.81251 0.76822,-4.99478 2.30469,-6.54687 1.53646,-1.5521 3.55988,-2.32813 6.07031,-2.32813 2.01043,0 3.70833,0.43229 5.09375,1.29688 L 515.5,109.625 c -1.41667,-0.73959 -2.73437,-1.10937 -3.95313,-1.10937 -1.38542,0 -2.47655,0.49478 -3.27343,1.48437 -0.79688,0.98959 -1.19532,2.43228 -1.19532,4.32813 0,1.91667 0.39323,3.37499 1.17969,4.375 0.78647,1 1.89843,1.5 3.33594,1.5 1.50001,0 2.9427,-0.44271 4.32812,-1.32813 l 0.39063,3.10938 c -0.71875,0.47916 -1.46354,0.82291 -2.23438,1.03125 -0.77083,0.20833 -1.68749,0.3125 -2.75,0.3125 z m 15.71875,-3.10938 c 1.38543,0 2.42709,-0.5052 3.125,-1.51562 0.69792,-1.01043 1.04688,-2.45833 1.04688,-4.34375 0,-1.90627 -0.34896,-3.35937 -1.04688,-4.35938 -0.69791,-1 -1.74999,-1.5 -3.15625,-1.5 -1.38542,0 -2.42968,0.5026 -3.13281,1.50781 -0.70313,1.00522 -1.05469,2.46093 -1.05469,4.36719 0,1.87501 0.35417,3.3177 1.0625,4.32813 0.70834,1.01042 1.76041,1.51562 3.15625,1.51562 z m -0.10937,3.10938 c -2.54168,0 -4.54166,-0.82291 -6,-2.46875 -1.45834,-1.64585 -2.1875,-3.81249 -2.1875,-6.5 0,-2.77085 0.72916,-4.95573 2.1875,-6.55469 1.45834,-1.59897 3.51561,-2.39844 6.17187,-2.39844 2.56252,0 4.57031,0.8151 6.02344,2.44531 1.45314,1.63022 2.17969,3.79947 2.17969,6.50782 0,2.73959 -0.73437,4.91926 -2.20313,6.53906 -1.46875,1.6198 -3.52602,2.42969 -6.17187,2.42969 z M 538.65625,123 v -17.17187 h 3.29687 L 542.40625,108 c 1.75001,-1.72917 3.6927,-2.59375 5.82812,-2.59375 2.00001,0 3.4974,0.57551 4.49219,1.72656 0.9948,1.15105 1.49219,2.8203 1.49219,5.00782 V 123 h -4.10938 v -10.35937 c -0.0104,-1.38543 -0.23437,-2.42188 -0.67187,-3.10938 C 549,108.84375 548.21355,108.5 547.07812,108.5 c -0.88542,0 -1.6953,0.22656 -2.42968,0.67969 -0.73438,0.45312 -1.26823,1.02343 -1.60157,1.71094 -0.19791,0.8125 -0.29687,2.06249 -0.29687,3.75 V 123 Z m 19.59375,0 v -17.17187 h 3.29687 L 562,108 c 1.75001,-1.72917 3.6927,-2.59375 5.82812,-2.59375 2.00001,0 3.4974,0.57551 4.49219,1.72656 0.9948,1.15105 1.49219,2.8203 1.49219,5.00782 V 123 h -4.10938 v -10.35937 c -0.0104,-1.38543 -0.23437,-2.42188 -0.67187,-3.10938 -0.4375,-0.6875 -1.22395,-1.03125 -2.35938,-1.03125 -0.88542,0 -1.6953,0.22656 -2.42968,0.67969 -0.73438,0.45312 -1.26823,1.02343 -1.60157,1.71094 -0.19791,0.8125 -0.29687,2.06249 -0.29687,3.75 V 123 Z m 27.53125,0.32813 c -2.76043,0 -4.90885,-0.79427 -6.44531,-2.38282 -1.53647,-1.58855 -2.30469,-3.78384 -2.30469,-6.58593 0,-2.72918 0.72395,-4.90104 2.17187,-6.51563 1.44793,-1.61459 3.42187,-2.42708 5.92188,-2.4375 2.36459,0 4.20051,0.73958 5.50781,2.21875 1.3073,1.47917 1.96094,3.4427 1.96094,5.89063 0,0.17708 -0.003,0.46353 -0.008,0.85937 -0.005,0.39584 -0.008,0.6875 -0.008,0.875 h -11.42187 c 0.0417,1.60417 0.48177,2.84635 1.32031,3.72656 0.83855,0.88022 1.99218,1.32032 3.46094,1.32032 1.87501,0 3.67707,-0.48958 5.40625,-1.46875 l 0.57812,2.90625 c -1.71875,1.0625 -3.76561,1.59375 -6.14062,1.59375 z m -4.54688,-10.65625 h 7.5 c 0,-1.39585 -0.3177,-2.46875 -0.95312,-3.21875 -0.63542,-0.75001 -1.51562,-1.125 -2.64063,-1.125 -1.05208,0 -1.9401,0.36458 -2.66406,1.09375 -0.72396,0.72916 -1.13802,1.81249 -1.24219,3.25 z m 22.20313,10.65625 c -2.62501,0 -4.66926,-0.78125 -6.13281,-2.34375 -1.46355,-1.56251 -2.19532,-3.79686 -2.19532,-6.70313 0,-2.81251 0.76823,-4.99478 2.30469,-6.54687 1.53647,-1.5521 3.55989,-2.32813 6.07031,-2.32813 2.01043,0 3.70833,0.43229 5.09375,1.29688 l -0.96875,2.92187 c -1.41667,-0.73959 -2.73436,-1.10937 -3.95312,-1.10937 -1.38542,0 -2.47656,0.49478 -3.27344,1.48437 -0.79688,0.98959 -1.19531,2.43228 -1.19531,4.32813 0,1.91667 0.39323,3.37499 1.17969,4.375 0.78646,1 1.89843,1.5 3.33593,1.5 1.50001,0 2.94271,-0.44271 4.32813,-1.32813 l 0.39062,3.10938 c -0.71875,0.47916 -1.46353,0.82291 -2.23437,1.03125 -0.77084,0.20833 -1.6875,0.3125 -2.75,0.3125 z m 15.09375,-0.0937 c -1.16667,0 -2.13802,-0.13802 -2.91406,-0.41407 -0.77605,-0.27604 -1.38281,-0.71093 -1.82032,-1.30468 -0.4375,-0.59376 -0.74739,-1.29427 -0.92968,-2.10157 -0.1823,-0.80729 -0.27344,-1.80468 -0.27344,-2.99218 v -8.10938 h -2.8125 l 0.15625,-2.21875 2.9375,-0.26562 1.3125,-4.65625 2.5,-0.0156 v 4.67188 h 4.26562 v 2.48437 H 616.6875 V 116.5 c 0,1.30209 0.1875,2.22916 0.5625,2.78125 0.375,0.55209 1.0677,0.82813 2.07812,0.82813 0.59376,0 1.22917,-0.0521 1.90625,-0.15625 l 0.10938,2.9375 c -0.0208,0 -0.14844,0.0234 -0.38281,0.0703 -0.23438,0.0469 -0.45833,0.0885 -0.67188,0.125 -0.21354,0.0365 -0.48697,0.0703 -0.82031,0.10156 -0.33334,0.0312 -0.64583,0.0469 -0.9375,0.0469 z m 13.625,0.0937 c -2.76043,0 -4.90885,-0.79427 -6.44531,-2.38282 -1.53647,-1.58855 -2.30469,-3.78384 -2.30469,-6.58593 0,-2.72918 0.72395,-4.90104 2.17187,-6.51563 1.44793,-1.61459 3.42187,-2.42708 5.92188,-2.4375 2.36459,0 4.20051,0.73958 5.50781,2.21875 1.3073,1.47917 1.96094,3.4427 1.96094,5.89063 0,0.17708 -0.003,0.46353 -0.008,0.85937 -0.005,0.39584 -0.008,0.6875 -0.008,0.875 h -11.42187 c 0.0417,1.60417 0.48177,2.84635 1.32031,3.72656 0.83855,0.88022 1.99218,1.32032 3.46094,1.32032 1.87501,0 3.67707,-0.48958 5.40625,-1.46875 l 0.57812,2.90625 c -1.71875,1.0625 -3.76561,1.59375 -6.14062,1.59375 z m -4.54688,-10.65625 h 7.5 c 0,-1.39585 -0.3177,-2.46875 -0.95312,-3.21875 -0.63542,-0.75001 -1.51562,-1.125 -2.64063,-1.125 -1.05208,0 -1.9401,0.36458 -2.66406,1.09375 -0.72396,0.72916 -1.13802,1.81249 -1.24219,3.25 z m 21.07813,10.65625 c -2.2396,0 -3.99999,-0.82291 -5.28125,-2.46875 -1.28126,-1.64585 -1.92188,-3.84374 -1.92188,-6.59375 0,-2.66668 0.63802,-4.80989 1.91407,-6.42969 1.27605,-1.6198 3.03384,-2.42969 5.27343,-2.42969 2.43752,0 4.16146,0.86458 5.17188,2.59375 -0.10417,-1.02084 -0.15625,-2.0052 -0.15625,-2.95312 V 99.5 l 4.09375,-0.265625 V 123 h -3.54688 l -0.45312,-2.34375 c -0.17708,0.28125 -0.34114,0.52344 -0.49219,0.72656 -0.15104,0.20313 -0.37239,0.4375 -0.66406,0.70313 -0.29167,0.26562 -0.60677,0.47916 -0.94531,0.64062 -0.33855,0.16146 -0.76562,0.30208 -1.28125,0.42188 -0.51563,0.11979 -1.08594,0.17969 -1.71094,0.17969 z m 0.96875,-3.10938 c 2.75001,0 4.14583,-1.86977 4.1875,-5.60937 0,-2.1146 -0.35416,-3.65625 -1.0625,-4.625 -0.70834,-0.96876 -1.76562,-1.45313 -3.17188,-1.45313 -1.22917,0 -2.21093,0.49218 -2.94531,1.47656 -0.73438,0.98438 -1.10156,2.43489 -1.10156,4.35157 0,1.90626 0.36718,3.35937 1.10156,4.35937 0.73438,1.00001 1.73177,1.5 2.99219,1.5 z m 31.375,3.10938 c -3.4896,0 -6.21614,-1.05208 -8.17969,-3.15625 -1.96355,-2.10418 -2.94531,-4.98436 -2.94531,-8.64063 0,-2.32293 0.45833,-4.36718 1.375,-6.13281 0.91667,-1.76564 2.26562,-3.14323 4.04687,-4.13281 1.78126,-0.98959 3.88541,-1.48438 6.3125,-1.48438 2.78127,0 5.16666,0.59895 7.15625,1.79688 l -1.375,3.15625 c -1.89584,-1.02084 -3.79686,-1.53125 -5.70312,-1.53125 -2.31251,0 -4.1302,0.74999 -5.45313,2.25 -1.32292,1.5 -1.98437,3.54165 -1.98437,6.125 0,2.56251 0.58854,4.58853 1.76562,6.07812 1.17709,1.48959 2.90103,2.23438 5.17188,2.23438 1.45834,0 2.78124,-0.22917 3.96875,-0.6875 v -5.3125 h -4.79688 l 0.0312,-3.32813 h 8.75 v 11.04688 c -1.41667,0.58333 -2.7578,1.01562 -4.02343,1.29687 -1.26563,0.28125 -2.63802,0.42188 -4.11719,0.42188 z M 693.34375,123 v -17.17187 h 3.4375 l 0.53125,2.625 c 1.12501,-1.8021 2.7552,-2.70313 4.89062,-2.70313 0.44792,0 0.8125,0.0208 1.09375,0.0625 l -0.0625,3.42188 c -0.41666,-0.0625 -0.84895,-0.0937 -1.29687,-0.0937 -1.51042,0 -2.63802,0.40103 -3.38281,1.20312 -0.7448,0.80209 -1.11719,1.91666 -1.11719,3.34375 V 123 Z m 16.98437,0.32813 c -1.59375,0 -2.8828,-0.4401 -3.86718,-1.32032 -0.98438,-0.88021 -1.47657,-2.14843 -1.47657,-3.80468 0,-1.78126 0.58333,-3.10156 1.75,-3.96094 1.16668,-0.85938 2.92708,-1.40365 5.28125,-1.63281 0.32292,-0.0417 0.67188,-0.0833 1.04688,-0.125 0.375,-0.0417 0.79687,-0.0833 1.26562,-0.125 0.46876,-0.0417 0.83854,-0.0781 1.10938,-0.10938 v -0.90625 c 0,-1.04167 -0.23958,-1.79948 -0.71875,-2.27344 -0.47917,-0.47396 -1.20833,-0.71093 -2.1875,-0.71093 -1.39584,0 -3.11978,0.39062 -5.17188,1.17187 -0.0104,-0.0312 -0.18228,-0.5052 -0.51562,-1.42187 -0.33334,-0.91668 -0.50521,-1.38542 -0.51563,-1.40625 2.02085,-0.86459 4.20833,-1.29688 6.5625,-1.29688 2.31252,0 3.99479,0.5026 5.04688,1.50781 1.05209,1.00522 1.57812,2.6328 1.57812,4.88282 V 123 h -3.03125 c -0.0104,-0.0417 -0.12499,-0.39062 -0.34375,-1.04687 -0.21875,-0.65626 -0.32812,-1.00521 -0.32812,-1.04688 -0.85417,0.83334 -1.6901,1.44531 -2.50781,1.83594 -0.81771,0.39062 -1.80989,0.58594 -2.97657,0.58594 z m 1.10938,-2.90625 c 0.94792,0 1.77343,-0.22657 2.47656,-0.67969 0.70313,-0.45313 1.20573,-1.0026 1.50781,-1.64844 v -3.3125 c -0.0312,0 -0.30468,0.0208 -0.82031,0.0625 -0.51563,0.0417 -0.79427,0.0625 -0.83594,0.0625 -1.65625,0.14583 -2.86978,0.45833 -3.64062,0.9375 -0.77084,0.47917 -1.15625,1.25 -1.15625,2.3125 0,0.72917 0.21354,1.28906 0.64062,1.67969 0.42709,0.39062 1.03646,0.58594 1.82813,0.58594 z m 12.20312,9.71874 v -24.31249 h 3.51563 l 0.4375,2.40625 c 0.5625,-0.90626 1.30989,-1.60677 2.24219,-2.10157 0.93229,-0.49479 1.97135,-0.74218 3.11718,-0.74218 1.40626,0 2.64323,0.39062 3.71094,1.17187 1.06772,0.78125 1.8776,1.84635 2.42969,3.19531 0.55209,1.34897 0.82812,2.87239 0.82812,4.57032 0,2.65626 -0.64322,4.8203 -1.92968,6.49218 -1.28647,1.67189 -3.02864,2.50782 -5.22657,2.50782 -1.08333,0 -2.0651,-0.21615 -2.94531,-0.64844 -0.88021,-0.4323 -1.61718,-1.01823 -2.21094,-1.75781 0.0833,1.5 0.125,2.34374 0.125,2.53125 v 6.48437 z m 8.25,-9.93749 c 1.21876,0 2.17969,-0.51042 2.88282,-1.53125 0.70313,-1.02084 1.05468,-2.47916 1.05468,-4.375 0,-1.9271 -0.35416,-3.375 -1.0625,-4.34375 -0.70833,-0.96876 -1.6927,-1.45313 -2.95312,-1.45313 -2.70835,0 -4.07813,1.84373 -4.10938,5.53125 0,2.12501 0.35156,3.68489 1.05469,4.67969 0.70313,0.99479 1.74739,1.49219 3.13281,1.49219 z M 743.26562,123 V 99.5 l 4.09375,-0.265625 v 4.953125 c 0,0.23959 -0.0156,0.90364 -0.0469,1.99219 -0.0312,1.08855 -0.0469,1.64323 -0.0469,1.66406 1.3646,-1.62501 3.19791,-2.4375 5.5,-2.4375 1.91668,0 3.40365,0.54947 4.46094,1.64844 1.0573,1.09896 1.58594,2.78905 1.58594,5.07031 V 123 h -4.09375 v -10.42187 c 0,-1.40626 -0.22396,-2.4375 -0.67188,-3.09375 -0.44791,-0.65626 -1.20832,-0.98438 -2.28125,-0.98438 -0.91667,0 -1.72916,0.23177 -2.4375,0.69531 -0.70833,0.46355 -1.23958,1.0599 -1.59375,1.78907 -0.25,0.95833 -0.375,2.20832 -0.375,3.75 V 123 Z"
       id="Disconnected-Graph"
       inkscape:connector-curvature="0"
       style="fill:#ffffff" />
    <path
       d="m 376.23437,524 h -2.71875 v -20.71875 h -7.10937 v -2.39063 h 16.9375 v 2.39063 h -7.10938 z m 16.20313,-15.34375 c -1.33334,0 -2.42187,0.47135 -3.26563,1.41406 -0.84375,0.94272 -1.33854,2.23176 -1.48437,3.86719 h 9.04687 c 0,-1.69793 -0.3828,-3.0026 -1.14843,-3.91406 -0.76563,-0.91147 -1.8151,-1.36719 -3.14844,-1.36719 z m 0.51562,15.70312 c -2.48959,0 -4.45051,-0.79165 -5.88281,-2.375 -1.4323,-1.58334 -2.14844,-3.74998 -2.14844,-6.5 0,-2.65626 0.69271,-4.80988 2.07813,-6.46093 1.38542,-1.65105 3.20832,-2.49219 5.46875,-2.52344 2.12501,0 3.80989,0.72656 5.05469,2.17969 1.24479,1.45313 1.86718,3.39321 1.86718,5.82031 0,0.125 -0.003,0.35416 -0.008,0.6875 -0.005,0.33334 -0.008,0.57292 -0.008,0.71875 h -11.76563 c 0.0312,1.94793 0.53385,3.46614 1.50782,4.55469 0.97396,1.08854 2.28384,1.63281 3.92968,1.63281 1.81251,0 3.6302,-0.47916 5.45313,-1.4375 l 0.40625,2.10937 c -1.73959,1.06251 -3.72395,1.59375 -5.95313,1.59375 z m 16.75,-2.25 c 1.71876,0 2.9974,-0.55207 3.83594,-1.65625 0.83855,-1.10417 1.25781,-2.68228 1.25781,-4.73437 0,-2.31251 -0.40364,-4.05468 -1.21093,-5.22656 -0.8073,-1.17188 -2.11197,-1.75782 -3.91407,-1.75782 -0.80208,0 -1.51041,0.17188 -2.125,0.51563 -0.61458,0.34375 -1.10937,0.82291 -1.48437,1.4375 -0.375,0.61459 -0.65885,1.32031 -0.85156,2.11719 -0.19271,0.79688 -0.28907,1.66926 -0.28907,2.61718 0,1.33335 0.16407,2.48958 0.49219,3.46875 0.32813,0.97918 0.85677,1.76042 1.58594,2.34375 0.72917,0.58334 1.6302,0.875 2.70312,0.875 z m 5.14063,-0.59375 c -0.5625,0.86459 -1.3125,1.55209 -2.25,2.0625 -0.9375,0.51042 -1.98437,0.76563 -3.14063,0.76563 -2.26042,0 -4.03124,-0.80468 -5.3125,-2.41406 -1.28125,-1.60939 -1.92187,-3.79947 -1.92187,-6.57032 0,-2.64584 0.65103,-4.78384 1.95312,-6.41406 1.3021,-1.63021 3.04687,-2.44531 5.23438,-2.44531 1.13542,0 2.20572,0.24739 3.21094,0.74219 1.00521,0.49479 1.75781,1.15885 2.25781,1.99218 L 414.8281,507.75 v -7.54688 l 2.57813,-0.15625 V 524 h -2.21875 z"
       id="Ted"
       inkscape:connector-curvature="0"
       style="fill:#ffffff" />
    <path
       d="m 568.33594,524 h -2.76563 v -23.375 h 7.53125 c 1.14584,0 2.18229,0.11979 3.10938,0.35937 0.92708,0.23959 1.74999,0.60417 2.46875,1.09375 0.71875,0.48959 1.27604,1.14583 1.67187,1.96875 0.39584,0.82293 0.59375,1.78125 0.59375,2.875 0,0.90626 -0.0833,1.71615 -0.25,2.42969 -0.16667,0.71355 -0.45312,1.38281 -0.85937,2.00781 -0.40626,0.62501 -0.9375,1.14323 -1.59375,1.55469 -0.65626,0.41146 -1.49739,0.73438 -2.52344,0.96875 -1.02605,0.23438 -2.21614,0.35156 -3.57031,0.35156 -1.07293,0 -2.34374,-0.0677 -3.8125,-0.20312 z m 4.07812,-12.15625 c 1.02084,0 1.89583,-0.099 2.625,-0.29688 0.72917,-0.19791 1.28906,-0.4427 1.67969,-0.73437 0.39063,-0.29167 0.69792,-0.67187 0.92187,-1.14063 0.22396,-0.46875 0.36198,-0.89843 0.41407,-1.28906 0.0521,-0.39062 0.0781,-0.86197 0.0781,-1.41406 0,-1.32292 -0.44531,-2.29687 -1.33594,-2.92188 -0.89062,-0.625 -2.10155,-0.9375 -3.63281,-0.9375 h -4.82812 v 8.70313 c 2.01042,0.0208 3.36979,0.0312 4.07812,0.0312 z M 588.58594,522.25 c 1.23959,0 2.33072,-0.34114 3.27343,-1.02344 0.94272,-0.68229 1.54948,-1.60155 1.82032,-2.75781 v -2.89063 c -0.0521,0 -0.36719,0.026 -0.94532,0.0781 -0.57812,0.0521 -0.95572,0.0833 -1.13281,0.0937 -2.26043,0.19792 -3.83593,0.56771 -4.72656,1.10937 -0.89063,0.54167 -1.33594,1.41146 -1.33594,2.60938 0,0.91667 0.27083,1.60937 0.8125,2.07812 0.54167,0.46876 1.28646,0.70313 2.23438,0.70313 z m 5.67187,1.75 c -0.15625,-0.66667 -0.30729,-1.38541 -0.45312,-2.15625 -0.94792,0.94792 -1.83854,1.60416 -2.67188,1.96875 -0.83333,0.36459 -1.81249,0.54687 -2.9375,0.54687 -1.60417,0 -2.89322,-0.41926 -3.86719,-1.25781 -0.97396,-0.83854 -1.46093,-2.04426 -1.46093,-3.61719 0,-1.75 0.66405,-3.04687 1.99218,-3.89062 1.32814,-0.84375 3.24218,-1.36979 5.74219,-1.57813 0.34375,-0.0312 0.86198,-0.0755 1.55469,-0.13281 0.69271,-0.0573 1.21094,-0.10156 1.55469,-0.13281 v -1.51563 c 0,-1.20833 -0.28125,-2.10416 -0.84375,-2.6875 -0.56251,-0.58333 -1.44791,-0.875 -2.65625,-0.875 -1.68751,0 -3.39062,0.41667 -5.10938,1.25 -0.0521,-0.125 -0.1875,-0.48697 -0.40625,-1.08593 -0.21875,-0.59896 -0.33333,-0.90886 -0.34375,-0.92969 0.76042,-0.42708 1.66406,-0.76823 2.71094,-1.02344 1.04688,-0.25521 2.11197,-0.38281 3.19531,-0.38281 2.13543,0 3.67448,0.46614 4.61719,1.39844 0.94271,0.93229 1.41406,2.51821 1.41406,4.75781 V 524 Z m 12,0.3125 c -1.68751,0 -2.88541,-0.41145 -3.59375,-1.23438 -0.70833,-0.82292 -1.08333,-2.15103 -1.125,-3.98437 v -10.29688 h -2.54687 l 0.10937,-1.71875 2.42188,-0.21875 0.89062,-3.92187 1.71875,-0.0625 v 3.98437 h 4.76563 v 1.9375 h -4.76563 v 9.82813 c 0,1.30209 0.19792,2.21875 0.59375,2.75 0.39584,0.53125 1.07291,0.79687 2.03125,0.79687 0.34375,0 1.08854,-0.0833 2.23438,-0.25 l 0.10937,2.0625 c -1.23959,0.21876 -2.18749,0.32813 -2.84375,0.32813 z m 11.09375,0 c -1.68751,0 -2.88541,-0.41145 -3.59375,-1.23438 -0.70833,-0.82292 -1.08333,-2.15103 -1.125,-3.98437 v -10.29688 h -2.54687 l 0.10937,-1.71875 2.42188,-0.21875 0.89062,-3.92187 1.71875,-0.0625 v 3.98437 h 4.76563 v 1.9375 h -4.76563 v 9.82813 c 0,1.30209 0.19792,2.21875 0.59375,2.75 0.39584,0.53125 1.07291,0.79687 2.03125,0.79687 0.34375,0 1.08854,-0.0833 2.23438,-0.25 l 0.10937,2.0625 c -1.23959,0.21876 -2.18749,0.32813 -2.84375,0.32813 z m 3.4375,-17.45313 h 2.76563 l 5.40625,14.26563 4.8125,-14.26563 h 2.76562 c -4.62502,12.72924 -7.01562,19.29167 -7.17187,19.6875 -0.71876,1.8021 -1.58854,3.1224 -2.60938,3.96094 -1.02084,0.83855 -2.36457,1.25781 -4.03125,1.25781 -0.5,0 -1.02604,-0.0417 -1.57812,-0.125 l -0.15625,-2.21875 c 0.58333,0.0417 1.02083,0.0625 1.3125,0.0625 1.17709,0 2.07031,-0.21614 2.67968,-0.64843 0.60938,-0.4323 1.15365,-1.24218 1.63282,-2.42969 0.42708,-1.09375 0.74479,-1.9375 0.95312,-2.53125 z"
       id="Patty"
       inkscape:connector-curvature="0"
       style="fill:#ffffff" />
    <path
       d="m 375.10937,735.40625 c -2.19792,-6.38545 -3.41145,-9.97395 -3.64062,-10.76563 l -3.79688,10.76563 z M 378.6875,745 l -2.70313,-7.32813 h -9.21875 L 363.96875,745 h -2.75 l 8.875,-23.15625 h 2.76562 L 381.46875,745 Z m 9.67187,0.3125 c -1.66667,0 -2.84635,-0.44791 -3.53906,-1.34375 -0.69271,-0.89584 -1.03906,-2.45311 -1.03906,-4.67188 v -18.09375 l 2.59375,-0.15625 v 17.21875 c 0,0.70834 0.008,1.27604 0.0234,1.70313 0.0156,0.42709 0.0547,0.84635 0.11718,1.25781 0.0625,0.41146 0.14584,0.72136 0.25,0.92969 0.10417,0.20833 0.25521,0.39844 0.45313,0.57031 0.19792,0.17188 0.43489,0.28646 0.71094,0.34375 0.27604,0.0573 0.61718,0.0859 1.02343,0.0859 0.33334,0 0.98958,-0.0625 1.96875,-0.1875 l 0.14063,2.07812 c -1.07292,0.17709 -1.97396,0.26563 -2.70313,0.26563 z m 7.35938,-17.45313 V 745 h -2.625 v -17.14063 z m 0,-6.23437 v 3.09375 h -2.625 V 721.625 Z m 12.15625,23.73437 c -2.52085,0 -4.49218,-0.81769 -5.91406,-2.45312 -1.42188,-1.63543 -2.13282,-3.77603 -2.13282,-6.42188 0.0104,-2.66668 0.73698,-4.83072 2.17969,-6.49218 1.44272,-1.66147 3.41926,-2.49219 5.92969,-2.49219 0.88542,0 1.74218,0.10937 2.57031,0.32812 0.82813,0.21876 1.48177,0.50521 1.96094,0.85938 l -0.71875,2.03125 c -1.21876,-0.65625 -2.5052,-0.98438 -3.85938,-0.98438 -1.65625,0 -2.96614,0.60417 -3.92968,1.8125 -0.96355,1.20834 -1.44532,2.85937 -1.44532,4.95313 0,2.04168 0.47656,3.65885 1.42969,4.85156 0.95313,1.19272 2.27343,1.78906 3.96094,1.78906 1.34376,0 2.71874,-0.36458 4.125,-1.09375 l 0.32812,2.07813 c -1.13542,0.82292 -2.63019,1.23437 -4.48437,1.23437 z m 14.60937,-15.70312 c -1.33334,0 -2.42187,0.47135 -3.26562,1.41406 -0.84375,0.94272 -1.33854,2.23176 -1.48438,3.86719 h 9.04688 c 0,-1.69793 -0.38281,-3.0026 -1.14844,-3.91406 -0.76563,-0.91146 -1.81509,-1.36719 -3.14844,-1.36719 z M 423,745.35937 c -2.4896,0 -4.45051,-0.79165 -5.88281,-2.375 -1.4323,-1.58334 -2.14844,-3.74998 -2.14844,-6.5 0,-2.65626 0.6927,-4.80988 2.07812,-6.46093 1.38543,-1.65105 3.20833,-2.49219 5.46875,-2.52344 2.12502,0 3.80989,0.72655 5.05469,2.17969 1.2448,1.45313 1.86719,3.39321 1.86719,5.82031 0,0.125 -0.003,0.35416 -0.008,0.6875 -0.005,0.33334 -0.008,0.57292 -0.008,0.71875 h -11.76562 c 0.0312,1.94793 0.53385,3.46614 1.50781,4.55469 0.97397,1.08854 2.28385,1.63281 3.92969,1.63281 1.81251,0 3.6302,-0.47916 5.45312,-1.4375 l 0.40625,2.10937 c -1.73959,1.06251 -3.72394,1.59375 -5.95312,1.59375 z"
       id="Alice"
       inkscape:connector-curvature="0"
       style="fill:#ffffff" />
    <path
       d="m 536.96875,275.04687 v 7.8125 c 0.42709,0 1.30989,0.0104 2.64844,0.0312 1.33855,0.0208 2.37239,0.0312 3.10156,0.0312 1.98959,0 3.375,-0.33072 4.15625,-0.99218 0.78125,-0.66146 1.17187,-1.71093 1.17187,-3.14844 0,-1.26042 -0.37499,-2.19791 -1.125,-2.8125 -0.75,-0.61459 -2.00519,-0.92188 -3.76562,-0.92188 z M 551.78125,296 h -3.125 l -3.1875,-7.25 c -0.86459,-1.94793 -1.41666,-3.11979 -1.65625,-3.51563 -0.76042,0.0521 -1.66145,0.0781 -2.70313,0.0781 l -4.14062,-0.125 V 296 h -2.76563 v -23.375 h 7.39063 c 0.85417,0 1.60937,0.0208 2.26562,0.0625 0.65626,0.0417 1.3099,0.11719 1.96094,0.22656 0.65105,0.10938 1.21615,0.26042 1.69531,0.45313 0.47917,0.19271 0.92709,0.4427 1.34375,0.75 0.41667,0.30729 0.75261,0.67448 1.00782,1.10156 0.25521,0.42708 0.45573,0.93489 0.60156,1.52344 0.14583,0.58854 0.21875,1.2526 0.21875,1.99218 0,1.45835 -0.38281,2.71354 -1.14844,3.76563 -0.76563,1.05209 -1.85155,1.78125 -3.25781,2.1875 0,0.0208 0.10417,0.20833 0.3125,0.5625 0.20833,0.35417 0.45573,0.78906 0.74219,1.30469 0.28646,0.51562 0.50781,0.94531 0.66406,1.28906 z m 5.1875,-8.53125 c 0,2.03126 0.45052,3.65885 1.35156,4.88281 0.90105,1.22397 2.21614,1.83594 3.94531,1.83594 1.70835,0 2.9974,-0.60937 3.86719,-1.82813 0.8698,-1.21875 1.30469,-2.85936 1.30469,-4.92187 0,-2.09376 -0.42968,-3.74218 -1.28906,-4.94531 -0.85938,-1.20313 -2.16926,-1.80469 -3.92969,-1.80469 -1.70834,0 -3.01041,0.61458 -3.90625,1.84375 -0.89584,1.22917 -1.34375,2.87499 -1.34375,4.9375 z m 13.17187,-0.0469 c 0,2.65627 -0.70832,4.80989 -2.125,6.46094 -1.41667,1.65105 -3.37498,2.47656 -5.875,2.47656 -2.40626,0 -4.3203,-0.83332 -5.74218,-2.5 -1.42189,-1.66667 -2.13282,-3.80727 -2.13282,-6.42187 0,-2.66668 0.71354,-4.82291 2.14063,-6.46875 1.42709,-1.64584 3.3854,-2.46875 5.875,-2.46875 2.44793,0 4.36978,0.82551 5.76562,2.47656 1.39585,1.65105 2.09375,3.79947 2.09375,6.44531 z M 573.82812,296 v -17.14063 h 2.1875 l 0.32813,2.45313 c 0.67709,-0.84375 1.52343,-1.52344 2.53906,-2.03906 1.01563,-0.51563 2.11198,-0.77344 3.28906,-0.77344 1.97918,0 3.44271,0.55468 4.39063,1.66406 0.94792,1.10938 1.42187,2.81509 1.42187,5.11719 V 296 H 585.375 c 0,-6.87503 -0.005,-10.55729 -0.0156,-11.04688 -0.0417,-1.45834 -0.33593,-2.52603 -0.88281,-3.20312 -0.54688,-0.67709 -1.46093,-1.01563 -2.74219,-1.01563 -1.34375,0 -2.46353,0.32292 -3.35937,0.96875 -0.89584,0.64584 -1.47916,1.48438 -1.75,2.51563 -0.10417,0.69792 -0.15625,1.5 -0.15625,2.40625 V 296 Z"
       id="Ron"
       inkscape:connector-curvature="0"
       style="fill:#ffffff" />
    <path
       d="m 584.24219,741.1875 c 2.40626,1.18751 4.98436,1.78125 7.73437,1.78125 3.38544,0 5.07813,-1.54165 5.07813,-4.625 0,-1 -0.26823,-1.80989 -0.80469,-2.42969 -0.53646,-0.61979 -1.51301,-1.10677 -2.92969,-1.46094 l -4.59375,-1.15625 c -3.51043,-0.88542 -5.26562,-2.7604 -5.26562,-5.625 0,-2.19792 0.7552,-3.83072 2.26562,-4.89843 1.51043,-1.06772 3.59895,-1.60157 6.26563,-1.60157 1.39584,0 2.70312,0.15104 3.92187,0.45313 1.21876,0.30209 2.23958,0.70833 3.0625,1.21875 l -0.78125,2.20312 c -0.69792,-0.38541 -1.62239,-0.72916 -2.77344,-1.03125 -1.15104,-0.30208 -2.31509,-0.45312 -3.49218,-0.45312 -3.77086,0 -5.65625,1.30728 -5.65625,3.92187 0,0.88543 0.28906,1.59636 0.86718,2.13282 0.57813,0.53646 1.44531,0.94531 2.60157,1.22656 l 4.39062,1.0625 c 1.87501,0.44792 3.29687,1.16406 4.26563,2.14844 0.96875,0.98438 1.45312,2.3828 1.45312,4.19531 0,2.35418 -0.72134,4.1276 -2.16406,5.32031 -1.44272,1.19272 -3.40363,1.78906 -5.88281,1.78906 -1.85418,0 -3.5026,-0.1901 -4.94532,-0.57031 -1.44271,-0.38021 -2.58593,-0.83072 -3.42968,-1.35156 z m 24.07812,2.0625 c 1.23959,0 2.33073,-0.34114 3.27344,-1.02344 0.94271,-0.68229 1.54948,-1.60155 1.82031,-2.75781 v -2.89063 c -0.0521,0 -0.36718,0.026 -0.94531,0.0781 -0.57813,0.0521 -0.95573,0.0833 -1.13281,0.0937 -2.26043,0.19792 -3.83594,0.56771 -4.72657,1.10937 -0.89062,0.54167 -1.33593,1.41146 -1.33593,2.60938 0,0.91667 0.27083,1.60937 0.8125,2.07812 0.54167,0.46876 1.28645,0.70313 2.23437,0.70313 z m 5.67188,1.75 c -0.15625,-0.66667 -0.30729,-1.38541 -0.45313,-2.15625 -0.94792,0.94792 -1.83854,1.60416 -2.67187,1.96875 -0.83334,0.36459 -1.8125,0.54687 -2.9375,0.54687 -1.60418,0 -2.89323,-0.41926 -3.86719,-1.25781 -0.97396,-0.83854 -1.46094,-2.04426 -1.46094,-3.61719 0,-1.75 0.66406,-3.04687 1.99219,-3.89062 1.32813,-0.84375 3.24217,-1.36979 5.74219,-1.57813 0.34375,-0.0312 0.86197,-0.0755 1.55468,-0.13281 0.69272,-0.0573 1.21094,-0.10156 1.55469,-0.13281 v -1.51563 c 0,-1.20833 -0.28124,-2.10416 -0.84375,-2.6875 -0.5625,-0.58333 -1.44791,-0.875 -2.65625,-0.875 -1.68751,0 -3.39061,0.41667 -5.10937,1.25 -0.0521,-0.125 -0.1875,-0.48697 -0.40625,-1.08593 -0.21875,-0.59896 -0.33334,-0.90886 -0.34375,-0.92969 0.76042,-0.42709 1.66406,-0.76823 2.71093,-1.02344 1.04688,-0.25521 2.11198,-0.38281 3.19532,-0.38281 2.13542,0 3.67447,0.46614 4.61718,1.39844 0.94272,0.93229 1.41407,2.51821 1.41407,4.75781 V 745 Z m 11.14062,0.3125 c -1.66667,0 -2.84635,-0.44791 -3.53906,-1.34375 -0.69271,-0.89584 -1.03906,-2.45311 -1.03906,-4.67188 v -18.09375 l 2.59375,-0.15625 v 17.21875 c 0,0.70834 0.008,1.27604 0.0234,1.70313 0.0156,0.42709 0.0547,0.84635 0.11719,1.25781 0.0625,0.41146 0.14583,0.72136 0.25,0.92969 0.10417,0.20833 0.25521,0.39844 0.45313,0.57031 0.19792,0.17188 0.43489,0.28646 0.71093,0.34375 0.27605,0.0573 0.61719,0.0859 1.02344,0.0859 0.33334,0 0.98958,-0.0625 1.96875,-0.1875 l 0.14063,2.07812 c -1.07293,0.17709 -1.97396,0.26563 -2.70313,0.26563 z m 8.89063,0 c -1.66668,0 -2.84635,-0.44791 -3.53907,-1.34375 -0.69271,-0.89584 -1.03906,-2.45311 -1.03906,-4.67188 v -18.09375 l 2.59375,-0.15625 v 17.21875 c 0,0.70834 0.008,1.27604 0.0234,1.70313 0.0156,0.42709 0.0547,0.84635 0.11719,1.25781 0.0625,0.41146 0.14583,0.72136 0.25,0.92969 0.10417,0.20833 0.2552,0.39844 0.45312,0.57031 0.19792,0.17188 0.4349,0.28646 0.71094,0.34375 0.27604,0.0573 0.61718,0.0859 1.02344,0.0859 0.33333,0 0.98958,-0.0625 1.96875,-0.1875 l 0.14062,2.07812 c -1.07292,0.17709 -1.97395,0.26563 -2.70312,0.26563 z m 2.09375,-17.45313 h 2.76562 l 5.40625,14.26563 4.8125,-14.26563 h 2.76563 c -4.62503,12.72924 -7.01563,19.29167 -7.17188,19.6875 -0.71875,1.8021 -1.58853,3.1224 -2.60937,3.96094 -1.02084,0.83855 -2.36458,1.25781 -4.03125,1.25781 -0.50001,0 -1.02604,-0.0417 -1.57813,-0.125 l -0.15625,-2.21875 c 0.58334,0.0417 1.02083,0.0625 1.3125,0.0625 1.17709,0 2.07031,-0.21614 2.67969,-0.64843 0.60938,-0.4323 1.15364,-1.24218 1.63281,-2.42969 0.42709,-1.09375 0.74479,-1.9375 0.95313,-2.53125 z"
       id="Sally"
       inkscape:connector-curvature="0"
       style="fill:#ffffff" />
    <path
       d="m 814.94531,747.34375 c -1.76042,0 -3.34114,-0.29427 -4.74219,-0.88281 -1.40104,-0.58855 -2.55728,-1.41146 -3.46875,-2.46875 -0.91146,-1.0573 -1.60937,-2.30989 -2.09375,-3.75782 -0.48437,-1.44792 -0.72656,-3.03644 -0.72656,-4.76562 0,-2.33335 0.44271,-4.39582 1.32813,-6.1875 0.88542,-1.79168 2.20311,-3.20312 3.95312,-4.23438 1.75001,-1.03125 3.82291,-1.54687 6.21875,-1.54687 2.65627,0 4.98958,0.60416 7,1.8125 l -1.03125,2.23437 c -1.93751,-1.11458 -3.91665,-1.67187 -5.9375,-1.67187 -1.40626,0 -2.66405,0.24218 -3.77344,0.72656 -1.10938,0.48438 -2.01562,1.15625 -2.71875,2.01563 -0.70312,0.85938 -1.23958,1.86978 -1.60937,3.03125 -0.36979,1.16146 -0.55469,2.43489 -0.55469,3.82031 0,2.93751 0.73177,5.2578 2.19531,6.96094 1.46355,1.70313 3.62239,2.55468 6.47657,2.55468 1.62501,0 3.27603,-0.32812 4.95312,-0.98437 v -6.59375 h -5.45312 l 0.0937,-2.35938 h 7.89062 v 10.5625 c -1.3125,0.62501 -2.58072,1.07032 -3.80469,1.33594 -1.22396,0.26563 -2.62238,0.39844 -4.19531,0.39844 z m 15.34375,-17.48438 V 747 h -2.625 v -17.14063 z m 0,-6.23437 v 3.09375 h -2.625 V 723.625 Z m 9.51563,23.6875 c -1.66668,0 -2.84635,-0.44791 -3.53907,-1.34375 -0.69271,-0.89584 -1.03906,-2.45311 -1.03906,-4.67188 v -18.09375 l 2.59375,-0.15625 v 17.21875 c 0,0.70834 0.008,1.27604 0.0234,1.70313 0.0156,0.42709 0.0547,0.84635 0.11719,1.25781 0.0625,0.41146 0.14583,0.72136 0.25,0.92969 0.10417,0.20833 0.2552,0.39844 0.45312,0.57031 0.19792,0.17188 0.4349,0.28646 0.71094,0.34375 0.27604,0.0573 0.61718,0.0859 1.02344,0.0859 0.33333,0 0.98958,-0.0625 1.96875,-0.1875 l 0.14062,2.07812 c -1.07292,0.17709 -1.97395,0.26563 -2.70312,0.26563 z"
       id="Gil"
       inkscape:connector-curvature="0"
       style="fill:#ffffff" />
    <path
       d="m 392.5,580 c -36.72694,0 -66.5,-29.77306 -66.5,-66.5 0,-36.72694 29.77306,-66.5 66.5,-66.5 36.72694,0 66.5,29.77306 66.5,66.5 0,36.72694 -29.77306,66.5 -66.5,66.5 z m 0,-4 c 34.5178,0 62.5,-27.9822 62.5,-62.5 0,-34.5178 -27.9822,-62.5 -62.5,-62.5 -34.5178,0 -62.5,27.9822 -62.5,62.5 0,34.5178 27.9822,62.5 62.5,62.5 z"
       id="Oval-2"
       inkscape:connector-curvature="0"
       style="fill:#ffffff;fill-rule:nonzero" />
    <path
       d="m 599.5,580 c -36.72694,0 -66.5,-29.77306 -66.5,-66.5 0,-36.72694 29.77306,-66.5 66.5,-66.5 36.72694,0 66.5,29.77306 66.5,66.5 0,36.72694 -29.77306,66.5 -66.5,66.5 z m 0,-4 c 34.5178,0 62.5,-27.9822 62.5,-62.5 0,-34.5178 -27.9822,-62.5 -62.5,-62.5 -34.5178,0 -62.5,27.9822 -62.5,62.5 0,34.5178 27.9822,62.5 62.5,62.5 z"
       id="Oval-2-Copy"
       inkscape:connector-curvature="0"
       style="fill:#ffffff;fill-rule:nonzero" />
    <path
       d="m 395.5,801 c -36.72694,0 -66.5,-29.77306 -66.5,-66.5 0,-36.72694 29.77306,-66.5 66.5,-66.5 36.72694,0 66.5,29.77306 66.5,66.5 0,36.72694 -29.77306,66.5 -66.5,66.5 z m 0,-4 c 34.5178,0 62.5,-27.9822 62.5,-62.5 0,-34.5178 -27.9822,-62.5 -62.5,-62.5 -34.5178,0 -62.5,27.9822 -62.5,62.5 0,34.5178 27.9822,62.5 62.5,62.5 z"
       id="Oval-2-Copy-2"
       inkscape:connector-curvature="0"
       style="fill:#ffffff;fill-rule:nonzero" />
    <path
       d="m 560.5,352 c -36.72694,0 -66.5,-29.77306 -66.5,-66.5 0,-36.72694 29.77306,-66.5 66.5,-66.5 36.72694,0 66.5,29.77306 66.5,66.5 0,36.72694 -29.77306,66.5 -66.5,66.5 z m 0,-4 c 34.5178,0 62.5,-27.9822 62.5,-62.5 0,-34.5178 -27.9822,-62.5 -62.5,-62.5 -34.5178,0 -62.5,27.9822 -62.5,62.5 0,34.5178 27.9822,62.5 62.5,62.5 z"
       id="Oval-2-Copy-3"
       inkscape:connector-curvature="0"
       style="fill:#ffffff;fill-rule:nonzero" />
    <path
       d="m 616.5,801 c -36.72694,0 -66.5,-29.77306 -66.5,-66.5 0,-36.72694 29.77306,-66.5 66.5,-66.5 36.72694,0 66.5,29.77306 66.5,66.5 0,36.72694 -29.77306,66.5 -66.5,66.5 z m 0,-4 c 34.5178,0 62.5,-27.9822 62.5,-62.5 0,-34.5178 -27.9822,-62.5 -62.5,-62.5 -34.5178,0 -62.5,27.9822 -62.5,62.5 0,34.5178 27.9822,62.5 62.5,62.5 z"
       id="Oval-2-Copy-4"
       inkscape:connector-curvature="0"
       style="fill:#ffffff;fill-rule:nonzero" />
    <path
       d="m 821.5,803 c -36.72694,0 -66.5,-29.77306 -66.5,-66.5 0,-36.72694 29.77306,-66.5 66.5,-66.5 36.72694,0 66.5,29.77306 66.5,66.5 0,36.72694 -29.77306,66.5 -66.5,66.5 z m 0,-4 c 34.5178,0 62.5,-27.9822 62.5,-62.5 0,-34.5178 -27.9822,-62.5 -62.5,-62.5 -34.5178,0 -62.5,27.9822 -62.5,62.5 0,34.5178 27.9822,62.5 62.5,62.5 z"
       id="Oval-2-Copy-5"
       inkscape:connector-curvature="0"
       style="fill:#ffffff;fill-rule:nonzero" />
    <polygon
       id="Line-4"
       points="432.77121,465.3154 429.6846,462.77121 530.72879,340.1846 533.81539,342.72879 "
       style="fill:#ffffff;fill-rule:nonzero" />
    <polygon
       id="Line"
       points="570.09929,349.00448 573.99552,348.09929 597.90071,450.99552 594.00448,451.90071 "
       style="fill:#ffffff;fill-rule:nonzero" />
    <polygon
       id="Line-2"
       points="455.5,518.5 455.5,514.5 535.5,514.5 535.5,518.5 "
       style="fill:#ffffff;fill-rule:nonzero" />
    <polygon
       id="Line-5"
       points="382.28058,576.74666 386.25334,576.28058 397.21942,669.75334 393.24666,670.21942 "
       style="fill:#ffffff;fill-rule:nonzero" />
    <polygon
       id="Line-6"
       points="680.9135,739 680.9135,735 759.00349,735 759.00349,739 "
       style="fill:#ffffff;fill-rule:nonzero" />
  </g>
</svg>
