<?xml version="1.0" encoding="UTF-8" standalone="no"?>
<svg
   xmlns:dc="http://purl.org/dc/elements/1.1/"
   xmlns:cc="http://creativecommons.org/ns#"
   xmlns:rdf="http://www.w3.org/1999/02/22-rdf-syntax-ns#"
   xmlns:svg="http://www.w3.org/2000/svg"
   xmlns="http://www.w3.org/2000/svg"
   xmlns:sodipodi="http://sodipodi.sourceforge.net/DTD/sodipodi-0.dtd"
   xmlns:inkscape="http://www.inkscape.org/namespaces/inkscape"
   width="1214px"
   height="1545px"
   viewBox="0 0 1214 1545"
   version="1.1"
   id="svg51"
   sodipodi:docname="route_map.svg"
   inkscape:version="0.92.3 (2405546, 2018-03-11)">
  <metadata
     id="metadata55">
    <rdf:RDF>
      <cc:Work
         rdf:about="">
        <dc:format>image/svg+xml</dc:format>
        <dc:type
           rdf:resource="http://purl.org/dc/dcmitype/StillImage" />
        <dc:title>route map</dc:title>
      </cc:Work>
    </rdf:RDF>
  </metadata>
  <sodipodi:namedview
     pagecolor="#ffffff"
     bordercolor="#666666"
     borderopacity="1"
     objecttolerance="10"
     gridtolerance="10"
     guidetolerance="10"
     inkscape:pageopacity="0"
     inkscape:pageshadow="2"
     inkscape:window-width="1280"
     inkscape:window-height="657"
     id="namedview53"
     showgrid="false"
     inkscape:zoom="0.15275081"
     inkscape:cx="-208.05297"
     inkscape:cy="772.5"
     inkscape:window-x="-8"
     inkscape:window-y="-8"
     inkscape:window-maximized="1"
     inkscape:current-layer="svg51" />
  <!-- Generator: Sketch 50 (54983) - http://www.bohemiancoding.com/sketch -->
  <title
     id="title2">route map</title>
  <desc
     id="desc4">Created with Sketch.</desc>
  <defs
     id="defs6" />
  <rect
     style="opacity:1;fill:#262656;fill-opacity:1;fill-rule:nonzero;stroke:#03f3f4;stroke-width:0.75590551;stroke-linecap:round;stroke-linejoin:miter;stroke-miterlimit:4;stroke-dasharray:none;stroke-dashoffset:0;stroke-opacity:1;paint-order:stroke fill markers"
     id="rect862"
     width="1243.856"
     height="1584.2797"
     x="-13.09322"
     y="-6.5466104"
     rx="13.8545" />
  <g
     id="route-map"
     style="fill:none;fill-rule:evenodd;stroke:none;stroke-width:1"
     transform="matrix(1.1447102,0,0,1.1347893,-94.682819,-87.418926)">
    <g
       id="Group-9"
       transform="translate(105,113)">
      <g
         id="Group-8">
        <path
           d="m 449.25513,1291.399 h 2.61963 l -7.604,20.9428 h -2.54883 l -7.57568,-20.9428 h 2.61963 l 4.65869,13.2822 c 0.60417,1.7275 1.12809,3.3559 1.57178,4.8852 0.1416,-0.708 0.67024,-2.3505 1.58593,-4.9277 1.47267,-4.2197 3.03027,-8.6329 4.67285,-13.2397 z m 11.19219,7.0375 c -1.20834,0 -2.19482,0.4272 -2.95947,1.2816 -0.76465,0.8543 -1.21305,2.0225 -1.34522,3.5046 h 8.19873 c 0,-1.5388 -0.34692,-2.7211 -1.04077,-3.5471 -0.69385,-0.826 -1.64493,-1.2391 -2.85327,-1.2391 z m 0.46729,14.231 c -2.2562,0 -4.03328,-0.7174 -5.3313,-2.1523 -1.29802,-1.4349 -1.94702,-3.3985 -1.94702,-5.8907 0,-2.4072 0.62776,-4.3589 1.8833,-5.8552 1.25554,-1.4962 2.90754,-2.2585 4.95605,-2.2868 1.92579,0 3.45271,0.6584 4.58081,1.9753 1.1281,1.3169 1.69214,3.0751 1.69214,5.2747 0,0.1132 -0.002,0.3209 -0.007,0.623 -0.005,0.3021 -0.007,0.5192 -0.007,0.6514 h -10.6626 c 0.0283,1.7653 0.4838,3.1412 1.36646,4.1277 0.88265,0.9865 2.06973,1.4797 3.56128,1.4797 1.64258,0 3.28987,-0.4342 4.94189,-1.3028 l 0.36817,1.9117 c -1.57651,0.9629 -3.37483,1.4443 -5.39502,1.4443 z m 17.08281,-16.001 c 0.42481,0 0.81185,0.028 1.16113,0.085 l -0.085,2.1807 c -0.43425,-0.076 -0.81185,-0.1133 -1.13281,-0.1133 -1.32162,0 -2.39542,0.4602 -3.22144,1.3806 -0.82601,0.9204 -1.23901,2.0603 -1.23901,3.4197 v 8.7226 h -2.36475 c -0.009,-9.5345 -0.0142,-14.7124 -0.0142,-15.5337 h 1.96826 l 0.22657,2.7896 c 0.53809,-0.8779 1.22249,-1.586 2.05322,-2.124 0.83073,-0.5381 1.71337,-0.8072 2.64795,-0.8072 z m 9.54961,15.9585 c -1.52931,0 -2.61491,-0.3728 -3.25684,-1.1186 -0.64193,-0.7458 -0.98177,-1.9494 -1.01953,-3.6109 v -9.3315 h -2.3081 l 0.0991,-1.5576 2.19482,-0.1983 0.80713,-3.5542 1.55762,-0.057 v 3.6108 h 4.31885 v 1.7559 h -4.31885 v 8.9067 c 0,1.1801 0.17936,2.0108 0.53808,2.4922 0.35873,0.4815 0.97233,0.7222 1.84082,0.7222 0.31153,0 0.98649,-0.075 2.02491,-0.2266 l 0.0991,1.8692 c -1.12338,0.1982 -1.98242,0.2973 -2.57715,0.2973 z m 12.0418,-14.1885 c -1.20834,0 -2.19482,0.4272 -2.95948,1.2816 -0.76465,0.8543 -1.21305,2.0225 -1.34521,3.5046 h 8.19873 c 0,-1.5388 -0.34692,-2.7211 -1.04077,-3.5471 -0.69385,-0.826 -1.64493,-1.2391 -2.85327,-1.2391 z m 0.46728,14.231 c -2.2562,0 -4.03328,-0.7174 -5.3313,-2.1523 -1.29802,-1.4349 -1.94702,-3.3985 -1.94702,-5.8907 0,-2.4072 0.62776,-4.3589 1.8833,-5.8552 1.25554,-1.4962 2.90754,-2.2585 4.95606,-2.2868 1.92579,0 3.45271,0.6584 4.58081,1.9753 1.12809,1.3169 1.69214,3.0751 1.69214,5.2747 0,0.1132 -0.002,0.3209 -0.007,0.623 -0.005,0.3021 -0.007,0.5192 -0.007,0.6514 h -10.6626 c 0.0283,1.7653 0.4838,3.1412 1.36645,4.1277 0.88266,0.9865 2.06974,1.4797 3.56128,1.4797 1.64259,0 3.28987,-0.4342 4.9419,-1.3028 l 0.36816,1.9117 c -1.5765,0.9629 -3.37483,1.4443 -5.39502,1.4443 z m 14.22246,-8.227 -5.47998,-7.6324 h 2.70459 l 4.14893,5.919 4.16308,-5.919 h 2.70459 l -5.49414,7.6607 5.63574,7.873 h -2.61962 l -4.37549,-6.2446 -4.37549,6.2446 h -2.70459 z"
           id="Vertex"
           inkscape:connector-curvature="0"
           style="fill:#ffffff" />
        <path
           d="m 177.73894,911.71414 v -20.94287 h 12.00782 l -0.0991,2.1665 h -9.45899 v 6.85352 h 8.9917 v 2.13818 h -8.9917 v 7.61817 h 9.77051 l -0.11328,2.1665 z m 22.80352,-1.71338 c 1.55762,0 2.71639,-0.50032 3.47632,-1.50098 0.75993,-1.00065 1.13989,-2.43081 1.13989,-4.29052 0,-2.09572 -0.3658,-3.67456 -1.09741,-4.73658 -0.73161,-1.06201 -1.91397,-1.59301 -3.54712,-1.59301 -0.72689,0 -1.36881,0.15576 -1.92578,0.46728 -0.55697,0.31153 -1.00537,0.74577 -1.34522,1.30274 -0.33984,0.55696 -0.59708,1.19653 -0.77173,1.9187 -0.17464,0.72217 -0.26196,1.51277 -0.26196,2.37182 0,1.20834 0.14868,2.25618 0.44605,3.14356 0.29736,0.88737 0.77644,1.59537 1.43725,2.12402 0.66081,0.52865 1.47737,0.79297 2.44971,0.79297 z m 4.65869,-0.53809 c -0.50977,0.78354 -1.18945,1.40658 -2.03906,1.86914 -0.84962,0.46257 -1.79834,0.69385 -2.84619,0.69385 -2.04852,0 -3.65332,-0.72924 -4.81446,-2.18774 -1.16113,-1.45851 -1.7417,-3.44327 -1.7417,-5.95435 0,-2.3978 0.59001,-4.33536 1.77002,-5.81274 1.18002,-1.47739 2.76122,-2.21607 4.74366,-2.21607 1.02897,0 1.99893,0.2242 2.90991,0.67261 0.91097,0.44841 1.59301,1.05021 2.04614,1.80542 l -0.0425,-1.34521 v -6.83936 l 2.33643,-0.1416 v 21.70752 h -2.01075 z m 13.45781,0.22657 c 0.80242,0 1.5057,-0.1416 2.10987,-0.42481 0.60417,-0.2832 1.07617,-0.67496 1.41601,-1.17529 0.33985,-0.50033 0.59237,-1.05729 0.75757,-1.6709 0.1652,-0.61361 0.2478,-1.28385 0.2478,-2.01074 v -1.14697 c 0,-0.75522 -0.085,-1.45142 -0.25488,-2.08863 -0.16992,-0.63721 -0.43188,-1.20833 -0.78589,-1.71338 -0.354,-0.50504 -0.826,-0.89917 -1.41601,-1.18237 -0.59001,-0.2832 -1.27677,-0.4248 -2.06031,-0.4248 -0.65137,0 -1.24373,0.12272 -1.7771,0.36816 -0.53336,0.24544 -0.97232,0.56876 -1.31689,0.96997 -0.34457,0.40121 -0.63721,0.86849 -0.87793,1.40186 -0.24072,0.53336 -0.413,1.07381 -0.51685,1.62133 -0.10384,0.54753 -0.15576,1.09977 -0.15576,1.65674 0,0.54753 0.0566,1.09033 0.16992,1.62842 0.11329,0.53809 0.29265,1.06201 0.53809,1.57178 0.24544,0.50977 0.5428,0.95581 0.89209,1.33813 0.34929,0.38233 0.78589,0.69149 1.30981,0.92749 0.52393,0.23601 1.09741,0.35401 1.72046,0.35401 z m -3.63916,9.1333 -0.2124,-2.13819 h 2.88867 c 0.80242,0 1.50098,-0.0566 2.09571,-0.16992 0.59473,-0.11328 1.09033,-0.29972 1.48681,-0.55932 0.39649,-0.25961 0.71745,-0.54753 0.96289,-0.86377 0.24545,-0.31625 0.43189,-0.72689 0.55933,-1.23194 0.12744,-0.50504 0.2124,-1.00537 0.25488,-1.50097 0.0425,-0.49561 0.0637,-1.10213 0.0637,-1.81958 v -1.37354 c -0.56641,0.81185 -1.22249,1.43726 -1.96826,1.87622 -0.74577,0.43897 -1.69449,0.65845 -2.84619,0.65845 -0.88737,0 -1.7063,-0.1534 -2.45679,-0.46021 -0.75049,-0.3068 -1.38297,-0.71508 -1.89746,-1.22485 -0.51449,-0.50977 -0.95345,-1.09977 -1.31689,-1.77002 -0.36345,-0.67025 -0.62777,-1.36409 -0.79297,-2.08154 -0.1652,-0.71745 -0.2478,-1.43961 -0.2478,-2.16651 0,-1.13281 0.13924,-2.18066 0.41772,-3.14355 0.27848,-0.9629 0.69149,-1.82194 1.23901,-2.57715 0.54753,-0.75521 1.26733,-1.34757 2.15943,-1.7771 0.89209,-0.42953 1.91397,-0.64429 3.06567,-0.64429 1.01954,0 1.90926,0.19588 2.66919,0.58765 0.75993,0.39177 1.44197,0.99357 2.04614,1.80542 v -2.06738 h 2.30811 v 14.41504 c 0,0.66081 -0.0165,1.23901 -0.0496,1.73462 -0.033,0.4956 -0.11328,1.04548 -0.24072,1.64965 -0.12745,0.60417 -0.29973,1.12337 -0.51685,1.55762 -0.21712,0.43425 -0.52156,0.87085 -0.91333,1.30982 -0.39177,0.43896 -0.85905,0.79296 -1.40186,1.06201 -0.5428,0.26904 -1.2154,0.48852 -2.01782,0.65844 -0.80241,0.16993 -1.70865,0.25489 -2.71875,0.25489 z m 21.51494,-21.01367 c -1.20833,0 -2.19482,0.42716 -2.95947,1.28149 -0.76465,0.85433 -1.21305,2.02253 -1.34521,3.50464 h 8.19873 c 0,-1.53875 -0.34692,-2.72111 -1.04077,-3.54712 -0.69385,-0.82601 -1.64494,-1.23901 -2.85328,-1.23901 z m 0.46729,14.23095 c -2.2562,0 -4.03328,-0.71744 -5.3313,-2.15234 -1.29802,-1.4349 -1.94702,-3.39843 -1.94702,-5.89063 0,-2.40724 0.62776,-4.35896 1.8833,-5.85522 1.25554,-1.49627 2.90754,-2.25854 4.95606,-2.28687 1.92579,0 3.45271,0.65844 4.58081,1.97535 1.12809,1.3169 1.69213,3.0751 1.69213,5.27465 0,0.11329 -0.002,0.32097 -0.007,0.62305 -0.005,0.30209 -0.007,0.51921 -0.007,0.65137 h -10.66259 c 0.0283,1.76531 0.4838,3.14119 1.36645,4.12768 0.88266,0.9865 2.06974,1.47974 3.56128,1.47974 1.64259,0 3.28987,-0.43424 4.9419,-1.30273 l 0.36816,1.91162 c -1.57651,0.96289 -3.37483,1.44433 -5.39502,1.44433 z"
           id="Edge"
           inkscape:connector-curvature="0"
           style="fill:#ffffff" />
        <path
           d="m 73.460548,943.87796 c 0,-3.19012 0.888663,-6.08071 2.666015,-8.67187 h 1.513672 c -1.679696,2.6172 -2.519531,5.49477 -2.519531,8.63281 0,1.47136 0.221352,2.95572 0.664062,4.45312 0.442711,1.49741 1.061194,2.85482 1.855469,4.07227 h -1.49414 c -0.839848,-1.16537 -1.497394,-2.47883 -1.972657,-3.94043 -0.475262,-1.4616 -0.71289,-2.97688 -0.71289,-4.5459 z m 11.898437,-3.74023 c -1.035161,0 -1.827797,0.35644 -2.37793,1.06933 -0.550133,0.7129 -0.825195,1.75944 -0.825195,3.13965 0,2.82554 1.064443,4.23828 3.19336,4.23828 0.527346,0 0.991209,-0.10904 1.391601,-0.32715 0.400393,-0.21809 0.716145,-0.52408 0.947266,-0.91796 0.231121,-0.39389 0.403645,-0.83822 0.517578,-1.33301 0.113933,-0.4948 0.170898,-1.04492 0.170898,-1.65039 0,-0.82032 -0.09603,-1.53646 -0.288086,-2.14844 -0.192058,-0.61198 -0.519203,-1.11002 -0.981445,-1.49414 -0.462242,-0.38412 -1.044918,-0.57617 -1.748047,-0.57617 z m 0.166016,-1.35742 c 0.950525,0 1.77083,0.24088 2.460937,0.72265 0.690108,0.48177 1.207681,1.13607 1.552735,1.96289 0.345053,0.82683 0.517578,1.77409 0.517578,2.8418 0,1.10678 -0.170897,2.08007 -0.512696,2.91992 -0.341798,0.83985 -0.859371,1.50228 -1.552734,1.98731 -0.693363,0.48502 -1.521805,0.72753 -2.485351,0.72753 -0.709639,0 -1.357419,-0.15299 -1.94336,-0.45898 -0.58594,-0.30599 -1.074217,-0.72265 -1.464844,-1.25 l -0.166015,1.48438 h -1.396485 v -14.87305 l 1.63086,-0.0977 v 3.54492 c 0,0.87241 -0.01302,1.62109 -0.03906,2.2461 0.377606,-0.54037 0.86751,-0.96842 1.469727,-1.28418 0.602216,-0.31576 1.245114,-0.47363 1.928711,-0.47363 z m 11.722656,1.34765 c -0.833337,0 -1.513669,0.2946 -2.041016,0.88379 -0.527346,0.5892 -0.836588,1.39485 -0.927734,2.41699 h 5.654297 c 0,-1.0612 -0.239255,-1.87662 -0.717774,-2.44629 -0.478517,-0.56966 -1.134435,-0.85449 -1.967773,-0.85449 z m 0.322266,9.81445 c -1.555998,0 -2.781571,-0.49478 -3.676758,-1.48437 -0.895187,-0.98959 -1.342774,-2.34374 -1.342774,-4.0625 0,-1.66016 0.432939,-3.00618 1.298829,-4.03809 0.865889,-1.0319 2.005201,-1.55761 3.417968,-1.57714 1.328132,0 2.381181,0.45409 3.159182,1.3623 0.778,0.90821 1.16699,2.12076 1.16699,3.6377 0,0.0781 -0.002,0.22135 -0.005,0.42968 -0.003,0.20834 -0.005,0.35808 -0.005,0.44922 h -7.353521 c 0.01953,1.21746 0.333656,2.16634 0.942383,2.84668 0.608727,0.68034 1.427403,1.02051 2.456054,1.02051 1.132819,0 2.268875,-0.29948 3.408204,-0.89844 l 0.25391,1.31836 c -1.08725,0.66407 -2.327471,0.99609 -3.720707,0.99609 z m 10.394527,-0.0293 c -1.05469,0 -1.80338,-0.25716 -2.24609,-0.77149 -0.44271,-0.51432 -0.67708,-1.34439 -0.70312,-2.49023 v -6.43555 h -1.5918 l 0.0684,-1.07422 1.51367,-0.13672 0.55664,-2.45117 1.07422,-0.0391 v 2.49023 h 2.97852 v 1.21094 h -2.97852 v 6.14258 c 0,0.81381 0.1237,1.38672 0.37109,1.71875 0.2474,0.33203 0.67057,0.49805 1.26953,0.49805 0.21485,0 0.68034,-0.0521 1.39649,-0.15625 l 0.0684,1.28906 c -0.77475,0.13672 -1.36719,0.20508 -1.77735,0.20508 z m 13.45118,-0.19531 c -1.50392,-4.80472 -2.4349,-7.79622 -2.79297,-8.97461 -0.20183,0.71615 -0.43294,1.49088 -0.69336,2.32421 -0.26042,0.83334 -0.48828,1.54948 -0.6836,2.14844 -0.19531,0.59896 -0.44921,1.3737 -0.76171,2.32422 -0.31251,0.95053 -0.55013,1.67643 -0.71289,2.17774 h -1.75782 l -3.05664,-10.7129 h 1.68946 l 2.29492,8.76954 c 0.31901,-1.04168 1.2565,-3.96482 2.8125,-8.76954 h 1.8457 c 1.54949,4.90888 2.46094,7.82227 2.73438,8.74024 l 2.26562,-8.74024 h 1.66992 l -3.08594,10.7129 z M 132.65,940.12796 c -0.83334,0 -1.51367,0.2946 -2.04102,0.88379 -0.52734,0.5892 -0.83658,1.39485 -0.92773,2.41699 h 5.6543 c 0,-1.0612 -0.23926,-1.87662 -0.71778,-2.44629 -0.47851,-0.56966 -1.13443,-0.85449 -1.96777,-0.85449 z m 0.32227,9.81445 c -1.556,0 -2.78158,-0.49478 -3.67676,-1.48437 -0.89519,-0.98959 -1.34277,-2.34374 -1.34277,-4.0625 0,-1.66016 0.43293,-3.00618 1.29882,-4.03809 0.86589,-1.0319 2.0052,-1.55761 3.41797,-1.57714 1.32813,0 2.38118,0.45409 3.15918,1.3623 0.778,0.90821 1.16699,2.12076 1.16699,3.6377 0,0.0781 -0.002,0.22135 -0.005,0.42968 -0.003,0.20834 -0.005,0.35808 -0.005,0.44922 h -7.35352 c 0.0195,1.21746 0.33366,2.16634 0.94238,2.84668 0.60873,0.68034 1.42741,1.02051 2.45606,1.02051 1.13282,0 2.26887,-0.29948 3.4082,-0.89844 l 0.25391,1.31836 c -1.08725,0.66407 -2.32747,0.99609 -3.7207,0.99609 z m 11.18554,-9.81445 c -0.83333,0 -1.51367,0.2946 -2.04101,0.88379 -0.52735,0.5892 -0.83659,1.39485 -0.92774,2.41699 h 5.6543 c 0,-1.0612 -0.23926,-1.87662 -0.71777,-2.44629 -0.47852,-0.56966 -1.13444,-0.85449 -1.96778,-0.85449 z m 0.32227,9.81445 c -1.556,0 -2.78157,-0.49478 -3.67676,-1.48437 -0.89519,-0.98959 -1.34277,-2.34374 -1.34277,-4.0625 0,-1.66016 0.43294,-3.00618 1.29883,-4.03809 0.86589,-1.0319 2.0052,-1.55761 3.41796,-1.57714 1.32814,0 2.38119,0.45409 3.15918,1.3623 0.778,0.90821 1.167,2.12076 1.167,3.6377 0,0.0781 -0.002,0.22135 -0.005,0.42968 -0.003,0.20834 -0.005,0.35808 -0.005,0.44922 H 141.14 c 0.0195,1.21746 0.33366,2.16634 0.94239,2.84668 0.60872,0.68034 1.4274,1.02051 2.45605,1.02051 1.13282,0 2.26888,-0.29948 3.40821,-0.89844 l 0.2539,1.31836 c -1.08724,0.66407 -2.32747,0.99609 -3.7207,0.99609 z m 6.97656,-0.2246 v -10.7129 h 1.36719 l 0.20508,1.53321 c 0.42318,-0.52735 0.95214,-0.95215 1.58691,-1.27442 0.63477,-0.32226 1.31998,-0.48339 2.05566,-0.48339 1.23699,0 2.15169,0.34667 2.74415,1.04003 0.59245,0.69337 0.88867,1.75944 0.88867,3.19825 v 6.69922 h -1.63086 c 0,-4.2969 -0.003,-6.59831 -0.01,-6.9043 -0.026,-0.91146 -0.20996,-1.57878 -0.55176,-2.00195 -0.34179,-0.42318 -0.91308,-0.63477 -1.71386,-0.63477 -0.83985,0 -1.53971,0.20182 -2.09961,0.60547 -0.5599,0.40365 -0.92448,0.92773 -1.09375,1.57226 -0.0651,0.4362 -0.0977,0.9375 -0.0977,1.50391 v 5.85938 z m 19.91992,-6.875 v 5.48828 h 3.01758 c 1.22397,0 2.14192,-0.22624 2.75391,-0.67871 0.61198,-0.45248 0.91797,-1.15723 0.91797,-2.11426 0,-0.9961 -0.3304,-1.69433 -0.99122,-2.09473 -0.66081,-0.40039 -1.69107,-0.60058 -3.09082,-0.60058 z m 0,-1.35743 h 3.09571 c 1.00912,0 1.77083,-0.17577 2.28515,-0.52734 0.51433,-0.35156 0.77149,-0.97656 0.77149,-1.875 0,-0.90495 -0.30762,-1.52832 -0.92286,-1.87012 -0.61523,-0.3418 -1.57063,-0.51269 -2.86621,-0.51269 h -2.36328 z m -1.68945,-6.21093 h 4.14062 c 1.85548,0 3.23079,0.2832 4.12598,0.84961 0.89519,0.56641 1.34277,1.46809 1.34277,2.70507 0,0.1823 -0.0114,0.36296 -0.0342,0.542 -0.0228,0.17903 -0.0814,0.40852 -0.17578,0.68847 -0.0944,0.27995 -0.22298,0.53548 -0.38574,0.7666 -0.16276,0.23112 -0.40202,0.46224 -0.71777,0.69336 -0.31576,0.23112 -0.68522,0.41504 -1.1084,0.55176 0.97006,0.18229 1.70573,0.59245 2.20703,1.23047 0.50131,0.63802 0.75195,1.40625 0.75195,2.30469 0,1.3086 -0.42805,2.32096 -1.28418,3.03711 -0.85612,0.71615 -2.13052,1.07422 -3.82324,1.07422 h -5.03906 z m 17.15234,4.85351 c -0.83333,0 -1.51367,0.2946 -2.04101,0.88379 -0.52735,0.5892 -0.83659,1.39485 -0.92774,2.41699 h 5.6543 c 0,-1.0612 -0.23926,-1.87662 -0.71777,-2.44629 -0.47852,-0.56966 -1.13444,-0.85449 -1.96778,-0.85449 z m 0.32227,9.81445 c -1.556,0 -2.78157,-0.49478 -3.67676,-1.48437 -0.89519,-0.98959 -1.34277,-2.34374 -1.34277,-4.0625 0,-1.66016 0.43294,-3.00618 1.29883,-4.03809 0.86589,-1.0319 2.0052,-1.55761 3.41796,-1.57714 1.32814,0 2.38119,0.45409 3.15918,1.3623 0.778,0.90821 1.167,2.12076 1.167,3.6377 0,0.0781 -0.002,0.22135 -0.005,0.42968 -0.003,0.20834 -0.005,0.35808 -0.005,0.44922 h -7.35351 c 0.0195,1.21746 0.33365,2.16634 0.94238,2.84668 0.60873,0.68034 1.4274,1.02051 2.45605,1.02051 1.13282,0 2.26888,-0.29948 3.40821,-0.89844 l 0.2539,1.31836 c -1.08724,0.66407 -2.32746,0.99609 -3.7207,0.99609 z m 11.15625,-1.40625 c 1.07422,0 1.87337,-0.34504 2.39746,-1.03515 0.52409,-0.69011 0.78613,-1.67643 0.78613,-2.95899 0,-1.44531 -0.25227,-2.53417 -0.75683,-3.2666 -0.50456,-0.73242 -1.31998,-1.09863 -2.44629,-1.09863 -0.50131,0 -0.94401,0.10742 -1.32813,0.32227 -0.38411,0.21484 -0.69336,0.51432 -0.92773,0.89843 -0.23438,0.38412 -0.41178,0.8252 -0.53223,1.32325 -0.12044,0.49805 -0.18066,1.04329 -0.18066,1.63574 0,0.83333 0.10254,1.55598 0.30761,2.16797 0.20508,0.61198 0.53548,1.10025 0.99122,1.46484 0.45573,0.36459 1.01887,0.54687 1.68945,0.54687 z m 3.21289,-0.37109 c -0.35156,0.54037 -0.82031,0.97005 -1.40625,1.28906 -0.58594,0.31902 -1.24023,0.47852 -1.96289,0.47852 -1.41277,0 -2.51953,-0.50293 -3.32031,-1.50879 -0.80079,-1.00586 -1.20118,-2.37466 -1.20118,-4.10645 0,-1.65365 0.4069,-2.9899 1.22071,-4.00878 0.8138,-1.01889 1.90429,-1.52832 3.27148,-1.52832 0.70964,0 1.37858,0.15462 2.00684,0.46386 0.62826,0.30925 1.09863,0.72428 1.41113,1.24512 l -0.0293,-0.92773 v -4.7168 l 1.61133,-0.0977 v 14.97071 h -1.38672 z m 9.19336,-12.27539 c -0.67709,0 -1.14095,0.19531 -1.3916,0.58594 -0.25065,0.39063 -0.37598,1.0677 -0.37598,2.03125 v 0.49804 h 2.57813 v 1.21094 h -2.57813 v 9.50196 h -1.63086 v -9.50196 h -1.73828 l 0.13672,-1.07422 1.60156,-0.13672 v -0.47851 c 0.013,-1.38022 0.27181,-2.38118 0.77637,-3.00293 0.50456,-0.62175 1.31998,-0.93262 2.44629,-0.93262 0.4362,0 0.97005,0.0488 1.60156,0.14649 l -0.10742,1.27929 c -0.57943,-0.0846 -1.01888,-0.12695 -1.31836,-0.12695 z m 4.25195,8.49609 c 0,1.26954 0.28157,2.28678 0.84473,3.05176 0.56315,0.76498 1.38508,1.14746 2.46582,1.14746 1.06771,0 1.87337,-0.38085 2.41699,-1.14258 0.54362,-0.76172 0.81543,-1.7871 0.81543,-3.07617 0,-1.3086 -0.26855,-2.33886 -0.80566,-3.09082 -0.53712,-0.75195 -1.35579,-1.12793 -2.45606,-1.12793 -1.06771,0 -1.88151,0.38411 -2.4414,1.15235 -0.5599,0.76823 -0.83985,1.79687 -0.83985,3.08593 z m 8.23242,-0.0293 c 0,1.66016 -0.4427,3.00618 -1.32812,4.03808 -0.88542,1.03191 -2.10937,1.54785 -3.67188,1.54785 -1.50391,0 -2.70019,-0.52082 -3.58886,-1.5625 -0.88868,-1.04167 -1.33301,-2.37954 -1.33301,-4.01367 0,-1.66667 0.44596,-3.01431 1.33789,-4.04297 0.89193,-1.02865 2.11588,-1.54296 3.67187,-1.54296 1.52996,0 2.73112,0.51594 3.60352,1.54785 0.8724,1.0319 1.30859,2.37466 1.30859,4.02832 z m 7.79688,-5.44922 c 0.29297,0 0.55989,0.0195 0.80078,0.0586 l -0.0586,1.50391 c -0.29948,-0.0521 -0.5599,-0.0781 -0.78125,-0.0781 -0.91147,0 -1.65202,0.31738 -2.22168,0.95215 -0.56967,0.63477 -0.8545,1.4209 -0.8545,2.3584 v 6.01563 h -1.63085 c -0.007,-6.57556 -0.01,-10.14649 -0.01,-10.7129 h 1.35742 l 0.15625,1.92383 c 0.3711,-0.60547 0.8431,-1.09374 1.41602,-1.46484 0.57292,-0.3711 1.18163,-0.55664 1.82617,-0.55664 z m 7.15234,9.6289 c 1.07423,0 1.87337,-0.34504 2.39746,-1.03515 0.52409,-0.69011 0.78614,-1.67643 0.78614,-2.95899 0,-1.44531 -0.25228,-2.53417 -0.75684,-3.2666 -0.50456,-0.73242 -1.31998,-1.09863 -2.44629,-1.09863 -0.5013,0 -0.94401,0.10742 -1.32812,0.32227 -0.38412,0.21484 -0.69336,0.51432 -0.92774,0.89843 -0.23437,0.38412 -0.41178,0.8252 -0.53222,1.32325 -0.12045,0.49805 -0.18067,1.04329 -0.18067,1.63574 0,0.83333 0.10254,1.55598 0.30762,2.16797 0.20508,0.61198 0.53548,1.10025 0.99121,1.46484 0.45573,0.36459 1.01888,0.54687 1.68945,0.54687 z m 3.21289,-0.37109 c -0.35156,0.54037 -0.82031,0.97005 -1.40625,1.28906 -0.58594,0.31902 -1.24023,0.47852 -1.96289,0.47852 -1.41276,0 -2.51952,-0.50293 -3.32031,-1.50879 -0.80078,-1.00586 -1.20117,-2.37466 -1.20117,-4.10645 0,-1.65365 0.4069,-2.9899 1.2207,-4.00878 0.81381,-1.01889 1.90429,-1.52832 3.27149,-1.52832 0.70963,0 1.37857,0.15462 2.00683,0.46386 0.62826,0.30925 1.09863,0.72428 1.41113,1.24512 l -0.0293,-0.92773 v -4.7168 l 1.61133,-0.0977 v 14.97071 h -1.38672 z m 13.89453,0.45899 c 0.77475,0 1.45671,-0.21322 2.0459,-0.63965 0.5892,-0.42644 0.96843,-1.00098 1.1377,-1.72364 v -1.80664 c -0.0326,0 -0.22949,0.0163 -0.59082,0.0488 -0.36133,0.0326 -0.59733,0.0521 -0.70801,0.0586 -1.41277,0.12369 -2.39746,0.35481 -2.9541,0.69335 -0.55664,0.33855 -0.83496,0.88216 -0.83496,1.63086 0,0.57292 0.16927,1.00586 0.50781,1.29883 0.33854,0.29297 0.80403,0.43946 1.39648,0.43946 z m 3.54493,1.09375 c -0.0977,-0.41667 -0.19206,-0.86589 -0.28321,-1.34766 -0.59245,0.59245 -1.14908,1.0026 -1.66992,1.23047 -0.52083,0.22786 -1.13281,0.34179 -1.83594,0.34179 -1.00261,0 -1.80826,-0.26204 -2.41699,-0.78613 -0.60873,-0.52409 -0.91308,-1.27766 -0.91308,-2.26074 0,-1.09376 0.41503,-1.90429 1.24511,-2.43164 0.83009,-0.52735 2.02636,-0.85612 3.58887,-0.98633 0.21485,-0.0195 0.53874,-0.0472 0.97168,-0.083 0.43294,-0.0358 0.75683,-0.0635 0.97168,-0.083 v -0.94727 c 0,-0.75521 -0.17578,-1.3151 -0.52734,-1.67969 -0.35157,-0.36458 -0.90495,-0.54687 -1.66016,-0.54687 -1.05469,0 -2.11914,0.26041 -3.19336,0.78125 -0.0326,-0.0781 -0.11719,-0.30436 -0.25391,-0.67871 -0.13672,-0.37435 -0.20833,-0.56804 -0.21484,-0.58106 0.47526,-0.26693 1.04004,-0.48014 1.69434,-0.63965 0.6543,-0.1595 1.31998,-0.23925 1.99707,-0.23925 1.33464,0 2.29654,0.29133 2.88574,0.87402 0.58919,0.58269 0.88379,1.57389 0.88379,2.97363 v 7.08985 z m 4.76953,0 v -10.7129 h 1.36719 l 0.20507,1.53321 c 0.42318,-0.52735 0.95215,-0.95215 1.58692,-1.27442 0.63477,-0.32226 1.31998,-0.48339 2.05566,-0.48339 1.23699,0 2.15169,0.34667 2.74414,1.04003 0.59245,0.69337 0.88867,1.75944 0.88867,3.19825 v 6.69922 h -1.63085 c 0,-4.2969 -0.003,-6.59831 -0.01,-6.9043 -0.026,-0.91146 -0.20996,-1.57878 -0.55176,-2.00195 -0.3418,-0.42318 -0.91308,-0.63477 -1.71387,-0.63477 -0.83984,0 -1.53971,0.20182 -2.0996,0.60547 -0.5599,0.40365 -0.92448,0.92773 -1.09375,1.57226 -0.0651,0.4362 -0.0977,0.9375 -0.0977,1.50391 v 5.85938 z m 16.42969,-1.18165 c 1.07422,0 1.87337,-0.34504 2.39746,-1.03515 0.52409,-0.69011 0.78613,-1.67643 0.78613,-2.95899 0,-1.44531 -0.25228,-2.53417 -0.75684,-3.2666 -0.50456,-0.73242 -1.31998,-1.09863 -2.44629,-1.09863 -0.5013,0 -0.944,0.10742 -1.32812,0.32227 -0.38412,0.21484 -0.69336,0.51432 -0.92773,0.89843 -0.23438,0.38412 -0.41179,0.8252 -0.53223,1.32325 -0.12044,0.49805 -0.18067,1.04329 -0.18067,1.63574 0,0.83333 0.10254,1.55598 0.30762,2.16797 0.20508,0.61198 0.53548,1.10025 0.99121,1.46484 0.45573,0.36459 1.01888,0.54687 1.68946,0.54687 z m 3.21289,-0.37109 c -0.35157,0.54037 -0.82031,0.97005 -1.40625,1.28906 -0.58594,0.31902 -1.24023,0.47852 -1.96289,0.47852 -1.41277,0 -2.51953,-0.50293 -3.32032,-1.50879 -0.80078,-1.00586 -1.20117,-2.37466 -1.20117,-4.10645 0,-1.65365 0.4069,-2.9899 1.2207,-4.00878 0.81381,-1.01889 1.90429,-1.52832 3.27149,-1.52832 0.70964,0 1.37858,0.15462 2.00683,0.46386 0.62826,0.30925 1.09864,0.72428 1.41114,1.24512 l -0.0293,-0.92773 v -4.7168 l 1.61133,-0.0977 v 14.97071 h -1.38672 z m 21.87304,-12.89062 v 9.375 c 0,1.66016 -0.45409,2.95572 -1.3623,3.88671 -0.90821,0.931 -2.29003,1.39649 -4.14551,1.39649 -1.85548,0 -3.22591,-0.46549 -4.11133,-1.39649 -0.88542,-0.93099 -1.32812,-2.23306 -1.32812,-3.90625 v -9.35546 h 1.69922 v 9.38476 c 0,1.3086 0.30924,2.27213 0.92773,2.89063 0.61849,0.61849 1.57551,0.92773 2.87109,0.92773 1.26303,0 2.2054,-0.3125 2.82715,-0.9375 0.62175,-0.625 0.93262,-1.58853 0.93262,-2.89062 v -9.375 z m 7.07422,14.63867 c -1.05469,0 -1.80338,-0.25716 -2.24609,-0.77149 -0.44271,-0.51432 -0.67709,-1.34439 -0.70313,-2.49023 v -6.43555 h -1.59179 l 0.0684,-1.07422 1.51367,-0.13672 0.55664,-2.45117 1.07422,-0.0391 v 2.49023 h 2.97851 v 1.21094 h -2.97851 v 6.14258 c 0,0.81381 0.12369,1.38672 0.37109,1.71875 0.2474,0.33203 0.67057,0.49805 1.26953,0.49805 0.21485,0 0.68034,-0.0521 1.39649,-0.15625 l 0.0684,1.28906 c -0.77475,0.13672 -1.36719,0.20508 -1.77735,0.20508 z m 6.12696,-10.90821 v 10.7129 h -1.64063 v -10.7129 z m 0,-3.89648 v 1.93359 h -1.64063 v -1.93359 z m 8.28515,14.83398 c -1.57553,0 -2.80761,-0.51106 -3.69629,-1.5332 -0.88867,-1.02214 -1.33301,-2.36002 -1.33301,-4.01367 0.007,-1.66667 0.46061,-3.0192 1.36231,-4.05762 0.9017,-1.03841 2.13704,-1.55761 3.70605,-1.55761 0.55339,0 1.08887,0.0684 1.60645,0.20507 0.51758,0.13672 0.9261,0.31576 1.22559,0.53711 l -0.44922,1.26953 c -0.76173,-0.41015 -1.56575,-0.61523 -2.41211,-0.61523 -1.03516,0 -1.85384,0.3776 -2.45606,1.13281 -0.60221,0.75521 -0.90332,1.78711 -0.90332,3.09571 0,1.27604 0.29785,2.28678 0.89356,3.03222 0.5957,0.74545 1.42089,1.11817 2.47558,1.11817 0.83985,0 1.69922,-0.22787 2.57813,-0.6836 l 0.20508,1.29883 c -0.70964,0.51433 -1.64388,0.77148 -2.80274,0.77148 z m 8.70508,-1.31835 c 0.77474,0 1.4567,-0.21322 2.0459,-0.63965 0.58919,-0.42644 0.96842,-1.00098 1.13769,-1.72364 v -1.80664 c -0.0325,0 -0.22949,0.0163 -0.59082,0.0488 -0.36133,0.0326 -0.59733,0.0521 -0.708,0.0586 -1.41277,0.12369 -2.39746,0.35481 -2.95411,0.69335 -0.55664,0.33855 -0.83496,0.88216 -0.83496,1.63086 0,0.57292 0.16927,1.00586 0.50782,1.29883 0.33854,0.29297 0.80403,0.43946 1.39648,0.43946 z m 3.54492,1.09375 c -0.0976,-0.41667 -0.19206,-0.86589 -0.2832,-1.34766 -0.59245,0.59245 -1.14909,1.0026 -1.66992,1.23047 -0.52084,0.22786 -1.13281,0.34179 -1.83594,0.34179 -1.00261,0 -1.80827,-0.26204 -2.41699,-0.78613 -0.60873,-0.52409 -0.91309,-1.27766 -0.91309,-2.26074 0,-1.09376 0.41504,-1.90429 1.24512,-2.43164 0.83008,-0.52735 2.02636,-0.85612 3.58887,-0.98633 0.21484,-0.0195 0.53873,-0.0472 0.97167,-0.083 0.43295,-0.0358 0.75684,-0.0635 0.97168,-0.083 v -0.94727 c 0,-0.75521 -0.17577,-1.3151 -0.52734,-1.67969 -0.35156,-0.36458 -0.90494,-0.54687 -1.66016,-0.54687 -1.05469,0 -2.11913,0.26041 -3.19335,0.78125 -0.0326,-0.0781 -0.11719,-0.30436 -0.25391,-0.67871 -0.13672,-0.37435 -0.20833,-0.56804 -0.21484,-0.58106 0.47526,-0.26693 1.04003,-0.48014 1.69433,-0.63965 0.6543,-0.1595 1.31999,-0.23925 1.99707,-0.23925 1.33464,0 2.29655,0.29133 2.88574,0.87402 0.5892,0.58269 0.88379,1.57389 0.88379,2.97363 v 7.08985 z m 8.31445,-5.83985 c 0,1.56902 -0.23762,3.08268 -0.71289,4.54102 -0.47526,1.45834 -1.13606,2.77343 -1.98242,3.94531 h -1.48437 c 0.79427,-1.21745 1.41275,-2.57486 1.85547,-4.07227 0.44271,-1.4974 0.66406,-2.98176 0.66406,-4.45312 0,-3.12502 -0.84309,-6.00259 -2.5293,-8.63281 h 1.51367 c 1.78387,2.63022 2.67578,5.52081 2.67578,8.67187 z"
           id="(between-Bedford-and"
           inkscape:connector-curvature="0"
           style="fill:#ffffff" />
        <g
           id="Group"
           transform="translate(4.662841,515.18175)">
          <rect
             id="Rectangle-4-Copy-5-[30-60]"
             x="3.5"
             y="3.5"
             width="197.23242"
             height="109.74982"
             rx="54.874912"
             style="stroke:#fa4359;stroke-width:7" />
          <path
             d="M 58.334962,51.373466 V 34.205497 h 5.355469 c 2.273449,0 3.968745,0.332028 5.085938,0.996094 1.117193,0.664066 1.675781,1.769523 1.675781,3.316406 0,0.250001 -0.01563,0.496093 -0.04687,0.738281 -0.03125,0.242189 -0.101562,0.517577 -0.210938,0.826172 -0.109375,0.308595 -0.253905,0.58789 -0.433593,0.837891 -0.179689,0.250001 -0.429686,0.494139 -0.75,0.732422 -0.320315,0.238282 -0.695311,0.423827 -1.125,0.55664 1.062505,0.257814 1.874997,0.75195 2.4375,1.482422 0.562502,0.730473 0.84375,1.630854 0.84375,2.701172 0,1.617196 -0.57226,2.851558 -1.716797,3.703125 -1.144537,0.851567 -2.728506,1.277344 -4.751953,1.277344 z m 3.175782,-2.296875 h 2.753906 c 2.437512,0 3.65625,-0.953116 3.65625,-2.859375 0,-0.960943 -0.304685,-1.652342 -0.914063,-2.074219 -0.609378,-0.421877 -1.550774,-0.632812 -2.824218,-0.632812 h -2.671875 z m 0,-7.78125 h 2.71875 c 2.101573,0 3.152343,-0.800773 3.152343,-2.402344 0,-0.898442 -0.302731,-1.515623 -0.908203,-1.851562 -0.605472,-0.33594 -1.568353,-0.503907 -2.888672,-0.503907 H 61.510744 Z M 79.616212,51.61956 c -2.070323,0 -3.681634,-0.595698 -4.833984,-1.78711 -1.152349,-1.191412 -1.728516,-2.83788 -1.728516,-4.939453 0,-2.046885 0.542964,-3.675775 1.628907,-4.886719 1.085943,-1.210943 2.566396,-1.820312 4.441406,-1.828125 1.773446,0 3.150386,0.554682 4.130859,1.664063 0.980474,1.10938 1.470703,2.582022 1.470703,4.417969 0,0.132813 -0.002,0.347654 -0.0059,0.644531 -0.0039,0.296876 -0.0059,0.515624 -0.0059,0.65625 H 76.14738 c 0.03125,1.203131 0.361325,2.134762 0.990235,2.794922 0.628909,0.660159 1.494135,0.990234 2.595703,0.990234 1.406257,0 2.757806,-0.367184 4.054687,-1.101562 l 0.433594,2.179687 c -1.289069,0.796879 -2.82421,1.195313 -4.605469,1.195313 z m -3.410156,-7.992188 h 5.625 c 0,-1.04688 -0.238279,-1.85156 -0.714844,-2.414062 -0.476565,-0.562503 -1.136714,-0.84375 -1.980468,-0.84375 -0.789067,0 -1.455076,0.273434 -1.998047,0.820312 -0.542972,0.546878 -0.853515,1.35937 -0.931641,2.4375 z M 92.01465,51.61956 c -1.679696,0 -2.999995,-0.617182 -3.960938,-1.851563 -0.960942,-1.234381 -1.441406,-2.882802 -1.441406,-4.945312 0,-2.00001 0.478511,-3.607416 1.435547,-4.822266 0.957036,-1.21485 2.275382,-1.822266 3.955078,-1.822266 1.828134,0 3.12109,0.648431 3.878906,1.945313 -0.07813,-0.765629 -0.117187,-1.503903 -0.117187,-2.214844 v -4.160156 l 3.070312,-0.199219 v 17.824219 h -2.660156 l -0.339844,-1.757813 c -0.132813,0.210939 -0.255858,0.392578 -0.36914,0.544922 -0.113282,0.152345 -0.279296,0.328124 -0.498047,0.527344 -0.218751,0.19922 -0.455077,0.359374 -0.708984,0.480469 -0.253908,0.121094 -0.574217,0.226562 -0.960938,0.316406 -0.386721,0.08984 -0.814451,0.134766 -1.283203,0.134766 z m 0.726562,-2.332032 c 2.062511,0 3.109375,-1.402329 3.140625,-4.207031 0,-1.585945 -0.265622,-2.742184 -0.796875,-3.46875 -0.531252,-0.726566 -1.324213,-1.089844 -2.378906,-1.089844 -0.92188,0 -1.6582,0.369137 -2.208984,1.107422 -0.550784,0.738285 -0.826172,1.826165 -0.826172,3.263672 0,1.429695 0.275388,2.519528 0.826172,3.269531 0.550784,0.750004 1.298823,1.125 2.24414,1.125 z M 102.7959,51.373466 V 40.533622 h -2.03906 l 0.19922,-1.804687 1.83984,-0.234375 v -0.714844 c 0,-0.781254 0.0723,-1.449216 0.2168,-2.003906 0.14453,-0.554691 0.38085,-1.029295 0.70898,-1.423829 0.32813,-0.394533 0.76758,-0.687499 1.31836,-0.878906 0.55078,-0.191407 1.22851,-0.287109 2.0332,-0.287109 0.78126,0 1.57813,0.07422 2.39063,0.222656 l -0.26953,2.285156 c -0.64063,-0.08594 -1.14453,-0.128906 -1.51172,-0.128906 -0.65625,0 -1.12305,0.158202 -1.40039,0.474609 -0.27735,0.316408 -0.41602,0.841794 -0.41602,1.576172 v 0.878907 h 3.02344 v 2.039062 h -3.02344 v 10.839844 z m 13.69922,-2.085938 c 1.03907,0 1.82031,-0.378902 2.34375,-1.136718 0.52344,-0.757817 0.78516,-1.843743 0.78516,-3.257813 0,-1.429695 -0.26172,-2.519527 -0.78516,-3.269531 -0.52344,-0.750004 -1.3125,-1.125 -2.36719,-1.125 -1.03907,0 -1.82226,0.376949 -2.34961,1.130859 -0.52735,0.75391 -0.79101,1.845696 -0.79101,3.275391 0,1.406257 0.26562,2.488277 0.79687,3.246094 0.53125,0.757816 1.32031,1.136718 2.36719,1.136718 z m -0.082,2.332032 c -1.90626,0 -3.40625,-0.617182 -4.5,-1.851563 -1.09376,-1.234381 -1.64063,-2.859365 -1.64063,-4.875 0,-2.078135 0.54687,-3.716791 1.64063,-4.916016 1.09375,-1.199224 2.63671,-1.798828 4.6289,-1.798828 1.92189,0 3.42773,0.611322 4.51758,1.833985 1.08985,1.222662 1.63477,2.849599 1.63477,4.880859 0,2.054698 -0.55078,3.689447 -1.65235,4.904297 -1.10156,1.21485 -2.64452,1.822266 -4.6289,1.822266 z m 8.80078,-0.246094 V 38.49456 h 2.57812 l 0.39844,1.96875 c 0.84375,-1.35157 2.0664,-2.027344 3.66797,-2.027344 0.33594,0 0.60937,0.01563 0.82031,0.04687 l -0.0469,2.566406 c -0.3125,-0.04687 -0.63672,-0.07031 -0.97266,-0.07031 -1.13282,0 -1.97851,0.300778 -2.53711,0.902343 -0.5586,0.601566 -0.83789,1.437495 -0.83789,2.507813 v 6.984375 z m 14.13281,0.246094 c -1.6797,0 -2.99999,-0.617182 -3.96094,-1.851563 -0.96094,-1.234381 -1.4414,-2.882802 -1.4414,-4.945312 0,-2.00001 0.47851,-3.607416 1.43554,-4.822266 0.95704,-1.21485 2.27539,-1.822266 3.95508,-1.822266 1.82814,0 3.12109,0.648431 3.87891,1.945313 -0.0781,-0.765629 -0.11719,-1.503903 -0.11719,-2.214844 v -4.160156 l 3.07031,-0.199219 v 17.824219 h -2.66015 l -0.33985,-1.757813 c -0.13281,0.210939 -0.25586,0.392578 -0.36914,0.544922 -0.11328,0.152345 -0.27929,0.328124 -0.49804,0.527344 -0.21876,0.19922 -0.45508,0.359374 -0.70899,0.480469 -0.25391,0.121094 -0.57422,0.226562 -0.96094,0.316406 -0.38672,0.08984 -0.81445,0.134766 -1.2832,0.134766 z m 0.72656,-2.332032 c 2.06251,0 3.10938,-1.402329 3.14063,-4.207031 0,-1.585945 -0.26562,-2.742184 -0.79688,-3.46875 -0.53125,-0.726566 -1.32421,-1.089844 -2.3789,-1.089844 -0.92188,0 -1.6582,0.369137 -2.20899,1.107422 -0.55078,0.738285 -0.82617,1.826165 -0.82617,3.263672 0,1.429695 0.27539,2.519528 0.82617,3.269531 0.55079,0.750004 1.29883,1.125 2.24414,1.125 z M 77.975587,82.373466 84.291994,65.193778 h 3.457031 l 6.222656,17.179688 H 90.713869 L 89.01465,77.521903 h -6.011719 l -1.710937,4.851563 z m 5.824219,-7.21875 h 4.40625 C 86.799799,70.646881 86.07715,68.318779 86.038087,68.170341 Z m 15.304688,7.21875 -5.132813,-12.878906 h 3.257813 c 0.125,0.351564 0.521481,1.44335 1.189453,3.27539 0.667972,1.832041 1.111327,3.080075 1.330078,3.744141 0.445315,1.296881 0.765625,2.27734 0.960935,2.941406 0,-0.0078 0.0664,-0.261716 0.19922,-0.761719 0.13281,-0.500002 0.25977,-0.970701 0.38086,-1.412109 0.1211,-0.441409 0.19727,-0.708984 0.22852,-0.802734 0.008,-0.01563 0.36523,-1.09374 1.07226,-3.234375 0.70704,-2.140636 1.12695,-3.390624 1.25977,-3.75 h 3.23437 l -4.875,12.878906 z m 15.527346,0.246094 c -2.07033,0 -3.68164,-0.595698 -4.83399,-1.78711 -1.15235,-1.191412 -1.72851,-2.83788 -1.72851,-4.939453 0,-2.046885 0.54296,-3.675775 1.6289,-4.886719 1.08595,-1.210943 2.5664,-1.820312 4.44141,-1.828125 1.77345,0 3.15039,0.554682 4.13086,1.664063 0.98047,1.10938 1.4707,2.582022 1.4707,4.417969 0,0.132813 -0.002,0.347654 -0.006,0.644531 -0.004,0.296876 -0.006,0.515624 -0.006,0.65625 h -8.5664 c 0.0312,1.203131 0.36132,2.134762 0.99023,2.794922 0.62891,0.660159 1.49414,0.990234 2.59571,0.990234 1.40625,0 2.7578,-0.367184 4.05468,-1.101562 l 0.4336,2.179687 c -1.28907,0.796879 -2.82421,1.195313 -4.60547,1.195313 z m -3.41016,-7.992188 h 5.625 c 0,-1.04688 -0.23828,-1.85156 -0.71484,-2.414062 -0.47657,-0.562503 -1.13672,-0.84375 -1.98047,-0.84375 -0.78907,0 -1.45508,0.273434 -1.99805,0.820312 -0.54297,0.546878 -0.85351,1.35937 -0.93164,2.4375 z m 12.32813,7.957031 c -0.50782,0 -0.9375,-0.175779 -1.28907,-0.527343 -0.35156,-0.351565 -0.52734,-0.769529 -0.52734,-1.253907 0,-0.49219 0.17383,-0.917967 0.52148,-1.277343 0.34766,-0.359377 0.7793,-0.539063 1.29493,-0.539063 0.5,0 0.92187,0.179686 1.26562,0.539063 0.34375,0.359376 0.51563,0.785153 0.51563,1.277343 0,0.484378 -0.17188,0.902342 -0.51563,1.253907 -0.34375,0.351564 -0.76562,0.527343 -1.26562,0.527343 z"
             id="Bedford-Ave."
             inkscape:connector-curvature="0"
             style="fill:#fa4359" />
        </g>
        <g
           id="Group-6"
           transform="translate(618.29268)">
          <path
             d="M 57.889922,51.486265 V 34.318296 h 3.1875 v 7.734375 c 0.55469,-0.734379 1.689444,-2.105459 3.404296,-4.113281 1.714853,-2.007823 2.736327,-3.214842 3.064454,-3.621094 h 3.761718 l -6.492187,7.722656 6.902344,9.445313 h -3.726563 l -5.601562,-7.699219 -1.3125,1.101562 v 6.597657 z m 15.585937,0 V 38.607358 h 3.070313 v 12.878907 z m 0,-14.753907 v -2.625 h 3.082031 v 2.625 z M 79.74539,51.486265 V 38.607358 h 2.472657 l 0.339843,1.628907 c 1.312507,-1.296882 2.769524,-1.945313 4.371094,-1.945313 1.500008,0 2.623043,0.431636 3.369141,1.294922 0.746097,0.863286 1.11914,2.115226 1.11914,3.755859 v 8.144532 h -3.082031 v -7.769532 c -0.0078,-1.039067 -0.17578,-1.816403 -0.503906,-2.332031 -0.328127,-0.515627 -0.917965,-0.773437 -1.769531,-0.773437 -0.664066,0 -1.271482,0.16992 -1.822266,0.509765 -0.550784,0.339846 -0.951171,0.767576 -1.201172,1.283203 -0.148438,0.609378 -0.222656,1.546869 -0.222656,2.8125 v 6.269532 z m 17.273438,5.765625 -0.175781,-2.484375 h 1.558593 c 1.8047,0 3.0664,-0.240232 3.78516,-0.720704 0.71875,-0.480471 1.07812,-1.361321 1.07812,-2.642578 0,-0.52344 -0.0234,-1.08984 -0.0703,-1.699218 -0.20313,0.281251 -0.39648,0.513671 -0.58008,0.697265 -0.18359,0.183595 -0.41406,0.365234 -0.6914,0.544922 -0.27735,0.179689 -0.60938,0.314453 -0.9961,0.404297 -0.38672,0.08984 -0.82617,0.134766 -1.318358,0.134766 -1.703134,0 -3.103511,-0.613275 -4.201172,-1.839844 -1.097662,-1.226569 -1.646485,-2.808584 -1.646485,-4.746094 0,-1.031255 0.152343,-1.970699 0.457032,-2.818359 0.304689,-0.847661 0.718747,-1.544919 1.242187,-2.091797 0.52344,-0.546878 1.12695,-0.966796 1.810547,-1.259766 0.683597,-0.29297 1.412105,-0.439453 2.185547,-0.439453 1.726572,0 3.011712,0.6289 3.855472,1.886719 l 0.21093,-1.570313 h 2.74219 v 11.964844 c 0,0.640628 -0.0312,1.216794 -0.0937,1.728516 -0.0625,0.511721 -0.17187,1.003904 -0.32812,1.476562 -0.15625,0.472659 -0.36133,0.884764 -0.61524,1.236328 -0.2539,0.351565 -0.57226,0.671874 -0.95508,0.960938 -0.38281,0.289064 -0.83398,0.52539 -1.35351,0.708984 -0.51953,0.183595 -1.12304,0.324218 -1.81055,0.421875 -0.6875,0.09766 -1.460932,0.146485 -2.320311,0.146485 z m 3.082032,-7.910157 c 2.1172,0 3.1875,-1.417954 3.21094,-4.253906 v -0.445312 c -0.0156,-1.273444 -0.28125,-2.257809 -0.79688,-2.953125 -0.51563,-0.695316 -1.26952,-1.046875 -2.26172,-1.054688 -1.125003,0 -1.976557,0.384762 -2.554685,1.154297 -0.578127,0.769535 -0.867187,1.806634 -0.867187,3.111328 0,1.257819 0.291013,2.312496 0.873047,3.164063 0.582034,0.851566 1.380854,1.277343 2.396485,1.277343 z m 13.30078,2.378907 c -1.89845,0 -3.41796,-0.324216 -4.55859,-0.972657 l 0.3164,-2.308593 c 0.51563,0.281251 1.17187,0.533202 1.96875,0.755859 0.79688,0.222657 1.52344,0.333984 2.17969,0.333984 0.67969,0 1.20898,-0.126952 1.58789,-0.380859 0.37891,-0.253908 0.57227,-0.626951 0.58008,-1.119141 0,-0.445314 -0.17773,-0.796873 -0.5332,-1.054687 -0.35547,-0.257814 -1.0332,-0.578123 -2.03321,-0.960938 -0.34375,-0.125 -0.5664,-0.207031 -0.66797,-0.246093 -1.1875,-0.46094 -2.04296,-0.974607 -2.5664,-1.541016 -0.52344,-0.566409 -0.78516,-1.33398 -0.78516,-2.302734 0,-1.171881 0.42383,-2.07031 1.27149,-2.695313 0.84766,-0.625003 2.02929,-0.9375 3.54492,-0.9375 1.64063,0 3.08202,0.308591 4.32422,0.925781 l -0.76172,2.121094 c -1.22657,-0.570315 -2.39453,-0.855469 -3.50391,-0.855469 -0.61719,0 -1.09961,0.103515 -1.44726,0.310547 -0.34766,0.207033 -0.52149,0.521483 -0.52149,0.94336 0,0.398439 0.16797,0.708983 0.50391,0.93164 0.33594,0.222658 0.99218,0.51367 1.96875,0.873047 0.0312,0.0078 0.13281,0.04297 0.30469,0.105469 0.17187,0.0625 0.30468,0.113281 0.39843,0.152344 1.1797,0.429689 2.04688,0.943356 2.60157,1.541015 0.55469,0.59766 0.83203,1.376949 0.83203,2.337891 -0.008,1.289069 -0.44531,2.285153 -1.3125,2.988281 -0.8672,0.703129 -2.09765,1.054688 -3.69141,1.054688 z M 64.030547,82.486265 V 65.318296 h 3.175781 v 7.019531 h 7.757812 v -7.019531 h 3.175782 V 82.486265 H 74.96414 V 74.84564 h -7.757812 v 7.640625 z m 20.015625,0 -3.902344,-12.878907 h 3.128906 l 2.472656,9.445313 c 0.05469,-0.179688 0.499996,-1.714829 1.335938,-4.605469 0.835942,-2.890639 1.308593,-4.503905 1.417969,-4.839844 h 3.152343 c 0.101563,0.328127 0.550778,1.925767 1.347657,4.792969 0.796879,2.867202 1.226562,4.406249 1.289062,4.617188 l 2.542969,-9.410157 h 3.082031 l -4.03125,12.878907 h -3.058594 c -0.101563,-0.33594 -0.576167,-2.035141 -1.423828,-5.097657 -0.84766,-3.062515 -1.30664,-4.714842 -1.376953,-4.957031 -0.156251,0.570315 -0.654292,2.289048 -1.494141,5.15625 -0.839847,2.867202 -1.326171,4.499998 -1.458984,4.898438 z m 18.257808,5.425781 c -0.5,0 -1.03124,-0.03125 -1.59375,-0.09375 l -0.15234,-2.378906 c 0.35938,0.03906 0.8164,0.05859 1.37109,0.05859 0.71095,0 1.28125,-0.140623 1.71094,-0.421875 0.42969,-0.281251 0.78516,-0.781246 1.06641,-1.5 0.0312,-0.07813 0.1875,-0.519527 0.46875,-1.324218 L 99.99539,69.607358 h 3.28125 l 3.38672,9.339844 c 0.25,-0.929692 0.81054,-2.656237 1.68164,-5.179687 0.8711,-2.523451 1.34961,-3.910155 1.43555,-4.160157 h 3.28125 c -3.57033,9.437548 -5.3711,14.195313 -5.40235,14.273438 -0.55469,1.44532 -1.2539,2.478512 -2.09765,3.099609 -0.84376,0.621097 -1.92968,0.931641 -3.25782,0.931641 z"
             id="Kings-Hwy"
             inkscape:connector-curvature="0"
             style="fill:#fa4359" />
          <rect
             id="Rectangle-4-[30-60]"
             x="3.5"
             y="3.5"
             width="169.25539"
             height="109.74982"
             rx="54.874912"
             style="stroke:#fa4359;stroke-width:7" />
        </g>
        <g
           id="Group-4"
           transform="translate(201.43472,224.23378)">
          <path
             d="M 56.52652,51.600717 62.842926,34.42103 h 3.457031 l 6.222657,17.179687 h -3.257813 l -1.699219,-4.851562 h -6.011718 l -1.710938,4.851562 z m 5.824219,-7.21875 h 4.40625 C 65.350732,39.874132 64.628083,37.546031 64.58902,37.397592 Z m 15.304687,7.21875 -5.132812,-12.878906 h 3.257812 c 0.125001,0.351564 0.521481,1.44335 1.189453,3.275391 0.667972,1.83204 1.111327,3.080075 1.330078,3.74414 0.445315,1.296882 0.765624,2.277341 0.960938,2.941407 0,-0.0078 0.06641,-0.261717 0.199219,-0.761719 0.132813,-0.500003 0.259765,-0.970701 0.380859,-1.412109 0.121094,-0.441409 0.197266,-0.708984 0.228516,-0.802735 0.0078,-0.01563 0.36523,-1.093739 1.072265,-3.234375 0.707035,-2.140636 1.126953,-3.390623 1.259766,-3.75 h 3.234375 l -4.875,12.878906 z m 15.527344,0.246094 c -2.070323,0 -3.681635,-0.595697 -4.833984,-1.787109 -1.15235,-1.191412 -1.728516,-2.83788 -1.728516,-4.939453 0,-2.046886 0.542963,-3.675776 1.628906,-4.886719 1.085943,-1.210944 2.566397,-1.820313 4.441406,-1.828125 1.773447,0 3.150386,0.554682 4.13086,1.664062 0.980473,1.109381 1.470703,2.582022 1.470703,4.417969 0,0.132813 -0.002,0.347655 -0.0059,0.644531 -0.0039,0.296877 -0.0059,0.515625 -0.0059,0.65625 H 89.71402 c 0.03125,1.203131 0.361325,2.134763 0.990234,2.794922 0.62891,0.66016 1.494135,0.990235 2.595703,0.990235 1.406257,0 2.757806,-0.367184 4.054688,-1.101563 l 0.433594,2.179688 c -1.289069,0.796879 -2.82421,1.195312 -4.605469,1.195312 z m -3.410156,-7.992187 h 5.625 c 0,-1.046881 -0.238279,-1.85156 -0.714844,-2.414063 -0.476565,-0.562503 -1.136715,-0.84375 -1.980469,-0.84375 -0.789066,0 -1.455075,0.273435 -1.998047,0.820313 -0.542971,0.546877 -0.853515,1.359369 -0.93164,2.4375 z m 12.328126,7.957031 c -0.50782,0 -0.9375,-0.17578 -1.28906,-0.527344 -0.35157,-0.351564 -0.52735,-0.769529 -0.52735,-1.253906 0,-0.49219 0.17383,-0.917967 0.52149,-1.277344 0.34766,-0.359377 0.77929,-0.539062 1.29492,-0.539062 0.5,0 0.92187,0.179685 1.26562,0.539062 0.34376,0.359377 0.51563,0.785154 0.51563,1.277344 0,0.484377 -0.17187,0.902342 -0.51563,1.253906 -0.34375,0.351564 -0.76562,0.527344 -1.26562,0.527344 z M 73.612457,82.600717 V 65.432749 h 3.175782 v 7.019531 h 7.757812 v -7.019531 h 3.175781 v 17.167968 h -3.175781 v -7.640625 h -7.757812 v 7.640625 z"
             id="Ave.-H"
             inkscape:connector-curvature="0"
             style="fill:#fa4359" />
          <rect
             id="Rectangle-4-Copy-2-[30-60]"
             x="3.5"
             y="3.5"
             width="154.33429"
             height="109.74982"
             rx="54.874912"
             style="stroke:#fa4359;stroke-width:7" />
        </g>
        <g
           id="Group-5"
           transform="translate(774.03156,396.57876)">
          <path
             d="M 58.409007,52.584799 V 35.369955 h 6.363282 c 0.867191,0 1.619137,0.03906 2.255859,0.117187 0.636722,0.07813 1.242185,0.220702 1.816406,0.427735 0.574222,0.207032 1.039061,0.486326 1.394532,0.83789 0.35547,0.351565 0.636717,0.810544 0.84375,1.376954 0.207032,0.566409 0.310546,1.236324 0.310546,2.009765 0,2.281262 -1.035145,3.781247 -3.105468,4.5 0.421877,0.476565 0.945309,1.359369 1.570312,2.648438 l 2.554688,5.296875 h -3.46875 l -2.003907,-4.488282 c -0.757816,-1.609383 -1.226561,-2.562498 -1.40625,-2.859375 -0.132813,-0.0078 -0.574215,-0.01172 -1.324218,-0.01172 l -2.660157,-0.02344 v 7.382813 z m 6.644532,-9.65625 c 1.218756,0 2.093747,-0.216795 2.625,-0.650391 0.531252,-0.433596 0.796875,-1.130855 0.796875,-2.091797 0,-0.843754 -0.269529,-1.464842 -0.808594,-1.863281 -0.539065,-0.39844 -1.363276,-0.597656 -2.472656,-0.597656 h -3.644532 v 5.191406 c 0.117188,0 0.699214,0.002 1.746094,0.0059 1.04688,0.0039 1.632812,0.0059 1.757813,0.0059 z m 15.09375,7.570312 c 1.039067,0 1.820309,-0.378902 2.34375,-1.136719 0.52344,-0.757816 0.785156,-1.843743 0.785156,-3.257812 0,-1.429695 -0.261716,-2.519528 -0.785156,-3.269531 -0.523441,-0.750004 -1.312495,-1.125 -2.367188,-1.125 -1.039068,0 -1.822263,0.376949 -2.349609,1.130859 -0.527347,0.75391 -0.791016,1.845696 -0.791016,3.275391 0,1.406257 0.265622,2.488277 0.796875,3.246093 0.531253,0.757817 1.320307,1.136719 2.367188,1.136719 z m -0.08203,2.332031 c -1.906259,0 -3.406244,-0.617181 -4.5,-1.851562 -1.093755,-1.234381 -1.640625,-2.859365 -1.640625,-4.875 0,-2.078135 0.54687,-3.716791 1.640625,-4.916016 1.093756,-1.199224 2.636709,-1.798828 4.628907,-1.798828 1.921884,0 3.427729,0.611322 4.517578,1.833985 1.089849,1.222662 1.634765,2.849599 1.634765,4.880859 0,2.054698 -0.550775,3.689447 -1.652343,4.904297 -1.101568,1.21485 -2.644522,1.822265 -4.628907,1.822265 z m 14.425782,0 c -1.96876,0 -3.501948,-0.585931 -4.59961,-1.757812 -1.097661,-1.171881 -1.646484,-2.847645 -1.646484,-5.027344 0,-2.109385 0.576166,-3.746088 1.728516,-4.910156 1.152349,-1.164068 2.669912,-1.746094 4.552734,-1.746094 1.50782,0 2.781245,0.324216 3.820312,0.972656 l -0.726562,2.191407 c -1.062506,-0.554691 -2.050777,-0.832032 -2.964844,-0.832032 -1.039068,0 -1.857419,0.37109 -2.455078,1.113282 -0.597659,0.742191 -0.896484,1.824211 -0.896484,3.246093 0,1.437508 0.294918,2.531247 0.884765,3.28125 0.589847,0.750004 1.423823,1.125 2.501953,1.125 1.125006,0 2.207026,-0.332027 3.246094,-0.996093 l 0.292969,2.332031 c -0.539065,0.359377 -1.097654,0.617187 -1.675781,0.773437 -0.578128,0.156251 -1.265621,0.234375 -2.0625,0.234375 z m 6.175779,-0.246093 v -17.625 l 3.07031,-0.199219 v 7.910156 l -0.0703,2.601563 c 0.008,-0.0078 0.0879,-0.08594 0.24023,-0.234375 0.15235,-0.148439 0.23633,-0.230469 0.25196,-0.246094 0.42969,-0.507815 0.89648,-1.031247 1.40039,-1.570313 0.50391,-0.539065 1.14062,-1.199214 1.91015,-1.980468 0.76954,-0.781254 1.27149,-1.292968 1.50586,-1.535157 h 3.65625 l -5.29687,5.484375 5.63672,7.394532 h -3.71485 l -4.24218,-5.847657 -1.27735,1.007813 v 4.839844 z m 17.14453,0.246093 c -1.19532,0 -2.16211,-0.330074 -2.90039,-0.990234 -0.73828,-0.66016 -1.10742,-1.611322 -1.10742,-2.853516 0,-1.335944 0.43749,-2.326168 1.3125,-2.970703 0.875,-0.644534 2.1953,-1.052733 3.96094,-1.224609 0.24218,-0.03125 0.5039,-0.0625 0.78515,-0.09375 0.28125,-0.03125 0.59766,-0.0625 0.94922,-0.09375 0.35156,-0.03125 0.62891,-0.05859 0.83203,-0.08203 v -0.679688 c 0,-0.781254 -0.17968,-1.349607 -0.53906,-1.705078 -0.35938,-0.35547 -0.90625,-0.533203 -1.64062,-0.533203 -1.04688,0 -2.33984,0.292966 -3.87891,0.878906 -0.008,-0.02344 -0.13672,-0.378903 -0.38672,-1.066406 -0.25,-0.687504 -0.37891,-1.039063 -0.38672,-1.054688 1.51563,-0.64844 3.15624,-0.972656 4.92188,-0.972656 1.73438,0 2.99609,0.376949 3.78515,1.13086 0.78907,0.75391 1.1836,1.9746 1.1836,3.662109 V 52.5848 h -2.27344 c -0.008,-0.03125 -0.0937,-0.292967 -0.25781,-0.785157 -0.16407,-0.49219 -0.2461,-0.753906 -0.2461,-0.785156 -0.64063,0.625003 -1.26757,1.083983 -1.88086,1.376953 -0.61328,0.29297 -1.35741,0.439453 -2.23242,0.439452 z m 0.83203,-2.179687 c 0.71094,0 1.33008,-0.16992 1.85742,-0.509766 0.52735,-0.339845 0.9043,-0.75195 1.13086,-1.236328 v -2.484375 c -0.0234,0 -0.22851,0.01563 -0.61523,0.04687 -0.38672,0.03125 -0.5957,0.04687 -0.62695,0.04687 -1.2422,0.109376 -2.15235,0.343748 -2.73047,0.703125 -0.57813,0.359377 -0.86719,0.937496 -0.86719,1.734375 0,0.546878 0.16016,0.966796 0.48047,1.259766 0.32031,0.29297 0.77734,0.439453 1.37109,0.439453 z m 11.64844,1.933594 -3.90234,-12.878907 h 3.1289 l 2.47266,9.445313 c 0.0547,-0.179689 0.49999,-1.714829 1.33594,-4.605469 0.83594,-2.890639 1.30859,-4.503904 1.41796,-4.839844 h 3.15235 c 0.10156,0.328127 0.55078,1.925767 1.34765,4.792969 0.79688,2.867202 1.22657,4.406249 1.28907,4.617188 l 2.54297,-9.410157 h 3.08203 l -4.03125,12.878907 h -3.0586 c -0.10156,-0.335939 -0.57616,-2.035141 -1.42383,-5.097657 -0.84766,-3.062515 -1.30664,-4.714842 -1.37695,-4.957031 -0.15625,0.570315 -0.65429,2.289048 -1.49414,5.15625 -0.83985,2.867202 -1.32617,4.499998 -1.45898,4.898438 z m 20.97656,0.246093 c -1.19532,0 -2.1621,-0.330074 -2.90039,-0.990234 -0.73828,-0.66016 -1.10742,-1.611322 -1.10742,-2.853516 0,-1.335944 0.4375,-2.326168 1.3125,-2.970703 0.875,-0.644534 2.1953,-1.052733 3.96094,-1.224609 0.24219,-0.03125 0.5039,-0.0625 0.78515,-0.09375 0.28125,-0.03125 0.59766,-0.0625 0.94922,-0.09375 0.35157,-0.03125 0.62891,-0.05859 0.83203,-0.08203 v -0.679688 c 0,-0.781254 -0.17968,-1.349607 -0.53906,-1.705078 -0.35938,-0.35547 -0.90625,-0.533203 -1.64062,-0.533203 -1.04688,0 -2.33984,0.292966 -3.87891,0.878906 -0.008,-0.02344 -0.13672,-0.378903 -0.38672,-1.066406 -0.25,-0.687504 -0.37891,-1.039063 -0.38672,-1.054688 1.51563,-0.64844 3.15624,-0.972656 4.92188,-0.972656 1.73438,0 2.99609,0.376949 3.78515,1.13086 0.78907,0.75391 1.1836,1.9746 1.1836,3.662109 V 52.5848 h -2.27344 c -0.008,-0.03125 -0.0937,-0.292967 -0.25781,-0.785157 -0.16407,-0.49219 -0.2461,-0.753906 -0.2461,-0.785156 -0.64063,0.625003 -1.26757,1.083983 -1.88086,1.376953 -0.61328,0.29297 -1.35741,0.439453 -2.23242,0.439452 z m 0.83203,-2.179687 c 0.71094,0 1.33008,-0.16992 1.85742,-0.509766 0.52735,-0.339845 0.9043,-0.75195 1.13086,-1.236328 v -2.484375 c -0.0234,0 -0.22851,0.01563 -0.61523,0.04687 -0.38672,0.03125 -0.5957,0.04687 -0.62695,0.04687 -1.2422,0.109376 -2.15234,0.343748 -2.73047,0.703125 -0.57813,0.359377 -0.86719,0.937496 -0.86719,1.734375 0,0.546878 0.16016,0.966796 0.48047,1.259766 0.32031,0.29297 0.77734,0.439453 1.37109,0.439453 z m 9.83203,7.359375 c -0.5,0 -1.03124,-0.03125 -1.59375,-0.09375 l -0.15234,-2.378906 c 0.35938,0.03906 0.8164,0.05859 1.37109,0.05859 0.71095,0 1.28125,-0.140623 1.71094,-0.421875 0.42969,-0.281251 0.78516,-0.781246 1.06641,-1.5 0.0312,-0.07813 0.1875,-0.519527 0.46875,-1.324218 l -5.17969,-12.644532 h 3.28125 l 3.38672,9.339844 c 0.25,-0.929692 0.81054,-2.656237 1.68164,-5.179687 0.8711,-2.52345 1.34961,-3.910155 1.43555,-4.160157 h 3.28125 c -3.57033,9.437548 -5.3711,14.195312 -5.40235,14.273438 -0.55469,1.44532 -1.2539,2.478512 -2.09765,3.099609 -0.84376,0.621097 -1.92968,0.931641 -3.25782,0.931641 z"
             id="Rockaway"
             inkscape:connector-curvature="0"
             style="fill:#fa4359" />
          <rect
             id="Rectangle-4-Copy-[30-60]"
             x="3.5"
             y="3.5"
             width="222.41176"
             height="79.172485"
             rx="39.586243"
             style="stroke:#fa4359;stroke-width:7" />
        </g>
        <g
           id="Group-3"
           transform="translate(633.21377,1102.6372)">
          <path
             d="m 65.748588,62.705157 c -2.507825,0 -4.496087,-0.789055 -5.964844,-2.367188 -1.468757,-1.578133 -2.203125,-3.757798 -2.203125,-6.539062 0,-2.640639 0.76757,-4.759758 2.302734,-6.357422 1.535164,-1.597664 3.54491,-2.396485 6.029297,-2.396485 2.007823,0 3.707025,0.46484 5.097656,1.394532 l -0.996093,2.402343 c -1.335944,-0.820316 -2.679681,-1.230468 -4.03125,-1.230468 -1.578133,0 -2.826168,0.568353 -3.744141,1.705078 -0.917973,1.136724 -1.376953,2.6621 -1.376953,4.576172 0,1.984385 0.443355,3.519525 1.330078,4.605468 0.886723,1.085943 2.150383,1.628907 3.791016,1.628907 1.437507,0 2.863274,-0.359372 4.277343,-1.078125 l 0.421875,2.484375 c -1.312506,0.781254 -2.957021,1.171875 -4.933593,1.171875 z m 13.078125,-2.332032 c 1.039067,0 1.82031,-0.378902 2.34375,-1.136718 0.52344,-0.757817 0.785156,-1.843743 0.785156,-3.257813 0,-1.429694 -0.261716,-2.519527 -0.785156,-3.269531 -0.52344,-0.750004 -1.312495,-1.125 -2.367188,-1.125 -1.039068,0 -1.822263,0.376949 -2.349609,1.130859 -0.527347,0.75391 -0.791016,1.845696 -0.791016,3.275391 0,1.406257 0.265623,2.488277 0.796875,3.246094 0.531253,0.757816 1.320307,1.136718 2.367188,1.136718 z m -0.08203,2.332032 c -1.906259,0 -3.406244,-0.617182 -4.5,-1.851563 -1.093755,-1.234381 -1.640625,-2.859365 -1.640625,-4.875 0,-2.078135 0.54687,-3.716791 1.640625,-4.916015 1.093756,-1.199225 2.636709,-1.798829 4.628907,-1.798829 1.921884,0 3.427729,0.611323 4.517578,1.833985 1.089849,1.222662 1.634765,2.849599 1.634765,4.880859 0,2.054698 -0.550775,3.689447 -1.652343,4.904297 -1.101568,1.21485 -2.644522,1.822266 -4.628907,1.822266 z m 8.789063,-0.246094 V 49.580157 H 90.0064 l 0.339844,1.628906 c 1.312506,-1.296881 2.769523,-1.945313 4.371094,-1.945313 1.500007,0 2.623043,0.431637 3.36914,1.294922 0.746098,0.863286 1.119141,2.115226 1.119141,3.75586 v 8.144531 h -3.082031 v -7.769531 c -0.0078,-1.039068 -0.17578,-1.816404 -0.503907,-2.332032 -0.328126,-0.515627 -0.917964,-0.773437 -1.769531,-0.773437 -0.664066,0 -1.271481,0.16992 -1.822265,0.509766 -0.550784,0.339845 -0.951171,0.767575 -1.201172,1.283203 -0.148439,0.609378 -0.222657,1.546868 -0.222657,2.8125 v 6.269531 z m 20.648434,0.246094 c -2.07032,0 -3.68163,-0.595698 -4.83398,-1.78711 -1.15235,-1.191412 -1.72852,-2.83788 -1.72852,-4.939453 0,-2.046885 0.54296,-3.675775 1.62891,-4.886719 1.08594,-1.210943 2.56639,-1.820312 4.4414,-1.828125 1.77345,0 3.15039,0.554682 4.13086,1.664063 0.98048,1.10938 1.47071,2.582022 1.47071,4.417969 0,0.132813 -0.002,0.347654 -0.006,0.644531 -0.004,0.296876 -0.006,0.515624 -0.006,0.65625 h -8.56641 c 0.0312,1.203131 0.36133,2.134762 0.99024,2.794922 0.62891,0.660159 1.49413,0.990234 2.5957,0.990234 1.40626,0 2.75781,-0.367184 4.05469,-1.101562 l 0.43359,2.179687 c -1.28907,0.796879 -2.82421,1.195313 -4.60547,1.195313 z m -3.41015,-7.992188 h 5.625 c 0,-1.04688 -0.23828,-1.85156 -0.71485,-2.414062 -0.47656,-0.562503 -1.13671,-0.84375 -1.98047,-0.84375 -0.78906,0 -1.45507,0.273434 -1.99804,0.820312 -0.54298,0.546878 -0.85352,1.35937 -0.93164,2.4375 z m 11.69531,13.171875 c -0.5,0 -1.03125,-0.03125 -1.59375,-0.09375 l -0.15235,-2.378906 c 0.35938,0.03906 0.81641,0.05859 1.3711,0.05859 0.71094,0 1.28125,-0.140624 1.71094,-0.421875 0.42968,-0.281252 0.78515,-0.781247 1.0664,-1.5 0.0312,-0.07813 0.1875,-0.519528 0.46875,-1.324219 l -5.17969,-12.644531 h 3.28125 L 120.82671,58.92 c 0.25,-0.929692 0.81054,-2.656237 1.68164,-5.179687 0.8711,-2.52345 1.34961,-3.910155 1.43555,-4.160156 h 3.28125 c -3.57033,9.437547 -5.37109,14.195312 -5.40234,14.273437 -0.55469,1.44532 -1.25391,2.478513 -2.09766,3.09961 -0.84375,0.621096 -1.92968,0.93164 -3.25781,0.93164 z M 58.97515,93.459063 V 76.291094 h 3.175781 v 17.167969 z m 10.792969,0.234375 c -1.898447,0 -3.417963,-0.324216 -4.558594,-0.972656 l 0.316406,-2.308594 c 0.515628,0.281251 1.171871,0.533202 1.96875,0.755859 0.796879,0.222658 1.523435,0.333985 2.179688,0.333985 0.679691,0 1.208982,-0.126952 1.587891,-0.38086 0.378908,-0.253907 0.572265,-0.62695 0.580078,-1.11914 0,-0.445315 -0.177733,-0.796874 -0.533203,-1.054688 -0.355471,-0.257814 -1.033199,-0.578123 -2.033204,-0.960937 -0.343751,-0.125001 -0.566405,-0.207031 -0.667968,-0.246094 -1.187506,-0.46094 -2.042966,-0.974607 -2.566407,-1.541016 -0.52344,-0.566409 -0.785156,-1.333979 -0.785156,-2.302734 0,-1.171881 0.423824,-2.070309 1.271485,-2.695313 0.84766,-0.625003 2.029289,-0.9375 3.544921,-0.9375 1.640634,0 3.082025,0.308591 4.324219,0.925782 l -0.761719,2.121093 C 72.408738,82.74031 71.240781,82.455157 70.1314,82.455157 c -0.61719,0 -1.099607,0.103514 -1.447265,0.310547 -0.347658,0.207032 -0.521485,0.521482 -0.521485,0.943359 0,0.398439 0.167967,0.708983 0.503906,0.931641 0.33594,0.222657 0.992183,0.51367 1.96875,0.873046 0.03125,0.0078 0.132812,0.04297 0.304688,0.105469 0.171876,0.0625 0.304687,0.113281 0.398437,0.152344 1.179694,0.42969 2.046873,0.943356 2.601563,1.541016 0.55469,0.597659 0.832031,1.376948 0.832031,2.33789 -0.0078,1.289069 -0.445308,2.285153 -1.3125,2.988281 -0.867192,0.703129 -2.097648,1.054688 -3.691406,1.054688 z m 11.941406,-0.05859 c -0.882817,0 -1.615231,-0.103514 -2.197265,-0.310547 C 78.930225,93.117269 78.471246,92.787194 78.135306,92.334067 77.799367,91.88094 77.564995,91.341883 77.432181,90.716879 77.299368,90.091876 77.232963,89.31454 77.232963,88.384848 V 75.834063 l 3.070312,-0.199219 V 88.32625 c 0,1.156256 0.136718,1.939452 0.410156,2.34961 0.273439,0.410158 0.804684,0.615234 1.59375,0.615234 0.390627,0 0.886716,-0.04297 1.488282,-0.128906 l 0.08203,2.191406 c -0.0078,0 -0.103515,0.01953 -0.287109,0.05859 -0.183595,0.03906 -0.359375,0.07227 -0.527344,0.09961 -0.16797,0.02734 -0.380858,0.05469 -0.638672,0.08203 -0.257814,0.02734 -0.496093,0.04102 -0.714844,0.04102 z m 7.089844,0.07031 c -1.195319,0 -2.162106,-0.330075 -2.900391,-0.990235 -0.738285,-0.660159 -1.107422,-1.611322 -1.107422,-2.853515 0,-1.335944 0.437496,-2.326169 1.3125,-2.970703 0.875005,-0.644535 2.195304,-1.052734 3.960938,-1.22461 0.242189,-0.03125 0.503905,-0.0625 0.785156,-0.09375 0.281252,-0.03125 0.597655,-0.0625 0.949219,-0.09375 0.351564,-0.03125 0.628905,-0.05859 0.832031,-0.08203 v -0.679688 c 0,-0.781254 -0.179686,-1.349607 -0.539062,-1.705078 -0.359377,-0.35547 -0.906247,-0.533203 -1.640625,-0.533203 -1.046881,0 -2.339836,0.292966 -3.878907,0.878906 -0.0078,-0.02344 -0.136717,-0.378902 -0.386718,-1.066406 -0.250002,-0.687503 -0.378907,-1.039062 -0.386719,-1.054687 1.515632,-0.648441 3.156241,-0.972657 4.921875,-0.972657 1.734384,0 2.99609,0.37695 3.785156,1.13086 0.789067,0.75391 1.183594,1.974601 1.183594,3.662109 v 8.402344 h -2.273438 c -0.0078,-0.03125 -0.09375,-0.292966 -0.257812,-0.785156 -0.164063,-0.49219 -0.246094,-0.753906 -0.246094,-0.785157 -0.640628,0.625004 -1.267575,1.083983 -1.880859,1.376954 -0.613284,0.29297 -1.357418,0.439453 -2.232422,0.439452 z M 89.6314,91.525469 c 0.710941,0 1.330076,-0.16992 1.857422,-0.509765 0.527347,-0.339846 0.904296,-0.751951 1.130859,-1.236329 V 87.295 c -0.02344,0 -0.228513,0.01563 -0.615234,0.04687 -0.386721,0.03125 -0.595703,0.04687 -0.626953,0.04687 -1.242194,0.109376 -2.152341,0.343749 -2.730469,0.703125 -0.578128,0.359377 -0.867187,0.937496 -0.867187,1.734375 0,0.546878 0.160154,0.966796 0.480468,1.259766 0.320314,0.29297 0.777341,0.439453 1.371094,0.439453 z m 9.152344,1.933594 V 80.580157 h 2.472656 l 0.33984,1.628906 c 1.31251,-1.296881 2.76953,-1.945313 4.3711,-1.945313 1.5,0 2.62304,0.431637 3.36914,1.294922 0.7461,0.863286 1.11914,2.115227 1.11914,3.75586 v 8.144531 h -3.08203 v -7.769531 c -0.008,-1.039068 -0.17578,-1.816404 -0.50391,-2.332032 -0.32812,-0.515627 -0.91796,-0.773437 -1.76953,-0.773437 -0.66407,0 -1.27148,0.16992 -1.82227,0.509766 -0.55078,0.339845 -0.95117,0.767575 -1.20117,1.283203 -0.14844,0.609378 -0.22265,1.546868 -0.22265,2.8125 v 6.269531 z m 19.488286,0.246094 c -1.6797,0 -3,-0.617182 -3.96094,-1.851563 -0.96095,-1.234381 -1.44141,-2.882802 -1.44141,-4.945312 0,-2.00001 0.47851,-3.607416 1.43555,-4.822266 0.95703,-1.21485 2.27538,-1.822266 3.95508,-1.822266 1.82813,0 3.12109,0.648432 3.8789,1.945313 -0.0781,-0.765629 -0.11718,-1.503903 -0.11718,-2.214844 v -4.160156 l 3.07031,-0.199219 v 17.824219 h -2.66016 l -0.33984,-1.757813 c -0.13281,0.210939 -0.25586,0.392578 -0.36914,0.544922 -0.11328,0.152345 -0.2793,0.328124 -0.49805,0.527344 -0.21875,0.19922 -0.45508,0.359375 -0.70898,0.480469 -0.25391,0.121094 -0.57422,0.226562 -0.96094,0.316406 -0.38672,0.08984 -0.81445,0.134766 -1.2832,0.134766 z m 0.72656,-2.332032 c 2.06251,0 3.10937,-1.402329 3.14062,-4.207031 0,-1.585945 -0.26562,-2.742184 -0.79687,-3.46875 -0.53125,-0.726566 -1.32422,-1.089844 -2.37891,-1.089844 -0.92188,0 -1.6582,0.369137 -2.20898,1.107422 -0.55079,0.738285 -0.82617,1.826165 -0.82617,3.263672 0,1.429695 0.27538,2.519528 0.82617,3.269531 0.55078,0.750004 1.29882,1.125 2.24414,1.125 z"
             id="Coney-Island"
             inkscape:connector-curvature="0"
             style="fill:#fa4359" />
          <rect
             id="Rectangle-4-Copy-3-[30-60]"
             x="3.5"
             y="3.5"
             width="176.71593"
             height="125.20339"
             rx="62.601696"
             style="stroke:#fa4359;stroke-width:7" />
        </g>
        <g
           id="Group-2"
           transform="translate(427.11621,708.8382)">
          <path
             d="m 64.34417,51.61956 c -2.250011,0 -3.957025,-0.560542 -5.121093,-1.681641 -1.164069,-1.121099 -1.746094,-2.701162 -1.746094,-4.740234 V 34.205497 h 3.1875 v 10.722656 c 0,1.429695 0.291012,2.472653 0.873047,3.128907 0.582034,0.656253 1.537102,0.984375 2.865234,0.984375 1.304694,0 2.249997,-0.330075 2.835938,-0.990235 0.58594,-0.660159 0.878906,-1.705071 0.878906,-3.134765 V 34.205497 h 3.175781 v 11.015625 c 0,2.023448 -0.593744,3.595698 -1.78125,4.716797 -1.187506,1.121099 -2.910145,1.681641 -5.167969,1.681641 z m 15.351563,-0.07031 c -0.875004,0 -1.603513,-0.103515 -2.185547,-0.310547 -0.582034,-0.207032 -1.037108,-0.533201 -1.365234,-0.978515 -0.328127,-0.445315 -0.560547,-0.970701 -0.697266,-1.576172 -0.136719,-0.605472 -0.205078,-1.353512 -0.205078,-2.244141 v -6.082031 h -2.109375 l 0.117187,-1.664063 2.203125,-0.199218 0.984375,-3.492188 1.875,-0.01172 v 3.503907 h 3.199219 v 1.863281 H 78.31292 v 6.140625 c 0,0.976567 0.140624,1.671873 0.421875,2.085937 0.281252,0.414065 0.800778,0.621094 1.558594,0.621094 0.445315,0 0.921872,-0.03906 1.429688,-0.117187 l 0.08203,2.203125 c -0.01563,0 -0.111327,0.01758 -0.287109,0.05273 -0.175783,0.03516 -0.34375,0.06641 -0.503907,0.09375 -0.160157,0.02734 -0.365233,0.05273 -0.615234,0.07617 -0.250001,0.02344 -0.484374,0.03516 -0.703125,0.03516 z M 84.03167,51.373466 V 38.49456 h 3.070313 v 12.878906 z m 0,-14.753906 v -2.625 h 3.082032 v 2.625 z m 11.90625,15 c -1.96876,0 -3.501947,-0.585932 -4.599609,-1.757813 -1.097662,-1.171881 -1.646484,-2.847645 -1.646484,-5.027344 0,-2.109385 0.576166,-3.746088 1.728515,-4.910156 1.15235,-1.164068 2.669913,-1.746094 4.552735,-1.746094 1.50782,0 2.781244,0.324216 3.820312,0.972657 l -0.726562,2.191406 c -1.062506,-0.554691 -2.050777,-0.832031 -2.964844,-0.832031 -1.039068,0 -1.857419,0.37109 -2.455078,1.113281 -0.59766,0.742191 -0.896485,1.824211 -0.896485,3.246094 0,1.437507 0.294919,2.531246 0.884766,3.28125 0.589847,0.750003 1.423823,1.125 2.501953,1.125 1.125006,0 2.207026,-0.332028 3.246094,-0.996094 l 0.292969,2.332031 c -0.539066,0.359377 -1.097654,0.617187 -1.675782,0.773438 -0.578128,0.15625 -1.265621,0.234375 -2.0625,0.234375 z m 9.57422,0 c -1.19532,0 -2.16211,-0.330075 -2.90039,-0.990235 -0.73829,-0.660159 -1.10742,-1.611322 -1.10742,-2.853515 0,-1.335945 0.43749,-2.326169 1.3125,-2.970704 0.875,-0.644534 2.1953,-1.052733 3.96093,-1.224609 0.24219,-0.03125 0.50391,-0.0625 0.78516,-0.09375 0.28125,-0.03125 0.59765,-0.0625 0.94922,-0.09375 0.35156,-0.03125 0.6289,-0.05859 0.83203,-0.08203 v -0.679688 c 0,-0.781254 -0.17968,-1.349607 -0.53906,-1.705078 -0.35938,-0.35547 -0.90625,-0.533203 -1.64063,-0.533203 -1.04688,0 -2.33983,0.292966 -3.8789,0.878906 -0.008,-0.02344 -0.13672,-0.378903 -0.38672,-1.066406 -0.25,-0.687503 -0.37891,-1.039062 -0.38672,-1.054687 1.51563,-0.648441 3.15624,-0.972657 4.92187,-0.972657 1.73439,0 2.99609,0.37695 3.78516,1.13086 0.78907,0.75391 1.18359,1.974601 1.18359,3.662109 v 8.402344 h -2.27343 c -0.008,-0.03125 -0.0937,-0.292966 -0.25782,-0.785156 -0.16406,-0.49219 -0.24609,-0.753907 -0.24609,-0.785157 -0.64063,0.625003 -1.26758,1.083983 -1.88086,1.376953 -0.61328,0.292971 -1.35742,0.439454 -2.23242,0.439453 z m 0.83203,-2.179688 c 0.71094,0 1.33008,-0.16992 1.85742,-0.509766 0.52735,-0.339845 0.9043,-0.75195 1.13086,-1.236328 v -2.484375 c -0.0234,0 -0.22851,0.01563 -0.61523,0.04687 -0.38672,0.03125 -0.59571,0.04687 -0.62696,0.04687 -1.24219,0.109376 -2.15234,0.343748 -2.73046,0.703125 -0.57813,0.359377 -0.86719,0.937496 -0.86719,1.734375 0,0.546878 0.16015,0.966796 0.48047,1.259766 0.32031,0.29297 0.77734,0.439453 1.37109,0.439453 z M 60.723077,82.373466 67.039483,65.193778 h 3.457031 L 76.71917,82.373466 H 73.461358 L 71.762139,77.521903 H 65.75042 l -1.710937,4.851563 z m 5.824218,-7.21875 h 4.40625 C 69.547288,70.646881 68.824639,68.318779 68.785577,68.170341 Z M 81.851983,82.373466 76.71917,69.49456 h 3.257813 c 0.125001,0.351564 0.521481,1.44335 1.189453,3.27539 0.667972,1.832041 1.111327,3.080075 1.330078,3.744141 0.445315,1.296881 0.765624,2.27734 0.960938,2.941406 0,-0.0078 0.06641,-0.261716 0.199218,-0.761719 0.132814,-0.500002 0.259765,-0.970701 0.38086,-1.412109 0.121094,-0.441409 0.197265,-0.708984 0.228515,-0.802734 0.0078,-0.01563 0.365231,-1.09374 1.072266,-3.234375 0.707035,-2.140636 1.126952,-3.390624 1.259766,-3.75 h 3.234375 l -4.875,12.878906 z m 15.527344,0.246094 c -2.070323,0 -3.681635,-0.595698 -4.833985,-1.78711 -1.152349,-1.191412 -1.728515,-2.83788 -1.728515,-4.939453 0,-2.046885 0.542963,-3.675775 1.628906,-4.886719 1.085943,-1.210943 2.566397,-1.820312 4.441406,-1.828125 1.773446,0 3.150391,0.554682 4.130861,1.664063 0.98047,1.10938 1.4707,2.582022 1.4707,4.417969 0,0.132813 -0.002,0.347654 -0.006,0.644531 -0.004,0.296876 -0.006,0.515624 -0.006,0.65625 h -8.566403 c 0.03125,1.203131 0.361325,2.134762 0.990234,2.794922 0.628909,0.660159 1.494135,0.990234 2.595703,0.990234 1.406257,0 2.757806,-0.367184 4.054686,-1.101562 l 0.4336,2.179687 c -1.28907,0.796879 -2.824215,1.195313 -4.605473,1.195313 z M 93.96917,74.627372 h 5.625 c 0,-1.04688 -0.238279,-1.85156 -0.714843,-2.414062 -0.476565,-0.562503 -1.136715,-0.84375 -1.980469,-0.84375 -0.789067,0 -1.455076,0.273434 -1.998047,0.820312 -0.542972,0.546878 -0.853515,1.35937 -0.931641,2.4375 z m 12.32813,7.957031 c -0.50782,0 -0.9375,-0.175779 -1.28907,-0.527343 -0.35156,-0.351565 -0.52734,-0.769529 -0.52734,-1.253907 0,-0.49219 0.17382,-0.917967 0.52148,-1.277343 0.34766,-0.359377 0.7793,-0.539063 1.29493,-0.539063 0.5,0 0.92187,0.179686 1.26562,0.539063 0.34375,0.359376 0.51563,0.785153 0.51563,1.277343 0,0.484378 -0.17188,0.902342 -0.51563,1.253907 -0.34375,0.351564 -0.76562,0.527343 -1.26562,0.527343 z"
             id="Utica-Ave."
             inkscape:connector-curvature="0"
             style="fill:#fa4359" />
          <rect
             id="Rectangle-4-Copy-4-[30-60]"
             x="3.5"
             y="3.5"
             width="163.65997"
             height="109.74982"
             rx="54.874912"
             style="stroke:#fa4359;stroke-width:7" />
        </g>
        <path
           d="m 707.81922,116.74982 v 378.18614 c 0,14.3594 -11.64059,26 -26,26 H 537.04735 c -14.35941,0 -26,11.6406 -26,26 v 163.75542"
           id="Path-3"
           inkscape:connector-curvature="0"
           style="stroke:#fa4359;stroke-width:4" />
        <path
           d="m 282.56815,340.05702 v 73.14469 c 0,14.3594 11.6406,26 26,26 H 775.8967"
           id="Path-4"
           inkscape:connector-curvature="0"
           style="stroke:#fa4359;stroke-width:4" />
        <path
           d="m 107.24534,631.00499 v 112.0613 c 0,14.3594 11.64059,26 26,26 h 293.87087"
           id="Path-4-Copy"
           inkscape:connector-curvature="0"
           style="stroke:#fa4359;stroke-width:4" />
        <path
           d="m 360.90387,284.46187 h 134.11862 c 14.35941,0 26.00001,-11.6406 26.00001,-26 V 85.301497 c 0,-14.359404 11.64059,-26 26,-26 h 72.20275"
           id="Path-5"
           inkscape:connector-curvature="0"
           style="stroke:#fa4359;stroke-width:4" />
        <path
           d="m 597.77618,769.06629 h 101.76184 c 14.3594,0 26,11.64059 26,26 v 309.42411"
           id="Path-6"
           inkscape:connector-curvature="0"
           style="stroke:#fa4359;stroke-width:4" />
        <path
           d="m 816.9297,1162.8653 h 74.71736 c 14.3594,0 26,-11.6406 26,-26 V 481.82466"
           id="Path-7"
           inkscape:connector-curvature="0"
           style="stroke:#fa4359;stroke-width:4" />
        <g
           id="Group-7"
           transform="translate(282.56815,838.56023)"
           style="stroke:#ffffff;stroke-width:2;stroke-linecap:round">
          <path
             d="M 0.58285509,67.749354 C 62.033996,67.749354 118.10101,39.977114 152.17618,0.47777085"
             id="Path-8"
             inkscape:connector-curvature="0" />
          <path
             d="M 131.62689,1.1654713 C 141.52624,0.9428109 148.60277,0.64924402 152.85648,0.28477069 152.23477,8.1497213 150.89572,15.743771 148.83933,23.066921"
             id="Path-9"
             inkscape:connector-curvature="0" />
        </g>
        <g
           id="Group-7-Copy-2"
           transform="matrix(0.61566148,-0.78801075,-0.78801075,-0.61566148,524.59632,1299.0262)"
           style="stroke:#ffffff;stroke-width:2;stroke-linecap:round">
          <path
             d="M 0,48.182466 C 55.293497,83.313904 108.50829,40.736947 142.68293,0.92658589"
             id="path38"
             inkscape:connector-curvature="0" />
          <path
             d="M 121.23386,0.89548698 C 131.23555,0.66908825 138.38524,0.37059259 142.68293,0 c -0.62814,7.9969977 -1.98104,15.718547 -4.05868,23.164647"
             id="path40"
             inkscape:connector-curvature="0" />
        </g>
        <g
           id="Group-7-Copy"
           transform="matrix(-0.77714596,-0.62932039,-0.62932039,0.77714596,180.20487,858.43755)"
           style="stroke:#ffffff;stroke-width:2;stroke-linecap:round">
          <path
             d="M 0.69877626,57.66301 C 79.362961,82.587045 151.29246,36.62277 174.82861,1.9528298"
             id="path43"
             inkscape:connector-curvature="0" />
          <path
             d="M 156.34708,2.9086363 C 166.24642,2.6859759 173.32295,2.392409 177.57667,2.0279357 176.95495,9.8928863 175.6159,17.486936 173.55952,24.810086"
             id="path45"
             transform="rotate(-7,166.96187,13.419011)"
             inkscape:connector-curvature="0" />
        </g>
      </g>
    </g>
  </g>
</svg>
