<?xml version="1.0" encoding="UTF-8" standalone="no"?>
<svg
   xmlns:dc="http://purl.org/dc/elements/1.1/"
   xmlns:cc="http://creativecommons.org/ns#"
   xmlns:rdf="http://www.w3.org/1999/02/22-rdf-syntax-ns#"
   xmlns:svg="http://www.w3.org/2000/svg"
   xmlns="http://www.w3.org/2000/svg"
   xmlns:sodipodi="http://sodipodi.sourceforge.net/DTD/sodipodi-0.dtd"
   xmlns:inkscape="http://www.inkscape.org/namespaces/inkscape"
   width="1214px"
   height="1545px"
   viewBox="0 0 1214 1545"
   version="1.1"
   id="svg58"
   sodipodi:docname="route_map_2.svg"
   inkscape:version="0.92.3 (2405546, 2018-03-11)">
  <metadata
     id="metadata62">
    <rdf:RDF>
      <cc:Work
         rdf:about="">
        <dc:format>image/svg+xml</dc:format>
        <dc:type
           rdf:resource="http://purl.org/dc/dcmitype/StillImage" />
        <dc:title>route map 2</dc:title>
      </cc:Work>
    </rdf:RDF>
  </metadata>
  <sodipodi:namedview
     pagecolor="#ffffff"
     bordercolor="#666666"
     borderopacity="1"
     objecttolerance="10"
     gridtolerance="10"
     guidetolerance="10"
     inkscape:pageopacity="0"
     inkscape:pageshadow="2"
     inkscape:window-width="1280"
     inkscape:window-height="657"
     id="namedview60"
     showgrid="false"
     inkscape:zoom="0.15275081"
     inkscape:cx="-208.05297"
     inkscape:cy="772.5"
     inkscape:window-x="-8"
     inkscape:window-y="-8"
     inkscape:window-maximized="1"
     inkscape:current-layer="svg58" />
  <!-- Generator: Sketch 50 (54983) - http://www.bohemiancoding.com/sketch -->
  <title
     id="title2">route map 2</title>
  <desc
     id="desc4">Created with Sketch.</desc>
  <defs
     id="defs6" />
  <rect
     style="opacity:1;fill:#262656;fill-opacity:1;fill-rule:nonzero;stroke:#03f3f4;stroke-width:0.75590551;stroke-linecap:round;stroke-linejoin:miter;stroke-miterlimit:4;stroke-dasharray:none;stroke-dashoffset:0;stroke-opacity:1;paint-order:stroke fill markers"
     id="rect869"
     width="1211.1229"
     height="1577.733"
     x="6.5466104"
     y="-13.093221"
     rx="13.8545" />
  <g
     id="route-map-2"
     style="fill:none;fill-rule:evenodd;stroke:none;stroke-width:1"
     transform="translate(-39.279703,19.639835)">
    <polygon
       id="7"
       points="791.55938,1046.2031 805.62188,1046.2031 805.62188,1048.6562 798.24688,1069 794.05938,1069 800.96563,1049.3438 791.52813,1049.3438 "
       style="fill:#f57a23" />
    <path
       d="m 858.98047,1050 -4.8584,-17.8833 h 3.2959 l 3.4668,13.916 4.07714,-13.8305 h 3.16162 l 3.86963,13.8793 3.54004,-13.9648 h 3.2959 L 873.82422,1050 h -3.43018 l -3.8208,-13.0981 -4.18701,13.0981 z m 27.88086,0.2564 c -2.15659,0 -3.83504,-0.6206 -5.0354,-1.8616 -1.20037,-1.2411 -1.80054,-2.9561 -1.80054,-5.1453 0,-2.1322 0.56559,-3.8289 1.69678,-5.0903 1.13119,-1.2614 2.67333,-1.8962 4.62646,-1.9043 1.84734,0 3.28165,0.5778 4.30298,1.7334 1.02133,1.1556 1.53198,2.6896 1.53198,4.602 0,0.1384 -0.002,0.3622 -0.006,0.6714 -0.004,0.3093 -0.006,0.5371 -0.006,0.6836 h -8.92334 c 0.0326,1.2533 0.37638,2.2237 1.03149,2.9114 0.65512,0.6877 1.55639,1.0315 2.70386,1.0315 1.46485,0 2.87271,-0.3825 4.22363,-1.1475 l 0.45166,2.2705 c -1.34278,0.8301 -2.94188,1.2452 -4.79736,1.2452 z m -3.55225,-8.3253 h 5.85938 c 0,-1.0904 -0.24821,-1.9287 -0.74463,-2.5146 -0.49642,-0.5859 -1.18408,-0.8789 -2.06299,-0.8789 -0.82194,0 -1.5157,0.2848 -2.0813,0.8545 -0.56559,0.5697 -0.88908,1.416 -0.97046,2.539 z M 894.85693,1050 v -13.4155 h 3.19825 V 1050 Z m 0,-15.3686 v -2.7344 h 3.21045 v 2.7344 z m 9.21631,21.3745 -0.1831,-2.5879 h 1.62353 c 1.87989,0 3.19417,-0.2503 3.94287,-0.7508 0.7487,-0.5004 1.12305,-1.418 1.12305,-2.7526 0,-0.5453 -0.0244,-1.1353 -0.0732,-1.7701 -0.21159,0.293 -0.41301,0.5351 -0.60425,0.7264 -0.19124,0.1912 -0.43131,0.3804 -0.72022,0.5676 -0.2889,0.1872 -0.63476,0.3275 -1.03759,0.4211 -0.40284,0.094 -0.8606,0.1404 -1.37329,0.1404 -1.7741,0 -3.23283,-0.6388 -4.37623,-1.9165 -1.14339,-1.2777 -1.71508,-2.9256 -1.71508,-4.9438 0,-1.0743 0.15869,-2.0529 0.47607,-2.9358 0.31739,-0.883 0.7487,-1.6093 1.29395,-2.179 0.54525,-0.5697 1.1739,-1.0071 1.88598,-1.3122 0.71208,-0.3052 1.47095,-0.4578 2.27661,-0.4578 1.79852,0 3.13721,0.6551 4.01612,1.9653 l 0.21973,-1.6357 h 2.85644 v 12.4634 c 0,0.6673 -0.0326,1.2675 -0.0977,1.8005 -0.0651,0.533 -0.17903,1.0457 -0.34179,1.5381 -0.16276,0.4923 -0.37639,0.9216 -0.64087,1.2878 -0.26449,0.3662 -0.59611,0.6999 -0.99487,1.001 -0.39877,0.3011 -0.86874,0.5473 -1.40992,0.7385 -0.54118,0.1913 -1.16983,0.3378 -1.88598,0.4395 -0.71615,0.1017 -1.52181,0.1526 -2.417,0.1526 z m 3.21045,-8.2398 c 2.20542,0 3.32031,-1.477 3.34473,-4.4311 v -0.4639 c -0.0163,-1.3265 -0.29297,-2.3519 -0.83008,-3.0762 -0.53711,-0.7243 -1.32242,-1.0905 -2.35596,-1.0986 -1.17188,0 -2.05891,0.4008 -2.66113,1.2024 -0.60222,0.8016 -0.90332,1.8819 -0.90332,3.241 0,1.3102 0.30314,2.4088 0.90942,3.2959 0.60629,0.887 1.43839,1.3305 2.49634,1.3305 z M 916.854,1050 v -18.3594 l 3.19825,-0.2075 v 3.8696 c 0,0.1872 -0.0122,0.706 -0.0366,1.5564 -0.0244,0.8505 -0.0366,1.2838 -0.0366,1.3001 1.06609,-1.2696 2.49837,-1.9043 4.29688,-1.9043 1.4974,0 2.65909,0.4293 3.48511,1.2878 0.82601,0.8586 1.23901,2.179 1.23901,3.9612 V 1050 h -3.19824 v -8.1421 c 0,-1.0986 -0.17497,-1.9043 -0.52491,-2.417 -0.34993,-0.5127 -0.944,-0.769 -1.78222,-0.769 -0.71615,0 -1.35091,0.181 -1.9043,0.5432 -0.55339,0.3621 -0.96842,0.828 -1.24511,1.3977 -0.19532,0.7487 -0.29297,1.7253 -0.29297,2.9297 V 1050 Z m 20.6543,0.1831 c -0.91146,0 -1.67032,-0.1078 -2.27661,-0.3235 -0.60629,-0.2156 -1.08032,-0.5554 -1.42212,-1.0193 -0.3418,-0.4638 -0.5839,-1.0111 -0.72632,-1.6418 -0.14241,-0.6307 -0.21362,-1.4099 -0.21362,-2.3377 v -6.3354 h -2.19727 l 0.12207,-1.7334 2.29492,-0.2075 1.0254,-3.6377 1.95312,-0.012 v 3.6499 h 3.33252 v 1.9409 h -3.33252 v 6.3965 c 0,1.0172 0.14648,1.7415 0.43945,2.1728 0.29297,0.4313 0.83415,0.647 1.62354,0.647 0.46387,0 0.96028,-0.041 1.48926,-0.1221 l 0.0854,2.295 c -0.0163,0 -0.11597,0.018 -0.29908,0.055 -0.1831,0.037 -0.35807,0.069 -0.5249,0.098 -0.16683,0.029 -0.38045,0.055 -0.64087,0.079 -0.26041,0.024 -0.50455,0.037 -0.73242,0.037 z m 10.64453,0.073 c -2.15658,0 -3.83503,-0.6206 -5.0354,-1.8616 -1.20036,-1.2411 -1.80053,-2.9561 -1.80053,-5.1453 0,-2.1322 0.56558,-3.8289 1.69677,-5.0903 1.13119,-1.2614 2.67333,-1.8962 4.62647,-1.9043 1.84734,0 3.28165,0.5778 4.30298,1.7334 1.02132,1.1556 1.53198,2.6896 1.53198,4.602 0,0.1384 -0.002,0.3622 -0.006,0.6714 -0.004,0.3093 -0.006,0.5371 -0.006,0.6836 h -8.92334 c 0.0326,1.2533 0.37638,2.2237 1.0315,2.9114 0.65511,0.6877 1.55639,1.0315 2.70385,1.0315 1.46485,0 2.87272,-0.3825 4.22363,-1.1475 l 0.45166,2.2705 c -1.34278,0.8301 -2.94188,1.2452 -4.79736,1.2452 z m -3.55224,-8.3253 h 5.85937 c 0,-1.0904 -0.24821,-1.9287 -0.74463,-2.5146 -0.49642,-0.5859 -1.18408,-0.8789 -2.06299,-0.8789 -0.82194,0 -1.5157,0.2848 -2.08129,0.8545 -0.5656,0.5697 -0.88908,1.416 -0.97046,2.539 z m 16.46728,8.3253 c -1.74968,0 -3.12499,-0.6429 -4.12597,-1.9288 -1.00099,-1.2858 -1.50147,-3.0029 -1.50147,-5.1513 0,-2.0834 0.49845,-3.7578 1.49536,-5.0232 0.99691,-1.2655 2.37019,-1.8982 4.11987,-1.8982 1.90431,0 3.25114,0.6754 4.04053,2.0264 -0.0814,-0.7976 -0.12207,-1.5666 -0.12207,-2.3072 v -4.3335 l 3.19824,-0.2075 V 1050 h -2.77099 l -0.35401,-1.831 c -0.13834,0.2197 -0.26652,0.4089 -0.38452,0.5676 -0.118,0.1587 -0.29093,0.3418 -0.5188,0.5493 -0.22786,0.2075 -0.47404,0.3743 -0.73852,0.5005 -0.26449,0.1261 -0.59815,0.236 -1.00098,0.3296 -0.40283,0.094 -0.84839,0.1404 -1.33667,0.1404 z m 0.75684,-2.4292 c 2.14845,0 3.23893,-1.4608 3.27148,-4.3824 0,-1.652 -0.27669,-2.8564 -0.83008,-3.6133 -0.55339,-0.7568 -1.37939,-1.1352 -2.47802,-1.1352 -0.96029,0 -1.7273,0.3845 -2.30103,1.1536 -0.57373,0.769 -0.86059,1.9022 -0.86059,3.3996 0,1.4893 0.28686,2.6245 0.86059,3.4058 0.57373,0.7812 1.35294,1.1719 2.33765,1.1719 z M 855.92871,1082 v -17.8833 h 10.83984 l -0.13427,2.6245 h -7.39746 v 4.6143 h 7.03125 v 2.6245 h -7.03125 v 5.3833 h 7.66601 L 866.79297,1082 Z m 18.75,0.2564 c -1.74968,0 -3.12499,-0.6429 -4.12598,-1.9288 -1.00098,-1.2858 -1.50146,-3.0029 -1.50146,-5.1513 0,-2.0834 0.49845,-3.7578 1.49536,-5.0232 0.99691,-1.2655 2.37019,-1.8982 4.11987,-1.8982 1.90431,0 3.25114,0.6754 4.04053,2.0264 -0.0814,-0.7976 -0.12207,-1.5666 -0.12207,-2.3072 v -4.3335 l 3.19824,-0.2075 V 1082 h -2.77099 l -0.35401,-1.831 c -0.13834,0.2197 -0.26652,0.4089 -0.38452,0.5676 -0.118,0.1587 -0.29093,0.3418 -0.5188,0.5493 -0.22786,0.2075 -0.47404,0.3743 -0.73852,0.5005 -0.26449,0.1261 -0.59814,0.236 -1.00098,0.3296 -0.40283,0.094 -0.84838,0.1404 -1.33667,0.1404 z m 0.75684,-2.4292 c 2.14844,0 3.23893,-1.4608 3.27148,-4.3824 0,-1.652 -0.27669,-2.8564 -0.83008,-3.6133 -0.55338,-0.7568 -1.37939,-1.1352 -2.47802,-1.1352 -0.9603,0 -1.7273,0.3845 -2.30103,1.1536 -0.57373,0.769 -0.8606,1.9022 -0.8606,3.3996 0,1.4893 0.28687,2.6245 0.8606,3.4058 0.57373,0.7812 1.35294,1.1719 2.33765,1.1719 z m 12.30468,8.1787 -0.1831,-2.5879 h 1.62353 c 1.8799,0 3.19417,-0.2503 3.94287,-0.7508 0.74871,-0.5004 1.12305,-1.418 1.12305,-2.7526 0,-0.5453 -0.0244,-1.1353 -0.0732,-1.7701 -0.21159,0.293 -0.413,0.5351 -0.60425,0.7264 -0.19124,0.1912 -0.43131,0.3804 -0.72021,0.5676 -0.2889,0.1872 -0.63477,0.3275 -1.0376,0.4211 -0.40283,0.094 -0.86059,0.1404 -1.37329,0.1404 -1.7741,0 -3.23283,-0.6388 -4.37622,-1.9165 -1.1434,-1.2777 -1.71509,-2.9256 -1.71509,-4.9438 0,-1.0743 0.15869,-2.0529 0.47607,-2.9358 0.31739,-0.883 0.7487,-1.6093 1.29395,-2.179 0.54525,-0.5697 1.17391,-1.0071 1.88599,-1.3122 0.71208,-0.3052 1.47094,-0.4578 2.27661,-0.4578 1.79851,0 3.1372,0.6551 4.01611,1.9653 l 0.21973,-1.6357 h 2.85644 v 12.4634 c 0,0.6673 -0.0326,1.2675 -0.0977,1.8005 -0.0651,0.533 -0.17904,1.0457 -0.3418,1.5381 -0.16276,0.4923 -0.37638,0.9216 -0.64087,1.2878 -0.26449,0.3662 -0.59611,0.6999 -0.99487,1.001 -0.39877,0.3011 -0.86873,0.5473 -1.40991,0.7385 -0.54119,0.1913 -1.16984,0.3378 -1.88599,0.4395 -0.71615,0.1017 -1.52181,0.1526 -2.41699,0.1526 z m 3.21045,-8.2398 c 2.20542,0 3.32032,-1.477 3.34473,-4.4311 v -0.4639 c -0.0163,-1.3265 -0.29297,-2.3519 -0.83008,-3.0762 -0.53711,-0.7243 -1.32242,-1.0905 -2.35596,-1.0986 -1.17188,0 -2.05891,0.4008 -2.66113,1.2024 -0.60221,0.8016 -0.90332,1.8819 -0.90332,3.241 0,1.3102 0.30314,2.4088 0.90943,3.2959 0.60628,0.887 1.43839,1.3305 2.49633,1.3305 z m 15.77149,2.4903 c -2.15659,0 -3.83504,-0.6206 -5.0354,-1.8616 -1.20037,-1.2411 -1.80054,-2.9561 -1.80054,-5.1453 0,-2.1322 0.56559,-3.8289 1.69678,-5.0903 1.13119,-1.2614 2.67333,-1.8962 4.62646,-1.9043 1.84734,0 3.28165,0.5778 4.30298,1.7334 1.02133,1.1556 1.53198,2.6896 1.53198,4.602 0,0.1384 -0.002,0.3622 -0.006,0.6714 -0.004,0.3093 -0.006,0.5371 -0.006,0.6836 h -8.92334 c 0.0326,1.2533 0.37638,2.2237 1.03149,2.9114 0.65511,0.6877 1.55639,1.0315 2.70386,1.0315 1.46485,0 2.87271,-0.3825 4.22363,-1.1475 l 0.45166,2.2705 c -1.34278,0.8301 -2.94188,1.2452 -4.79736,1.2452 z m -3.55225,-8.3253 h 5.85938 c 0,-1.0904 -0.24821,-1.9287 -0.74463,-2.5146 -0.49642,-0.5859 -1.18408,-0.8789 -2.06299,-0.8789 -0.82195,0 -1.5157,0.2848 -2.0813,0.8545 -0.56559,0.5697 -0.88908,1.416 -0.97046,2.539 z"
       id="Weighted-Edge"
       inkscape:connector-curvature="0"
       style="fill:#f57a23" />
    <path
       d="m 237.84326,823 v -17.93213 h 5.95703 c 1.40789,0 2.6123,0.18107 3.61328,0.54321 1.00099,0.36215 1.7924,0.95011 2.37427,1.76392 0.58187,0.81381 0.8728,1.83512 0.8728,3.06397 0,0.85449 -0.10986,1.61335 -0.32959,2.27661 -0.21972,0.66325 -0.58186,1.26546 -1.08642,1.80664 -0.50456,0.54118 -1.2146,0.95825 -2.13013,1.25122 -0.91553,0.29297 -2.02026,0.43945 -3.31421,0.43945 -1.10677,0 -2.00602,-0.0326 -2.69775,-0.0977 V 823 Z m 5.60303,-9.17969 c 0.67546,0 1.26342,-0.0651 1.76391,-0.19531 0.5005,-0.13021 0.89112,-0.29704 1.17188,-0.50049 0.28076,-0.20345 0.50456,-0.45573 0.67139,-0.75683 0.16683,-0.30111 0.27669,-0.59204 0.32959,-0.87281 0.0529,-0.28076 0.0793,-0.5961 0.0793,-0.94604 0,-0.98471 -0.31738,-1.7334 -0.95215,-2.2461 -0.63477,-0.51269 -1.52994,-0.76904 -2.68554,-0.76904 h -2.72217 v 6.26221 c 0.0977,0.0163 0.8789,0.0244 2.34375,0.0244 z m 12.91504,9.43604 c -1.24513,0 -2.2522,-0.34383 -3.02124,-1.0315 -0.76905,-0.68766 -1.15357,-1.67846 -1.15357,-2.97241 0,-1.39161 0.45573,-2.42309 1.36719,-3.09448 0.91146,-0.67139 2.28678,-1.0966 4.12598,-1.27564 0.25228,-0.0326 0.5249,-0.0651 0.81787,-0.0977 0.29297,-0.0326 0.62255,-0.0651 0.98877,-0.0977 0.36621,-0.0326 0.65511,-0.061 0.8667,-0.0855 v -0.70801 c 0,-0.8138 -0.18717,-1.40584 -0.56153,-1.77612 -0.37435,-0.37028 -0.944,-0.55542 -1.70898,-0.55542 -1.0905,0 -2.43733,0.30517 -4.04053,0.91553 -0.008,-0.0244 -0.14241,-0.39469 -0.40283,-1.11084 -0.26042,-0.71615 -0.39469,-1.08236 -0.40283,-1.09863 1.57878,-0.67546 3.28775,-1.01319 5.12695,-1.01319 1.80665,0 3.12093,0.39266 3.94287,1.17798 0.82195,0.78532 1.23291,2.05688 1.23291,3.8147 V 823 h -2.36816 c -0.008,-0.0326 -0.0977,-0.30517 -0.26856,-0.81787 -0.1709,-0.5127 -0.25634,-0.78532 -0.25634,-0.81787 -0.66733,0.65104 -1.3204,1.12915 -1.95923,1.43432 -0.63884,0.30518 -1.41398,0.45777 -2.32544,0.45777 z m 0.8667,-2.27051 c 0.74056,0 1.38549,-0.177 1.93481,-0.53101 0.54932,-0.354 0.94198,-0.78328 1.17798,-1.28784 v -2.58789 c -0.0244,0 -0.23804,0.0163 -0.64087,0.0488 -0.40283,0.0326 -0.62052,0.0488 -0.65308,0.0488 -1.29395,0.11393 -2.24202,0.35807 -2.84423,0.73242 -0.60222,0.37435 -0.90332,0.97656 -0.90332,1.80664 0,0.56966 0.16682,1.00708 0.50048,1.31226 0.33366,0.30517 0.80973,0.45776 1.42823,0.45776 z m 14.89257,2.19726 c -0.91146,0 -1.67032,-0.10782 -2.27661,-0.32348 -0.60628,-0.21566 -1.08032,-0.55542 -1.42212,-1.01929 -0.34179,-0.46387 -0.5839,-1.01114 -0.72631,-1.64184 -0.14242,-0.6307 -0.21363,-1.40991 -0.21363,-2.33765 v -6.33545 h -2.19726 l 0.12207,-1.7334 2.29492,-0.20752 1.02539,-3.63769 1.95313,-0.0122 v 3.6499 h 3.33251 v 1.94092 h -3.33251 v 6.39648 c 0,1.01726 0.14648,1.74154 0.43945,2.17286 0.29297,0.43131 0.83414,0.64697 1.62353,0.64697 0.46387,0 0.96029,-0.0407 1.48926,-0.12207 l 0.0855,2.29492 c -0.0163,0 -0.11597,0.0183 -0.29907,0.0549 -0.18311,0.0366 -0.35807,0.0692 -0.5249,0.0977 -0.16683,0.0285 -0.38045,0.0549 -0.64087,0.0793 -0.26042,0.0244 -0.50456,0.0366 -0.73243,0.0366 z M 276.56396,823 v -18.35938 l 3.19825,-0.20752 v 3.86963 c 0,0.18718 -0.0122,0.70597 -0.0366,1.5564 -0.0244,0.85043 -0.0366,1.28377 -0.0366,1.30005 1.06609,-1.26954 2.49837,-1.9043 4.29688,-1.9043 1.4974,0 2.65909,0.42928 3.48511,1.28785 0.82601,0.85856 1.23901,2.17894 1.23901,3.96118 V 823 h -3.19824 v -8.14209 c 0,-1.09864 -0.17497,-1.90429 -0.5249,-2.41699 -0.34994,-0.5127 -0.94401,-0.76905 -1.78223,-0.76905 -0.71615,0 -1.35091,0.18107 -1.9043,0.54322 -0.55338,0.36214 -0.96842,0.82804 -1.24511,1.3977 -0.19532,0.7487 -0.29297,1.72526 -0.29297,2.92969 V 823 Z m -39.02099,32 v -14.30664 h 4.46289 c 1.89454,0 3.30729,0.27669 4.23828,0.83008 0.93099,0.55339 1.39648,1.4746 1.39648,2.76367 0,0.20833 -0.013,0.41341 -0.0391,0.61523 -0.026,0.20183 -0.0846,0.43132 -0.17578,0.68848 -0.0911,0.25716 -0.21159,0.48991 -0.36133,0.69824 -0.14974,0.20834 -0.35807,0.41178 -0.625,0.61035 -0.26693,0.19857 -0.57942,0.35319 -0.9375,0.46387 0.88542,0.21485 1.5625,0.62663 2.03125,1.23535 0.46875,0.60873 0.70313,1.35905 0.70313,2.25098 0,1.34766 -0.47689,2.3763 -1.43067,3.08594 C 245.85188,854.64519 244.53191,855 242.8457,855 Z m 2.64648,-1.91406 h 2.29492 c 2.03126,0 3.04688,-0.79426 3.04688,-2.38282 0,-0.80078 -0.2539,-1.37695 -0.76172,-1.72851 -0.50781,-0.35156 -1.29231,-0.52734 -2.35351,-0.52734 h -2.22657 z m 0,-6.48438 h 2.26563 c 1.75131,0 2.62695,-0.66731 2.62695,-2.00195 0,-0.7487 -0.25228,-1.26302 -0.75684,-1.54297 -0.50456,-0.27995 -1.30696,-0.41992 -2.40722,-0.41992 h -1.72852 z m 15.08789,8.60352 c -1.72527,0 -3.06803,-0.49642 -4.02832,-1.48926 -0.96029,-0.99284 -1.44043,-2.3649 -1.44043,-4.11621 0,-1.70574 0.45247,-3.06315 1.35743,-4.07227 0.90495,-1.00912 2.13866,-1.51692 3.70117,-1.52343 1.47787,0 2.62532,0.46223 3.44238,1.38671 0.81706,0.92449 1.22559,2.15169 1.22559,3.68165 0,0.11067 -0.002,0.28971 -0.005,0.5371 -0.003,0.2474 -0.005,0.42969 -0.005,0.54688 h -7.13867 c 0.026,1.00261 0.3011,1.77897 0.82519,2.3291 0.52409,0.55013 1.24512,0.8252 2.16309,0.8252 1.17188,0 2.29817,-0.30599 3.37891,-0.91797 l 0.36132,1.8164 c -1.07422,0.66407 -2.3535,0.9961 -3.83789,0.9961 z m -2.84179,-6.66016 h 4.6875 c 0,-0.8724 -0.19857,-1.54297 -0.59571,-2.01172 -0.39713,-0.46875 -0.94726,-0.70312 -1.65039,-0.70312 -0.65755,0 -1.21256,0.22786 -1.66504,0.68359 -0.45247,0.45573 -0.71126,1.13281 -0.77636,2.03125 z m 13.17382,6.66016 c -1.39974,0 -2.49999,-0.51432 -3.30078,-1.54297 -0.80078,-1.02865 -1.20117,-2.40234 -1.20117,-4.12109 0,-1.66668 0.39876,-3.00618 1.19629,-4.01856 0.79753,-1.01237 1.89615,-1.51855 3.2959,-1.51855 1.52344,0 2.60091,0.54035 3.23242,1.62109 -0.0651,-0.63802 -0.0977,-1.25325 -0.0977,-1.8457 v -3.4668 l 2.5586,-0.16602 V 855 h -2.2168 l -0.2832,-1.46484 c -0.11068,0.17578 -0.21322,0.32714 -0.30762,0.4541 -0.0944,0.12695 -0.23274,0.27343 -0.41504,0.43945 -0.18229,0.16602 -0.37923,0.29948 -0.59082,0.40039 -0.21159,0.10091 -0.47851,0.1888 -0.80078,0.26367 -0.32227,0.0749 -0.67871,0.11231 -1.06934,0.11231 z m 0.60547,-1.94336 c 1.71876,0 2.59115,-1.16861 2.61719,-3.50586 0,-1.32162 -0.22135,-2.28515 -0.66406,-2.89063 -0.44271,-0.60547 -1.10351,-0.9082 -1.98242,-0.9082 -0.76824,0 -1.38184,0.30761 -1.84082,0.92285 -0.45899,0.61524 -0.68848,1.52181 -0.68848,2.71973 0,1.19141 0.22949,2.09961 0.68848,2.72461 0.45898,0.625 1.08235,0.9375 1.87011,0.9375 z M 274.59375,855 v -9.0332 h -1.69922 l 0.16602,-1.50391 1.5332,-0.19531 v -0.59571 c 0,-0.65104 0.0602,-1.20767 0.18066,-1.66992 0.12045,-0.46224 0.31739,-0.85774 0.59082,-1.18652 0.27344,-0.32878 0.63965,-0.57292 1.09864,-0.73242 0.45898,-0.15951 1.02376,-0.23926 1.69433,-0.23926 0.65105,0 1.3151,0.0619 1.99219,0.18555 l -0.22461,1.90429 c -0.53386,-0.0716 -0.95377,-0.10742 -1.25976,-0.10742 -0.54688,0 -0.93588,0.13184 -1.167,0.39551 -0.23112,0.26367 -0.34668,0.70149 -0.34668,1.31348 v 0.73242 h 2.51953 v 1.69922 h -2.51953 V 855 Z m 11.41602,-1.73828 c 0.86588,0 1.51692,-0.31575 1.95312,-0.94727 0.4362,-0.63151 0.6543,-1.53645 0.6543,-2.71484 0,-1.19141 -0.2181,-2.09961 -0.6543,-2.72461 -0.4362,-0.625 -1.09375,-0.9375 -1.97266,-0.9375 -0.86589,0 -1.51855,0.31412 -1.958,0.94238 -0.43946,0.62826 -0.65918,1.53808 -0.65918,2.72949 0,1.17189 0.22135,2.07357 0.66406,2.70508 0.44271,0.63152 1.10025,0.94727 1.97266,0.94727 z m -0.0684,1.94336 c -1.58855,0 -2.83854,-0.51432 -3.75,-1.54297 -0.91147,-1.02865 -1.36719,-2.3828 -1.36719,-4.0625 0,-1.73178 0.45572,-3.09733 1.36719,-4.09668 0.91146,-0.99935 2.19725,-1.49902 3.85742,-1.49902 1.60157,0 2.85644,0.50943 3.76465,1.52832 0.9082,1.01888 1.3623,2.37466 1.3623,4.06738 0,1.71225 -0.45898,3.07454 -1.37695,4.08691 -0.91798,1.01238 -2.20377,1.51856 -3.85742,1.51856 z M 293.27539,855 v -10.73242 h 2.14844 l 0.33203,1.64062 c 0.70313,-1.12631 1.722,-1.68945 3.05664,-1.68945 0.27995,0 0.50781,0.013 0.68359,0.0391 l -0.0391,2.13867 c -0.26042,-0.0391 -0.5306,-0.0586 -0.81055,-0.0586 -0.94401,0 -1.64876,0.25065 -2.11425,0.75195 -0.4655,0.50131 -0.69825,1.19792 -0.69825,2.08985 V 855 Z m 11.77734,0.20508 c -1.39974,0 -2.49999,-0.51432 -3.30078,-1.54297 -0.80078,-1.02865 -1.20117,-2.40234 -1.20117,-4.12109 0,-1.66668 0.39876,-3.00618 1.19629,-4.01856 0.79753,-1.01237 1.89615,-1.51855 3.2959,-1.51855 1.52344,0 2.60091,0.54035 3.23242,1.62109 -0.0651,-0.63802 -0.0977,-1.25325 -0.0977,-1.8457 v -3.4668 l 2.5586,-0.16602 V 855 h -2.2168 l -0.2832,-1.46484 c -0.11068,0.17578 -0.21322,0.32714 -0.30762,0.4541 -0.0944,0.12695 -0.23275,0.27343 -0.41504,0.43945 -0.18229,0.16602 -0.37923,0.29948 -0.59082,0.40039 -0.21159,0.10091 -0.47851,0.1888 -0.80078,0.26367 -0.32227,0.0749 -0.67871,0.11231 -1.06934,0.11231 z m 0.60547,-1.94336 c 1.71876,0 2.59115,-1.16861 2.61719,-3.50586 0,-1.32162 -0.22135,-2.28515 -0.66406,-2.89063 -0.44271,-0.60547 -1.10351,-0.9082 -1.98242,-0.9082 -0.76824,0 -1.38184,0.30761 -1.84082,0.92285 -0.45899,0.61524 -0.68848,1.52181 -0.68848,2.71973 0,1.19141 0.22949,2.09961 0.68848,2.72461 0.45898,0.625 1.08235,0.9375 1.87011,0.9375 z m 12.54883,-2.76367 v -1.80664 h 10.73242 v 1.80664 z m 23.95508,4.70703 c -1.87501,0 -3.29752,-0.46712 -4.26758,-1.40137 -0.97006,-0.93425 -1.45508,-2.25097 -1.45508,-3.95019 v -9.16016 h 2.65625 v 8.93555 c 0,1.19141 0.24251,2.06054 0.72754,2.60742 0.48503,0.54688 1.28092,0.82031 2.3877,0.82031 1.08724,0 1.87499,-0.27506 2.36328,-0.8252 0.48828,-0.55013 0.73242,-1.42089 0.73242,-2.6123 v -8.92578 h 2.64648 v 9.17969 c 0,1.6862 -0.49478,2.99641 -1.48437,3.93066 -0.98959,0.93425 -2.42512,1.40137 -4.30664,1.40137 z m 12.79297,-0.0586 c -0.72917,0 -1.33626,-0.0863 -1.82129,-0.25879 -0.48503,-0.17252 -0.86426,-0.44433 -1.1377,-0.81542 -0.27344,-0.3711 -0.46712,-0.80892 -0.58105,-1.31348 -0.11393,-0.50456 -0.1709,-1.12793 -0.1709,-1.87012 v -5.06836 h -1.75781 l 0.0976,-1.38672 1.83594,-0.16601 0.82031,-2.91016 1.5625,-0.01 v 2.91992 h 2.66602 v 1.55273 h -2.66602 v 5.11719 c 0,0.81381 0.11719,1.39323 0.35157,1.73828 0.23437,0.34506 0.66731,0.51758 1.29882,0.51758 0.3711,0 0.76823,-0.0326 1.19141,-0.0977 l 0.0684,1.83594 c -0.013,0 -0.0928,0.0146 -0.23926,0.0439 -0.14648,0.0293 -0.28645,0.0553 -0.41992,0.0781 -0.13346,0.0228 -0.30436,0.0439 -0.51269,0.0635 -0.20834,0.0195 -0.40365,0.0293 -0.58594,0.0293 z M 358.56836,855 v -10.73242 h 2.55859 V 855 Z m 0,-12.29492 v -2.1875 h 2.56836 v 2.1875 z m 9.92187,12.5 c -1.64063,0 -2.91828,-0.48828 -3.833,-1.46485 -0.91472,-0.97656 -1.37207,-2.37303 -1.37207,-4.18945 0,-1.75782 0.48013,-3.12174 1.44043,-4.0918 0.96029,-0.97005 2.22492,-1.45507 3.79394,-1.45507 1.25652,0 2.31771,0.27018 3.18359,0.81054 l -0.60546,1.82617 c -0.88542,-0.46224 -1.70898,-0.69335 -2.47071,-0.69335 -0.86589,0 -1.54785,0.30924 -2.0459,0.92773 -0.49804,0.61849 -0.74707,1.52018 -0.74707,2.70508 0,1.19792 0.24577,2.10937 0.73731,2.73437 0.49154,0.62501 1.18652,0.9375 2.08496,0.9375 0.9375,0 1.83919,-0.27669 2.70508,-0.83008 l 0.24414,1.94336 c -0.44922,0.29948 -0.91471,0.51433 -1.39649,0.64454 -0.48177,0.13021 -1.05468,0.19531 -1.71875,0.19531 z m 7.97852,0 c -0.9961,0 -1.80176,-0.27506 -2.41699,-0.8252 -0.61524,-0.55013 -0.92285,-1.34277 -0.92285,-2.37793 0,-1.11328 0.36458,-1.93847 1.09375,-2.47558 0.72917,-0.53712 1.82942,-0.87728 3.30078,-1.02051 0.20182,-0.026 0.41992,-0.0521 0.65429,-0.0781 0.23438,-0.026 0.49805,-0.0521 0.79102,-0.0781 0.29297,-0.026 0.52409,-0.0488 0.69336,-0.0684 v -0.56641 c 0,-0.65104 -0.14974,-1.12467 -0.44922,-1.4209 -0.29948,-0.29622 -0.7552,-0.44433 -1.36719,-0.44433 -0.8724,0 -1.94986,0.24414 -3.23242,0.73242 -0.007,-0.0195 -0.11393,-0.31575 -0.32226,-0.88867 -0.20834,-0.57292 -0.31576,-0.86589 -0.32227,-0.87891 1.26303,-0.54036 2.6302,-0.81054 4.10156,-0.81054 1.44532,0 2.49674,0.31412 3.1543,0.94238 0.65755,0.62826 0.98633,1.6455 0.98633,3.05176 V 855 h -1.89453 c -0.007,-0.026 -0.0781,-0.24414 -0.21485,-0.6543 -0.13672,-0.41015 -0.20508,-0.62825 -0.20508,-0.65429 -0.53385,0.52083 -1.05631,0.90332 -1.56738,1.14746 -0.51107,0.24414 -1.13118,0.36621 -1.86035,0.36621 z m 0.69336,-1.81641 c 0.59245,0 1.1084,-0.1416 1.54785,-0.4248 0.43946,-0.28321 0.75358,-0.62663 0.94238,-1.03028 v -2.07031 c -0.0195,0 -0.19042,0.013 -0.51269,0.0391 -0.32227,0.0261 -0.49642,0.0391 -0.52246,0.0391 -1.03516,0.0911 -1.79362,0.28645 -2.27539,0.58593 -0.48178,0.29948 -0.72266,0.78125 -0.72266,1.44532 0,0.45573 0.13346,0.80566 0.40039,1.0498 0.26693,0.24414 0.64778,0.36621 1.14258,0.36621 z m 12.48047,-2.89062 v -1.80664 H 400.375 v 1.80664 z M 408.00195,855 v -14.30664 h 2.65625 v 6.44531 c 0.46225,-0.61198 1.40787,-1.75455 2.83692,-3.42773 1.42904,-1.67319 2.28027,-2.67904 2.55371,-3.01758 h 3.13476 l -5.41015,6.43555 5.75195,7.87109 h -3.10547 l -4.66797,-6.41602 -1.09375,0.91797 V 855 Z m 12.98828,0 v -10.73242 h 2.5586 V 855 Z m 0,-12.29492 v -2.1875 h 2.56836 v 2.1875 z M 426.21484,855 v -10.73242 h 2.06055 l 0.2832,1.35742 c 1.09376,-1.08074 2.30794,-1.62109 3.64258,-1.62109 1.25001,0 2.18587,0.35969 2.80762,1.0791 0.62175,0.7194 0.93262,1.76269 0.93262,3.12988 V 855 h -2.56836 v -6.47461 c -0.007,-0.86589 -0.14649,-1.51367 -0.41993,-1.94336 -0.27343,-0.42969 -0.76497,-0.64453 -1.4746,-0.64453 -0.55339,0 -1.05957,0.1416 -1.51856,0.4248 -0.45899,0.28321 -0.79264,0.63965 -1.00098,1.06934 -0.12369,0.50782 -0.18554,1.28906 -0.18554,2.34375 V 855 Z m 14.39453,4.80469 -0.14648,-2.07032 h 1.29883 c 1.50391,0 2.55533,-0.20019 3.1543,-0.60058 0.59896,-0.40039 0.89843,-1.13444 0.89843,-2.20215 0,-0.4362 -0.0195,-0.9082 -0.0586,-1.41602 -0.16927,0.23438 -0.3304,0.42806 -0.4834,0.58106 -0.153,0.153 -0.34505,0.30436 -0.57617,0.4541 -0.23112,0.14974 -0.50781,0.26204 -0.83008,0.33691 -0.32227,0.0749 -0.68847,0.11231 -1.09863,0.11231 -1.41928,0 -2.58626,-0.51106 -3.50098,-1.5332 -0.91472,-1.02214 -1.37207,-2.34049 -1.37207,-3.95508 0,-0.85938 0.12695,-1.64225 0.38086,-2.34863 0.25391,-0.70639 0.59896,-1.28744 1.03516,-1.74317 0.4362,-0.45573 0.93912,-0.80566 1.50879,-1.0498 0.56966,-0.24414 1.17675,-0.36621 1.82128,-0.36621 1.43881,0 2.50977,0.52408 3.2129,1.57226 l 0.17578,-1.30859 h 2.28515 v 9.9707 c 0,0.53386 -0.026,1.014 -0.0781,1.44043 -0.0521,0.42643 -0.14323,0.83659 -0.27344,1.23047 -0.13021,0.39388 -0.30111,0.7373 -0.5127,1.03027 -0.21158,0.29297 -0.47688,0.5599 -0.79589,0.80078 -0.31902,0.24089 -0.69499,0.43783 -1.12793,0.59082 -0.43295,0.153 -0.93587,0.27019 -1.50879,0.35157 -0.57292,0.0814 -1.21745,0.12207 -1.9336,0.12207 z m 2.56836,-6.5918 c 1.76434,0 2.65625,-1.18163 2.67579,-3.54492 v -0.3711 c -0.013,-1.0612 -0.23438,-1.8815 -0.66407,-2.46093 -0.42969,-0.57943 -1.05794,-0.8724 -1.88476,-0.87891 -0.93751,0 -1.64714,0.32064 -2.12891,0.96191 -0.48177,0.64128 -0.72266,1.50553 -0.72266,2.59278 0,1.04818 0.24252,1.92708 0.72754,2.63672 0.48503,0.70964 1.15072,1.06445 1.99707,1.06445 z m 11.08399,1.98242 c -1.58204,0 -2.8483,-0.27018 -3.79883,-0.81054 l 0.26367,-1.92383 c 0.42969,0.23437 0.97656,0.44433 1.64063,0.62988 0.66406,0.18555 1.26953,0.27832 1.8164,0.27832 0.56641,0 1.00749,-0.10579 1.32325,-0.31738 0.31575,-0.21159 0.47688,-0.52246 0.48339,-0.93262 0,-0.37109 -0.14811,-0.66406 -0.44433,-0.87891 -0.29623,-0.21484 -0.861,-0.48177 -1.69434,-0.80078 -0.28646,-0.10416 -0.472,-0.17252 -0.55664,-0.20508 -0.98959,-0.38411 -1.70247,-0.81217 -2.13867,-1.28418 -0.4362,-0.472 -0.6543,-1.11164 -0.6543,-1.91894 0,-0.97657 0.35319,-1.72526 1.05957,-2.24609 0.70639,-0.52084 1.69108,-0.78125 2.9541,-0.78125 1.3672,0 2.56836,0.25716 3.60352,0.77148 l -0.63477,1.76758 c -1.02214,-0.47526 -1.99543,-0.71289 -2.91992,-0.71289 -0.51432,0 -0.91634,0.0863 -1.20605,0.25879 -0.28972,0.17252 -0.43457,0.43457 -0.43457,0.78613 0,0.33203 0.13997,0.59082 0.41992,0.77637 0.27995,0.18554 0.82682,0.42806 1.64062,0.72754 0.026,0.007 0.11068,0.0358 0.25391,0.0879 0.14323,0.0521 0.25391,0.0944 0.33203,0.12695 0.98308,0.35807 1.70573,0.78613 2.16797,1.28418 0.46224,0.49805 0.69336,1.14746 0.69336,1.94824 -0.007,1.07423 -0.37109,1.9043 -1.09375,2.49024 -0.72266,0.58594 -1.74804,0.8789 -3.07617,0.8789 z M 465.98047,855 v -14.30664 h 2.64648 v 5.84961 h 6.46485 v -5.84961 h 2.64648 V 855 h -2.64648 v -6.36719 h -6.46485 V 855 Z m 16.67969,0 -3.25196,-10.73242 h 2.60742 l 2.06055,7.87109 c 0.0456,-0.14974 0.41667,-1.42902 1.11328,-3.83789 0.69662,-2.40886 1.0905,-3.75325 1.18164,-4.0332 h 2.62696 c 0.0846,0.27344 0.45898,1.6048 1.12304,3.99414 0.66407,2.38933 1.02214,3.67187 1.07422,3.84765 l 2.11914,-7.84179 h 2.56836 L 492.52344,855 h -2.54883 c -0.0846,-0.27995 -0.48014,-1.69595 -1.18652,-4.24805 -0.70639,-2.55209 -1.08887,-3.92903 -1.14747,-4.13086 -0.1302,0.47527 -0.54524,1.90754 -1.24511,4.29688 -0.69988,2.38933 -1.10515,3.75 -1.21582,4.08203 z m 15.21484,4.52148 c -0.41667,0 -0.85937,-0.026 -1.32813,-0.0781 l -0.12695,-1.98242 c 0.29948,0.0325 0.68034,0.0488 1.14258,0.0488 0.59245,0 1.06771,-0.11719 1.42578,-0.35157 0.35808,-0.23437 0.6543,-0.65104 0.88867,-1.25 0.026,-0.0651 0.15625,-0.43294 0.39063,-1.10351 l -4.31641,-10.53711 h 2.73438 l 2.82226,7.7832 c 0.20834,-0.77474 0.67545,-2.21353 1.40137,-4.31641 0.72591,-2.10287 1.12467,-3.25846 1.19629,-3.46679 h 2.73437 c -2.97527,7.86462 -4.47591,11.82942 -4.50195,11.89453 -0.46224,1.20443 -1.04492,2.06543 -1.74805,2.58301 -0.70313,0.51758 -1.60806,0.77636 -2.71484,0.77636 z"
       id="Path-Bedford-–-Utica"
       inkscape:connector-curvature="0"
       style="fill:#ffc107" />
    <path
       d="m 1051.249,886.35107 h 2.3682 c 2.0426,0 3.597,-0.53506 4.6631,-1.60522 1.0661,-1.07015 1.5991,-2.63061 1.5991,-4.6814 0,-2.19727 -0.5493,-3.79434 -1.6479,-4.79126 -1.0987,-0.99691 -2.7548,-1.49536 -4.9683,-1.49536 h -2.0142 z M 1047.9409,889 v -17.8833 h 5.1758 c 1.5625,0 2.9622,0.17903 4.1992,0.53711 1.237,0.35807 2.301,0.89721 3.1922,1.61743 0.8911,0.72022 1.5747,1.64794 2.0507,2.7832 0.4761,1.13526 0.7142,2.44751 0.7142,3.93677 0,2.88901 -0.8708,5.11271 -2.6124,6.67114 -1.7415,1.55844 -4.1544,2.33765 -7.2387,2.33765 z m 18.2373,0 v -13.41553 h 3.1983 V 889 Z m 0,-15.36865 v -2.73438 h 3.2105 v 2.73438 z M 1072.7212,889 v -13.41553 h 2.6855 l 0.4151,2.05078 c 0.8789,-1.40788 2.1525,-2.11181 3.8208,-2.11181 0.3499,0 0.6347,0.0163 0.8545,0.0488 l -0.049,2.67333 c -0.3255,-0.0488 -0.6632,-0.0732 -1.0131,-0.0732 -1.1801,0 -2.061,0.31331 -2.6429,0.93994 -0.5818,0.62663 -0.8728,1.49739 -0.8728,2.61231 V 889 Z m 15.9302,0.25635 c -2.1566,0 -3.8351,-0.62052 -5.0354,-1.86158 -1.2004,-1.24105 -1.8006,-2.95612 -1.8006,-5.14526 0,-2.13217 0.5656,-3.82893 1.6968,-5.09033 1.1312,-1.2614 2.6733,-1.89616 4.6265,-1.9043 1.8473,0 3.2816,0.5778 4.303,1.7334 1.0213,1.15561 1.5319,2.68961 1.5319,4.60205 0,0.13835 0,0.36214 -0.01,0.67139 0,0.30924 -0.01,0.53711 -0.01,0.68359 h -8.9233 c 0.033,1.25326 0.3764,2.22371 1.0315,2.91138 0.6551,0.68767 1.5564,1.03149 2.7038,1.03149 1.4649,0 2.8728,-0.38248 4.2237,-1.14746 l 0.4516,2.27051 c -1.3428,0.83008 -2.9418,1.24512 -4.7973,1.24512 z m -3.5523,-8.3252 h 5.8594 c 0,-1.0905 -0.2482,-1.92871 -0.7446,-2.51465 -0.4964,-0.58594 -1.1841,-0.8789 -2.063,-0.8789 -0.822,0 -1.5157,0.28483 -2.0813,0.85449 -0.5656,0.56966 -0.8891,1.41601 -0.9705,2.53906 z m 17.3462,8.3252 c -2.0508,0 -3.6478,-0.61035 -4.7912,-1.83106 -1.1434,-1.22071 -1.7151,-2.96629 -1.7151,-5.23681 0,-2.19728 0.6001,-3.90218 1.8005,-5.11475 1.2004,-1.21257 2.7812,-1.81885 4.7424,-1.81885 1.5707,0 2.8972,0.33773 3.9795,1.01319 l -0.7568,2.28271 c -1.1068,-0.5778 -2.1362,-0.8667 -3.0884,-0.8667 -1.0823,0 -1.9348,0.38655 -2.5574,1.15967 -0.6225,0.77312 -0.9338,1.90022 -0.9338,3.38135 0,1.4974 0.3072,2.63671 0.9216,3.41797 0.6145,0.78125 1.4832,1.17187 2.6062,1.17187 1.1719,0 2.299,-0.34586 3.3814,-1.0376 l 0.3052,2.4292 c -0.5616,0.37435 -1.1434,0.64291 -1.7456,0.80567 -0.6023,0.16276 -1.3184,0.24414 -2.1485,0.24414 z m 11.792,-0.0733 c -0.9115,0 -1.6703,-0.10782 -2.2766,-0.32348 -0.6063,-0.21566 -1.0803,-0.55542 -1.4221,-1.01929 -0.3418,-0.46387 -0.5839,-1.01114 -0.7263,-1.64184 -0.1425,-0.6307 -0.2137,-1.40991 -0.2137,-2.33765 v -6.33545 h -2.1972 l 0.122,-1.7334 2.295,-0.20752 1.0254,-3.63769 1.9531,-0.0122 v 3.6499 h 3.3325 v 1.94092 h -3.3325 v 6.39648 c 0,1.01726 0.1465,1.74154 0.4394,2.17286 0.293,0.43131 0.8342,0.64697 1.6236,0.64697 0.4638,0 0.9603,-0.0407 1.4892,-0.12207 l 0.086,2.29492 c -0.016,0 -0.116,0.0183 -0.2991,0.0549 -0.1831,0.0366 -0.3581,0.0692 -0.5249,0.0977 -0.1668,0.0285 -0.3805,0.0549 -0.6409,0.0793 -0.2604,0.0244 -0.5045,0.0366 -0.7324,0.0366 z m 10.6445,0.0733 c -2.1565,0 -3.835,-0.62052 -5.0354,-1.86158 -1.2003,-1.24105 -1.8005,-2.95612 -1.8005,-5.14526 0,-2.13217 0.5656,-3.82893 1.6968,-5.09033 1.1312,-1.2614 2.6733,-1.89616 4.6264,-1.9043 1.8474,0 3.2817,0.5778 4.303,1.7334 1.0214,1.15561 1.532,2.68961 1.532,4.60205 0,0.13835 0,0.36214 -0.01,0.67139 0,0.30924 -0.01,0.53711 -0.01,0.68359 h -8.9233 c 0.032,1.25326 0.3763,2.22371 1.0315,2.91138 0.6551,0.68767 1.5563,1.03149 2.7038,1.03149 1.4649,0 2.8727,-0.38248 4.2236,-1.14746 l 0.4517,2.27051 c -1.3428,0.83008 -2.9419,1.24512 -4.7974,1.24512 z m -3.5522,-8.3252 h 5.8594 c 0,-1.0905 -0.2482,-1.92871 -0.7447,-2.51465 -0.4964,-0.58594 -1.184,-0.8789 -2.0629,-0.8789 -0.822,0 -1.5158,0.28483 -2.0813,0.85449 -0.5656,0.56966 -0.8891,1.41601 -0.9705,2.53906 z m 16.4673,8.3252 c -1.7497,0 -3.125,-0.6429 -4.126,-1.92871 -1.001,-1.28582 -1.5015,-3.00292 -1.5015,-5.15137 0,-2.08334 0.4985,-3.75773 1.4954,-5.02319 0.9969,-1.26547 2.3702,-1.8982 4.1199,-1.8982 1.9043,0 3.2511,0.67545 4.0405,2.02637 -0.081,-0.79753 -0.1221,-1.56656 -0.1221,-2.30713 v -4.3335 l 3.1983,-0.20752 V 889 h -2.771 l -0.354,-1.83106 c -0.1384,0.21973 -0.2665,0.40894 -0.3845,0.56763 -0.1181,0.15869 -0.291,0.3418 -0.5188,0.54932 -0.2279,0.20752 -0.4741,0.37435 -0.7386,0.50049 -0.2645,0.12614 -0.5981,0.236 -1.001,0.32959 -0.4028,0.0936 -0.8483,0.14038 -1.3366,0.14038 z m 0.7568,-2.4292 c 2.1485,0 3.2389,-1.46076 3.2715,-4.38233 0,-1.65202 -0.2767,-2.85644 -0.8301,-3.61328 -0.5534,-0.75684 -1.3794,-1.13525 -2.478,-1.13525 -0.9603,0 -1.7273,0.38452 -2.301,1.15356 -0.5738,0.76905 -0.8606,1.90226 -0.8606,3.39966 0,1.48927 0.2868,2.62451 0.8606,3.40576 0.5737,0.78126 1.3529,1.17188 2.3376,1.17188 z M 1047.9287,921 v -17.8833 h 10.8399 l -0.1343,2.62451 h -7.3975 v 4.61426 h 7.0313 v 2.62451 h -7.0313 v 5.3833 h 7.666 L 1058.793,921 Z m 18.75,0.25635 c -1.7497,0 -3.125,-0.6429 -4.126,-1.92871 -1.0009,-1.28582 -1.5014,-3.00292 -1.5014,-5.15137 0,-2.08334 0.4984,-3.75773 1.4953,-5.02319 0.9969,-1.26547 2.3702,-1.8982 4.1199,-1.8982 1.9043,0 3.2511,0.67545 4.0405,2.02637 -0.081,-0.79753 -0.122,-1.56656 -0.122,-2.30713 v -4.3335 l 3.1982,-0.20752 V 921 h -2.771 l -0.354,-1.83106 c -0.1383,0.21973 -0.2665,0.40894 -0.3845,0.56763 -0.118,0.15869 -0.291,0.3418 -0.5188,0.54932 -0.2279,0.20752 -0.4741,0.37435 -0.7385,0.50049 -0.2645,0.12614 -0.5982,0.236 -1.001,0.32959 -0.4028,0.0936 -0.8484,0.14038 -1.3367,0.14038 z m 0.7569,-2.4292 c 2.1484,0 3.2389,-1.46076 3.2714,-4.38233 0,-1.65202 -0.2767,-2.85644 -0.83,-3.61328 -0.5534,-0.75684 -1.3794,-1.13525 -2.4781,-1.13525 -0.9603,0 -1.7273,0.38452 -2.301,1.15356 -0.5737,0.76905 -0.8606,1.90226 -0.8606,3.39966 0,1.48927 0.2869,2.62451 0.8606,3.40576 0.5737,0.78126 1.3529,1.17188 2.3377,1.17188 z m 12.3046,8.17871 -0.1831,-2.58789 h 1.6236 c 1.8799,0 3.1941,-0.25024 3.9428,-0.75073 0.7487,-0.50049 1.1231,-1.41805 1.1231,-2.75269 0,-0.54525 -0.024,-1.13525 -0.073,-1.77002 -0.2115,0.29297 -0.413,0.53508 -0.6042,0.72632 -0.1912,0.19124 -0.4313,0.38045 -0.7202,0.56763 -0.2889,0.18717 -0.6348,0.32755 -1.0376,0.42114 -0.4028,0.0936 -0.8606,0.14038 -1.3733,0.14038 -1.7741,0 -3.2328,-0.63883 -4.3762,-1.9165 -1.1434,-1.27768 -1.7151,-2.92561 -1.7151,-4.94385 0,-1.07423 0.1587,-2.05281 0.4761,-2.93579 0.3173,-0.88298 0.7487,-1.60929 1.2939,-2.17896 0.5453,-0.56966 1.1739,-1.00708 1.886,-1.31225 0.7121,-0.30518 1.4709,-0.45777 2.2766,-0.45777 1.7985,0 3.1372,0.65511 4.0161,1.96534 l 0.2197,-1.63575 h 2.8565 v 12.46338 c 0,0.66732 -0.033,1.2675 -0.098,1.80054 -0.065,0.53304 -0.179,1.04573 -0.3418,1.53809 -0.1627,0.49235 -0.3763,0.92162 -0.6408,1.28784 -0.2645,0.36621 -0.5961,0.69986 -0.9949,1.00097 -0.3988,0.30111 -0.8687,0.54728 -1.4099,0.73853 -0.5412,0.19124 -1.1699,0.33773 -1.886,0.43945 -0.7162,0.10173 -1.5218,0.15259 -2.417,0.15259 z m 3.2105,-8.23975 c 2.2054,0 3.3203,-1.47703 3.3447,-4.43115 v -0.46387 c -0.016,-1.3265 -0.293,-2.35188 -0.8301,-3.07617 -0.5371,-0.72429 -1.3224,-1.09049 -2.3559,-1.09863 -1.1719,0 -2.0589,0.40079 -2.6612,1.20239 -0.6022,0.8016 -0.9033,1.88191 -0.9033,3.24097 0,1.31023 0.3032,2.40885 0.9095,3.2959 0.6062,0.88705 1.4383,1.33056 2.4963,1.33056 z m 15.7715,2.49024 c -2.1566,0 -3.8351,-0.62052 -5.0354,-1.86158 -1.2004,-1.24105 -1.8006,-2.95612 -1.8006,-5.14526 0,-2.13217 0.5656,-3.82893 1.6968,-5.09033 1.1312,-1.2614 2.6733,-1.89616 4.6265,-1.9043 1.8473,0 3.2816,0.5778 4.303,1.7334 1.0213,1.15561 1.5319,2.68961 1.5319,4.60205 0,0.13835 0,0.36214 -0.01,0.67139 0,0.30924 -0.01,0.53711 -0.01,0.68359 h -8.9233 c 0.033,1.25326 0.3764,2.22371 1.0315,2.91138 0.6551,0.68767 1.5564,1.03149 2.7038,1.03149 1.4649,0 2.8728,-0.38248 4.2237,-1.14746 l 0.4516,2.27051 c -1.3427,0.83008 -2.9418,1.24512 -4.7973,1.24512 z m -3.5523,-8.3252 h 5.8594 c 0,-1.0905 -0.2482,-1.92871 -0.7446,-2.51465 -0.4964,-0.58594 -1.1841,-0.8789 -2.063,-0.8789 -0.822,0 -1.5157,0.28483 -2.0813,0.85449 -0.5656,0.56966 -0.8891,1.41601 -0.9705,2.53906 z"
       id="Directed-Edge"
       inkscape:connector-curvature="0"
       style="fill:#ef95ef" />
    <path
       d="m 1055.729,350.25635 c -2.6123,0 -4.6834,-0.82193 -6.2134,-2.46582 -1.5299,-1.64389 -2.2949,-3.91438 -2.2949,-6.81153 0,-2.75066 0.7996,-4.95808 2.3987,-6.62231 1.5991,-1.66423 3.6926,-2.49634 6.2805,-2.49634 2.0915,0 3.8615,0.48421 5.3101,1.45264 l -1.0376,2.50244 c -1.3917,-0.8545 -2.7914,-1.28174 -4.1993,-1.28174 -1.6438,0 -2.9439,0.59204 -3.9001,1.77612 -0.9562,1.18409 -1.4343,2.77302 -1.4343,4.76685 0,2.06707 0.4618,3.66617 1.3855,4.79736 0.9236,1.13119 2.24,1.69678 3.9489,1.69678 1.4975,0 2.9826,-0.37434 4.4556,-1.12305 l 0.4395,2.58789 c -1.3672,0.81381 -3.0803,1.22071 -5.1392,1.22071 z m 8.4839,5.3955 c -0.5208,0 -1.0742,-0.0326 -1.6602,-0.0977 l -0.1587,-2.47803 c 0.3744,0.0407 0.8505,0.061 1.4283,0.061 0.7405,0 1.3346,-0.14649 1.7822,-0.43946 0.4476,-0.29297 0.8179,-0.81379 1.1108,-1.5625 0.033,-0.0814 0.1953,-0.54117 0.4883,-1.37939 l -5.3955,-13.17139 h 3.418 l 3.5278,9.72901 c 0.2604,-0.96843 0.8443,-2.76692 1.7517,-5.39551 0.9074,-2.6286 1.4059,-4.07308 1.4954,-4.3335 h 3.418 c -3.7191,9.83078 -5.5949,14.78679 -5.6275,14.86817 -0.5778,1.50554 -1.3061,2.58178 -2.185,3.22876 -0.879,0.64697 -2.0101,0.97045 -3.3936,0.97045 z m 18.7866,-5.3955 c -2.0508,0 -3.6478,-0.61035 -4.7912,-1.83106 -1.1434,-1.22071 -1.7151,-2.96629 -1.7151,-5.23681 0,-2.19728 0.6001,-3.90218 1.8005,-5.11475 1.2004,-1.21257 2.7812,-1.81885 4.7424,-1.81885 1.5707,0 2.8972,0.33773 3.9795,1.01319 l -0.7568,2.28271 c -1.1068,-0.5778 -2.1362,-0.8667 -3.0884,-0.8667 -1.0823,0 -1.9348,0.38655 -2.5574,1.15967 -0.6225,0.77312 -0.9338,1.90022 -0.9338,3.38135 0,1.4974 0.3072,2.63671 0.9216,3.41797 0.6145,0.78125 1.4832,1.17187 2.6062,1.17187 1.1719,0 2.299,-0.34586 3.3814,-1.0376 l 0.3052,2.4292 c -0.5616,0.37435 -1.1434,0.64291 -1.7456,0.80567 -0.6023,0.16276 -1.3184,0.24414 -2.1485,0.24414 z m 11.1328,-0.0732 c -0.9196,0 -1.6825,-0.10782 -2.2888,-0.32348 -0.6063,-0.21566 -1.0844,-0.55949 -1.4343,-1.0315 -0.35,-0.472 -0.5941,-1.03352 -0.7324,-1.68457 -0.1384,-0.65104 -0.2076,-1.46076 -0.2076,-2.4292 v -13.07373 l 3.1983,-0.20752 v 13.22022 c 0,1.20443 0.1424,2.02026 0.4272,2.44751 0.2849,0.42725 0.8382,0.64087 1.6602,0.64087 0.4069,0 0.9237,-0.0448 1.5503,-0.13428 l 0.085,2.28272 c -0.01,0 -0.1078,0.0203 -0.299,0.061 -0.1913,0.0407 -0.3744,0.0753 -0.5494,0.10376 -0.1749,0.0285 -0.3967,0.057 -0.6652,0.0854 -0.2686,0.0285 -0.5168,0.0427 -0.7447,0.0427 z m 10.0464,0.0732 c -2.1566,0 -3.835,-0.62052 -5.0354,-1.86158 -1.2003,-1.24105 -1.8005,-2.95612 -1.8005,-5.14526 0,-2.13217 0.5656,-3.82893 1.6968,-5.09033 1.1311,-1.2614 2.6733,-1.89616 4.6264,-1.9043 1.8474,0 3.2817,0.5778 4.303,1.7334 1.0213,1.15561 1.532,2.68961 1.532,4.60205 0,0.13835 0,0.36214 -0.01,0.67139 0,0.30924 -0.01,0.53711 -0.01,0.68359 h -8.9234 c 0.033,1.25326 0.3764,2.22371 1.0315,2.91138 0.6551,0.68767 1.5564,1.03149 2.7039,1.03149 1.4648,0 2.8727,-0.38248 4.2236,-1.14746 l 0.4517,2.27051 c -1.3428,0.83008 -2.9419,1.24512 -4.7974,1.24512 z m -3.5522,-8.3252 h 5.8593 c 0,-1.0905 -0.2482,-1.92871 -0.7446,-2.51465 -0.4964,-0.58594 -1.1841,-0.8789 -2.063,-0.8789 -0.8219,0 -1.5157,0.28483 -2.0813,0.85449 -0.5656,0.56966 -0.889,1.41601 -0.9704,2.53906 z"
       id="Cycle"
       inkscape:connector-curvature="0"
       style="fill:#37c3be" />
    <path
       d="m 282.73894,1024.7141 v -20.9428 h 12.00782 l -0.0991,2.1665 h -9.45899 v 6.8535 h 8.9917 v 2.1382 h -8.9917 v 7.6181 h 9.77051 l -0.11328,2.1665 z m 22.80352,-1.7133 c 1.55762,0 2.71639,-0.5004 3.47632,-1.501 0.75993,-1.0007 1.13989,-2.4308 1.13989,-4.2905 0,-2.0958 -0.3658,-3.6746 -1.09741,-4.7366 -0.73161,-1.062 -1.91397,-1.593 -3.54712,-1.593 -0.72689,0 -1.36881,0.1557 -1.92578,0.4672 -0.55697,0.3116 -1.00537,0.7458 -1.34522,1.3028 -0.33984,0.557 -0.59708,1.1965 -0.77173,1.9187 -0.17464,0.7222 -0.26196,1.5128 -0.26196,2.3718 0,1.2083 0.14868,2.2562 0.44605,3.1436 0.29736,0.8873 0.77644,1.5953 1.43725,2.124 0.66081,0.5286 1.47737,0.793 2.44971,0.793 z m 4.65869,-0.5381 c -0.50977,0.7835 -1.18945,1.4065 -2.03906,1.8691 -0.84962,0.4626 -1.79834,0.6939 -2.84619,0.6939 -2.04852,0 -3.65332,-0.7293 -4.81446,-2.1878 -1.16113,-1.4585 -1.7417,-3.4433 -1.7417,-5.9543 0,-2.3978 0.59001,-4.3354 1.77002,-5.8128 1.18002,-1.4774 2.76122,-2.216 4.74366,-2.216 1.02897,0 1.99893,0.2242 2.90991,0.6726 0.91097,0.4484 1.59301,1.0502 2.04614,1.8054 l -0.0425,-1.3452 v -6.8394 l 2.33643,-0.1416 v 21.7075 h -2.01075 z m 13.45781,0.2265 c 0.80242,0 1.5057,-0.1416 2.10987,-0.4248 0.60417,-0.2832 1.07617,-0.6749 1.41601,-1.1753 0.33985,-0.5003 0.59237,-1.0573 0.75757,-1.6709 0.1652,-0.6136 0.2478,-1.2838 0.2478,-2.0107 v -1.147 c 0,-0.7552 -0.085,-1.4514 -0.25488,-2.0886 -0.16992,-0.6372 -0.43188,-1.2083 -0.78589,-1.7134 -0.354,-0.505 -0.826,-0.8991 -1.41601,-1.1823 -0.59001,-0.2833 -1.27677,-0.4248 -2.06031,-0.4248 -0.65137,0 -1.24373,0.1227 -1.7771,0.3681 -0.53336,0.2455 -0.97232,0.5688 -1.31689,0.97 -0.34457,0.4012 -0.63721,0.8685 -0.87793,1.4018 -0.24072,0.5334 -0.413,1.0739 -0.51685,1.6214 -0.10384,0.5475 -0.15576,1.0997 -0.15576,1.6567 0,0.5475 0.0566,1.0903 0.16992,1.6284 0.11329,0.5381 0.29265,1.062 0.53809,1.5718 0.24545,0.5098 0.5428,0.9558 0.89209,1.3381 0.34929,0.3824 0.78589,0.6915 1.30982,0.9275 0.52392,0.236 1.0974,0.354 1.72045,0.354 z m -3.63916,9.1333 -0.2124,-2.1381 h 2.88867 c 0.80242,0 1.50098,-0.057 2.09571,-0.17 0.59473,-0.1132 1.09033,-0.2997 1.48681,-0.5593 0.39649,-0.2596 0.71745,-0.5475 0.96289,-0.8638 0.24545,-0.3162 0.43189,-0.7268 0.55933,-1.2319 0.12744,-0.505 0.2124,-1.0054 0.25488,-1.501 0.0425,-0.4956 0.0637,-1.1021 0.0637,-1.8195 v -1.3736 c -0.56641,0.8119 -1.22249,1.4373 -1.96826,1.8762 -0.74577,0.439 -1.69449,0.6585 -2.84619,0.6585 -0.88737,0 -1.7063,-0.1534 -2.45679,-0.4602 -0.75049,-0.3068 -1.38297,-0.7151 -1.89746,-1.2249 -0.51449,-0.5098 -0.95345,-1.0997 -1.31689,-1.77 -0.36345,-0.6702 -0.62777,-1.3641 -0.79297,-2.0815 -0.1652,-0.7175 -0.2478,-1.4397 -0.2478,-2.1666 0,-1.1328 0.13924,-2.1806 0.41772,-3.1435 0.27849,-0.9629 0.69149,-1.8219 1.23901,-2.5771 0.54753,-0.7553 1.26733,-1.3476 2.15943,-1.7772 0.89209,-0.4295 1.91397,-0.6442 3.06567,-0.6442 1.01954,0 1.90926,0.1958 2.66919,0.5876 0.75993,0.3918 1.44197,0.9936 2.04614,1.8054 v -2.0674 h 2.30811 v 14.4151 c 0,0.6608 -0.0165,1.239 -0.0496,1.7346 -0.033,0.4956 -0.11328,1.0455 -0.24072,1.6497 -0.12745,0.6041 -0.29973,1.1233 -0.51685,1.5576 -0.21712,0.4342 -0.52156,0.8708 -0.91333,1.3098 -0.39177,0.439 -0.85905,0.793 -1.40185,1.062 -0.54281,0.2691 -1.21541,0.4885 -2.01783,0.6585 -0.80241,0.1699 -1.70865,0.2548 -2.71875,0.2548 z m 21.51494,-21.0136 c -1.20833,0 -2.19482,0.4271 -2.95947,1.2815 -0.76465,0.8543 -1.21305,2.0225 -1.34521,3.5046 h 8.19873 c 0,-1.5388 -0.34692,-2.7211 -1.04077,-3.5471 -0.69385,-0.826 -1.64494,-1.239 -2.85328,-1.239 z m 0.46729,14.2309 c -2.2562,0 -4.03328,-0.7174 -5.3313,-2.1523 -1.29802,-1.4349 -1.94702,-3.3984 -1.94702,-5.8907 0,-2.4072 0.62776,-4.3589 1.8833,-5.8552 1.25554,-1.4962 2.90754,-2.2585 4.95606,-2.2868 1.92579,0 3.45271,0.6584 4.58081,1.9753 1.12809,1.3169 1.69213,3.0751 1.69213,5.2747 0,0.1132 -0.002,0.3209 -0.007,0.623 -0.005,0.3021 -0.007,0.5192 -0.007,0.6514 h -10.6626 c 0.0283,1.7653 0.4838,3.1412 1.36645,4.1277 0.88266,0.9865 2.06974,1.4797 3.56128,1.4797 1.64259,0 3.28987,-0.4342 4.9419,-1.3027 l 0.36816,1.9116 c -1.57651,0.9629 -3.37483,1.4443 -5.39502,1.4443 z"
       id="Edge"
       inkscape:connector-curvature="0"
       style="fill:#ffffff" />
    <path
       d="m 178.46055,1056.878 c 0,-3.1902 0.88866,-6.0807 2.66601,-8.6719 h 1.51367 c -1.67969,2.6172 -2.51953,5.4948 -2.51953,8.6328 0,1.4714 0.22136,2.9557 0.66407,4.4531 0.44271,1.4974 1.06119,2.8548 1.85546,4.0723 h -1.49414 c -0.83984,-1.1654 -1.49739,-2.4788 -1.97265,-3.9404 -0.47527,-1.4616 -0.71289,-2.9769 -0.71289,-4.5459 z m 11.89843,-3.7403 c -1.03516,0 -1.82779,0.3565 -2.37793,1.0694 -0.55013,0.7129 -0.82519,1.7594 -0.82519,3.1396 0,2.8256 1.06444,4.2383 3.19336,4.2383 0.52735,0 0.99121,-0.109 1.3916,-0.3271 0.40039,-0.2182 0.71615,-0.5241 0.94727,-0.918 0.23112,-0.3939 0.40364,-0.8382 0.51757,-1.333 0.11394,-0.4948 0.1709,-1.045 0.1709,-1.6504 0,-0.8203 -0.096,-1.5365 -0.28808,-2.1485 -0.19206,-0.6119 -0.51921,-1.11 -0.98145,-1.4941 -0.46224,-0.3841 -1.04492,-0.5762 -1.74805,-0.5762 z m 0.16602,-1.3574 c 0.95053,0 1.77083,0.2409 2.46094,0.7227 0.69011,0.4817 1.20768,1.136 1.55273,1.9629 0.34506,0.8268 0.51758,1.774 0.51758,2.8418 0,1.1067 -0.1709,2.08 -0.5127,2.9199 -0.34179,0.8398 -0.85937,1.5023 -1.55273,1.9873 -0.69336,0.485 -1.5218,0.7275 -2.48535,0.7275 -0.70964,0 -1.35742,-0.153 -1.94336,-0.459 -0.58594,-0.306 -1.07422,-0.7226 -1.46484,-1.25 l -0.16602,1.4844 h -1.39648 v -14.873 l 1.63086,-0.098 v 3.5449 c 0,0.8724 -0.013,1.6211 -0.0391,2.2461 0.37761,-0.5403 0.86751,-0.9684 1.46973,-1.2842 0.60222,-0.3157 1.24511,-0.4736 1.92871,-0.4736 z m 11.72266,1.3477 c -0.83334,0 -1.51367,0.2946 -2.04102,0.8837 -0.52735,0.5893 -0.83659,1.3949 -0.92773,2.417 h 5.65429 c 0,-1.0612 -0.23925,-1.8766 -0.71777,-2.4462 -0.47852,-0.5697 -1.13444,-0.8545 -1.96777,-0.8545 z m 0.32226,9.8144 c -1.556,0 -2.78157,-0.4948 -3.67676,-1.4844 -0.89518,-0.9895 -1.34277,-2.3437 -1.34277,-4.0625 0,-1.6601 0.43294,-3.0061 1.29883,-4.038 0.86589,-1.0319 2.0052,-1.5577 3.41797,-1.5772 1.32813,0 2.38118,0.4541 3.15918,1.3623 0.778,0.9082 1.16699,2.1208 1.16699,3.6377 0,0.078 -0.002,0.2214 -0.005,0.4297 -0.003,0.2083 -0.005,0.3581 -0.005,0.4492 h -7.35351 c 0.0195,1.2175 0.33365,2.1664 0.94238,2.8467 0.60873,0.6803 1.4274,1.0205 2.45606,1.0205 1.13281,0 2.26887,-0.2995 3.4082,-0.8984 l 0.25391,1.3183 c -1.08725,0.6641 -2.32747,0.9961 -3.72071,0.9961 z m 10.39453,-0.029 c -1.05469,0 -1.80338,-0.2571 -2.24609,-0.7715 -0.44271,-0.5143 -0.67708,-1.3444 -0.70313,-2.4902 v -6.4355 h -1.59179 l 0.0684,-1.0743 1.51367,-0.1367 0.55664,-2.4512 1.07422,-0.039 v 2.4902 h 2.97851 v 1.211 h -2.97851 v 6.1425 c 0,0.8138 0.1237,1.3868 0.37109,1.7188 0.2474,0.332 0.67057,0.498 1.26953,0.498 0.21485,0 0.68034,-0.052 1.39649,-0.1562 l 0.0684,1.289 c -0.77475,0.1368 -1.36719,0.2051 -1.77735,0.2051 z m 13.45118,-0.1953 c -1.50392,-4.8047 -2.4349,-7.7962 -2.79297,-8.9746 -0.20183,0.7162 -0.43294,1.4909 -0.69336,2.3242 -0.26042,0.8334 -0.48828,1.5495 -0.6836,2.1485 -0.19531,0.5989 -0.44921,1.3737 -0.76172,2.3242 -0.3125,0.9505 -0.55012,1.6764 -0.71289,2.1777 h -1.75781 l -3.05664,-10.7129 h 1.68945 l 2.29493,8.7695 c 0.31901,-1.0416 1.2565,-3.9648 2.8125,-8.7695 h 1.8457 c 1.54949,4.9089 2.46094,7.8223 2.73437,8.7403 l 2.26563,-8.7403 h 1.66992 l -3.08594,10.7129 z M 237.65,1053.128 c -0.83334,0 -1.51367,0.2946 -2.04102,0.8837 -0.52734,0.5893 -0.83658,1.3949 -0.92773,2.417 h 5.6543 c 0,-1.0612 -0.23926,-1.8766 -0.71778,-2.4462 -0.47851,-0.5697 -1.13443,-0.8545 -1.96777,-0.8545 z m 0.32227,9.8144 c -1.556,0 -2.78158,-0.4948 -3.67676,-1.4844 -0.89519,-0.9895 -1.34278,-2.3437 -1.34278,-4.0625 0,-1.6601 0.43294,-3.0061 1.29883,-4.038 0.86589,-1.0319 2.0052,-1.5577 3.41797,-1.5772 1.32813,0 2.38118,0.4541 3.15918,1.3623 0.778,0.9082 1.16699,2.1208 1.16699,3.6377 0,0.078 -0.002,0.2214 -0.005,0.4297 -0.003,0.2083 -0.005,0.3581 -0.005,0.4492 h -7.35352 c 0.0195,1.2175 0.33366,2.1664 0.94238,2.8467 0.60873,0.6803 1.42741,1.0205 2.45606,1.0205 1.13282,0 2.26887,-0.2995 3.4082,-0.8984 l 0.25391,1.3183 c -1.08725,0.6641 -2.32747,0.9961 -3.7207,0.9961 z m 11.18554,-9.8144 c -0.83333,0 -1.51367,0.2946 -2.04101,0.8837 -0.52735,0.5893 -0.83659,1.3949 -0.92774,2.417 h 5.6543 c 0,-1.0612 -0.23926,-1.8766 -0.71777,-2.4462 -0.47852,-0.5697 -1.13444,-0.8545 -1.96778,-0.8545 z m 0.32227,9.8144 c -1.556,0 -2.78157,-0.4948 -3.67676,-1.4844 -0.89519,-0.9895 -1.34277,-2.3437 -1.34277,-4.0625 0,-1.6601 0.43294,-3.0061 1.29883,-4.038 0.86589,-1.0319 2.0052,-1.5577 3.41796,-1.5772 1.32814,0 2.38119,0.4541 3.15918,1.3623 0.778,0.9082 1.167,2.1208 1.167,3.6377 0,0.078 -0.002,0.2214 -0.005,0.4297 -0.003,0.2083 -0.005,0.3581 -0.005,0.4492 H 246.14 c 0.0195,1.2175 0.33366,2.1664 0.94239,2.8467 0.60872,0.6803 1.4274,1.0205 2.45605,1.0205 1.13282,0 2.26888,-0.2995 3.40821,-0.8984 l 0.2539,1.3183 c -1.08724,0.6641 -2.32747,0.9961 -3.7207,0.9961 z m 6.97656,-0.2246 v -10.7129 h 1.36719 l 0.20508,1.5332 c 0.42318,-0.5273 0.95214,-0.9521 1.58691,-1.2744 0.63477,-0.3223 1.31998,-0.4834 2.05567,-0.4834 1.23698,0 2.15168,0.3467 2.74414,1.0401 0.59245,0.6933 0.88867,1.7594 0.88867,3.1982 v 6.6992 h -1.63086 c 0,-4.2969 -0.003,-6.5983 -0.01,-6.9043 -0.026,-0.9114 -0.20996,-1.5788 -0.55176,-2.0019 -0.34179,-0.4232 -0.91308,-0.6348 -1.71386,-0.6348 -0.83985,0 -1.53971,0.2018 -2.09961,0.6055 -0.5599,0.4036 -0.92448,0.9277 -1.09375,1.5722 -0.0651,0.4362 -0.0977,0.9375 -0.0977,1.5039 v 5.8594 z m 19.91992,-6.875 v 5.4883 h 3.01758 c 1.22397,0 2.14192,-0.2262 2.75391,-0.6787 0.61198,-0.4525 0.91797,-1.1572 0.91797,-2.1143 0,-0.9961 -0.3304,-1.6943 -0.99121,-2.0947 -0.66082,-0.4004 -1.69108,-0.6006 -3.09082,-0.6006 z m 0,-1.3574 h 3.09571 c 1.00912,0 1.77083,-0.1758 2.28515,-0.5274 0.51433,-0.3515 0.77149,-0.9765 0.77149,-1.875 0,-0.9049 -0.30762,-1.5283 -0.92285,-1.8701 -0.61524,-0.3418 -1.57064,-0.5127 -2.86622,-0.5127 h -2.36328 z m -1.68945,-6.211 h 4.14063 c 1.85547,0 3.23078,0.2833 4.12597,0.8497 0.89519,0.5664 1.34278,1.4681 1.34278,2.705 0,0.1823 -0.0114,0.363 -0.0342,0.542 -0.0228,0.1791 -0.0814,0.4086 -0.17579,0.6885 -0.0944,0.28 -0.22298,0.5355 -0.38574,0.7666 -0.16276,0.2311 -0.40202,0.4622 -0.71777,0.6934 -0.31576,0.2311 -0.68522,0.415 -1.1084,0.5517 0.97006,0.1823 1.70573,0.5925 2.20703,1.2305 0.50131,0.638 0.75195,1.4062 0.75195,2.3047 0,1.3086 -0.42805,2.3209 -1.28418,3.0371 -0.85612,0.7161 -2.13052,1.0742 -3.82324,1.0742 h -5.03906 z m 17.15234,4.8536 c -0.83333,0 -1.51367,0.2946 -2.04101,0.8837 -0.52735,0.5893 -0.83659,1.3949 -0.92774,2.417 h 5.6543 c 0,-1.0612 -0.23925,-1.8766 -0.71777,-2.4462 -0.47852,-0.5697 -1.13444,-0.8545 -1.96778,-0.8545 z m 0.32227,9.8144 c -1.556,0 -2.78157,-0.4948 -3.67676,-1.4844 -0.89519,-0.9895 -1.34277,-2.3437 -1.34277,-4.0625 0,-1.6601 0.43294,-3.0061 1.29883,-4.038 0.86589,-1.0319 2.0052,-1.5577 3.41797,-1.5772 1.32813,0 2.38118,0.4541 3.15917,1.3623 0.778,0.9082 1.167,2.1208 1.167,3.6377 0,0.078 -0.002,0.2214 -0.005,0.4297 -0.003,0.2083 -0.005,0.3581 -0.005,0.4492 h -7.35351 c 0.0195,1.2175 0.33365,2.1664 0.94238,2.8467 0.60873,0.6803 1.4274,1.0205 2.45605,1.0205 1.13282,0 2.26888,-0.2995 3.40821,-0.8984 l 0.2539,1.3183 c -1.08724,0.6641 -2.32746,0.9961 -3.7207,0.9961 z m 11.15625,-1.4062 c 1.07422,0 1.87337,-0.3451 2.39746,-1.0352 0.52409,-0.6901 0.78613,-1.6764 0.78613,-2.959 0,-1.4453 -0.25227,-2.5341 -0.75683,-3.2666 -0.50456,-0.7324 -1.31998,-1.0986 -2.44629,-1.0986 -0.50131,0 -0.94401,0.1074 -1.32813,0.3223 -0.38411,0.2148 -0.69336,0.5143 -0.92773,0.8984 -0.23438,0.3841 -0.41178,0.8252 -0.53223,1.3232 -0.12044,0.4981 -0.18066,1.0433 -0.18066,1.6358 0,0.8333 0.10254,1.556 0.30762,2.1679 0.20507,0.612 0.53547,1.1003 0.99121,1.4649 0.45573,0.3646 1.01887,0.5469 1.68945,0.5469 z m 3.21289,-0.3711 c -0.35156,0.5403 -0.82031,0.97 -1.40625,1.289 -0.58594,0.3191 -1.24023,0.4786 -1.96289,0.4786 -1.41277,0 -2.51953,-0.503 -3.32031,-1.5088 -0.80079,-1.0059 -1.20117,-2.3747 -1.20117,-4.1065 0,-1.6536 0.40689,-2.9899 1.2207,-4.0088 0.8138,-1.0189 1.90429,-1.5283 3.27148,-1.5283 0.70964,0 1.37858,0.1546 2.00684,0.4639 0.62826,0.3092 1.09863,0.7243 1.41113,1.2451 l -0.0293,-0.9277 v -4.7168 l 1.61133,-0.098 v 14.9707 h -1.38672 z m 9.19336,-12.2754 c -0.67709,0 -1.14095,0.1953 -1.3916,0.5859 -0.25065,0.3907 -0.37598,1.0677 -0.37598,2.0313 v 0.498 h 2.57813 v 1.211 h -2.57813 v 9.5019 h -1.63086 v -9.5019 h -1.73828 l 0.13672,-1.0743 1.60156,-0.1367 v -0.4785 c 0.013,-1.3802 0.27181,-2.3812 0.77637,-3.0029 0.50456,-0.6218 1.31998,-0.9326 2.44629,-0.9326 0.4362,0 0.97005,0.049 1.60156,0.1464 l -0.10742,1.2793 c -0.57943,-0.085 -1.01888,-0.1269 -1.31836,-0.1269 z m 4.25195,8.4961 c 0,1.2695 0.28157,2.2868 0.84473,3.0517 0.56315,0.765 1.38508,1.1475 2.46582,1.1475 1.06771,0 1.87337,-0.3809 2.41699,-1.1426 0.54362,-0.7617 0.81543,-1.7871 0.81543,-3.0762 0,-1.3086 -0.26855,-2.3388 -0.80566,-3.0908 -0.53712,-0.7519 -1.35579,-1.1279 -2.45606,-1.1279 -1.06771,0 -1.8815,0.3841 -2.4414,1.1523 -0.5599,0.7683 -0.83985,1.7969 -0.83985,3.086 z m 8.23242,-0.029 c 0,1.6601 -0.4427,3.0062 -1.32812,4.0381 -0.88542,1.0319 -2.10937,1.5478 -3.67188,1.5478 -1.50391,0 -2.70019,-0.5208 -3.58886,-1.5625 -0.88868,-1.0417 -1.33301,-2.3795 -1.33301,-4.0137 0,-1.6666 0.44596,-3.0143 1.33789,-4.0429 0.89193,-1.0287 2.11588,-1.543 3.67188,-1.543 1.52995,0 2.73111,0.516 3.60351,1.5479 0.8724,1.0319 1.30859,2.3746 1.30859,4.0283 z m 7.79688,-5.4492 c 0.29297,0 0.55989,0.019 0.80078,0.059 l -0.0586,1.5039 c -0.29948,-0.052 -0.5599,-0.078 -0.78125,-0.078 -0.91147,0 -1.65202,0.3174 -2.22168,0.9522 -0.56967,0.6348 -0.85449,1.4209 -0.85449,2.3584 v 6.0156 h -1.63086 c -0.007,-6.5755 -0.01,-10.1465 -0.01,-10.7129 h 1.35742 l 0.15625,1.9238 c 0.3711,-0.6054 0.8431,-1.0937 1.41602,-1.4648 0.57292,-0.3711 1.18163,-0.5566 1.82617,-0.5566 z m 7.15234,9.6289 c 1.07423,0 1.87337,-0.3451 2.39746,-1.0352 0.52409,-0.6901 0.78614,-1.6764 0.78614,-2.959 0,-1.4453 -0.25228,-2.5341 -0.75684,-3.2666 -0.50456,-0.7324 -1.31998,-1.0986 -2.44629,-1.0986 -0.5013,0 -0.94401,0.1074 -1.32812,0.3223 -0.38412,0.2148 -0.69336,0.5143 -0.92774,0.8984 -0.23437,0.3841 -0.41178,0.8252 -0.53222,1.3232 -0.12045,0.4981 -0.18067,1.0433 -0.18067,1.6358 0,0.8333 0.10254,1.556 0.30762,2.1679 0.20508,0.612 0.53548,1.1003 0.99121,1.4649 0.45573,0.3646 1.01888,0.5469 1.68945,0.5469 z m 3.21289,-0.3711 c -0.35156,0.5403 -0.82031,0.97 -1.40625,1.289 -0.58594,0.3191 -1.24023,0.4786 -1.96289,0.4786 -1.41276,0 -2.51952,-0.503 -3.32031,-1.5088 -0.80078,-1.0059 -1.20117,-2.3747 -1.20117,-4.1065 0,-1.6536 0.4069,-2.9899 1.2207,-4.0088 0.81381,-1.0189 1.90429,-1.5283 3.27149,-1.5283 0.70963,0 1.37857,0.1546 2.00683,0.4639 0.62826,0.3092 1.09863,0.7243 1.41114,1.2451 l -0.0293,-0.9277 v -4.7168 l 1.61133,-0.098 v 14.9707 h -1.38672 z m 13.89454,0.459 c 0.77474,0 1.4567,-0.2133 2.04589,-0.6397 0.5892,-0.4264 0.96843,-1.001 1.1377,-1.7236 v -1.8067 c -0.0326,0 -0.22949,0.016 -0.59082,0.049 -0.36133,0.033 -0.59733,0.052 -0.70801,0.059 -1.41277,0.1237 -2.39746,0.3548 -2.9541,0.6933 -0.55664,0.3386 -0.83496,0.8822 -0.83496,1.6309 0,0.5729 0.16927,1.0058 0.50781,1.2988 0.33854,0.293 0.80403,0.4395 1.39649,0.4395 z m 3.54492,1.0937 c -0.0977,-0.4167 -0.19206,-0.8659 -0.28321,-1.3476 -0.59245,0.5924 -1.14908,1.0026 -1.66992,1.2304 -0.52083,0.2279 -1.13281,0.3418 -1.83594,0.3418 -1.00261,0 -1.80826,-0.262 -2.41699,-0.7861 -0.60872,-0.5241 -0.91308,-1.2777 -0.91308,-2.2608 0,-1.0937 0.41503,-1.9042 1.24511,-2.4316 0.83009,-0.5274 2.02636,-0.8561 3.58887,-0.9863 0.21485,-0.02 0.53874,-0.047 0.97168,-0.083 0.43294,-0.036 0.75683,-0.063 0.97168,-0.083 v -0.9473 c 0,-0.7552 -0.17578,-1.3151 -0.52734,-1.6797 -0.35157,-0.3646 -0.90495,-0.5469 -1.66016,-0.5469 -1.05469,0 -2.11914,0.2604 -3.19336,0.7813 -0.0325,-0.078 -0.11719,-0.3044 -0.25391,-0.6787 -0.13672,-0.3744 -0.20833,-0.5681 -0.21484,-0.5811 0.47526,-0.2669 1.04004,-0.4801 1.69434,-0.6396 0.6543,-0.1595 1.31998,-0.2393 1.99707,-0.2393 1.33464,0 2.29654,0.2913 2.88574,0.874 0.58919,0.5827 0.88379,1.5739 0.88379,2.9737 v 7.0898 z m 4.76953,0 v -10.7129 h 1.36719 l 0.20507,1.5332 c 0.42318,-0.5273 0.95215,-0.9521 1.58692,-1.2744 0.63477,-0.3223 1.31998,-0.4834 2.05566,-0.4834 1.23699,0 2.15169,0.3467 2.74414,1.0401 0.59245,0.6933 0.88867,1.7594 0.88867,3.1982 v 6.6992 h -1.63085 c 0,-4.2969 -0.003,-6.5983 -0.01,-6.9043 -0.026,-0.9114 -0.20996,-1.5788 -0.55176,-2.0019 -0.3418,-0.4232 -0.91308,-0.6348 -1.71387,-0.6348 -0.83984,0 -1.53971,0.2018 -2.0996,0.6055 -0.5599,0.4036 -0.92448,0.9277 -1.09375,1.5722 -0.0651,0.4362 -0.0977,0.9375 -0.0977,1.5039 v 5.8594 z m 16.42969,-1.1816 c 1.07422,0 1.87337,-0.3451 2.39746,-1.0352 0.52409,-0.6901 0.78613,-1.6764 0.78613,-2.959 0,-1.4453 -0.25228,-2.5341 -0.75684,-3.2666 -0.50456,-0.7324 -1.31998,-1.0986 -2.44629,-1.0986 -0.5013,0 -0.944,0.1074 -1.32812,0.3223 -0.38412,0.2148 -0.69336,0.5143 -0.92773,0.8984 -0.23438,0.3841 -0.41179,0.8252 -0.53223,1.3232 -0.12044,0.4981 -0.18067,1.0433 -0.18067,1.6358 0,0.8333 0.10254,1.556 0.30762,2.1679 0.20508,0.612 0.53548,1.1003 0.99121,1.4649 0.45573,0.3646 1.01888,0.5469 1.68946,0.5469 z m 3.21289,-0.3711 c -0.35157,0.5403 -0.82031,0.97 -1.40625,1.289 -0.58594,0.3191 -1.24023,0.4786 -1.96289,0.4786 -1.41277,0 -2.51953,-0.503 -3.32032,-1.5088 -0.80078,-1.0059 -1.20117,-2.3747 -1.20117,-4.1065 0,-1.6536 0.4069,-2.9899 1.2207,-4.0088 0.81381,-1.0189 1.90429,-1.5283 3.27149,-1.5283 0.70964,0 1.37858,0.1546 2.00683,0.4639 0.62826,0.3092 1.09864,0.7243 1.41114,1.2451 l -0.0293,-0.9277 v -4.7168 l 1.61133,-0.098 v 14.9707 h -1.38672 z m 21.87304,-12.8907 v 9.375 c 0,1.6602 -0.45409,2.9558 -1.3623,3.8868 -0.90821,0.931 -2.29003,1.3965 -4.14551,1.3965 -1.85548,0 -3.22591,-0.4655 -4.11133,-1.3965 -0.88542,-0.931 -1.32812,-2.2331 -1.32812,-3.9063 v -9.3555 h 1.69922 v 9.3848 c 0,1.3086 0.30924,2.2721 0.92773,2.8906 0.61849,0.6185 1.57551,0.9278 2.87109,0.9278 1.26303,0 2.2054,-0.3125 2.82715,-0.9375 0.62175,-0.625 0.93262,-1.5886 0.93262,-2.8907 v -9.375 z m 7.07422,14.6387 c -1.05469,0 -1.80338,-0.2571 -2.24609,-0.7715 -0.44271,-0.5143 -0.67709,-1.3444 -0.70313,-2.4902 v -6.4355 h -1.59179 l 0.0684,-1.0743 1.51367,-0.1367 0.55664,-2.4512 1.07422,-0.039 v 2.4902 h 2.97851 v 1.211 h -2.97851 v 6.1425 c 0,0.8138 0.12369,1.3868 0.37109,1.7188 0.2474,0.332 0.67057,0.498 1.26953,0.498 0.21485,0 0.68034,-0.052 1.39649,-0.1562 l 0.0684,1.289 c -0.77475,0.1368 -1.36719,0.2051 -1.77735,0.2051 z m 6.12696,-10.9082 v 10.7129 h -1.64063 v -10.7129 z m 0,-3.8965 v 1.9336 h -1.64063 v -1.9336 z m 8.28515,14.834 c -1.57553,0 -2.80761,-0.511 -3.69629,-1.5332 -0.88867,-1.0221 -1.33301,-2.36 -1.33301,-4.0137 0.007,-1.6666 0.46061,-3.0192 1.36231,-4.0576 0.9017,-1.0384 2.13704,-1.5576 3.70605,-1.5576 0.55339,0 1.08887,0.068 1.60645,0.2051 0.51758,0.1367 0.9261,0.3157 1.22559,0.5371 l -0.44922,1.2695 c -0.76173,-0.4101 -1.56575,-0.6152 -2.41211,-0.6152 -1.03516,0 -1.85384,0.3776 -2.45606,1.1328 -0.60221,0.7552 -0.90332,1.7871 -0.90332,3.0957 0,1.2761 0.29785,2.2868 0.89356,3.0322 0.5957,0.7455 1.42089,1.1182 2.47558,1.1182 0.83985,0 1.69922,-0.2279 2.57813,-0.6836 l 0.20508,1.2988 c -0.70964,0.5144 -1.64388,0.7715 -2.80274,0.7715 z m 8.70508,-1.3183 c 0.77474,0 1.4567,-0.2133 2.0459,-0.6397 0.58919,-0.4264 0.96842,-1.001 1.13769,-1.7236 v -1.8067 c -0.0325,0 -0.22949,0.016 -0.59082,0.049 -0.36133,0.033 -0.59733,0.052 -0.708,0.059 -1.41277,0.1237 -2.39746,0.3548 -2.95411,0.6933 -0.55664,0.3386 -0.83496,0.8822 -0.83496,1.6309 0,0.5729 0.16927,1.0058 0.50782,1.2988 0.33854,0.293 0.80403,0.4395 1.39648,0.4395 z m 3.54492,1.0937 c -0.0976,-0.4167 -0.19206,-0.8659 -0.2832,-1.3476 -0.59245,0.5924 -1.14909,1.0026 -1.66992,1.2304 -0.52084,0.2279 -1.13281,0.3418 -1.83594,0.3418 -1.00261,0 -1.80827,-0.262 -2.41699,-0.7861 -0.60873,-0.5241 -0.91309,-1.2777 -0.91309,-2.2608 0,-1.0937 0.41504,-1.9042 1.24512,-2.4316 0.83008,-0.5274 2.02636,-0.8561 3.58887,-0.9863 0.21484,-0.02 0.53873,-0.047 0.97167,-0.083 0.43295,-0.036 0.75684,-0.063 0.97168,-0.083 v -0.9473 c 0,-0.7552 -0.17577,-1.3151 -0.52734,-1.6797 -0.35156,-0.3646 -0.90494,-0.5469 -1.66016,-0.5469 -1.05469,0 -2.11913,0.2604 -3.19335,0.7813 -0.0326,-0.078 -0.11719,-0.3044 -0.25391,-0.6787 -0.13672,-0.3744 -0.20833,-0.5681 -0.21484,-0.5811 0.47526,-0.2669 1.04003,-0.4801 1.69433,-0.6396 0.6543,-0.1595 1.31999,-0.2393 1.99707,-0.2393 1.33464,0 2.29655,0.2913 2.88574,0.874 0.5892,0.5827 0.88379,1.5739 0.88379,2.9737 v 7.0898 z m 8.31445,-5.8398 c 0,1.569 -0.23762,3.0826 -0.71289,4.541 -0.47526,1.4583 -1.13606,2.7734 -1.98242,3.9453 h -1.48437 c 0.79427,-1.2175 1.41275,-2.5749 1.85547,-4.0723 0.44271,-1.4974 0.66406,-2.9817 0.66406,-4.4531 0,-3.125 -0.84309,-6.0026 -2.5293,-8.6328 h 1.51367 c 1.78387,2.6302 2.67578,5.5208 2.67578,8.6719 z"
       id="(between-Bedford-and"
       inkscape:connector-curvature="0"
       style="fill:#ffffff" />
    <g
       id="Group"
       transform="translate(109.66284,628.18175)">
      <rect
         id="Rectangle-4-Copy-5-[30-60]"
         x="3.5"
         y="3.5"
         width="197.23242"
         height="109.74982"
         rx="54.874912"
         style="stroke:#ffc107;stroke-width:7" />
      <path
         d="M 58.334962,51.373466 V 34.205497 h 5.355469 c 2.273449,0 3.968745,0.332028 5.085938,0.996094 1.117193,0.664066 1.675781,1.769523 1.675781,3.316406 0,0.250001 -0.01563,0.496093 -0.04687,0.738281 -0.03125,0.242189 -0.101562,0.517577 -0.210938,0.826172 -0.109375,0.308595 -0.253905,0.58789 -0.433593,0.837891 -0.179689,0.250001 -0.429686,0.494139 -0.75,0.732422 -0.320315,0.238282 -0.695311,0.423827 -1.125,0.55664 1.062505,0.257814 1.874997,0.75195 2.4375,1.482422 0.562502,0.730473 0.84375,1.630854 0.84375,2.701172 0,1.617196 -0.57226,2.851558 -1.716797,3.703125 -1.144537,0.851567 -2.728506,1.277344 -4.751953,1.277344 z m 3.175782,-2.296875 h 2.753906 c 2.437512,0 3.65625,-0.953116 3.65625,-2.859375 0,-0.960943 -0.304685,-1.652342 -0.914063,-2.074219 -0.609378,-0.421877 -1.550774,-0.632812 -2.824218,-0.632812 h -2.671875 z m 0,-7.78125 h 2.71875 c 2.101573,0 3.152343,-0.800773 3.152343,-2.402344 0,-0.898442 -0.302731,-1.515623 -0.908203,-1.851562 -0.605472,-0.33594 -1.568353,-0.503907 -2.888672,-0.503907 H 61.510744 Z M 79.616212,51.61956 c -2.070323,0 -3.681634,-0.595698 -4.833984,-1.78711 -1.152349,-1.191412 -1.728516,-2.83788 -1.728516,-4.939453 0,-2.046885 0.542964,-3.675775 1.628907,-4.886719 1.085943,-1.210943 2.566396,-1.820312 4.441406,-1.828125 1.773446,0 3.150386,0.554682 4.130859,1.664063 0.980474,1.10938 1.470703,2.582022 1.470703,4.417969 0,0.132813 -0.002,0.347654 -0.0059,0.644531 -0.0039,0.296876 -0.0059,0.515624 -0.0059,0.65625 H 76.14738 c 0.03125,1.203131 0.361325,2.134762 0.990235,2.794922 0.628909,0.660159 1.494135,0.990234 2.595703,0.990234 1.406257,0 2.757806,-0.367184 4.054687,-1.101562 l 0.433594,2.179687 c -1.289069,0.796879 -2.82421,1.195313 -4.605469,1.195313 z m -3.410156,-7.992188 h 5.625 c 0,-1.04688 -0.238279,-1.85156 -0.714844,-2.414062 -0.476565,-0.562503 -1.136714,-0.84375 -1.980468,-0.84375 -0.789067,0 -1.455076,0.273434 -1.998047,0.820312 -0.542972,0.546878 -0.853515,1.35937 -0.931641,2.4375 z M 92.01465,51.61956 c -1.679696,0 -2.999995,-0.617182 -3.960938,-1.851563 -0.960942,-1.234381 -1.441406,-2.882802 -1.441406,-4.945312 0,-2.00001 0.478511,-3.607416 1.435547,-4.822266 0.957036,-1.21485 2.275382,-1.822266 3.955078,-1.822266 1.828134,0 3.12109,0.648431 3.878906,1.945313 -0.07813,-0.765629 -0.117187,-1.503903 -0.117187,-2.214844 v -4.160156 l 3.070312,-0.199219 v 17.824219 h -2.660156 l -0.339844,-1.757813 c -0.132813,0.210939 -0.255858,0.392578 -0.36914,0.544922 -0.113282,0.152345 -0.279296,0.328124 -0.498047,0.527344 -0.218751,0.19922 -0.455077,0.359374 -0.708984,0.480469 -0.253908,0.121094 -0.574217,0.226562 -0.960938,0.316406 -0.386721,0.08984 -0.814451,0.134766 -1.283203,0.134766 z m 0.726562,-2.332032 c 2.062511,0 3.109375,-1.402329 3.140625,-4.207031 0,-1.585945 -0.265622,-2.742184 -0.796875,-3.46875 -0.531252,-0.726566 -1.324213,-1.089844 -2.378906,-1.089844 -0.92188,0 -1.6582,0.369137 -2.208984,1.107422 -0.550784,0.738285 -0.826172,1.826165 -0.826172,3.263672 0,1.429695 0.275388,2.519528 0.826172,3.269531 0.550784,0.750004 1.298823,1.125 2.24414,1.125 z M 102.7959,51.373466 V 40.533622 h -2.03906 l 0.19922,-1.804687 1.83984,-0.234375 v -0.714844 c 0,-0.781254 0.0723,-1.449216 0.2168,-2.003906 0.14453,-0.554691 0.38085,-1.029295 0.70898,-1.423829 0.32813,-0.394533 0.76758,-0.687499 1.31836,-0.878906 0.55078,-0.191407 1.22851,-0.287109 2.0332,-0.287109 0.78126,0 1.57813,0.07422 2.39063,0.222656 l -0.26953,2.285156 c -0.64063,-0.08594 -1.14453,-0.128906 -1.51172,-0.128906 -0.65625,0 -1.12305,0.158202 -1.40039,0.474609 -0.27735,0.316408 -0.41602,0.841794 -0.41602,1.576172 v 0.878907 h 3.02344 v 2.039062 h -3.02344 v 10.839844 z m 13.69922,-2.085938 c 1.03907,0 1.82031,-0.378902 2.34375,-1.136718 0.52344,-0.757817 0.78516,-1.843743 0.78516,-3.257813 0,-1.429695 -0.26172,-2.519527 -0.78516,-3.269531 -0.52344,-0.750004 -1.3125,-1.125 -2.36719,-1.125 -1.03907,0 -1.82226,0.376949 -2.34961,1.130859 -0.52735,0.75391 -0.79101,1.845696 -0.79101,3.275391 0,1.406257 0.26562,2.488277 0.79687,3.246094 0.53125,0.757816 1.32031,1.136718 2.36719,1.136718 z m -0.082,2.332032 c -1.90626,0 -3.40625,-0.617182 -4.5,-1.851563 -1.09376,-1.234381 -1.64063,-2.859365 -1.64063,-4.875 0,-2.078135 0.54687,-3.716791 1.64063,-4.916016 1.09375,-1.199224 2.63671,-1.798828 4.6289,-1.798828 1.92189,0 3.42773,0.611322 4.51758,1.833985 1.08985,1.222662 1.63477,2.849599 1.63477,4.880859 0,2.054698 -0.55078,3.689447 -1.65235,4.904297 -1.10156,1.21485 -2.64452,1.822266 -4.6289,1.822266 z m 8.80078,-0.246094 V 38.49456 h 2.57812 l 0.39844,1.96875 c 0.84375,-1.35157 2.0664,-2.027344 3.66797,-2.027344 0.33594,0 0.60937,0.01563 0.82031,0.04687 l -0.0469,2.566406 c -0.3125,-0.04687 -0.63672,-0.07031 -0.97266,-0.07031 -1.13282,0 -1.97851,0.300778 -2.53711,0.902343 -0.5586,0.601566 -0.83789,1.437495 -0.83789,2.507813 v 6.984375 z m 14.13281,0.246094 c -1.6797,0 -2.99999,-0.617182 -3.96094,-1.851563 -0.96094,-1.234381 -1.4414,-2.882802 -1.4414,-4.945312 0,-2.00001 0.47851,-3.607416 1.43554,-4.822266 0.95704,-1.21485 2.27539,-1.822266 3.95508,-1.822266 1.82814,0 3.12109,0.648431 3.87891,1.945313 -0.0781,-0.765629 -0.11719,-1.503903 -0.11719,-2.214844 v -4.160156 l 3.07031,-0.199219 v 17.824219 h -2.66015 l -0.33985,-1.757813 c -0.13281,0.210939 -0.25586,0.392578 -0.36914,0.544922 -0.11328,0.152345 -0.27929,0.328124 -0.49804,0.527344 -0.21876,0.19922 -0.45508,0.359374 -0.70899,0.480469 -0.25391,0.121094 -0.57422,0.226562 -0.96094,0.316406 -0.38672,0.08984 -0.81445,0.134766 -1.2832,0.134766 z m 0.72656,-2.332032 c 2.06251,0 3.10938,-1.402329 3.14063,-4.207031 0,-1.585945 -0.26562,-2.742184 -0.79688,-3.46875 -0.53125,-0.726566 -1.32421,-1.089844 -2.3789,-1.089844 -0.92188,0 -1.6582,0.369137 -2.20899,1.107422 -0.55078,0.738285 -0.82617,1.826165 -0.82617,3.263672 0,1.429695 0.27539,2.519528 0.82617,3.269531 0.55079,0.750004 1.29883,1.125 2.24414,1.125 z M 77.975587,82.373466 84.291994,65.193778 h 3.457031 l 6.222656,17.179688 H 90.713869 L 89.01465,77.521903 h -6.011719 l -1.710937,4.851563 z m 5.824219,-7.21875 h 4.40625 C 86.799799,70.646881 86.07715,68.318779 86.038087,68.170341 Z m 15.304688,7.21875 -5.132813,-12.878906 h 3.257813 c 0.125,0.351564 0.521481,1.44335 1.189453,3.27539 0.667972,1.832041 1.111327,3.080075 1.330078,3.744141 0.445315,1.296881 0.765625,2.27734 0.960935,2.941406 0,-0.0078 0.0664,-0.261716 0.19922,-0.761719 0.13281,-0.500002 0.25977,-0.970701 0.38086,-1.412109 0.1211,-0.441409 0.19727,-0.708984 0.22852,-0.802734 0.008,-0.01563 0.36523,-1.09374 1.07226,-3.234375 0.70704,-2.140636 1.12695,-3.390624 1.25977,-3.75 h 3.23437 l -4.875,12.878906 z m 15.527346,0.246094 c -2.07033,0 -3.68164,-0.595698 -4.83399,-1.78711 -1.15235,-1.191412 -1.72851,-2.83788 -1.72851,-4.939453 0,-2.046885 0.54296,-3.675775 1.6289,-4.886719 1.08595,-1.210943 2.5664,-1.820312 4.44141,-1.828125 1.77345,0 3.15039,0.554682 4.13086,1.664063 0.98047,1.10938 1.4707,2.582022 1.4707,4.417969 0,0.132813 -0.002,0.347654 -0.006,0.644531 -0.004,0.296876 -0.006,0.515624 -0.006,0.65625 h -8.5664 c 0.0312,1.203131 0.36132,2.134762 0.99023,2.794922 0.62891,0.660159 1.49414,0.990234 2.59571,0.990234 1.40625,0 2.7578,-0.367184 4.05468,-1.101562 l 0.4336,2.179687 c -1.28907,0.796879 -2.82421,1.195313 -4.60547,1.195313 z m -3.41016,-7.992188 h 5.625 c 0,-1.04688 -0.23828,-1.85156 -0.71484,-2.414062 -0.47657,-0.562503 -1.13672,-0.84375 -1.98047,-0.84375 -0.78907,0 -1.45508,0.273434 -1.99805,0.820312 -0.54297,0.546878 -0.85351,1.35937 -0.93164,2.4375 z m 12.32813,7.957031 c -0.50782,0 -0.9375,-0.175779 -1.28907,-0.527343 -0.35156,-0.351565 -0.52734,-0.769529 -0.52734,-1.253907 0,-0.49219 0.17383,-0.917967 0.52148,-1.277343 0.34766,-0.359377 0.7793,-0.539063 1.29493,-0.539063 0.5,0 0.92187,0.179686 1.26562,0.539063 0.34375,0.359376 0.51563,0.785153 0.51563,1.277343 0,0.484378 -0.17188,0.902342 -0.51563,1.253907 -0.34375,0.351564 -0.76562,0.527343 -1.26562,0.527343 z"
         id="Bedford-Ave."
         inkscape:connector-curvature="0"
         style="fill:#ffc107" />
    </g>
    <g
       id="Group-6"
       transform="translate(723.29268,113)">
      <path
         d="M 57.889922,51.486265 V 34.318296 h 3.1875 v 7.734375 c 0.55469,-0.734379 1.689444,-2.105459 3.404296,-4.113281 1.714853,-2.007823 2.736327,-3.214842 3.064454,-3.621094 h 3.761718 l -6.492187,7.722656 6.902344,9.445313 h -3.726563 l -5.601562,-7.699219 -1.3125,1.101562 v 6.597657 z m 15.585937,0 V 38.607358 h 3.070313 v 12.878907 z m 0,-14.753907 v -2.625 h 3.082031 v 2.625 z M 79.74539,51.486265 V 38.607358 h 2.472657 l 0.339843,1.628907 c 1.312507,-1.296882 2.769524,-1.945313 4.371094,-1.945313 1.500008,0 2.623043,0.431636 3.369141,1.294922 0.746097,0.863286 1.11914,2.115226 1.11914,3.755859 v 8.144532 h -3.082031 v -7.769532 c -0.0078,-1.039067 -0.17578,-1.816403 -0.503906,-2.332031 -0.328127,-0.515627 -0.917965,-0.773437 -1.769531,-0.773437 -0.664066,0 -1.271482,0.16992 -1.822266,0.509765 -0.550784,0.339846 -0.951171,0.767576 -1.201172,1.283203 -0.148438,0.609378 -0.222656,1.546869 -0.222656,2.8125 v 6.269532 z m 17.273438,5.765625 -0.175781,-2.484375 h 1.558593 c 1.8047,0 3.0664,-0.240232 3.78516,-0.720704 0.71875,-0.480471 1.07812,-1.361321 1.07812,-2.642578 0,-0.52344 -0.0234,-1.08984 -0.0703,-1.699218 -0.20313,0.281251 -0.39648,0.513671 -0.58008,0.697265 -0.18359,0.183595 -0.41406,0.365234 -0.6914,0.544922 -0.27735,0.179689 -0.60938,0.314453 -0.9961,0.404297 -0.38672,0.08984 -0.82617,0.134766 -1.318358,0.134766 -1.703134,0 -3.103511,-0.613275 -4.201172,-1.839844 -1.097662,-1.226569 -1.646485,-2.808584 -1.646485,-4.746094 0,-1.031255 0.152343,-1.970699 0.457032,-2.818359 0.304689,-0.847661 0.718747,-1.544919 1.242187,-2.091797 0.52344,-0.546878 1.12695,-0.966796 1.810547,-1.259766 0.683597,-0.29297 1.412105,-0.439453 2.185547,-0.439453 1.726572,0 3.011712,0.6289 3.855472,1.886719 l 0.21093,-1.570313 h 2.74219 v 11.964844 c 0,0.640628 -0.0312,1.216794 -0.0937,1.728516 -0.0625,0.511721 -0.17187,1.003904 -0.32812,1.476562 -0.15625,0.472659 -0.36133,0.884764 -0.61524,1.236328 -0.2539,0.351565 -0.57226,0.671874 -0.95508,0.960938 -0.38281,0.289064 -0.83398,0.52539 -1.35351,0.708984 -0.51953,0.183595 -1.12304,0.324218 -1.81055,0.421875 -0.6875,0.09766 -1.460932,0.146485 -2.320311,0.146485 z m 3.082032,-7.910157 c 2.1172,0 3.1875,-1.417954 3.21094,-4.253906 v -0.445312 c -0.0156,-1.273444 -0.28125,-2.257809 -0.79688,-2.953125 -0.51563,-0.695316 -1.26952,-1.046875 -2.26172,-1.054688 -1.125003,0 -1.976557,0.384762 -2.554685,1.154297 -0.578127,0.769535 -0.867187,1.806634 -0.867187,3.111328 0,1.257819 0.291013,2.312496 0.873047,3.164063 0.582034,0.851566 1.380854,1.277343 2.396485,1.277343 z m 13.30078,2.378907 c -1.89845,0 -3.41796,-0.324216 -4.55859,-0.972657 l 0.3164,-2.308593 c 0.51563,0.281251 1.17187,0.533202 1.96875,0.755859 0.79688,0.222657 1.52344,0.333984 2.17969,0.333984 0.67969,0 1.20898,-0.126952 1.58789,-0.380859 0.37891,-0.253908 0.57227,-0.626951 0.58008,-1.119141 0,-0.445314 -0.17773,-0.796873 -0.5332,-1.054687 -0.35547,-0.257814 -1.0332,-0.578123 -2.03321,-0.960938 -0.34375,-0.125 -0.5664,-0.207031 -0.66797,-0.246093 -1.1875,-0.46094 -2.04296,-0.974607 -2.5664,-1.541016 -0.52344,-0.566409 -0.78516,-1.33398 -0.78516,-2.302734 0,-1.171881 0.42383,-2.07031 1.27149,-2.695313 0.84766,-0.625003 2.02929,-0.9375 3.54492,-0.9375 1.64063,0 3.08202,0.308591 4.32422,0.925781 l -0.76172,2.121094 c -1.22657,-0.570315 -2.39453,-0.855469 -3.50391,-0.855469 -0.61719,0 -1.09961,0.103515 -1.44726,0.310547 -0.34766,0.207033 -0.52149,0.521483 -0.52149,0.94336 0,0.398439 0.16797,0.708983 0.50391,0.93164 0.33594,0.222658 0.99218,0.51367 1.96875,0.873047 0.0312,0.0078 0.13281,0.04297 0.30469,0.105469 0.17187,0.0625 0.30468,0.113281 0.39843,0.152344 1.1797,0.429689 2.04688,0.943356 2.60157,1.541015 0.55469,0.59766 0.83203,1.376949 0.83203,2.337891 -0.008,1.289069 -0.44531,2.285153 -1.3125,2.988281 -0.8672,0.703129 -2.09765,1.054688 -3.69141,1.054688 z M 64.030547,82.486265 V 65.318296 h 3.175781 v 7.019531 h 7.757812 v -7.019531 h 3.175782 V 82.486265 H 74.96414 V 74.84564 h -7.757812 v 7.640625 z m 20.015625,0 -3.902344,-12.878907 h 3.128906 l 2.472656,9.445313 c 0.05469,-0.179688 0.499996,-1.714829 1.335938,-4.605469 0.835942,-2.890639 1.308593,-4.503905 1.417969,-4.839844 h 3.152343 c 0.101563,0.328127 0.550778,1.925767 1.347657,4.792969 0.796879,2.867202 1.226562,4.406249 1.289062,4.617188 l 2.542969,-9.410157 h 3.082031 l -4.03125,12.878907 h -3.058594 c -0.101563,-0.33594 -0.576167,-2.035141 -1.423828,-5.097657 -0.84766,-3.062515 -1.30664,-4.714842 -1.376953,-4.957031 -0.156251,0.570315 -0.654292,2.289048 -1.494141,5.15625 -0.839847,2.867202 -1.326171,4.499998 -1.458984,4.898438 z m 18.257808,5.425781 c -0.5,0 -1.03124,-0.03125 -1.59375,-0.09375 l -0.15234,-2.378906 c 0.35938,0.03906 0.8164,0.05859 1.37109,0.05859 0.71095,0 1.28125,-0.140623 1.71094,-0.421875 0.42969,-0.281251 0.78516,-0.781246 1.06641,-1.5 0.0312,-0.07813 0.1875,-0.519527 0.46875,-1.324218 L 99.99539,69.607358 h 3.28125 l 3.38672,9.339844 c 0.25,-0.929692 0.81054,-2.656237 1.68164,-5.179687 0.8711,-2.523451 1.34961,-3.910155 1.43555,-4.160157 h 3.28125 c -3.57033,9.437548 -5.3711,14.195313 -5.40235,14.273438 -0.55469,1.44532 -1.2539,2.478512 -2.09765,3.099609 -0.84376,0.621097 -1.92968,0.931641 -3.25782,0.931641 z"
         id="Kings-Hwy"
         inkscape:connector-curvature="0"
         style="fill:#37c3be" />
      <rect
         id="Rectangle-4-[30-60]"
         x="3.5"
         y="3.5"
         width="169.25539"
         height="109.74982"
         rx="54.874912"
         style="stroke:#37c3be;stroke-width:7" />
    </g>
    <g
       id="Group-4"
       transform="translate(306.43472,337.23378)">
      <path
         d="M 56.52652,51.600717 62.842926,34.42103 h 3.457031 l 6.222657,17.179687 h -3.257813 l -1.699219,-4.851562 h -6.011718 l -1.710938,4.851562 z m 5.824219,-7.21875 h 4.40625 C 65.350732,39.874132 64.628083,37.546031 64.58902,37.397592 Z m 15.304687,7.21875 -5.132812,-12.878906 h 3.257812 c 0.125001,0.351564 0.521481,1.44335 1.189453,3.275391 0.667972,1.83204 1.111327,3.080075 1.330078,3.74414 0.445315,1.296882 0.765624,2.277341 0.960938,2.941407 0,-0.0078 0.06641,-0.261717 0.199219,-0.761719 0.132813,-0.500003 0.259765,-0.970701 0.380859,-1.412109 0.121094,-0.441409 0.197266,-0.708984 0.228516,-0.802735 0.0078,-0.01563 0.36523,-1.093739 1.072265,-3.234375 0.707035,-2.140636 1.126953,-3.390623 1.259766,-3.75 h 3.234375 l -4.875,12.878906 z m 15.527344,0.246094 c -2.070323,0 -3.681635,-0.595697 -4.833984,-1.787109 -1.15235,-1.191412 -1.728516,-2.83788 -1.728516,-4.939453 0,-2.046886 0.542963,-3.675776 1.628906,-4.886719 1.085943,-1.210944 2.566397,-1.820313 4.441406,-1.828125 1.773447,0 3.150386,0.554682 4.13086,1.664062 0.980473,1.109381 1.470703,2.582022 1.470703,4.417969 0,0.132813 -0.002,0.347655 -0.0059,0.644531 -0.0039,0.296877 -0.0059,0.515625 -0.0059,0.65625 H 89.71402 c 0.03125,1.203131 0.361325,2.134763 0.990234,2.794922 0.62891,0.66016 1.494135,0.990235 2.595703,0.990235 1.406257,0 2.757806,-0.367184 4.054688,-1.101563 l 0.433594,2.179688 c -1.289069,0.796879 -2.82421,1.195312 -4.605469,1.195312 z m -3.410156,-7.992187 h 5.625 c 0,-1.046881 -0.238279,-1.85156 -0.714844,-2.414063 -0.476565,-0.562503 -1.136715,-0.84375 -1.980469,-0.84375 -0.789066,0 -1.455075,0.273435 -1.998047,0.820313 -0.542971,0.546877 -0.853515,1.359369 -0.93164,2.4375 z m 12.328126,7.957031 c -0.50782,0 -0.9375,-0.17578 -1.28906,-0.527344 -0.35157,-0.351564 -0.52735,-0.769529 -0.52735,-1.253906 0,-0.49219 0.17383,-0.917967 0.52149,-1.277344 0.34766,-0.359377 0.77929,-0.539062 1.29492,-0.539062 0.5,0 0.92187,0.179685 1.26562,0.539062 0.34376,0.359377 0.51563,0.785154 0.51563,1.277344 0,0.484377 -0.17187,0.902342 -0.51563,1.253906 -0.34375,0.351564 -0.76562,0.527344 -1.26562,0.527344 z M 73.612457,82.600717 V 65.432749 h 3.175782 v 7.019531 h 7.757812 v -7.019531 h 3.175781 v 17.167968 h -3.175781 v -7.640625 h -7.757812 v 7.640625 z"
         id="Ave.-H"
         inkscape:connector-curvature="0"
         style="fill:#37c3be" />
      <rect
         id="Rectangle-4-Copy-2-[30-60]"
         x="3.5"
         y="3.5"
         width="154.33429"
         height="109.74982"
         rx="54.874912"
         style="stroke:#37c3be;stroke-width:7" />
    </g>
    <g
       id="Group-5"
       transform="translate(879.03156,509.57876)">
      <text
         id="Rockaway"
         font-size="24"
         font-weight="bold"
         style="font-weight:bold;font-size:24px;font-family:Oxygen-Bold, Oxygen;fill:#37c3be">
        <tspan
           x="57.685387"
           y="51"
           id="tspan24">Rockaway</tspan>
      </text>
      <rect
         id="Rectangle-4-Copy-[30-60]"
         x="3.5"
         y="3.5"
         width="222.41176"
         height="79.172485"
         rx="39.586243"
         style="stroke:#37c3be;stroke-width:7" />
    </g>
    <g
       id="Group-2"
       transform="translate(532.11621,821.8382)">
      <path
         d="m 64.34417,51.61956 c -2.250011,0 -3.957025,-0.560542 -5.121093,-1.681641 -1.164069,-1.121099 -1.746094,-2.701162 -1.746094,-4.740234 V 34.205497 h 3.1875 v 10.722656 c 0,1.429695 0.291012,2.472653 0.873047,3.128907 0.582034,0.656253 1.537102,0.984375 2.865234,0.984375 1.304694,0 2.249997,-0.330075 2.835938,-0.990235 0.58594,-0.660159 0.878906,-1.705071 0.878906,-3.134765 V 34.205497 h 3.175781 v 11.015625 c 0,2.023448 -0.593744,3.595698 -1.78125,4.716797 -1.187506,1.121099 -2.910145,1.681641 -5.167969,1.681641 z m 15.351563,-0.07031 c -0.875004,0 -1.603513,-0.103515 -2.185547,-0.310547 -0.582034,-0.207032 -1.037108,-0.533201 -1.365234,-0.978515 -0.328127,-0.445315 -0.560547,-0.970701 -0.697266,-1.576172 -0.136719,-0.605472 -0.205078,-1.353512 -0.205078,-2.244141 v -6.082031 h -2.109375 l 0.117187,-1.664063 2.203125,-0.199218 0.984375,-3.492188 1.875,-0.01172 v 3.503907 h 3.199219 v 1.863281 H 78.31292 v 6.140625 c 0,0.976567 0.140624,1.671873 0.421875,2.085937 0.281252,0.414065 0.800778,0.621094 1.558594,0.621094 0.445315,0 0.921872,-0.03906 1.429688,-0.117187 l 0.08203,2.203125 c -0.01563,0 -0.111327,0.01758 -0.287109,0.05273 -0.175783,0.03516 -0.34375,0.06641 -0.503907,0.09375 -0.160157,0.02734 -0.365233,0.05273 -0.615234,0.07617 -0.250001,0.02344 -0.484374,0.03516 -0.703125,0.03516 z M 84.03167,51.373466 V 38.49456 h 3.070313 v 12.878906 z m 0,-14.753906 v -2.625 h 3.082032 v 2.625 z m 11.90625,15 c -1.96876,0 -3.501947,-0.585932 -4.599609,-1.757813 -1.097662,-1.171881 -1.646484,-2.847645 -1.646484,-5.027344 0,-2.109385 0.576166,-3.746088 1.728515,-4.910156 1.15235,-1.164068 2.669913,-1.746094 4.552735,-1.746094 1.50782,0 2.781244,0.324216 3.820312,0.972657 l -0.726562,2.191406 c -1.062506,-0.554691 -2.050777,-0.832031 -2.964844,-0.832031 -1.039068,0 -1.857419,0.37109 -2.455078,1.113281 -0.59766,0.742191 -0.896485,1.824211 -0.896485,3.246094 0,1.437507 0.294919,2.531246 0.884766,3.28125 0.589847,0.750003 1.423823,1.125 2.501953,1.125 1.125006,0 2.207026,-0.332028 3.246094,-0.996094 l 0.292969,2.332031 c -0.539066,0.359377 -1.097654,0.617187 -1.675782,0.773438 -0.578128,0.15625 -1.265621,0.234375 -2.0625,0.234375 z m 9.57422,0 c -1.19532,0 -2.16211,-0.330075 -2.90039,-0.990235 -0.73829,-0.660159 -1.10742,-1.611322 -1.10742,-2.853515 0,-1.335945 0.43749,-2.326169 1.3125,-2.970704 0.875,-0.644534 2.1953,-1.052733 3.96093,-1.224609 0.24219,-0.03125 0.50391,-0.0625 0.78516,-0.09375 0.28125,-0.03125 0.59765,-0.0625 0.94922,-0.09375 0.35156,-0.03125 0.6289,-0.05859 0.83203,-0.08203 v -0.679688 c 0,-0.781254 -0.17968,-1.349607 -0.53906,-1.705078 -0.35938,-0.35547 -0.90625,-0.533203 -1.64063,-0.533203 -1.04688,0 -2.33983,0.292966 -3.8789,0.878906 -0.008,-0.02344 -0.13672,-0.378903 -0.38672,-1.066406 -0.25,-0.687503 -0.37891,-1.039062 -0.38672,-1.054687 1.51563,-0.648441 3.15624,-0.972657 4.92187,-0.972657 1.73439,0 2.99609,0.37695 3.78516,1.13086 0.78907,0.75391 1.18359,1.974601 1.18359,3.662109 v 8.402344 h -2.27343 c -0.008,-0.03125 -0.0937,-0.292966 -0.25782,-0.785156 -0.16406,-0.49219 -0.24609,-0.753907 -0.24609,-0.785157 -0.64063,0.625003 -1.26758,1.083983 -1.88086,1.376953 -0.61328,0.292971 -1.35742,0.439454 -2.23242,0.439453 z m 0.83203,-2.179688 c 0.71094,0 1.33008,-0.16992 1.85742,-0.509766 0.52735,-0.339845 0.9043,-0.75195 1.13086,-1.236328 v -2.484375 c -0.0234,0 -0.22851,0.01563 -0.61523,0.04687 -0.38672,0.03125 -0.59571,0.04687 -0.62696,0.04687 -1.24219,0.109376 -2.15234,0.343748 -2.73046,0.703125 -0.57813,0.359377 -0.86719,0.937496 -0.86719,1.734375 0,0.546878 0.16015,0.966796 0.48047,1.259766 0.32031,0.29297 0.77734,0.439453 1.37109,0.439453 z M 60.723077,82.373466 67.039483,65.193778 h 3.457031 L 76.71917,82.373466 H 73.461358 L 71.762139,77.521903 H 65.75042 l -1.710937,4.851563 z m 5.824218,-7.21875 h 4.40625 C 69.547288,70.646881 68.824639,68.318779 68.785577,68.170341 Z M 81.851983,82.373466 76.71917,69.49456 h 3.257813 c 0.125001,0.351564 0.521481,1.44335 1.189453,3.27539 0.667972,1.832041 1.111327,3.080075 1.330078,3.744141 0.445315,1.296881 0.765624,2.27734 0.960938,2.941406 0,-0.0078 0.06641,-0.261716 0.199218,-0.761719 0.132814,-0.500002 0.259765,-0.970701 0.38086,-1.412109 0.121094,-0.441409 0.197265,-0.708984 0.228515,-0.802734 0.0078,-0.01563 0.365231,-1.09374 1.072266,-3.234375 0.707035,-2.140636 1.126952,-3.390624 1.259766,-3.75 h 3.234375 l -4.875,12.878906 z m 15.527344,0.246094 c -2.070323,0 -3.681635,-0.595698 -4.833985,-1.78711 -1.152349,-1.191412 -1.728515,-2.83788 -1.728515,-4.939453 0,-2.046885 0.542963,-3.675775 1.628906,-4.886719 1.085943,-1.210943 2.566397,-1.820312 4.441406,-1.828125 1.773446,0 3.150391,0.554682 4.130861,1.664063 0.98047,1.10938 1.4707,2.582022 1.4707,4.417969 0,0.132813 -0.002,0.347654 -0.006,0.644531 -0.004,0.296876 -0.006,0.515624 -0.006,0.65625 h -8.566403 c 0.03125,1.203131 0.361325,2.134762 0.990234,2.794922 0.628909,0.660159 1.494135,0.990234 2.595703,0.990234 1.406257,0 2.757806,-0.367184 4.054686,-1.101562 l 0.4336,2.179687 c -1.28907,0.796879 -2.824215,1.195313 -4.605473,1.195313 z M 93.96917,74.627372 h 5.625 c 0,-1.04688 -0.238279,-1.85156 -0.714843,-2.414062 -0.476565,-0.562503 -1.136715,-0.84375 -1.980469,-0.84375 -0.789067,0 -1.455076,0.273434 -1.998047,0.820312 -0.542972,0.546878 -0.853515,1.35937 -0.931641,2.4375 z m 12.32813,7.957031 c -0.50782,0 -0.9375,-0.175779 -1.28907,-0.527343 -0.35156,-0.351565 -0.52734,-0.769529 -0.52734,-1.253907 0,-0.49219 0.17382,-0.917967 0.52148,-1.277343 0.34766,-0.359377 0.7793,-0.539063 1.29493,-0.539063 0.5,0 0.92187,0.179686 1.26562,0.539063 0.34375,0.359376 0.51563,0.785153 0.51563,1.277343 0,0.484378 -0.17188,0.902342 -0.51563,1.253907 -0.34375,0.351564 -0.76562,0.527343 -1.26562,0.527343 z"
         id="Utica-Ave."
         inkscape:connector-curvature="0"
         style="fill:#ffc107" />
      <rect
         id="Rectangle-4-Copy-4-[30-60]"
         x="3.5"
         y="3.5"
         width="163.65997"
         height="109.74982"
         rx="54.874912"
         style="stroke:#ffc107;stroke-width:7" />
    </g>
    <path
       d="m 812.81922,229.74982 v 378.18614 c 0,14.3594 -11.64059,26 -26,26 H 642.04735 c -14.35941,0 -26,11.6406 -26,26 v 163.75542"
       id="Path-3"
       inkscape:connector-curvature="0"
       style="stroke:#ffc107;stroke-width:4" />
    <path
       d="m 387.56815,453.05702 v 73.14469 c 0,14.3594 11.6406,26 26,26 H 880.8967"
       id="Path-4"
       inkscape:connector-curvature="0"
       style="stroke:#37c3be;stroke-width:4" />
    <path
       d="m 212.24534,744.00499 v 112.0613 c 0,14.3594 11.64059,26 26,26 h 293.87087"
       id="Path-4-Copy"
       inkscape:connector-curvature="0"
       style="stroke:#ffc107;stroke-width:4" />
    <path
       d="M 465.90387,397.46187 H 600.0225 c 14.3594,0 26,-11.6406 26,-26 V 198.3015 c 0,-14.35941 11.64059,-26 26,-26 h 72.20275"
       id="Path-5"
       inkscape:connector-curvature="0"
       style="stroke:#37c3be;stroke-width:4" />
    <path
       d="m 702.77618,882.06629 h 101.76184 c 14.3594,0 26,11.64059 26,26 v 309.42411"
       id="Path-6"
       inkscape:connector-curvature="0"
       style="stroke:#f57a23;stroke-width:4" />
    <path
       d="m 921.9297,1275.8653 h 74.71736 c 14.35944,0 26.00004,-11.6406 26.00004,-26 V 614.82466"
       id="Path-7"
       inkscape:connector-curvature="0"
       style="stroke:#ef95ef;stroke-width:4" />
    <g
       id="Group-7"
       transform="translate(387.56815,951.56023)"
       style="stroke:#ffffff;stroke-width:2;stroke-linecap:round">
      <path
         d="M 0.58285509,67.749354 C 62.033996,67.749354 118.10101,39.977114 152.17618,0.47777085"
         id="Path-8"
         inkscape:connector-curvature="0" />
      <path
         d="M 131.62689,1.1654713 C 141.52624,0.9428109 148.60277,0.64924402 152.85648,0.28477069 152.23477,8.1497213 150.89572,15.743771 148.83933,23.066921"
         id="Path-9"
         inkscape:connector-curvature="0" />
    </g>
    <g
       id="Group-7-Copy-2"
       transform="matrix(0.61566148,-0.78801075,-0.78801075,-0.61566148,629.59632,1412.0262)"
       style="stroke:#ffffff;stroke-width:2;stroke-linecap:round">
      <path
         d="M 0,48.182466 C 55.293497,83.313904 108.50829,40.736947 142.68293,0.92658589"
         id="path41"
         inkscape:connector-curvature="0" />
      <path
         d="M 121.23386,0.89548698 C 131.23555,0.66908825 138.38524,0.37059259 142.68293,0 c -0.62814,7.9969977 -1.98104,15.718547 -4.05868,23.164647"
         id="path43"
         inkscape:connector-curvature="0" />
    </g>
    <g
       id="Group-7-Copy"
       transform="matrix(-0.77714596,-0.62932039,-0.62932039,0.77714596,285.20487,971.43755)"
       style="stroke:#ffffff;stroke-width:2;stroke-linecap:round">
      <path
         d="M 0.69877626,57.66301 C 79.362961,82.587045 151.29246,36.62277 174.82861,1.9528298"
         id="path46"
         inkscape:connector-curvature="0" />
      <path
         d="M 156.34708,2.9086363 C 166.24642,2.6859759 173.32295,2.392409 177.57667,2.0279357 176.95495,9.8928863 175.6159,17.486936 173.55952,24.810086"
         id="path48"
         transform="rotate(-7,166.96187,13.419011)"
         inkscape:connector-curvature="0" />
    </g>
    <g
       id="Group-3"
       transform="translate(738.21377,1215.6372)">
      <rect
         id="Rectangle-4-Copy-3-[30-60]"
         x="3.5"
         y="3.5"
         width="176.71593"
         height="125.20339"
         rx="62.601696"
         style="stroke:#ffffff;stroke-width:7" />
      <path
         d="m 65.748588,56.705157 c -2.507825,0 -4.496087,-0.789055 -5.964844,-2.367188 -1.468757,-1.578133 -2.203125,-3.757798 -2.203125,-6.539062 0,-2.640639 0.76757,-4.759758 2.302734,-6.357422 1.535164,-1.597664 3.54491,-2.396485 6.029297,-2.396485 2.007823,0 3.707025,0.46484 5.097656,1.394532 l -0.996093,2.402343 c -1.335944,-0.820316 -2.679681,-1.230468 -4.03125,-1.230468 -1.578133,0 -2.826168,0.568353 -3.744141,1.705078 -0.917973,1.136724 -1.376953,2.6621 -1.376953,4.576172 0,1.984385 0.443355,3.519525 1.330078,4.605468 0.886723,1.085943 2.150383,1.628907 3.791016,1.628907 1.437507,0 2.863274,-0.359372 4.277343,-1.078125 l 0.421875,2.484375 c -1.312506,0.781254 -2.957021,1.171875 -4.933593,1.171875 z m 13.078125,-2.332032 c 1.039067,0 1.82031,-0.378902 2.34375,-1.136718 0.52344,-0.757817 0.785156,-1.843743 0.785156,-3.257813 0,-1.429694 -0.261716,-2.519527 -0.785156,-3.269531 -0.52344,-0.750004 -1.312495,-1.125 -2.367188,-1.125 -1.039068,0 -1.822263,0.376949 -2.349609,1.130859 -0.527347,0.75391 -0.791016,1.845696 -0.791016,3.275391 0,1.406257 0.265623,2.488277 0.796875,3.246094 0.531253,0.757816 1.320307,1.136718 2.367188,1.136718 z m -0.08203,2.332032 c -1.906259,0 -3.406244,-0.617182 -4.5,-1.851563 -1.093755,-1.234381 -1.640625,-2.859365 -1.640625,-4.875 0,-2.078135 0.54687,-3.716791 1.640625,-4.916015 1.093756,-1.199225 2.636709,-1.798829 4.628907,-1.798829 1.921884,0 3.427729,0.611323 4.517578,1.833985 1.089849,1.222662 1.634765,2.849599 1.634765,4.880859 0,2.054698 -0.550775,3.689447 -1.652343,4.904297 -1.101568,1.21485 -2.644522,1.822266 -4.628907,1.822266 z m 8.789063,-0.246094 V 43.580157 H 90.0064 l 0.339844,1.628906 c 1.312506,-1.296881 2.769523,-1.945313 4.371094,-1.945313 1.500007,0 2.623043,0.431637 3.36914,1.294922 0.746098,0.863286 1.119141,2.115226 1.119141,3.75586 v 8.144531 h -3.082031 v -7.769531 c -0.0078,-1.039068 -0.17578,-1.816404 -0.503907,-2.332032 -0.328126,-0.515627 -0.917964,-0.773437 -1.769531,-0.773437 -0.664066,0 -1.271481,0.16992 -1.822265,0.509766 -0.550784,0.339845 -0.951171,0.767575 -1.201172,1.283203 -0.148439,0.609378 -0.222657,1.546868 -0.222657,2.8125 v 6.269531 z m 20.648434,0.246094 c -2.07032,0 -3.68163,-0.595698 -4.83398,-1.78711 -1.15235,-1.191412 -1.72852,-2.83788 -1.72852,-4.939453 0,-2.046885 0.54296,-3.675775 1.62891,-4.886719 1.08594,-1.210943 2.56639,-1.820312 4.4414,-1.828125 1.77345,0 3.15039,0.554682 4.13086,1.664063 0.98048,1.10938 1.47071,2.582022 1.47071,4.417969 0,0.132813 -0.002,0.347654 -0.006,0.644531 -0.004,0.296876 -0.006,0.515624 -0.006,0.65625 h -8.56641 c 0.0312,1.203131 0.36133,2.134762 0.99024,2.794922 0.62891,0.660159 1.49413,0.990234 2.5957,0.990234 1.40626,0 2.75781,-0.367184 4.05469,-1.101562 l 0.43359,2.179687 c -1.28907,0.796879 -2.82421,1.195313 -4.60547,1.195313 z m -3.41015,-7.992188 h 5.625 c 0,-1.04688 -0.23828,-1.85156 -0.71485,-2.414062 -0.47656,-0.562503 -1.13671,-0.84375 -1.98047,-0.84375 -0.78906,0 -1.45507,0.273434 -1.99804,0.820312 -0.54298,0.546878 -0.85352,1.35937 -0.93164,2.4375 z m 11.69531,13.171875 c -0.5,0 -1.03125,-0.03125 -1.59375,-0.09375 l -0.15235,-2.378906 c 0.35938,0.03906 0.81641,0.05859 1.3711,0.05859 0.71094,0 1.28125,-0.140624 1.71094,-0.421875 0.42968,-0.281252 0.78515,-0.781247 1.0664,-1.5 0.0312,-0.07813 0.1875,-0.519528 0.46875,-1.324219 l -5.17969,-12.644531 h 3.28125 L 120.82671,52.92 c 0.25,-0.929692 0.81054,-2.656237 1.68164,-5.179687 0.8711,-2.52345 1.34961,-3.910155 1.43555,-4.160156 h 3.28125 c -3.57033,9.437547 -5.37109,14.195312 -5.40234,14.273437 -0.55469,1.44532 -1.25391,2.478513 -2.09766,3.09961 -0.84375,0.621096 -1.92968,0.93164 -3.25781,0.93164 z M 58.97515,87.459063 V 70.291094 h 3.175781 v 17.167969 z m 10.792969,0.234375 c -1.898447,0 -3.417963,-0.324216 -4.558594,-0.972656 l 0.316406,-2.308594 c 0.515628,0.281251 1.171871,0.533202 1.96875,0.755859 0.796879,0.222658 1.523435,0.333985 2.179688,0.333985 0.679691,0 1.208982,-0.126952 1.587891,-0.38086 0.378908,-0.253907 0.572265,-0.62695 0.580078,-1.11914 0,-0.445315 -0.177733,-0.796874 -0.533203,-1.054688 -0.355471,-0.257814 -1.033199,-0.578123 -2.033204,-0.960937 -0.343751,-0.125001 -0.566405,-0.207031 -0.667968,-0.246094 -1.187506,-0.46094 -2.042966,-0.974607 -2.566407,-1.541016 -0.52344,-0.566409 -0.785156,-1.333979 -0.785156,-2.302734 0,-1.171881 0.423824,-2.070309 1.271485,-2.695313 0.84766,-0.625003 2.029289,-0.9375 3.544921,-0.9375 1.640634,0 3.082025,0.308591 4.324219,0.925782 l -0.761719,2.121093 C 72.408738,76.74031 71.240781,76.455157 70.1314,76.455157 c -0.61719,0 -1.099607,0.103514 -1.447265,0.310547 -0.347658,0.207032 -0.521485,0.521482 -0.521485,0.943359 0,0.398439 0.167967,0.708983 0.503906,0.931641 0.33594,0.222657 0.992183,0.51367 1.96875,0.873046 0.03125,0.0078 0.132812,0.04297 0.304688,0.105469 0.171876,0.0625 0.304687,0.113281 0.398437,0.152344 1.179694,0.42969 2.046873,0.943356 2.601563,1.541016 0.55469,0.597659 0.832031,1.376948 0.832031,2.33789 -0.0078,1.289069 -0.445308,2.285153 -1.3125,2.988281 -0.867192,0.703129 -2.097648,1.054688 -3.691406,1.054688 z m 11.941406,-0.05859 c -0.882817,0 -1.615231,-0.103514 -2.197265,-0.310547 C 78.930225,87.117269 78.471246,86.787194 78.135306,86.334067 77.799367,85.88094 77.564995,85.341883 77.432181,84.716879 77.299368,84.091876 77.232963,83.31454 77.232963,82.384848 V 69.834063 l 3.070312,-0.199219 V 82.32625 c 0,1.156256 0.136718,1.939452 0.410156,2.34961 0.273439,0.410158 0.804684,0.615234 1.59375,0.615234 0.390627,0 0.886716,-0.04297 1.488282,-0.128906 l 0.08203,2.191406 c -0.0078,0 -0.103515,0.01953 -0.287109,0.05859 -0.183595,0.03906 -0.359375,0.07227 -0.527344,0.09961 -0.16797,0.02734 -0.380858,0.05469 -0.638672,0.08203 -0.257814,0.02734 -0.496093,0.04102 -0.714844,0.04102 z m 7.089844,0.07031 c -1.195319,0 -2.162106,-0.330075 -2.900391,-0.990235 -0.738285,-0.660159 -1.107422,-1.611322 -1.107422,-2.853515 0,-1.335944 0.437496,-2.326169 1.3125,-2.970703 0.875005,-0.644535 2.195304,-1.052734 3.960938,-1.22461 0.242189,-0.03125 0.503905,-0.0625 0.785156,-0.09375 0.281252,-0.03125 0.597655,-0.0625 0.949219,-0.09375 0.351564,-0.03125 0.628905,-0.05859 0.832031,-0.08203 v -0.679688 c 0,-0.781254 -0.179686,-1.349607 -0.539062,-1.705078 -0.359377,-0.35547 -0.906247,-0.533203 -1.640625,-0.533203 -1.046881,0 -2.339836,0.292966 -3.878907,0.878906 -0.0078,-0.02344 -0.136717,-0.378902 -0.386718,-1.066406 -0.250002,-0.687503 -0.378907,-1.039062 -0.386719,-1.054687 1.515632,-0.648441 3.156241,-0.972657 4.921875,-0.972657 1.734384,0 2.99609,0.37695 3.785156,1.13086 0.789067,0.75391 1.183594,1.974601 1.183594,3.662109 v 8.402344 h -2.273438 c -0.0078,-0.03125 -0.09375,-0.292966 -0.257812,-0.785156 -0.164063,-0.49219 -0.246094,-0.753906 -0.246094,-0.785157 -0.640628,0.625004 -1.267575,1.083983 -1.880859,1.376954 -0.613284,0.29297 -1.357418,0.439453 -2.232422,0.439452 z M 89.6314,85.525469 c 0.710941,0 1.330076,-0.16992 1.857422,-0.509765 0.527347,-0.339846 0.904296,-0.751951 1.130859,-1.236329 V 81.295 c -0.02344,0 -0.228513,0.01563 -0.615234,0.04687 -0.386721,0.03125 -0.595703,0.04687 -0.626953,0.04687 -1.242194,0.109376 -2.152341,0.343749 -2.730469,0.703125 -0.578128,0.359377 -0.867187,0.937496 -0.867187,1.734375 0,0.546878 0.160154,0.966796 0.480468,1.259766 0.320314,0.29297 0.777341,0.439453 1.371094,0.439453 z m 9.152344,1.933594 V 74.580157 h 2.472656 l 0.33984,1.628906 c 1.31251,-1.296881 2.76953,-1.945313 4.3711,-1.945313 1.5,0 2.62304,0.431637 3.36914,1.294922 0.7461,0.863286 1.11914,2.115227 1.11914,3.75586 v 8.144531 h -3.08203 v -7.769531 c -0.008,-1.039068 -0.17578,-1.816404 -0.50391,-2.332032 -0.32812,-0.515627 -0.91796,-0.773437 -1.76953,-0.773437 -0.66407,0 -1.27148,0.16992 -1.82227,0.509766 -0.55078,0.339845 -0.95117,0.767575 -1.20117,1.283203 -0.14844,0.609378 -0.22265,1.546868 -0.22265,2.8125 v 6.269531 z m 19.488286,0.246094 c -1.6797,0 -3,-0.617182 -3.96094,-1.851563 -0.96095,-1.234381 -1.44141,-2.882802 -1.44141,-4.945312 0,-2.00001 0.47851,-3.607416 1.43555,-4.822266 0.95703,-1.21485 2.27538,-1.822266 3.95508,-1.822266 1.82813,0 3.12109,0.648432 3.8789,1.945313 -0.0781,-0.765629 -0.11718,-1.503903 -0.11718,-2.214844 v -4.160156 l 3.07031,-0.199219 v 17.824219 h -2.66016 l -0.33984,-1.757813 c -0.13281,0.210939 -0.25586,0.392578 -0.36914,0.544922 -0.11328,0.152345 -0.2793,0.328124 -0.49805,0.527344 -0.21875,0.19922 -0.45508,0.359375 -0.70898,0.480469 -0.25391,0.121094 -0.57422,0.226562 -0.96094,0.316406 -0.38672,0.08984 -0.81445,0.134766 -1.2832,0.134766 z m 0.72656,-2.332032 c 2.06251,0 3.10937,-1.402329 3.14062,-4.207031 0,-1.585945 -0.26562,-2.742184 -0.79687,-3.46875 -0.53125,-0.726566 -1.32422,-1.089844 -2.37891,-1.089844 -0.92188,0 -1.6582,0.369137 -2.20898,1.107422 -0.55079,0.738285 -0.82617,1.826165 -0.82617,3.263672 0,1.429695 0.27538,2.519528 0.82617,3.269531 0.55078,0.750004 1.29882,1.125 2.24414,1.125 z"
         id="Coney-Island"
         inkscape:connector-curvature="0"
         style="fill:#ffffff" />
    </g>
    <polyline
       id="Path-10"
       points="1008.19141 627.394531 1022.6369 612.949039 1037.72267 627.034811"
       style="stroke:#ef95ef;stroke-width:5" />
    <path
       d="m 895.42187,171.53906 h 98.94799 c 14.35944,0 26.00004,11.6406 26.00004,26 v 313.97423"
       id="Path-11"
       inkscape:connector-curvature="0"
       style="stroke:#37c3be;stroke-width:4" />
    <path
       d="m 554.25513,1404.399 h 2.61963 l -7.604,20.9428 h -2.54883 l -7.57568,-20.9428 h 2.61963 l 4.65869,13.2822 c 0.60417,1.7275 1.12809,3.3559 1.57178,4.8852 0.1416,-0.708 0.67024,-2.3505 1.58593,-4.9277 1.47267,-4.2197 3.03027,-8.6329 4.67285,-13.2397 z m 11.19219,7.0375 c -1.20834,0 -2.19482,0.4272 -2.95947,1.2816 -0.76465,0.8543 -1.21305,2.0225 -1.34522,3.5046 h 8.19873 c 0,-1.5388 -0.34691,-2.7211 -1.04077,-3.5471 -0.69385,-0.826 -1.64493,-1.2391 -2.85327,-1.2391 z m 0.46729,14.231 c -2.2562,0 -4.03328,-0.7174 -5.3313,-2.1523 -1.29802,-1.4349 -1.94702,-3.3985 -1.94702,-5.8907 0,-2.4072 0.62776,-4.3589 1.8833,-5.8552 1.25554,-1.4962 2.90754,-2.2585 4.95605,-2.2868 1.92579,0 3.45271,0.6584 4.58081,1.9753 1.1281,1.3169 1.69214,3.0751 1.69214,5.2747 0,0.1132 -0.002,0.3209 -0.007,0.623 -0.005,0.3021 -0.007,0.5192 -0.007,0.6514 h -10.6626 c 0.0283,1.7653 0.48381,3.1412 1.36646,4.1277 0.88265,0.9865 2.06973,1.4797 3.56128,1.4797 1.64258,0 3.28987,-0.4342 4.94189,-1.3028 l 0.36817,1.9117 c -1.57651,0.9629 -3.37483,1.4443 -5.39502,1.4443 z m 17.08281,-16.001 c 0.42481,0 0.81185,0.028 1.16113,0.085 l -0.085,2.1807 c -0.43424,-0.076 -0.81185,-0.1133 -1.13281,-0.1133 -1.32162,0 -2.39542,0.4602 -3.22144,1.3806 -0.82601,0.9204 -1.23901,2.0603 -1.23901,3.4197 v 8.7226 h -2.36475 c -0.009,-9.5345 -0.0142,-14.7124 -0.0142,-15.5337 h 1.96827 l 0.22656,2.7896 c 0.53809,-0.8779 1.22249,-1.586 2.05322,-2.124 0.83073,-0.5381 1.71338,-0.8072 2.64795,-0.8072 z m 9.54961,15.9585 c -1.5293,0 -2.61491,-0.3728 -3.25684,-1.1186 -0.64193,-0.7458 -0.98177,-1.9494 -1.01953,-3.6109 v -9.3315 h -2.3081 l 0.0991,-1.5576 2.19482,-0.1983 0.80713,-3.5542 1.55762,-0.057 v 3.6108 h 4.31885 v 1.7559 h -4.31885 v 8.9067 c 0,1.1801 0.17936,2.0108 0.53808,2.4922 0.35873,0.4815 0.97233,0.7222 1.84082,0.7222 0.31153,0 0.98649,-0.075 2.02491,-0.2266 l 0.0991,1.8692 c -1.12338,0.1982 -1.98242,0.2973 -2.57715,0.2973 z m 12.0418,-14.1885 c -1.20834,0 -2.19482,0.4272 -2.95948,1.2816 -0.76465,0.8543 -1.21305,2.0225 -1.34521,3.5046 h 8.19873 c 0,-1.5388 -0.34692,-2.7211 -1.04077,-3.5471 -0.69385,-0.826 -1.64493,-1.2391 -2.85327,-1.2391 z m 0.46728,14.231 c -2.25619,0 -4.03328,-0.7174 -5.3313,-2.1523 -1.29802,-1.4349 -1.94702,-3.3985 -1.94702,-5.8907 0,-2.4072 0.62776,-4.3589 1.8833,-5.8552 1.25554,-1.4962 2.90754,-2.2585 4.95606,-2.2868 1.92579,0 3.45271,0.6584 4.58081,1.9753 1.12809,1.3169 1.69214,3.0751 1.69214,5.2747 0,0.1132 -0.002,0.3209 -0.007,0.623 -0.005,0.3021 -0.007,0.5192 -0.007,0.6514 h -10.6626 c 0.0283,1.7653 0.4838,3.1412 1.36645,4.1277 0.88266,0.9865 2.06974,1.4797 3.56128,1.4797 1.64259,0 3.28987,-0.4342 4.9419,-1.3028 l 0.36816,1.9117 c -1.5765,0.9629 -3.37483,1.4443 -5.39502,1.4443 z m 14.22246,-8.227 -5.47998,-7.6324 h 2.70459 l 4.14893,5.919 4.16308,-5.919 h 2.70459 l -5.49414,7.6607 5.63574,7.873 h -2.61962 l -4.37549,-6.2446 -4.37549,6.2446 h -2.70459 z"
       id="Vertex"
       inkscape:connector-curvature="0"
       style="fill:#ffffff" />
  </g>
</svg>
