<?xml version="1.0" encoding="UTF-8"?>
<svg width="1214px" height="1545px" viewBox="0 0 1214 1545" version="1.1" xmlns="http://www.w3.org/2000/svg" xmlns:xlink="http://www.w3.org/1999/xlink">
    <!-- Generator: Sketch 50 (54983) - http://www.bohemiancoding.com/sketch -->
    <title>route map</title>
    <desc>Created with Sketch.</desc>
    <defs></defs>
    <g id="route-map" stroke="none" stroke-width="1" fill="none" fill-rule="evenodd">
        <g id="Group-9" transform="translate(105.000000, 113.000000)">
            <g id="Group-8">
                <path d="M449.255134,1291.39896 L451.874763,1291.39896 L444.270759,1312.34183 L441.721931,1312.34183 L434.146248,1291.39896 L436.765877,1291.39896 L441.424568,1304.68118 C442.028738,1306.40873 442.552658,1308.03713 442.996345,1309.56644 C443.137948,1308.85843 443.666588,1307.21586 444.582283,1304.6387 C446.054946,1300.41896 447.612548,1296.00575 449.255134,1291.39896 Z M460.447322,1298.43655 C459.238983,1298.43655 458.252502,1298.86371 457.487849,1299.71805 C456.723197,1300.57238 456.274797,1301.74058 456.142634,1303.22269 L464.341365,1303.22269 C464.341365,1301.68394 463.994445,1300.50158 463.300593,1299.67557 C462.606742,1298.84955 461.655661,1298.43655 460.447322,1298.43655 Z M460.914607,1312.66751 C458.658411,1312.66751 456.881329,1311.95007 455.583308,1310.51517 C454.285287,1309.08026 453.636287,1307.11674 453.636287,1304.62454 C453.636287,1302.2173 454.264047,1300.26558 455.519588,1298.76932 C456.775128,1297.27305 458.427129,1296.51077 460.475642,1296.48245 C462.401433,1296.48245 463.928355,1297.14089 465.056453,1298.45779 C466.184551,1299.7747 466.748591,1301.5329 466.748591,1303.73245 C466.748591,1303.84573 466.746231,1304.05341 466.741511,1304.3555 C466.736791,1304.65758 466.734431,1304.8747 466.734431,1305.00687 L456.071834,1305.00687 C456.100154,1306.77218 456.555635,1308.14806 457.438289,1309.13455 C458.320943,1310.12105 459.508024,1310.61429 460.999568,1310.61429 C462.642154,1310.61429 464.289436,1310.18005 465.941463,1309.31155 L466.309627,1311.22318 C464.733121,1312.18607 462.934799,1312.66751 460.914607,1312.66751 Z M477.99742,1296.66653 C478.422226,1296.66653 478.809267,1296.69485 479.158552,1296.7515 L479.073592,1298.93216 C478.639345,1298.85664 478.261744,1298.81888 477.940779,1298.81888 C476.619158,1298.81888 475.545357,1299.27908 474.719344,1300.19949 C473.89333,1301.11991 473.48033,1302.25979 473.48033,1303.61917 L473.48033,1312.34183 L471.115584,1312.34183 C471.106144,1302.80727 471.101424,1297.62943 471.101424,1296.80814 L473.069685,1296.80814 L473.296248,1299.59769 C473.834336,1298.71975 474.518737,1298.01175 475.34947,1297.47366 C476.180204,1296.93558 477.062845,1296.66653 477.99742,1296.66653 Z M487.547029,1312.62503 C486.017725,1312.62503 484.932124,1312.25215 484.290193,1311.50638 C483.648263,1310.76061 483.308423,1309.55701 483.270662,1307.89554 L483.270662,1298.564 L480.962557,1298.564 L481.061678,1297.00638 L483.256502,1296.80814 L484.063631,1293.25394 L485.621248,1293.1973 L485.621248,1296.80814 L489.940096,1296.80814 L489.940096,1298.564 L485.621248,1298.564 L485.621248,1307.47073 C485.621248,1308.65075 485.800608,1309.48147 486.159334,1309.96292 C486.51806,1310.44437 487.13166,1310.68509 488.000154,1310.68509 C488.311679,1310.68509 488.98664,1310.60957 490.025057,1310.45853 L490.124178,1312.32767 C489.0008,1312.52591 488.141759,1312.62503 487.547029,1312.62503 Z M499.588826,1298.43655 C498.380487,1298.43655 497.394006,1298.86371 496.629353,1299.71805 C495.864701,1300.57238 495.416301,1301.74058 495.284139,1303.22269 L503.482869,1303.22269 C503.482869,1301.68394 503.135949,1300.50158 502.442098,1299.67557 C501.748247,1298.84955 500.797166,1298.43655 499.588826,1298.43655 Z M500.056111,1312.66751 C497.799915,1312.66751 496.022833,1311.95007 494.724812,1310.51517 C493.426792,1309.08026 492.777791,1307.11674 492.777791,1304.62454 C492.777791,1302.2173 493.405552,1300.26558 494.661092,1298.76932 C495.916632,1297.27305 497.568634,1296.51077 499.617146,1296.48245 C501.542937,1296.48245 503.069859,1297.14089 504.197957,1298.45779 C505.326055,1299.7747 505.890096,1301.5329 505.890096,1303.73245 C505.890096,1303.84573 505.887736,1304.05341 505.883016,1304.3555 C505.878296,1304.65758 505.875936,1304.8747 505.875936,1305.00687 L495.213338,1305.00687 C495.241658,1306.77218 495.697139,1308.14806 496.579793,1309.13455 C497.462447,1310.12105 498.649528,1310.61429 500.141072,1310.61429 C501.783659,1310.61429 503.43094,1310.18005 505.082967,1309.31155 L505.451131,1311.22318 C503.874626,1312.18607 502.076304,1312.66751 500.056111,1312.66751 Z M514.278572,1304.44046 L508.798592,1296.80814 L511.503182,1296.80814 L515.652108,1302.72708 L519.815193,1296.80814 L522.519783,1296.80814 L517.025643,1304.46878 L522.661385,1312.34183 L520.041756,1312.34183 L515.666268,1306.0972 L511.290779,1312.34183 L508.58619,1312.34183 L514.278572,1304.44046 Z" id="Vertex" fill="#FFFFFF"></path>
                <path d="M177.738944,911.714139 L177.738944,890.771268 L189.746757,890.771268 L189.647636,892.937772 L180.188651,892.937772 L180.188651,899.791288 L189.180351,899.791288 L189.180351,901.929471 L180.188651,901.929471 L180.188651,909.547635 L189.959159,909.547635 L189.845878,911.714139 L177.738944,911.714139 Z M200.54246,910.00076 C202.100085,910.00076 203.258846,909.50044 204.018778,908.499784 C204.778711,907.499128 205.158671,906.068966 205.158671,904.209256 C205.158671,902.113543 204.792871,900.534701 204.061259,899.472684 C203.329647,898.410667 202.147286,897.879667 200.51414,897.879667 C199.787248,897.879667 199.145327,898.035427 198.588358,898.346952 C198.03139,898.658477 197.582989,899.092717 197.243144,899.649686 C196.903298,900.206655 196.646058,900.846216 196.471415,901.568387 C196.296772,902.290559 196.209452,903.08116 196.209452,903.940213 C196.209452,905.148553 196.358132,906.196394 196.655497,907.083768 C196.952862,907.971142 197.431942,908.679143 198.092753,909.207792 C198.753564,909.73644 199.570124,910.00076 200.54246,910.00076 Z M205.201151,909.462674 C204.691383,910.246207 204.011703,910.869248 203.162089,911.331815 C202.312475,911.794382 201.363754,912.025663 200.315898,912.025663 C198.267385,912.025663 196.662583,911.296422 195.501444,909.837918 C194.340306,908.379415 193.759745,906.394653 193.759745,903.883573 C193.759745,901.485774 194.349746,899.548212 195.529765,898.070829 C196.709784,896.593445 198.290985,895.854764 200.273417,895.854764 C201.302394,895.854764 202.272355,896.078964 203.183329,896.527372 C204.094304,896.975779 204.776344,897.577579 205.229472,898.332792 L205.186991,896.987577 L205.186991,890.148221 L207.523417,890.00662 L207.523417,911.714139 L205.512675,911.714139 L205.201151,909.462674 Z M218.658964,909.689237 C219.461377,909.689237 220.164658,909.547637 220.768827,909.264432 C221.372997,908.981228 221.844997,908.589467 222.184843,908.089139 C222.524688,907.588811 222.777209,907.031851 222.942411,906.418241 C223.107614,905.804631 223.190214,905.13439 223.190214,904.407499 L223.190214,903.260526 C223.190214,902.505314 223.105254,901.809113 222.935331,901.171903 C222.765408,900.534693 222.503448,899.963572 222.149443,899.458524 C221.795437,898.953476 221.323436,898.559355 220.733427,898.276151 C220.143417,897.992946 219.456657,897.851346 218.673124,897.851346 C218.021754,897.851346 217.429393,897.974066 216.896025,898.21951 C216.362656,898.464954 215.923696,898.788275 215.57913,899.189481 C215.234565,899.590687 214.941924,900.057968 214.7012,900.591336 C214.460476,901.124705 214.288196,901.665146 214.184355,902.212674 C214.080513,902.760203 214.028593,903.312444 214.028593,903.869413 C214.028593,904.416941 214.085233,904.959742 214.198515,905.497831 C214.311797,906.035919 214.491157,906.55984 214.736601,907.069608 C214.982045,907.579376 215.279405,908.025417 215.628691,908.407743 C215.977976,908.790069 216.414577,909.099229 216.938505,909.335233 C217.462433,909.571237 218.035914,909.689237 218.658964,909.689237 Z M215.019804,918.822538 L214.807402,916.684354 L217.696073,916.684354 C218.498486,916.684354 219.197047,916.627714 219.791777,916.514432 C220.386506,916.40115 220.882107,916.21471 221.278593,915.955106 C221.675079,915.695502 221.99604,915.407582 222.241484,915.091336 C222.486927,914.775091 222.673368,914.364451 222.80081,913.859403 C222.928252,913.354355 223.013212,912.854034 223.055693,912.358426 C223.098173,911.862818 223.119413,911.256298 223.119413,910.538846 L223.119413,909.165311 C222.553004,909.977164 221.896923,910.602565 221.151152,911.041532 C220.40538,911.480499 219.456659,911.699979 218.30496,911.699979 C217.417586,911.699979 216.598665,911.546579 215.848173,911.239774 C215.097681,910.932969 214.4652,910.524689 213.950712,910.01492 C213.436224,909.505152 212.997263,908.915152 212.633818,908.244901 C212.270372,907.57465 212.006051,906.880809 211.840849,906.163358 C211.675646,905.445906 211.593046,904.723746 211.593046,903.996854 C211.593046,902.864036 211.732286,901.816195 212.010771,900.853299 C212.289255,899.890404 212.702256,899.031363 213.249784,898.276151 C213.797313,897.520939 214.517114,896.928578 215.409208,896.499051 C216.301302,896.069524 217.323184,895.854764 218.474882,895.854764 C219.494418,895.854764 220.384139,896.050644 221.144071,896.442411 C221.904004,896.834177 222.586044,897.435978 223.190214,898.247831 L223.190214,896.180448 L225.498319,896.180448 L225.498319,910.595487 C225.498319,911.256297 225.481799,911.834498 225.448759,912.330106 C225.415718,912.825714 225.335478,913.375595 225.208036,913.979764 C225.080594,914.583934 224.908314,915.103134 224.691191,915.537381 C224.474067,915.971628 224.169627,916.408229 223.77786,916.847196 C223.386094,917.286163 222.918814,917.640163 222.376005,917.909208 C221.833196,918.178252 221.160596,918.397732 220.358183,918.567655 C219.55577,918.737578 218.649529,918.822538 217.639433,918.822538 L215.019804,918.822538 Z M236.534745,897.808866 C235.326406,897.808866 234.339925,898.236026 233.575273,899.09036 C232.81062,899.944694 232.36222,901.112895 232.230058,902.594999 L240.428788,902.594999 C240.428788,901.056254 240.081868,899.873893 239.388017,899.047879 C238.694166,898.221866 237.743085,897.808866 236.534745,897.808866 Z M237.002031,912.039823 C234.745834,912.039823 232.968753,911.322382 231.670732,909.887479 C230.372711,908.452576 229.72371,906.489054 229.72371,903.996854 C229.72371,901.589615 230.351471,899.637893 231.607011,898.141629 C232.862551,896.645365 234.514553,895.883085 236.563066,895.854764 C238.488857,895.854764 240.015778,896.513205 241.143876,897.830106 C242.271974,899.147007 242.836015,900.905209 242.836015,903.104764 C242.836015,903.218046 242.833655,903.425726 242.828935,903.727811 C242.824215,904.029896 242.821855,904.247016 242.821855,904.379178 L232.159257,904.379178 C232.187578,906.144487 232.643058,907.520368 233.525712,908.506864 C234.408366,909.49336 235.595448,909.9866 237.086991,909.9866 C238.729578,909.9866 240.37686,909.55236 242.028886,908.683866 L242.39705,910.595487 C240.820545,911.558382 239.022223,912.039823 237.002031,912.039823 Z" id="Edge" fill="#FFFFFF"></path>
                <path d="M73.4605477,943.877962 C73.4605477,940.687842 74.3492106,937.797246 76.1265633,935.206087 L77.6402352,935.206087 C75.9605393,937.823288 75.1207039,940.700863 75.1207039,943.8389 C75.1207039,945.310261 75.3420559,946.794621 75.7847664,948.292025 C76.227477,949.789428 76.8459604,951.146836 77.6402352,952.36429 L76.1460945,952.36429 C75.3062466,951.19892 74.6487011,949.885457 74.1734383,948.423861 C73.6981755,946.962265 73.4605477,945.44698 73.4605477,943.877962 Z M85.3589852,940.137728 C84.3238237,940.137728 83.5311884,940.49417 82.9810555,941.207064 C82.4309225,941.919958 82.1558602,942.966497 82.1558602,944.346712 C82.1558602,947.172247 83.2203026,948.584993 85.3492195,948.584993 C85.8765659,948.584993 86.3404285,948.475945 86.7408211,948.257845 C87.1412137,948.039745 87.4569658,947.733758 87.6880867,947.339876 C87.9192077,946.945994 88.091732,946.501663 88.2056648,946.006868 C88.3195977,945.512074 88.3765633,944.96195 88.3765633,944.356478 C88.3765633,943.536161 88.2805356,942.820023 88.0884773,942.20804 C87.8964191,941.596058 87.5692739,941.098016 87.107032,940.7139 C86.6447901,940.329783 86.0621137,940.137728 85.3589852,940.137728 Z M85.5250008,938.780306 C86.4755264,938.780306 87.2958307,939.021189 87.9859383,939.502962 C88.6760459,939.984735 89.1936188,940.639026 89.5386727,941.465853 C89.8837265,942.29268 90.0562508,943.239936 90.0562508,944.30765 C90.0562508,945.414426 89.8853541,946.387724 89.5435555,947.227572 C89.2017569,948.06742 88.6841839,948.729848 87.9908211,949.214876 C87.2974583,949.699905 86.469016,949.942415 85.5054695,949.942415 C84.7958306,949.942415 84.1480506,949.789422 83.5621102,949.483431 C82.9761697,949.17744 82.4878934,948.760777 82.0972664,948.233431 L81.9312508,949.717806 L80.5347664,949.717806 L80.5347664,934.844759 L82.1656258,934.747103 L82.1656258,938.292025 C82.1656258,939.164425 82.1526051,939.913115 82.1265633,940.538118 C82.5041693,939.997751 82.9940733,939.569696 83.5962898,939.253939 C84.1985064,938.938182 84.8414036,938.780306 85.5250008,938.780306 Z M97.247657,940.127962 C96.4143195,940.127962 95.7339878,940.422556 95.2066414,941.011751 C94.679295,941.600947 94.3700533,942.406603 94.278907,943.428743 L99.9332039,943.428743 C99.9332039,942.36754 99.6939485,941.552119 99.2154305,940.982454 C98.7369125,940.41279 98.0809945,940.127962 97.247657,940.127962 Z M97.5699227,949.942415 C96.0139253,949.942415 94.7883516,949.447629 93.8931648,948.45804 C92.9979781,947.468452 92.5503914,946.114299 92.5503914,944.39554 C92.5503914,942.735376 92.9833298,941.389361 93.8492195,940.357454 C94.7151093,939.325548 95.8544208,938.799837 97.2671883,938.780306 C98.5953199,938.780306 99.6483693,939.234403 100.426368,940.142611 C101.204367,941.050818 101.59336,942.263371 101.59336,943.780306 C101.59336,943.858431 101.591733,944.001659 101.588477,944.209993 C101.585222,944.418328 101.583595,944.568066 101.583595,944.659212 L94.2300789,944.659212 C94.2496103,945.876666 94.5637347,946.82555 95.1724617,947.505892 C95.7811887,948.186234 96.5998654,948.5264 97.6285164,948.5264 C98.7613346,948.5264 99.8973909,948.226924 101.03672,947.627962 L101.290626,948.946322 C100.203381,949.610387 98.9631588,949.942415 97.5699227,949.942415 Z M107.964454,949.913118 C106.909761,949.913118 106.161071,949.65596 105.71836,949.141634 C105.27565,948.627309 105.041277,947.797239 105.015235,946.6514 L105.015235,940.215853 L103.423438,940.215853 L103.491798,939.141634 L105.00547,939.004915 L105.56211,936.553743 L106.636329,936.514681 L106.636329,939.004915 L109.614845,939.004915 L109.614845,940.215853 L106.636329,940.215853 L106.636329,946.358431 C106.636329,947.172237 106.760026,947.745148 107.007423,948.077181 C107.25482,948.409214 107.677993,948.575228 108.276954,948.575228 C108.491799,948.575228 108.957289,948.523145 109.673438,948.418978 L109.741798,949.70804 C108.967054,949.84476 108.374612,949.913118 107.964454,949.913118 Z M121.415626,949.717806 C119.911712,944.913094 118.980732,941.921588 118.622657,940.743197 C118.420833,941.459346 118.189716,942.234078 117.929298,943.067415 C117.66888,943.900753 117.441017,944.616892 117.245704,945.215853 C117.05039,945.814814 116.796487,946.589546 116.483985,947.540072 C116.171484,948.490597 115.933856,949.216501 115.771095,949.717806 L114.013282,949.717806 L110.956641,939.004915 L112.646095,939.004915 L114.941016,947.774447 C115.260028,946.732775 116.197519,943.809627 117.753516,939.004915 L119.59922,939.004915 C121.148706,943.913794 122.060156,946.827176 122.333595,947.74515 L124.59922,939.004915 L126.269141,939.004915 L123.183204,949.717806 L121.415626,949.717806 Z M132.650001,940.127962 C131.816663,940.127962 131.136332,940.422556 130.608985,941.011751 C130.081639,941.600947 129.772397,942.406603 129.681251,943.428743 L135.335548,943.428743 C135.335548,942.36754 135.096292,941.552119 134.617774,940.982454 C134.139256,940.41279 133.483338,940.127962 132.650001,940.127962 Z M132.972266,949.942415 C131.416269,949.942415 130.190695,949.447629 129.295509,948.45804 C128.400322,947.468452 127.952735,946.114299 127.952735,944.39554 C127.952735,942.735376 128.385674,941.389361 129.251563,940.357454 C130.117453,939.325548 131.256765,938.799837 132.669532,938.780306 C133.997664,938.780306 135.050713,939.234403 135.828712,940.142611 C136.60671,941.050818 136.995704,942.263371 136.995704,943.780306 C136.995704,943.858431 136.994076,944.001659 136.990821,944.209993 C136.987566,944.418328 136.985938,944.568066 136.985938,944.659212 L129.632423,944.659212 C129.651954,945.876666 129.966078,946.82555 130.574805,947.505892 C131.183532,948.186234 132.002209,948.5264 133.03086,948.5264 C134.163678,948.5264 135.299735,948.226924 136.439063,947.627962 L136.69297,948.946322 C135.605725,949.610387 134.365503,949.942415 132.972266,949.942415 Z M144.157813,940.127962 C143.324476,940.127962 142.644144,940.422556 142.116798,941.011751 C141.589451,941.600947 141.28021,942.406603 141.189063,943.428743 L146.84336,943.428743 C146.84336,942.36754 146.604105,941.552119 146.125587,940.982454 C145.647069,940.41279 144.991151,940.127962 144.157813,940.127962 Z M144.480079,949.942415 C142.924082,949.942415 141.698508,949.447629 140.803321,948.45804 C139.908134,947.468452 139.460548,946.114299 139.460548,944.39554 C139.460548,942.735376 139.893486,941.389361 140.759376,940.357454 C141.625266,939.325548 142.764577,938.799837 144.177345,938.780306 C145.505476,938.780306 146.558526,939.234403 147.336524,940.142611 C148.114523,941.050818 148.503516,942.263371 148.503516,943.780306 C148.503516,943.858431 148.501889,944.001659 148.498634,944.209993 C148.495378,944.418328 148.493751,944.568066 148.493751,944.659212 L141.140235,944.659212 C141.159767,945.876666 141.473891,946.82555 142.082618,947.505892 C142.691345,948.186234 143.510022,948.5264 144.538673,948.5264 C145.671491,948.5264 146.807547,948.226924 147.946876,947.627962 L148.200782,948.946322 C147.113537,949.610387 145.873315,949.942415 144.480079,949.942415 Z M151.456641,949.717806 L151.456641,939.004915 L152.823829,939.004915 L153.028907,940.538118 C153.452086,940.010772 153.981052,939.585972 154.615821,939.263704 C155.25059,938.941437 155.935804,938.780306 156.671485,938.780306 C157.908471,938.780306 158.823175,939.126982 159.415626,939.820345 C160.008077,940.513708 160.304298,941.579778 160.304298,943.018587 L160.304298,949.717806 L158.673438,949.717806 C158.673438,945.420909 158.670183,943.1195 158.663673,942.813509 C158.637631,941.902046 158.453713,941.234735 158.111915,940.811556 C157.770116,940.388377 157.198833,940.17679 156.398048,940.17679 C155.5582,940.17679 154.858337,940.378611 154.298438,940.782259 C153.73854,941.185907 153.37396,941.70999 153.204688,942.354525 C153.139584,942.790725 153.107032,943.292022 153.107032,943.858431 L153.107032,949.717806 L151.456641,949.717806 Z M171.376563,942.842806 L171.376563,948.331087 L174.394141,948.331087 C175.618106,948.331087 176.536065,948.104853 177.148048,947.652376 C177.76003,947.1999 178.066016,946.495155 178.066016,945.538118 C178.066016,944.54202 177.735616,943.843785 177.074805,943.443392 C176.413995,943.042999 175.383732,942.842806 173.983985,942.842806 L171.376563,942.842806 Z M171.376563,941.485384 L174.472266,941.485384 C175.481386,941.485384 176.243097,941.309605 176.757423,940.95804 C177.271748,940.606476 177.528907,939.981482 177.528907,939.08304 C177.528907,938.178088 177.221293,937.554722 176.606055,937.212923 C175.990818,936.871125 175.035424,936.700228 173.739845,936.700228 L171.376563,936.700228 L171.376563,941.485384 Z M169.68711,935.274447 L173.827735,935.274447 C175.683213,935.274447 177.058525,935.557647 177.953712,936.124056 C178.848898,936.690465 179.296485,937.592149 179.296485,938.829134 C179.296485,939.011427 179.285092,939.192089 179.262305,939.371126 C179.239519,939.550164 179.180926,939.779654 179.086524,940.059603 C178.992123,940.339552 178.863543,940.595083 178.700782,940.826204 C178.538021,941.057325 178.298765,941.288443 177.983009,941.519564 C177.667252,941.750685 177.297789,941.934602 176.87461,942.071322 C177.844667,942.253614 178.580337,942.663766 179.081641,943.30179 C179.582946,943.939814 179.833595,944.708036 179.833595,945.606478 C179.833595,946.915078 179.405539,947.927438 178.549415,948.643587 C177.693291,949.359737 176.418889,949.717806 174.726173,949.717806 L169.68711,949.717806 L169.68711,935.274447 Z M186.839454,940.127962 C186.006116,940.127962 185.325785,940.422556 184.798438,941.011751 C184.271092,941.600947 183.96185,942.406603 183.870704,943.428743 L189.525001,943.428743 C189.525001,942.36754 189.285745,941.552119 188.807227,940.982454 C188.328709,940.41279 187.672791,940.127962 186.839454,940.127962 Z M187.16172,949.942415 C185.605722,949.942415 184.380148,949.447629 183.484962,948.45804 C182.589775,947.468452 182.142188,946.114299 182.142188,944.39554 C182.142188,942.735376 182.575127,941.389361 183.441016,940.357454 C184.306906,939.325548 185.446218,938.799837 186.858985,938.780306 C188.187117,938.780306 189.240166,939.234403 190.018165,940.142611 C190.796164,941.050818 191.185157,942.263371 191.185157,943.780306 C191.185157,943.858431 191.183529,944.001659 191.180274,944.209993 C191.177019,944.418328 191.175391,944.568066 191.175391,944.659212 L183.821876,944.659212 C183.841407,945.876666 184.155532,946.82555 184.764259,947.505892 C185.372986,948.186234 186.191662,948.5264 187.220313,948.5264 C188.353131,948.5264 189.489188,948.226924 190.628516,947.627962 L190.882423,948.946322 C189.795178,949.610387 188.554956,949.942415 187.16172,949.942415 Z M198.31797,948.536165 C199.392194,948.536165 200.191339,948.191117 200.71543,947.501009 C201.239522,946.810901 201.501563,945.824583 201.501563,944.542025 C201.501563,943.096705 201.249287,942.007849 200.744727,941.275423 C200.240168,940.542998 199.424746,940.17679 198.298438,940.17679 C197.797134,940.17679 197.35443,940.284211 196.970313,940.499056 C196.586197,940.713901 196.276955,941.013377 196.042579,941.397493 C195.808203,941.78161 195.630796,942.222686 195.510352,942.720736 C195.389909,943.218785 195.329688,943.764027 195.329688,944.356478 C195.329688,945.189815 195.432226,945.912464 195.637305,946.524447 C195.842385,947.136429 196.172785,947.624705 196.628516,947.98929 C197.084248,948.353876 197.647393,948.536165 198.31797,948.536165 Z M201.53086,948.165072 C201.179296,948.705439 200.710551,949.135122 200.12461,949.454134 C199.53867,949.773146 198.884379,949.93265 198.16172,949.93265 C196.748952,949.93265 195.642192,949.429725 194.841407,948.423861 C194.040622,947.417996 193.640235,946.049195 193.640235,944.317415 C193.640235,942.663761 194.047132,941.327512 194.860938,940.308626 C195.674744,939.289741 196.765228,938.780306 198.132423,938.780306 C198.842062,938.780306 199.511,938.934927 200.139259,939.244173 C200.767517,939.553419 201.23789,939.968454 201.550391,940.48929 L201.521095,939.561556 L201.521095,934.844759 L203.132423,934.747103 L203.132423,949.717806 L201.745704,949.717806 L201.53086,948.165072 Z M210.72422,935.889681 C210.047133,935.889681 209.58327,936.084992 209.332618,936.475618 C209.081966,936.866245 208.956641,937.543322 208.956641,938.506868 L208.956641,939.004915 L211.534766,939.004915 L211.534766,940.215853 L208.956641,940.215853 L208.956641,949.717806 L207.325782,949.717806 L207.325782,940.215853 L205.587501,940.215853 L205.72422,939.141634 L207.325782,939.004915 L207.325782,938.5264 C207.338803,937.146184 207.597589,936.145218 208.102149,935.52347 C208.606709,934.901722 209.422131,934.590853 210.548438,934.590853 C210.984638,934.590853 211.518487,934.63968 212.150001,934.737337 L212.042579,936.016634 C211.463149,935.931998 211.0237,935.889681 210.72422,935.889681 Z M214.976173,944.385775 C214.976173,945.655312 215.257745,946.672555 215.820899,947.437533 C216.384053,948.20251 217.205985,948.584993 218.28672,948.584993 C219.354433,948.584993 220.160089,948.204138 220.703712,947.442415 C221.247334,946.680693 221.519141,945.655312 221.519141,944.366243 C221.519141,943.057643 221.250589,942.02738 220.713477,941.275423 C220.176365,940.523466 219.357689,940.147493 218.257423,940.147493 C217.189709,940.147493 216.375915,940.531604 215.816016,941.299837 C215.256118,942.06807 214.976173,943.096706 214.976173,944.385775 Z M223.208595,944.356478 C223.208595,946.016642 222.765891,947.362658 221.88047,948.394564 C220.995048,949.42647 219.771102,949.942415 218.208595,949.942415 C216.704681,949.942415 215.508404,949.421587 214.619727,948.379915 C213.731051,947.338243 213.28672,946.000366 213.28672,944.366243 C213.28672,942.699568 213.732679,941.351926 214.62461,940.323275 C215.516542,939.294624 216.740488,938.780306 218.296485,938.780306 C219.826441,938.780306 221.027601,939.296251 221.900001,940.328158 C222.772401,941.360064 223.208595,942.702824 223.208595,944.356478 Z M231.00547,938.907259 C231.29844,938.907259 231.565364,938.92679 231.806251,938.965853 L231.747657,940.469759 C231.448176,940.417676 231.187762,940.391634 230.966407,940.391634 C230.054944,940.391634 229.314392,940.709014 228.744727,941.343783 C228.175063,941.978551 227.890235,942.764676 227.890235,943.702181 L227.890235,949.717806 L226.259376,949.717806 C226.252865,943.142252 226.24961,939.571324 226.24961,939.004915 L227.607032,939.004915 L227.763282,940.928743 C228.134378,940.323272 228.606378,939.834995 229.179298,939.4639 C229.752217,939.092804 230.360935,938.907259 231.00547,938.907259 Z M238.157813,948.536165 C239.232037,948.536165 240.031183,948.191117 240.555274,947.501009 C241.079365,946.810901 241.341407,945.824583 241.341407,944.542025 C241.341407,943.096705 241.089131,942.007849 240.584571,941.275423 C240.080011,940.542998 239.26459,940.17679 238.138282,940.17679 C237.636977,940.17679 237.194274,940.284211 236.810157,940.499056 C236.426041,940.713901 236.116799,941.013377 235.882423,941.397493 C235.648046,941.78161 235.470639,942.222686 235.350196,942.720736 C235.229753,943.218785 235.169532,943.764027 235.169532,944.356478 C235.169532,945.189815 235.27207,945.912464 235.477149,946.524447 C235.682228,947.136429 236.012629,947.624705 236.46836,947.98929 C236.924092,948.353876 237.487237,948.536165 238.157813,948.536165 Z M241.370704,948.165072 C241.01914,948.705439 240.550394,949.135122 239.964454,949.454134 C239.378513,949.773146 238.724223,949.93265 238.001563,949.93265 C236.588796,949.93265 235.482036,949.429725 234.681251,948.423861 C233.880466,947.417996 233.480079,946.049195 233.480079,944.317415 C233.480079,942.663761 233.886976,941.327512 234.700782,940.308626 C235.514588,939.289741 236.605072,938.780306 237.972266,938.780306 C238.681905,938.780306 239.350844,938.934927 239.979102,939.244173 C240.607361,939.553419 241.077734,939.968454 241.390235,940.48929 L241.360938,939.561556 L241.360938,934.844759 L242.972266,934.747103 L242.972266,949.717806 L241.585548,949.717806 L241.370704,948.165072 Z M255.265235,948.624056 C256.039979,948.624056 256.721938,948.410842 257.311134,947.984408 C257.900329,947.557973 258.279557,946.983435 258.448829,946.260775 L258.448829,944.454134 C258.416277,944.454134 258.219339,944.47041 257.858009,944.502962 C257.496679,944.535514 257.260678,944.555046 257.150001,944.561556 C255.737233,944.685255 254.752543,944.916372 254.195899,945.254915 C253.639256,945.593459 253.360938,946.137073 253.360938,946.885775 C253.360938,947.458694 253.530207,947.891633 253.868751,948.184603 C254.207294,948.477573 254.672784,948.624056 255.265235,948.624056 Z M258.810157,949.717806 C258.7125,949.301137 258.6181,948.851923 258.526954,948.37015 C257.934503,948.962601 257.377868,949.372753 256.857032,949.600618 C256.336196,949.828484 255.724223,949.942415 255.021095,949.942415 C254.018485,949.942415 253.212829,949.680374 252.604102,949.156283 C251.995375,948.632191 251.691016,947.878618 251.691016,946.89554 C251.691016,945.801785 252.106051,944.991246 252.936134,944.4639 C253.766216,943.936553 254.962493,943.607781 256.525001,943.477572 C256.739846,943.45804 257.063736,943.430371 257.49668,943.394564 C257.929625,943.358756 258.253515,943.331087 258.46836,943.311556 L258.46836,942.36429 C258.46836,941.609078 258.292581,941.049188 257.941016,940.684603 C257.589452,940.320018 257.036072,940.137728 256.28086,940.137728 C255.226167,940.137728 254.161725,940.398142 253.087501,940.918978 C253.054949,940.840852 252.970314,940.614618 252.833595,940.240267 C252.696875,939.865916 252.625261,939.672233 252.618751,939.659212 C253.094014,939.392284 253.658787,939.17907 254.313087,939.019564 C254.967387,938.860058 255.63307,938.780306 256.310157,938.780306 C257.644799,938.780306 258.606704,939.071644 259.195899,939.654329 C259.785095,940.237015 260.079688,941.228216 260.079688,942.627962 L260.079688,949.717806 L258.810157,949.717806 Z M263.579688,949.717806 L263.579688,939.004915 L264.946876,939.004915 L265.151954,940.538118 C265.575133,940.010772 266.104099,939.585972 266.738868,939.263704 C267.373637,938.941437 268.058851,938.780306 268.794532,938.780306 C270.031517,938.780306 270.946222,939.126982 271.538673,939.820345 C272.131124,940.513708 272.427345,941.579778 272.427345,943.018587 L272.427345,949.717806 L270.796485,949.717806 C270.796485,945.420909 270.79323,943.1195 270.78672,942.813509 C270.760678,941.902046 270.57676,941.234735 270.234962,940.811556 C269.893163,940.388377 269.32188,940.17679 268.521095,940.17679 C267.681247,940.17679 266.981384,940.378611 266.421485,940.782259 C265.861587,941.185907 265.497007,941.70999 265.327735,942.354525 C265.262631,942.790725 265.230079,943.292022 265.230079,943.858431 L265.230079,949.717806 L263.579688,949.717806 Z M280.009376,948.536165 C281.0836,948.536165 281.882746,948.191117 282.406837,947.501009 C282.930928,946.810901 283.19297,945.824583 283.19297,944.542025 C283.19297,943.096705 282.940693,942.007849 282.436134,941.275423 C281.931574,940.542998 281.116152,940.17679 279.989845,940.17679 C279.48854,940.17679 279.045836,940.284211 278.66172,940.499056 C278.277603,940.713901 277.968361,941.013377 277.733985,941.397493 C277.499609,941.78161 277.322202,942.222686 277.201759,942.720736 C277.081315,943.218785 277.021095,943.764027 277.021095,944.356478 C277.021095,945.189815 277.123633,945.912464 277.328712,946.524447 C277.533791,947.136429 277.864191,947.624705 278.319923,947.98929 C278.775654,948.353876 279.3388,948.536165 280.009376,948.536165 Z M283.222266,948.165072 C282.870702,948.705439 282.401957,949.135122 281.816016,949.454134 C281.230076,949.773146 280.575786,949.93265 279.853126,949.93265 C278.440358,949.93265 277.333599,949.429725 276.532813,948.423861 C275.732028,947.417996 275.331641,946.049195 275.331641,944.317415 C275.331641,942.663761 275.738538,941.327512 276.552345,940.308626 C277.366151,939.289741 278.456635,938.780306 279.823829,938.780306 C280.533468,938.780306 281.202406,938.934927 281.830665,939.244173 C282.458923,939.553419 282.929296,939.968454 283.241798,940.48929 L283.212501,939.561556 L283.212501,934.844759 L284.823829,934.747103 L284.823829,949.717806 L283.43711,949.717806 L283.222266,948.165072 Z M305.095313,935.274447 L305.095313,944.649447 C305.095313,946.309611 304.641216,947.605171 303.733009,948.536165 C302.824801,949.46716 301.442979,949.93265 299.587501,949.93265 C297.732023,949.93265 296.361594,949.46716 295.476173,948.536165 C294.590752,947.605171 294.148048,946.303101 294.148048,944.629915 L294.148048,935.274447 L295.847266,935.274447 L295.847266,944.659212 C295.847266,945.967813 296.156508,946.931345 296.775001,947.549837 C297.393493,948.16833 298.350515,948.477572 299.646095,948.477572 C300.909122,948.477572 301.851495,948.165075 302.473243,947.540072 C303.094991,946.915068 303.40586,945.951536 303.40586,944.649447 L303.40586,935.274447 L305.095313,935.274447 Z M312.169532,949.913118 C311.114839,949.913118 310.366149,949.65596 309.923438,949.141634 C309.480728,948.627309 309.246355,947.797239 309.220313,946.6514 L309.220313,940.215853 L307.628516,940.215853 L307.696876,939.141634 L309.210548,939.004915 L309.767188,936.553743 L310.841407,936.514681 L310.841407,939.004915 L313.819923,939.004915 L313.819923,940.215853 L310.841407,940.215853 L310.841407,946.358431 C310.841407,947.172237 310.965104,947.745148 311.212501,948.077181 C311.459898,948.409214 311.883071,948.575228 312.482032,948.575228 C312.696877,948.575228 313.162367,948.523145 313.878516,948.418978 L313.946876,949.70804 C313.172132,949.84476 312.57969,949.913118 312.169532,949.913118 Z M318.296485,939.004915 L318.296485,949.717806 L316.65586,949.717806 L316.65586,939.004915 L318.296485,939.004915 Z M318.296485,935.108431 L318.296485,937.042025 L316.65586,937.042025 L316.65586,935.108431 L318.296485,935.108431 Z M326.581641,949.942415 C325.006113,949.942415 323.774029,949.431353 322.885352,948.409212 C321.996676,947.387072 321.552345,946.049194 321.552345,944.39554 C321.558855,942.728865 322.012952,941.37634 322.914649,940.337923 C323.816346,939.299507 325.051686,938.780306 326.620704,938.780306 C327.174092,938.780306 327.709569,938.848665 328.227149,938.985384 C328.74473,939.122104 329.153254,939.301138 329.452735,939.522493 L329.003516,940.792025 C328.241794,940.381866 327.437765,940.17679 326.591407,940.17679 C325.556246,940.17679 324.737569,940.554391 324.135352,941.309603 C323.533136,942.064815 323.232032,943.096706 323.232032,944.405306 C323.232032,945.681354 323.529881,946.692086 324.125587,947.437533 C324.721293,948.182979 325.54648,948.555697 326.601173,948.555697 C327.441021,948.555697 328.300387,948.327834 329.179298,947.872103 L329.384376,949.170931 C328.674737,949.685256 327.740501,949.942415 326.581641,949.942415 Z M335.28672,948.624056 C336.061463,948.624056 336.743422,948.410842 337.332618,947.984408 C337.921814,947.557973 338.301042,946.983435 338.470313,946.260775 L338.470313,944.454134 C338.437761,944.454134 338.240823,944.47041 337.879493,944.502962 C337.518163,944.535514 337.282163,944.555046 337.171485,944.561556 C335.758718,944.685255 334.774027,944.916372 334.217384,945.254915 C333.66074,945.593459 333.382423,946.137073 333.382423,946.885775 C333.382423,947.458694 333.551692,947.891633 333.890235,948.184603 C334.228779,948.477573 334.694269,948.624056 335.28672,948.624056 Z M338.831641,949.717806 C338.733985,949.301137 338.639585,948.851923 338.548438,948.37015 C337.955987,948.962601 337.399352,949.372753 336.878516,949.600618 C336.35768,949.828484 335.745707,949.942415 335.042579,949.942415 C334.03997,949.942415 333.234314,949.680374 332.625587,949.156283 C332.01686,948.632191 331.712501,947.878618 331.712501,946.89554 C331.712501,945.801785 332.127536,944.991246 332.957618,944.4639 C333.7877,943.936553 334.983977,943.607781 336.546485,943.477572 C336.76133,943.45804 337.08522,943.430371 337.518165,943.394564 C337.95111,943.358756 338.275,943.331087 338.489845,943.311556 L338.489845,942.36429 C338.489845,941.609078 338.314065,941.049188 337.962501,940.684603 C337.610937,940.320018 337.057557,940.137728 336.302345,940.137728 C335.247652,940.137728 334.183209,940.398142 333.108985,940.918978 C333.076433,940.840852 332.991798,940.614618 332.855079,940.240267 C332.718359,939.865916 332.646746,939.672233 332.640235,939.659212 C333.115498,939.392284 333.680271,939.17907 334.334571,939.019564 C334.988871,938.860058 335.654555,938.780306 336.331641,938.780306 C337.666283,938.780306 338.628188,939.071644 339.217384,939.654329 C339.806579,940.237015 340.101173,941.228216 340.101173,942.627962 L340.101173,949.717806 L338.831641,949.717806 Z M347.146095,943.877962 C347.146095,945.44698 346.908467,946.960637 346.433204,948.418978 C345.957941,949.877318 345.29714,951.192409 344.450782,952.36429 L342.966407,952.36429 C343.760682,951.146836 344.379165,949.789428 344.821876,948.292025 C345.264586,946.794621 345.485938,945.310261 345.485938,943.8389 C345.485938,940.713884 344.642848,937.836309 342.956641,935.206087 L344.470313,935.206087 C346.254176,937.836309 347.146095,940.726905 347.146095,943.877962 Z" id="(between-Bedford-and" fill="#FFFFFF"></path>
                <g id="Group" transform="translate(4.662841, 515.181753)">
                    <rect id="Rectangle-4-Copy-5-[30-60]" stroke="#FA4359" stroke-width="7" x="3.5" y="3.5" width="197.232425" height="109.749822" rx="54.8749109"></rect>
                    <path d="M58.3349623,51.3734658 L58.3349623,34.2054971 L63.6904311,34.2054971 C65.96388,34.2054971 67.6591755,34.537525 68.7763686,35.2015908 C69.8935617,35.8656566 70.4521498,36.9711143 70.4521498,38.5179971 C70.4521498,38.7679983 70.436525,39.0140896 70.4052748,39.2562783 C70.3740247,39.498467 70.3037129,39.7738549 70.1943373,40.0824502 C70.0849618,40.3910455 69.940432,40.6703396 69.7607436,40.9203408 C69.5810552,41.1703421 69.3310577,41.4144803 69.0107436,41.6527627 C68.6904295,41.8910451 68.3154332,42.0765902 67.8857436,42.2094033 C68.9482489,42.4672171 69.7607408,42.9613528 70.3232436,43.6918252 C70.8857464,44.4222976 71.1669936,45.3226792 71.1669936,46.3929971 C71.1669936,48.0101927 70.5947337,49.2445553 69.4501967,50.0961221 C68.3056597,50.9476888 66.7216912,51.3734658 64.6982436,51.3734658 L58.3349623,51.3734658 Z M61.5107436,49.0765908 L64.2646498,49.0765908 C66.702162,49.0765908 67.9208998,48.1234753 67.9208998,46.2172158 C67.9208998,45.2562735 67.6162154,44.5648742 67.0068373,44.1429971 C66.3974593,43.72112 65.4560625,43.5101846 64.1826186,43.5101846 L61.5107436,43.5101846 L61.5107436,49.0765908 Z M61.5107436,41.2953408 L64.2294936,41.2953408 C66.3310666,41.2953408 67.3818373,40.4945676 67.3818373,38.8929971 C67.3818373,37.9945551 67.079106,37.3773737 66.4736342,37.0414346 C65.8681624,36.7054954 64.9052814,36.5375283 63.5849623,36.5375283 L61.5107436,36.5375283 L61.5107436,41.2953408 Z M79.6162123,51.6195596 C77.5458895,51.6195596 75.9345775,51.0238624 74.782228,49.8324502 C73.6298785,48.641038 73.0537123,46.9945701 73.0537123,44.8929971 C73.0537123,42.8461118 73.5966757,41.2172219 74.6826186,40.0062783 C75.7685615,38.7953348 77.2490155,38.1859659 79.1240248,38.1781533 C80.8974712,38.1781533 82.2744106,38.7328353 83.2548842,39.8422158 C84.2353579,40.9515964 84.7255873,42.4242379 84.7255873,44.2601846 C84.7255873,44.3929977 84.7236342,44.6078393 84.719728,44.9047158 C84.7158217,45.2015923 84.7138686,45.4203401 84.7138686,45.5609658 L76.1474623,45.5609658 C76.1787125,46.7640968 76.5087873,47.6957281 77.1376967,48.3558877 C77.7666061,49.0160472 78.6318318,49.3461221 79.7333998,49.3461221 C81.1396569,49.3461221 82.4912059,48.9789382 83.7880873,48.2445596 L84.2216811,50.4242471 C82.9326121,51.2211261 81.3974712,51.6195596 79.6162123,51.6195596 Z M76.2060561,43.6273721 L81.8310561,43.6273721 C81.8310561,42.5804918 81.5927772,41.7758124 81.1162123,41.2133096 C80.6396475,40.6508068 79.9794978,40.3695596 79.1357436,40.3695596 C78.3466771,40.3695596 77.6806682,40.6429943 77.1376967,41.1898721 C76.5947252,41.7367498 76.2841815,42.5492417 76.2060561,43.6273721 Z M92.0146498,51.6195596 C90.3349539,51.6195596 89.0146546,51.0023782 88.0537123,49.7679971 C87.09277,48.5336159 86.6123061,46.8851949 86.6123061,44.8226846 C86.6123061,42.8226746 87.0908169,41.2152688 88.047853,40.0004189 C89.004889,38.7855691 90.3232352,38.1781533 92.0029311,38.1781533 C93.8310652,38.1781533 95.124021,38.8265843 95.8818373,40.1234658 C95.8037119,39.357837 95.7646498,38.6195631 95.7646498,37.9086221 L95.7646498,33.7484658 L98.8349623,33.5492471 L98.8349623,51.3734658 L96.1748061,51.3734658 L95.8349623,49.6156533 C95.7021492,49.8265919 95.5791035,50.0082307 95.4658217,50.1605752 C95.3525399,50.3129197 95.1865259,50.4886992 94.9677748,50.6879189 C94.7490237,50.8871387 94.512698,51.0472933 94.2587905,51.1683877 C94.0048829,51.289482 93.6845736,51.3949497 93.297853,51.4847939 C92.9111323,51.5746381 92.4834022,51.6195596 92.0146498,51.6195596 Z M92.7412123,49.2875283 C94.8037227,49.2875283 95.8505872,47.8851986 95.8818373,45.0804971 C95.8818373,43.4945516 95.616215,42.3383132 95.0849623,41.6117471 C94.5537097,40.8851809 93.7607489,40.5219033 92.7060561,40.5219033 C91.7841765,40.5219033 91.0478557,40.8910403 90.4970717,41.6293252 C89.9462877,42.3676101 89.6708998,43.4554899 89.6708998,44.8929971 C89.6708998,46.3226917 89.9462877,47.4125246 90.4970717,48.1625283 C91.0478557,48.9125321 91.7958951,49.2875283 92.7412123,49.2875283 Z M102.7959,51.3734658 L102.7959,40.5336221 L100.756837,40.5336221 L100.956056,38.7289346 L102.7959,38.4945596 L102.7959,37.7797158 C102.7959,36.9984619 102.868165,36.3304998 103.012697,35.7758096 C103.157229,35.2211193 103.393554,34.7465147 103.721681,34.3519814 C104.049808,33.9574482 104.489256,33.6644824 105.04004,33.4730752 C105.590824,33.281668 106.268552,33.1859658 107.073244,33.1859658 C107.854497,33.1859658 108.651365,33.2601838 109.463869,33.4086221 L109.194337,35.6937783 C108.553709,35.6078404 108.049808,35.5648721 107.682619,35.5648721 C107.026365,35.5648721 106.559573,35.7230736 106.282228,36.0394814 C106.004883,36.3558893 105.866212,36.8812746 105.866212,37.6156533 L105.866212,38.4945596 L108.88965,38.4945596 L108.88965,40.5336221 L105.866212,40.5336221 L105.866212,51.3734658 L102.7959,51.3734658 Z M116.495119,49.2875283 C117.534186,49.2875283 118.315428,48.9086259 118.838869,48.1508096 C119.362309,47.3929933 119.624025,46.3070666 119.624025,44.8929971 C119.624025,43.4633024 119.362309,42.3734696 118.838869,41.6234658 C118.315428,40.8734621 117.526374,40.4984658 116.471681,40.4984658 C115.432613,40.4984658 114.649418,40.8754152 114.122072,41.6293252 C113.594725,42.3832352 113.331056,43.4750212 113.331056,44.9047158 C113.331056,46.3109728 113.596678,47.3929933 114.127931,48.1508096 C114.659184,48.9086259 115.448238,49.2875283 116.495119,49.2875283 Z M116.413087,51.6195596 C114.506828,51.6195596 113.006843,51.0023782 111.913087,49.7679971 C110.819332,48.5336159 110.272462,46.9086321 110.272462,44.8929971 C110.272462,42.8148617 110.819332,41.1762062 111.913087,39.9769814 C113.006843,38.7777567 114.549796,38.1781533 116.541994,38.1781533 C118.463878,38.1781533 119.969723,38.7894753 121.059572,40.0121377 C122.149421,41.2348001 122.694337,42.8617369 122.694337,44.8929971 C122.694337,46.9476948 122.143562,48.5824441 121.041994,49.7972939 C119.940426,51.0121438 118.397472,51.6195596 116.413087,51.6195596 Z M125.213869,51.3734658 L125.213869,38.4945596 L127.791994,38.4945596 L128.190431,40.4633096 C129.034185,39.1117403 130.256829,38.4359658 131.8584,38.4359658 C132.194339,38.4359658 132.467774,38.4515907 132.678712,38.4828408 L132.631837,41.0492471 C132.319336,41.0023718 131.99512,40.9789346 131.659181,40.9789346 C130.526363,40.9789346 129.680668,41.2797128 129.122072,41.8812783 C128.563475,42.4828438 128.284181,43.318773 128.284181,44.3890908 L128.284181,51.3734658 L125.213869,51.3734658 Z M139.346681,51.6195596 C137.666985,51.6195596 136.346686,51.0023782 135.385744,49.7679971 C134.424801,48.5336159 133.944337,46.8851949 133.944337,44.8226846 C133.944337,42.8226746 134.422848,41.2152688 135.379884,40.0004189 C136.33692,38.7855691 137.655266,38.1781533 139.334962,38.1781533 C141.163096,38.1781533 142.456052,38.8265843 143.213869,40.1234658 C143.135743,39.357837 143.096681,38.6195631 143.096681,37.9086221 L143.096681,33.7484658 L146.166994,33.5492471 L146.166994,51.3734658 L143.506837,51.3734658 L143.166994,49.6156533 C143.03418,49.8265919 142.911135,50.0082307 142.797853,50.1605752 C142.684571,50.3129197 142.518557,50.4886992 142.299806,50.6879189 C142.081055,50.8871387 141.844729,51.0472933 141.590822,51.1683877 C141.336914,51.289482 141.016605,51.3949497 140.629884,51.4847939 C140.243164,51.5746381 139.815433,51.6195596 139.346681,51.6195596 Z M140.073244,49.2875283 C142.135754,49.2875283 143.182618,47.8851986 143.213869,45.0804971 C143.213869,43.4945516 142.948246,42.3383132 142.416994,41.6117471 C141.885741,40.8851809 141.09278,40.5219033 140.038087,40.5219033 C139.116208,40.5219033 138.379887,40.8910403 137.829103,41.6293252 C137.278319,42.3676101 137.002931,43.4554899 137.002931,44.8929971 C137.002931,46.3226917 137.278319,47.4125246 137.829103,48.1625283 C138.379887,48.9125321 139.127926,49.2875283 140.073244,49.2875283 Z M77.9755873,82.3734658 L84.2919936,65.1937783 L87.7490248,65.1937783 L93.9716811,82.3734658 L90.7138686,82.3734658 L89.0146498,77.5219033 L83.0029311,77.5219033 L81.2919936,82.3734658 L77.9755873,82.3734658 Z M83.7998061,75.1547158 L88.2060561,75.1547158 C86.7997991,70.6468808 86.07715,68.3187791 86.0380873,68.1703408 L83.7998061,75.1547158 Z M99.1044936,82.3734658 L93.9716811,69.4945596 L97.2294936,69.4945596 C97.3544942,69.8461238 97.7509746,70.9379098 98.4189467,72.7699502 C99.0869188,74.6019906 99.5302737,75.850025 99.7490248,76.5140908 C100.19434,77.8109723 100.514649,78.7914312 100.709962,79.4554971 C100.709962,79.4476845 100.776368,79.1937808 100.909181,78.6937783 C101.041994,78.1937758 101.168946,77.7230774 101.29004,77.2816689 C101.411135,76.8402605 101.487306,76.572685 101.518556,76.4789346 C101.526369,76.4633095 101.883787,75.3851953 102.590822,73.2445596 C103.297856,71.1039239 103.717774,69.8539364 103.850587,69.4945596 L107.084962,69.4945596 L102.209962,82.3734658 L99.1044936,82.3734658 Z M114.631837,82.6195596 C112.561514,82.6195596 110.950202,82.0238624 109.797853,80.8324502 C108.645503,79.641038 108.069337,77.9945701 108.069337,75.8929971 C108.069337,73.8461118 108.612301,72.2172219 109.698244,71.0062783 C110.784187,69.7953348 112.26464,69.1859659 114.13965,69.1781533 C115.913096,69.1781533 117.290036,69.7328353 118.270509,70.8422158 C119.250983,71.9515964 119.741212,73.4242379 119.741212,75.2601846 C119.741212,75.3929977 119.739259,75.6078393 119.735353,75.9047158 C119.731447,76.2015923 119.729494,76.4203401 119.729494,76.5609658 L111.163087,76.5609658 C111.194337,77.7640968 111.524412,78.6957281 112.153322,79.3558877 C112.782231,80.0160472 113.647457,80.3461221 114.749025,80.3461221 C116.155282,80.3461221 117.506831,79.9789382 118.803712,79.2445596 L119.237306,81.4242471 C117.948237,82.2211261 116.413096,82.6195596 114.631837,82.6195596 Z M111.221681,74.6273721 L116.846681,74.6273721 C116.846681,73.5804918 116.608402,72.7758124 116.131837,72.2133096 C115.655272,71.6508068 114.995123,71.3695596 114.151369,71.3695596 C113.362302,71.3695596 112.696293,71.6429943 112.153322,72.1898721 C111.61035,72.7367498 111.299806,73.5492417 111.221681,74.6273721 Z M123.549806,82.5844033 C123.041991,82.5844033 122.612308,82.4086238 122.260744,82.0570596 C121.909179,81.7054953 121.7334,81.2875307 121.7334,80.8031533 C121.7334,80.3109634 121.907226,79.8851864 122.254884,79.5258096 C122.602542,79.1664328 123.034179,78.9867471 123.549806,78.9867471 C124.049809,78.9867471 124.471679,79.1664328 124.815431,79.5258096 C125.159183,79.8851864 125.331056,80.3109634 125.331056,80.8031533 C125.331056,81.2875307 125.159183,81.7054953 124.815431,82.0570596 C124.471679,82.4086238 124.049809,82.5844033 123.549806,82.5844033 Z" id="Bedford-Ave." fill="#FA4359"></path>
                </g>
                <g id="Group-6" transform="translate(618.292683, 0.000000)">
                    <path d="M57.8899217,51.4862646 L57.8899217,34.3182959 L61.0774217,34.3182959 L61.0774217,42.0526709 C61.6321119,41.3182922 62.7668662,39.9472122 64.4817185,37.9393896 C66.1965709,35.9315671 67.218045,34.7245479 67.5461717,34.3182959 L71.3078904,34.3182959 L64.8157029,42.0409521 L71.7180467,51.4862646 L67.9914842,51.4862646 L62.3899217,43.7870459 L61.0774217,44.8886084 L61.0774217,51.4862646 L57.8899217,51.4862646 Z M73.4758592,51.4862646 L73.4758592,38.6073584 L76.5461717,38.6073584 L76.5461717,51.4862646 L73.4758592,51.4862646 Z M73.4758592,36.7323584 L73.4758592,34.1073584 L76.5578904,34.1073584 L76.5578904,36.7323584 L73.4758592,36.7323584 Z M79.7453904,51.4862646 L79.7453904,38.6073584 L82.2180467,38.6073584 L82.5578904,40.2362646 C83.870397,38.9393831 85.3274136,38.2909521 86.9289842,38.2909521 C88.4289917,38.2909521 89.5520273,38.7225884 90.2981248,39.585874 C91.0442223,40.4491596 91.4172654,41.7011002 91.4172654,43.3417334 L91.4172654,51.4862646 L88.3352342,51.4862646 L88.3352342,43.7167334 C88.3274216,42.6776657 88.1594545,41.9003297 87.8313279,41.3847021 C87.5032013,40.8690745 86.9133634,40.6112646 86.0617967,40.6112646 C85.3977308,40.6112646 84.790315,40.7811848 84.239531,41.1210302 C83.688747,41.4608757 83.2883604,41.8886058 83.0383592,42.4042334 C82.8899209,43.0136114 82.8157029,43.951102 82.8157029,45.2167334 L82.8157029,51.4862646 L79.7453904,51.4862646 Z M97.0188279,57.2518896 L96.8430467,54.7675146 L98.4016404,54.7675146 C100.206337,54.7675146 101.468043,54.5272826 102.186797,54.0468115 C102.90555,53.5663403 103.264922,52.6854898 103.264922,51.4042334 C103.264922,50.8807932 103.241484,50.3143927 103.194609,49.7050146 C102.991483,49.986266 102.798126,50.2186856 102.614531,50.4022802 C102.430936,50.5858749 102.20047,50.7675137 101.923125,50.9472021 C101.64578,51.1268905 101.313752,51.2616548 100.927031,51.351499 C100.54031,51.4413432 100.100862,51.4862646 99.6086717,51.4862646 C97.9055381,51.4862646 96.5051615,50.8729895 95.4074998,49.6464209 C94.309838,48.4198522 93.7610154,46.8378368 93.7610154,44.9003271 C93.7610154,43.869072 93.9133576,42.9296282 94.2180467,42.0819677 C94.5227357,41.2343073 94.936794,40.5370486 95.4602342,39.9901709 C95.9836743,39.4432931 96.5871839,39.0233755 97.270781,38.7304052 C97.9543782,38.437435 98.6828865,38.2909521 99.4563279,38.2909521 C101.182899,38.2909521 102.468042,38.9198521 103.311797,40.1776709 L103.522734,38.6073584 L106.264922,38.6073584 L106.264922,50.5722021 C106.264922,51.2128303 106.233672,51.7889964 106.171172,52.3007177 C106.108671,52.8124391 105.999297,53.3046216 105.843047,53.7772802 C105.686796,54.2499389 105.48172,54.6620441 105.227812,55.0136084 C104.973905,55.3651726 104.655549,55.6854819 104.272734,55.9745459 C103.88992,56.2636098 103.438752,56.4999356 102.919219,56.6835302 C102.399685,56.8671249 101.796175,57.0077485 101.108672,57.1054052 C100.421168,57.203062 99.6477384,57.2518896 98.7883592,57.2518896 L97.0188279,57.2518896 Z M100.100859,49.3417334 C102.218057,49.3417334 103.288359,47.9237788 103.311797,45.0878271 L103.311797,44.6425146 C103.296172,43.3690707 103.030549,42.3847056 102.514922,41.6893896 C101.999294,40.9940736 101.245395,40.6425147 100.253203,40.6347021 C99.1281973,40.6347021 98.2766433,41.0194639 97.6985154,41.788999 C97.1203875,42.5585341 96.8313279,43.5956331 96.8313279,44.9003271 C96.8313279,46.1581459 97.1223406,47.2128229 97.7043748,48.0643896 C98.2864089,48.9159564 99.0852291,49.3417334 100.100859,49.3417334 Z M113.40164,51.7206396 C111.503193,51.7206396 109.983677,51.3964241 108.843047,50.7479834 L109.159453,48.4393896 C109.67508,48.720641 110.331324,48.9725916 111.128203,49.195249 C111.925082,49.4179064 112.651637,49.5292334 113.30789,49.5292334 C113.987581,49.5292334 114.516873,49.4022815 114.895781,49.148374 C115.274689,48.8944665 115.468047,48.5214233 115.475859,48.0292334 C115.475859,47.5839186 115.298127,47.2323597 114.942656,46.9745459 C114.587185,46.7167321 113.909458,46.3964228 112.909453,46.0136084 C112.565701,45.8886077 112.343047,45.8065773 112.241484,45.7675146 C111.053978,45.3065748 110.198518,44.7929081 109.675078,44.226499 C109.151638,43.6600899 108.889922,42.8925195 108.889922,41.9237646 C108.889922,40.7518838 109.313746,39.8534552 110.161406,39.2284521 C111.009067,38.603449 112.190695,38.2909521 113.706328,38.2909521 C115.346961,38.2909521 116.788353,38.5995428 118.030547,39.2167334 L117.268828,41.3378271 C116.042259,40.7675118 114.874302,40.4823584 113.764922,40.4823584 C113.147731,40.4823584 112.665314,40.585873 112.317656,40.7929052 C111.969998,40.9999375 111.796172,41.3143875 111.796172,41.7362646 C111.796172,42.1347041 111.964139,42.4452479 112.300078,42.6679052 C112.636017,42.8905626 113.292261,43.1815753 114.268828,43.5409521 C114.300078,43.5487647 114.40164,43.5839206 114.573515,43.6464209 C114.745391,43.7089212 114.878202,43.7597019 114.971953,43.7987646 C116.151646,44.2284543 117.018825,44.742121 117.573515,45.3397802 C118.128206,45.9374395 118.405547,46.7167286 118.405547,47.6776709 C118.397734,48.9667398 117.960238,49.9628236 117.093047,50.6659521 C116.225855,51.3690806 114.995398,51.7206396 113.40164,51.7206396 Z M64.0305467,82.4862646 L64.0305467,65.3182959 L67.2063279,65.3182959 L67.2063279,72.3378271 L74.9641404,72.3378271 L74.9641404,65.3182959 L78.1399217,65.3182959 L78.1399217,82.4862646 L74.9641404,82.4862646 L74.9641404,74.8456396 L67.2063279,74.8456396 L67.2063279,82.4862646 L64.0305467,82.4862646 Z M84.0461717,82.4862646 L80.1438279,69.6073584 L83.2727342,69.6073584 L85.7453904,79.0526709 C85.8000782,78.8729825 86.2453862,77.3378416 87.0813279,74.4472021 C87.9172696,71.5565627 88.3899211,69.9432975 88.4992967,69.6073584 L91.6516404,69.6073584 C91.7532034,69.935485 92.2024177,71.5331253 92.9992967,74.4003271 C93.7961756,77.267529 94.2258588,78.8065761 94.2883592,79.0175146 L96.8313279,69.6073584 L99.9133592,69.6073584 L95.8821092,82.4862646 L92.8235154,82.4862646 C92.7219524,82.1503254 92.2473478,80.4511237 91.3996873,77.3886084 C90.5520268,74.3260931 90.093047,72.6737658 90.0227342,72.4315771 C89.8664834,73.0018925 89.3684415,74.7206253 88.5285935,77.5878271 C87.6887456,80.455029 87.2024223,82.0878251 87.0696092,82.4862646 L84.0461717,82.4862646 Z M102.303984,87.9120459 C101.803982,87.9120459 101.272737,87.8807962 100.710234,87.8182959 L100.55789,85.4393896 C100.917267,85.4784523 101.374294,85.4979834 101.928984,85.4979834 C102.639925,85.4979834 103.210232,85.3573598 103.639922,85.0761084 C104.069611,84.794857 104.425076,84.294862 104.706328,83.5761084 C104.737578,83.497983 104.893826,83.0565811 105.175078,82.2518896 L99.9953904,69.6073584 L103.27664,69.6073584 L106.663359,78.9472021 C106.91336,78.01751 107.473902,76.2909647 108.345,73.7675146 C109.216098,71.2440645 109.694609,69.8573596 109.780547,69.6073584 L113.061797,69.6073584 C109.491466,79.0449056 107.690703,83.8026705 107.659453,83.8807959 C107.104763,85.3261156 106.405551,86.3593084 105.561797,86.9804052 C104.718042,87.6015021 103.632116,87.9120459 102.303984,87.9120459 Z" id="Kings-Hwy" fill="#FA4359"></path>
                    <rect id="Rectangle-4-[30-60]" stroke="#FA4359" stroke-width="7" x="3.5" y="3.5" width="169.25538" height="109.749822" rx="54.8749109"></rect>
                </g>
                <g id="Group-4" transform="translate(201.434720, 224.233785)">
                    <path d="M56.5265199,51.6007174 L62.8429262,34.4210299 L66.2999574,34.4210299 L72.5226137,51.6007174 L69.2648012,51.6007174 L67.5655824,46.7491549 L61.5538637,46.7491549 L59.8429262,51.6007174 L56.5265199,51.6007174 Z M62.3507387,44.3819674 L66.7569887,44.3819674 C65.3507316,39.8741323 64.6280826,37.5460306 64.5890199,37.3975924 L62.3507387,44.3819674 Z M77.6554262,51.6007174 L72.5226137,38.7218111 L75.7804262,38.7218111 C75.9054268,39.0733754 76.3019072,40.1651613 76.9698793,41.9972017 C77.6378514,43.8292421 78.0812063,45.0772765 78.2999574,45.7413424 C78.7452721,47.0382238 79.0655814,48.0186828 79.2608949,48.6827486 C79.2608949,48.6749361 79.3273005,48.4210324 79.4601137,47.9210299 C79.5929268,47.4210274 79.7198787,46.9503289 79.840973,46.5089205 C79.9620674,46.067512 80.0382385,45.7999366 80.0694887,45.7061861 C80.0773012,45.690561 80.4347195,44.6124468 81.1417543,42.4718111 C81.8487891,40.3311754 82.2687067,39.0811879 82.4015199,38.7218111 L85.6358949,38.7218111 L80.7608949,51.6007174 L77.6554262,51.6007174 Z M93.1827699,51.8468111 C91.1124471,51.8468111 89.501135,51.2511139 88.3487855,50.0597017 C87.196436,48.8682895 86.6202699,47.2218216 86.6202699,45.1202486 C86.6202699,43.0733634 87.1632332,41.4444734 88.2491762,40.2335299 C89.3351191,39.0225863 90.815573,38.4132174 92.6905824,38.4054049 C94.4640288,38.4054049 95.8409681,38.9600868 96.8214418,40.0694674 C97.8019154,41.1788479 98.2921449,42.6514894 98.2921449,44.4874361 C98.2921449,44.6202493 98.2901918,44.8350909 98.2862855,45.1319674 C98.2823793,45.4288438 98.2804262,45.6475917 98.2804262,45.7882174 L89.7140199,45.7882174 C89.7452701,46.9913484 90.0753449,47.9229797 90.7042543,48.5831392 C91.3331637,49.2432988 92.1983894,49.5733736 93.2999574,49.5733736 C94.7062144,49.5733736 96.0577634,49.2061898 97.3546449,48.4718111 L97.7882387,50.6514986 C96.4991697,51.4483776 94.9640288,51.8468111 93.1827699,51.8468111 Z M89.7726137,43.8546236 L95.3976137,43.8546236 C95.3976137,42.8077434 95.1593348,42.0030639 94.6827699,41.4405611 C94.206205,40.8780583 93.5460554,40.5968111 92.7023012,40.5968111 C91.9132347,40.5968111 91.2472257,40.8702459 90.7042543,41.4171236 C90.1612828,41.9640013 89.850739,42.7764932 89.7726137,43.8546236 Z M102.100739,51.8116549 C101.592924,51.8116549 101.16324,51.6358754 100.811676,51.2843111 C100.460112,50.9327468 100.284332,50.5147823 100.284332,50.0304049 C100.284332,49.5382149 100.458159,49.1124379 100.805817,48.7530611 C101.153475,48.3936843 101.585111,48.2139986 102.100739,48.2139986 C102.600741,48.2139986 103.022612,48.3936843 103.366364,48.7530611 C103.710115,49.1124379 103.881989,49.5382149 103.881989,50.0304049 C103.881989,50.5147823 103.710115,50.9327468 103.366364,51.2843111 C103.022612,51.6358754 102.600741,51.8116549 102.100739,51.8116549 Z M73.6124574,82.6007174 L73.6124574,65.4327486 L76.7882387,65.4327486 L76.7882387,72.4522799 L84.5460512,72.4522799 L84.5460512,65.4327486 L87.7218324,65.4327486 L87.7218324,82.6007174 L84.5460512,82.6007174 L84.5460512,74.9600924 L76.7882387,74.9600924 L76.7882387,82.6007174 L73.6124574,82.6007174 Z" id="Ave.-H" fill="#FA4359"></path>
                    <rect id="Rectangle-4-Copy-2-[30-60]" stroke="#FA4359" stroke-width="7" x="3.5" y="3.5" width="154.33429" height="109.749822" rx="54.8749109"></rect>
                </g>
                <g id="Group-5" transform="translate(774.031564, 396.578760)">
                    <path d="M58.4090074,52.5847987 L58.4090074,35.3699549 L64.7722886,35.3699549 C65.6394804,35.3699549 66.391426,35.409017 67.028148,35.4871424 C67.6648699,35.5652678 68.2703326,35.7078445 68.8445542,35.9148768 C69.4187758,36.1219091 69.883615,36.4012032 70.2390855,36.7527674 C70.594556,37.1043317 70.8758032,37.5633115 71.0828355,38.1297206 C71.2898678,38.6961296 71.3933824,39.3660448 71.3933824,40.1394862 C71.3933824,42.4207476 70.3582365,43.9207326 68.2879136,44.6394862 C68.7097907,45.1160511 69.233223,45.9988547 69.8582261,47.2879237 L72.4129136,52.5847987 L68.9441636,52.5847987 L66.9402574,48.0965174 C66.1824411,46.4871344 65.7136958,45.5340189 65.5340074,45.2371424 C65.4011942,45.2293299 64.9597924,45.2254237 64.2097886,45.2254237 L61.5496324,45.2019862 L61.5496324,52.5847987 L58.4090074,52.5847987 Z M65.0535386,42.9285487 C66.2722947,42.9285487 67.1472859,42.711754 67.6785386,42.2781581 C68.2097913,41.8445621 68.4754136,41.1473035 68.4754136,40.1863612 C68.4754136,39.342607 68.205885,38.7215194 67.6668199,38.3230799 C67.1277547,37.9246404 66.3035441,37.7254237 65.1941636,37.7254237 L61.5496324,37.7254237 L61.5496324,42.9168299 C61.6668204,42.9168299 62.2488459,42.918783 63.2957261,42.9226893 C64.3426063,42.9265956 64.928538,42.9285487 65.0535386,42.9285487 Z M80.1472886,50.4988612 C81.1863563,50.4988612 81.9675985,50.1199587 82.4910386,49.3621424 C83.0144787,48.6043261 83.2761949,47.5183995 83.2761949,46.1043299 C83.2761949,44.6746353 83.0144787,43.5848024 82.4910386,42.8347987 C81.9675985,42.0847949 81.1785439,41.7097987 80.1238511,41.7097987 C79.0847834,41.7097987 78.3015881,42.086748 77.7742417,42.8406581 C77.2468953,43.5945681 76.9832261,44.686354 76.9832261,46.1160487 C76.9832261,47.5223057 77.2488484,48.6043261 77.7801011,49.3621424 C78.3113538,50.1199587 79.1004084,50.4988612 80.1472886,50.4988612 Z M80.0652574,52.8308924 C78.1589978,52.8308924 76.6590128,52.2137111 75.5652574,50.9793299 C74.4715019,49.7449488 73.9246324,48.119965 73.9246324,46.1043299 C73.9246324,44.0261945 74.4715019,42.387539 75.5652574,41.1883143 C76.6590128,39.9890896 78.2019661,39.3894862 80.1941636,39.3894862 C82.1160482,39.3894862 83.6218925,40.0008082 84.7117417,41.2234706 C85.8015909,42.4461329 86.3465074,44.0730698 86.3465074,46.1043299 C86.3465074,48.1590277 85.7957316,49.793777 84.6941636,51.0086268 C83.5925956,52.2234766 82.0496423,52.8308924 80.0652574,52.8308924 Z M94.4910386,52.8308924 C92.5222788,52.8308924 90.989091,52.2449608 89.8914292,51.0730799 C88.7937675,49.9011991 88.2449449,48.2254346 88.2449449,46.0457362 C88.2449449,43.9363506 88.821111,42.2996482 89.9734605,41.1355799 C91.12581,39.9715116 92.6433729,39.3894862 94.5261949,39.3894862 C96.0340149,39.3894862 97.3074397,39.7137017 98.3465074,40.3621424 L97.6199449,42.5535487 C96.5574395,41.9988584 95.5691682,41.7215174 94.6551011,41.7215174 C93.6160334,41.7215174 92.7976822,42.0926075 92.200023,42.8347987 C91.6023637,43.5769899 91.3035386,44.6590103 91.3035386,46.0808924 C91.3035386,47.5183996 91.5984575,48.6121387 92.1883042,49.3621424 C92.7781509,50.1121462 93.612127,50.4871424 94.6902574,50.4871424 C95.815263,50.4871424 96.8972834,50.1551145 97.9363511,49.4910487 L98.2293199,51.8230799 C97.6902547,52.1824567 97.1316665,52.4402666 96.5535386,52.5965174 C95.9754107,52.7527682 95.2879176,52.8308924 94.4910386,52.8308924 Z M100.66682,52.5847987 L100.66682,34.9597987 L103.737132,34.7605799 L103.737132,42.6707362 L103.66682,45.2722987 C103.674632,45.2644861 103.75471,45.1863619 103.907054,45.0379237 C104.059399,44.8894854 104.143382,44.807455 104.159007,44.7918299 C104.588697,44.2840149 105.055489,43.7605826 105.559398,43.2215174 C106.063307,42.6824522 106.700019,42.0223026 107.469554,41.2410487 C108.239089,40.4597948 108.741037,39.9480811 108.975414,39.7058924 L112.631664,39.7058924 L107.334789,45.1902674 L112.971507,52.5847987 L109.256664,52.5847987 L105.014476,46.7371424 L103.737132,47.7449549 L103.737132,52.5847987 L100.66682,52.5847987 Z M117.811351,52.8308924 C116.616033,52.8308924 115.649245,52.5008176 114.91096,51.8406581 C114.172676,51.1804985 113.803539,50.2293361 113.803539,48.9871424 C113.803539,47.6511982 114.241034,46.6609738 115.116039,46.0164393 C115.991043,45.3719048 117.311342,44.9637058 119.076976,44.7918299 C119.319165,44.7605798 119.580881,44.7293301 119.862132,44.6980799 C120.143384,44.6668298 120.459787,44.6355801 120.811351,44.6043299 C121.162915,44.5730798 121.440256,44.5457363 121.643382,44.5222987 L121.643382,43.8426112 C121.643382,43.0613573 121.463697,42.4930036 121.10432,42.1375331 C120.744943,41.7820625 120.198074,41.6043299 119.463695,41.6043299 C118.416815,41.6043299 117.123859,41.8972957 115.584789,42.4832362 C115.576976,42.4597986 115.448071,42.1043334 115.19807,41.4168299 C114.948069,40.7293265 114.819164,40.3777675 114.811351,40.3621424 C116.326984,39.7137017 117.967592,39.3894862 119.733226,39.3894862 C121.46761,39.3894862 122.729316,39.7664355 123.518382,40.5203456 C124.307449,41.2742556 124.701976,42.4949465 124.701976,44.1824549 L124.701976,52.5847987 L122.428539,52.5847987 C122.420726,52.5535485 122.334789,52.2918324 122.170726,51.7996424 C122.006663,51.3074525 121.924632,51.0457363 121.924632,51.0144862 C121.284004,51.6394893 120.657057,52.0984691 120.043773,52.3914393 C119.430489,52.6844095 118.686355,52.8308924 117.811351,52.8308924 Z M118.643382,50.6512049 C119.354323,50.6512049 119.973458,50.4812848 120.500804,50.1414393 C121.028151,49.8015939 121.4051,49.3894886 121.631664,48.9051112 L121.631664,46.4207362 C121.608226,46.4207362 121.40315,46.436361 121.016429,46.4676112 C120.629709,46.4988613 120.420726,46.5144862 120.389476,46.5144862 C119.147282,46.6238617 118.237135,46.8582344 117.659007,47.2176112 C117.080879,47.576988 116.79182,48.1551072 116.79182,48.9519862 C116.79182,49.4988639 116.951975,49.9187816 117.272289,50.2117518 C117.592603,50.504722 118.049629,50.6512049 118.643382,50.6512049 Z M130.29182,52.5847987 L126.389476,39.7058924 L129.518382,39.7058924 L131.991039,49.1512049 C132.045726,48.9715165 132.491034,47.4363756 133.326976,44.5457362 C134.162918,41.6550967 134.635569,40.0418316 134.744945,39.7058924 L137.897289,39.7058924 C137.998852,40.0340191 138.448066,41.6316593 139.244945,44.4988612 C140.041824,47.366063 140.471507,48.9051101 140.534007,49.1160487 L143.076976,39.7058924 L146.159007,39.7058924 L142.127757,52.5847987 L139.069164,52.5847987 C138.967601,52.2488595 138.492996,50.5496577 137.645335,47.4871424 C136.797675,44.4246271 136.338695,42.7722999 136.268382,42.5301112 C136.112132,43.1004265 135.61409,44.8191593 134.774242,47.6863612 C133.934394,50.553563 133.448071,52.1863592 133.315257,52.5847987 L130.29182,52.5847987 Z M151.268382,52.8308924 C150.073064,52.8308924 149.106277,52.5008176 148.367992,51.8406581 C147.629707,51.1804985 147.26057,50.2293361 147.26057,48.9871424 C147.26057,47.6511982 147.698065,46.6609738 148.57307,46.0164393 C149.448074,45.3719048 150.768374,44.9637058 152.534007,44.7918299 C152.776196,44.7605798 153.037912,44.7293301 153.319164,44.6980799 C153.600415,44.6668298 153.916818,44.6355801 154.268382,44.6043299 C154.619947,44.5730798 154.897288,44.5457363 155.100414,44.5222987 L155.100414,43.8426112 C155.100414,43.0613573 154.920728,42.4930036 154.561351,42.1375331 C154.201974,41.7820625 153.655105,41.6043299 152.920726,41.6043299 C151.873846,41.6043299 150.58089,41.8972957 149.04182,42.4832362 C149.034007,42.4597986 148.905102,42.1043334 148.655101,41.4168299 C148.4051,40.7293265 148.276195,40.3777675 148.268382,40.3621424 C149.784015,39.7137017 151.424624,39.3894862 153.190257,39.3894862 C154.924641,39.3894862 156.186347,39.7664355 156.975414,40.5203456 C157.76448,41.2742556 158.159007,42.4949465 158.159007,44.1824549 L158.159007,52.5847987 L155.88557,52.5847987 C155.877757,52.5535485 155.791821,52.2918324 155.627757,51.7996424 C155.463694,51.3074525 155.381664,51.0457363 155.381664,51.0144862 C154.741035,51.6394893 154.114089,52.0984691 153.500804,52.3914393 C152.88752,52.6844095 152.143387,52.8308924 151.268382,52.8308924 Z M152.100414,50.6512049 C152.811355,50.6512049 153.430489,50.4812848 153.957835,50.1414393 C154.485182,49.8015939 154.862131,49.3894886 155.088695,48.9051112 L155.088695,46.4207362 C155.065257,46.4207362 154.860181,46.436361 154.47346,46.4676112 C154.08674,46.4988613 153.877758,46.5144862 153.846507,46.5144862 C152.604314,46.6238617 151.694166,46.8582344 151.116039,47.2176112 C150.537911,47.576988 150.248851,48.1551072 150.248851,48.9519862 C150.248851,49.4988639 150.409006,49.9187816 150.72932,50.2117518 C151.049634,50.504722 151.506661,50.6512049 152.100414,50.6512049 Z M161.932445,58.0105799 C161.432442,58.0105799 160.901198,57.9793302 160.338695,57.9168299 L160.186351,55.5379237 C160.545728,55.5769864 161.002755,55.5965174 161.557445,55.5965174 C162.268386,55.5965174 162.838693,55.4558938 163.268382,55.1746424 C163.698072,54.893391 164.053537,54.393396 164.334789,53.6746424 C164.366039,53.596517 164.522287,53.1551152 164.803539,52.3504237 L159.623851,39.7058924 L162.905101,39.7058924 L166.29182,49.0457362 C166.541821,48.116044 167.102362,46.3894988 167.97346,43.8660487 C168.844559,41.3425986 169.323069,39.9558937 169.409007,39.7058924 L172.690257,39.7058924 C169.119927,49.1434396 167.319164,53.9012045 167.287914,53.9793299 C166.733223,55.4246497 166.034012,56.4578424 165.190257,57.0789393 C164.346503,57.7000362 163.260576,58.0105799 161.932445,58.0105799 Z" id="Rockaway" fill="#FA4359"></path>
                    <rect id="Rectangle-4-Copy-[30-60]" stroke="#FA4359" stroke-width="7" x="3.5" y="3.5" width="222.411765" height="79.1724875" rx="39.5862438"></rect>
                </g>
                <g id="Group-3" transform="translate(633.213773, 1102.637206)">
                    <path d="M65.7485877,62.7051567 C63.2407627,62.7051567 61.2525013,61.9161021 59.7837439,60.3379692 C58.3149866,58.7598363 57.5806189,56.5801706 57.5806189,53.7989067 C57.5806189,51.1582685 58.3481894,49.0391491 59.8833533,47.4414848 C61.4185172,45.8438206 63.4282628,45.0450004 65.9126502,45.0450004 C67.9204727,45.0450004 69.6196745,45.5098396 71.0103064,46.4395317 L70.0142127,48.8418754 C68.6782685,48.0215588 67.334532,47.6114067 65.9829627,47.6114067 C64.4048298,47.6114067 63.1567954,48.1797604 62.2388221,49.3164848 C61.3208487,50.4532093 60.8618689,51.9785846 60.8618689,53.8926567 C60.8618689,55.8770416 61.3052239,57.4121825 62.1919471,58.4981254 C63.0786703,59.5840684 64.3423295,60.1270317 65.9829627,60.1270317 C67.4204699,60.1270317 68.8462369,59.7676603 70.2603064,59.0489067 L70.6821814,61.5332817 C69.3696749,62.3145356 67.7251601,62.7051567 65.7485877,62.7051567 Z M78.8267127,60.3731254 C79.8657804,60.3731254 80.6470226,59.994223 81.1704627,59.2364067 C81.6939028,58.4785904 81.9556189,57.3926638 81.9556189,55.9785942 C81.9556189,54.5488996 81.6939028,53.4590667 81.1704627,52.7090629 C80.6470226,51.9590592 79.857968,51.5840629 78.8032752,51.5840629 C77.7642075,51.5840629 76.9810122,51.9610123 76.4536658,52.7149223 C75.9263194,53.4688323 75.6626502,54.5606183 75.6626502,55.9903129 C75.6626502,57.39657 75.9282725,58.4785904 76.4595252,59.2364067 C76.9907779,59.994223 77.7798325,60.3731254 78.8267127,60.3731254 Z M78.7446814,62.7051567 C76.8384219,62.7051567 75.3384369,62.0879754 74.2446814,60.8535942 C73.150926,59.619213 72.6040564,57.9942293 72.6040564,55.9785942 C72.6040564,53.9004588 73.150926,52.2618033 74.2446814,51.0625786 C75.3384369,49.8633538 76.8813902,49.2637504 78.8735877,49.2637504 C80.7954723,49.2637504 82.3013166,49.8750725 83.3911658,51.0977348 C84.481015,52.3203972 85.0259314,53.947334 85.0259314,55.9785942 C85.0259314,58.033292 84.4751557,59.6680413 83.3735877,60.8828911 C82.2720197,62.0977409 80.7290664,62.7051567 78.7446814,62.7051567 Z M87.5337439,62.4590629 L87.5337439,49.5801567 L90.0064002,49.5801567 L90.3462439,51.2090629 C91.6587505,49.9121815 93.1157672,49.2637504 94.7173377,49.2637504 C96.2173452,49.2637504 97.3403808,49.6953868 98.0864783,50.5586723 C98.8325758,51.4219579 99.2056189,52.6738985 99.2056189,54.3145317 L99.2056189,62.4590629 L96.1235877,62.4590629 L96.1235877,54.6895317 C96.1157752,53.650464 95.9478081,52.873128 95.6196814,52.3575004 C95.2915548,51.8418729 94.701717,51.5840629 93.8501502,51.5840629 C93.1860844,51.5840629 92.5786686,51.7539831 92.0278846,52.0938286 C91.4771006,52.433674 91.0767139,52.8614041 90.8267127,53.3770317 C90.6782745,53.9864097 90.6040564,54.9239004 90.6040564,56.1895317 L90.6040564,62.4590629 L87.5337439,62.4590629 Z M108.182181,62.7051567 C106.111859,62.7051567 104.500547,62.1094595 103.348197,60.9180473 C102.195848,59.7266351 101.619681,58.0801672 101.619681,55.9785942 C101.619681,53.931709 102.162645,52.302819 103.248588,51.0918754 C104.334531,49.8809319 105.814985,49.271563 107.689994,49.2637504 C109.46344,49.2637504 110.84038,49.8184324 111.820853,50.9278129 C112.801327,52.0371935 113.291556,53.509835 113.291556,55.3457817 C113.291556,55.4785949 113.289603,55.6934365 113.285697,55.9903129 C113.281791,56.2871894 113.279838,56.5059372 113.279838,56.6465629 L104.713431,56.6465629 C104.744682,57.849694 105.074756,58.7813253 105.703666,59.4414848 C106.332575,60.1016444 107.197801,60.4317192 108.299369,60.4317192 C109.705626,60.4317192 111.057175,60.0645354 112.354056,59.3301567 L112.78765,61.5098442 C111.498581,62.3067232 109.96344,62.7051567 108.182181,62.7051567 Z M104.772025,54.7129692 L110.397025,54.7129692 C110.397025,53.666089 110.158746,52.8614095 109.682181,52.2989067 C109.205617,51.7364039 108.545467,51.4551567 107.701713,51.4551567 C106.912646,51.4551567 106.246637,51.7285915 105.703666,52.2754692 C105.160694,52.8223469 104.850151,53.6348388 104.772025,54.7129692 Z M116.467338,67.8848442 C115.967335,67.8848442 115.436091,67.8535945 114.873588,67.7910942 L114.721244,65.4121879 C115.080621,65.4512506 115.537647,65.4707817 116.092338,65.4707817 C116.803279,65.4707817 117.373586,65.3301581 117.803275,65.0489067 C118.232965,64.7676553 118.58843,64.2676603 118.869681,63.5489067 C118.900932,63.4707813 119.05718,63.0293795 119.338431,62.2246879 L114.158744,49.5801567 L117.439994,49.5801567 L120.826713,58.9200004 C121.076714,57.9903083 121.637255,56.2637631 122.508353,53.7403129 C123.379451,51.2168628 123.857962,49.8301579 123.9439,49.5801567 L127.22515,49.5801567 C123.65482,59.0177039 121.854057,63.7754688 121.822806,63.8535942 C121.268116,65.2989139 120.568904,66.3321067 119.72515,66.9532036 C118.881396,67.5743004 117.795469,67.8848442 116.467338,67.8848442 Z M58.9751502,93.4590629 L58.9751502,76.2910942 L62.1509314,76.2910942 L62.1509314,93.4590629 L58.9751502,93.4590629 Z M69.7681189,93.6934379 C67.869672,93.6934379 66.3501559,93.3692224 65.2095252,92.7207817 L65.5259314,90.4121879 C66.041559,90.6934394 66.6978025,90.94539 67.4946814,91.1680473 C68.2915604,91.3907047 69.0181157,91.5020317 69.6743689,91.5020317 C70.3540598,91.5020317 70.8833514,91.3750798 71.2622596,91.1211723 C71.6411677,90.8672648 71.8345252,90.4942217 71.8423377,90.0020317 C71.8423377,89.556717 71.6646051,89.205158 71.3091346,88.9473442 C70.953664,88.6895304 70.2759364,88.3692211 69.2759314,87.9864067 C68.9321797,87.8614061 68.7095257,87.7793756 68.6079627,87.7403129 C67.4204568,87.2793731 66.5649966,86.7657064 66.0415564,86.1992973 C65.5181163,85.6328882 65.2564002,84.8653178 65.2564002,83.8965629 C65.2564002,82.7246821 65.6802241,81.8262536 66.5278846,81.2012504 C67.3755451,80.5762473 68.5571739,80.2637504 70.0728064,80.2637504 C71.7134397,80.2637504 73.1548315,80.5723411 74.3970252,81.1895317 L73.6353064,83.3106254 C72.4087378,82.7403101 71.2407807,82.4551567 70.1314002,82.4551567 C69.5142096,82.4551567 69.0317926,82.5586713 68.6841346,82.7657036 C68.3364766,82.9727359 68.1626502,83.2871858 68.1626502,83.7090629 C68.1626502,84.1075024 68.3306173,84.4180462 68.6665564,84.6407036 C69.0024956,84.8633609 69.6587391,85.1543737 70.6353064,85.5137504 C70.6665566,85.521563 70.7681181,85.5567189 70.9399939,85.6192192 C71.1118698,85.6817195 71.244681,85.7325003 71.3384314,85.7715629 C72.5181248,86.2012526 73.3853037,86.7149193 73.9399939,87.3125786 C74.4946842,87.9102378 74.7720252,88.6895269 74.7720252,89.6504692 C74.7642127,90.9395381 74.326717,91.9356219 73.4595252,92.6387504 C72.5923334,93.341879 71.3618769,93.6934379 69.7681189,93.6934379 Z M81.7095252,93.6348442 C80.8267083,93.6348442 80.0942937,93.5313296 79.5122596,93.3242973 C78.9302254,93.117265 78.4712456,92.7871902 78.1353064,92.3340629 C77.7993673,91.8809357 77.5649946,91.3418786 77.4321814,90.7168754 C77.2993683,90.0918723 77.2329627,89.3145363 77.2329627,88.3848442 L77.2329627,75.8340629 L80.3032752,75.6348442 L80.3032752,88.3262504 C80.3032752,89.4825062 80.4399926,90.2657015 80.7134314,90.6758598 C80.9868703,91.0860181 81.518115,91.2910942 82.3071814,91.2910942 C82.6978084,91.2910942 83.1938972,91.2481259 83.7954627,91.1621879 L83.8774939,93.3535942 C83.8696814,93.3535942 83.7739792,93.3731253 83.5903846,93.4121879 C83.4067899,93.4512506 83.2310104,93.4844534 83.0630408,93.5117973 C82.8950712,93.5391412 82.6821827,93.5664847 82.4243689,93.5938286 C82.1665552,93.6211725 81.9282763,93.6348442 81.7095252,93.6348442 Z M88.7993689,93.7051567 C87.6040505,93.7051567 86.6372633,93.3750819 85.8989783,92.7149223 C85.1606934,92.0547628 84.7915564,91.1036004 84.7915564,89.8614067 C84.7915564,88.5254625 85.2290521,87.535238 86.1040564,86.8907036 C86.9790608,86.2461691 88.2993601,85.8379701 90.0649939,85.6660942 C90.3071827,85.634844 90.5688988,85.6035944 90.8501502,85.5723442 C91.1314016,85.541094 91.4478047,85.5098444 91.7993689,85.4785942 C92.1509332,85.447344 92.4282742,85.4200006 92.6314002,85.3965629 L92.6314002,84.7168754 C92.6314002,83.9356215 92.4517145,83.3672679 92.0923377,83.0117973 C91.7329609,82.6563268 91.1860914,82.4785942 90.4517127,82.4785942 C89.4048325,82.4785942 88.1118766,82.77156 86.5728064,83.3575004 C86.5649939,83.3340628 86.4360889,82.9785976 86.1860877,82.2910942 C85.9360864,81.6035908 85.8071815,81.2520318 85.7993689,81.2364067 C87.3150015,80.587966 88.9556101,80.2637504 90.7212439,80.2637504 C92.4556276,80.2637504 93.7173338,80.6406998 94.5064002,81.3946098 C95.2954666,82.1485198 95.6899939,83.3692108 95.6899939,85.0567192 L95.6899939,93.4590629 L93.4165564,93.4590629 C93.4087439,93.4278128 93.3228073,93.1660967 93.1587439,92.6739067 C92.9946806,92.1817167 92.9126502,91.9200006 92.9126502,91.8887504 C92.272022,92.5137536 91.6450751,92.9727334 91.0317908,93.2657036 C90.4185065,93.5586738 89.6743733,93.7051567 88.7993689,93.7051567 Z M89.6314002,91.5254692 C90.3423413,91.5254692 90.9614757,91.355549 91.4888221,91.0157036 C92.0161685,90.6758581 92.3931178,90.2637529 92.6196814,89.7793754 L92.6196814,87.2950004 C92.5962438,87.2950004 92.3911678,87.3106253 92.0044471,87.3418754 C91.6177264,87.3731256 91.4087441,87.3887504 91.3774939,87.3887504 C90.1353002,87.498126 89.2251531,87.7324987 88.6470252,88.0918754 C88.0688973,88.4512522 87.7798377,89.0293715 87.7798377,89.8262504 C87.7798377,90.3731282 87.9399923,90.7930459 88.2603064,91.0860161 C88.5806205,91.3789863 89.0376472,91.5254692 89.6314002,91.5254692 Z M98.7837439,93.4590629 L98.7837439,80.5801567 L101.2564,80.5801567 L101.596244,82.2090629 C102.908751,80.9121815 104.365767,80.2637504 105.967338,80.2637504 C107.467345,80.2637504 108.590381,80.6953868 109.336478,81.5586723 C110.082576,82.4219579 110.455619,83.6738985 110.455619,85.3145317 L110.455619,93.4590629 L107.373588,93.4590629 L107.373588,85.6895317 C107.365775,84.650464 107.197808,83.873128 106.869681,83.3575004 C106.541555,82.8418729 105.951717,82.5840629 105.10015,82.5840629 C104.436084,82.5840629 103.828669,82.7539831 103.277885,83.0938286 C102.727101,83.433674 102.326714,83.8614041 102.076713,84.3770317 C101.928274,84.9864097 101.854056,85.9239004 101.854056,87.1895317 L101.854056,93.4590629 L98.7837439,93.4590629 Z M118.272025,93.7051567 C116.592329,93.7051567 115.27203,93.0879754 114.311088,91.8535942 C113.350145,90.619213 112.869681,88.970792 112.869681,86.9082817 C112.869681,84.9082717 113.348192,83.3008659 114.305228,82.0860161 C115.262264,80.8711663 116.580611,80.2637504 118.260306,80.2637504 C120.088441,80.2637504 121.381396,80.9121815 122.139213,82.2090629 C122.061087,81.4434341 122.022025,80.7051603 122.022025,79.9942192 L122.022025,75.8340629 L125.092338,75.6348442 L125.092338,93.4590629 L122.432181,93.4590629 L122.092338,91.7012504 C121.959525,91.912189 121.836479,92.0938278 121.723197,92.2461723 C121.609915,92.3985168 121.443901,92.5742963 121.22515,92.7735161 C121.006399,92.9727358 120.770073,93.1328905 120.516166,93.2539848 C120.262258,93.3750792 119.941949,93.4805469 119.555228,93.5703911 C119.168508,93.6602353 118.740778,93.7051567 118.272025,93.7051567 Z M118.998588,91.3731254 C121.061098,91.3731254 122.107963,89.9707957 122.139213,87.1660942 C122.139213,85.5801488 121.87359,84.4239103 121.342338,83.6973442 C120.811085,82.9707781 120.018124,82.6075004 118.963431,82.6075004 C118.041552,82.6075004 117.305231,82.9766374 116.754447,83.7149223 C116.203663,84.4532073 115.928275,85.541087 115.928275,86.9785942 C115.928275,88.4082888 116.203663,89.4981217 116.754447,90.2481254 C117.305231,90.9981292 118.05327,91.3731254 118.998588,91.3731254 Z" id="Coney-Island" fill="#FA4359"></path>
                    <rect id="Rectangle-4-Copy-3-[30-60]" stroke="#FA4359" stroke-width="7" x="3.5" y="3.5" width="176.715925" height="125.20339" rx="62.6016949"></rect>
                </g>
                <g id="Group-2" transform="translate(427.116212, 708.838204)">
                    <path d="M64.3441703,51.6195596 C62.0941591,51.6195596 60.3871449,51.0590183 59.2230766,49.9379189 C58.0590083,48.8168196 57.4769828,47.2367573 57.4769828,45.1976846 L57.4769828,34.2054971 L60.6644828,34.2054971 L60.6644828,44.9281533 C60.6644828,46.357848 60.9554955,47.4008063 61.5375297,48.0570596 C62.1195639,48.7133128 63.0746324,49.0414346 64.4027641,49.0414346 C65.7074581,49.0414346 66.6527611,48.7113597 67.2387016,48.0512002 C67.824642,47.3910406 68.1176078,46.3461292 68.1176078,44.9164346 L68.1176078,34.2054971 L71.2933891,34.2054971 L71.2933891,45.2211221 C71.2933891,47.2445697 70.699645,48.8168196 69.5121391,49.9379189 C68.3246331,51.0590183 66.6019941,51.6195596 64.3441703,51.6195596 Z M79.6957328,51.5492471 C78.8207285,51.5492471 78.0922201,51.4457325 77.510186,51.2387002 C76.9281518,51.0316679 76.4730782,50.7054993 76.1449516,50.2601846 C75.8168249,49.8148698 75.5844054,49.2894845 75.447686,48.6840127 C75.3109665,48.0785409 75.2426078,47.3305015 75.2426078,46.4398721 L75.2426078,40.3578408 L73.1332328,40.3578408 L73.2504203,38.6937783 L75.4535453,38.4945596 L76.4379203,35.0023721 L78.3129203,34.9906533 L78.3129203,38.4945596 L81.5121391,38.4945596 L81.5121391,40.3578408 L78.3129203,40.3578408 L78.3129203,46.4984658 C78.3129203,47.4750332 78.4535439,48.1703387 78.7347953,48.5844033 C79.0160467,48.9984679 79.5355728,49.2054971 80.2933891,49.2054971 C80.7387038,49.2054971 81.2152615,49.166435 81.7230766,49.0883096 L81.8051078,51.2914346 C81.7894828,51.2914346 81.6937806,51.3090125 81.5179985,51.3441689 C81.3422163,51.3793254 81.1742493,51.4105751 81.0140922,51.4379189 C80.8539352,51.4652628 80.6488591,51.4906532 80.3988578,51.5140908 C80.1488566,51.5375284 79.9144839,51.5492471 79.6957328,51.5492471 Z M84.0316703,51.3734658 L84.0316703,38.4945596 L87.1019828,38.4945596 L87.1019828,51.3734658 L84.0316703,51.3734658 Z M84.0316703,36.6195596 L84.0316703,33.9945596 L87.1137016,33.9945596 L87.1137016,36.6195596 L84.0316703,36.6195596 Z M95.9379203,51.6195596 C93.9691605,51.6195596 92.4359727,51.0336279 91.338311,49.8617471 C90.2406492,48.6898662 89.6918266,47.0141017 89.6918266,44.8344033 C89.6918266,42.7250178 90.2679927,41.0883154 91.4203422,39.9242471 C92.5726917,38.7601787 94.0902547,38.1781533 95.9730766,38.1781533 C97.4808966,38.1781533 98.7543214,38.5023688 99.7933891,39.1508096 L99.0668266,41.3422158 C98.0043213,40.7875255 97.0160499,40.5101846 96.1019828,40.5101846 C95.0629151,40.5101846 94.2445639,40.8812746 93.6469047,41.6234658 C93.0492455,42.365657 92.7504203,43.4476775 92.7504203,44.8695596 C92.7504203,46.3070668 93.0453393,47.4008058 93.635186,48.1508096 C94.2250327,48.9008133 95.0590087,49.2758096 96.1371391,49.2758096 C97.2621447,49.2758096 98.3441651,48.9437816 99.3832328,48.2797158 L99.6762016,50.6117471 C99.1371364,50.9711239 98.5785482,51.2289338 98.0004203,51.3851846 C97.4222924,51.5414353 96.7347993,51.6195596 95.9379203,51.6195596 Z M105.512139,51.6195596 C104.316821,51.6195596 103.350033,51.2894847 102.611748,50.6293252 C101.873464,49.9691656 101.504327,49.0180033 101.504327,47.7758096 C101.504327,46.4398654 101.941822,45.4496409 102.816827,44.8051064 C103.691831,44.160572 105.01213,43.7523729 106.777764,43.5804971 C107.019953,43.5492469 107.281669,43.5179972 107.56292,43.4867471 C107.844172,43.4554969 108.160575,43.4242472 108.512139,43.3929971 C108.863703,43.3617469 109.141044,43.3344034 109.34417,43.3109658 L109.34417,42.6312783 C109.34417,41.8500244 109.164485,41.2816707 108.805108,40.9262002 C108.445731,40.5707297 107.898862,40.3929971 107.164483,40.3929971 C106.117603,40.3929971 104.824647,40.6859629 103.285577,41.2719033 C103.277764,41.2484657 103.148859,40.8930005 102.898858,40.2054971 C102.648857,39.5179936 102.519952,39.1664346 102.512139,39.1508096 C104.027772,38.5023688 105.66838,38.1781533 107.434014,38.1781533 C109.168398,38.1781533 110.430104,38.5551027 111.21917,39.3090127 C112.008237,40.0629227 112.402764,41.2836136 112.402764,42.9711221 L112.402764,51.3734658 L110.129327,51.3734658 C110.121514,51.3422157 110.035577,51.0804995 109.871514,50.5883096 C109.707451,50.0961196 109.62542,49.8344035 109.62542,49.8031533 C108.984792,50.4281564 108.357845,50.8871362 107.744561,51.1801064 C107.131277,51.4730767 106.387143,51.6195596 105.512139,51.6195596 Z M106.34417,49.4398721 C107.055111,49.4398721 107.674246,49.2699519 108.201592,48.9301064 C108.728939,48.590261 109.105888,48.1781557 109.332452,47.6937783 L109.332452,45.2094033 C109.309014,45.2094033 109.103938,45.2250282 108.717217,45.2562783 C108.330497,45.2875285 108.121514,45.3031533 108.090264,45.3031533 C106.84807,45.4125289 105.937923,45.6469015 105.359795,46.0062783 C104.781667,46.3656551 104.492608,46.9437743 104.492608,47.7406533 C104.492608,48.2875311 104.652762,48.7074487 104.973077,49.0004189 C105.293391,49.2933892 105.750417,49.4398721 106.34417,49.4398721 Z M60.7230766,82.3734658 L67.0394828,65.1937783 L70.4965141,65.1937783 L76.7191703,82.3734658 L73.4613578,82.3734658 L71.7621391,77.5219033 L65.7504203,77.5219033 L64.0394828,82.3734658 L60.7230766,82.3734658 Z M66.5472953,75.1547158 L70.9535453,75.1547158 C69.5472883,70.6468808 68.8246393,68.3187791 68.7855766,68.1703408 L66.5472953,75.1547158 Z M81.8519828,82.3734658 L76.7191703,69.4945596 L79.9769828,69.4945596 C80.1019835,69.8461238 80.4984639,70.9379098 81.166436,72.7699502 C81.834408,74.6019906 82.277763,75.850025 82.4965141,76.5140908 C82.9418288,77.8109723 83.2621381,78.7914312 83.4574516,79.4554971 C83.4574516,79.4476845 83.5238572,79.1937808 83.6566703,78.6937783 C83.7894835,78.1937758 83.9164353,77.7230774 84.0375297,77.2816689 C84.1586241,76.8402605 84.2347952,76.572685 84.2660453,76.4789346 C84.2738579,76.4633095 84.6312762,75.3851953 85.338311,73.2445596 C86.0453457,71.1039239 86.4652634,69.8539364 86.5980766,69.4945596 L89.8324516,69.4945596 L84.9574516,82.3734658 L81.8519828,82.3734658 Z M97.3793266,82.6195596 C95.3090037,82.6195596 93.6976917,82.0238624 92.5453422,80.8324502 C91.3929927,79.641038 90.8168266,77.9945701 90.8168266,75.8929971 C90.8168266,73.8461118 91.3597899,72.2172219 92.4457328,71.0062783 C93.5316758,69.7953348 95.0121297,69.1859659 96.8871391,69.1781533 C98.6605854,69.1781533 100.037525,69.7328353 101.017998,70.8422158 C101.998472,71.9515964 102.488702,73.4242379 102.488702,75.2601846 C102.488702,75.3929977 102.486748,75.6078393 102.482842,75.9047158 C102.478936,76.2015923 102.476983,76.4203401 102.476983,76.5609658 L93.9105766,76.5609658 C93.9418267,77.7640968 94.2719016,78.6957281 94.900811,79.3558877 C95.5297203,80.0160472 96.3949461,80.3461221 97.4965141,80.3461221 C98.9027711,80.3461221 100.25432,79.9789382 101.551202,79.2445596 L101.984795,81.4242471 C100.695726,82.2211261 99.1605855,82.6195596 97.3793266,82.6195596 Z M93.9691703,74.6273721 L99.5941703,74.6273721 C99.5941703,73.5804918 99.3558915,72.7758124 98.8793266,72.2133096 C98.4027617,71.6508068 97.742612,71.3695596 96.8988578,71.3695596 C96.1097914,71.3695596 95.4437824,71.6429943 94.900811,72.1898721 C94.3578395,72.7367498 94.0472957,73.5492417 93.9691703,74.6273721 Z M106.297295,82.5844033 C105.78948,82.5844033 105.359797,82.4086238 105.008233,82.0570596 C104.656669,81.7054953 104.480889,81.2875307 104.480889,80.8031533 C104.480889,80.3109634 104.654715,79.8851864 105.002373,79.5258096 C105.350031,79.1664328 105.781668,78.9867471 106.297295,78.9867471 C106.797298,78.9867471 107.219169,79.1664328 107.56292,79.5258096 C107.906672,79.8851864 108.078545,80.3109634 108.078545,80.8031533 C108.078545,81.2875307 107.906672,81.7054953 107.56292,82.0570596 C107.219169,82.4086238 106.797298,82.5844033 106.297295,82.5844033 Z" id="Utica-Ave." fill="#FA4359"></path>
                    <rect id="Rectangle-4-Copy-4-[30-60]" stroke="#FA4359" stroke-width="7" x="3.5" y="3.5" width="163.659971" height="109.749822" rx="54.8749109"></rect>
                </g>
                <path d="M707.819225,116.749822 L707.819225,494.935962 C707.819225,509.295365 696.178629,520.935962 681.819225,520.935962 L537.047346,520.935962 C522.687942,520.935962 511.047346,532.576558 511.047346,546.935962 L511.047346,710.691376" id="Path-3" stroke="#FA4359" stroke-width="4"></path>
                <path d="M282.568149,340.057021 L282.568149,413.201711 C282.568149,427.561114 294.208746,439.201711 308.568149,439.201711 L775.8967,439.201711" id="Path-4" stroke="#FA4359" stroke-width="4"></path>
                <path d="M107.245337,631.004989 L107.245337,743.066287 C107.245337,757.42569 118.885934,769.066287 133.245337,769.066287 L427.116212,769.066287" id="Path-4-Copy" stroke="#FA4359" stroke-width="4"></path>
                <path d="M360.903874,284.461867 L495.022495,284.461867 C509.381898,284.461867 521.022495,272.821271 521.022495,258.461867 L521.022495,85.3014968 C521.022495,70.9420933 532.663091,59.3014968 547.022495,59.3014968 L619.225251,59.3014968" id="Path-5" stroke="#FA4359" stroke-width="4"></path>
                <path d="M597.776184,769.066287 L699.53802,769.066287 C713.897424,769.066287 725.53802,780.706883 725.53802,795.066287 L725.53802,1104.49038" id="Path-6" stroke="#FA4359" stroke-width="4"></path>
                <path d="M816.929699,1162.86529 L891.647059,1162.86529 C906.006462,1162.86529 917.647059,1151.22469 917.647059,1136.86529 L917.647059,481.824661" id="Path-7" stroke="#FA4359" stroke-width="4"></path>
                <g id="Group-7" transform="translate(282.568149, 838.560228)" stroke="#FFFFFF" stroke-linecap="round" stroke-width="2">
                    <path d="M0.582855093,67.7493541 C62.0339961,67.7493541 118.101013,39.9771138 152.176179,0.477770848" id="Path-8"></path>
                    <path d="M131.626894,1.16547131 C141.526241,0.942810897 148.60277,0.649244022 152.856481,0.284770686 C152.234769,8.14972132 150.89572,15.7437715 148.839334,23.0669213" id="Path-9"></path>
                </g>
                <g id="Group-7-Copy-2" transform="translate(544.058160, 1223.697857) scale(1, -1) rotate(52.000000) translate(-544.058160, -1223.697857) translate(472.716697, 1192.657230)" stroke="#FFFFFF" stroke-linecap="round" stroke-width="2">
                    <path d="M-4.54747351e-13,48.1824661 C55.2934969,83.3139043 108.508294,40.7369473 142.682927,0.926585887" id="Path-8"></path>
                    <path d="M121.233859,0.895486979 C131.23555,0.66908825 138.385239,0.37059259 142.682927,0 C142.054787,7.99699771 140.701894,15.7185468 138.624248,23.1646472" id="Path-9"></path>
                </g>
                <g id="Group-7-Copy" transform="translate(90.220501, 827.299906) scale(-1, 1) rotate(-39.000000) translate(-90.220501, -827.299906) translate(0.693959, 794.869400)" stroke="#FFFFFF" stroke-linecap="round" stroke-width="2">
                    <path d="M0.698776264,57.6630096 C79.3629609,82.5870451 151.29246,36.6227696 174.82861,1.95282983" id="Path-8"></path>
                    <path d="M156.347079,2.90863628 C166.246425,2.68597586 173.322954,2.39240899 177.576666,2.02793565 C176.954954,9.89288629 175.615904,17.4869365 173.559518,24.8100863" id="Path-9" transform="translate(166.961872, 13.419011) rotate(-7.000000) translate(-166.961872, -13.419011) "></path>
                </g>
            </g>
        </g>
    </g>
</svg>