<?xml version="1.0" encoding="utf-8" standalone="no"?>
<!DOCTYPE svg PUBLIC "-//W3C//DTD SVG 1.1//EN"
  "http://www.w3.org/Graphics/SVG/1.1/DTD/svg11.dtd">
<!-- Created with matplotlib (https://matplotlib.org/) -->
<svg height="324.47466pt" version="1.1" viewBox="0 0 525 324.47466" width="525pt" xmlns="http://www.w3.org/2000/svg" xmlns:xlink="http://www.w3.org/1999/xlink">
 <metadata>
  <rdf:RDF xmlns:cc="http://creativecommons.org/ns#" xmlns:dc="http://purl.org/dc/elements/1.1/" xmlns:rdf="http://www.w3.org/1999/02/22-rdf-syntax-ns#">
   <cc:Work>
    <dc:type rdf:resource="http://purl.org/dc/dcmitype/StillImage"/>
    <dc:date>2021-04-09T09:15:53.291204</dc:date>
    <dc:format>image/svg+xml</dc:format>
    <dc:creator>
     <cc:Agent>
      <dc:title>Matplotlib v3.3.4, https://matplotlib.org/</dc:title>
     </cc:Agent>
    </dc:creator>
   </cc:Work>
  </rdf:RDF>
 </metadata>
 <defs>
  <style type="text/css">*{stroke-linecap:butt;stroke-linejoin:round;}</style>
 </defs>
 <g id="figure_1">
  <g id="patch_1">
   <path d="M 0 324.47466 
L 525 324.47466 
L 525 0 
L 0 0 
z
" style="fill:#ffffff;"/>
  </g>
  <g id="axes_1">
   <g id="patch_2">
    <path d="M 52.5 292.027194 
L 472.5 292.027194 
L 472.5 32.447466 
L 52.5 32.447466 
z
" style="fill:#ffffff;"/>
   </g>
   <g id="PathCollection_1">
    <defs>
     <path d="M 0 3 
C 0.795609 3 1.55874 2.683901 2.12132 2.12132 
C 2.683901 1.55874 3 0.795609 3 0 
C 3 -0.795609 2.683901 -1.55874 2.12132 -2.12132 
C 1.55874 -2.683901 0.795609 -3 0 -3 
C -0.795609 -3 -1.55874 -2.683901 -2.12132 -2.12132 
C -2.683901 -1.55874 -3 -0.795609 -3 0 
C -3 0.795609 -2.683901 1.55874 -2.12132 2.12132 
C -1.55874 2.683901 -0.795609 3 0 3 
z
" id="m06d263d430" style="stroke:#e9f2fa;stroke-opacity:0.8;"/>
    </defs>
    <g clip-path="url(#pd5bc2af212)">
     <use style="fill:#e9f2fa;fill-opacity:0.8;stroke:#e9f2fa;stroke-opacity:0.8;" x="150.836192" xlink:href="#m06d263d430" y="243.081044"/>
    </g>
   </g>
   <g id="PathCollection_2">
    <defs>
     <path d="M 0 3 
C 0.795609 3 1.55874 2.683901 2.12132 2.12132 
C 2.683901 1.55874 3 0.795609 3 0 
C 3 -0.795609 2.683901 -1.55874 2.12132 -2.12132 
C 1.55874 -2.683901 0.795609 -3 0 -3 
C -0.795609 -3 -1.55874 -2.683901 -2.12132 -2.12132 
C -2.683901 -1.55874 -3 -0.795609 -3 0 
C -3 0.795609 -2.683901 1.55874 -2.12132 2.12132 
C -1.55874 2.683901 -0.795609 3 0 3 
z
" id="ma63116afc4" style="stroke:#dbe9f6;stroke-opacity:0.8;"/>
    </defs>
    <g clip-path="url(#pd5bc2af212)">
     <use style="fill:#dbe9f6;fill-opacity:0.8;stroke:#dbe9f6;stroke-opacity:0.8;" x="158.040309" xlink:href="#ma63116afc4" y="243.081044"/>
    </g>
   </g>
   <g id="PathCollection_3">
    <defs>
     <path d="M 0 3 
C 0.795609 3 1.55874 2.683901 2.12132 2.12132 
C 2.683901 1.55874 3 0.795609 3 0 
C 3 -0.795609 2.683901 -1.55874 2.12132 -2.12132 
C 1.55874 -2.683901 0.795609 -3 0 -3 
C -0.795609 -3 -1.55874 -2.683901 -2.12132 -2.12132 
C -2.683901 -1.55874 -3 -0.795609 -3 0 
C -3 0.795609 -2.683901 1.55874 -2.12132 2.12132 
C -1.55874 2.683901 -0.795609 3 0 3 
z
" id="m99ed934cd9" style="stroke:#cde0f1;stroke-opacity:0.8;"/>
    </defs>
    <g clip-path="url(#pd5bc2af212)">
     <use style="fill:#cde0f1;fill-opacity:0.8;stroke:#cde0f1;stroke-opacity:0.8;" x="93.203259" xlink:href="#m99ed934cd9" y="231.187569"/>
    </g>
   </g>
   <g id="PathCollection_4">
    <defs>
     <path d="M 0 3 
C 0.795609 3 1.55874 2.683901 2.12132 2.12132 
C 2.683901 1.55874 3 0.795609 3 0 
C 3 -0.795609 2.683901 -1.55874 2.12132 -2.12132 
C 1.55874 -2.683901 0.795609 -3 0 -3 
C -0.795609 -3 -1.55874 -2.683901 -2.12132 -2.12132 
C -2.683901 -1.55874 -3 -0.795609 -3 0 
C -3 0.795609 -2.683901 1.55874 -2.12132 2.12132 
C -1.55874 2.683901 -0.795609 3 0 3 
z
" id="m8c79e10585" style="stroke:#bad6eb;stroke-opacity:0.8;"/>
    </defs>
    <g clip-path="url(#pd5bc2af212)">
     <use style="fill:#bad6eb;fill-opacity:0.8;stroke:#bad6eb;stroke-opacity:0.8;" x="179.652659" xlink:href="#m8c79e10585" y="200.081559"/>
     <use style="fill:#bad6eb;fill-opacity:0.8;stroke:#bad6eb;stroke-opacity:0.8;" x="230.081475" xlink:href="#m8c79e10585" y="234.542139"/>
     <use style="fill:#bad6eb;fill-opacity:0.8;stroke:#bad6eb;stroke-opacity:0.8;" x="222.877358" xlink:href="#m8c79e10585" y="226.308195"/>
     <use style="fill:#bad6eb;fill-opacity:0.8;stroke:#bad6eb;stroke-opacity:0.8;" x="266.102058" xlink:href="#m8c79e10585" y="168.060665"/>
     <use style="fill:#bad6eb;fill-opacity:0.8;stroke:#bad6eb;stroke-opacity:0.8;" x="309.326758" xlink:href="#m8c79e10585" y="195.812106"/>
     <use style="fill:#bad6eb;fill-opacity:0.8;stroke:#bad6eb;stroke-opacity:0.8;" x="71.590909" xlink:href="#m8c79e10585" y="238.811592"/>
    </g>
   </g>
   <g id="PathCollection_5">
    <defs>
     <path d="M 0 3 
C 0.795609 3 1.55874 2.683901 2.12132 2.12132 
C 2.683901 1.55874 3 0.795609 3 0 
C 3 -0.795609 2.683901 -1.55874 2.12132 -2.12132 
C 1.55874 -2.683901 0.795609 -3 0 -3 
C -0.795609 -3 -1.55874 -2.683901 -2.12132 -2.12132 
C -2.683901 -1.55874 -3 -0.795609 -3 0 
C -3 0.795609 -2.683901 1.55874 -2.12132 2.12132 
C -1.55874 2.683901 -0.795609 3 0 3 
z
" id="m8758cf6250" style="stroke:#a4cce3;stroke-opacity:0.8;"/>
    </defs>
    <g clip-path="url(#pd5bc2af212)">
     <use style="fill:#a4cce3;fill-opacity:0.8;stroke:#a4cce3;stroke-opacity:0.8;" x="194.060892" xlink:href="#m8758cf6250" y="247.350497"/>
     <use style="fill:#a4cce3;fill-opacity:0.8;stroke:#a4cce3;stroke-opacity:0.8;" x="215.673242" xlink:href="#m8758cf6250" y="244.300888"/>
     <use style="fill:#a4cce3;fill-opacity:0.8;stroke:#a4cce3;stroke-opacity:0.8;" x="201.265009" xlink:href="#m8758cf6250" y="200.38652"/>
     <use style="fill:#a4cce3;fill-opacity:0.8;stroke:#a4cce3;stroke-opacity:0.8;" x="136.427959" xlink:href="#m8758cf6250" y="260.768776"/>
     <use style="fill:#a4cce3;fill-opacity:0.8;stroke:#a4cce3;stroke-opacity:0.8;" x="294.918525" xlink:href="#m8758cf6250" y="176.904531"/>
     <use style="fill:#a4cce3;fill-opacity:0.8;stroke:#a4cce3;stroke-opacity:0.8;" x="186.856775" xlink:href="#m8758cf6250" y="192.152576"/>
     <use style="fill:#a4cce3;fill-opacity:0.8;stroke:#a4cce3;stroke-opacity:0.8;" x="230.081475" xlink:href="#m8758cf6250" y="166.840822"/>
     <use style="fill:#a4cce3;fill-opacity:0.8;stroke:#a4cce3;stroke-opacity:0.8;" x="136.427959" xlink:href="#m8758cf6250" y="235.457022"/>
     <use style="fill:#a4cce3;fill-opacity:0.8;stroke:#a4cce3;stroke-opacity:0.8;" x="208.469125" xlink:href="#m8758cf6250" y="173.854922"/>
     <use style="fill:#a4cce3;fill-opacity:0.8;stroke:#a4cce3;stroke-opacity:0.8;" x="143.632075" xlink:href="#m8758cf6250" y="191.237693"/>
     <use style="fill:#a4cce3;fill-opacity:0.8;stroke:#a4cce3;stroke-opacity:0.8;" x="179.652659" xlink:href="#m8758cf6250" y="201.911324"/>
     <use style="fill:#a4cce3;fill-opacity:0.8;stroke:#a4cce3;stroke-opacity:0.8;" x="201.265009" xlink:href="#m8758cf6250" y="235.761983"/>
    </g>
   </g>
   <g id="PathCollection_6">
    <defs>
     <path d="M 0 3 
C 0.795609 3 1.55874 2.683901 2.12132 2.12132 
C 2.683901 1.55874 3 0.795609 3 0 
C 3 -0.795609 2.683901 -1.55874 2.12132 -2.12132 
C 1.55874 -2.683901 0.795609 -3 0 -3 
C -0.795609 -3 -1.55874 -2.683901 -2.12132 -2.12132 
C -2.683901 -1.55874 -3 -0.795609 -3 0 
C -3 0.795609 -2.683901 1.55874 -2.12132 2.12132 
C -1.55874 2.683901 -0.795609 3 0 3 
z
" id="m9794f5b0b7" style="stroke:#89bedc;stroke-opacity:0.8;"/>
    </defs>
    <g clip-path="url(#pd5bc2af212)">
     <use style="fill:#89bedc;fill-opacity:0.8;stroke:#89bedc;stroke-opacity:0.8;" x="251.693825" xlink:href="#m9794f5b0b7" y="155.557269"/>
     <use style="fill:#89bedc;fill-opacity:0.8;stroke:#89bedc;stroke-opacity:0.8;" x="237.285592" xlink:href="#m9794f5b0b7" y="210.75519"/>
     <use style="fill:#89bedc;fill-opacity:0.8;stroke:#89bedc;stroke-opacity:0.8;" x="244.489708" xlink:href="#m9794f5b0b7" y="154.642386"/>
     <use style="fill:#89bedc;fill-opacity:0.8;stroke:#89bedc;stroke-opacity:0.8;" x="122.019726" xlink:href="#m9794f5b0b7" y="228.137961"/>
     <use style="fill:#89bedc;fill-opacity:0.8;stroke:#89bedc;stroke-opacity:0.8;" x="309.326758" xlink:href="#m9794f5b0b7" y="177.819414"/>
     <use style="fill:#89bedc;fill-opacity:0.8;stroke:#89bedc;stroke-opacity:0.8;" x="287.714408" xlink:href="#m9794f5b0b7" y="150.677895"/>
     <use style="fill:#89bedc;fill-opacity:0.8;stroke:#89bedc;stroke-opacity:0.8;" x="316.530875" xlink:href="#m9794f5b0b7" y="181.173984"/>
     <use style="fill:#89bedc;fill-opacity:0.8;stroke:#89bedc;stroke-opacity:0.8;" x="237.285592" xlink:href="#m9794f5b0b7" y="191.542654"/>
     <use style="fill:#89bedc;fill-opacity:0.8;stroke:#89bedc;stroke-opacity:0.8;" x="158.040309" xlink:href="#m9794f5b0b7" y="200.38652"/>
     <use style="fill:#89bedc;fill-opacity:0.8;stroke:#89bedc;stroke-opacity:0.8;" x="179.652659" xlink:href="#m9794f5b0b7" y="187.883123"/>
    </g>
   </g>
   <g id="PathCollection_7">
    <defs>
     <path d="M 0 3 
C 0.795609 3 1.55874 2.683901 2.12132 2.12132 
C 2.683901 1.55874 3 0.795609 3 0 
C 3 -0.795609 2.683901 -1.55874 2.12132 -2.12132 
C 1.55874 -2.683901 0.795609 -3 0 -3 
C -0.795609 -3 -1.55874 -2.683901 -2.12132 -2.12132 
C -2.683901 -1.55874 -3 -0.795609 -3 0 
C -3 0.795609 -2.683901 1.55874 -2.12132 2.12132 
C -1.55874 2.683901 -0.795609 3 0 3 
z
" id="m821acbf60c" style="stroke:#6aaed6;stroke-opacity:0.8;"/>
    </defs>
    <g clip-path="url(#pd5bc2af212)">
     <use style="fill:#6aaed6;fill-opacity:0.8;stroke:#6aaed6;stroke-opacity:0.8;" x="122.019726" xlink:href="#m821acbf60c" y="234.8471"/>
     <use style="fill:#6aaed6;fill-opacity:0.8;stroke:#6aaed6;stroke-opacity:0.8;" x="201.265009" xlink:href="#m821acbf60c" y="137.869537"/>
     <use style="fill:#6aaed6;fill-opacity:0.8;stroke:#6aaed6;stroke-opacity:0.8;" x="258.897942" xlink:href="#m821acbf60c" y="172.330118"/>
     <use style="fill:#6aaed6;fill-opacity:0.8;stroke:#6aaed6;stroke-opacity:0.8;" x="222.877358" xlink:href="#m821acbf60c" y="206.790698"/>
     <use style="fill:#6aaed6;fill-opacity:0.8;stroke:#6aaed6;stroke-opacity:0.8;" x="129.223842" xlink:href="#m821acbf60c" y="190.627771"/>
     <use style="fill:#6aaed6;fill-opacity:0.8;stroke:#6aaed6;stroke-opacity:0.8;" x="150.836192" xlink:href="#m821acbf60c" y="237.591748"/>
     <use style="fill:#6aaed6;fill-opacity:0.8;stroke:#6aaed6;stroke-opacity:0.8;" x="230.081475" xlink:href="#m821acbf60c" y="193.372419"/>
     <use style="fill:#6aaed6;fill-opacity:0.8;stroke:#6aaed6;stroke-opacity:0.8;" x="215.673242" xlink:href="#m821acbf60c" y="232.712374"/>
     <use style="fill:#6aaed6;fill-opacity:0.8;stroke:#6aaed6;stroke-opacity:0.8;" x="186.856775" xlink:href="#m821acbf60c" y="167.145783"/>
     <use style="fill:#6aaed6;fill-opacity:0.8;stroke:#6aaed6;stroke-opacity:0.8;" x="201.265009" xlink:href="#m821acbf60c" y="191.542654"/>
     <use style="fill:#6aaed6;fill-opacity:0.8;stroke:#6aaed6;stroke-opacity:0.8;" x="237.285592" xlink:href="#m821acbf60c" y="202.521246"/>
     <use style="fill:#6aaed6;fill-opacity:0.8;stroke:#6aaed6;stroke-opacity:0.8;" x="107.611492" xlink:href="#m821acbf60c" y="191.542654"/>
    </g>
   </g>
   <g id="PathCollection_8">
    <defs>
     <path d="M 0 3 
C 0.795609 3 1.55874 2.683901 2.12132 2.12132 
C 2.683901 1.55874 3 0.795609 3 0 
C 3 -0.795609 2.683901 -1.55874 2.12132 -2.12132 
C 1.55874 -2.683901 0.795609 -3 0 -3 
C -0.795609 -3 -1.55874 -2.683901 -2.12132 -2.12132 
C -2.683901 -1.55874 -3 -0.795609 -3 0 
C -3 0.795609 -2.683901 1.55874 -2.12132 2.12132 
C -1.55874 2.683901 -0.795609 3 0 3 
z
" id="m139e30b345" style="stroke:#539ecd;stroke-opacity:0.8;"/>
    </defs>
    <g clip-path="url(#pd5bc2af212)">
     <use style="fill:#539ecd;fill-opacity:0.8;stroke:#539ecd;stroke-opacity:0.8;" x="266.102058" xlink:href="#m139e30b345" y="160.131682"/>
     <use style="fill:#539ecd;fill-opacity:0.8;stroke:#539ecd;stroke-opacity:0.8;" x="172.448542" xlink:href="#m139e30b345" y="142.748912"/>
     <use style="fill:#539ecd;fill-opacity:0.8;stroke:#539ecd;stroke-opacity:0.8;" x="165.244425" xlink:href="#m139e30b345" y="190.017849"/>
     <use style="fill:#539ecd;fill-opacity:0.8;stroke:#539ecd;stroke-opacity:0.8;" x="258.897942" xlink:href="#m139e30b345" y="123.231415"/>
     <use style="fill:#539ecd;fill-opacity:0.8;stroke:#539ecd;stroke-opacity:0.8;" x="273.306175" xlink:href="#m139e30b345" y="185.443436"/>
     <use style="fill:#539ecd;fill-opacity:0.8;stroke:#539ecd;stroke-opacity:0.8;" x="302.122642" xlink:href="#m139e30b345" y="111.33794"/>
     <use style="fill:#539ecd;fill-opacity:0.8;stroke:#539ecd;stroke-opacity:0.8;" x="194.060892" xlink:href="#m139e30b345" y="125.976063"/>
     <use style="fill:#539ecd;fill-opacity:0.8;stroke:#539ecd;stroke-opacity:0.8;" x="294.918525" xlink:href="#m139e30b345" y="124.146297"/>
     <use style="fill:#539ecd;fill-opacity:0.8;stroke:#539ecd;stroke-opacity:0.8;" x="287.714408" xlink:href="#m139e30b345" y="138.78442"/>
     <use style="fill:#539ecd;fill-opacity:0.8;stroke:#539ecd;stroke-opacity:0.8;" x="237.285592" xlink:href="#m139e30b345" y="128.41575"/>
    </g>
   </g>
   <g id="PathCollection_9">
    <defs>
     <path d="M 0 3 
C 0.795609 3 1.55874 2.683901 2.12132 2.12132 
C 2.683901 1.55874 3 0.795609 3 0 
C 3 -0.795609 2.683901 -1.55874 2.12132 -2.12132 
C 1.55874 -2.683901 0.795609 -3 0 -3 
C -0.795609 -3 -1.55874 -2.683901 -2.12132 -2.12132 
C -2.683901 -1.55874 -3 -0.795609 -3 0 
C -3 0.795609 -2.683901 1.55874 -2.12132 2.12132 
C -1.55874 2.683901 -0.795609 3 0 3 
z
" id="m552d7163c2" style="stroke:#3d8dc4;stroke-opacity:0.8;"/>
    </defs>
    <g clip-path="url(#pd5bc2af212)">
     <use style="fill:#3d8dc4;fill-opacity:0.8;stroke:#3d8dc4;stroke-opacity:0.8;" x="143.632075" xlink:href="#m552d7163c2" y="124.451258"/>
     <use style="fill:#3d8dc4;fill-opacity:0.8;stroke:#3d8dc4;stroke-opacity:0.8;" x="201.265009" xlink:href="#m552d7163c2" y="195.507145"/>
     <use style="fill:#3d8dc4;fill-opacity:0.8;stroke:#3d8dc4;stroke-opacity:0.8;" x="244.489708" xlink:href="#m552d7163c2" y="147.933247"/>
     <use style="fill:#3d8dc4;fill-opacity:0.8;stroke:#3d8dc4;stroke-opacity:0.8;" x="172.448542" xlink:href="#m552d7163c2" y="124.146297"/>
     <use style="fill:#3d8dc4;fill-opacity:0.8;stroke:#3d8dc4;stroke-opacity:0.8;" x="280.510292" xlink:href="#m552d7163c2" y="84.501382"/>
     <use style="fill:#3d8dc4;fill-opacity:0.8;stroke:#3d8dc4;stroke-opacity:0.8;" x="215.673242" xlink:href="#m552d7163c2" y="155.86223"/>
     <use style="fill:#3d8dc4;fill-opacity:0.8;stroke:#3d8dc4;stroke-opacity:0.8;" x="338.143225" xlink:href="#m552d7163c2" y="115.302432"/>
     <use style="fill:#3d8dc4;fill-opacity:0.8;stroke:#3d8dc4;stroke-opacity:0.8;" x="215.673242" xlink:href="#m552d7163c2" y="116.217314"/>
     <use style="fill:#3d8dc4;fill-opacity:0.8;stroke:#3d8dc4;stroke-opacity:0.8;" x="208.469125" xlink:href="#m552d7163c2" y="99.749426"/>
     <use style="fill:#3d8dc4;fill-opacity:0.8;stroke:#3d8dc4;stroke-opacity:0.8;" x="230.081475" xlink:href="#m552d7163c2" y="121.401649"/>
     <use style="fill:#3d8dc4;fill-opacity:0.8;stroke:#3d8dc4;stroke-opacity:0.8;" x="316.530875" xlink:href="#m552d7163c2" y="137.869537"/>
     <use style="fill:#3d8dc4;fill-opacity:0.8;stroke:#3d8dc4;stroke-opacity:0.8;" x="366.959691" xlink:href="#m552d7163c2" y="123.231415"/>
     <use style="fill:#3d8dc4;fill-opacity:0.8;stroke:#3d8dc4;stroke-opacity:0.8;" x="309.326758" xlink:href="#m552d7163c2" y="53.700332"/>
     <use style="fill:#3d8dc4;fill-opacity:0.8;stroke:#3d8dc4;stroke-opacity:0.8;" x="330.939108" xlink:href="#m552d7163c2" y="132.075281"/>
     <use style="fill:#3d8dc4;fill-opacity:0.8;stroke:#3d8dc4;stroke-opacity:0.8;" x="266.102058" xlink:href="#m552d7163c2" y="114.997471"/>
     <use style="fill:#3d8dc4;fill-opacity:0.8;stroke:#3d8dc4;stroke-opacity:0.8;" x="244.489708" xlink:href="#m552d7163c2" y="134.819929"/>
     <use style="fill:#3d8dc4;fill-opacity:0.8;stroke:#3d8dc4;stroke-opacity:0.8;" x="302.122642" xlink:href="#m552d7163c2" y="150.067973"/>
     <use style="fill:#3d8dc4;fill-opacity:0.8;stroke:#3d8dc4;stroke-opacity:0.8;" x="302.122642" xlink:href="#m552d7163c2" y="107.373449"/>
     <use style="fill:#3d8dc4;fill-opacity:0.8;stroke:#3d8dc4;stroke-opacity:0.8;" x="230.081475" xlink:href="#m552d7163c2" y="166.2309"/>
    </g>
   </g>
   <g id="PathCollection_10">
    <defs>
     <path d="M 0 3 
C 0.795609 3 1.55874 2.683901 2.12132 2.12132 
C 2.683901 1.55874 3 0.795609 3 0 
C 3 -0.795609 2.683901 -1.55874 2.12132 -2.12132 
C 1.55874 -2.683901 0.795609 -3 0 -3 
C -0.795609 -3 -1.55874 -2.683901 -2.12132 -2.12132 
C -2.683901 -1.55874 -3 -0.795609 -3 0 
C -3 0.795609 -2.683901 1.55874 -2.12132 2.12132 
C -1.55874 2.683901 -0.795609 3 0 3 
z
" id="m18b873458c" style="stroke:#2b7bba;stroke-opacity:0.8;"/>
    </defs>
    <g clip-path="url(#pd5bc2af212)">
     <use style="fill:#2b7bba;fill-opacity:0.8;stroke:#2b7bba;stroke-opacity:0.8;" x="172.448542" xlink:href="#m18b873458c" y="136.954655"/>
     <use style="fill:#2b7bba;fill-opacity:0.8;stroke:#2b7bba;stroke-opacity:0.8;" x="345.347341" xlink:href="#m18b873458c" y="62.544198"/>
     <use style="fill:#2b7bba;fill-opacity:0.8;stroke:#2b7bba;stroke-opacity:0.8;" x="230.081475" xlink:href="#m18b873458c" y="89.380756"/>
     <use style="fill:#2b7bba;fill-opacity:0.8;stroke:#2b7bba;stroke-opacity:0.8;" x="294.918525" xlink:href="#m18b873458c" y="91.820443"/>
     <use style="fill:#2b7bba;fill-opacity:0.8;stroke:#2b7bba;stroke-opacity:0.8;" x="251.693825" xlink:href="#m18b873458c" y="91.820443"/>
     <use style="fill:#2b7bba;fill-opacity:0.8;stroke:#2b7bba;stroke-opacity:0.8;" x="251.693825" xlink:href="#m18b873458c" y="78.097203"/>
     <use style="fill:#2b7bba;fill-opacity:0.8;stroke:#2b7bba;stroke-opacity:0.8;" x="244.489708" xlink:href="#m18b873458c" y="120.791728"/>
     <use style="fill:#2b7bba;fill-opacity:0.8;stroke:#2b7bba;stroke-opacity:0.8;" x="330.939108" xlink:href="#m18b873458c" y="127.500867"/>
     <use style="fill:#2b7bba;fill-opacity:0.8;stroke:#2b7bba;stroke-opacity:0.8;" x="266.102058" xlink:href="#m18b873458c" y="77.487281"/>
     <use style="fill:#2b7bba;fill-opacity:0.8;stroke:#2b7bba;stroke-opacity:0.8;" x="222.877358" xlink:href="#m18b873458c" y="152.812621"/>
     <use style="fill:#2b7bba;fill-opacity:0.8;stroke:#2b7bba;stroke-opacity:0.8;" x="287.714408" xlink:href="#m18b873458c" y="61.324354"/>
     <use style="fill:#2b7bba;fill-opacity:0.8;stroke:#2b7bba;stroke-opacity:0.8;" x="172.448542" xlink:href="#m18b873458c" y="71.693025"/>
     <use style="fill:#2b7bba;fill-opacity:0.8;stroke:#2b7bba;stroke-opacity:0.8;" x="222.877358" xlink:href="#m18b873458c" y="134.514968"/>
     <use style="fill:#2b7bba;fill-opacity:0.8;stroke:#2b7bba;stroke-opacity:0.8;" x="330.939108" xlink:href="#m18b873458c" y="60.409472"/>
    </g>
   </g>
   <g id="PathCollection_11">
    <defs>
     <path d="M 0 3 
C 0.795609 3 1.55874 2.683901 2.12132 2.12132 
C 2.683901 1.55874 3 0.795609 3 0 
C 3 -0.795609 2.683901 -1.55874 2.12132 -2.12132 
C 1.55874 -2.683901 0.795609 -3 0 -3 
C -0.795609 -3 -1.55874 -2.683901 -2.12132 -2.12132 
C -2.683901 -1.55874 -3 -0.795609 -3 0 
C -3 0.795609 -2.683901 1.55874 -2.12132 2.12132 
C -1.55874 2.683901 -0.795609 3 0 3 
z
" id="m5d686b33ed" style="stroke:#1967ad;stroke-opacity:0.8;"/>
    </defs>
    <g clip-path="url(#pd5bc2af212)">
     <use style="fill:#1967ad;fill-opacity:0.8;stroke:#1967ad;stroke-opacity:0.8;" x="158.040309" xlink:href="#m5d686b33ed" y="175.684688"/>
     <use style="fill:#1967ad;fill-opacity:0.8;stroke:#1967ad;stroke-opacity:0.8;" x="352.551458" xlink:href="#m5d686b33ed" y="88.770834"/>
     <use style="fill:#1967ad;fill-opacity:0.8;stroke:#1967ad;stroke-opacity:0.8;" x="215.673242" xlink:href="#m5d686b33ed" y="90.6006"/>
     <use style="fill:#1967ad;fill-opacity:0.8;stroke:#1967ad;stroke-opacity:0.8;" x="237.285592" xlink:href="#m5d686b33ed" y="95.479974"/>
     <use style="fill:#1967ad;fill-opacity:0.8;stroke:#1967ad;stroke-opacity:0.8;" x="266.102058" xlink:href="#m5d686b33ed" y="125.366141"/>
     <use style="fill:#1967ad;fill-opacity:0.8;stroke:#1967ad;stroke-opacity:0.8;" x="273.306175" xlink:href="#m5d686b33ed" y="114.387549"/>
     <use style="fill:#1967ad;fill-opacity:0.8;stroke:#1967ad;stroke-opacity:0.8;" x="258.897942" xlink:href="#m5d686b33ed" y="107.068488"/>
     <use style="fill:#1967ad;fill-opacity:0.8;stroke:#1967ad;stroke-opacity:0.8;" x="453.409091" xlink:href="#m5d686b33ed" y="44.246545"/>
    </g>
   </g>
   <g id="PathCollection_12">
    <defs>
     <path d="M 0 3 
C 0.795609 3 1.55874 2.683901 2.12132 2.12132 
C 2.683901 1.55874 3 0.795609 3 0 
C 3 -0.795609 2.683901 -1.55874 2.12132 -2.12132 
C 1.55874 -2.683901 0.795609 -3 0 -3 
C -0.795609 -3 -1.55874 -2.683901 -2.12132 -2.12132 
C -2.683901 -1.55874 -3 -0.795609 -3 0 
C -3 0.795609 -2.683901 1.55874 -2.12132 2.12132 
C -1.55874 2.683901 -0.795609 3 0 3 
z
" id="mb20a32fa83" style="stroke:#0b559f;stroke-opacity:0.8;"/>
    </defs>
    <g clip-path="url(#pd5bc2af212)">
     <use style="fill:#0b559f;fill-opacity:0.8;stroke:#0b559f;stroke-opacity:0.8;" x="352.551458" xlink:href="#mb20a32fa83" y="52.785449"/>
     <use style="fill:#0b559f;fill-opacity:0.8;stroke:#0b559f;stroke-opacity:0.8;" x="266.102058" xlink:href="#mb20a32fa83" y="128.110789"/>
     <use style="fill:#0b559f;fill-opacity:0.8;stroke:#0b559f;stroke-opacity:0.8;" x="208.469125" xlink:href="#mb20a32fa83" y="82.061695"/>
     <use style="fill:#0b559f;fill-opacity:0.8;stroke:#0b559f;stroke-opacity:0.8;" x="244.489708" xlink:href="#mb20a32fa83" y="102.799035"/>
     <use style="fill:#0b559f;fill-opacity:0.8;stroke:#0b559f;stroke-opacity:0.8;" x="366.959691" xlink:href="#mb20a32fa83" y="59.494589"/>
    </g>
   </g>
   <g id="PathCollection_13">
    <defs>
     <path d="M 0 3 
C 0.795609 3 1.55874 2.683901 2.12132 2.12132 
C 2.683901 1.55874 3 0.795609 3 0 
C 3 -0.795609 2.683901 -1.55874 2.12132 -2.12132 
C 1.55874 -2.683901 0.795609 -3 0 -3 
C -0.795609 -3 -1.55874 -2.683901 -2.12132 -2.12132 
C -2.683901 -1.55874 -3 -0.795609 -3 0 
C -3 0.795609 -2.683901 1.55874 -2.12132 2.12132 
C -1.55874 2.683901 -0.795609 3 0 3 
z
" id="m7a9ae4fa07" style="stroke:#084387;stroke-opacity:0.8;"/>
    </defs>
    <g clip-path="url(#pd5bc2af212)">
     <use style="fill:#084387;fill-opacity:0.8;stroke:#084387;stroke-opacity:0.8;" x="237.285592" xlink:href="#m7a9ae4fa07" y="139.089381"/>
    </g>
   </g>
   <g id="matplotlib.axis_1">
    <g id="xtick_1">
     <g id="line2d_1">
      <defs>
       <path d="M 0 0 
L 0 3.5 
" id="m8332c7461e" style="stroke:#000000;stroke-width:0.8;"/>
      </defs>
      <g>
       <use style="stroke:#000000;stroke-width:0.8;" x="57.182676" xlink:href="#m8332c7461e" y="292.027194"/>
      </g>
     </g>
     <g id="text_1">
      <!-- 0 -->
      <g transform="translate(54.001426 306.625632)scale(0.1 -0.1)">
       <defs>
        <path d="M 31.78125 66.40625 
Q 24.171875 66.40625 20.328125 58.90625 
Q 16.5 51.421875 16.5 36.375 
Q 16.5 21.390625 20.328125 13.890625 
Q 24.171875 6.390625 31.78125 6.390625 
Q 39.453125 6.390625 43.28125 13.890625 
Q 47.125 21.390625 47.125 36.375 
Q 47.125 51.421875 43.28125 58.90625 
Q 39.453125 66.40625 31.78125 66.40625 
z
M 31.78125 74.21875 
Q 44.046875 74.21875 50.515625 64.515625 
Q 56.984375 54.828125 56.984375 36.375 
Q 56.984375 17.96875 50.515625 8.265625 
Q 44.046875 -1.421875 31.78125 -1.421875 
Q 19.53125 -1.421875 13.0625 8.265625 
Q 6.59375 17.96875 6.59375 36.375 
Q 6.59375 54.828125 13.0625 64.515625 
Q 19.53125 74.21875 31.78125 74.21875 
z
" id="DejaVuSans-48"/>
       </defs>
       <use xlink:href="#DejaVuSans-48"/>
      </g>
     </g>
    </g>
    <g id="xtick_2">
     <g id="line2d_2">
      <g>
       <use style="stroke:#000000;stroke-width:0.8;" x="129.223842" xlink:href="#m8332c7461e" y="292.027194"/>
      </g>
     </g>
     <g id="text_2">
      <!-- 1 -->
      <g transform="translate(126.042592 306.625632)scale(0.1 -0.1)">
       <defs>
        <path d="M 12.40625 8.296875 
L 28.515625 8.296875 
L 28.515625 63.921875 
L 10.984375 60.40625 
L 10.984375 69.390625 
L 28.421875 72.90625 
L 38.28125 72.90625 
L 38.28125 8.296875 
L 54.390625 8.296875 
L 54.390625 0 
L 12.40625 0 
z
" id="DejaVuSans-49"/>
       </defs>
       <use xlink:href="#DejaVuSans-49"/>
      </g>
     </g>
    </g>
    <g id="xtick_3">
     <g id="line2d_3">
      <g>
       <use style="stroke:#000000;stroke-width:0.8;" x="201.265009" xlink:href="#m8332c7461e" y="292.027194"/>
      </g>
     </g>
     <g id="text_3">
      <!-- 2 -->
      <g transform="translate(198.083759 306.625632)scale(0.1 -0.1)">
       <defs>
        <path d="M 19.1875 8.296875 
L 53.609375 8.296875 
L 53.609375 0 
L 7.328125 0 
L 7.328125 8.296875 
Q 12.9375 14.109375 22.625 23.890625 
Q 32.328125 33.6875 34.8125 36.53125 
Q 39.546875 41.84375 41.421875 45.53125 
Q 43.3125 49.21875 43.3125 52.78125 
Q 43.3125 58.59375 39.234375 62.25 
Q 35.15625 65.921875 28.609375 65.921875 
Q 23.96875 65.921875 18.8125 64.3125 
Q 13.671875 62.703125 7.8125 59.421875 
L 7.8125 69.390625 
Q 13.765625 71.78125 18.9375 73 
Q 24.125 74.21875 28.421875 74.21875 
Q 39.75 74.21875 46.484375 68.546875 
Q 53.21875 62.890625 53.21875 53.421875 
Q 53.21875 48.921875 51.53125 44.890625 
Q 49.859375 40.875 45.40625 35.40625 
Q 44.1875 33.984375 37.640625 27.21875 
Q 31.109375 20.453125 19.1875 8.296875 
z
" id="DejaVuSans-50"/>
       </defs>
       <use xlink:href="#DejaVuSans-50"/>
      </g>
     </g>
    </g>
    <g id="xtick_4">
     <g id="line2d_4">
      <g>
       <use style="stroke:#000000;stroke-width:0.8;" x="273.306175" xlink:href="#m8332c7461e" y="292.027194"/>
      </g>
     </g>
     <g id="text_4">
      <!-- 3 -->
      <g transform="translate(270.124925 306.625632)scale(0.1 -0.1)">
       <defs>
        <path d="M 40.578125 39.3125 
Q 47.65625 37.796875 51.625 33 
Q 55.609375 28.21875 55.609375 21.1875 
Q 55.609375 10.40625 48.1875 4.484375 
Q 40.765625 -1.421875 27.09375 -1.421875 
Q 22.515625 -1.421875 17.65625 -0.515625 
Q 12.796875 0.390625 7.625 2.203125 
L 7.625 11.71875 
Q 11.71875 9.328125 16.59375 8.109375 
Q 21.484375 6.890625 26.8125 6.890625 
Q 36.078125 6.890625 40.9375 10.546875 
Q 45.796875 14.203125 45.796875 21.1875 
Q 45.796875 27.640625 41.28125 31.265625 
Q 36.765625 34.90625 28.71875 34.90625 
L 20.21875 34.90625 
L 20.21875 43.015625 
L 29.109375 43.015625 
Q 36.375 43.015625 40.234375 45.921875 
Q 44.09375 48.828125 44.09375 54.296875 
Q 44.09375 59.90625 40.109375 62.90625 
Q 36.140625 65.921875 28.71875 65.921875 
Q 24.65625 65.921875 20.015625 65.03125 
Q 15.375 64.15625 9.8125 62.3125 
L 9.8125 71.09375 
Q 15.4375 72.65625 20.34375 73.4375 
Q 25.25 74.21875 29.59375 74.21875 
Q 40.828125 74.21875 47.359375 69.109375 
Q 53.90625 64.015625 53.90625 55.328125 
Q 53.90625 49.265625 50.4375 45.09375 
Q 46.96875 40.921875 40.578125 39.3125 
z
" id="DejaVuSans-51"/>
       </defs>
       <use xlink:href="#DejaVuSans-51"/>
      </g>
     </g>
    </g>
    <g id="xtick_5">
     <g id="line2d_5">
      <g>
       <use style="stroke:#000000;stroke-width:0.8;" x="345.347341" xlink:href="#m8332c7461e" y="292.027194"/>
      </g>
     </g>
     <g id="text_5">
      <!-- 4 -->
      <g transform="translate(342.166091 306.625632)scale(0.1 -0.1)">
       <defs>
        <path d="M 37.796875 64.3125 
L 12.890625 25.390625 
L 37.796875 25.390625 
z
M 35.203125 72.90625 
L 47.609375 72.90625 
L 47.609375 25.390625 
L 58.015625 25.390625 
L 58.015625 17.1875 
L 47.609375 17.1875 
L 47.609375 0 
L 37.796875 0 
L 37.796875 17.1875 
L 4.890625 17.1875 
L 4.890625 26.703125 
z
" id="DejaVuSans-52"/>
       </defs>
       <use xlink:href="#DejaVuSans-52"/>
      </g>
     </g>
    </g>
    <g id="xtick_6">
     <g id="line2d_6">
      <g>
       <use style="stroke:#000000;stroke-width:0.8;" x="417.388508" xlink:href="#m8332c7461e" y="292.027194"/>
      </g>
     </g>
     <g id="text_6">
      <!-- 5 -->
      <g transform="translate(414.207258 306.625632)scale(0.1 -0.1)">
       <defs>
        <path d="M 10.796875 72.90625 
L 49.515625 72.90625 
L 49.515625 64.59375 
L 19.828125 64.59375 
L 19.828125 46.734375 
Q 21.96875 47.46875 24.109375 47.828125 
Q 26.265625 48.1875 28.421875 48.1875 
Q 40.625 48.1875 47.75 41.5 
Q 54.890625 34.8125 54.890625 23.390625 
Q 54.890625 11.625 47.5625 5.09375 
Q 40.234375 -1.421875 26.90625 -1.421875 
Q 22.3125 -1.421875 17.546875 -0.640625 
Q 12.796875 0.140625 7.71875 1.703125 
L 7.71875 11.625 
Q 12.109375 9.234375 16.796875 8.0625 
Q 21.484375 6.890625 26.703125 6.890625 
Q 35.15625 6.890625 40.078125 11.328125 
Q 45.015625 15.765625 45.015625 23.390625 
Q 45.015625 31 40.078125 35.4375 
Q 35.15625 39.890625 26.703125 39.890625 
Q 22.75 39.890625 18.8125 39.015625 
Q 14.890625 38.140625 10.796875 36.28125 
z
" id="DejaVuSans-53"/>
       </defs>
       <use xlink:href="#DejaVuSans-53"/>
      </g>
     </g>
    </g>
    <g id="text_7">
     <!-- hours_studied -->
     <g transform="translate(227.395312 320.303757)scale(0.1 -0.1)">
      <defs>
       <path d="M 54.890625 33.015625 
L 54.890625 0 
L 45.90625 0 
L 45.90625 32.71875 
Q 45.90625 40.484375 42.875 44.328125 
Q 39.84375 48.1875 33.796875 48.1875 
Q 26.515625 48.1875 22.3125 43.546875 
Q 18.109375 38.921875 18.109375 30.90625 
L 18.109375 0 
L 9.078125 0 
L 9.078125 75.984375 
L 18.109375 75.984375 
L 18.109375 46.1875 
Q 21.34375 51.125 25.703125 53.5625 
Q 30.078125 56 35.796875 56 
Q 45.21875 56 50.046875 50.171875 
Q 54.890625 44.34375 54.890625 33.015625 
z
" id="DejaVuSans-104"/>
       <path d="M 30.609375 48.390625 
Q 23.390625 48.390625 19.1875 42.75 
Q 14.984375 37.109375 14.984375 27.296875 
Q 14.984375 17.484375 19.15625 11.84375 
Q 23.34375 6.203125 30.609375 6.203125 
Q 37.796875 6.203125 41.984375 11.859375 
Q 46.1875 17.53125 46.1875 27.296875 
Q 46.1875 37.015625 41.984375 42.703125 
Q 37.796875 48.390625 30.609375 48.390625 
z
M 30.609375 56 
Q 42.328125 56 49.015625 48.375 
Q 55.71875 40.765625 55.71875 27.296875 
Q 55.71875 13.875 49.015625 6.21875 
Q 42.328125 -1.421875 30.609375 -1.421875 
Q 18.84375 -1.421875 12.171875 6.21875 
Q 5.515625 13.875 5.515625 27.296875 
Q 5.515625 40.765625 12.171875 48.375 
Q 18.84375 56 30.609375 56 
z
" id="DejaVuSans-111"/>
       <path d="M 8.5 21.578125 
L 8.5 54.6875 
L 17.484375 54.6875 
L 17.484375 21.921875 
Q 17.484375 14.15625 20.5 10.265625 
Q 23.53125 6.390625 29.59375 6.390625 
Q 36.859375 6.390625 41.078125 11.03125 
Q 45.3125 15.671875 45.3125 23.6875 
L 45.3125 54.6875 
L 54.296875 54.6875 
L 54.296875 0 
L 45.3125 0 
L 45.3125 8.40625 
Q 42.046875 3.421875 37.71875 1 
Q 33.40625 -1.421875 27.6875 -1.421875 
Q 18.265625 -1.421875 13.375 4.4375 
Q 8.5 10.296875 8.5 21.578125 
z
M 31.109375 56 
z
" id="DejaVuSans-117"/>
       <path d="M 41.109375 46.296875 
Q 39.59375 47.171875 37.8125 47.578125 
Q 36.03125 48 33.890625 48 
Q 26.265625 48 22.1875 43.046875 
Q 18.109375 38.09375 18.109375 28.8125 
L 18.109375 0 
L 9.078125 0 
L 9.078125 54.6875 
L 18.109375 54.6875 
L 18.109375 46.1875 
Q 20.953125 51.171875 25.484375 53.578125 
Q 30.03125 56 36.53125 56 
Q 37.453125 56 38.578125 55.875 
Q 39.703125 55.765625 41.0625 55.515625 
z
" id="DejaVuSans-114"/>
       <path d="M 44.28125 53.078125 
L 44.28125 44.578125 
Q 40.484375 46.53125 36.375 47.5 
Q 32.28125 48.484375 27.875 48.484375 
Q 21.1875 48.484375 17.84375 46.4375 
Q 14.5 44.390625 14.5 40.28125 
Q 14.5 37.15625 16.890625 35.375 
Q 19.28125 33.59375 26.515625 31.984375 
L 29.59375 31.296875 
Q 39.15625 29.25 43.1875 25.515625 
Q 47.21875 21.78125 47.21875 15.09375 
Q 47.21875 7.46875 41.1875 3.015625 
Q 35.15625 -1.421875 24.609375 -1.421875 
Q 20.21875 -1.421875 15.453125 -0.5625 
Q 10.6875 0.296875 5.421875 2 
L 5.421875 11.28125 
Q 10.40625 8.6875 15.234375 7.390625 
Q 20.0625 6.109375 24.8125 6.109375 
Q 31.15625 6.109375 34.5625 8.28125 
Q 37.984375 10.453125 37.984375 14.40625 
Q 37.984375 18.0625 35.515625 20.015625 
Q 33.0625 21.96875 24.703125 23.78125 
L 21.578125 24.515625 
Q 13.234375 26.265625 9.515625 29.90625 
Q 5.8125 33.546875 5.8125 39.890625 
Q 5.8125 47.609375 11.28125 51.796875 
Q 16.75 56 26.8125 56 
Q 31.78125 56 36.171875 55.265625 
Q 40.578125 54.546875 44.28125 53.078125 
z
" id="DejaVuSans-115"/>
       <path d="M 50.984375 -16.609375 
L 50.984375 -23.578125 
L -0.984375 -23.578125 
L -0.984375 -16.609375 
z
" id="DejaVuSans-95"/>
       <path d="M 18.3125 70.21875 
L 18.3125 54.6875 
L 36.8125 54.6875 
L 36.8125 47.703125 
L 18.3125 47.703125 
L 18.3125 18.015625 
Q 18.3125 11.328125 20.140625 9.421875 
Q 21.96875 7.515625 27.59375 7.515625 
L 36.8125 7.515625 
L 36.8125 0 
L 27.59375 0 
Q 17.1875 0 13.234375 3.875 
Q 9.28125 7.765625 9.28125 18.015625 
L 9.28125 47.703125 
L 2.6875 47.703125 
L 2.6875 54.6875 
L 9.28125 54.6875 
L 9.28125 70.21875 
z
" id="DejaVuSans-116"/>
       <path d="M 45.40625 46.390625 
L 45.40625 75.984375 
L 54.390625 75.984375 
L 54.390625 0 
L 45.40625 0 
L 45.40625 8.203125 
Q 42.578125 3.328125 38.25 0.953125 
Q 33.9375 -1.421875 27.875 -1.421875 
Q 17.96875 -1.421875 11.734375 6.484375 
Q 5.515625 14.40625 5.515625 27.296875 
Q 5.515625 40.1875 11.734375 48.09375 
Q 17.96875 56 27.875 56 
Q 33.9375 56 38.25 53.625 
Q 42.578125 51.265625 45.40625 46.390625 
z
M 14.796875 27.296875 
Q 14.796875 17.390625 18.875 11.75 
Q 22.953125 6.109375 30.078125 6.109375 
Q 37.203125 6.109375 41.296875 11.75 
Q 45.40625 17.390625 45.40625 27.296875 
Q 45.40625 37.203125 41.296875 42.84375 
Q 37.203125 48.484375 30.078125 48.484375 
Q 22.953125 48.484375 18.875 42.84375 
Q 14.796875 37.203125 14.796875 27.296875 
z
" id="DejaVuSans-100"/>
       <path d="M 9.421875 54.6875 
L 18.40625 54.6875 
L 18.40625 0 
L 9.421875 0 
z
M 9.421875 75.984375 
L 18.40625 75.984375 
L 18.40625 64.59375 
L 9.421875 64.59375 
z
" id="DejaVuSans-105"/>
       <path d="M 56.203125 29.59375 
L 56.203125 25.203125 
L 14.890625 25.203125 
Q 15.484375 15.921875 20.484375 11.0625 
Q 25.484375 6.203125 34.421875 6.203125 
Q 39.59375 6.203125 44.453125 7.46875 
Q 49.3125 8.734375 54.109375 11.28125 
L 54.109375 2.78125 
Q 49.265625 0.734375 44.1875 -0.34375 
Q 39.109375 -1.421875 33.890625 -1.421875 
Q 20.796875 -1.421875 13.15625 6.1875 
Q 5.515625 13.8125 5.515625 26.8125 
Q 5.515625 40.234375 12.765625 48.109375 
Q 20.015625 56 32.328125 56 
Q 43.359375 56 49.78125 48.890625 
Q 56.203125 41.796875 56.203125 29.59375 
z
M 47.21875 32.234375 
Q 47.125 39.59375 43.09375 43.984375 
Q 39.0625 48.390625 32.421875 48.390625 
Q 24.90625 48.390625 20.390625 44.140625 
Q 15.875 39.890625 15.1875 32.171875 
z
" id="DejaVuSans-101"/>
      </defs>
      <use xlink:href="#DejaVuSans-104"/>
      <use x="63.378906" xlink:href="#DejaVuSans-111"/>
      <use x="124.560547" xlink:href="#DejaVuSans-117"/>
      <use x="187.939453" xlink:href="#DejaVuSans-114"/>
      <use x="229.052734" xlink:href="#DejaVuSans-115"/>
      <use x="281.152344" xlink:href="#DejaVuSans-95"/>
      <use x="331.152344" xlink:href="#DejaVuSans-115"/>
      <use x="383.251953" xlink:href="#DejaVuSans-116"/>
      <use x="422.460938" xlink:href="#DejaVuSans-117"/>
      <use x="485.839844" xlink:href="#DejaVuSans-100"/>
      <use x="549.316406" xlink:href="#DejaVuSans-105"/>
      <use x="577.099609" xlink:href="#DejaVuSans-101"/>
      <use x="638.623047" xlink:href="#DejaVuSans-100"/>
     </g>
    </g>
   </g>
   <g id="matplotlib.axis_2">
    <g id="ytick_1">
     <g id="line2d_7">
      <defs>
       <path d="M 0 0 
L -3.5 0 
" id="m3d6d4a61a3" style="stroke:#000000;stroke-width:0.8;"/>
      </defs>
      <g>
       <use style="stroke:#000000;stroke-width:0.8;" x="52.5" xlink:href="#m3d6d4a61a3" y="288.215256"/>
      </g>
     </g>
     <g id="text_8">
      <!-- 20 -->
      <g transform="translate(32.775 292.014474)scale(0.1 -0.1)">
       <use xlink:href="#DejaVuSans-50"/>
       <use x="63.623047" xlink:href="#DejaVuSans-48"/>
      </g>
     </g>
    </g>
    <g id="ytick_2">
     <g id="line2d_8">
      <g>
       <use style="stroke:#000000;stroke-width:0.8;" x="52.5" xlink:href="#m3d6d4a61a3" y="257.719167"/>
      </g>
     </g>
     <g id="text_9">
      <!-- 30 -->
      <g transform="translate(32.775 261.518386)scale(0.1 -0.1)">
       <use xlink:href="#DejaVuSans-51"/>
       <use x="63.623047" xlink:href="#DejaVuSans-48"/>
      </g>
     </g>
    </g>
    <g id="ytick_3">
     <g id="line2d_9">
      <g>
       <use style="stroke:#000000;stroke-width:0.8;" x="52.5" xlink:href="#m3d6d4a61a3" y="227.223078"/>
      </g>
     </g>
     <g id="text_10">
      <!-- 40 -->
      <g transform="translate(32.775 231.022297)scale(0.1 -0.1)">
       <use xlink:href="#DejaVuSans-52"/>
       <use x="63.623047" xlink:href="#DejaVuSans-48"/>
      </g>
     </g>
    </g>
    <g id="ytick_4">
     <g id="line2d_10">
      <g>
       <use style="stroke:#000000;stroke-width:0.8;" x="52.5" xlink:href="#m3d6d4a61a3" y="196.726989"/>
      </g>
     </g>
     <g id="text_11">
      <!-- 50 -->
      <g transform="translate(32.775 200.526208)scale(0.1 -0.1)">
       <use xlink:href="#DejaVuSans-53"/>
       <use x="63.623047" xlink:href="#DejaVuSans-48"/>
      </g>
     </g>
    </g>
    <g id="ytick_5">
     <g id="line2d_11">
      <g>
       <use style="stroke:#000000;stroke-width:0.8;" x="52.5" xlink:href="#m3d6d4a61a3" y="166.2309"/>
      </g>
     </g>
     <g id="text_12">
      <!-- 60 -->
      <g transform="translate(32.775 170.030119)scale(0.1 -0.1)">
       <defs>
        <path d="M 33.015625 40.375 
Q 26.375 40.375 22.484375 35.828125 
Q 18.609375 31.296875 18.609375 23.390625 
Q 18.609375 15.53125 22.484375 10.953125 
Q 26.375 6.390625 33.015625 6.390625 
Q 39.65625 6.390625 43.53125 10.953125 
Q 47.40625 15.53125 47.40625 23.390625 
Q 47.40625 31.296875 43.53125 35.828125 
Q 39.65625 40.375 33.015625 40.375 
z
M 52.59375 71.296875 
L 52.59375 62.3125 
Q 48.875 64.0625 45.09375 64.984375 
Q 41.3125 65.921875 37.59375 65.921875 
Q 27.828125 65.921875 22.671875 59.328125 
Q 17.53125 52.734375 16.796875 39.40625 
Q 19.671875 43.65625 24.015625 45.921875 
Q 28.375 48.1875 33.59375 48.1875 
Q 44.578125 48.1875 50.953125 41.515625 
Q 57.328125 34.859375 57.328125 23.390625 
Q 57.328125 12.15625 50.6875 5.359375 
Q 44.046875 -1.421875 33.015625 -1.421875 
Q 20.359375 -1.421875 13.671875 8.265625 
Q 6.984375 17.96875 6.984375 36.375 
Q 6.984375 53.65625 15.1875 63.9375 
Q 23.390625 74.21875 37.203125 74.21875 
Q 40.921875 74.21875 44.703125 73.484375 
Q 48.484375 72.75 52.59375 71.296875 
z
" id="DejaVuSans-54"/>
       </defs>
       <use xlink:href="#DejaVuSans-54"/>
       <use x="63.623047" xlink:href="#DejaVuSans-48"/>
      </g>
     </g>
    </g>
    <g id="ytick_6">
     <g id="line2d_12">
      <g>
       <use style="stroke:#000000;stroke-width:0.8;" x="52.5" xlink:href="#m3d6d4a61a3" y="135.734811"/>
      </g>
     </g>
     <g id="text_13">
      <!-- 70 -->
      <g transform="translate(32.775 139.53403)scale(0.1 -0.1)">
       <defs>
        <path d="M 8.203125 72.90625 
L 55.078125 72.90625 
L 55.078125 68.703125 
L 28.609375 0 
L 18.3125 0 
L 43.21875 64.59375 
L 8.203125 64.59375 
z
" id="DejaVuSans-55"/>
       </defs>
       <use xlink:href="#DejaVuSans-55"/>
       <use x="63.623047" xlink:href="#DejaVuSans-48"/>
      </g>
     </g>
    </g>
    <g id="ytick_7">
     <g id="line2d_13">
      <g>
       <use style="stroke:#000000;stroke-width:0.8;" x="52.5" xlink:href="#m3d6d4a61a3" y="105.238722"/>
      </g>
     </g>
     <g id="text_14">
      <!-- 80 -->
      <g transform="translate(32.775 109.037941)scale(0.1 -0.1)">
       <defs>
        <path d="M 31.78125 34.625 
Q 24.75 34.625 20.71875 30.859375 
Q 16.703125 27.09375 16.703125 20.515625 
Q 16.703125 13.921875 20.71875 10.15625 
Q 24.75 6.390625 31.78125 6.390625 
Q 38.8125 6.390625 42.859375 10.171875 
Q 46.921875 13.96875 46.921875 20.515625 
Q 46.921875 27.09375 42.890625 30.859375 
Q 38.875 34.625 31.78125 34.625 
z
M 21.921875 38.8125 
Q 15.578125 40.375 12.03125 44.71875 
Q 8.5 49.078125 8.5 55.328125 
Q 8.5 64.0625 14.71875 69.140625 
Q 20.953125 74.21875 31.78125 74.21875 
Q 42.671875 74.21875 48.875 69.140625 
Q 55.078125 64.0625 55.078125 55.328125 
Q 55.078125 49.078125 51.53125 44.71875 
Q 48 40.375 41.703125 38.8125 
Q 48.828125 37.15625 52.796875 32.3125 
Q 56.78125 27.484375 56.78125 20.515625 
Q 56.78125 9.90625 50.3125 4.234375 
Q 43.84375 -1.421875 31.78125 -1.421875 
Q 19.734375 -1.421875 13.25 4.234375 
Q 6.78125 9.90625 6.78125 20.515625 
Q 6.78125 27.484375 10.78125 32.3125 
Q 14.796875 37.15625 21.921875 38.8125 
z
M 18.3125 54.390625 
Q 18.3125 48.734375 21.84375 45.5625 
Q 25.390625 42.390625 31.78125 42.390625 
Q 38.140625 42.390625 41.71875 45.5625 
Q 45.3125 48.734375 45.3125 54.390625 
Q 45.3125 60.0625 41.71875 63.234375 
Q 38.140625 66.40625 31.78125 66.40625 
Q 25.390625 66.40625 21.84375 63.234375 
Q 18.3125 60.0625 18.3125 54.390625 
z
" id="DejaVuSans-56"/>
       </defs>
       <use xlink:href="#DejaVuSans-56"/>
       <use x="63.623047" xlink:href="#DejaVuSans-48"/>
      </g>
     </g>
    </g>
    <g id="ytick_8">
     <g id="line2d_14">
      <g>
       <use style="stroke:#000000;stroke-width:0.8;" x="52.5" xlink:href="#m3d6d4a61a3" y="74.742633"/>
      </g>
     </g>
     <g id="text_15">
      <!-- 90 -->
      <g transform="translate(32.775 78.541852)scale(0.1 -0.1)">
       <defs>
        <path d="M 10.984375 1.515625 
L 10.984375 10.5 
Q 14.703125 8.734375 18.5 7.8125 
Q 22.3125 6.890625 25.984375 6.890625 
Q 35.75 6.890625 40.890625 13.453125 
Q 46.046875 20.015625 46.78125 33.40625 
Q 43.953125 29.203125 39.59375 26.953125 
Q 35.25 24.703125 29.984375 24.703125 
Q 19.046875 24.703125 12.671875 31.3125 
Q 6.296875 37.9375 6.296875 49.421875 
Q 6.296875 60.640625 12.9375 67.421875 
Q 19.578125 74.21875 30.609375 74.21875 
Q 43.265625 74.21875 49.921875 64.515625 
Q 56.59375 54.828125 56.59375 36.375 
Q 56.59375 19.140625 48.40625 8.859375 
Q 40.234375 -1.421875 26.421875 -1.421875 
Q 22.703125 -1.421875 18.890625 -0.6875 
Q 15.09375 0.046875 10.984375 1.515625 
z
M 30.609375 32.421875 
Q 37.25 32.421875 41.125 36.953125 
Q 45.015625 41.5 45.015625 49.421875 
Q 45.015625 57.28125 41.125 61.84375 
Q 37.25 66.40625 30.609375 66.40625 
Q 23.96875 66.40625 20.09375 61.84375 
Q 16.21875 57.28125 16.21875 49.421875 
Q 16.21875 41.5 20.09375 36.953125 
Q 23.96875 32.421875 30.609375 32.421875 
z
" id="DejaVuSans-57"/>
       </defs>
       <use xlink:href="#DejaVuSans-57"/>
       <use x="63.623047" xlink:href="#DejaVuSans-48"/>
      </g>
     </g>
    </g>
    <g id="ytick_9">
     <g id="line2d_15">
      <g>
       <use style="stroke:#000000;stroke-width:0.8;" x="52.5" xlink:href="#m3d6d4a61a3" y="44.246545"/>
      </g>
     </g>
     <g id="text_16">
      <!-- 100 -->
      <g transform="translate(26.4125 48.045763)scale(0.1 -0.1)">
       <use xlink:href="#DejaVuSans-49"/>
       <use x="63.623047" xlink:href="#DejaVuSans-48"/>
       <use x="127.246094" xlink:href="#DejaVuSans-48"/>
      </g>
     </g>
    </g>
    <g id="text_17">
     <!-- score -->
     <g transform="translate(20.332812 175.670143)rotate(-90)scale(0.1 -0.1)">
      <defs>
       <path d="M 48.78125 52.59375 
L 48.78125 44.1875 
Q 44.96875 46.296875 41.140625 47.34375 
Q 37.3125 48.390625 33.40625 48.390625 
Q 24.65625 48.390625 19.8125 42.84375 
Q 14.984375 37.3125 14.984375 27.296875 
Q 14.984375 17.28125 19.8125 11.734375 
Q 24.65625 6.203125 33.40625 6.203125 
Q 37.3125 6.203125 41.140625 7.25 
Q 44.96875 8.296875 48.78125 10.40625 
L 48.78125 2.09375 
Q 45.015625 0.34375 40.984375 -0.53125 
Q 36.96875 -1.421875 32.421875 -1.421875 
Q 20.0625 -1.421875 12.78125 6.34375 
Q 5.515625 14.109375 5.515625 27.296875 
Q 5.515625 40.671875 12.859375 48.328125 
Q 20.21875 56 33.015625 56 
Q 37.15625 56 41.109375 55.140625 
Q 45.0625 54.296875 48.78125 52.59375 
z
" id="DejaVuSans-99"/>
      </defs>
      <use xlink:href="#DejaVuSans-115"/>
      <use x="52.099609" xlink:href="#DejaVuSans-99"/>
      <use x="107.080078" xlink:href="#DejaVuSans-111"/>
      <use x="168.261719" xlink:href="#DejaVuSans-114"/>
      <use x="207.125" xlink:href="#DejaVuSans-101"/>
     </g>
    </g>
   </g>
   <g id="line2d_16">
    <path clip-path="url(#pd5bc2af212)" d="M 251.693825 232.395869 
L 352.551458 205.609811 
L 237.285592 236.222449 
L 172.448542 253.442058 
L 158.040309 257.268637 
L 194.060892 247.702188 
L 143.632075 261.095217 
L 179.652659 251.528768 
L 230.081475 238.135739 
L 352.551458 205.609811 
L 215.673242 241.962318 
L 201.265009 245.788898 
L 244.489708 234.309159 
L 345.347341 207.523101 
L 122.019726 266.835087 
L 215.673242 241.962318 
L 172.448542 253.442058 
L 201.265009 245.788898 
L 230.081475 238.135739 
L 201.265009 245.788898 
L 158.040309 257.268637 
L 136.427959 263.008507 
L 222.877358 240.049029 
L 280.510292 224.74271 
L 294.918525 220.91613 
L 237.285592 236.222449 
L 266.102058 228.569289 
L 266.102058 228.569289 
L 172.448542 253.442058 
L 266.102058 228.569289 
L 165.244425 255.355347 
L 215.673242 241.962318 
L 93.203259 274.488246 
L 186.856775 249.615478 
L 338.143225 209.436391 
L 215.673242 241.962318 
L 208.469125 243.875608 
L 230.081475 238.135739 
L 266.102058 228.569289 
L 309.326758 217.08955 
L 294.918525 220.91613 
L 230.081475 238.135739 
L 244.489708 234.309159 
L 122.019726 266.835087 
L 208.469125 243.875608 
L 251.693825 232.395869 
L 258.897942 230.482579 
L 136.427959 263.008507 
L 251.693825 232.395869 
L 222.877358 240.049029 
L 244.489708 234.309159 
L 366.959691 201.783231 
L 316.530875 215.17626 
L 129.223842 264.921797 
L 244.489708 234.309159 
L 330.939108 211.349681 
L 309.326758 217.08955 
L 266.102058 228.569289 
L 366.959691 201.783231 
L 222.877358 240.049029 
L 309.326758 217.08955 
L 287.714408 222.82942 
L 172.448542 253.442058 
L 258.897942 230.482579 
L 71.590909 280.228116 
L 330.939108 211.349681 
L 266.102058 228.569289 
L 273.306175 226.656 
L 273.306175 226.656 
L 208.469125 243.875608 
L 143.632075 261.095217 
L 222.877358 240.049029 
L 287.714408 222.82942 
L 244.489708 234.309159 
L 302.122642 219.00284 
L 150.836192 259.181927 
L 258.897942 230.482579 
L 230.081475 238.135739 
L 316.530875 215.17626 
L 302.122642 219.00284 
L 215.673242 241.962318 
L 237.285592 236.222449 
L 302.122642 219.00284 
L 186.856775 249.615478 
L 179.652659 251.528768 
L 158.040309 257.268637 
L 237.285592 236.222449 
L 201.265009 245.788898 
L 179.652659 251.528768 
L 194.060892 247.702188 
L 294.918525 220.91613 
L 150.836192 259.181927 
L 287.714408 222.82942 
L 237.285592 236.222449 
L 453.409091 178.823753 
L 230.081475 238.135739 
L 330.939108 211.349681 
L 237.285592 236.222449 
L 107.611492 270.661666 
L 201.265009 245.788898 
" style="fill:none;stroke:#add8e6;stroke-linecap:square;stroke-width:5;"/>
   </g>
   <g id="line2d_17">
    <path clip-path="url(#pd5bc2af212)" d="M 251.693825 175.212096 
L 352.551458 148.426038 
L 237.285592 179.038676 
L 172.448542 196.258285 
L 158.040309 200.084865 
L 194.060892 190.518415 
L 143.632075 203.911444 
L 179.652659 194.344995 
L 230.081475 180.951966 
L 352.551458 148.426038 
L 215.673242 184.778546 
L 201.265009 188.605125 
L 244.489708 177.125386 
L 345.347341 150.339328 
L 122.019726 209.651314 
L 215.673242 184.778546 
L 172.448542 196.258285 
L 201.265009 188.605125 
L 230.081475 180.951966 
L 201.265009 188.605125 
L 158.040309 200.084865 
L 136.427959 205.824734 
L 222.877358 182.865256 
L 280.510292 167.558937 
L 294.918525 163.732357 
L 237.285592 179.038676 
L 266.102058 171.385517 
L 266.102058 171.385517 
L 172.448542 196.258285 
L 266.102058 171.385517 
L 165.244425 198.171575 
L 215.673242 184.778546 
L 93.203259 217.304473 
L 186.856775 192.431705 
L 338.143225 152.252618 
L 215.673242 184.778546 
L 208.469125 186.691836 
L 230.081475 180.951966 
L 266.102058 171.385517 
L 309.326758 159.905778 
L 294.918525 163.732357 
L 230.081475 180.951966 
L 244.489708 177.125386 
L 122.019726 209.651314 
L 208.469125 186.691836 
L 251.693825 175.212096 
L 258.897942 173.298807 
L 136.427959 205.824734 
L 251.693825 175.212096 
L 222.877358 182.865256 
L 244.489708 177.125386 
L 366.959691 144.599459 
L 316.530875 157.992488 
L 129.223842 207.738024 
L 244.489708 177.125386 
L 330.939108 154.165908 
L 309.326758 159.905778 
L 266.102058 171.385517 
L 366.959691 144.599459 
L 222.877358 182.865256 
L 309.326758 159.905778 
L 287.714408 165.645647 
L 172.448542 196.258285 
L 258.897942 173.298807 
L 71.590909 223.044343 
L 330.939108 154.165908 
L 266.102058 171.385517 
L 273.306175 169.472227 
L 273.306175 169.472227 
L 208.469125 186.691836 
L 143.632075 203.911444 
L 222.877358 182.865256 
L 287.714408 165.645647 
L 244.489708 177.125386 
L 302.122642 161.819067 
L 150.836192 201.998154 
L 258.897942 173.298807 
L 230.081475 180.951966 
L 316.530875 157.992488 
L 302.122642 161.819067 
L 215.673242 184.778546 
L 237.285592 179.038676 
L 302.122642 161.819067 
L 186.856775 192.431705 
L 179.652659 194.344995 
L 158.040309 200.084865 
L 237.285592 179.038676 
L 201.265009 188.605125 
L 179.652659 194.344995 
L 194.060892 190.518415 
L 294.918525 163.732357 
L 150.836192 201.998154 
L 287.714408 165.645647 
L 237.285592 179.038676 
L 453.409091 121.639981 
L 230.081475 180.951966 
L 330.939108 154.165908 
L 237.285592 179.038676 
L 107.611492 213.477894 
L 201.265009 188.605125 
" style="fill:none;stroke:#0000ff;stroke-linecap:square;stroke-width:5;"/>
   </g>
   <g id="line2d_18">
    <path clip-path="url(#pd5bc2af212)" d="M 251.693825 103.73238 
L 352.551458 76.946323 
L 237.285592 107.55896 
L 172.448542 124.778569 
L 158.040309 128.605149 
L 194.060892 119.038699 
L 143.632075 132.431728 
L 179.652659 122.865279 
L 230.081475 109.47225 
L 352.551458 76.946323 
L 215.673242 113.29883 
L 201.265009 117.125409 
L 244.489708 105.64567 
L 345.347341 78.859612 
L 122.019726 138.171598 
L 215.673242 113.29883 
L 172.448542 124.778569 
L 201.265009 117.125409 
L 230.081475 109.47225 
L 201.265009 117.125409 
L 158.040309 128.605149 
L 136.427959 134.345018 
L 222.877358 111.38554 
L 280.510292 96.079221 
L 294.918525 92.252641 
L 237.285592 107.55896 
L 266.102058 99.905801 
L 266.102058 99.905801 
L 172.448542 124.778569 
L 266.102058 99.905801 
L 165.244425 126.691859 
L 215.673242 113.29883 
L 93.203259 145.824757 
L 186.856775 120.951989 
L 338.143225 80.772902 
L 215.673242 113.29883 
L 208.469125 115.21212 
L 230.081475 109.47225 
L 266.102058 99.905801 
L 309.326758 88.426062 
L 294.918525 92.252641 
L 230.081475 109.47225 
L 244.489708 105.64567 
L 122.019726 138.171598 
L 208.469125 115.21212 
L 251.693825 103.73238 
L 258.897942 101.819091 
L 136.427959 134.345018 
L 251.693825 103.73238 
L 222.877358 111.38554 
L 244.489708 105.64567 
L 366.959691 73.119743 
L 316.530875 86.512772 
L 129.223842 136.258308 
L 244.489708 105.64567 
L 330.939108 82.686192 
L 309.326758 88.426062 
L 266.102058 99.905801 
L 366.959691 73.119743 
L 222.877358 111.38554 
L 309.326758 88.426062 
L 287.714408 94.165931 
L 172.448542 124.778569 
L 258.897942 101.819091 
L 71.590909 151.564627 
L 330.939108 82.686192 
L 266.102058 99.905801 
L 273.306175 97.992511 
L 273.306175 97.992511 
L 208.469125 115.21212 
L 143.632075 132.431728 
L 222.877358 111.38554 
L 287.714408 94.165931 
L 244.489708 105.64567 
L 302.122642 90.339352 
L 150.836192 130.518438 
L 258.897942 101.819091 
L 230.081475 109.47225 
L 316.530875 86.512772 
L 302.122642 90.339352 
L 215.673242 113.29883 
L 237.285592 107.55896 
L 302.122642 90.339352 
L 186.856775 120.951989 
L 179.652659 122.865279 
L 158.040309 128.605149 
L 237.285592 107.55896 
L 201.265009 117.125409 
L 179.652659 122.865279 
L 194.060892 119.038699 
L 294.918525 92.252641 
L 150.836192 130.518438 
L 287.714408 94.165931 
L 237.285592 107.55896 
L 453.409091 50.160265 
L 230.081475 109.47225 
L 330.939108 82.686192 
L 237.285592 107.55896 
L 107.611492 141.998178 
L 201.265009 117.125409 
" style="fill:none;stroke:#00008b;stroke-linecap:square;stroke-width:5;"/>
   </g>
   <g id="patch_3">
    <path d="M 52.5 292.027194 
L 52.5 32.447466 
" style="fill:none;stroke:#000000;stroke-linecap:square;stroke-linejoin:miter;stroke-width:0.8;"/>
   </g>
   <g id="patch_4">
    <path d="M 52.5 292.027194 
L 472.5 292.027194 
" style="fill:none;stroke:#000000;stroke-linecap:square;stroke-linejoin:miter;stroke-width:0.8;"/>
   </g>
   <g id="legend_1">
    <g id="patch_5">
     <path d="M 59.5 84.481841 
L 175.976562 84.481841 
Q 177.976562 84.481841 177.976562 82.481841 
L 177.976562 39.447466 
Q 177.976562 37.447466 175.976562 37.447466 
L 59.5 37.447466 
Q 57.5 37.447466 57.5 39.447466 
L 57.5 82.481841 
Q 57.5 84.481841 59.5 84.481841 
z
" style="fill:#ffffff;opacity:0.8;stroke:#cccccc;stroke-linejoin:miter;"/>
    </g>
    <g id="line2d_19">
     <path d="M 61.5 45.545904 
L 81.5 45.545904 
" style="fill:none;stroke:#add8e6;stroke-linecap:square;stroke-width:5;"/>
    </g>
    <g id="line2d_20"/>
    <g id="text_18">
     <!-- assignments=1 -->
     <g transform="translate(89.5 49.045904)scale(0.1 -0.1)">
      <defs>
       <path d="M 34.28125 27.484375 
Q 23.390625 27.484375 19.1875 25 
Q 14.984375 22.515625 14.984375 16.5 
Q 14.984375 11.71875 18.140625 8.90625 
Q 21.296875 6.109375 26.703125 6.109375 
Q 34.1875 6.109375 38.703125 11.40625 
Q 43.21875 16.703125 43.21875 25.484375 
L 43.21875 27.484375 
z
M 52.203125 31.203125 
L 52.203125 0 
L 43.21875 0 
L 43.21875 8.296875 
Q 40.140625 3.328125 35.546875 0.953125 
Q 30.953125 -1.421875 24.3125 -1.421875 
Q 15.921875 -1.421875 10.953125 3.296875 
Q 6 8.015625 6 15.921875 
Q 6 25.140625 12.171875 29.828125 
Q 18.359375 34.515625 30.609375 34.515625 
L 43.21875 34.515625 
L 43.21875 35.40625 
Q 43.21875 41.609375 39.140625 45 
Q 35.0625 48.390625 27.6875 48.390625 
Q 23 48.390625 18.546875 47.265625 
Q 14.109375 46.140625 10.015625 43.890625 
L 10.015625 52.203125 
Q 14.9375 54.109375 19.578125 55.046875 
Q 24.21875 56 28.609375 56 
Q 40.484375 56 46.34375 49.84375 
Q 52.203125 43.703125 52.203125 31.203125 
z
" id="DejaVuSans-97"/>
       <path d="M 45.40625 27.984375 
Q 45.40625 37.75 41.375 43.109375 
Q 37.359375 48.484375 30.078125 48.484375 
Q 22.859375 48.484375 18.828125 43.109375 
Q 14.796875 37.75 14.796875 27.984375 
Q 14.796875 18.265625 18.828125 12.890625 
Q 22.859375 7.515625 30.078125 7.515625 
Q 37.359375 7.515625 41.375 12.890625 
Q 45.40625 18.265625 45.40625 27.984375 
z
M 54.390625 6.78125 
Q 54.390625 -7.171875 48.1875 -13.984375 
Q 42 -20.796875 29.203125 -20.796875 
Q 24.46875 -20.796875 20.265625 -20.09375 
Q 16.0625 -19.390625 12.109375 -17.921875 
L 12.109375 -9.1875 
Q 16.0625 -11.328125 19.921875 -12.34375 
Q 23.78125 -13.375 27.78125 -13.375 
Q 36.625 -13.375 41.015625 -8.765625 
Q 45.40625 -4.15625 45.40625 5.171875 
L 45.40625 9.625 
Q 42.625 4.78125 38.28125 2.390625 
Q 33.9375 0 27.875 0 
Q 17.828125 0 11.671875 7.65625 
Q 5.515625 15.328125 5.515625 27.984375 
Q 5.515625 40.671875 11.671875 48.328125 
Q 17.828125 56 27.875 56 
Q 33.9375 56 38.28125 53.609375 
Q 42.625 51.21875 45.40625 46.390625 
L 45.40625 54.6875 
L 54.390625 54.6875 
z
" id="DejaVuSans-103"/>
       <path d="M 54.890625 33.015625 
L 54.890625 0 
L 45.90625 0 
L 45.90625 32.71875 
Q 45.90625 40.484375 42.875 44.328125 
Q 39.84375 48.1875 33.796875 48.1875 
Q 26.515625 48.1875 22.3125 43.546875 
Q 18.109375 38.921875 18.109375 30.90625 
L 18.109375 0 
L 9.078125 0 
L 9.078125 54.6875 
L 18.109375 54.6875 
L 18.109375 46.1875 
Q 21.34375 51.125 25.703125 53.5625 
Q 30.078125 56 35.796875 56 
Q 45.21875 56 50.046875 50.171875 
Q 54.890625 44.34375 54.890625 33.015625 
z
" id="DejaVuSans-110"/>
       <path d="M 52 44.1875 
Q 55.375 50.25 60.0625 53.125 
Q 64.75 56 71.09375 56 
Q 79.640625 56 84.28125 50.015625 
Q 88.921875 44.046875 88.921875 33.015625 
L 88.921875 0 
L 79.890625 0 
L 79.890625 32.71875 
Q 79.890625 40.578125 77.09375 44.375 
Q 74.3125 48.1875 68.609375 48.1875 
Q 61.625 48.1875 57.5625 43.546875 
Q 53.515625 38.921875 53.515625 30.90625 
L 53.515625 0 
L 44.484375 0 
L 44.484375 32.71875 
Q 44.484375 40.625 41.703125 44.40625 
Q 38.921875 48.1875 33.109375 48.1875 
Q 26.21875 48.1875 22.15625 43.53125 
Q 18.109375 38.875 18.109375 30.90625 
L 18.109375 0 
L 9.078125 0 
L 9.078125 54.6875 
L 18.109375 54.6875 
L 18.109375 46.1875 
Q 21.1875 51.21875 25.484375 53.609375 
Q 29.78125 56 35.6875 56 
Q 41.65625 56 45.828125 52.96875 
Q 50 49.953125 52 44.1875 
z
" id="DejaVuSans-109"/>
       <path d="M 10.59375 45.40625 
L 73.1875 45.40625 
L 73.1875 37.203125 
L 10.59375 37.203125 
z
M 10.59375 25.484375 
L 73.1875 25.484375 
L 73.1875 17.1875 
L 10.59375 17.1875 
z
" id="DejaVuSans-61"/>
      </defs>
      <use xlink:href="#DejaVuSans-97"/>
      <use x="61.279297" xlink:href="#DejaVuSans-115"/>
      <use x="113.378906" xlink:href="#DejaVuSans-115"/>
      <use x="165.478516" xlink:href="#DejaVuSans-105"/>
      <use x="193.261719" xlink:href="#DejaVuSans-103"/>
      <use x="256.738281" xlink:href="#DejaVuSans-110"/>
      <use x="320.117188" xlink:href="#DejaVuSans-109"/>
      <use x="417.529297" xlink:href="#DejaVuSans-101"/>
      <use x="479.052734" xlink:href="#DejaVuSans-110"/>
      <use x="542.431641" xlink:href="#DejaVuSans-116"/>
      <use x="581.640625" xlink:href="#DejaVuSans-115"/>
      <use x="633.740234" xlink:href="#DejaVuSans-61"/>
      <use x="717.529297" xlink:href="#DejaVuSans-49"/>
     </g>
    </g>
    <g id="line2d_21">
     <path d="M 61.5 60.224029 
L 81.5 60.224029 
" style="fill:none;stroke:#0000ff;stroke-linecap:square;stroke-width:5;"/>
    </g>
    <g id="line2d_22"/>
    <g id="text_19">
     <!-- assignments=5 -->
     <g transform="translate(89.5 63.724029)scale(0.1 -0.1)">
      <use xlink:href="#DejaVuSans-97"/>
      <use x="61.279297" xlink:href="#DejaVuSans-115"/>
      <use x="113.378906" xlink:href="#DejaVuSans-115"/>
      <use x="165.478516" xlink:href="#DejaVuSans-105"/>
      <use x="193.261719" xlink:href="#DejaVuSans-103"/>
      <use x="256.738281" xlink:href="#DejaVuSans-110"/>
      <use x="320.117188" xlink:href="#DejaVuSans-109"/>
      <use x="417.529297" xlink:href="#DejaVuSans-101"/>
      <use x="479.052734" xlink:href="#DejaVuSans-110"/>
      <use x="542.431641" xlink:href="#DejaVuSans-116"/>
      <use x="581.640625" xlink:href="#DejaVuSans-115"/>
      <use x="633.740234" xlink:href="#DejaVuSans-61"/>
      <use x="717.529297" xlink:href="#DejaVuSans-53"/>
     </g>
    </g>
    <g id="line2d_23">
     <path d="M 61.5 74.902154 
L 81.5 74.902154 
" style="fill:none;stroke:#00008b;stroke-linecap:square;stroke-width:5;"/>
    </g>
    <g id="line2d_24"/>
    <g id="text_20">
     <!-- assignments=10 -->
     <g transform="translate(89.5 78.402154)scale(0.1 -0.1)">
      <use xlink:href="#DejaVuSans-97"/>
      <use x="61.279297" xlink:href="#DejaVuSans-115"/>
      <use x="113.378906" xlink:href="#DejaVuSans-115"/>
      <use x="165.478516" xlink:href="#DejaVuSans-105"/>
      <use x="193.261719" xlink:href="#DejaVuSans-103"/>
      <use x="256.738281" xlink:href="#DejaVuSans-110"/>
      <use x="320.117188" xlink:href="#DejaVuSans-109"/>
      <use x="417.529297" xlink:href="#DejaVuSans-101"/>
      <use x="479.052734" xlink:href="#DejaVuSans-110"/>
      <use x="542.431641" xlink:href="#DejaVuSans-116"/>
      <use x="581.640625" xlink:href="#DejaVuSans-115"/>
      <use x="633.740234" xlink:href="#DejaVuSans-61"/>
      <use x="717.529297" xlink:href="#DejaVuSans-49"/>
      <use x="781.152344" xlink:href="#DejaVuSans-48"/>
     </g>
    </g>
   </g>
  </g>
  <g id="legend_2">
   <g id="text_21">
    <!-- assignments -->
    <g transform="translate(452.628125 69.588893)scale(0.1 -0.1)">
     <use xlink:href="#DejaVuSans-97"/>
     <use x="61.279297" xlink:href="#DejaVuSans-115"/>
     <use x="113.378906" xlink:href="#DejaVuSans-115"/>
     <use x="165.478516" xlink:href="#DejaVuSans-105"/>
     <use x="193.261719" xlink:href="#DejaVuSans-103"/>
     <use x="256.738281" xlink:href="#DejaVuSans-110"/>
     <use x="320.117188" xlink:href="#DejaVuSans-109"/>
     <use x="417.529297" xlink:href="#DejaVuSans-101"/>
     <use x="479.052734" xlink:href="#DejaVuSans-110"/>
     <use x="542.431641" xlink:href="#DejaVuSans-116"/>
     <use x="581.640625" xlink:href="#DejaVuSans-115"/>
    </g>
   </g>
   <g id="PathCollection_14">
    <g>
     <use style="fill:#e9f2fa;fill-opacity:0.8;stroke:#e9f2fa;stroke-opacity:0.8;" x="469.18125" xlink:href="#m06d263d430" y="81.642018"/>
    </g>
   </g>
   <g id="text_22">
    <!-- 0.0 -->
    <g transform="translate(487.18125 84.267018)scale(0.1 -0.1)">
     <defs>
      <path d="M 10.6875 12.40625 
L 21 12.40625 
L 21 0 
L 10.6875 0 
z
" id="DejaVuSans-46"/>
     </defs>
     <use xlink:href="#DejaVuSans-48"/>
     <use x="63.623047" xlink:href="#DejaVuSans-46"/>
     <use x="95.410156" xlink:href="#DejaVuSans-48"/>
    </g>
   </g>
   <g id="PathCollection_15">
    <g>
     <use style="fill:#dbe9f6;fill-opacity:0.8;stroke:#dbe9f6;stroke-opacity:0.8;" x="469.18125" xlink:href="#ma63116afc4" y="96.320143"/>
    </g>
   </g>
   <g id="text_23">
    <!-- 1.0 -->
    <g transform="translate(487.18125 98.945143)scale(0.1 -0.1)">
     <use xlink:href="#DejaVuSans-49"/>
     <use x="63.623047" xlink:href="#DejaVuSans-46"/>
     <use x="95.410156" xlink:href="#DejaVuSans-48"/>
    </g>
   </g>
   <g id="PathCollection_16">
    <g>
     <use style="fill:#cde0f1;fill-opacity:0.8;stroke:#cde0f1;stroke-opacity:0.8;" x="469.18125" xlink:href="#m99ed934cd9" y="110.998268"/>
    </g>
   </g>
   <g id="text_24">
    <!-- 2.0 -->
    <g transform="translate(487.18125 113.623268)scale(0.1 -0.1)">
     <use xlink:href="#DejaVuSans-50"/>
     <use x="63.623047" xlink:href="#DejaVuSans-46"/>
     <use x="95.410156" xlink:href="#DejaVuSans-48"/>
    </g>
   </g>
   <g id="PathCollection_17">
    <g>
     <use style="fill:#bad6eb;fill-opacity:0.8;stroke:#bad6eb;stroke-opacity:0.8;" x="469.18125" xlink:href="#m8c79e10585" y="125.676393"/>
    </g>
   </g>
   <g id="text_25">
    <!-- 3.0 -->
    <g transform="translate(487.18125 128.301393)scale(0.1 -0.1)">
     <use xlink:href="#DejaVuSans-51"/>
     <use x="63.623047" xlink:href="#DejaVuSans-46"/>
     <use x="95.410156" xlink:href="#DejaVuSans-48"/>
    </g>
   </g>
   <g id="PathCollection_18">
    <g>
     <use style="fill:#a4cce3;fill-opacity:0.8;stroke:#a4cce3;stroke-opacity:0.8;" x="469.18125" xlink:href="#m8758cf6250" y="140.354518"/>
    </g>
   </g>
   <g id="text_26">
    <!-- 4.0 -->
    <g transform="translate(487.18125 142.979518)scale(0.1 -0.1)">
     <use xlink:href="#DejaVuSans-52"/>
     <use x="63.623047" xlink:href="#DejaVuSans-46"/>
     <use x="95.410156" xlink:href="#DejaVuSans-48"/>
    </g>
   </g>
   <g id="PathCollection_19">
    <g>
     <use style="fill:#89bedc;fill-opacity:0.8;stroke:#89bedc;stroke-opacity:0.8;" x="469.18125" xlink:href="#m9794f5b0b7" y="155.032643"/>
    </g>
   </g>
   <g id="text_27">
    <!-- 5.0 -->
    <g transform="translate(487.18125 157.657643)scale(0.1 -0.1)">
     <use xlink:href="#DejaVuSans-53"/>
     <use x="63.623047" xlink:href="#DejaVuSans-46"/>
     <use x="95.410156" xlink:href="#DejaVuSans-48"/>
    </g>
   </g>
   <g id="PathCollection_20">
    <g>
     <use style="fill:#6aaed6;fill-opacity:0.8;stroke:#6aaed6;stroke-opacity:0.8;" x="469.18125" xlink:href="#m821acbf60c" y="169.710768"/>
    </g>
   </g>
   <g id="text_28">
    <!-- 6.0 -->
    <g transform="translate(487.18125 172.335768)scale(0.1 -0.1)">
     <use xlink:href="#DejaVuSans-54"/>
     <use x="63.623047" xlink:href="#DejaVuSans-46"/>
     <use x="95.410156" xlink:href="#DejaVuSans-48"/>
    </g>
   </g>
   <g id="PathCollection_21">
    <g>
     <use style="fill:#539ecd;fill-opacity:0.8;stroke:#539ecd;stroke-opacity:0.8;" x="469.18125" xlink:href="#m139e30b345" y="184.388893"/>
    </g>
   </g>
   <g id="text_29">
    <!-- 7.0 -->
    <g transform="translate(487.18125 187.013893)scale(0.1 -0.1)">
     <use xlink:href="#DejaVuSans-55"/>
     <use x="63.623047" xlink:href="#DejaVuSans-46"/>
     <use x="95.410156" xlink:href="#DejaVuSans-48"/>
    </g>
   </g>
   <g id="PathCollection_22">
    <g>
     <use style="fill:#3d8dc4;fill-opacity:0.8;stroke:#3d8dc4;stroke-opacity:0.8;" x="469.18125" xlink:href="#m552d7163c2" y="199.067018"/>
    </g>
   </g>
   <g id="text_30">
    <!-- 8.0 -->
    <g transform="translate(487.18125 201.692018)scale(0.1 -0.1)">
     <use xlink:href="#DejaVuSans-56"/>
     <use x="63.623047" xlink:href="#DejaVuSans-46"/>
     <use x="95.410156" xlink:href="#DejaVuSans-48"/>
    </g>
   </g>
   <g id="PathCollection_23">
    <g>
     <use style="fill:#2b7bba;fill-opacity:0.8;stroke:#2b7bba;stroke-opacity:0.8;" x="469.18125" xlink:href="#m18b873458c" y="213.745143"/>
    </g>
   </g>
   <g id="text_31">
    <!-- 9.0 -->
    <g transform="translate(487.18125 216.370143)scale(0.1 -0.1)">
     <use xlink:href="#DejaVuSans-57"/>
     <use x="63.623047" xlink:href="#DejaVuSans-46"/>
     <use x="95.410156" xlink:href="#DejaVuSans-48"/>
    </g>
   </g>
   <g id="PathCollection_24">
    <g>
     <use style="fill:#1967ad;fill-opacity:0.8;stroke:#1967ad;stroke-opacity:0.8;" x="469.18125" xlink:href="#m5d686b33ed" y="228.423268"/>
    </g>
   </g>
   <g id="text_32">
    <!-- 10.0 -->
    <g transform="translate(487.18125 231.048268)scale(0.1 -0.1)">
     <use xlink:href="#DejaVuSans-49"/>
     <use x="63.623047" xlink:href="#DejaVuSans-48"/>
     <use x="127.246094" xlink:href="#DejaVuSans-46"/>
     <use x="159.033203" xlink:href="#DejaVuSans-48"/>
    </g>
   </g>
   <g id="PathCollection_25">
    <g>
     <use style="fill:#0b559f;fill-opacity:0.8;stroke:#0b559f;stroke-opacity:0.8;" x="469.18125" xlink:href="#mb20a32fa83" y="243.101393"/>
    </g>
   </g>
   <g id="text_33">
    <!-- 11.0 -->
    <g transform="translate(487.18125 245.726393)scale(0.1 -0.1)">
     <use xlink:href="#DejaVuSans-49"/>
     <use x="63.623047" xlink:href="#DejaVuSans-49"/>
     <use x="127.246094" xlink:href="#DejaVuSans-46"/>
     <use x="159.033203" xlink:href="#DejaVuSans-48"/>
    </g>
   </g>
   <g id="PathCollection_26">
    <g>
     <use style="fill:#084387;fill-opacity:0.8;stroke:#084387;stroke-opacity:0.8;" x="469.18125" xlink:href="#m7a9ae4fa07" y="257.779518"/>
    </g>
   </g>
   <g id="text_34">
    <!-- 12.0 -->
    <g transform="translate(487.18125 260.404518)scale(0.1 -0.1)">
     <use xlink:href="#DejaVuSans-49"/>
     <use x="63.623047" xlink:href="#DejaVuSans-50"/>
     <use x="127.246094" xlink:href="#DejaVuSans-46"/>
     <use x="159.033203" xlink:href="#DejaVuSans-48"/>
    </g>
   </g>
  </g>
 </g>
 <defs>
  <clipPath id="pd5bc2af212">
   <rect height="259.579728" width="420" x="52.5" y="32.447466"/>
  </clipPath>
 </defs>
</svg>
