<?xml version="1.0" encoding="UTF-8"?>
<svg width="421px" height="210px" viewBox="0 0 421 210" version="1.1" xmlns="http://www.w3.org/2000/svg" xmlns:xlink="http://www.w3.org/1999/xlink">
    <!-- Generator: Sketch 52.5 (67469) - http://www.bohemiancoding.com/sketch -->
    <title>Informationgain_1</title>
    <desc>Created with Sketch.</desc>
    <g id="Informationgain_1" stroke="none" stroke-width="1" fill="none" fill-rule="evenodd">
        <rect fill="#FFFFFF" x="0" y="0" width="421" height="210"></rect>
        <g id="2" transform="translate(236.000000, 37.000000)" fill-rule="nonzero">
            <rect id="Rectangle-2-Copy" stroke="#000000" stroke-width="2" x="1" y="1" width="164" height="106"></rect>
            <circle id="Oval-Copy" fill="#4C7EF3" cx="43" cy="33" r="15"></circle>
            <circle id="Oval-Copy-4" fill="#4C7EF3" cx="43" cy="75" r="15"></circle>
            <circle id="Oval-Copy-2" fill="#4C7EF3" cx="83" cy="33" r="15"></circle>
            <circle id="Oval-Copy-5" fill="#4C7EF3" cx="83" cy="75" r="15"></circle>
            <circle id="Oval-Copy-3" fill="#4C7EF3" cx="123" cy="33" r="15"></circle>
            <circle id="Oval-Copy-6" fill="#4C7EF3" cx="123" cy="75" r="15"></circle>
        </g>
        <g id="1" transform="translate(19.000000, 37.000000)" fill-rule="nonzero">
            <rect id="Rectangle-2" stroke="#000000" stroke-width="2" x="1" y="1" width="164" height="106"></rect>
            <circle id="Oval" fill="#4C7EF3" cx="83" cy="54" r="15"></circle>
        </g>
        <path d="M277.4975,170 L276.145938,170 L276.145938,158.445312 L277.4975,158.445312 L277.4975,170 Z M291.182813,170 L291.182813,165.539062 C291.182813,165.122394 291.173698,164.773439 291.155469,164.492188 C291.137239,164.210936 291.095573,163.924481 291.030469,163.632812 C290.965364,163.341144 290.874219,163.110678 290.757031,162.941406 C290.639843,162.772135 290.477084,162.634115 290.26875,162.527344 C290.060416,162.420572 289.810418,162.367188 289.51875,162.367188 C288.94583,162.367188 288.457554,162.520832 288.053906,162.828125 C287.650258,163.135418 287.362501,163.567706 287.190625,164.125 C287.14375,164.500002 287.120313,164.90104 287.120313,165.328125 L287.120313,170 L285.815625,170 L285.815625,165.398438 C285.815625,165.013019 285.802604,164.678387 285.776563,164.394531 C285.750521,164.110676 285.701042,163.834637 285.628125,163.566406 C285.555208,163.298176 285.457553,163.08073 285.335156,162.914062 C285.21276,162.747395 285.050001,162.614584 284.846875,162.515625 C284.643749,162.416666 284.401564,162.367188 284.120313,162.367188 C283.495309,162.367188 282.970575,162.52604 282.546094,162.84375 C282.121612,163.16146 281.836459,163.583331 281.690625,164.109375 C281.64375,164.510419 281.620313,164.94531 281.620313,165.414062 L281.620313,170 L280.315625,170 C280.305208,164.640598 280.3,161.783856 280.3,161.429688 L281.39375,161.429688 L281.557813,162.65625 C281.81823,162.260415 282.188018,161.927085 282.667188,161.65625 C283.146357,161.385415 283.690622,161.25 284.3,161.25 C284.61771,161.25 284.910676,161.282552 285.178906,161.347656 C285.447137,161.412761 285.671093,161.494791 285.850781,161.59375 C286.03047,161.692709 286.190624,161.811197 286.33125,161.949219 C286.471876,162.08724 286.58125,162.222656 286.659375,162.355469 C286.7375,162.488282 286.802604,162.627603 286.854688,162.773438 C287.479691,161.757807 288.43541,161.25 289.721875,161.25 C290.675005,161.25 291.374217,161.522133 291.819531,162.066406 C292.264846,162.61068 292.4875,163.416661 292.4875,164.484375 L292.4875,170 L291.182813,170 Z M294.391563,173.71875 L294.391563,161.429688 L295.54,161.429688 L295.665,162.59375 C296.415004,161.697912 297.316036,161.25 298.368125,161.25 C299.149379,161.25 299.810831,161.445311 300.3525,161.835938 C300.894169,162.226564 301.293905,162.755205 301.551719,163.421875 C301.809533,164.088545 301.938438,164.867183 301.938438,165.757812 C301.938438,166.611983 301.797814,167.37109 301.516563,168.035156 C301.235311,168.699222 300.822555,169.222654 300.278281,169.605469 C299.734008,169.988283 299.097295,170.179688 298.368125,170.179688 C297.816039,170.179688 297.297815,170.055991 296.813438,169.808594 C296.32906,169.561197 295.941043,169.234377 295.649375,168.828125 C295.680625,169.390628 295.69625,169.937497 295.69625,170.46875 L295.69625,173.632812 L294.391563,173.71875 Z M298.188438,169.078125 C298.584273,169.078125 298.938436,168.988282 299.250938,168.808594 C299.563439,168.628905 299.816041,168.382814 300.00875,168.070312 C300.201459,167.757811 300.347291,167.402346 300.44625,167.003906 C300.545209,166.605467 300.594688,166.174481 300.594688,165.710938 C300.594688,164.731766 300.38896,163.928389 299.9775,163.300781 C299.56604,162.673174 298.964483,162.359375 298.172813,162.359375 C296.516554,162.359375 295.688438,163.429677 295.688438,165.570312 C295.688438,166.731777 295.882446,167.606768 296.270469,168.195312 C296.658492,168.783857 297.297808,169.078125 298.188438,169.078125 Z M303.7175,167.140625 L303.7175,161.429688 L305.03,161.429688 L305.03,167.15625 C305.03,167.531252 305.083385,167.848957 305.190156,168.109375 C305.296928,168.369793 305.450572,168.571614 305.651094,168.714844 C305.851616,168.858074 306.078176,168.960937 306.330781,169.023438 C306.583387,169.085938 306.873748,169.117188 307.201875,169.117188 C307.878962,169.117188 308.4063,168.968751 308.783906,168.671875 C309.161512,168.374999 309.350313,167.869795 309.350313,167.15625 L309.350313,161.429688 L310.662813,161.429688 L310.662813,167.140625 C310.662813,167.578127 310.600313,167.971352 310.475313,168.320312 C310.350312,168.669273 310.182345,168.959634 309.971406,169.191406 C309.760468,169.423178 309.506564,169.614583 309.209688,169.765625 C308.912811,169.916667 308.599012,170.026041 308.268281,170.09375 C307.93755,170.161459 307.582085,170.195312 307.201875,170.195312 C306.826873,170.195312 306.47271,170.161459 306.139375,170.09375 C305.80604,170.026041 305.489637,169.915365 305.190156,169.761719 C304.890676,169.608072 304.632866,169.415366 304.416719,169.183594 C304.200572,168.951822 304.030001,168.66146 303.905,168.3125 C303.779999,167.96354 303.7175,167.572919 303.7175,167.140625 Z M316.691875,161.351562 C316.926251,161.351562 317.139791,161.367187 317.3325,161.398438 L317.285625,162.601562 C317.04604,162.559896 316.837709,162.539062 316.660625,162.539062 C315.931455,162.539062 315.339013,162.792966 314.883281,163.300781 C314.42755,163.808596 314.199688,164.437496 314.199688,165.1875 L314.199688,170 L312.895,170 C312.889792,164.739557 312.887188,161.882815 312.887188,161.429688 L313.973125,161.429688 L314.098125,162.96875 C314.395001,162.484373 314.772602,162.093751 315.230938,161.796875 C315.689273,161.499999 316.176247,161.351562 316.691875,161.351562 Z M320.455313,161.429688 L320.455313,170 L319.142813,170 L319.142813,161.429688 L320.455313,161.429688 Z M320.455313,158.3125 L320.455313,159.859375 L319.142813,159.859375 L319.142813,158.3125 L320.455313,158.3125 Z M325.882813,170.15625 C325.039058,170.15625 324.440106,169.950523 324.085938,169.539062 C323.731769,169.127602 323.544271,168.463546 323.523438,167.546875 L323.523438,162.398438 L322.25,162.398438 L322.304688,161.539062 L323.515625,161.429688 L323.960938,159.46875 L324.820313,159.4375 L324.820313,161.429688 L327.203125,161.429688 L327.203125,162.398438 L324.820313,162.398438 L324.820313,167.3125 C324.820313,167.963545 324.91927,168.421874 325.117188,168.6875 C325.315105,168.953126 325.653643,169.085938 326.132813,169.085938 C326.304688,169.085938 326.67708,169.044271 327.25,168.960938 L327.304688,169.992188 C326.684893,170.101563 326.210939,170.15625 325.882813,170.15625 Z M327.841563,161.429688 L329.224375,161.429688 L331.9275,168.5625 L334.33375,161.429688 L335.716563,161.429688 C333.404051,167.794303 332.20875,171.07552 332.130625,171.273438 C331.771248,172.174484 331.336357,172.834633 330.825938,173.253906 C330.315518,173.673179 329.64365,173.882812 328.810313,173.882812 C328.560311,173.882812 328.297293,173.861979 328.02125,173.820312 L327.943125,172.710938 C328.234793,172.731771 328.453541,172.742188 328.599375,172.742188 C329.18792,172.742188 329.63453,172.634116 329.939219,172.417969 C330.243908,172.201822 330.51604,171.796878 330.755625,171.203125 C330.969168,170.656247 331.12802,170.234376 331.232188,169.9375 L327.841563,161.429688 Z M341.305938,167.054688 L341.305938,165.945312 L348.845,165.945312 L348.845,167.054688 L341.305938,167.054688 Z M341.298125,163.757812 L341.298125,162.632812 L348.845,162.632812 L348.845,163.757812 L341.298125,163.757812 Z M361.0125,169.726562 C360.496872,170.028647 359.892712,170.179688 359.2,170.179688 C358.507288,170.179688 357.900523,170.027345 357.379688,169.722656 C356.858852,169.417967 356.440887,168.989586 356.125781,168.4375 C355.810676,167.885414 355.576303,167.250004 355.422656,166.53125 C355.26901,165.812496 355.192188,165.013025 355.192188,164.132812 C355.192188,163.408851 355.242968,162.739586 355.344531,162.125 C355.446094,161.510414 355.603645,160.953127 355.817188,160.453125 C356.03073,159.953123 356.295051,159.528648 356.610156,159.179688 C356.925262,158.830727 357.30156,158.561199 357.739063,158.371094 C358.176565,158.180989 358.663539,158.085938 359.2,158.085938 C359.86667,158.085938 360.456508,158.231769 360.969531,158.523438 C361.482555,158.815106 361.899217,159.230466 362.219531,159.769531 C362.539845,160.308596 362.780728,160.944007 362.942188,161.675781 C363.103647,162.407556 363.184375,163.226558 363.184375,164.132812 C363.184375,165.013025 363.108855,165.812496 362.957813,166.53125 C362.80677,167.250004 362.575002,167.885414 362.2625,168.4375 C361.949998,168.989586 361.533336,169.419269 361.0125,169.726562 Z M360.567188,159.90625 C360.186977,159.484373 359.731253,159.273438 359.2,159.273438 C358.668747,159.273438 358.213023,159.483071 357.832813,159.902344 C357.452602,160.321617 357.167449,160.889319 356.977344,161.605469 C356.787239,162.321618 356.692188,163.148433 356.692188,164.085938 C356.692188,165.039067 356.787239,165.881507 356.977344,166.613281 C357.167449,167.345056 357.452602,167.924477 357.832813,168.351562 C358.213023,168.778648 358.668747,168.992188 359.2,168.992188 C359.731253,168.992188 360.186977,168.778648 360.567188,168.351562 C360.947398,167.924477 361.232551,167.345056 361.422656,166.613281 C361.612761,165.881507 361.707813,165.039067 361.707813,164.085938 C361.707813,163.148433 361.612761,162.321618 361.422656,161.605469 C361.232551,160.889319 360.947398,160.322919 360.567188,159.90625 Z" id="Impurity-=-0" fill="#000000"></path>
        <path d="M209.412344,86.4453125 L210.857656,86.4453125 L206.662344,98 L205.256094,98 L201.076406,86.4453125 L202.521719,86.4453125 L205.092031,93.7734375 C205.425366,94.7265673 205.714426,95.6249958 205.959219,96.46875 C206.037344,96.078123 206.329008,95.1718821 206.834219,93.75 C207.646723,91.4218634 208.506089,88.9869919 209.412344,86.4453125 Z M212.199219,96.09375 C213.40235,96.687503 214.691399,96.984375 216.066406,96.984375 C217.759123,96.984375 218.605469,96.2135494 218.605469,94.671875 C218.605469,94.1718725 218.471356,93.7669286 218.203125,93.4570312 C217.934894,93.1471339 217.446618,92.9036467 216.738281,92.7265625 L214.441406,92.1484375 C212.686189,91.705727 211.808594,90.7682363 211.808594,89.3359375 C211.808594,88.2369737 212.186194,87.4205756 212.941406,86.8867188 C213.696618,86.3528619 214.740879,86.0859375 216.074219,86.0859375 C216.772139,86.0859375 217.425778,86.1614576 218.035156,86.3125 C218.644534,86.4635424 219.154946,86.6666654 219.566406,86.921875 L219.175781,88.0234375 C218.826821,87.8307282 218.364586,87.6588549 217.789062,87.5078125 C217.213539,87.3567701 216.631513,87.28125 216.042969,87.28125 C214.157543,87.28125 213.214844,87.9348893 213.214844,89.2421875 C213.214844,89.684898 213.359374,90.0403632 213.648438,90.3085938 C213.937501,90.5768243 214.371091,90.7812493 214.949219,90.921875 L217.144531,91.453125 C218.082036,91.6770845 218.792966,92.0351538 219.277344,92.5273438 C219.761721,93.0195337 220.003906,93.7187455 220.003906,94.625 C220.003906,95.8020892 219.643233,96.6887991 218.921875,97.2851562 C218.200517,97.8815134 217.220058,98.1796875 215.980469,98.1796875 C215.053381,98.1796875 214.22917,98.0846364 213.507812,97.8945312 C212.786455,97.7044261 212.214846,97.479168 211.792969,97.21875 L212.199219,96.09375 Z" id="VS" fill="#000000"></path>
        <path d="M60.4975,170 L59.1459375,170 L59.1459375,158.445312 L60.4975,158.445312 L60.4975,170 Z M74.1828125,170 L74.1828125,165.539062 C74.1828125,165.122394 74.173698,164.773439 74.1554688,164.492188 C74.1372395,164.210936 74.0955732,163.924481 74.0304688,163.632812 C73.9653643,163.341144 73.8742193,163.110678 73.7570313,162.941406 C73.6398432,162.772135 73.4770844,162.634115 73.26875,162.527344 C73.0604156,162.420572 72.8104181,162.367188 72.51875,162.367188 C71.9458305,162.367188 71.4575541,162.520832 71.0539063,162.828125 C70.6502584,163.135418 70.3625009,163.567706 70.190625,164.125 C70.1437498,164.500002 70.1203125,164.90104 70.1203125,165.328125 L70.1203125,170 L68.815625,170 L68.815625,165.398438 C68.815625,165.013019 68.8026043,164.678387 68.7765625,164.394531 C68.7505207,164.110676 68.701042,163.834637 68.628125,163.566406 C68.555208,163.298176 68.4575527,163.08073 68.3351563,162.914062 C68.2127598,162.747395 68.050001,162.614584 67.846875,162.515625 C67.643749,162.416666 67.4015639,162.367188 67.1203125,162.367188 C66.4953094,162.367188 65.970575,162.52604 65.5460938,162.84375 C65.1216125,163.16146 64.8364591,163.583331 64.690625,164.109375 C64.6437498,164.510419 64.6203125,164.94531 64.6203125,165.414062 L64.6203125,170 L63.315625,170 C63.3052083,164.640598 63.3,161.783856 63.3,161.429688 L64.39375,161.429688 L64.5578125,162.65625 C64.8182305,162.260415 65.1880184,161.927085 65.6671875,161.65625 C66.1463566,161.385415 66.690622,161.25 67.3,161.25 C67.6177099,161.25 67.9106757,161.282552 68.1789063,161.347656 C68.4471368,161.412761 68.6710929,161.494791 68.8507813,161.59375 C69.0304696,161.692709 69.1906243,161.811197 69.33125,161.949219 C69.4718757,162.08724 69.5812496,162.222656 69.659375,162.355469 C69.7375004,162.488282 69.8026039,162.627603 69.8546875,162.773438 C70.4796906,161.757807 71.4354102,161.25 72.721875,161.25 C73.6750048,161.25 74.3742165,161.522133 74.8195313,162.066406 C75.264846,162.61068 75.4875,163.416661 75.4875,164.484375 L75.4875,170 L74.1828125,170 Z M77.3915625,173.71875 L77.3915625,161.429688 L78.54,161.429688 L78.665,162.59375 C79.4150038,161.697912 80.3160364,161.25 81.368125,161.25 C82.1493789,161.25 82.8108306,161.445311 83.3525,161.835938 C83.8941694,162.226564 84.293905,162.755205 84.5517188,163.421875 C84.8095325,164.088545 84.9384375,164.867183 84.9384375,165.757812 C84.9384375,166.611983 84.7978139,167.37109 84.5165625,168.035156 C84.2353111,168.699222 83.8225548,169.222654 83.2782813,169.605469 C82.7340077,169.988283 82.0972953,170.179688 81.368125,170.179688 C80.8160389,170.179688 80.2978149,170.055991 79.8134375,169.808594 C79.3290601,169.561197 78.9410431,169.234377 78.649375,168.828125 C78.6806252,169.390628 78.69625,169.937497 78.69625,170.46875 L78.69625,173.632812 L77.3915625,173.71875 Z M81.1884375,169.078125 C81.5842728,169.078125 81.9384359,168.988282 82.2509375,168.808594 C82.5634391,168.628905 82.8160407,168.382814 83.00875,168.070312 C83.2014593,167.757811 83.3472912,167.402346 83.44625,167.003906 C83.5452088,166.605467 83.5946875,166.174481 83.5946875,165.710938 C83.5946875,164.731766 83.3889604,163.928389 82.9775,163.300781 C82.5660396,162.673174 81.9644831,162.359375 81.1728125,162.359375 C79.5165542,162.359375 78.6884375,163.429677 78.6884375,165.570312 C78.6884375,166.731777 78.882446,167.606768 79.2704688,168.195312 C79.6584915,168.783857 80.297808,169.078125 81.1884375,169.078125 Z M86.7175,167.140625 L86.7175,161.429688 L88.03,161.429688 L88.03,167.15625 C88.03,167.531252 88.0833849,167.848957 88.1901563,168.109375 C88.2969276,168.369793 88.4505719,168.571614 88.6510938,168.714844 C88.8516156,168.858074 89.0781758,168.960937 89.3307813,169.023438 C89.5833867,169.085938 89.8737484,169.117188 90.201875,169.117188 C90.8789617,169.117188 91.4063002,168.968751 91.7839063,168.671875 C92.1615123,168.374999 92.3503125,167.869795 92.3503125,167.15625 L92.3503125,161.429688 L93.6628125,161.429688 L93.6628125,167.140625 C93.6628125,167.578127 93.6003131,167.971352 93.4753125,168.320312 C93.3503119,168.669273 93.1823448,168.959634 92.9714063,169.191406 C92.7604677,169.423178 92.506564,169.614583 92.2096875,169.765625 C91.912811,169.916667 91.5990121,170.026041 91.2682813,170.09375 C90.9375504,170.161459 90.5820852,170.195312 90.201875,170.195312 C89.8268731,170.195312 89.47271,170.161459 89.139375,170.09375 C88.80604,170.026041 88.4896369,169.915365 88.1901563,169.761719 C87.8906756,169.608072 87.6328657,169.415366 87.4167188,169.183594 C87.2005718,168.951822 87.0300006,168.66146 86.905,168.3125 C86.7799994,167.96354 86.7175,167.572919 86.7175,167.140625 Z M99.691875,161.351562 C99.9262512,161.351562 100.139791,161.367187 100.3325,161.398438 L100.285625,162.601562 C100.04604,162.559896 99.8377092,162.539062 99.660625,162.539062 C98.9314547,162.539062 98.3390127,162.792966 97.8832813,163.300781 C97.4275498,163.808596 97.1996875,164.437496 97.1996875,165.1875 L97.1996875,170 L95.895,170 C95.8897916,164.739557 95.8871875,161.882815 95.8871875,161.429688 L96.973125,161.429688 L97.098125,162.96875 C97.3950015,162.484373 97.7726019,162.093751 98.2309375,161.796875 C98.6892731,161.499999 99.1762474,161.351562 99.691875,161.351562 Z M103.455313,161.429688 L103.455313,170 L102.142813,170 L102.142813,161.429688 L103.455313,161.429688 Z M103.455313,158.3125 L103.455313,159.859375 L102.142813,159.859375 L102.142813,158.3125 L103.455313,158.3125 Z M108.882813,170.15625 C108.039058,170.15625 107.440106,169.950523 107.085938,169.539062 C106.731769,169.127602 106.544271,168.463546 106.523438,167.546875 L106.523438,162.398438 L105.25,162.398438 L105.304688,161.539062 L106.515625,161.429688 L106.960938,159.46875 L107.820313,159.4375 L107.820313,161.429688 L110.203125,161.429688 L110.203125,162.398438 L107.820313,162.398438 L107.820313,167.3125 C107.820313,167.963545 107.91927,168.421874 108.117188,168.6875 C108.315105,168.953126 108.653643,169.085938 109.132813,169.085938 C109.304688,169.085938 109.67708,169.044271 110.25,168.960938 L110.304688,169.992188 C109.684893,170.101563 109.210939,170.15625 108.882813,170.15625 Z M110.841563,161.429688 L112.224375,161.429688 L114.9275,168.5625 L117.33375,161.429688 L118.716563,161.429688 C116.404051,167.794303 115.20875,171.07552 115.130625,171.273438 C114.771248,172.174484 114.336357,172.834633 113.825938,173.253906 C113.315518,173.673179 112.64365,173.882812 111.810313,173.882812 C111.560311,173.882812 111.297293,173.861979 111.02125,173.820312 L110.943125,172.710938 C111.234793,172.731771 111.453541,172.742188 111.599375,172.742188 C112.18792,172.742188 112.63453,172.634116 112.939219,172.417969 C113.243908,172.201822 113.51604,171.796878 113.755625,171.203125 C113.969168,170.656247 114.12802,170.234376 114.232188,169.9375 L110.841563,161.429688 Z M124.305938,167.054688 L124.305938,165.945312 L131.845,165.945312 L131.845,167.054688 L124.305938,167.054688 Z M124.298125,163.757812 L124.298125,162.632812 L131.845,162.632812 L131.845,163.757812 L124.298125,163.757812 Z M144.0125,169.726562 C143.496872,170.028647 142.892712,170.179688 142.2,170.179688 C141.507288,170.179688 140.900523,170.027345 140.379688,169.722656 C139.858852,169.417967 139.440887,168.989586 139.125781,168.4375 C138.810676,167.885414 138.576303,167.250004 138.422656,166.53125 C138.26901,165.812496 138.192188,165.013025 138.192188,164.132812 C138.192188,163.408851 138.242968,162.739586 138.344531,162.125 C138.446094,161.510414 138.603645,160.953127 138.817188,160.453125 C139.03073,159.953123 139.295051,159.528648 139.610156,159.179688 C139.925262,158.830727 140.30156,158.561199 140.739063,158.371094 C141.176565,158.180989 141.663539,158.085938 142.2,158.085938 C142.86667,158.085938 143.456508,158.231769 143.969531,158.523438 C144.482555,158.815106 144.899217,159.230466 145.219531,159.769531 C145.539845,160.308596 145.780728,160.944007 145.942188,161.675781 C146.103647,162.407556 146.184375,163.226558 146.184375,164.132812 C146.184375,165.013025 146.108855,165.812496 145.957813,166.53125 C145.80677,167.250004 145.575002,167.885414 145.2625,168.4375 C144.949998,168.989586 144.533336,169.419269 144.0125,169.726562 Z M143.567188,159.90625 C143.186977,159.484373 142.731253,159.273438 142.2,159.273438 C141.668747,159.273438 141.213023,159.483071 140.832813,159.902344 C140.452602,160.321617 140.167449,160.889319 139.977344,161.605469 C139.787239,162.321618 139.692188,163.148433 139.692188,164.085938 C139.692188,165.039067 139.787239,165.881507 139.977344,166.613281 C140.167449,167.345056 140.452602,167.924477 140.832813,168.351562 C141.213023,168.778648 141.668747,168.992188 142.2,168.992188 C142.731253,168.992188 143.186977,168.778648 143.567188,168.351562 C143.947398,167.924477 144.232551,167.345056 144.422656,166.613281 C144.612761,165.881507 144.707813,165.039067 144.707813,164.085938 C144.707813,163.148433 144.612761,162.321618 144.422656,161.605469 C144.232551,160.889319 143.947398,160.322919 143.567188,159.90625 Z" id="Impurity-=-0" fill="#000000"></path>
    </g>
</svg>