<?xml version="1.0" encoding="UTF-8"?>
<svg width="421px" height="210px" viewBox="0 0 421 210" version="1.1" xmlns="http://www.w3.org/2000/svg" xmlns:xlink="http://www.w3.org/1999/xlink">
    <!-- Generator: Sketch 52.5 (67469) - http://www.bohemiancoding.com/sketch -->
    <title>Informationgain_3</title>
    <desc>Created with Sketch.</desc>
    <g id="Informationgain_3" stroke="none" stroke-width="1" fill="none" fill-rule="evenodd">
        <rect fill="#FFFFFF" x="0" y="0" width="421" height="210"></rect>
        <g id="2" transform="translate(236.000000, 36.000000)">
            <rect id="Rectangle-2-Copy" stroke="#000000" stroke-width="2" fill-rule="nonzero" x="1" y="1" width="164" height="106"></rect>
            <circle id="Oval-Copy" fill="#4C7EF3" fill-rule="nonzero" cx="28" cy="32" r="15"></circle>
            <circle id="Oval-Copy-4" fill="#F8E71C" fill-rule="nonzero" cx="28" cy="76" r="15"></circle>
            <circle id="Oval-Copy-2" fill="#4C7EF3" fill-rule="nonzero" cx="65" cy="32" r="15"></circle>
            <circle id="Oval-Copy-5" fill="#F8E71C" fill-rule="nonzero" cx="65" cy="76" r="15"></circle>
            <circle id="Oval-Copy-3" fill="#4C7EF3" fill-rule="nonzero" cx="102" cy="32" r="15"></circle>
            <circle id="Oval-Copy-7" fill="#4C7EF3" fill-rule="nonzero" cx="139" cy="32" r="15"></circle>
            <circle id="Oval-Copy-6" fill="#F8E71C" fill-rule="nonzero" cx="102" cy="76" r="15"></circle>
            <circle id="Oval-Copy-8" fill="#F8E71C" fill-rule="nonzero" cx="139" cy="76" r="15"></circle>
            <path d="M34.7301563,134 L33.3785938,134 L33.3785938,122.445312 L34.7301563,122.445312 L34.7301563,134 Z M48.4154688,134 L48.4154688,129.539062 C48.4154688,129.122394 48.4063543,128.773439 48.388125,128.492188 C48.3698957,128.210936 48.3282295,127.924481 48.263125,127.632812 C48.1980205,127.341144 48.1068756,127.110678 47.9896875,126.941406 C47.8724994,126.772135 47.7097406,126.634115 47.5014063,126.527344 C47.2930719,126.420572 47.0430744,126.367188 46.7514063,126.367188 C46.1784867,126.367188 45.6902104,126.520832 45.2865625,126.828125 C44.8829146,127.135418 44.5951571,127.567706 44.4232813,128.125 C44.376406,128.500002 44.3529688,128.90104 44.3529688,129.328125 L44.3529688,134 L43.0482813,134 L43.0482813,129.398438 C43.0482813,129.013019 43.0352605,128.678387 43.0092188,128.394531 C42.983177,128.110676 42.9336983,127.834637 42.8607813,127.566406 C42.7878642,127.298176 42.6902089,127.08073 42.5678125,126.914062 C42.4454161,126.747395 42.2826573,126.614584 42.0795313,126.515625 C41.8764052,126.416666 41.6342202,126.367188 41.3529688,126.367188 C40.7279656,126.367188 40.2032313,126.52604 39.77875,126.84375 C39.3542687,127.16146 39.0691153,127.583331 38.9232813,128.109375 C38.876406,128.510419 38.8529688,128.94531 38.8529688,129.414062 L38.8529688,134 L37.5482813,134 C37.5378645,128.640598 37.5326563,125.783856 37.5326563,125.429688 L38.6264063,125.429688 L38.7904688,126.65625 C39.0508867,126.260415 39.4206747,125.927085 39.8998438,125.65625 C40.3790128,125.385415 40.9232782,125.25 41.5326563,125.25 C41.8503662,125.25 42.143332,125.282552 42.4115625,125.347656 C42.679793,125.412761 42.9037491,125.494791 43.0834375,125.59375 C43.2631259,125.692709 43.4232805,125.811197 43.5639063,125.949219 C43.704532,126.08724 43.8139059,126.222656 43.8920313,126.355469 C43.9701566,126.488282 44.0352602,126.627603 44.0873438,126.773438 C44.7123469,125.757807 45.6680665,125.25 46.9545313,125.25 C47.907661,125.25 48.6068728,125.522133 49.0521875,126.066406 C49.4975022,126.61068 49.7201563,127.416661 49.7201563,128.484375 L49.7201563,134 L48.4154688,134 Z M51.6242188,137.71875 L51.6242188,125.429688 L52.7726563,125.429688 L52.8976563,126.59375 C53.64766,125.697912 54.5486927,125.25 55.6007813,125.25 C56.3820352,125.25 57.0434869,125.445311 57.5851563,125.835938 C58.1268256,126.226564 58.5265612,126.755205 58.784375,127.421875 C59.0421888,128.088545 59.1710938,128.867183 59.1710938,129.757812 C59.1710938,130.611983 59.0304702,131.37109 58.7492188,132.035156 C58.4679673,132.699222 58.0552111,133.222654 57.5109375,133.605469 C56.9666639,133.988283 56.3299516,134.179688 55.6007813,134.179688 C55.0486952,134.179688 54.5304712,134.055991 54.0460938,133.808594 C53.5617163,133.561197 53.1736994,133.234377 52.8820313,132.828125 C52.9132814,133.390628 52.9289063,133.937497 52.9289063,134.46875 L52.9289063,137.632812 L51.6242188,137.71875 Z M55.4210938,133.078125 C55.8169291,133.078125 56.1710922,132.988282 56.4835938,132.808594 C56.7960953,132.628905 57.048697,132.382814 57.2414063,132.070312 C57.4341155,131.757811 57.5799474,131.402346 57.6789063,131.003906 C57.7778651,130.605467 57.8273438,130.174481 57.8273438,129.710938 C57.8273438,128.731766 57.6216166,127.928389 57.2101563,127.300781 C56.7986959,126.673174 56.1971394,126.359375 55.4054688,126.359375 C53.7492105,126.359375 52.9210938,127.429677 52.9210938,129.570312 C52.9210938,130.731777 53.1151022,131.606768 53.503125,132.195312 C53.8911478,132.783857 54.5304643,133.078125 55.4210938,133.078125 Z M60.9501563,131.140625 L60.9501563,125.429688 L62.2626563,125.429688 L62.2626563,131.15625 C62.2626563,131.531252 62.3160411,131.848957 62.4228125,132.109375 C62.5295839,132.369793 62.6832282,132.571614 62.88375,132.714844 C63.0842718,132.858074 63.3108321,132.960937 63.5634375,133.023438 C63.8160429,133.085938 64.1064046,133.117188 64.4345313,133.117188 C65.111618,133.117188 65.6389564,132.968751 66.0165625,132.671875 C66.3941686,132.374999 66.5829688,131.869795 66.5829688,131.15625 L66.5829688,125.429688 L67.8954688,125.429688 L67.8954688,131.140625 C67.8954688,131.578127 67.8329694,131.971352 67.7079688,132.320312 C67.5829681,132.669273 67.4150011,132.959634 67.2040625,133.191406 C66.9931239,133.423178 66.7392202,133.614583 66.4423438,133.765625 C66.1454673,133.916667 65.8316683,134.026041 65.5009375,134.09375 C65.1702067,134.161459 64.8147415,134.195312 64.4345313,134.195312 C64.0595294,134.195312 63.7053663,134.161459 63.3720313,134.09375 C63.0386963,134.026041 62.7222932,133.915365 62.4228125,133.761719 C62.1233318,133.608072 61.8655219,133.415366 61.649375,133.183594 C61.4332281,132.951822 61.2626569,132.66146 61.1376563,132.3125 C61.0126556,131.96354 60.9501563,131.572919 60.9501563,131.140625 Z M73.9245313,125.351562 C74.1589074,125.351562 74.372447,125.367187 74.5651563,125.398438 L74.5182813,126.601562 C74.2786967,126.559896 74.0703655,126.539062 73.8932813,126.539062 C73.1641109,126.539062 72.5716689,126.792966 72.1159375,127.300781 C71.6602061,127.808596 71.4323438,128.437496 71.4323438,129.1875 L71.4323438,134 L70.1276563,134 C70.1224479,128.739557 70.1198438,125.882815 70.1198438,125.429688 L71.2057813,125.429688 L71.3307813,126.96875 C71.6276577,126.484373 72.0052581,126.093751 72.4635938,125.796875 C72.9219294,125.499999 73.4089037,125.351562 73.9245313,125.351562 Z M77.6879688,125.429688 L77.6879688,134 L76.3754688,134 L76.3754688,125.429688 L77.6879688,125.429688 Z M77.6879688,122.3125 L77.6879688,123.859375 L76.3754688,123.859375 L76.3754688,122.3125 L77.6879688,122.3125 Z M83.1154688,134.15625 C82.2717145,134.15625 81.6727622,133.950523 81.3185938,133.539062 C80.9644253,133.127602 80.7769272,132.463546 80.7560938,131.546875 L80.7560938,126.398438 L79.4826563,126.398438 L79.5373438,125.539062 L80.7482813,125.429688 L81.1935938,123.46875 L82.0529688,123.4375 L82.0529688,125.429688 L84.4357813,125.429688 L84.4357813,126.398438 L82.0529688,126.398438 L82.0529688,131.3125 C82.0529688,131.963545 82.1519261,132.421874 82.3498438,132.6875 C82.5477614,132.953126 82.8862997,133.085938 83.3654688,133.085938 C83.5373446,133.085938 83.9097367,133.044271 84.4826563,132.960938 L84.5373438,133.992188 C83.917549,134.101563 83.4435954,134.15625 83.1154688,134.15625 Z M85.0742188,125.429688 L86.4570313,125.429688 L89.1601563,132.5625 L91.5664063,125.429688 L92.9492188,125.429688 C90.6367072,131.794303 89.4414066,135.07552 89.3632813,135.273438 C89.0039045,136.174484 88.569013,136.834633 88.0585938,137.253906 C87.5481745,137.673179 86.8763063,137.882812 86.0429688,137.882812 C85.7929675,137.882812 85.5299493,137.861979 85.2539063,137.820312 L85.1757813,136.710938 C85.4674494,136.731771 85.6861972,136.742188 85.8320313,136.742188 C86.4205759,136.742188 86.867186,136.634116 87.171875,136.417969 C87.476564,136.201822 87.7486967,135.796878 87.9882813,135.203125 C88.201824,134.656247 88.3606766,134.234376 88.4648438,133.9375 L85.0742188,125.429688 Z M98.5385938,131.054688 L98.5385938,129.945312 L106.077656,129.945312 L106.077656,131.054688 L98.5385938,131.054688 Z M98.5307813,127.757812 L98.5307813,126.632812 L106.077656,126.632812 L106.077656,127.757812 L98.5307813,127.757812 Z M118.245156,133.726562 C117.729529,134.028647 117.125368,134.179688 116.432656,134.179688 C115.739944,134.179688 115.13318,134.027345 114.612344,133.722656 C114.091508,133.417967 113.673543,132.989586 113.358438,132.4375 C113.043332,131.885414 112.808959,131.250004 112.655313,130.53125 C112.501666,129.812496 112.424844,129.013025 112.424844,128.132812 C112.424844,127.408851 112.475624,126.739586 112.577188,126.125 C112.678751,125.510414 112.836301,124.953127 113.049844,124.453125 C113.263386,123.953123 113.527707,123.528648 113.842813,123.179688 C114.157918,122.830727 114.534217,122.561199 114.971719,122.371094 C115.409221,122.180989 115.896195,122.085938 116.432656,122.085938 C117.099326,122.085938 117.689164,122.231769 118.202188,122.523438 C118.715211,122.815106 119.131873,123.230466 119.452188,123.769531 C119.772502,124.308596 120.013385,124.944007 120.174844,125.675781 C120.336303,126.407556 120.417031,127.226558 120.417031,128.132812 C120.417031,129.013025 120.341511,129.812496 120.190469,130.53125 C120.039426,131.250004 119.807658,131.885414 119.495156,132.4375 C119.182655,132.989586 118.765992,133.419269 118.245156,133.726562 Z M117.799844,123.90625 C117.419634,123.484373 116.963909,123.273438 116.432656,123.273438 C115.901404,123.273438 115.445679,123.483071 115.065469,123.902344 C114.685259,124.321617 114.400105,124.889319 114.21,125.605469 C114.019895,126.321618 113.924844,127.148433 113.924844,128.085938 C113.924844,129.039067 114.019895,129.881507 114.21,130.613281 C114.400105,131.345056 114.685259,131.924477 115.065469,132.351562 C115.445679,132.778648 115.901404,132.992188 116.432656,132.992188 C116.963909,132.992188 117.419634,132.778648 117.799844,132.351562 C118.180054,131.924477 118.465207,131.345056 118.655313,130.613281 C118.845418,129.881507 118.940469,129.039067 118.940469,128.085938 C118.940469,127.148433 118.845418,126.321618 118.655313,125.605469 C118.465207,124.889319 118.180054,124.322919 117.799844,123.90625 Z M123.547656,134.09375 C123.224738,134.09375 122.970834,133.990886 122.785938,133.785156 C122.601041,133.579426 122.508594,133.338543 122.508594,133.0625 C122.508594,132.781249 122.599739,132.539064 122.782031,132.335938 C122.964324,132.132811 123.21953,132.03125 123.547656,132.03125 C123.875783,132.03125 124.130989,132.132811 124.313281,132.335938 C124.495574,132.539064 124.586719,132.781249 124.586719,133.0625 C124.586719,133.343751 124.495574,133.585936 124.313281,133.789062 C124.130989,133.992189 123.875783,134.09375 123.547656,134.09375 Z M133.451719,122.3125 L133.342344,123.59375 L128.568906,123.59375 C128.516823,125.109383 128.477761,126.335933 128.451719,127.273438 C129.040263,126.898436 129.678278,126.710938 130.365781,126.710938 C130.943909,126.710938 131.460831,126.803384 131.916563,126.988281 C132.372294,127.173178 132.744686,127.427082 133.03375,127.75 C133.322814,128.072918 133.542864,128.449217 133.693906,128.878906 C133.844949,129.308596 133.920469,129.773435 133.920469,130.273438 C133.920469,131.455735 133.541566,132.40234 132.78375,133.113281 C132.025934,133.824222 130.995996,134.179688 129.693906,134.179688 C128.386608,134.179688 127.339744,133.82292 126.553281,133.109375 L127.061094,132.007812 C127.831931,132.611982 128.725151,132.914062 129.740781,132.914062 C130.594952,132.914062 131.269425,132.671877 131.764219,132.1875 C132.259013,131.703123 132.506406,131.070316 132.506406,130.289062 C132.506406,129.591142 132.298075,129.024742 131.881406,128.589844 C131.464738,128.154946 130.870993,127.9375 130.100156,127.9375 C129.329319,127.9375 128.709534,128.19531 128.240781,128.710938 L127.154844,128.5625 L127.459531,122.3125 L133.451719,122.3125 Z" id="Impurity-=-0.5" fill="#000000"></path>
        </g>
        <path d="M209.412344,86.4453125 L210.857656,86.4453125 L206.662344,98 L205.256094,98 L201.076406,86.4453125 L202.521719,86.4453125 L205.092031,93.7734375 C205.425366,94.7265673 205.714426,95.6249958 205.959219,96.46875 C206.037344,96.078123 206.329008,95.1718821 206.834219,93.75 C207.646723,91.4218634 208.506089,88.9869919 209.412344,86.4453125 Z M212.199219,96.09375 C213.40235,96.687503 214.691399,96.984375 216.066406,96.984375 C217.759123,96.984375 218.605469,96.2135494 218.605469,94.671875 C218.605469,94.1718725 218.471356,93.7669286 218.203125,93.4570312 C217.934894,93.1471339 217.446618,92.9036467 216.738281,92.7265625 L214.441406,92.1484375 C212.686189,91.705727 211.808594,90.7682363 211.808594,89.3359375 C211.808594,88.2369737 212.186194,87.4205756 212.941406,86.8867188 C213.696618,86.3528619 214.740879,86.0859375 216.074219,86.0859375 C216.772139,86.0859375 217.425778,86.1614576 218.035156,86.3125 C218.644534,86.4635424 219.154946,86.6666654 219.566406,86.921875 L219.175781,88.0234375 C218.826821,87.8307282 218.364586,87.6588549 217.789062,87.5078125 C217.213539,87.3567701 216.631513,87.28125 216.042969,87.28125 C214.157543,87.28125 213.214844,87.9348893 213.214844,89.2421875 C213.214844,89.684898 213.359374,90.0403632 213.648438,90.3085938 C213.937501,90.5768243 214.371091,90.7812493 214.949219,90.921875 L217.144531,91.453125 C218.082036,91.6770845 218.792966,92.0351538 219.277344,92.5273438 C219.761721,93.0195337 220.003906,93.7187455 220.003906,94.625 C220.003906,95.8020892 219.643233,96.6887991 218.921875,97.2851562 C218.200517,97.8815134 217.220058,98.1796875 215.980469,98.1796875 C215.053381,98.1796875 214.22917,98.0846364 213.507812,97.8945312 C212.786455,97.7044261 212.214846,97.479168 211.792969,97.21875 L212.199219,96.09375 Z" id="VS" fill="#000000"></path>
        <g id="1" transform="translate(19.000000, 36.000000)">
            <rect id="Rectangle-2" stroke="#000000" stroke-width="2" fill-rule="nonzero" x="1" y="1" width="164" height="106"></rect>
            <path d="M34.7301563,134 L33.3785938,134 L33.3785938,122.445312 L34.7301563,122.445312 L34.7301563,134 Z M48.4154688,134 L48.4154688,129.539062 C48.4154688,129.122394 48.4063543,128.773439 48.388125,128.492188 C48.3698957,128.210936 48.3282295,127.924481 48.263125,127.632812 C48.1980205,127.341144 48.1068756,127.110678 47.9896875,126.941406 C47.8724994,126.772135 47.7097406,126.634115 47.5014063,126.527344 C47.2930719,126.420572 47.0430744,126.367188 46.7514063,126.367188 C46.1784867,126.367188 45.6902104,126.520832 45.2865625,126.828125 C44.8829146,127.135418 44.5951571,127.567706 44.4232813,128.125 C44.376406,128.500002 44.3529688,128.90104 44.3529688,129.328125 L44.3529688,134 L43.0482813,134 L43.0482813,129.398438 C43.0482813,129.013019 43.0352605,128.678387 43.0092188,128.394531 C42.983177,128.110676 42.9336983,127.834637 42.8607813,127.566406 C42.7878642,127.298176 42.6902089,127.08073 42.5678125,126.914062 C42.4454161,126.747395 42.2826573,126.614584 42.0795313,126.515625 C41.8764052,126.416666 41.6342202,126.367188 41.3529688,126.367188 C40.7279656,126.367188 40.2032313,126.52604 39.77875,126.84375 C39.3542687,127.16146 39.0691153,127.583331 38.9232813,128.109375 C38.876406,128.510419 38.8529688,128.94531 38.8529688,129.414062 L38.8529688,134 L37.5482813,134 C37.5378645,128.640598 37.5326563,125.783856 37.5326563,125.429688 L38.6264063,125.429688 L38.7904688,126.65625 C39.0508867,126.260415 39.4206747,125.927085 39.8998438,125.65625 C40.3790128,125.385415 40.9232782,125.25 41.5326563,125.25 C41.8503662,125.25 42.143332,125.282552 42.4115625,125.347656 C42.679793,125.412761 42.9037491,125.494791 43.0834375,125.59375 C43.2631259,125.692709 43.4232805,125.811197 43.5639063,125.949219 C43.704532,126.08724 43.8139059,126.222656 43.8920313,126.355469 C43.9701566,126.488282 44.0352602,126.627603 44.0873438,126.773438 C44.7123469,125.757807 45.6680665,125.25 46.9545313,125.25 C47.907661,125.25 48.6068728,125.522133 49.0521875,126.066406 C49.4975022,126.61068 49.7201563,127.416661 49.7201563,128.484375 L49.7201563,134 L48.4154688,134 Z M51.6242188,137.71875 L51.6242188,125.429688 L52.7726563,125.429688 L52.8976563,126.59375 C53.64766,125.697912 54.5486927,125.25 55.6007813,125.25 C56.3820352,125.25 57.0434869,125.445311 57.5851563,125.835938 C58.1268256,126.226564 58.5265612,126.755205 58.784375,127.421875 C59.0421888,128.088545 59.1710938,128.867183 59.1710938,129.757812 C59.1710938,130.611983 59.0304702,131.37109 58.7492188,132.035156 C58.4679673,132.699222 58.0552111,133.222654 57.5109375,133.605469 C56.9666639,133.988283 56.3299516,134.179688 55.6007813,134.179688 C55.0486952,134.179688 54.5304712,134.055991 54.0460938,133.808594 C53.5617163,133.561197 53.1736994,133.234377 52.8820313,132.828125 C52.9132814,133.390628 52.9289063,133.937497 52.9289063,134.46875 L52.9289063,137.632812 L51.6242188,137.71875 Z M55.4210938,133.078125 C55.8169291,133.078125 56.1710922,132.988282 56.4835938,132.808594 C56.7960953,132.628905 57.048697,132.382814 57.2414063,132.070312 C57.4341155,131.757811 57.5799474,131.402346 57.6789063,131.003906 C57.7778651,130.605467 57.8273438,130.174481 57.8273438,129.710938 C57.8273438,128.731766 57.6216166,127.928389 57.2101563,127.300781 C56.7986959,126.673174 56.1971394,126.359375 55.4054688,126.359375 C53.7492105,126.359375 52.9210938,127.429677 52.9210938,129.570312 C52.9210938,130.731777 53.1151022,131.606768 53.503125,132.195312 C53.8911478,132.783857 54.5304643,133.078125 55.4210938,133.078125 Z M60.9501563,131.140625 L60.9501563,125.429688 L62.2626563,125.429688 L62.2626563,131.15625 C62.2626563,131.531252 62.3160411,131.848957 62.4228125,132.109375 C62.5295839,132.369793 62.6832282,132.571614 62.88375,132.714844 C63.0842718,132.858074 63.3108321,132.960937 63.5634375,133.023438 C63.8160429,133.085938 64.1064046,133.117188 64.4345313,133.117188 C65.111618,133.117188 65.6389564,132.968751 66.0165625,132.671875 C66.3941686,132.374999 66.5829688,131.869795 66.5829688,131.15625 L66.5829688,125.429688 L67.8954688,125.429688 L67.8954688,131.140625 C67.8954688,131.578127 67.8329694,131.971352 67.7079688,132.320312 C67.5829681,132.669273 67.4150011,132.959634 67.2040625,133.191406 C66.9931239,133.423178 66.7392202,133.614583 66.4423438,133.765625 C66.1454673,133.916667 65.8316683,134.026041 65.5009375,134.09375 C65.1702067,134.161459 64.8147415,134.195312 64.4345313,134.195312 C64.0595294,134.195312 63.7053663,134.161459 63.3720313,134.09375 C63.0386963,134.026041 62.7222932,133.915365 62.4228125,133.761719 C62.1233318,133.608072 61.8655219,133.415366 61.649375,133.183594 C61.4332281,132.951822 61.2626569,132.66146 61.1376563,132.3125 C61.0126556,131.96354 60.9501563,131.572919 60.9501563,131.140625 Z M73.9245313,125.351562 C74.1589074,125.351562 74.372447,125.367187 74.5651563,125.398438 L74.5182813,126.601562 C74.2786967,126.559896 74.0703655,126.539062 73.8932813,126.539062 C73.1641109,126.539062 72.5716689,126.792966 72.1159375,127.300781 C71.6602061,127.808596 71.4323438,128.437496 71.4323438,129.1875 L71.4323438,134 L70.1276563,134 C70.1224479,128.739557 70.1198438,125.882815 70.1198438,125.429688 L71.2057813,125.429688 L71.3307813,126.96875 C71.6276577,126.484373 72.0052581,126.093751 72.4635938,125.796875 C72.9219294,125.499999 73.4089037,125.351562 73.9245313,125.351562 Z M77.6879688,125.429688 L77.6879688,134 L76.3754688,134 L76.3754688,125.429688 L77.6879688,125.429688 Z M77.6879688,122.3125 L77.6879688,123.859375 L76.3754688,123.859375 L76.3754688,122.3125 L77.6879688,122.3125 Z M83.1154688,134.15625 C82.2717145,134.15625 81.6727622,133.950523 81.3185938,133.539062 C80.9644253,133.127602 80.7769272,132.463546 80.7560938,131.546875 L80.7560938,126.398438 L79.4826563,126.398438 L79.5373438,125.539062 L80.7482813,125.429688 L81.1935938,123.46875 L82.0529688,123.4375 L82.0529688,125.429688 L84.4357813,125.429688 L84.4357813,126.398438 L82.0529688,126.398438 L82.0529688,131.3125 C82.0529688,131.963545 82.1519261,132.421874 82.3498438,132.6875 C82.5477614,132.953126 82.8862997,133.085938 83.3654688,133.085938 C83.5373446,133.085938 83.9097367,133.044271 84.4826563,132.960938 L84.5373438,133.992188 C83.917549,134.101563 83.4435954,134.15625 83.1154688,134.15625 Z M85.0742188,125.429688 L86.4570313,125.429688 L89.1601563,132.5625 L91.5664063,125.429688 L92.9492188,125.429688 C90.6367072,131.794303 89.4414066,135.07552 89.3632813,135.273438 C89.0039045,136.174484 88.569013,136.834633 88.0585938,137.253906 C87.5481745,137.673179 86.8763063,137.882812 86.0429688,137.882812 C85.7929675,137.882812 85.5299493,137.861979 85.2539063,137.820312 L85.1757813,136.710938 C85.4674494,136.731771 85.6861972,136.742188 85.8320313,136.742188 C86.4205759,136.742188 86.867186,136.634116 87.171875,136.417969 C87.476564,136.201822 87.7486967,135.796878 87.9882813,135.203125 C88.201824,134.656247 88.3606766,134.234376 88.4648438,133.9375 L85.0742188,125.429688 Z M98.5385938,131.054688 L98.5385938,129.945312 L106.077656,129.945312 L106.077656,131.054688 L98.5385938,131.054688 Z M98.5307813,127.757812 L98.5307813,126.632812 L106.077656,126.632812 L106.077656,127.757812 L98.5307813,127.757812 Z M118.245156,133.726562 C117.729529,134.028647 117.125368,134.179688 116.432656,134.179688 C115.739944,134.179688 115.13318,134.027345 114.612344,133.722656 C114.091508,133.417967 113.673543,132.989586 113.358438,132.4375 C113.043332,131.885414 112.808959,131.250004 112.655313,130.53125 C112.501666,129.812496 112.424844,129.013025 112.424844,128.132812 C112.424844,127.408851 112.475624,126.739586 112.577188,126.125 C112.678751,125.510414 112.836301,124.953127 113.049844,124.453125 C113.263386,123.953123 113.527707,123.528648 113.842813,123.179688 C114.157918,122.830727 114.534217,122.561199 114.971719,122.371094 C115.409221,122.180989 115.896195,122.085938 116.432656,122.085938 C117.099326,122.085938 117.689164,122.231769 118.202188,122.523438 C118.715211,122.815106 119.131873,123.230466 119.452188,123.769531 C119.772502,124.308596 120.013385,124.944007 120.174844,125.675781 C120.336303,126.407556 120.417031,127.226558 120.417031,128.132812 C120.417031,129.013025 120.341511,129.812496 120.190469,130.53125 C120.039426,131.250004 119.807658,131.885414 119.495156,132.4375 C119.182655,132.989586 118.765992,133.419269 118.245156,133.726562 Z M117.799844,123.90625 C117.419634,123.484373 116.963909,123.273438 116.432656,123.273438 C115.901404,123.273438 115.445679,123.483071 115.065469,123.902344 C114.685259,124.321617 114.400105,124.889319 114.21,125.605469 C114.019895,126.321618 113.924844,127.148433 113.924844,128.085938 C113.924844,129.039067 114.019895,129.881507 114.21,130.613281 C114.400105,131.345056 114.685259,131.924477 115.065469,132.351562 C115.445679,132.778648 115.901404,132.992188 116.432656,132.992188 C116.963909,132.992188 117.419634,132.778648 117.799844,132.351562 C118.180054,131.924477 118.465207,131.345056 118.655313,130.613281 C118.845418,129.881507 118.940469,129.039067 118.940469,128.085938 C118.940469,127.148433 118.845418,126.321618 118.655313,125.605469 C118.465207,124.889319 118.180054,124.322919 117.799844,123.90625 Z M123.547656,134.09375 C123.224738,134.09375 122.970834,133.990886 122.785938,133.785156 C122.601041,133.579426 122.508594,133.338543 122.508594,133.0625 C122.508594,132.781249 122.599739,132.539064 122.782031,132.335938 C122.964324,132.132811 123.21953,132.03125 123.547656,132.03125 C123.875783,132.03125 124.130989,132.132811 124.313281,132.335938 C124.495574,132.539064 124.586719,132.781249 124.586719,133.0625 C124.586719,133.343751 124.495574,133.585936 124.313281,133.789062 C124.130989,133.992189 123.875783,134.09375 123.547656,134.09375 Z M133.451719,122.3125 L133.342344,123.59375 L128.568906,123.59375 C128.516823,125.109383 128.477761,126.335933 128.451719,127.273438 C129.040263,126.898436 129.678278,126.710938 130.365781,126.710938 C130.943909,126.710938 131.460831,126.803384 131.916563,126.988281 C132.372294,127.173178 132.744686,127.427082 133.03375,127.75 C133.322814,128.072918 133.542864,128.449217 133.693906,128.878906 C133.844949,129.308596 133.920469,129.773435 133.920469,130.273438 C133.920469,131.455735 133.541566,132.40234 132.78375,133.113281 C132.025934,133.824222 130.995996,134.179688 129.693906,134.179688 C128.386608,134.179688 127.339744,133.82292 126.553281,133.109375 L127.061094,132.007812 C127.831931,132.611982 128.725151,132.914062 129.740781,132.914062 C130.594952,132.914062 131.269425,132.671877 131.764219,132.1875 C132.259013,131.703123 132.506406,131.070316 132.506406,130.289062 C132.506406,129.591142 132.298075,129.024742 131.881406,128.589844 C131.464738,128.154946 130.870993,127.9375 130.100156,127.9375 C129.329319,127.9375 128.709534,128.19531 128.240781,128.710938 L127.154844,128.5625 L127.459531,122.3125 L133.451719,122.3125 Z" id="Impurity-=-0.5" fill="#000000"></path>
        </g>
        <circle id="Oval-Copy-2" fill="#4C7EF3" fill-rule="nonzero" cx="102" cy="68" r="15"></circle>
        <circle id="Oval-Copy-5" fill="#F8E71C" fill-rule="nonzero" cx="102" cy="112" r="15"></circle>
    </g>
</svg>