<?xml version="1.0" encoding="UTF-8"?>
<svg width="421px" height="386px" viewBox="0 0 421 386" version="1.1" xmlns="http://www.w3.org/2000/svg" xmlns:xlink="http://www.w3.org/1999/xlink">
    <!-- Generator: Sketch 52.5 (67469) - http://www.bohemiancoding.com/sketch -->
    <title>Informationgain_4</title>
    <desc>Created with Sketch.</desc>
    <g id="Informationgain_4" stroke="none" stroke-width="1" fill="none" fill-rule="evenodd">
        <rect fill="#FFFFFF" x="0" y="0" width="421" height="386"></rect>
        <rect id="Rectangle-2-Copy" stroke="#000000" stroke-width="2" fill-rule="nonzero" x="130" y="45" width="164" height="86"></rect>
        <rect id="Rectangle-2-Copy-2" stroke="#000000" stroke-width="2" fill-rule="nonzero" x="25" y="200" width="116" height="70"></rect>
        <rect id="Rectangle-2-Copy-3" stroke="#000000" stroke-width="2" fill-rule="nonzero" x="153" y="200" width="116" height="70"></rect>
        <rect id="Rectangle-2-Copy-4" stroke="#000000" stroke-width="2" fill-rule="nonzero" x="281" y="200" width="116" height="70"></rect>
        <circle id="Oval-Copy" fill="#4C7EF3" fill-rule="nonzero" cx="158" cy="73" r="10"></circle>
        <circle id="Oval-Copy-4" fill="#F8E71C" fill-rule="nonzero" cx="158" cy="103" r="10"></circle>
        <circle id="Oval-Copy-2" fill="#4C7EF3" fill-rule="nonzero" cx="185" cy="73" r="10"></circle>
        <circle id="Oval-Copy-5" fill="#F8E71C" fill-rule="nonzero" cx="185" cy="103" r="10"></circle>
        <circle id="Oval-Copy-3" fill="#4C7EF3" fill-rule="nonzero" cx="212" cy="73" r="10"></circle>
        <circle id="Oval-Copy-15" fill="#4C7EF3" fill-rule="nonzero" cx="46" cy="222" r="10"></circle>
        <circle id="Oval-Copy-18" fill="#4C7EF3" fill-rule="nonzero" cx="71" cy="222" r="10"></circle>
        <circle id="Oval-Copy-24" fill="#4C7EF3" fill-rule="nonzero" cx="96" cy="222" r="10"></circle>
        <circle id="Oval-Copy-25" fill="#4C7EF3" fill-rule="nonzero" cx="121" cy="222" r="10"></circle>
        <circle id="Oval-Copy-16" fill="#4C7EF3" fill-rule="nonzero" cx="211" cy="222" r="10"></circle>
        <circle id="Oval-Copy-7" fill="#4C7EF3" fill-rule="nonzero" cx="239" cy="73" r="10"></circle>
        <circle id="Oval-Copy-9" fill="#4C7EF3" fill-rule="nonzero" cx="266" cy="73" r="10"></circle>
        <circle id="Oval-Copy-6" fill="#F8E71C" fill-rule="nonzero" cx="212" cy="103" r="10"></circle>
        <circle id="Oval-Copy-23" fill="#F8E71C" fill-rule="nonzero" cx="183" cy="248" r="10"></circle>
        <circle id="Oval-Copy-26" fill="#F8E71C" fill-rule="nonzero" cx="239" cy="248" r="10"></circle>
        <circle id="Oval-Copy-20" fill="#F8E71C" fill-rule="nonzero" cx="325" cy="248" r="10"></circle>
        <circle id="Oval-Copy-21" fill="#F8E71C" fill-rule="nonzero" cx="353" cy="248" r="10"></circle>
        <circle id="Oval-Copy-8" fill="#F8E71C" fill-rule="nonzero" cx="239" cy="103" r="10"></circle>
        <circle id="Oval-Copy-10" fill="#F8E71C" fill-rule="nonzero" cx="266" cy="103" r="10"></circle>
        <path d="M168.326387,34 L167.14377,34 L167.14377,23.8896484 L168.326387,23.8896484 L168.326387,34 Z M180.301035,34 L180.301035,30.0966797 C180.301035,29.7320945 180.29306,29.426759 180.277109,29.1806641 C180.261159,28.9345691 180.224701,28.6839205 180.167734,28.4287109 C180.110768,28.1735013 180.031016,27.9718432 179.928477,27.8237305 C179.825937,27.6756177 179.683523,27.5548507 179.50123,27.4614258 C179.318938,27.3680008 179.10019,27.3212891 178.84498,27.3212891 C178.343676,27.3212891 177.916434,27.4557278 177.563242,27.7246094 C177.21005,27.9934909 176.958262,28.3717424 176.807871,28.859375 C176.766855,29.1875016 176.746348,29.5384096 176.746348,29.9121094 L176.746348,34 L175.604746,34 L175.604746,29.9736328 C175.604746,29.6363915 175.593353,29.3435885 175.570566,29.0952148 C175.54778,28.8468412 175.504486,28.6053072 175.440684,28.3706055 C175.376881,28.1359038 175.291433,27.9456388 175.184336,27.7998047 C175.077239,27.6539706 174.934825,27.5377608 174.75709,27.4511719 C174.579355,27.3645829 174.367443,27.3212891 174.121348,27.3212891 C173.57447,27.3212891 173.115327,27.4602851 172.743906,27.7382812 C172.372485,28.0162774 172.122976,28.3854144 171.995371,28.8457031 C171.954355,29.1966163 171.933848,29.5771464 171.933848,29.9873047 L171.933848,34 L170.792246,34 C170.783131,29.3105234 170.778574,26.8108739 170.778574,26.5009766 L171.735605,26.5009766 L171.87916,27.5742188 C172.107026,27.2278629 172.43059,26.9361991 172.849863,26.6992188 C173.269136,26.4622384 173.745368,26.34375 174.278574,26.34375 C174.55657,26.34375 174.812915,26.3722328 175.047617,26.4291992 C175.282319,26.4861656 175.47828,26.5579423 175.635508,26.6445312 C175.792735,26.7311202 175.93287,26.8347976 176.055918,26.9555664 C176.178965,27.0763352 176.274668,27.1948236 176.343027,27.3110352 C176.411387,27.4272467 176.468353,27.549153 176.513926,27.6767578 C177.060804,26.7880815 177.897058,26.34375 179.022715,26.34375 C179.856703,26.34375 180.468514,26.5818661 180.858164,27.0581055 C181.247814,27.5343448 181.442637,28.2395787 181.442637,29.1738281 L181.442637,34 L180.301035,34 Z M183.108691,37.2539062 L183.108691,26.5009766 L184.113574,26.5009766 L184.222949,27.5195312 C184.879203,26.7356732 185.667606,26.34375 186.588184,26.34375 C187.271781,26.34375 187.850551,26.5146467 188.324512,26.8564453 C188.798472,27.1982439 189.148241,27.6608044 189.373828,28.2441406 C189.599415,28.8274769 189.712207,29.5087852 189.712207,30.2880859 C189.712207,31.0354855 189.589161,31.6997041 189.343066,32.2807617 C189.096971,32.8618193 188.73581,33.3198225 188.25957,33.6547852 C187.783331,33.9897478 187.226208,34.1572266 186.588184,34.1572266 C186.105108,34.1572266 185.651662,34.048992 185.227832,33.8325195 C184.804002,33.6160471 184.464487,33.3300799 184.209277,32.9746094 C184.236621,33.4667993 184.250293,33.9453102 184.250293,34.4101562 L184.250293,37.1787109 L183.108691,37.2539062 Z M186.430957,33.1933594 C186.777313,33.1933594 187.087206,33.1147469 187.360645,32.9575195 C187.634083,32.8002922 187.85511,32.5849623 188.02373,32.3115234 C188.192351,32.0380846 188.319954,31.7270525 188.406543,31.378418 C188.493132,31.0297834 188.536426,30.6526713 188.536426,30.2470703 C188.536426,29.3902952 188.356415,28.68734 187.996387,28.1381836 C187.636359,27.5890272 187.109997,27.3144531 186.417285,27.3144531 C184.968059,27.3144531 184.243457,28.2509672 184.243457,30.1240234 C184.243457,31.1403046 184.413214,31.9059219 184.752734,32.4208984 C185.092254,32.935875 185.651656,33.1933594 186.430957,33.1933594 Z M191.268887,31.4980469 L191.268887,26.5009766 L192.417324,26.5009766 L192.417324,31.5117188 C192.417324,31.8398454 192.464036,32.1178374 192.557461,32.3457031 C192.650886,32.5735688 192.785325,32.7501621 192.960781,32.8754883 C193.136238,33.0008144 193.334478,33.09082 193.555508,33.1455078 C193.776538,33.2001956 194.030604,33.2275391 194.317715,33.2275391 C194.910166,33.2275391 195.371587,33.0976575 195.701992,32.8378906 C196.032397,32.5781237 196.197598,32.1360708 196.197598,31.5117188 L196.197598,26.5009766 L197.346035,26.5009766 L197.346035,31.4980469 C197.346035,31.8808613 197.291348,32.2249334 197.181973,32.5302734 C197.072597,32.8356135 196.925626,33.08968 196.741055,33.2924805 C196.556483,33.495281 196.334318,33.6627598 196.074551,33.7949219 C195.814784,33.927084 195.54021,34.0227862 195.25082,34.0820312 C194.961431,34.1412763 194.650399,34.1708984 194.317715,34.1708984 C193.989588,34.1708984 193.679695,34.1412763 193.388027,34.0820312 C193.096359,34.0227862 192.819507,33.9259447 192.557461,33.7915039 C192.295415,33.6570631 192.069832,33.488445 191.880703,33.2856445 C191.691575,33.082844 191.542325,32.8287776 191.432949,32.5234375 C191.323574,32.2180974 191.268887,31.876304 191.268887,31.4980469 Z M202.621465,26.4326172 C202.826544,26.4326172 203.013391,26.4462889 203.182012,26.4736328 L203.140996,27.5263672 C202.93136,27.4899087 202.74907,27.4716797 202.594121,27.4716797 C201.956097,27.4716797 201.43771,27.6938454 201.038945,28.1381836 C200.64018,28.5825218 200.440801,29.1328092 200.440801,29.7890625 L200.440801,34 L199.299199,34 C199.294642,29.3971124 199.292363,26.8974629 199.292363,26.5009766 L200.242559,26.5009766 L200.351934,27.8476562 C200.611701,27.423826 200.942101,27.0820325 201.343145,26.8222656 C201.744188,26.5624987 202.170291,26.4326172 202.621465,26.4326172 Z M205.914473,26.5009766 L205.914473,34 L204.766035,34 L204.766035,26.5009766 L205.914473,26.5009766 Z M205.914473,23.7734375 L205.914473,25.1269531 L204.766035,25.1269531 L204.766035,23.7734375 L205.914473,23.7734375 Z M210.663535,34.1367188 C209.92525,34.1367188 209.401167,33.9567075 209.09127,33.5966797 C208.781372,33.2366518 208.617311,32.655603 208.599082,31.8535156 L208.599082,27.3486328 L207.484824,27.3486328 L207.532676,26.5966797 L208.592246,26.5009766 L208.981895,24.7851562 L209.733848,24.7578125 L209.733848,26.5009766 L211.818809,26.5009766 L211.818809,27.3486328 L209.733848,27.3486328 L209.733848,31.6484375 C209.733848,32.2181018 209.820435,32.6191395 209.993613,32.8515625 C210.166791,33.0839855 210.463012,33.2001953 210.882285,33.2001953 C211.032677,33.2001953 211.35852,33.1637373 211.859824,33.0908203 L211.907676,33.9931641 C211.365355,34.0888677 210.950646,34.1367188 210.663535,34.1367188 Z M212.377441,26.5009766 L213.587402,26.5009766 L215.952637,32.7421875 L218.058105,26.5009766 L219.268066,26.5009766 C217.244619,32.0700148 216.198731,34.9410799 216.130371,35.1142578 C215.815916,35.9026732 215.435386,36.4803042 214.98877,36.847168 C214.542153,37.2140318 213.954268,37.3974609 213.225098,37.3974609 C213.006347,37.3974609 212.776206,37.379232 212.534668,37.3427734 L212.466309,36.3720703 C212.721518,36.3902996 212.912923,36.3994141 213.040527,36.3994141 C213.555504,36.3994141 213.946288,36.3048512 214.212891,36.1157227 C214.479494,35.9265941 214.71761,35.5722682 214.927246,35.0527344 C215.114096,34.5742164 215.253092,34.2050794 215.344238,33.9453125 L212.377441,26.5009766 Z M224.15877,31.4228516 L224.15877,30.4521484 L230.755449,30.4521484 L230.755449,31.4228516 L224.15877,31.4228516 Z M224.151934,28.5380859 L224.151934,27.5537109 L230.755449,27.5537109 L230.755449,28.5380859 L224.151934,28.5380859 Z M241.402012,33.7607422 C240.950838,34.0250664 240.422197,34.1572266 239.816074,34.1572266 C239.209951,34.1572266 238.679032,34.0239271 238.223301,33.7573242 C237.767569,33.4907213 237.40185,33.1158878 237.126133,32.6328125 C236.850415,32.1497372 236.645339,31.5937531 236.510898,30.9648438 C236.376458,30.3359344 236.309238,29.6363971 236.309238,28.8662109 C236.309238,28.2327442 236.353671,27.6471381 236.442539,27.109375 C236.531407,26.5716119 236.669263,26.0839866 236.856113,25.6464844 C237.042963,25.2089822 237.274243,24.8375666 237.549961,24.5322266 C237.825678,24.2268865 238.154939,23.991049 238.537754,23.824707 C238.920568,23.6583651 239.346671,23.5751953 239.816074,23.5751953 C240.39941,23.5751953 240.915519,23.7027982 241.364414,23.9580078 C241.81331,24.2132174 242.177889,24.5766578 242.458164,25.0483398 C242.738439,25.5200219 242.949212,26.0760059 243.090488,26.7163086 C243.231765,27.3566113 243.302402,28.0732382 243.302402,28.8662109 C243.302402,29.6363971 243.236322,30.3359344 243.10416,30.9648438 C242.971998,31.5937531 242.769201,32.1497372 242.495762,32.6328125 C242.222323,33.1158878 241.857743,33.4918606 241.402012,33.7607422 Z M241.012363,25.1679688 C240.679679,24.7988263 240.28092,24.6142578 239.816074,24.6142578 C239.351228,24.6142578 238.952469,24.797687 238.619785,25.1645508 C238.287101,25.5314146 238.037592,26.0281544 237.87125,26.6547852 C237.704908,27.2814159 237.621738,28.0048787 237.621738,28.8251953 C237.621738,29.6591839 237.704908,30.3963184 237.87125,31.0366211 C238.037592,31.6769238 238.287101,32.1839174 238.619785,32.5576172 C238.952469,32.931317 239.351228,33.1181641 239.816074,33.1181641 C240.28092,33.1181641 240.679679,32.931317 241.012363,32.5576172 C241.345047,32.1839174 241.594556,31.6769238 241.760898,31.0366211 C241.92724,30.3963184 242.01041,29.6591839 242.01041,28.8251953 C242.01041,28.0048787 241.92724,27.2814159 241.760898,26.6547852 C241.594556,26.0281544 241.345047,25.5325539 241.012363,25.1679688 Z M246.041699,34.0820312 C245.759146,34.0820312 245.53698,33.9920256 245.375195,33.8120117 C245.213411,33.6319978 245.13252,33.4212252 245.13252,33.1796875 C245.13252,32.9335925 245.212271,32.7216806 245.371777,32.5439453 C245.531283,32.36621 245.754588,32.2773438 246.041699,32.2773438 C246.32881,32.2773438 246.552115,32.36621 246.711621,32.5439453 C246.871127,32.7216806 246.950879,32.9335925 246.950879,33.1796875 C246.950879,33.4257825 246.871127,33.6376944 246.711621,33.8154297 C246.552115,33.993165 246.32881,34.0820312 246.041699,34.0820312 Z M254.707754,23.7734375 L254.612051,24.8945312 L250.435293,24.8945312 C250.38972,26.2207098 250.35554,27.2939412 250.332754,28.1142578 C250.84773,27.7861312 251.405993,27.6220703 252.007559,27.6220703 C252.51342,27.6220703 252.965727,27.7029614 253.364492,27.8647461 C253.763257,28.0265308 254.0891,28.2486965 254.342031,28.53125 C254.594962,28.8138035 254.787506,29.1430645 254.919668,29.519043 C255.05183,29.8950214 255.11791,30.3017556 255.11791,30.7392578 C255.11791,31.7737682 254.786371,32.6020477 254.123281,33.2241211 C253.460192,33.8461945 252.558997,34.1572266 251.419668,34.1572266 C250.275782,34.1572266 249.359776,33.8450552 248.671621,33.2207031 L249.115957,32.2568359 C249.79044,32.7854844 250.572007,33.0498047 251.460684,33.0498047 C252.208083,33.0498047 252.798247,32.8378927 253.231191,32.4140625 C253.664136,31.9902323 253.880605,31.4365269 253.880605,30.7529297 C253.880605,30.1422496 253.698316,29.646649 253.33373,29.2661133 C252.969145,28.8855775 252.449619,28.6953125 251.775137,28.6953125 C251.100654,28.6953125 250.558342,28.9208962 250.148184,29.3720703 L249.197988,29.2421875 L249.46459,23.7734375 L254.707754,23.7734375 Z" id="Impurity-=-0.5" fill="#000000"></path>
        <path d="M46.2478125,291 L45.0651953,291 L45.0651953,280.889648 L46.2478125,280.889648 L46.2478125,291 Z M58.2224609,291 L58.2224609,287.09668 C58.2224609,286.732095 58.2144858,286.426759 58.1985352,286.180664 C58.1825846,285.934569 58.1461266,285.683921 58.0891602,285.428711 C58.0321937,285.173501 57.9524419,284.971843 57.8499023,284.82373 C57.7473628,284.675618 57.6049488,284.554851 57.4226563,284.461426 C57.2403637,284.368001 57.0216159,284.321289 56.7664063,284.321289 C56.2651017,284.321289 55.8378598,284.455728 55.484668,284.724609 C55.1314761,284.993491 54.8796883,285.371742 54.7292969,285.859375 C54.688281,286.187502 54.6677734,286.53841 54.6677734,286.912109 L54.6677734,291 L53.5261719,291 L53.5261719,286.973633 C53.5261719,286.636392 53.5147788,286.343588 53.4919922,286.095215 C53.4692056,285.846841 53.4259118,285.605307 53.3621094,285.370605 C53.298307,285.135904 53.2128586,284.945639 53.1057617,284.799805 C52.9986648,284.653971 52.8562509,284.537761 52.6785156,284.451172 C52.5007804,284.364583 52.2888684,284.321289 52.0427734,284.321289 C51.4958957,284.321289 51.0367532,284.460285 50.665332,284.738281 C50.2939109,285.016277 50.0444017,285.385414 49.9167969,285.845703 C49.875781,286.196616 49.8552734,286.577146 49.8552734,286.987305 L49.8552734,291 L48.7136719,291 C48.7045572,286.310523 48.7,283.810874 48.7,283.500977 L49.6570313,283.500977 L49.8005859,284.574219 C50.0284517,284.227863 50.3520161,283.936199 50.7712891,283.699219 C51.190562,283.462238 51.6667942,283.34375 52.2,283.34375 C52.4779962,283.34375 52.7343413,283.372233 52.969043,283.429199 C53.2037447,283.486166 53.3997062,283.557942 53.5569336,283.644531 C53.7141609,283.73112 53.8542963,283.834798 53.9773438,283.955566 C54.1003912,284.076335 54.1960934,284.194824 54.2644531,284.311035 C54.3328128,284.427247 54.3897784,284.549153 54.4353516,284.676758 C54.9822293,283.788081 55.818484,283.34375 56.9441406,283.34375 C57.7781292,283.34375 58.3899395,283.581866 58.7795898,284.058105 C59.1692402,284.534345 59.3640625,285.239579 59.3640625,286.173828 L59.3640625,291 L58.2224609,291 Z M61.0301172,294.253906 L61.0301172,283.500977 L62.035,283.500977 L62.144375,284.519531 C62.8006283,283.735673 63.5890319,283.34375 64.5096094,283.34375 C65.1932065,283.34375 65.7719768,283.514647 66.2459375,283.856445 C66.7198982,284.198244 67.0696668,284.660804 67.2952539,285.244141 C67.520841,285.827477 67.6336328,286.508785 67.6336328,287.288086 C67.6336328,288.035486 67.5105872,288.699704 67.2644922,289.280762 C67.0183972,289.861819 66.6572355,290.319823 66.1809961,290.654785 C65.7047567,290.989748 65.1476334,291.157227 64.5096094,291.157227 C64.026534,291.157227 63.5730881,291.048992 63.1492578,290.83252 C62.7254276,290.616047 62.3859127,290.33008 62.1307031,289.974609 C62.158047,290.466799 62.1717188,290.94531 62.1717188,291.410156 L62.1717188,294.178711 L61.0301172,294.253906 Z M64.3523828,290.193359 C64.6987387,290.193359 65.0086314,290.114747 65.2820703,289.95752 C65.5555092,289.800292 65.7765356,289.584962 65.9451563,289.311523 C66.1137769,289.038085 66.2413798,288.727053 66.3279688,288.378418 C66.4145577,288.029783 66.4578516,287.652671 66.4578516,287.24707 C66.4578516,286.390295 66.2778403,285.68734 65.9178125,285.138184 C65.5577847,284.589027 65.0314227,284.314453 64.3387109,284.314453 C62.8894849,284.314453 62.1648828,285.250967 62.1648828,287.124023 C62.1648828,288.140305 62.3346402,288.905922 62.6741602,289.420898 C63.0136801,289.935875 63.573082,290.193359 64.3523828,290.193359 Z M69.1903125,288.498047 L69.1903125,283.500977 L70.33875,283.500977 L70.33875,288.511719 C70.33875,288.839845 70.3854618,289.117837 70.4788867,289.345703 C70.5723117,289.573569 70.7067504,289.750162 70.882207,289.875488 C71.0576636,290.000814 71.2559038,290.09082 71.4769336,290.145508 C71.6979633,290.200196 71.9520298,290.227539 72.2391406,290.227539 C72.8315915,290.227539 73.2930127,290.097658 73.623418,289.837891 C73.9538233,289.578124 74.1190234,289.136071 74.1190234,288.511719 L74.1190234,283.500977 L75.2674609,283.500977 L75.2674609,288.498047 C75.2674609,288.880861 75.212774,289.224933 75.1033984,289.530273 C74.9940229,289.835614 74.8470517,290.08968 74.6624805,290.29248 C74.4779092,290.495281 74.2557435,290.66276 73.9959766,290.794922 C73.7362096,290.927084 73.4616356,291.022786 73.1722461,291.082031 C72.8828566,291.141276 72.5718246,291.170898 72.2391406,291.170898 C71.911014,291.170898 71.6011213,291.141276 71.3094531,291.082031 C71.017785,291.022786 70.7409323,290.925945 70.4788867,290.791504 C70.2168411,290.657063 69.9912575,290.488445 69.8021289,290.285645 C69.6130004,290.082844 69.4637505,289.828778 69.354375,289.523438 C69.2449995,289.218097 69.1903125,288.876304 69.1903125,288.498047 Z M80.5428906,283.432617 C80.7479698,283.432617 80.9348169,283.446289 81.1034375,283.473633 L81.0624219,284.526367 C80.8527854,284.489909 80.6704956,284.47168 80.5155469,284.47168 C79.8775229,284.47168 79.3591361,284.693845 78.9603711,285.138184 C78.5616061,285.582522 78.3622266,286.132809 78.3622266,286.789062 L78.3622266,291 L77.220625,291 C77.2160677,286.397112 77.2137891,283.897463 77.2137891,283.500977 L78.1639844,283.500977 L78.2733594,284.847656 C78.5331263,284.423826 78.8635266,284.082033 79.2645703,283.822266 C79.665614,283.562499 80.0917165,283.432617 80.5428906,283.432617 Z M83.8358984,283.500977 L83.8358984,291 L82.6874609,291 L82.6874609,283.500977 L83.8358984,283.500977 Z M83.8358984,280.773438 L83.8358984,282.126953 L82.6874609,282.126953 L82.6874609,280.773438 L83.8358984,280.773438 Z M88.5849609,291.136719 C87.846676,291.136719 87.3225927,290.956708 87.0126953,290.59668 C86.7027979,290.236652 86.5387371,289.655603 86.5205078,288.853516 L86.5205078,284.348633 L85.40625,284.348633 L85.4541016,283.59668 L86.5136719,283.500977 L86.9033203,281.785156 L87.6552734,281.757812 L87.6552734,283.500977 L89.7402344,283.500977 L89.7402344,284.348633 L87.6552734,284.348633 L87.6552734,288.648438 C87.6552734,289.218102 87.7418611,289.619139 87.9150391,289.851562 C88.088217,290.083986 88.384438,290.200195 88.8037109,290.200195 C88.9541023,290.200195 89.2799454,290.163737 89.78125,290.09082 L89.8291016,290.993164 C89.2867811,291.088868 88.8720717,291.136719 88.5849609,291.136719 Z M90.2988672,283.500977 L91.5088281,283.500977 L93.8740625,289.742188 L95.9795313,283.500977 L97.1894922,283.500977 C95.1660446,289.070015 94.1201566,291.94108 94.0517969,292.114258 C93.7373422,292.902673 93.3568121,293.480304 92.9101953,293.847168 C92.4635785,294.214032 91.8756938,294.397461 91.1465234,294.397461 C90.9277723,294.397461 90.6976314,294.379232 90.4560938,294.342773 L90.3877344,293.37207 C90.642944,293.3903 90.8343483,293.399414 90.9619531,293.399414 C91.4769297,293.399414 91.8677135,293.304851 92.1343164,293.115723 C92.4009193,292.926594 92.6390354,292.572268 92.8486719,292.052734 C93.0355218,291.574216 93.1745178,291.205079 93.2656641,290.945312 L90.2988672,283.500977 Z M102.080195,288.422852 L102.080195,287.452148 L108.676875,287.452148 L108.676875,288.422852 L102.080195,288.422852 Z M102.073359,285.538086 L102.073359,284.553711 L108.676875,284.553711 L108.676875,285.538086 L102.073359,285.538086 Z M119.323438,290.760742 C118.872263,291.025066 118.343623,291.157227 117.7375,291.157227 C117.131377,291.157227 116.600458,291.023927 116.144727,290.757324 C115.688995,290.490721 115.323276,290.115888 115.047559,289.632812 C114.771841,289.149737 114.566765,288.593753 114.432324,287.964844 C114.297883,287.335934 114.230664,286.636397 114.230664,285.866211 C114.230664,285.232744 114.275097,284.647138 114.363965,284.109375 C114.452832,283.571612 114.590689,283.083987 114.777539,282.646484 C114.964389,282.208982 115.195669,281.837567 115.471387,281.532227 C115.747104,281.226886 116.076365,280.991049 116.45918,280.824707 C116.841994,280.658365 117.268097,280.575195 117.7375,280.575195 C118.320836,280.575195 118.836944,280.702798 119.28584,280.958008 C119.734735,281.213217 120.099315,281.576658 120.37959,282.04834 C120.659865,282.520022 120.870637,283.076006 121.011914,283.716309 C121.153191,284.356611 121.223828,285.073238 121.223828,285.866211 C121.223828,286.636397 121.157748,287.335934 121.025586,287.964844 C120.893424,288.593753 120.690626,289.149737 120.417188,289.632812 C120.143749,290.115888 119.779169,290.491861 119.323438,290.760742 Z M118.933789,282.167969 C118.601105,281.798826 118.202346,281.614258 117.7375,281.614258 C117.272654,281.614258 116.873895,281.797687 116.541211,282.164551 C116.208527,282.531415 115.959018,283.028154 115.792676,283.654785 C115.626334,284.281416 115.543164,285.004879 115.543164,285.825195 C115.543164,286.659184 115.626334,287.396318 115.792676,288.036621 C115.959018,288.676924 116.208527,289.183917 116.541211,289.557617 C116.873895,289.931317 117.272654,290.118164 117.7375,290.118164 C118.202346,290.118164 118.601105,289.931317 118.933789,289.557617 C119.266473,289.183917 119.515982,288.676924 119.682324,288.036621 C119.848666,287.396318 119.931836,286.659184 119.931836,285.825195 C119.931836,285.004879 119.848666,284.281416 119.682324,283.654785 C119.515982,283.028154 119.266473,282.532554 118.933789,282.167969 Z" id="Impurity-=-0" fill="#000000"></path>
        <path d="M161.250664,291 L160.068047,291 L160.068047,280.889648 L161.250664,280.889648 L161.250664,291 Z M173.225313,291 L173.225313,287.09668 C173.225313,286.732095 173.217337,286.426759 173.201387,286.180664 C173.185436,285.934569 173.148978,285.683921 173.092012,285.428711 C173.035045,285.173501 172.955293,284.971843 172.852754,284.82373 C172.750214,284.675618 172.6078,284.554851 172.425508,284.461426 C172.243215,284.368001 172.024467,284.321289 171.769258,284.321289 C171.267953,284.321289 170.840711,284.455728 170.48752,284.724609 C170.134328,284.993491 169.88254,285.371742 169.732148,285.859375 C169.691133,286.187502 169.670625,286.53841 169.670625,286.912109 L169.670625,291 L168.529023,291 L168.529023,286.973633 C168.529023,286.636392 168.51763,286.343588 168.494844,286.095215 C168.472057,285.846841 168.428763,285.605307 168.364961,285.370605 C168.301159,285.135904 168.21571,284.945639 168.108613,284.799805 C168.001516,284.653971 167.859102,284.537761 167.681367,284.451172 C167.503632,284.364583 167.29172,284.321289 167.045625,284.321289 C166.498747,284.321289 166.039605,284.460285 165.668184,284.738281 C165.296762,285.016277 165.047253,285.385414 164.919648,285.845703 C164.878633,286.196616 164.858125,286.577146 164.858125,286.987305 L164.858125,291 L163.716523,291 C163.707409,286.310523 163.702852,283.810874 163.702852,283.500977 L164.659883,283.500977 L164.803438,284.574219 C165.031303,284.227863 165.354868,283.936199 165.774141,283.699219 C166.193414,283.462238 166.669646,283.34375 167.202852,283.34375 C167.480848,283.34375 167.737193,283.372233 167.971895,283.429199 C168.206596,283.486166 168.402558,283.557942 168.559785,283.644531 C168.717013,283.73112 168.857148,283.834798 168.980195,283.955566 C169.103243,284.076335 169.198945,284.194824 169.267305,284.311035 C169.335664,284.427247 169.39263,284.549153 169.438203,284.676758 C169.985081,283.788081 170.821336,283.34375 171.946992,283.34375 C172.780981,283.34375 173.392791,283.581866 173.782441,284.058105 C174.172092,284.534345 174.366914,285.239579 174.366914,286.173828 L174.366914,291 L173.225313,291 Z M176.032969,294.253906 L176.032969,283.500977 L177.037852,283.500977 L177.147227,284.519531 C177.80348,283.735673 178.591883,283.34375 179.512461,283.34375 C180.196058,283.34375 180.774828,283.514647 181.248789,283.856445 C181.72275,284.198244 182.072518,284.660804 182.298105,285.244141 C182.523693,285.827477 182.636484,286.508785 182.636484,287.288086 C182.636484,288.035486 182.513439,288.699704 182.267344,289.280762 C182.021249,289.861819 181.660087,290.319823 181.183848,290.654785 C180.707608,290.989748 180.150485,291.157227 179.512461,291.157227 C179.029386,291.157227 178.57594,291.048992 178.152109,290.83252 C177.728279,290.616047 177.388764,290.33008 177.133555,289.974609 C177.160899,290.466799 177.17457,290.94531 177.17457,291.410156 L177.17457,294.178711 L176.032969,294.253906 Z M179.355234,290.193359 C179.70159,290.193359 180.011483,290.114747 180.284922,289.95752 C180.558361,289.800292 180.779387,289.584962 180.948008,289.311523 C181.116628,289.038085 181.244231,288.727053 181.33082,288.378418 C181.417409,288.029783 181.460703,287.652671 181.460703,287.24707 C181.460703,286.390295 181.280692,285.68734 180.920664,285.138184 C180.560636,284.589027 180.034274,284.314453 179.341563,284.314453 C177.892337,284.314453 177.167734,285.250967 177.167734,287.124023 C177.167734,288.140305 177.337492,288.905922 177.677012,289.420898 C178.016532,289.935875 178.575934,290.193359 179.355234,290.193359 Z M184.193164,288.498047 L184.193164,283.500977 L185.341602,283.500977 L185.341602,288.511719 C185.341602,288.839845 185.388313,289.117837 185.481738,289.345703 C185.575163,289.573569 185.709602,289.750162 185.885059,289.875488 C186.060515,290.000814 186.258755,290.09082 186.479785,290.145508 C186.700815,290.200196 186.954881,290.227539 187.241992,290.227539 C187.834443,290.227539 188.295864,290.097658 188.62627,289.837891 C188.956675,289.578124 189.121875,289.136071 189.121875,288.511719 L189.121875,283.500977 L190.270313,283.500977 L190.270313,288.498047 C190.270313,288.880861 190.215626,289.224933 190.10625,289.530273 C189.996874,289.835614 189.849903,290.08968 189.665332,290.29248 C189.480761,290.495281 189.258595,290.66276 188.998828,290.794922 C188.739061,290.927084 188.464487,291.022786 188.175098,291.082031 C187.885708,291.141276 187.574676,291.170898 187.241992,291.170898 C186.913866,291.170898 186.603973,291.141276 186.312305,291.082031 C186.020637,291.022786 185.743784,290.925945 185.481738,290.791504 C185.219693,290.657063 184.994109,290.488445 184.80498,290.285645 C184.615852,290.082844 184.466602,289.828778 184.357227,289.523438 C184.247851,289.218097 184.193164,288.876304 184.193164,288.498047 Z M195.545742,283.432617 C195.750821,283.432617 195.937668,283.446289 196.106289,283.473633 L196.065273,284.526367 C195.855637,284.489909 195.673347,284.47168 195.518398,284.47168 C194.880374,284.47168 194.361988,284.693845 193.963223,285.138184 C193.564458,285.582522 193.365078,286.132809 193.365078,286.789062 L193.365078,291 L192.223477,291 C192.218919,286.397112 192.216641,283.897463 192.216641,283.500977 L193.166836,283.500977 L193.276211,284.847656 C193.535978,284.423826 193.866378,284.082033 194.267422,283.822266 C194.668466,283.562499 195.094568,283.432617 195.545742,283.432617 Z M198.83875,283.500977 L198.83875,291 L197.690313,291 L197.690313,283.500977 L198.83875,283.500977 Z M198.83875,280.773438 L198.83875,282.126953 L197.690313,282.126953 L197.690313,280.773438 L198.83875,280.773438 Z M203.587813,291.136719 C202.849528,291.136719 202.325444,290.956708 202.015547,290.59668 C201.705649,290.236652 201.541589,289.655603 201.523359,288.853516 L201.523359,284.348633 L200.409102,284.348633 L200.456953,283.59668 L201.516523,283.500977 L201.906172,281.785156 L202.658125,281.757812 L202.658125,283.500977 L204.743086,283.500977 L204.743086,284.348633 L202.658125,284.348633 L202.658125,288.648438 C202.658125,289.218102 202.744713,289.619139 202.917891,289.851562 C203.091069,290.083986 203.38729,290.200195 203.806563,290.200195 C203.956954,290.200195 204.282797,290.163737 204.784102,290.09082 L204.831953,290.993164 C204.289633,291.088868 203.874923,291.136719 203.587813,291.136719 Z M205.301719,283.500977 L206.51168,283.500977 L208.876914,289.742188 L210.982383,283.500977 L212.192344,283.500977 C210.168896,289.070015 209.123008,291.94108 209.054648,292.114258 C208.740194,292.902673 208.359664,293.480304 207.913047,293.847168 C207.46643,294.214032 206.878545,294.397461 206.149375,294.397461 C205.930624,294.397461 205.700483,294.379232 205.458945,294.342773 L205.390586,293.37207 C205.645796,293.3903 205.8372,293.399414 205.964805,293.399414 C206.479781,293.399414 206.870565,293.304851 207.137168,293.115723 C207.403771,292.926594 207.641887,292.572268 207.851523,292.052734 C208.038373,291.574216 208.177369,291.205079 208.268516,290.945312 L205.301719,283.500977 Z M217.083047,288.422852 L217.083047,287.452148 L223.679727,287.452148 L223.679727,288.422852 L217.083047,288.422852 Z M217.076211,285.538086 L217.076211,284.553711 L223.679727,284.553711 L223.679727,285.538086 L217.076211,285.538086 Z M234.326289,290.760742 C233.875115,291.025066 233.346474,291.157227 232.740352,291.157227 C232.134229,291.157227 231.60331,291.023927 231.147578,290.757324 C230.691847,290.490721 230.326128,290.115888 230.05041,289.632812 C229.774693,289.149737 229.569617,288.593753 229.435176,287.964844 C229.300735,287.335934 229.233516,286.636397 229.233516,285.866211 C229.233516,285.232744 229.277949,284.647138 229.366816,284.109375 C229.455684,283.571612 229.593541,283.083987 229.780391,282.646484 C229.967241,282.208982 230.198521,281.837567 230.474238,281.532227 C230.749956,281.226886 231.079217,280.991049 231.462031,280.824707 C231.844846,280.658365 232.270948,280.575195 232.740352,280.575195 C233.323688,280.575195 233.839796,280.702798 234.288691,280.958008 C234.737587,281.213217 235.102167,281.576658 235.382441,282.04834 C235.662716,282.520022 235.873489,283.076006 236.014766,283.716309 C236.156042,284.356611 236.22668,285.073238 236.22668,285.866211 C236.22668,286.636397 236.1606,287.335934 236.028438,287.964844 C235.896275,288.593753 235.693478,289.149737 235.420039,289.632812 C235.1466,290.115888 234.782021,290.491861 234.326289,290.760742 Z M233.936641,282.167969 C233.603957,281.798826 233.205198,281.614258 232.740352,281.614258 C232.275505,281.614258 231.876746,281.797687 231.544063,282.164551 C231.211379,282.531415 230.961869,283.028154 230.795527,283.654785 C230.629185,284.281416 230.546016,285.004879 230.546016,285.825195 C230.546016,286.659184 230.629185,287.396318 230.795527,288.036621 C230.961869,288.676924 231.211379,289.183917 231.544063,289.557617 C231.876746,289.931317 232.275505,290.118164 232.740352,290.118164 C233.205198,290.118164 233.603957,289.931317 233.936641,289.557617 C234.269325,289.183917 234.518834,288.676924 234.685176,288.036621 C234.851518,287.396318 234.934688,286.659184 234.934688,285.825195 C234.934688,285.004879 234.851518,284.281416 234.685176,283.654785 C234.518834,283.028154 234.269325,282.532554 233.936641,282.167969 Z M238.965977,291.082031 C238.683423,291.082031 238.461257,290.992026 238.299473,290.812012 C238.137688,290.631998 238.056797,290.421225 238.056797,290.179688 C238.056797,289.933593 238.136549,289.721681 238.296055,289.543945 C238.455561,289.36621 238.678866,289.277344 238.965977,289.277344 C239.253087,289.277344 239.476392,289.36621 239.635898,289.543945 C239.795404,289.721681 239.875156,289.933593 239.875156,290.179688 C239.875156,290.425782 239.795404,290.637694 239.635898,290.81543 C239.476392,290.993165 239.253087,291.082031 238.965977,291.082031 Z M244.159375,291.157227 C243.548695,291.157227 243.005243,291.077475 242.529004,290.917969 C242.052765,290.758463 241.705275,290.573894 241.486523,290.364258 L241.869336,289.359375 C242.511917,289.865237 243.277535,290.118164 244.166211,290.118164 C244.849808,290.118164 245.39326,289.948407 245.796582,289.608887 C246.199904,289.269367 246.401563,288.794274 246.401563,288.183594 C246.401563,287.85091 246.350293,287.560385 246.247754,287.312012 C246.145214,287.063638 246.008497,286.863119 245.837598,286.710449 C245.666698,286.557779 245.447951,286.434734 245.181348,286.341309 C244.914745,286.247884 244.64131,286.181804 244.361035,286.143066 C244.08076,286.104329 243.756057,286.080404 243.386914,286.071289 C243.341341,286.071289 243.272982,286.07015 243.181836,286.067871 C243.09069,286.065592 243.022331,286.064453 242.976758,286.064453 L242.976758,285.045898 L243.318555,285.045898 C243.637567,285.041341 243.918977,285.024251 244.162793,284.994629 C244.406609,284.965006 244.650422,284.911459 244.894238,284.833984 C245.138055,284.75651 245.339713,284.653972 245.499219,284.526367 C245.658725,284.398762 245.788606,284.227866 245.888867,284.013672 C245.989128,283.799478 246.039258,283.546551 246.039258,283.254883 C246.039258,282.161127 245.412636,281.614258 244.159375,281.614258 C243.708201,281.614258 243.284377,281.680338 242.887891,281.8125 C242.491404,281.944662 242.151889,282.122395 241.869336,282.345703 L241.486523,281.347656 C242.165563,280.83268 243.143093,280.575195 244.419141,280.575195 C244.934117,280.575195 245.410349,280.669758 245.847852,280.858887 C246.285354,281.048015 246.645376,281.3374 246.92793,281.727051 C247.210483,282.116701 247.351758,282.573565 247.351758,283.097656 C247.351758,283.73568 247.194533,284.259764 246.880078,284.669922 C246.565623,285.08008 246.123571,285.374023 245.553906,285.551758 C246.19193,285.688477 246.692088,285.986977 247.054395,286.447266 C247.416701,286.907554 247.597852,287.490882 247.597852,288.197266 C247.597852,289.095057 247.276566,289.812823 246.633984,290.350586 C245.991403,290.888349 245.166541,291.157227 244.159375,291.157227 Z M250.302969,291 L253.816641,281.833008 L249.202383,281.833008 L249.277578,280.773438 L255.204336,280.773438 L255.204336,281.703125 L251.547109,291 L250.302969,291 Z M262.783477,280.773438 L262.687773,281.894531 L258.511016,281.894531 C258.465442,283.22071 258.431263,284.293941 258.408477,285.114258 C258.923453,284.786131 259.481716,284.62207 260.083281,284.62207 C260.589143,284.62207 261.04145,284.702961 261.440215,284.864746 C261.83898,285.026531 262.164823,285.248697 262.417754,285.53125 C262.670685,285.813803 262.863229,286.143065 262.995391,286.519043 C263.127553,286.895021 263.193633,287.301756 263.193633,287.739258 C263.193633,288.773768 262.862093,289.602048 262.199004,290.224121 C261.535915,290.846195 260.634719,291.157227 259.495391,291.157227 C258.351505,291.157227 257.435498,290.845055 256.747344,290.220703 L257.19168,289.256836 C257.866162,289.785484 258.64773,290.049805 259.536406,290.049805 C260.283806,290.049805 260.873969,289.837893 261.306914,289.414062 C261.739859,288.990232 261.956328,288.436527 261.956328,287.75293 C261.956328,287.14225 261.774038,286.646649 261.409453,286.266113 C261.044868,285.885578 260.525342,285.695312 259.850859,285.695312 C259.176377,285.695312 258.634065,285.920896 258.223906,286.37207 L257.273711,286.242188 L257.540313,280.773438 L262.783477,280.773438 Z" id="Impurity-=-0.375" fill="#000000"></path>
        <path d="M63.8413867,362 L62.6587695,362 L62.6587695,351.889648 L63.8413867,351.889648 L63.8413867,362 Z M66.2935742,362 L66.2935742,354.500977 L67.2506055,354.500977 L67.3941602,355.574219 C67.6903856,355.205076 68.0606618,354.907716 68.505,354.682129 C68.9493382,354.456542 69.4289883,354.34375 69.9439648,354.34375 C70.8098546,354.34375 71.4501477,354.586423 71.8648633,355.071777 C72.2795789,355.557131 72.4869336,356.30338 72.4869336,357.310547 L72.4869336,362 L71.345332,362 C71.345332,358.992172 71.3430534,357.381186 71.3384961,357.166992 C71.3202668,356.528968 71.1915246,356.06185 70.9522656,355.765625 C70.7130066,355.4694 70.3131083,355.321289 69.7525586,355.321289 C69.164665,355.321289 68.6747611,355.462564 68.282832,355.745117 C67.890903,356.027671 67.6356972,356.394529 67.517207,356.845703 C67.4716339,357.151043 67.4488477,357.501951 67.4488477,357.898438 L67.4488477,362 L66.2935742,362 Z M77.4479102,352.320312 C76.9739495,352.320312 76.6492457,352.45703 76.4737891,352.730469 C76.2983325,353.003908 76.2106055,353.477861 76.2106055,354.152344 L76.2106055,354.500977 L78.015293,354.500977 L78.015293,355.348633 L76.2106055,355.348633 L76.2106055,362 L75.0690039,362 L75.0690039,355.348633 L73.852207,355.348633 L73.9479102,354.59668 L75.0690039,354.500977 L75.0690039,354.166016 C75.0781185,353.199865 75.2592691,352.499188 75.6124609,352.063965 C75.9656528,351.628741 76.5364479,351.411133 77.3248633,351.411133 C77.6302033,351.411133 78.0038975,351.445312 78.445957,351.513672 L78.3707617,352.40918 C77.9651607,352.349935 77.6575466,352.320312 77.4479102,352.320312 Z M80.1530273,358.267578 C80.1530273,359.156254 80.3501282,359.868324 80.7443359,360.403809 C81.1385436,360.939293 81.713896,361.207031 82.4704102,361.207031 C83.2178097,361.207031 83.7817689,360.940432 84.1623047,360.407227 C84.5428404,359.874021 84.7331055,359.156255 84.7331055,358.253906 C84.7331055,357.337886 84.5451191,356.616702 84.1691406,356.090332 C83.7931622,355.563962 83.2200885,355.300781 82.4499023,355.300781 C81.7025028,355.300781 81.132847,355.569659 80.740918,356.107422 C80.3489889,356.645185 80.1530273,357.36523 80.1530273,358.267578 Z M85.9157227,358.24707 C85.9157227,359.409185 85.6058299,360.351396 84.9860352,361.07373 C84.3662404,361.796065 83.5094781,362.157227 82.4157227,362.157227 C81.362983,362.157227 80.525589,361.792647 79.9035156,361.063477 C79.2814422,360.334306 78.9704102,359.397792 78.9704102,358.253906 C78.9704102,357.087234 79.2825815,356.143884 79.9069336,355.423828 C80.5312857,354.703772 81.3880479,354.34375 82.4772461,354.34375 C83.548215,354.34375 84.3890269,354.704912 84.999707,355.427246 C85.6103872,356.14958 85.9157227,357.089512 85.9157227,358.24707 Z M91.1022852,354.432617 C91.3073643,354.432617 91.4942114,354.446289 91.662832,354.473633 L91.6218164,355.526367 C91.4121799,355.489909 91.2298901,355.47168 91.0749414,355.47168 C90.4369174,355.47168 89.9185306,355.693845 89.5197656,356.138184 C89.1210006,356.582522 88.9216211,357.132809 88.9216211,357.789062 L88.9216211,362 L87.7800195,362 C87.7754622,357.397112 87.7731836,354.897463 87.7731836,354.500977 L88.7233789,354.500977 L88.8327539,355.847656 C89.0925208,355.423826 89.4229212,355.082033 89.8239648,354.822266 C90.2250085,354.562499 90.651111,354.432617 91.1022852,354.432617 Z M102.571074,362 L102.571074,358.09668 C102.571074,357.732095 102.563099,357.426759 102.547148,357.180664 C102.531198,356.934569 102.49474,356.683921 102.437773,356.428711 C102.380807,356.173501 102.301055,355.971843 102.198516,355.82373 C102.095976,355.675618 101.953562,355.554851 101.77127,355.461426 C101.588977,355.368001 101.370229,355.321289 101.11502,355.321289 C100.613715,355.321289 100.186473,355.455728 99.8332813,355.724609 C99.4800894,355.993491 99.2283015,356.371742 99.0779102,356.859375 C99.0368943,357.187502 99.0163867,357.53841 99.0163867,357.912109 L99.0163867,362 L97.8747852,362 L97.8747852,357.973633 C97.8747852,357.636392 97.863392,357.343588 97.8406055,357.095215 C97.8178189,356.846841 97.7745251,356.605307 97.7107227,356.370605 C97.6469203,356.135904 97.5614719,355.945639 97.454375,355.799805 C97.3472781,355.653971 97.2048642,355.537761 97.0271289,355.451172 C96.8493936,355.364583 96.6374817,355.321289 96.3913867,355.321289 C95.844509,355.321289 95.3853664,355.460285 95.0139453,355.738281 C94.6425242,356.016277 94.393015,356.385414 94.2654102,356.845703 C94.2243943,357.196616 94.2038867,357.577146 94.2038867,357.987305 L94.2038867,362 L93.0622852,362 C93.0531705,357.310523 93.0486133,354.810874 93.0486133,354.500977 L94.0056445,354.500977 L94.1491992,355.574219 C94.3770649,355.227863 94.7006294,354.936199 95.1199023,354.699219 C95.5391753,354.462238 96.0154075,354.34375 96.5486133,354.34375 C96.8266095,354.34375 97.0829546,354.372233 97.3176563,354.429199 C97.5523579,354.486166 97.7483195,354.557942 97.9055469,354.644531 C98.0627742,354.73112 98.2029095,354.834798 98.325957,354.955566 C98.4490045,355.076335 98.5447067,355.194824 98.6130664,355.311035 C98.6814261,355.427247 98.7383917,355.549153 98.7839648,355.676758 C99.3308426,354.788081 100.167097,354.34375 101.292754,354.34375 C102.126742,354.34375 102.738553,354.581866 103.128203,355.058105 C103.517854,355.534345 103.712676,356.239579 103.712676,357.173828 L103.712676,362 L102.571074,362 Z M107.545723,361.234375 C108.088043,361.234375 108.565415,361.085125 108.977852,360.786621 C109.390289,360.488117 109.655748,360.08594 109.774238,359.580078 L109.774238,358.31543 C109.751452,358.31543 109.613595,358.326823 109.360664,358.349609 C109.107733,358.372396 108.942533,358.386068 108.865059,358.390625 C107.876121,358.477214 107.186838,358.638996 106.797188,358.875977 C106.407537,359.112957 106.212715,359.493487 106.212715,360.017578 C106.212715,360.418622 106.331203,360.721679 106.568184,360.926758 C106.805164,361.131837 107.131007,361.234375 107.545723,361.234375 Z M110.027168,362 C109.958808,361.708332 109.892728,361.393882 109.828926,361.056641 C109.41421,361.471356 109.024566,361.758463 108.65998,361.917969 C108.295395,362.077475 107.867014,362.157227 107.374824,362.157227 C106.672998,362.157227 106.109039,361.973797 105.68293,361.606934 C105.256821,361.24007 105.04377,360.712569 105.04377,360.024414 C105.04377,359.258785 105.334294,358.691408 105.915352,358.322266 C106.496409,357.953123 107.333803,357.722982 108.427559,357.631836 C108.57795,357.618164 108.804673,357.598796 109.107734,357.57373 C109.410796,357.548665 109.637519,357.529297 109.78791,357.515625 L109.78791,356.852539 C109.78791,356.323891 109.664865,355.931967 109.41877,355.676758 C109.172675,355.421548 108.785309,355.293945 108.25666,355.293945 C107.518375,355.293945 106.773265,355.476235 106.021309,355.84082 C105.998522,355.786133 105.939278,355.627768 105.843574,355.365723 C105.747871,355.103677 105.697741,354.968099 105.693184,354.958984 C106.025868,354.772134 106.421209,354.622885 106.879219,354.51123 C107.337229,354.399576 107.803207,354.34375 108.277168,354.34375 C109.211417,354.34375 109.884751,354.547687 110.297188,354.955566 C110.709624,355.363446 110.91584,356.057287 110.91584,357.037109 L110.91584,362 L110.027168,362 Z M115.487168,362.136719 C114.748883,362.136719 114.2248,361.956708 113.914902,361.59668 C113.605005,361.236652 113.440944,360.655603 113.422715,359.853516 L113.422715,355.348633 L112.308457,355.348633 L112.356309,354.59668 L113.415879,354.500977 L113.805527,352.785156 L114.55748,352.757812 L114.55748,354.500977 L116.642441,354.500977 L116.642441,355.348633 L114.55748,355.348633 L114.55748,359.648438 C114.55748,360.218102 114.644068,360.619139 114.817246,360.851562 C114.990424,361.083986 115.286645,361.200195 115.705918,361.200195 C115.856309,361.200195 116.182152,361.163737 116.683457,361.09082 L116.731309,361.993164 C116.188988,362.088868 115.774279,362.136719 115.487168,362.136719 Z M119.504785,354.500977 L119.504785,362 L118.356348,362 L118.356348,354.500977 L119.504785,354.500977 Z M119.504785,351.773438 L119.504785,353.126953 L118.356348,353.126953 L118.356348,351.773438 L119.504785,351.773438 Z M122.695254,358.267578 C122.695254,359.156254 122.892355,359.868324 123.286563,360.403809 C123.68077,360.939293 124.256123,361.207031 125.012637,361.207031 C125.760036,361.207031 126.323995,360.940432 126.704531,360.407227 C127.085067,359.874021 127.275332,359.156255 127.275332,358.253906 C127.275332,357.337886 127.087346,356.616702 126.711367,356.090332 C126.335389,355.563962 125.762315,355.300781 124.992129,355.300781 C124.244729,355.300781 123.675074,355.569659 123.283145,356.107422 C122.891215,356.645185 122.695254,357.36523 122.695254,358.267578 Z M128.457949,358.24707 C128.457949,359.409185 128.148056,360.351396 127.528262,361.07373 C126.908467,361.796065 126.051705,362.157227 124.957949,362.157227 C123.90521,362.157227 123.067816,361.792647 122.445742,361.063477 C121.823669,360.334306 121.512637,359.397792 121.512637,358.253906 C121.512637,357.087234 121.824808,356.143884 122.44916,355.423828 C123.073512,354.703772 123.930275,354.34375 125.019473,354.34375 C126.090442,354.34375 126.931253,354.704912 127.541934,355.427246 C128.152614,356.14958 128.457949,357.089512 128.457949,358.24707 Z M130.28123,362 L130.28123,354.500977 L131.238262,354.500977 L131.381816,355.574219 C131.678042,355.205076 132.048318,354.907716 132.492656,354.682129 C132.936994,354.456542 133.416645,354.34375 133.931621,354.34375 C134.797511,354.34375 135.437804,354.586423 135.85252,355.071777 C136.267235,355.557131 136.47459,356.30338 136.47459,357.310547 L136.47459,362 L135.332988,362 C135.332988,358.992172 135.33071,357.381186 135.326152,357.166992 C135.307923,356.528968 135.179181,356.06185 134.939922,355.765625 C134.700663,355.4694 134.300765,355.321289 133.740215,355.321289 C133.152321,355.321289 132.662417,355.462564 132.270488,355.745117 C131.878559,356.027671 131.623353,356.394529 131.504863,356.845703 C131.45929,357.151043 131.436504,357.501951 131.436504,357.898438 L131.436504,362 L130.28123,362 Z M146.909238,362.150391 C146.139052,362.150391 145.44749,362.021648 144.834531,361.76416 C144.221572,361.506672 143.715718,361.146649 143.316953,360.684082 C142.918188,360.221515 142.612853,359.673506 142.400938,359.040039 C142.189022,358.406572 142.083066,357.711592 142.083066,356.955078 C142.083066,355.93424 142.276749,355.031905 142.664121,354.248047 C143.051493,353.464189 143.627984,352.846682 144.393613,352.395508 C145.159242,351.944334 146.066134,351.71875 147.114316,351.71875 C148.276432,351.71875 149.297255,351.98307 150.176816,352.511719 L149.725645,353.489258 C148.877984,353.001625 148.012107,352.757812 147.127988,352.757812 C146.512751,352.757812 145.962463,352.863768 145.477109,353.075684 C144.991755,353.287599 144.595275,353.581541 144.287656,353.95752 C143.980038,354.333498 143.745339,354.775551 143.583555,355.283691 C143.42177,355.791832 143.340879,356.348955 143.340879,356.955078 C143.340879,358.240241 143.661025,359.255367 144.301328,360.000488 C144.941631,360.745609 145.88612,361.118164 147.134824,361.118164 C147.845765,361.118164 148.568089,360.974611 149.301816,360.6875 L149.301816,357.802734 L146.916074,357.802734 L146.95709,356.770508 L150.409238,356.770508 L150.409238,361.391602 C149.835017,361.66504 149.280172,361.859863 148.744688,361.976074 C148.209203,362.092286 147.597393,362.150391 146.909238,362.150391 Z M154.652441,361.234375 C155.194762,361.234375 155.672133,361.085125 156.08457,360.786621 C156.497007,360.488117 156.762467,360.08594 156.880957,359.580078 L156.880957,358.31543 C156.85817,358.31543 156.720314,358.326823 156.467383,358.349609 C156.214452,358.372396 156.049252,358.386068 155.971777,358.390625 C154.98284,358.477214 154.293557,358.638996 153.903906,358.875977 C153.514256,359.112957 153.319434,359.493487 153.319434,360.017578 C153.319434,360.418622 153.437922,360.721679 153.674902,360.926758 C153.911883,361.131837 154.237726,361.234375 154.652441,361.234375 Z M157.133887,362 C157.065527,361.708332 156.999447,361.393882 156.935645,361.056641 C156.520929,361.471356 156.131284,361.758463 155.766699,361.917969 C155.402114,362.077475 154.973733,362.157227 154.481543,362.157227 C153.779717,362.157227 153.215757,361.973797 152.789648,361.606934 C152.36354,361.24007 152.150488,360.712569 152.150488,360.024414 C152.150488,359.258785 152.441013,358.691408 153.02207,358.322266 C153.603128,357.953123 154.440522,357.722982 155.534277,357.631836 C155.684669,357.618164 155.911392,357.598796 156.214453,357.57373 C156.517515,357.548665 156.744238,357.529297 156.894629,357.515625 L156.894629,356.852539 C156.894629,356.323891 156.771583,355.931967 156.525488,355.676758 C156.279393,355.421548 155.892027,355.293945 155.363379,355.293945 C154.625094,355.293945 153.879984,355.476235 153.128027,355.84082 C153.105241,355.786133 153.045997,355.627768 152.950293,355.365723 C152.854589,355.103677 152.80446,354.968099 152.799902,354.958984 C153.132586,354.772134 153.527927,354.622885 153.985938,354.51123 C154.443948,354.399576 154.909926,354.34375 155.383887,354.34375 C156.318136,354.34375 156.991469,354.547687 157.403906,354.955566 C157.816343,355.363446 158.022559,356.057287 158.022559,357.037109 L158.022559,362 L157.133887,362 Z M161.547988,354.500977 L161.547988,362 L160.399551,362 L160.399551,354.500977 L161.547988,354.500977 Z M161.547988,351.773438 L161.547988,353.126953 L160.399551,353.126953 L160.399551,351.773438 L161.547988,351.773438 Z M163.904473,362 L163.904473,354.500977 L164.861504,354.500977 L165.005059,355.574219 C165.301284,355.205076 165.67156,354.907716 166.115898,354.682129 C166.560237,354.456542 167.039887,354.34375 167.554863,354.34375 C168.420753,354.34375 169.061046,354.586423 169.475762,355.071777 C169.890477,355.557131 170.097832,356.30338 170.097832,357.310547 L170.097832,362 L168.95623,362 C168.95623,358.992172 168.953952,357.381186 168.949395,357.166992 C168.931165,356.528968 168.802423,356.06185 168.563164,355.765625 C168.323905,355.4694 167.924007,355.321289 167.363457,355.321289 C166.775563,355.321289 166.28566,355.462564 165.89373,355.745117 C165.501801,356.027671 165.246596,356.394529 165.128105,356.845703 C165.082532,357.151043 165.059746,357.501951 165.059746,357.898438 L165.059746,362 L163.904473,362 Z M175.836191,359.422852 L175.836191,358.452148 L182.432871,358.452148 L182.432871,359.422852 L175.836191,359.422852 Z M175.829355,356.538086 L175.829355,355.553711 L182.432871,355.553711 L182.432871,356.538086 L175.829355,356.538086 Z M193.079434,361.760742 C192.628259,362.025066 192.099619,362.157227 191.493496,362.157227 C190.887373,362.157227 190.356454,362.023927 189.900723,361.757324 C189.444991,361.490721 189.079272,361.115888 188.803555,360.632812 C188.527837,360.149737 188.322761,359.593753 188.18832,358.964844 C188.05388,358.335934 187.98666,357.636397 187.98666,356.866211 C187.98666,356.232744 188.031093,355.647138 188.119961,355.109375 C188.208829,354.571612 188.346685,354.083987 188.533535,353.646484 C188.720385,353.208982 188.951665,352.837567 189.227383,352.532227 C189.5031,352.226886 189.832361,351.991049 190.215176,351.824707 C190.59799,351.658365 191.024093,351.575195 191.493496,351.575195 C192.076832,351.575195 192.59294,351.702798 193.041836,351.958008 C193.490731,352.213217 193.855311,352.576658 194.135586,353.04834 C194.415861,353.520022 194.626633,354.076006 194.76791,354.716309 C194.909187,355.356611 194.979824,356.073238 194.979824,356.866211 C194.979824,357.636397 194.913744,358.335934 194.781582,358.964844 C194.64942,359.593753 194.446622,360.149737 194.173184,360.632812 C193.899745,361.115888 193.535165,361.491861 193.079434,361.760742 Z M192.689785,353.167969 C192.357101,352.798826 191.958342,352.614258 191.493496,352.614258 C191.02865,352.614258 190.629891,352.797687 190.297207,353.164551 C189.964523,353.531415 189.715014,354.028154 189.548672,354.654785 C189.38233,355.281416 189.29916,356.004879 189.29916,356.825195 C189.29916,357.659184 189.38233,358.396318 189.548672,359.036621 C189.715014,359.676924 189.964523,360.183917 190.297207,360.557617 C190.629891,360.931317 191.02865,361.118164 191.493496,361.118164 C191.958342,361.118164 192.357101,360.931317 192.689785,360.557617 C193.022469,360.183917 193.271978,359.676924 193.43832,359.036621 C193.604662,358.396318 193.687832,357.659184 193.687832,356.825195 C193.687832,356.004879 193.604662,355.281416 193.43832,354.654785 C193.271978,354.028154 193.022469,353.532554 192.689785,353.167969 Z M197.719121,362.082031 C197.436568,362.082031 197.214402,361.992026 197.052617,361.812012 C196.890833,361.631998 196.809941,361.421225 196.809941,361.179688 C196.809941,360.933593 196.889693,360.721681 197.049199,360.543945 C197.208705,360.36621 197.43201,360.277344 197.719121,360.277344 C198.006232,360.277344 198.229537,360.36621 198.389043,360.543945 C198.548549,360.721681 198.628301,360.933593 198.628301,361.179688 C198.628301,361.425782 198.548549,361.637694 198.389043,361.81543 C198.229537,361.993165 198.006232,362.082031 197.719121,362.082031 Z M206.385176,351.773438 L206.289473,352.894531 L202.112715,352.894531 C202.067142,354.22071 202.032962,355.293941 202.010176,356.114258 C202.525152,355.786131 203.083415,355.62207 203.68498,355.62207 C204.190842,355.62207 204.643149,355.702961 205.041914,355.864746 C205.440679,356.026531 205.766522,356.248697 206.019453,356.53125 C206.272384,356.813803 206.464928,357.143065 206.59709,357.519043 C206.729252,357.895021 206.795332,358.301756 206.795332,358.739258 C206.795332,359.773768 206.463792,360.602048 205.800703,361.224121 C205.137614,361.846195 204.236418,362.157227 203.09709,362.157227 C201.953204,362.157227 201.037197,361.845055 200.349043,361.220703 L200.793379,360.256836 C201.467861,360.785484 202.249429,361.049805 203.138105,361.049805 C203.885505,361.049805 204.475668,360.837893 204.908613,360.414062 C205.341558,359.990232 205.558027,359.436527 205.558027,358.75293 C205.558027,358.14225 205.375738,357.646649 205.011152,357.266113 C204.646567,356.885578 204.127041,356.695312 203.452559,356.695312 C202.778076,356.695312 202.235764,356.920896 201.825605,357.37207 L200.87541,357.242188 L201.142012,351.773438 L206.385176,351.773438 Z M219.588379,357.385742 L219.588379,358.397461 L212.431152,358.397461 L212.431152,357.385742 L219.588379,357.385742 Z M230.234941,361.760742 C229.783767,362.025066 229.255127,362.157227 228.649004,362.157227 C228.042881,362.157227 227.511962,362.023927 227.05623,361.757324 C226.600499,361.490721 226.23478,361.115888 225.959063,360.632812 C225.683345,360.149737 225.478269,359.593753 225.343828,358.964844 C225.209387,358.335934 225.142168,357.636397 225.142168,356.866211 C225.142168,356.232744 225.186601,355.647138 225.275469,355.109375 C225.364336,354.571612 225.502193,354.083987 225.689043,353.646484 C225.875893,353.208982 226.107173,352.837567 226.382891,352.532227 C226.658608,352.226886 226.987869,351.991049 227.370684,351.824707 C227.753498,351.658365 228.179601,351.575195 228.649004,351.575195 C229.23234,351.575195 229.748448,351.702798 230.197344,351.958008 C230.646239,352.213217 231.010819,352.576658 231.291094,353.04834 C231.571369,353.520022 231.782141,354.076006 231.923418,354.716309 C232.064695,355.356611 232.135332,356.073238 232.135332,356.866211 C232.135332,357.636397 232.069252,358.335934 231.93709,358.964844 C231.804928,359.593753 231.60213,360.149737 231.328691,360.632812 C231.055253,361.115888 230.690673,361.491861 230.234941,361.760742 Z M229.845293,353.167969 C229.512609,352.798826 229.11385,352.614258 228.649004,352.614258 C228.184158,352.614258 227.785399,352.797687 227.452715,353.164551 C227.120031,353.531415 226.870522,354.028154 226.70418,354.654785 C226.537838,355.281416 226.454668,356.004879 226.454668,356.825195 C226.454668,357.659184 226.537838,358.396318 226.70418,359.036621 C226.870522,359.676924 227.120031,360.183917 227.452715,360.557617 C227.785399,360.931317 228.184158,361.118164 228.649004,361.118164 C229.11385,361.118164 229.512609,360.931317 229.845293,360.557617 C230.177977,360.183917 230.427486,359.676924 230.593828,359.036621 C230.76017,358.396318 230.84334,357.659184 230.84334,356.825195 C230.84334,356.004879 230.76017,355.281416 230.593828,354.654785 C230.427486,354.028154 230.177977,353.532554 229.845293,353.167969 Z M244.901035,357.385742 L244.901035,358.397461 L237.743809,358.397461 L237.743809,357.385742 L244.901035,357.385742 Z M255.547598,361.760742 C255.096424,362.025066 254.567783,362.157227 253.96166,362.157227 C253.355537,362.157227 252.824618,362.023927 252.368887,361.757324 C251.913155,361.490721 251.547436,361.115888 251.271719,360.632812 C250.996001,360.149737 250.790925,359.593753 250.656484,358.964844 C250.522044,358.335934 250.454824,357.636397 250.454824,356.866211 C250.454824,356.232744 250.499257,355.647138 250.588125,355.109375 C250.676993,354.571612 250.814849,354.083987 251.001699,353.646484 C251.188549,353.208982 251.419829,352.837567 251.695547,352.532227 C251.971264,352.226886 252.300525,351.991049 252.68334,351.824707 C253.066154,351.658365 253.492257,351.575195 253.96166,351.575195 C254.544996,351.575195 255.061105,351.702798 255.51,351.958008 C255.958895,352.213217 256.323475,352.576658 256.60375,353.04834 C256.884025,353.520022 257.094797,354.076006 257.236074,354.716309 C257.377351,355.356611 257.447988,356.073238 257.447988,356.866211 C257.447988,357.636397 257.381908,358.335934 257.249746,358.964844 C257.117584,359.593753 256.914787,360.149737 256.641348,360.632812 C256.367909,361.115888 256.003329,361.491861 255.547598,361.760742 Z M255.157949,353.167969 C254.825265,352.798826 254.426506,352.614258 253.96166,352.614258 C253.496814,352.614258 253.098055,352.797687 252.765371,353.164551 C252.432687,353.531415 252.183178,354.028154 252.016836,354.654785 C251.850494,355.281416 251.767324,356.004879 251.767324,356.825195 C251.767324,357.659184 251.850494,358.396318 252.016836,359.036621 C252.183178,359.676924 252.432687,360.183917 252.765371,360.557617 C253.098055,360.931317 253.496814,361.118164 253.96166,361.118164 C254.426506,361.118164 254.825265,360.931317 255.157949,360.557617 C255.490633,360.183917 255.740142,359.676924 255.906484,359.036621 C256.072826,358.396318 256.155996,357.659184 256.155996,356.825195 C256.155996,356.004879 256.072826,355.281416 255.906484,354.654785 C255.740142,354.028154 255.490633,353.532554 255.157949,353.167969 Z M260.187285,362.082031 C259.904732,362.082031 259.682566,361.992026 259.520781,361.812012 C259.358997,361.631998 259.278105,361.421225 259.278105,361.179688 C259.278105,360.933593 259.357857,360.721681 259.517363,360.543945 C259.676869,360.36621 259.900174,360.277344 260.187285,360.277344 C260.474396,360.277344 260.697701,360.36621 260.857207,360.543945 C261.016713,360.721681 261.096465,360.933593 261.096465,361.179688 C261.096465,361.425782 261.016713,361.637694 260.857207,361.81543 C260.697701,361.993165 260.474396,362.082031 260.187285,362.082031 Z M265.380684,362.157227 C264.770003,362.157227 264.226552,362.077475 263.750313,361.917969 C263.274073,361.758463 262.926583,361.573894 262.707832,361.364258 L263.090645,360.359375 C263.733226,360.865237 264.498843,361.118164 265.38752,361.118164 C266.071117,361.118164 266.614568,360.948407 267.017891,360.608887 C267.421213,360.269367 267.622871,359.794274 267.622871,359.183594 C267.622871,358.85091 267.571602,358.560385 267.469063,358.312012 C267.366523,358.063638 267.229806,357.863119 267.058906,357.710449 C266.888007,357.557779 266.669259,357.434734 266.402656,357.341309 C266.136053,357.247884 265.862619,357.181804 265.582344,357.143066 C265.302069,357.104329 264.977365,357.080404 264.608223,357.071289 C264.56265,357.071289 264.494291,357.07015 264.403145,357.067871 C264.311998,357.065592 264.24364,357.064453 264.198066,357.064453 L264.198066,356.045898 L264.539863,356.045898 C264.858875,356.041341 265.140285,356.024251 265.384102,355.994629 C265.627918,355.965006 265.871731,355.911459 266.115547,355.833984 C266.359363,355.75651 266.561021,355.653972 266.720527,355.526367 C266.880033,355.398762 267.009915,355.227866 267.110176,355.013672 C267.210437,354.799478 267.260566,354.546551 267.260566,354.254883 C267.260566,353.161127 266.633945,352.614258 265.380684,352.614258 C264.929509,352.614258 264.505686,352.680338 264.109199,352.8125 C263.712713,352.944662 263.373198,353.122395 263.090645,353.345703 L262.707832,352.347656 C263.386872,351.83268 264.364401,351.575195 265.640449,351.575195 C266.155426,351.575195 266.631658,351.669758 267.06916,351.858887 C267.506662,352.048015 267.866685,352.3374 268.149238,352.727051 C268.431792,353.116701 268.573066,353.573565 268.573066,354.097656 C268.573066,354.73568 268.415841,355.259764 268.101387,355.669922 C267.786932,356.08008 267.344879,356.374023 266.775215,356.551758 C267.413239,356.688477 267.913397,356.986977 268.275703,357.447266 C268.63801,357.907554 268.81916,358.490882 268.81916,359.197266 C268.81916,360.095057 268.497874,360.812823 267.855293,361.350586 C267.212712,361.888349 266.38785,362.157227 265.380684,362.157227 Z M271.524277,362 L275.037949,352.833008 L270.423691,352.833008 L270.498887,351.773438 L276.425645,351.773438 L276.425645,352.703125 L272.768418,362 L271.524277,362 Z M284.004785,351.773438 L283.909082,352.894531 L279.732324,352.894531 C279.686751,354.22071 279.652572,355.293941 279.629785,356.114258 C280.144762,355.786131 280.703024,355.62207 281.30459,355.62207 C281.810452,355.62207 282.262758,355.702961 282.661523,355.864746 C283.060288,356.026531 283.386132,356.248697 283.639063,356.53125 C283.891993,356.813803 284.084537,357.143065 284.216699,357.519043 C284.348861,357.895021 284.414941,358.301756 284.414941,358.739258 C284.414941,359.773768 284.083402,360.602048 283.420313,361.224121 C282.757223,361.846195 281.856028,362.157227 280.716699,362.157227 C279.572813,362.157227 278.656807,361.845055 277.968652,361.220703 L278.412988,360.256836 C279.087471,360.785484 279.869039,361.049805 280.757715,361.049805 C281.505114,361.049805 282.095278,360.837893 282.528223,360.414062 C282.961168,359.990232 283.177637,359.436527 283.177637,358.75293 C283.177637,358.14225 282.995347,357.646649 282.630762,357.266113 C282.266177,356.885578 281.746651,356.695312 281.072168,356.695312 C280.397685,356.695312 279.855373,356.920896 279.445215,357.37207 L278.49502,357.242188 L278.761621,351.773438 L284.004785,351.773438 Z M297.207988,357.385742 L297.207988,358.397461 L290.050762,358.397461 L290.050762,357.385742 L297.207988,357.385742 Z M307.854551,361.760742 C307.403377,362.025066 306.874736,362.157227 306.268613,362.157227 C305.66249,362.157227 305.131571,362.023927 304.67584,361.757324 C304.220108,361.490721 303.854389,361.115888 303.578672,360.632812 C303.302954,360.149737 303.097878,359.593753 302.963438,358.964844 C302.828997,358.335934 302.761777,357.636397 302.761777,356.866211 C302.761777,356.232744 302.80621,355.647138 302.895078,355.109375 C302.983946,354.571612 303.121802,354.083987 303.308652,353.646484 C303.495502,353.208982 303.726782,352.837567 304.0025,352.532227 C304.278218,352.226886 304.607479,351.991049 304.990293,351.824707 C305.373107,351.658365 305.79921,351.575195 306.268613,351.575195 C306.85195,351.575195 307.368058,351.702798 307.816953,351.958008 C308.265849,352.213217 308.630428,352.576658 308.910703,353.04834 C309.190978,353.520022 309.401751,354.076006 309.543027,354.716309 C309.684304,355.356611 309.754941,356.073238 309.754941,356.866211 C309.754941,357.636397 309.688861,358.335934 309.556699,358.964844 C309.424537,359.593753 309.22174,360.149737 308.948301,360.632812 C308.674862,361.115888 308.310282,361.491861 307.854551,361.760742 Z M307.464902,353.167969 C307.132218,352.798826 306.733459,352.614258 306.268613,352.614258 C305.803767,352.614258 305.405008,352.797687 305.072324,353.164551 C304.73964,353.531415 304.490131,354.028154 304.323789,354.654785 C304.157447,355.281416 304.074277,356.004879 304.074277,356.825195 C304.074277,357.659184 304.157447,358.396318 304.323789,359.036621 C304.490131,359.676924 304.73964,360.183917 305.072324,360.557617 C305.405008,360.931317 305.803767,361.118164 306.268613,361.118164 C306.733459,361.118164 307.132218,360.931317 307.464902,360.557617 C307.797586,360.183917 308.047096,359.676924 308.213438,359.036621 C308.379779,358.396318 308.462949,357.659184 308.462949,356.825195 C308.462949,356.004879 308.379779,355.281416 308.213438,354.654785 C308.047096,354.028154 307.797586,353.532554 307.464902,353.167969 Z M315.315566,359.422852 L315.315566,358.452148 L321.912246,358.452148 L321.912246,359.422852 L315.315566,359.422852 Z M315.30873,356.538086 L315.30873,355.553711 L321.912246,355.553711 L321.912246,356.538086 L315.30873,356.538086 Z M332.558809,361.760742 C332.107634,362.025066 331.578994,362.157227 330.972871,362.157227 C330.366748,362.157227 329.835829,362.023927 329.380098,361.757324 C328.924366,361.490721 328.558647,361.115888 328.28293,360.632812 C328.007212,360.149737 327.802136,359.593753 327.667695,358.964844 C327.533255,358.335934 327.466035,357.636397 327.466035,356.866211 C327.466035,356.232744 327.510468,355.647138 327.599336,355.109375 C327.688204,354.571612 327.82606,354.083987 328.01291,353.646484 C328.19976,353.208982 328.43104,352.837567 328.706758,352.532227 C328.982475,352.226886 329.311736,351.991049 329.694551,351.824707 C330.077365,351.658365 330.503468,351.575195 330.972871,351.575195 C331.556207,351.575195 332.072315,351.702798 332.521211,351.958008 C332.970106,352.213217 333.334686,352.576658 333.614961,353.04834 C333.895236,353.520022 334.106008,354.076006 334.247285,354.716309 C334.388562,355.356611 334.459199,356.073238 334.459199,356.866211 C334.459199,357.636397 334.393119,358.335934 334.260957,358.964844 C334.128795,359.593753 333.925997,360.149737 333.652559,360.632812 C333.37912,361.115888 333.01454,361.491861 332.558809,361.760742 Z M332.16916,353.167969 C331.836476,352.798826 331.437717,352.614258 330.972871,352.614258 C330.508025,352.614258 330.109266,352.797687 329.776582,353.164551 C329.443898,353.531415 329.194389,354.028154 329.028047,354.654785 C328.861705,355.281416 328.778535,356.004879 328.778535,356.825195 C328.778535,357.659184 328.861705,358.396318 329.028047,359.036621 C329.194389,359.676924 329.443898,360.183917 329.776582,360.557617 C330.109266,360.931317 330.508025,361.118164 330.972871,361.118164 C331.437717,361.118164 331.836476,360.931317 332.16916,360.557617 C332.501844,360.183917 332.751353,359.676924 332.917695,359.036621 C333.084037,358.396318 333.167207,357.659184 333.167207,356.825195 C333.167207,356.004879 333.084037,355.281416 332.917695,354.654785 C332.751353,354.028154 332.501844,353.532554 332.16916,353.167969 Z M337.198496,362.082031 C336.915943,362.082031 336.693777,361.992026 336.531992,361.812012 C336.370208,361.631998 336.289316,361.421225 336.289316,361.179688 C336.289316,360.933593 336.369068,360.721681 336.528574,360.543945 C336.68808,360.36621 336.911385,360.277344 337.198496,360.277344 C337.485607,360.277344 337.708912,360.36621 337.868418,360.543945 C338.027924,360.721681 338.107676,360.933593 338.107676,361.179688 C338.107676,361.425782 338.027924,361.637694 337.868418,361.81543 C337.708912,361.993165 337.485607,362.082031 337.198496,362.082031 Z M341.065723,351.773438 L342.152637,351.773438 L342.152637,362 L340.942676,362 L340.942676,353.038086 C340.482387,353.338869 339.919567,353.596353 339.254199,353.810547 L339.254199,352.668945 C339.327116,352.637044 339.475227,352.573243 339.698535,352.477539 C339.921844,352.381835 340.089322,352.30892 340.200977,352.258789 C340.312631,352.208659 340.452766,352.138021 340.621387,352.046875 C340.790007,351.955729 340.938118,351.864584 341.065723,351.773438 Z M344.263027,362 L344.105801,360.878906 L347.63998,356.955078 C347.876961,356.690754 348.105962,356.34896 348.326992,355.929688 C348.548022,355.510415 348.708665,355.154949 348.808926,354.863281 L348.966152,354.432617 C348.966152,353.86751 348.808927,353.428875 348.494473,353.116699 C348.180018,352.804523 347.733408,352.648438 347.154629,352.648438 C346.188478,352.648438 345.427418,352.928708 344.871426,353.489258 L344.474941,352.463867 C345.103851,351.871416 346.024415,351.575195 347.23666,351.575195 C348.166352,351.575195 348.906905,351.826983 349.45834,352.330566 C350.009775,352.83415 350.285488,353.507483 350.285488,354.350586 C350.267259,354.414388 350.239916,354.499837 350.203457,354.606934 C350.166999,354.71403 350.088386,354.922524 349.967617,355.232422 C349.846848,355.542319 349.720385,355.836262 349.588223,356.114258 C349.456061,356.392254 349.288582,356.697589 349.085781,357.030273 C348.882981,357.362957 348.676765,357.640949 348.467129,357.864258 L345.582363,360.947266 L350.319668,360.947266 L350.244473,362 L344.263027,362 Z M358.192754,351.773438 L358.097051,352.894531 L353.920293,352.894531 C353.87472,354.22071 353.84054,355.293941 353.817754,356.114258 C354.33273,355.786131 354.890993,355.62207 355.492559,355.62207 C355.99842,355.62207 356.450727,355.702961 356.849492,355.864746 C357.248257,356.026531 357.5741,356.248697 357.827031,356.53125 C358.079962,356.813803 358.272506,357.143065 358.404668,357.519043 C358.53683,357.895021 358.60291,358.301756 358.60291,358.739258 C358.60291,359.773768 358.271371,360.602048 357.608281,361.224121 C356.945192,361.846195 356.043997,362.157227 354.904668,362.157227 C353.760782,362.157227 352.844776,361.845055 352.156621,361.220703 L352.600957,360.256836 C353.27544,360.785484 354.057007,361.049805 354.945684,361.049805 C355.693083,361.049805 356.283247,360.837893 356.716191,360.414062 C357.149136,359.990232 357.365605,359.436527 357.365605,358.75293 C357.365605,358.14225 357.183316,357.646649 356.81873,357.266113 C356.454145,356.885578 355.934619,356.695312 355.260137,356.695312 C354.585654,356.695312 354.043342,356.920896 353.633184,357.37207 L352.682988,357.242188 L352.94959,351.773438 L358.192754,351.773438 Z" id="Information-Gain-=-0" fill="#000000"></path>
        <path d="M302.747813,291 L301.565195,291 L301.565195,280.889648 L302.747813,280.889648 L302.747813,291 Z M314.722461,291 L314.722461,287.09668 C314.722461,286.732095 314.714486,286.426759 314.698535,286.180664 C314.682585,285.934569 314.646127,285.683921 314.58916,285.428711 C314.532194,285.173501 314.452442,284.971843 314.349902,284.82373 C314.247363,284.675618 314.104949,284.554851 313.922656,284.461426 C313.740364,284.368001 313.521616,284.321289 313.266406,284.321289 C312.765102,284.321289 312.33786,284.455728 311.984668,284.724609 C311.631476,284.993491 311.379688,285.371742 311.229297,285.859375 C311.188281,286.187502 311.167773,286.53841 311.167773,286.912109 L311.167773,291 L310.026172,291 L310.026172,286.973633 C310.026172,286.636392 310.014779,286.343588 309.991992,286.095215 C309.969206,285.846841 309.925912,285.605307 309.862109,285.370605 C309.798307,285.135904 309.712859,284.945639 309.605762,284.799805 C309.498665,284.653971 309.356251,284.537761 309.178516,284.451172 C309.00078,284.364583 308.788868,284.321289 308.542773,284.321289 C307.995896,284.321289 307.536753,284.460285 307.165332,284.738281 C306.793911,285.016277 306.544402,285.385414 306.416797,285.845703 C306.375781,286.196616 306.355273,286.577146 306.355273,286.987305 L306.355273,291 L305.213672,291 C305.204557,286.310523 305.2,283.810874 305.2,283.500977 L306.157031,283.500977 L306.300586,284.574219 C306.528452,284.227863 306.852016,283.936199 307.271289,283.699219 C307.690562,283.462238 308.166794,283.34375 308.7,283.34375 C308.977996,283.34375 309.234341,283.372233 309.469043,283.429199 C309.703745,283.486166 309.899706,283.557942 310.056934,283.644531 C310.214161,283.73112 310.354296,283.834798 310.477344,283.955566 C310.600391,284.076335 310.696093,284.194824 310.764453,284.311035 C310.832813,284.427247 310.889778,284.549153 310.935352,284.676758 C311.482229,283.788081 312.318484,283.34375 313.444141,283.34375 C314.278129,283.34375 314.889939,283.581866 315.27959,284.058105 C315.66924,284.534345 315.864063,285.239579 315.864063,286.173828 L315.864063,291 L314.722461,291 Z M317.530117,294.253906 L317.530117,283.500977 L318.535,283.500977 L318.644375,284.519531 C319.300628,283.735673 320.089032,283.34375 321.009609,283.34375 C321.693207,283.34375 322.271977,283.514647 322.745938,283.856445 C323.219898,284.198244 323.569667,284.660804 323.795254,285.244141 C324.020841,285.827477 324.133633,286.508785 324.133633,287.288086 C324.133633,288.035486 324.010587,288.699704 323.764492,289.280762 C323.518397,289.861819 323.157235,290.319823 322.680996,290.654785 C322.204757,290.989748 321.647633,291.157227 321.009609,291.157227 C320.526534,291.157227 320.073088,291.048992 319.649258,290.83252 C319.225428,290.616047 318.885913,290.33008 318.630703,289.974609 C318.658047,290.466799 318.671719,290.94531 318.671719,291.410156 L318.671719,294.178711 L317.530117,294.253906 Z M320.852383,290.193359 C321.198739,290.193359 321.508631,290.114747 321.78207,289.95752 C322.055509,289.800292 322.276536,289.584962 322.445156,289.311523 C322.613777,289.038085 322.74138,288.727053 322.827969,288.378418 C322.914558,288.029783 322.957852,287.652671 322.957852,287.24707 C322.957852,286.390295 322.77784,285.68734 322.417813,285.138184 C322.057785,284.589027 321.531423,284.314453 320.838711,284.314453 C319.389485,284.314453 318.664883,285.250967 318.664883,287.124023 C318.664883,288.140305 318.83464,288.905922 319.17416,289.420898 C319.51368,289.935875 320.073082,290.193359 320.852383,290.193359 Z M325.690313,288.498047 L325.690313,283.500977 L326.83875,283.500977 L326.83875,288.511719 C326.83875,288.839845 326.885462,289.117837 326.978887,289.345703 C327.072312,289.573569 327.20675,289.750162 327.382207,289.875488 C327.557664,290.000814 327.755904,290.09082 327.976934,290.145508 C328.197963,290.200196 328.45203,290.227539 328.739141,290.227539 C329.331592,290.227539 329.793013,290.097658 330.123418,289.837891 C330.453823,289.578124 330.619023,289.136071 330.619023,288.511719 L330.619023,283.500977 L331.767461,283.500977 L331.767461,288.498047 C331.767461,288.880861 331.712774,289.224933 331.603398,289.530273 C331.494023,289.835614 331.347052,290.08968 331.16248,290.29248 C330.977909,290.495281 330.755743,290.66276 330.495977,290.794922 C330.23621,290.927084 329.961636,291.022786 329.672246,291.082031 C329.382857,291.141276 329.071825,291.170898 328.739141,291.170898 C328.411014,291.170898 328.101121,291.141276 327.809453,291.082031 C327.517785,291.022786 327.240932,290.925945 326.978887,290.791504 C326.716841,290.657063 326.491257,290.488445 326.302129,290.285645 C326.113,290.082844 325.963751,289.828778 325.854375,289.523438 C325.744999,289.218097 325.690313,288.876304 325.690313,288.498047 Z M337.042891,283.432617 C337.24797,283.432617 337.434817,283.446289 337.603438,283.473633 L337.562422,284.526367 C337.352785,284.489909 337.170496,284.47168 337.015547,284.47168 C336.377523,284.47168 335.859136,284.693845 335.460371,285.138184 C335.061606,285.582522 334.862227,286.132809 334.862227,286.789062 L334.862227,291 L333.720625,291 C333.716068,286.397112 333.713789,283.897463 333.713789,283.500977 L334.663984,283.500977 L334.773359,284.847656 C335.033126,284.423826 335.363527,284.082033 335.76457,283.822266 C336.165614,283.562499 336.591716,283.432617 337.042891,283.432617 Z M340.335898,283.500977 L340.335898,291 L339.187461,291 L339.187461,283.500977 L340.335898,283.500977 Z M340.335898,280.773438 L340.335898,282.126953 L339.187461,282.126953 L339.187461,280.773438 L340.335898,280.773438 Z M345.084961,291.136719 C344.346676,291.136719 343.822593,290.956708 343.512695,290.59668 C343.202798,290.236652 343.038737,289.655603 343.020508,288.853516 L343.020508,284.348633 L341.90625,284.348633 L341.954102,283.59668 L343.013672,283.500977 L343.40332,281.785156 L344.155273,281.757812 L344.155273,283.500977 L346.240234,283.500977 L346.240234,284.348633 L344.155273,284.348633 L344.155273,288.648438 C344.155273,289.218102 344.241861,289.619139 344.415039,289.851562 C344.588217,290.083986 344.884438,290.200195 345.303711,290.200195 C345.454102,290.200195 345.779945,290.163737 346.28125,290.09082 L346.329102,290.993164 C345.786781,291.088868 345.372072,291.136719 345.084961,291.136719 Z M346.798867,283.500977 L348.008828,283.500977 L350.374063,289.742188 L352.479531,283.500977 L353.689492,283.500977 C351.666045,289.070015 350.620157,291.94108 350.551797,292.114258 C350.237342,292.902673 349.856812,293.480304 349.410195,293.847168 C348.963578,294.214032 348.375694,294.397461 347.646523,294.397461 C347.427772,294.397461 347.197631,294.379232 346.956094,294.342773 L346.887734,293.37207 C347.142944,293.3903 347.334348,293.399414 347.461953,293.399414 C347.97693,293.399414 348.367714,293.304851 348.634316,293.115723 C348.900919,292.926594 349.139035,292.572268 349.348672,292.052734 C349.535522,291.574216 349.674518,291.205079 349.765664,290.945312 L346.798867,283.500977 Z M358.580195,288.422852 L358.580195,287.452148 L365.176875,287.452148 L365.176875,288.422852 L358.580195,288.422852 Z M358.573359,285.538086 L358.573359,284.553711 L365.176875,284.553711 L365.176875,285.538086 L358.573359,285.538086 Z M375.823438,290.760742 C375.372263,291.025066 374.843623,291.157227 374.2375,291.157227 C373.631377,291.157227 373.100458,291.023927 372.644727,290.757324 C372.188995,290.490721 371.823276,290.115888 371.547559,289.632812 C371.271841,289.149737 371.066765,288.593753 370.932324,287.964844 C370.797883,287.335934 370.730664,286.636397 370.730664,285.866211 C370.730664,285.232744 370.775097,284.647138 370.863965,284.109375 C370.952832,283.571612 371.090689,283.083987 371.277539,282.646484 C371.464389,282.208982 371.695669,281.837567 371.971387,281.532227 C372.247104,281.226886 372.576365,280.991049 372.95918,280.824707 C373.341994,280.658365 373.768097,280.575195 374.2375,280.575195 C374.820836,280.575195 375.336944,280.702798 375.78584,280.958008 C376.234735,281.213217 376.599315,281.576658 376.87959,282.04834 C377.159865,282.520022 377.370637,283.076006 377.511914,283.716309 C377.653191,284.356611 377.723828,285.073238 377.723828,285.866211 C377.723828,286.636397 377.657748,287.335934 377.525586,287.964844 C377.393424,288.593753 377.190626,289.149737 376.917188,289.632812 C376.643749,290.115888 376.279169,290.491861 375.823438,290.760742 Z M375.433789,282.167969 C375.101105,281.798826 374.702346,281.614258 374.2375,281.614258 C373.772654,281.614258 373.373895,281.797687 373.041211,282.164551 C372.708527,282.531415 372.459018,283.028154 372.292676,283.654785 C372.126334,284.281416 372.043164,285.004879 372.043164,285.825195 C372.043164,286.659184 372.126334,287.396318 372.292676,288.036621 C372.459018,288.676924 372.708527,289.183917 373.041211,289.557617 C373.373895,289.931317 373.772654,290.118164 374.2375,290.118164 C374.702346,290.118164 375.101105,289.931317 375.433789,289.557617 C375.766473,289.183917 376.015982,288.676924 376.182324,288.036621 C376.348666,287.396318 376.431836,286.659184 376.431836,285.825195 C376.431836,285.004879 376.348666,284.281416 376.182324,283.654785 C376.015982,283.028154 375.766473,282.532554 375.433789,282.167969 Z" id="Impurity-=-0" fill="#000000"></path>
        <circle id="Oval-Copy-19" fill="#F8E71C" fill-rule="nonzero" cx="211" cy="248" r="10"></circle>
        <path d="M212,132 L212,199" id="Line" stroke="#000000" stroke-width="2" stroke-linecap="square" fill-rule="nonzero"></path>
        <path d="M211.285156,132 L83,199" id="Line-Copy" stroke="#000000" stroke-width="2" stroke-linecap="square" fill-rule="nonzero"></path>
        <path d="M341.285156,132 L213,199" id="Line-Copy" stroke="#000000" stroke-width="2" stroke-linecap="square" fill-rule="nonzero" transform="translate(277.142578, 165.500000) scale(-1, 1) translate(-277.142578, -165.500000) "></path>
    </g>
</svg>