<?xml version="1.0" encoding="utf-8" standalone="no"?>
<!DOCTYPE svg PUBLIC "-//W3C//DTD SVG 1.1//EN"
  "http://www.w3.org/Graphics/SVG/1.1/DTD/svg11.dtd">
<!-- Created with matplotlib (https://matplotlib.org/) -->
<svg height="504pt" version="1.1" viewBox="0 0 504 504" width="504pt" xmlns="http://www.w3.org/2000/svg" xmlns:xlink="http://www.w3.org/1999/xlink">
 <metadata>
  <rdf:RDF xmlns:cc="http://creativecommons.org/ns#" xmlns:dc="http://purl.org/dc/elements/1.1/" xmlns:rdf="http://www.w3.org/1999/02/22-rdf-syntax-ns#">
   <cc:Work>
    <dc:type rdf:resource="http://purl.org/dc/dcmitype/StillImage"/>
    <dc:date>2021-02-26T16:21:21.282160</dc:date>
    <dc:format>image/svg+xml</dc:format>
    <dc:creator>
     <cc:Agent>
      <dc:title>Matplotlib v3.3.3, https://matplotlib.org/</dc:title>
     </cc:Agent>
    </dc:creator>
   </cc:Work>
  </rdf:RDF>
 </metadata>
 <defs>
  <style type="text/css">*{stroke-linecap:butt;stroke-linejoin:round;}</style>
 </defs>
 <g id="figure_1">
  <g id="patch_1">
   <path d="M 0 504 
L 504 504 
L 504 0 
L 0 0 
z
" style="fill:#ffffff;"/>
  </g>
  <g id="axes_1">
   <g id="patch_2">
    <path d="M 63 448.56 
L 453.6 448.56 
L 453.6 60.48 
L 63 60.48 
z
" style="fill:#ffffff;"/>
   </g>
   <g id="PathCollection_1">
    <defs>
     <path d="M 0 3 
C 0.795609 3 1.55874 2.683901 2.12132 2.12132 
C 2.683901 1.55874 3 0.795609 3 0 
C 3 -0.795609 2.683901 -1.55874 2.12132 -2.12132 
C 1.55874 -2.683901 0.795609 -3 0 -3 
C -0.795609 -3 -1.55874 -2.683901 -2.12132 -2.12132 
C -2.683901 -1.55874 -3 -0.795609 -3 0 
C -3 0.795609 -2.683901 1.55874 -2.12132 2.12132 
C -1.55874 2.683901 -0.795609 3 0 3 
z
" id="mef05995fd9" style="stroke:#1f77b4;"/>
    </defs>
    <g clip-path="url(#p4415945440)">
     <use style="fill:#1f77b4;stroke:#1f77b4;" x="246.920201" xlink:href="#mef05995fd9" y="218.0086"/>
     <use style="fill:#1f77b4;stroke:#1f77b4;" x="345.64983" xlink:href="#mef05995fd9" y="239.196812"/>
     <use style="fill:#1f77b4;stroke:#1f77b4;" x="237.797227" xlink:href="#mef05995fd9" y="262.329083"/>
     <use style="fill:#1f77b4;stroke:#1f77b4;" x="175.609751" xlink:href="#mef05995fd9" y="201.323621"/>
     <use style="fill:#1f77b4;stroke:#1f77b4;" x="158.127985" xlink:href="#mef05995fd9" y="257.138613"/>
     <use style="fill:#1f77b4;stroke:#1f77b4;" x="193.343986" xlink:href="#mef05995fd9" y="252.107368"/>
     <use style="fill:#1f77b4;stroke:#1f77b4;" x="144.262477" xlink:href="#mef05995fd9" y="344.411196"/>
     <use style="fill:#1f77b4;stroke:#1f77b4;" x="179.957112" xlink:href="#mef05995fd9" y="180.063699"/>
     <use style="fill:#1f77b4;stroke:#1f77b4;" x="226.217271" xlink:href="#mef05995fd9" y="277.6638"/>
     <use style="fill:#1f77b4;stroke:#1f77b4;" x="343.228262" xlink:href="#mef05995fd9" y="312.377514"/>
     <use style="fill:#1f77b4;stroke:#1f77b4;" x="216.138244" xlink:href="#mef05995fd9" y="168.072708"/>
     <use style="fill:#1f77b4;stroke:#1f77b4;" x="201.106654" xlink:href="#mef05995fd9" y="164.602593"/>
     <use style="fill:#1f77b4;stroke:#1f77b4;" x="239.927898" xlink:href="#mef05995fd9" y="78.12"/>
     <use style="fill:#1f77b4;stroke:#1f77b4;" x="333.284828" xlink:href="#mef05995fd9" y="175.649958"/>
     <use style="fill:#1f77b4;stroke:#1f77b4;" x="124.661416" xlink:href="#mef05995fd9" y="254.427761"/>
     <use style="fill:#1f77b4;stroke:#1f77b4;" x="214.177382" xlink:href="#mef05995fd9" y="262.52141"/>
     <use style="fill:#1f77b4;stroke:#1f77b4;" x="176.479191" xlink:href="#mef05995fd9" y="264.63738"/>
     <use style="fill:#1f77b4;stroke:#1f77b4;" x="204.457839" xlink:href="#mef05995fd9" y="328.139057"/>
     <use style="fill:#1f77b4;stroke:#1f77b4;" x="227.012741" xlink:href="#mef05995fd9" y="271.402671"/>
     <use style="fill:#1f77b4;stroke:#1f77b4;" x="204.837116" xlink:href="#mef05995fd9" y="239.914808"/>
     <use style="fill:#1f77b4;stroke:#1f77b4;" x="161.563601" xlink:href="#mef05995fd9" y="216.508108"/>
     <use style="fill:#1f77b4;stroke:#1f77b4;" x="143.349384" xlink:href="#mef05995fd9" y="266.992848"/>
     <use style="fill:#1f77b4;stroke:#1f77b4;" x="224.075731" xlink:href="#mef05995fd9" y="263.719598"/>
     <use style="fill:#1f77b4;stroke:#1f77b4;" x="278.832313" xlink:href="#mef05995fd9" y="187.163775"/>
     <use style="fill:#1f77b4;stroke:#1f77b4;" x="290.283649" xlink:href="#mef05995fd9" y="277.124136"/>
     <use style="fill:#1f77b4;stroke:#1f77b4;" x="234.025019" xlink:href="#mef05995fd9" y="329.233765"/>
     <use style="fill:#1f77b4;stroke:#1f77b4;" x="264.524699" xlink:href="#mef05995fd9" y="241.479471"/>
     <use style="fill:#1f77b4;stroke:#1f77b4;" x="260.573787" xlink:href="#mef05995fd9" y="305.957162"/>
     <use style="fill:#1f77b4;stroke:#1f77b4;" x="175.278307" xlink:href="#mef05995fd9" y="359.683459"/>
     <use style="fill:#1f77b4;stroke:#1f77b4;" x="263.100309" xlink:href="#mef05995fd9" y="292.385844"/>
     <use style="fill:#1f77b4;stroke:#1f77b4;" x="165.74503" xlink:href="#mef05995fd9" y="379.615486"/>
     <use style="fill:#1f77b4;stroke:#1f77b4;" x="212.251196" xlink:href="#mef05995fd9" y="307.595634"/>
     <use style="fill:#1f77b4;stroke:#1f77b4;" x="97.350406" xlink:href="#mef05995fd9" y="280.887154"/>
     <use style="fill:#1f77b4;stroke:#1f77b4;" x="185.497241" xlink:href="#mef05995fd9" y="307.32772"/>
     <use style="fill:#1f77b4;stroke:#1f77b4;" x="326.9439" xlink:href="#mef05995fd9" y="277.612888"/>
     <use style="fill:#1f77b4;stroke:#1f77b4;" x="214.903534" xlink:href="#mef05995fd9" y="355.099874"/>
     <use style="fill:#1f77b4;stroke:#1f77b4;" x="206.123148" xlink:href="#mef05995fd9" y="292.362186"/>
     <use style="fill:#1f77b4;stroke:#1f77b4;" x="225.930437" xlink:href="#mef05995fd9" y="273.157602"/>
     <use style="fill:#1f77b4;stroke:#1f77b4;" x="259.854739" xlink:href="#mef05995fd9" y="244.691832"/>
     <use style="fill:#1f77b4;stroke:#1f77b4;" x="304.887509" xlink:href="#mef05995fd9" y="222.993906"/>
     <use style="fill:#1f77b4;stroke:#1f77b4;" x="287.688233" xlink:href="#mef05995fd9" y="315.208097"/>
     <use style="fill:#1f77b4;stroke:#1f77b4;" x="226.664514" xlink:href="#mef05995fd9" y="341.874104"/>
     <use style="fill:#1f77b4;stroke:#1f77b4;" x="241.883696" xlink:href="#mef05995fd9" y="340.970414"/>
     <use style="fill:#1f77b4;stroke:#1f77b4;" x="129.572025" xlink:href="#mef05995fd9" y="266.979191"/>
     <use style="fill:#1f77b4;stroke:#1f77b4;" x="210.839342" xlink:href="#mef05995fd9" y="246.290145"/>
     <use style="fill:#1f77b4;stroke:#1f77b4;" x="249.643359" xlink:href="#mef05995fd9" y="243.903584"/>
     <use style="fill:#1f77b4;stroke:#1f77b4;" x="253.224424" xlink:href="#mef05995fd9" y="204.707613"/>
     <use style="fill:#1f77b4;stroke:#1f77b4;" x="140.97697" xlink:href="#mef05995fd9" y="331.377613"/>
     <use style="fill:#1f77b4;stroke:#1f77b4;" x="248.74005" xlink:href="#mef05995fd9" y="184.099622"/>
     <use style="fill:#1f77b4;stroke:#1f77b4;" x="219.692742" xlink:href="#mef05995fd9" y="373.440486"/>
     <use style="fill:#1f77b4;stroke:#1f77b4;" x="244.512023" xlink:href="#mef05995fd9" y="263.846003"/>
     <use style="fill:#1f77b4;stroke:#1f77b4;" x="360.014993" xlink:href="#mef05995fd9" y="212.968732"/>
     <use style="fill:#1f77b4;stroke:#1f77b4;" x="307.113105" xlink:href="#mef05995fd9" y="190.866095"/>
     <use style="fill:#1f77b4;stroke:#1f77b4;" x="131.523726" xlink:href="#mef05995fd9" y="300.971017"/>
     <use style="fill:#1f77b4;stroke:#1f77b4;" x="240.30257" xlink:href="#mef05995fd9" y="398.736473"/>
     <use style="fill:#1f77b4;stroke:#1f77b4;" x="322.45855" xlink:href="#mef05995fd9" y="329.742907"/>
     <use style="fill:#1f77b4;stroke:#1f77b4;" x="300.512217" xlink:href="#mef05995fd9" y="321.78105"/>
     <use style="fill:#1f77b4;stroke:#1f77b4;" x="263.753299" xlink:href="#mef05995fd9" y="246.213048"/>
     <use style="fill:#1f77b4;stroke:#1f77b4;" x="356.467963" xlink:href="#mef05995fd9" y="350.563502"/>
     <use style="fill:#1f77b4;stroke:#1f77b4;" x="223.160322" xlink:href="#mef05995fd9" y="294.948516"/>
     <use style="fill:#1f77b4;stroke:#1f77b4;" x="301.578729" xlink:href="#mef05995fd9" y="279.74935"/>
     <use style="fill:#1f77b4;stroke:#1f77b4;" x="284.972955" xlink:href="#mef05995fd9" y="275.269407"/>
     <use style="fill:#1f77b4;stroke:#1f77b4;" x="176.430044" xlink:href="#mef05995fd9" y="285.358196"/>
     <use style="fill:#1f77b4;stroke:#1f77b4;" x="257.061599" xlink:href="#mef05995fd9" y="243.041425"/>
     <use style="fill:#1f77b4;stroke:#1f77b4;" x="80.754545" xlink:href="#mef05995fd9" y="343.230273"/>
     <use style="fill:#1f77b4;stroke:#1f77b4;" x="322.61328" xlink:href="#mef05995fd9" y="197.35022"/>
     <use style="fill:#1f77b4;stroke:#1f77b4;" x="263.395028" xlink:href="#mef05995fd9" y="184.804061"/>
     <use style="fill:#1f77b4;stroke:#1f77b4;" x="270.390642" xlink:href="#mef05995fd9" y="228.331592"/>
     <use style="fill:#1f77b4;stroke:#1f77b4;" x="269.694525" xlink:href="#mef05995fd9" y="384.469064"/>
     <use style="fill:#1f77b4;stroke:#1f77b4;" x="210.929412" xlink:href="#mef05995fd9" y="301.363701"/>
     <use style="fill:#1f77b4;stroke:#1f77b4;" x="146.279545" xlink:href="#mef05995fd9" y="228.512405"/>
     <use style="fill:#1f77b4;stroke:#1f77b4;" x="219.330249" xlink:href="#mef05995fd9" y="337.922378"/>
     <use style="fill:#1f77b4;stroke:#1f77b4;" x="281.654783" xlink:href="#mef05995fd9" y="227.446461"/>
     <use style="fill:#1f77b4;stroke:#1f77b4;" x="242.021932" xlink:href="#mef05995fd9" y="172.061959"/>
     <use style="fill:#1f77b4;stroke:#1f77b4;" x="296.416697" xlink:href="#mef05995fd9" y="327.040974"/>
     <use style="fill:#1f77b4;stroke:#1f77b4;" x="155.022935" xlink:href="#mef05995fd9" y="219.246934"/>
     <use style="fill:#1f77b4;stroke:#1f77b4;" x="253.510752" xlink:href="#mef05995fd9" y="289.395635"/>
     <use style="fill:#1f77b4;stroke:#1f77b4;" x="226.985585" xlink:href="#mef05995fd9" y="351.546043"/>
     <use style="fill:#1f77b4;stroke:#1f77b4;" x="307.185324" xlink:href="#mef05995fd9" y="346.613319"/>
     <use style="fill:#1f77b4;stroke:#1f77b4;" x="295.38782" xlink:href="#mef05995fd9" y="316.351573"/>
     <use style="fill:#1f77b4;stroke:#1f77b4;" x="215.928995" xlink:href="#mef05995fd9" y="251.189542"/>
     <use style="fill:#1f77b4;stroke:#1f77b4;" x="233.837558" xlink:href="#mef05995fd9" y="426.956709"/>
     <use style="fill:#1f77b4;stroke:#1f77b4;" x="297.318922" xlink:href="#mef05995fd9" y="276.832161"/>
     <use style="fill:#1f77b4;stroke:#1f77b4;" x="187.622446" xlink:href="#mef05995fd9" y="182.297329"/>
     <use style="fill:#1f77b4;stroke:#1f77b4;" x="178.035442" xlink:href="#mef05995fd9" y="255.128767"/>
     <use style="fill:#1f77b4;stroke:#1f77b4;" x="162.76718" xlink:href="#mef05995fd9" y="114.776098"/>
     <use style="fill:#1f77b4;stroke:#1f77b4;" x="238.518344" xlink:href="#mef05995fd9" y="346.277696"/>
     <use style="fill:#1f77b4;stroke:#1f77b4;" x="204.321837" xlink:href="#mef05995fd9" y="246.51907"/>
     <use style="fill:#1f77b4;stroke:#1f77b4;" x="181.08322" xlink:href="#mef05995fd9" y="135.049423"/>
     <use style="fill:#1f77b4;stroke:#1f77b4;" x="196.274236" xlink:href="#mef05995fd9" y="221.525342"/>
     <use style="fill:#1f77b4;stroke:#1f77b4;" x="288.557638" xlink:href="#mef05995fd9" y="232.952722"/>
     <use style="fill:#1f77b4;stroke:#1f77b4;" x="150.936521" xlink:href="#mef05995fd9" y="307.355926"/>
     <use style="fill:#1f77b4;stroke:#1f77b4;" x="284.033706" xlink:href="#mef05995fd9" y="295.316674"/>
     <use style="fill:#1f77b4;stroke:#1f77b4;" x="234.641759" xlink:href="#mef05995fd9" y="297.746012"/>
     <use style="fill:#1f77b4;stroke:#1f77b4;" x="435.845455" xlink:href="#mef05995fd9" y="220.397916"/>
     <use style="fill:#1f77b4;stroke:#1f77b4;" x="227.030639" xlink:href="#mef05995fd9" y="208.618079"/>
     <use style="fill:#1f77b4;stroke:#1f77b4;" x="320.648216" xlink:href="#mef05995fd9" y="315.13424"/>
     <use style="fill:#1f77b4;stroke:#1f77b4;" x="235.77552" xlink:href="#mef05995fd9" y="272.734638"/>
     <use style="fill:#1f77b4;stroke:#1f77b4;" x="114.011076" xlink:href="#mef05995fd9" y="216.950617"/>
     <use style="fill:#1f77b4;stroke:#1f77b4;" x="199.020058" xlink:href="#mef05995fd9" y="251.687054"/>
     <use style="fill:#1f77b4;stroke:#1f77b4;" x="265.867006" xlink:href="#mef05995fd9" y="207.323286"/>
     <use style="fill:#1f77b4;stroke:#1f77b4;" x="297.284569" xlink:href="#mef05995fd9" y="348.295999"/>
     <use style="fill:#1f77b4;stroke:#1f77b4;" x="157.012614" xlink:href="#mef05995fd9" y="319.066024"/>
     <use style="fill:#1f77b4;stroke:#1f77b4;" x="279.639862" xlink:href="#mef05995fd9" y="329.793522"/>
     <use style="fill:#1f77b4;stroke:#1f77b4;" x="308.884026" xlink:href="#mef05995fd9" y="325.989512"/>
     <use style="fill:#1f77b4;stroke:#1f77b4;" x="116.805113" xlink:href="#mef05995fd9" y="430.92"/>
     <use style="fill:#1f77b4;stroke:#1f77b4;" x="334.756" xlink:href="#mef05995fd9" y="221.061708"/>
     <use style="fill:#1f77b4;stroke:#1f77b4;" x="234.845865" xlink:href="#mef05995fd9" y="388.23679"/>
     <use style="fill:#1f77b4;stroke:#1f77b4;" x="111.004213" xlink:href="#mef05995fd9" y="229.190502"/>
     <use style="fill:#1f77b4;stroke:#1f77b4;" x="218.016819" xlink:href="#mef05995fd9" y="225.780736"/>
     <use style="fill:#1f77b4;stroke:#1f77b4;" x="342.194627" xlink:href="#mef05995fd9" y="299.785795"/>
     <use style="fill:#1f77b4;stroke:#1f77b4;" x="224.379028" xlink:href="#mef05995fd9" y="366.734593"/>
     <use style="fill:#1f77b4;stroke:#1f77b4;" x="188.119484" xlink:href="#mef05995fd9" y="311.259366"/>
     <use style="fill:#1f77b4;stroke:#1f77b4;" x="282.224775" xlink:href="#mef05995fd9" y="372.376932"/>
     <use style="fill:#1f77b4;stroke:#1f77b4;" x="211.357184" xlink:href="#mef05995fd9" y="232.780366"/>
     <use style="fill:#1f77b4;stroke:#1f77b4;" x="102.959273" xlink:href="#mef05995fd9" y="286.17385"/>
     <use style="fill:#1f77b4;stroke:#1f77b4;" x="308.272036" xlink:href="#mef05995fd9" y="237.189214"/>
     <use style="fill:#1f77b4;stroke:#1f77b4;" x="250.621798" xlink:href="#mef05995fd9" y="265.071961"/>
     <use style="fill:#1f77b4;stroke:#1f77b4;" x="331.215763" xlink:href="#mef05995fd9" y="282.060709"/>
     <use style="fill:#1f77b4;stroke:#1f77b4;" x="213.911778" xlink:href="#mef05995fd9" y="258.917218"/>
     <use style="fill:#1f77b4;stroke:#1f77b4;" x="159.726818" xlink:href="#mef05995fd9" y="167.008485"/>
     <use style="fill:#1f77b4;stroke:#1f77b4;" x="140.720445" xlink:href="#mef05995fd9" y="369.124837"/>
     <use style="fill:#1f77b4;stroke:#1f77b4;" x="136.223468" xlink:href="#mef05995fd9" y="123.370753"/>
     <use style="fill:#1f77b4;stroke:#1f77b4;" x="294.901175" xlink:href="#mef05995fd9" y="251.247562"/>
     <use style="fill:#1f77b4;stroke:#1f77b4;" x="177.737766" xlink:href="#mef05995fd9" y="233.333989"/>
     <use style="fill:#1f77b4;stroke:#1f77b4;" x="311.056442" xlink:href="#mef05995fd9" y="190.359897"/>
     <use style="fill:#1f77b4;stroke:#1f77b4;" x="241.875361" xlink:href="#mef05995fd9" y="291.616928"/>
     <use style="fill:#1f77b4;stroke:#1f77b4;" x="217.524401" xlink:href="#mef05995fd9" y="282.666991"/>
     <use style="fill:#1f77b4;stroke:#1f77b4;" x="266.953049" xlink:href="#mef05995fd9" y="173.712064"/>
     <use style="fill:#1f77b4;stroke:#1f77b4;" x="224.626566" xlink:href="#mef05995fd9" y="255.893801"/>
     <use style="fill:#1f77b4;stroke:#1f77b4;" x="270.250922" xlink:href="#mef05995fd9" y="350.949068"/>
     <use style="fill:#1f77b4;stroke:#1f77b4;" x="197.365875" xlink:href="#mef05995fd9" y="235.482923"/>
     <use style="fill:#1f77b4;stroke:#1f77b4;" x="246.73738" xlink:href="#mef05995fd9" y="255.477165"/>
     <use style="fill:#1f77b4;stroke:#1f77b4;" x="245.275837" xlink:href="#mef05995fd9" y="211.787296"/>
     <use style="fill:#1f77b4;stroke:#1f77b4;" x="172.616548" xlink:href="#mef05995fd9" y="111.702409"/>
     <use style="fill:#1f77b4;stroke:#1f77b4;" x="284.97762" xlink:href="#mef05995fd9" y="283.735621"/>
     <use style="fill:#1f77b4;stroke:#1f77b4;" x="328.660395" xlink:href="#mef05995fd9" y="254.379136"/>
     <use style="fill:#1f77b4;stroke:#1f77b4;" x="259.999355" xlink:href="#mef05995fd9" y="383.724397"/>
     <use style="fill:#1f77b4;stroke:#1f77b4;" x="312.556348" xlink:href="#mef05995fd9" y="321.737422"/>
     <use style="fill:#1f77b4;stroke:#1f77b4;" x="122.461317" xlink:href="#mef05995fd9" y="205.979913"/>
     <use style="fill:#1f77b4;stroke:#1f77b4;" x="265.306956" xlink:href="#mef05995fd9" y="224.508946"/>
     <use style="fill:#1f77b4;stroke:#1f77b4;" x="260.61581" xlink:href="#mef05995fd9" y="181.308948"/>
     <use style="fill:#1f77b4;stroke:#1f77b4;" x="274.508789" xlink:href="#mef05995fd9" y="253.605009"/>
     <use style="fill:#1f77b4;stroke:#1f77b4;" x="226.251475" xlink:href="#mef05995fd9" y="304.829175"/>
     <use style="fill:#1f77b4;stroke:#1f77b4;" x="367.539806" xlink:href="#mef05995fd9" y="215.182277"/>
     <use style="fill:#1f77b4;stroke:#1f77b4;" x="305.204322" xlink:href="#mef05995fd9" y="246.31711"/>
     <use style="fill:#1f77b4;stroke:#1f77b4;" x="120.463105" xlink:href="#mef05995fd9" y="263.141642"/>
     <use style="fill:#1f77b4;stroke:#1f77b4;" x="196.869388" xlink:href="#mef05995fd9" y="315.638806"/>
     <use style="fill:#1f77b4;stroke:#1f77b4;" x="335.886907" xlink:href="#mef05995fd9" y="272.062606"/>
     <use style="fill:#1f77b4;stroke:#1f77b4;" x="179.542161" xlink:href="#mef05995fd9" y="338.366393"/>
    </g>
   </g>
   <g id="matplotlib.axis_1">
    <g id="xtick_1">
     <g id="line2d_1">
      <defs>
       <path d="M 0 0 
L 0 3.5 
" id="m1fc2439b04" style="stroke:#000000;stroke-width:0.8;"/>
      </defs>
      <g>
       <use style="stroke:#000000;stroke-width:0.8;" x="73.586391" xlink:href="#m1fc2439b04" y="448.56"/>
      </g>
     </g>
     <g id="text_1">
      <!-- 59 -->
      <g transform="translate(67.223891 463.158437)scale(0.1 -0.1)">
       <defs>
        <path d="M 10.796875 72.90625 
L 49.515625 72.90625 
L 49.515625 64.59375 
L 19.828125 64.59375 
L 19.828125 46.734375 
Q 21.96875 47.46875 24.109375 47.828125 
Q 26.265625 48.1875 28.421875 48.1875 
Q 40.625 48.1875 47.75 41.5 
Q 54.890625 34.8125 54.890625 23.390625 
Q 54.890625 11.625 47.5625 5.09375 
Q 40.234375 -1.421875 26.90625 -1.421875 
Q 22.3125 -1.421875 17.546875 -0.640625 
Q 12.796875 0.140625 7.71875 1.703125 
L 7.71875 11.625 
Q 12.109375 9.234375 16.796875 8.0625 
Q 21.484375 6.890625 26.703125 6.890625 
Q 35.15625 6.890625 40.078125 11.328125 
Q 45.015625 15.765625 45.015625 23.390625 
Q 45.015625 31 40.078125 35.4375 
Q 35.15625 39.890625 26.703125 39.890625 
Q 22.75 39.890625 18.8125 39.015625 
Q 14.890625 38.140625 10.796875 36.28125 
z
" id="DejaVuSans-53"/>
        <path d="M 10.984375 1.515625 
L 10.984375 10.5 
Q 14.703125 8.734375 18.5 7.8125 
Q 22.3125 6.890625 25.984375 6.890625 
Q 35.75 6.890625 40.890625 13.453125 
Q 46.046875 20.015625 46.78125 33.40625 
Q 43.953125 29.203125 39.59375 26.953125 
Q 35.25 24.703125 29.984375 24.703125 
Q 19.046875 24.703125 12.671875 31.3125 
Q 6.296875 37.9375 6.296875 49.421875 
Q 6.296875 60.640625 12.9375 67.421875 
Q 19.578125 74.21875 30.609375 74.21875 
Q 43.265625 74.21875 49.921875 64.515625 
Q 56.59375 54.828125 56.59375 36.375 
Q 56.59375 19.140625 48.40625 8.859375 
Q 40.234375 -1.421875 26.421875 -1.421875 
Q 22.703125 -1.421875 18.890625 -0.6875 
Q 15.09375 0.046875 10.984375 1.515625 
z
M 30.609375 32.421875 
Q 37.25 32.421875 41.125 36.953125 
Q 45.015625 41.5 45.015625 49.421875 
Q 45.015625 57.28125 41.125 61.84375 
Q 37.25 66.40625 30.609375 66.40625 
Q 23.96875 66.40625 20.09375 61.84375 
Q 16.21875 57.28125 16.21875 49.421875 
Q 16.21875 41.5 20.09375 36.953125 
Q 23.96875 32.421875 30.609375 32.421875 
z
" id="DejaVuSans-57"/>
       </defs>
       <use xlink:href="#DejaVuSans-53"/>
       <use x="63.623047" xlink:href="#DejaVuSans-57"/>
      </g>
     </g>
    </g>
    <g id="xtick_2">
     <g id="line2d_2">
      <g>
       <use style="stroke:#000000;stroke-width:0.8;" x="117.133824" xlink:href="#m1fc2439b04" y="448.56"/>
      </g>
     </g>
     <g id="text_2">
      <!-- 60 -->
      <g transform="translate(110.771324 463.158437)scale(0.1 -0.1)">
       <defs>
        <path d="M 33.015625 40.375 
Q 26.375 40.375 22.484375 35.828125 
Q 18.609375 31.296875 18.609375 23.390625 
Q 18.609375 15.53125 22.484375 10.953125 
Q 26.375 6.390625 33.015625 6.390625 
Q 39.65625 6.390625 43.53125 10.953125 
Q 47.40625 15.53125 47.40625 23.390625 
Q 47.40625 31.296875 43.53125 35.828125 
Q 39.65625 40.375 33.015625 40.375 
z
M 52.59375 71.296875 
L 52.59375 62.3125 
Q 48.875 64.0625 45.09375 64.984375 
Q 41.3125 65.921875 37.59375 65.921875 
Q 27.828125 65.921875 22.671875 59.328125 
Q 17.53125 52.734375 16.796875 39.40625 
Q 19.671875 43.65625 24.015625 45.921875 
Q 28.375 48.1875 33.59375 48.1875 
Q 44.578125 48.1875 50.953125 41.515625 
Q 57.328125 34.859375 57.328125 23.390625 
Q 57.328125 12.15625 50.6875 5.359375 
Q 44.046875 -1.421875 33.015625 -1.421875 
Q 20.359375 -1.421875 13.671875 8.265625 
Q 6.984375 17.96875 6.984375 36.375 
Q 6.984375 53.65625 15.1875 63.9375 
Q 23.390625 74.21875 37.203125 74.21875 
Q 40.921875 74.21875 44.703125 73.484375 
Q 48.484375 72.75 52.59375 71.296875 
z
" id="DejaVuSans-54"/>
        <path d="M 31.78125 66.40625 
Q 24.171875 66.40625 20.328125 58.90625 
Q 16.5 51.421875 16.5 36.375 
Q 16.5 21.390625 20.328125 13.890625 
Q 24.171875 6.390625 31.78125 6.390625 
Q 39.453125 6.390625 43.28125 13.890625 
Q 47.125 21.390625 47.125 36.375 
Q 47.125 51.421875 43.28125 58.90625 
Q 39.453125 66.40625 31.78125 66.40625 
z
M 31.78125 74.21875 
Q 44.046875 74.21875 50.515625 64.515625 
Q 56.984375 54.828125 56.984375 36.375 
Q 56.984375 17.96875 50.515625 8.265625 
Q 44.046875 -1.421875 31.78125 -1.421875 
Q 19.53125 -1.421875 13.0625 8.265625 
Q 6.59375 17.96875 6.59375 36.375 
Q 6.59375 54.828125 13.0625 64.515625 
Q 19.53125 74.21875 31.78125 74.21875 
z
" id="DejaVuSans-48"/>
       </defs>
       <use xlink:href="#DejaVuSans-54"/>
       <use x="63.623047" xlink:href="#DejaVuSans-48"/>
      </g>
     </g>
    </g>
    <g id="xtick_3">
     <g id="line2d_3">
      <g>
       <use style="stroke:#000000;stroke-width:0.8;" x="160.681258" xlink:href="#m1fc2439b04" y="448.56"/>
      </g>
     </g>
     <g id="text_3">
      <!-- 61 -->
      <g transform="translate(154.318758 463.158437)scale(0.1 -0.1)">
       <defs>
        <path d="M 12.40625 8.296875 
L 28.515625 8.296875 
L 28.515625 63.921875 
L 10.984375 60.40625 
L 10.984375 69.390625 
L 28.421875 72.90625 
L 38.28125 72.90625 
L 38.28125 8.296875 
L 54.390625 8.296875 
L 54.390625 0 
L 12.40625 0 
z
" id="DejaVuSans-49"/>
       </defs>
       <use xlink:href="#DejaVuSans-54"/>
       <use x="63.623047" xlink:href="#DejaVuSans-49"/>
      </g>
     </g>
    </g>
    <g id="xtick_4">
     <g id="line2d_4">
      <g>
       <use style="stroke:#000000;stroke-width:0.8;" x="204.228692" xlink:href="#m1fc2439b04" y="448.56"/>
      </g>
     </g>
     <g id="text_4">
      <!-- 62 -->
      <g transform="translate(197.866192 463.158437)scale(0.1 -0.1)">
       <defs>
        <path d="M 19.1875 8.296875 
L 53.609375 8.296875 
L 53.609375 0 
L 7.328125 0 
L 7.328125 8.296875 
Q 12.9375 14.109375 22.625 23.890625 
Q 32.328125 33.6875 34.8125 36.53125 
Q 39.546875 41.84375 41.421875 45.53125 
Q 43.3125 49.21875 43.3125 52.78125 
Q 43.3125 58.59375 39.234375 62.25 
Q 35.15625 65.921875 28.609375 65.921875 
Q 23.96875 65.921875 18.8125 64.3125 
Q 13.671875 62.703125 7.8125 59.421875 
L 7.8125 69.390625 
Q 13.765625 71.78125 18.9375 73 
Q 24.125 74.21875 28.421875 74.21875 
Q 39.75 74.21875 46.484375 68.546875 
Q 53.21875 62.890625 53.21875 53.421875 
Q 53.21875 48.921875 51.53125 44.890625 
Q 49.859375 40.875 45.40625 35.40625 
Q 44.1875 33.984375 37.640625 27.21875 
Q 31.109375 20.453125 19.1875 8.296875 
z
" id="DejaVuSans-50"/>
       </defs>
       <use xlink:href="#DejaVuSans-54"/>
       <use x="63.623047" xlink:href="#DejaVuSans-50"/>
      </g>
     </g>
    </g>
    <g id="xtick_5">
     <g id="line2d_5">
      <g>
       <use style="stroke:#000000;stroke-width:0.8;" x="247.776126" xlink:href="#m1fc2439b04" y="448.56"/>
      </g>
     </g>
     <g id="text_5">
      <!-- 63 -->
      <g transform="translate(241.413626 463.158437)scale(0.1 -0.1)">
       <defs>
        <path d="M 40.578125 39.3125 
Q 47.65625 37.796875 51.625 33 
Q 55.609375 28.21875 55.609375 21.1875 
Q 55.609375 10.40625 48.1875 4.484375 
Q 40.765625 -1.421875 27.09375 -1.421875 
Q 22.515625 -1.421875 17.65625 -0.515625 
Q 12.796875 0.390625 7.625 2.203125 
L 7.625 11.71875 
Q 11.71875 9.328125 16.59375 8.109375 
Q 21.484375 6.890625 26.8125 6.890625 
Q 36.078125 6.890625 40.9375 10.546875 
Q 45.796875 14.203125 45.796875 21.1875 
Q 45.796875 27.640625 41.28125 31.265625 
Q 36.765625 34.90625 28.71875 34.90625 
L 20.21875 34.90625 
L 20.21875 43.015625 
L 29.109375 43.015625 
Q 36.375 43.015625 40.234375 45.921875 
Q 44.09375 48.828125 44.09375 54.296875 
Q 44.09375 59.90625 40.109375 62.90625 
Q 36.140625 65.921875 28.71875 65.921875 
Q 24.65625 65.921875 20.015625 65.03125 
Q 15.375 64.15625 9.8125 62.3125 
L 9.8125 71.09375 
Q 15.4375 72.65625 20.34375 73.4375 
Q 25.25 74.21875 29.59375 74.21875 
Q 40.828125 74.21875 47.359375 69.109375 
Q 53.90625 64.015625 53.90625 55.328125 
Q 53.90625 49.265625 50.4375 45.09375 
Q 46.96875 40.921875 40.578125 39.3125 
z
" id="DejaVuSans-51"/>
       </defs>
       <use xlink:href="#DejaVuSans-54"/>
       <use x="63.623047" xlink:href="#DejaVuSans-51"/>
      </g>
     </g>
    </g>
    <g id="xtick_6">
     <g id="line2d_6">
      <g>
       <use style="stroke:#000000;stroke-width:0.8;" x="291.32356" xlink:href="#m1fc2439b04" y="448.56"/>
      </g>
     </g>
     <g id="text_6">
      <!-- 64 -->
      <g transform="translate(284.96106 463.158437)scale(0.1 -0.1)">
       <defs>
        <path d="M 37.796875 64.3125 
L 12.890625 25.390625 
L 37.796875 25.390625 
z
M 35.203125 72.90625 
L 47.609375 72.90625 
L 47.609375 25.390625 
L 58.015625 25.390625 
L 58.015625 17.1875 
L 47.609375 17.1875 
L 47.609375 0 
L 37.796875 0 
L 37.796875 17.1875 
L 4.890625 17.1875 
L 4.890625 26.703125 
z
" id="DejaVuSans-52"/>
       </defs>
       <use xlink:href="#DejaVuSans-54"/>
       <use x="63.623047" xlink:href="#DejaVuSans-52"/>
      </g>
     </g>
    </g>
    <g id="xtick_7">
     <g id="line2d_7">
      <g>
       <use style="stroke:#000000;stroke-width:0.8;" x="334.870994" xlink:href="#m1fc2439b04" y="448.56"/>
      </g>
     </g>
     <g id="text_7">
      <!-- 65 -->
      <g transform="translate(328.508494 463.158437)scale(0.1 -0.1)">
       <use xlink:href="#DejaVuSans-54"/>
       <use x="63.623047" xlink:href="#DejaVuSans-53"/>
      </g>
     </g>
    </g>
    <g id="xtick_8">
     <g id="line2d_8">
      <g>
       <use style="stroke:#000000;stroke-width:0.8;" x="378.418428" xlink:href="#m1fc2439b04" y="448.56"/>
      </g>
     </g>
     <g id="text_8">
      <!-- 66 -->
      <g transform="translate(372.055928 463.158437)scale(0.1 -0.1)">
       <use xlink:href="#DejaVuSans-54"/>
       <use x="63.623047" xlink:href="#DejaVuSans-54"/>
      </g>
     </g>
    </g>
    <g id="xtick_9">
     <g id="line2d_9">
      <g>
       <use style="stroke:#000000;stroke-width:0.8;" x="421.965862" xlink:href="#m1fc2439b04" y="448.56"/>
      </g>
     </g>
     <g id="text_9">
      <!-- 67 -->
      <g transform="translate(415.603362 463.158437)scale(0.1 -0.1)">
       <defs>
        <path d="M 8.203125 72.90625 
L 55.078125 72.90625 
L 55.078125 68.703125 
L 28.609375 0 
L 18.3125 0 
L 43.21875 64.59375 
L 8.203125 64.59375 
z
" id="DejaVuSans-55"/>
       </defs>
       <use xlink:href="#DejaVuSans-54"/>
       <use x="63.623047" xlink:href="#DejaVuSans-55"/>
      </g>
     </g>
    </g>
   </g>
   <g id="matplotlib.axis_2">
    <g id="ytick_1">
     <g id="line2d_10">
      <defs>
       <path d="M 0 0 
L -3.5 0 
" id="m4c982c97e5" style="stroke:#000000;stroke-width:0.8;"/>
      </defs>
      <g>
       <use style="stroke:#000000;stroke-width:0.8;" x="63" xlink:href="#m4c982c97e5" y="406.858462"/>
      </g>
     </g>
     <g id="text_10">
      <!-- −4 -->
      <g transform="translate(41.257812 410.65768)scale(0.1 -0.1)">
       <defs>
        <path d="M 10.59375 35.5 
L 73.1875 35.5 
L 73.1875 27.203125 
L 10.59375 27.203125 
z
" id="DejaVuSans-8722"/>
       </defs>
       <use xlink:href="#DejaVuSans-8722"/>
       <use x="83.789062" xlink:href="#DejaVuSans-52"/>
      </g>
     </g>
    </g>
    <g id="ytick_2">
     <g id="line2d_11">
      <g>
       <use style="stroke:#000000;stroke-width:0.8;" x="63" xlink:href="#m4c982c97e5" y="337.809231"/>
      </g>
     </g>
     <g id="text_11">
      <!-- −2 -->
      <g transform="translate(41.257812 341.608449)scale(0.1 -0.1)">
       <use xlink:href="#DejaVuSans-8722"/>
       <use x="83.789062" xlink:href="#DejaVuSans-50"/>
      </g>
     </g>
    </g>
    <g id="ytick_3">
     <g id="line2d_12">
      <g>
       <use style="stroke:#000000;stroke-width:0.8;" x="63" xlink:href="#m4c982c97e5" y="268.76"/>
      </g>
     </g>
     <g id="text_12">
      <!-- 0 -->
      <g transform="translate(49.6375 272.559218)scale(0.1 -0.1)">
       <use xlink:href="#DejaVuSans-48"/>
      </g>
     </g>
    </g>
    <g id="ytick_4">
     <g id="line2d_13">
      <g>
       <use style="stroke:#000000;stroke-width:0.8;" x="63" xlink:href="#m4c982c97e5" y="199.710769"/>
      </g>
     </g>
     <g id="text_13">
      <!-- 2 -->
      <g transform="translate(49.6375 203.509987)scale(0.1 -0.1)">
       <use xlink:href="#DejaVuSans-50"/>
      </g>
     </g>
    </g>
    <g id="ytick_5">
     <g id="line2d_14">
      <g>
       <use style="stroke:#000000;stroke-width:0.8;" x="63" xlink:href="#m4c982c97e5" y="130.661538"/>
      </g>
     </g>
     <g id="text_14">
      <!-- 4 -->
      <g transform="translate(49.6375 134.460756)scale(0.1 -0.1)">
       <use xlink:href="#DejaVuSans-52"/>
      </g>
     </g>
    </g>
    <g id="ytick_6">
     <g id="line2d_15">
      <g>
       <use style="stroke:#000000;stroke-width:0.8;" x="63" xlink:href="#m4c982c97e5" y="61.612307"/>
      </g>
     </g>
     <g id="text_15">
      <!-- 6 -->
      <g transform="translate(49.6375 65.411525)scale(0.1 -0.1)">
       <use xlink:href="#DejaVuSans-54"/>
      </g>
     </g>
    </g>
   </g>
   <g id="line2d_16">
    <path clip-path="url(#p4415945440)" d="M 63 268.76 
L 453.6 268.76 
" style="fill:none;stroke:#000000;stroke-dasharray:5.55,2.4;stroke-dashoffset:0;stroke-width:1.5;"/>
   </g>
   <g id="patch_3">
    <path d="M 63 448.56 
L 63 60.48 
" style="fill:none;stroke:#000000;stroke-linecap:square;stroke-linejoin:miter;stroke-width:0.8;"/>
   </g>
   <g id="patch_4">
    <path d="M 453.6 448.56 
L 453.6 60.48 
" style="fill:none;stroke:#000000;stroke-linecap:square;stroke-linejoin:miter;stroke-width:0.8;"/>
   </g>
   <g id="patch_5">
    <path d="M 63 448.56 
L 453.6 448.56 
" style="fill:none;stroke:#000000;stroke-linecap:square;stroke-linejoin:miter;stroke-width:0.8;"/>
   </g>
   <g id="patch_6">
    <path d="M 63 60.48 
L 453.6 60.48 
" style="fill:none;stroke:#000000;stroke-linecap:square;stroke-linejoin:miter;stroke-width:0.8;"/>
   </g>
  </g>
 </g>
 <defs>
  <clipPath id="p4415945440">
   <rect height="388.08" width="390.6" x="63" y="60.48"/>
  </clipPath>
 </defs>
</svg>
