<?xml version="1.0" encoding="UTF-8" standalone="no"?>
<!-- Generator: Adobe Illustrator 24.0.3, SVG Export Plug-In . SVG Version: 6.00 Build 0)  -->

<svg
   xmlns:dc="http://purl.org/dc/elements/1.1/"
   xmlns:cc="http://creativecommons.org/ns#"
   xmlns:rdf="http://www.w3.org/1999/02/22-rdf-syntax-ns#"
   xmlns:svg="http://www.w3.org/2000/svg"
   xmlns="http://www.w3.org/2000/svg"
   xmlns:sodipodi="http://sodipodi.sourceforge.net/DTD/sodipodi-0.dtd"
   xmlns:inkscape="http://www.inkscape.org/namespaces/inkscape"
   version="1.1"
   id="Layer_1"
   x="0px"
   y="0px"
   viewBox="0 0 1213 942"
   style="enable-background:new 0 0 1213 942;"
   xml:space="preserve"
   sodipodi:docname="Binary_Search_Tree_Visualization_Updated_1.svg"
   inkscape:version="0.92.3 (2405546, 2018-03-11)"><metadata
   id="metadata67"><rdf:RDF><cc:Work
       rdf:about=""><dc:format>image/svg+xml</dc:format><dc:type
         rdf:resource="http://purl.org/dc/dcmitype/StillImage" /><dc:title>Artboard 2</dc:title></cc:Work></rdf:RDF></metadata><defs
   id="defs65" /><sodipodi:namedview
   pagecolor="#ffffff"
   bordercolor="#666666"
   borderopacity="1"
   objecttolerance="10"
   gridtolerance="10"
   guidetolerance="10"
   inkscape:pageopacity="0"
   inkscape:pageshadow="2"
   inkscape:window-width="1280"
   inkscape:window-height="657"
   id="namedview63"
   showgrid="false"
   inkscape:zoom="0.23660346"
   inkscape:cx="256.66009"
   inkscape:cy="471"
   inkscape:window-x="-8"
   inkscape:window-y="-8"
   inkscape:window-maximized="1"
   inkscape:current-layer="Layer_1" />
<style
   type="text/css"
   id="style2">
	.st0{fill-rule:evenodd;clip-rule:evenodd;fill:#52B1DB;}
	.st1{fill-rule:evenodd;clip-rule:evenodd;fill:#52B1DB;stroke:#52B1DB;stroke-width:1.5;}
	.st2{fill:none;stroke:#52B1DB;stroke-width:1.5;stroke-linecap:square;}
	.st3{fill-rule:evenodd;clip-rule:evenodd;fill:#4EA8D0;stroke:#52B1DB;stroke-width:1.5;}
	.st4{fill:none;stroke:#4E768D;stroke-width:2;stroke-linecap:square;}
	.st5{fill-rule:evenodd;clip-rule:evenodd;fill:#FFFFFF;}
	.st6{fill:none;stroke:#7A98A9;stroke-width:2.736;}
	.st7{fill-rule:evenodd;clip-rule:evenodd;fill:#4E768D;}
</style>
<title
   id="title4">Artboard 2</title>
<desc
   id="desc6">Created with Sketch.</desc>

<rect
   style="opacity:1;fill:#262656;fill-opacity:1;fill-rule:nonzero;stroke:#03f3f4;stroke-width:0.75590551;stroke-linecap:round;stroke-linejoin:miter;stroke-miterlimit:4;stroke-dasharray:none;stroke-dashoffset:0;stroke-opacity:1;paint-order:stroke fill markers"
   id="rect877"
   width="1217.2264"
   height="967.86414"
   x="0"
   y="-13.184669"
   rx="13.8545" /><g
   id="Page-1_1_"
   transform="matrix(1.0404798,0,0,1.053355,-26.571322,-27.362014)">
	<g
   id="Artboard-2">
		<path
   id="Lesser-Than"
   class="st0"
   d="M 429,82.7 V 63.6 h 1.6 v 17.7 h 8.5 l -0.1,1.5 h -10 z m 18.5,0.3 c -1.9,0 -3.4,-0.7 -4.6,-2 -1.1,-1.3 -1.7,-3.1 -1.7,-5.3 0,-2.1 0.6,-3.9 1.7,-5.3 1.1,-1.4 2.5,-2.1 4.3,-2.1 1.6,0 2.9,0.6 3.9,1.8 1,1.2 1.5,2.8 1.5,4.8 0,0.1 0,0.2 0,0.5 0,0.2 0,0.4 0,0.5 h -9.7 c 0,1.8 0.4,3.2 1.3,4.3 0.9,1.1 2,1.6 3.3,1.6 0.9,0 1.7,-0.1 2.4,-0.3 0.7,-0.2 1.4,-0.5 2.1,-0.9 l 0.3,1.2 c -1.5,0.8 -3.1,1.2 -4.8,1.2 z m -4.6,-8.5 h 7.9 c 0,-1.6 -0.3,-2.8 -1,-3.6 -0.7,-0.8 -1.6,-1.3 -2.8,-1.3 -1.2,0 -2.1,0.4 -2.9,1.3 -0.6,1 -1,2.2 -1.2,3.6 z m 17.5,8.5 c -0.9,0 -1.7,-0.1 -2.5,-0.3 -0.8,-0.2 -1.4,-0.5 -1.9,-0.8 l 0.2,-1.3 c 1.4,0.7 2.7,1.1 4,1.1 2.3,0 3.5,-0.9 3.6,-2.6 0,-0.7 -0.2,-1.3 -0.7,-1.7 -0.5,-0.4 -1.4,-0.8 -2.8,-1.3 -0.7,-0.3 -1.1,-0.4 -1.2,-0.4 -2.2,-0.7 -3.3,-1.9 -3.3,-3.6 0,-1 0.4,-1.9 1.3,-2.6 0.9,-0.8 2,-1.1 3.5,-1.1 1.5,0 2.8,0.3 4.1,0.9 l -0.5,1.2 c -1.3,-0.5 -2.5,-0.7 -3.6,-0.7 -1,0 -1.8,0.2 -2.3,0.7 -0.6,0.4 -0.8,1 -0.8,1.8 0,0.6 0.2,1.1 0.6,1.5 0.4,0.4 1.1,0.7 2.2,1 0.1,0 0.3,0.1 0.7,0.2 0.4,0.1 0.5,0.2 0.5,0.2 1.5,0.5 2.5,1 3.1,1.6 0.6,0.6 0.9,1.5 0.9,2.5 0,1.2 -0.5,2.2 -1.4,2.9 -1.1,0.5 -2.3,0.8 -3.7,0.8 z m 12.6,0 c -0.9,0 -1.7,-0.1 -2.5,-0.3 -0.8,-0.2 -1.4,-0.5 -1.9,-0.8 l 0.2,-1.3 c 1.4,0.7 2.7,1.1 4,1.1 2.3,0 3.5,-0.9 3.6,-2.6 0,-0.7 -0.2,-1.3 -0.7,-1.7 -0.5,-0.4 -1.4,-0.8 -2.8,-1.3 -0.7,-0.3 -1.1,-0.4 -1.2,-0.4 -2.2,-0.7 -3.3,-1.9 -3.3,-3.6 0,-1 0.4,-1.9 1.3,-2.6 0.9,-0.8 2,-1.1 3.5,-1.1 1.5,0 2.8,0.3 4.1,0.9 l -0.5,1.2 c -1.3,-0.5 -2.5,-0.7 -3.6,-0.7 -1,0 -1.8,0.2 -2.3,0.7 -0.6,0.4 -0.8,1 -0.8,1.8 0,0.6 0.2,1.1 0.6,1.5 0.4,0.3 1.1,0.7 2.2,1 0.1,0 0.3,0.1 0.7,0.2 0.3,0.1 0.5,0.2 0.5,0.2 1.5,0.5 2.5,1 3.1,1.6 0.6,0.6 0.9,1.5 0.9,2.5 0,1.2 -0.5,2.2 -1.4,2.9 -1.1,0.5 -2.3,0.8 -3.7,0.8 z m 14.2,0 c -1.9,0 -3.4,-0.7 -4.6,-2 -1.1,-1.3 -1.7,-3.1 -1.7,-5.3 0,-2.1 0.6,-3.9 1.7,-5.3 1.1,-1.4 2.5,-2.1 4.3,-2.1 1.6,0 2.9,0.6 3.9,1.8 1,1.2 1.5,2.8 1.5,4.8 0,0.1 0,0.2 0,0.5 0,0.3 0,0.4 0,0.5 h -9.7 c 0,1.8 0.4,3.2 1.3,4.3 0.9,1.1 2,1.6 3.3,1.6 0.9,0 1.7,-0.1 2.4,-0.3 0.7,-0.2 1.4,-0.5 2.1,-0.9 l 0.3,1.2 c -1.5,0.8 -3.1,1.2 -4.8,1.2 z m -4.6,-8.5 h 7.9 c 0,-1.6 -0.3,-2.8 -1,-3.6 -0.7,-0.8 -1.6,-1.3 -2.8,-1.3 -1.2,0 -2.1,0.4 -2.9,1.3 -0.6,1 -1.1,2.2 -1.2,3.6 z m 13.4,8.2 c 0,-8.3 0,-13 0,-14.1 h 1.3 l 0.1,2.8 c 0.5,-0.8 1.1,-1.5 1.9,-2.1 0.8,-0.6 1.6,-0.8 2.4,-0.8 0.3,0 0.7,0 1.1,0.1 l -0.1,1.3 c -0.3,-0.1 -0.6,-0.1 -1,-0.1 -1.2,0 -2.2,0.5 -3,1.4 -0.8,0.9 -1.2,2 -1.2,3.3 v 8.1 H 496 Z m 20.4,0 V 65 h -5.9 V 63.6 H 524 V 65 h -6 v 17.7 z m 10.1,0 V 63.1 l 1.6,-0.1 v 7.1 c 0,0.1 0,0.1 0,0.1 0,0 0,0.1 0,0.1 v 0.4 c 1.1,-1.6 2.8,-2.4 4.9,-2.4 3,0 4.5,1.8 4.5,5.5 v 8.8 h -1.6 v -8.5 c 0,-1.6 -0.2,-2.7 -0.7,-3.4 -0.5,-0.7 -1.3,-1.1 -2.6,-1.1 -1.2,0 -2.2,0.3 -3,1 -0.8,0.7 -1.3,1.5 -1.5,2.5 0,0.3 0,0.9 0,1.5 v 8 h -1.6 z m 19,0.3 c -1.3,0 -2.4,-0.3 -3.1,-1 -0.7,-0.7 -1.2,-1.6 -1.2,-2.9 0,-0.7 0.2,-1.4 0.5,-1.9 0.3,-0.5 0.8,-1 1.4,-1.3 0.6,-0.3 1.3,-0.6 2,-0.8 0.8,-0.2 1.7,-0.3 2.7,-0.4 1.1,-0.1 1.9,-0.1 2.4,-0.2 V 73 c 0,-1.1 -0.2,-1.9 -0.7,-2.4 -0.5,-0.5 -1.3,-0.8 -2.3,-0.8 -1.5,0 -2.8,0.4 -4.1,1.1 0,-0.1 -0.1,-0.3 -0.2,-0.6 -0.1,-0.3 -0.2,-0.5 -0.3,-0.7 0.5,-0.3 1.2,-0.6 2.1,-0.9 0.9,-0.3 1.7,-0.3 2.5,-0.3 1.7,0 2.9,0.4 3.6,1.1 0.7,0.7 1.1,2 1.1,3.8 v 9.4 h -1.2 c 0,-0.2 -0.1,-0.6 -0.2,-1.2 -0.1,-0.6 -0.1,-0.9 -0.1,-0.9 -1.4,1.6 -2.9,2.4 -4.9,2.4 z m 0,-1.3 c 1.1,0 2,-0.3 2.9,-1 0.8,-0.6 1.4,-1.5 1.7,-2.7 v -2.4 c -1.2,0.1 -1.8,0.2 -1.8,0.2 -2.1,0.2 -3.5,0.5 -4.3,1 -0.8,0.5 -1.2,1.3 -1.2,2.3 0,0.9 0.3,1.5 0.8,1.9 0.4,0.5 1.1,0.7 1.9,0.7 z m 10.5,1 V 68.6 h 1.4 l 0.2,2.2 c 0.5,-0.8 1.2,-1.3 2,-1.8 0.8,-0.4 1.7,-0.6 2.7,-0.6 1.6,0 2.8,0.4 3.5,1.3 0.8,0.9 1.1,2.3 1.1,4.3 v 8.7 h -1.6 v -9.5 c 0,-1.3 -0.3,-2.1 -0.8,-2.7 -0.5,-0.5 -1.3,-0.8 -2.4,-0.8 -1.3,0 -2.3,0.3 -3.1,1 -0.8,0.7 -1.3,1.5 -1.5,2.5 0,0.4 -0.1,0.8 -0.1,1.3 v 8.3 H 556 Z"
   inkscape:connector-curvature="0"
   style="clip-rule:evenodd;fill:#52b1db;fill-rule:evenodd" />
		<path
   id="Greater-Than"
   class="st0"
   d="m 634.9,83 c -1.1,0 -2.2,-0.2 -3.2,-0.5 -1,-0.3 -1.8,-0.8 -2.5,-1.4 -0.7,-0.6 -1.3,-1.3 -1.8,-2.1 -0.5,-0.8 -0.8,-1.7 -1.1,-2.7 -0.2,-1 -0.4,-2 -0.4,-3.1 0,-1.9 0.4,-3.6 1.1,-5.1 0.7,-1.5 1.8,-2.7 3.2,-3.5 1.4,-0.9 3.1,-1.3 5,-1.3 2.1,0 4,0.5 5.6,1.5 l -0.7,1.3 c -0.7,-0.4 -1.5,-0.8 -2.3,-1 -0.9,-0.3 -1.7,-0.4 -2.5,-0.4 -1.2,0 -2.3,0.2 -3.3,0.7 -1,0.5 -1.7,1.1 -2.3,1.8 -0.6,0.8 -1.1,1.7 -1.4,2.7 -0.3,1 -0.5,2.1 -0.5,3.3 0,1.3 0.2,2.4 0.5,3.5 0.3,1 0.8,1.9 1.4,2.7 0.6,0.7 1.4,1.3 2.4,1.7 1,0.4 2.1,0.6 3.4,0.6 1.3,0 2.8,-0.3 4.4,-1 v -6.1 h -4.7 l 0.1,-1.4 h 6.1 v 8.4 c -1,0.5 -2,0.9 -3,1.1 -1,0.2 -2.2,0.3 -3.5,0.3 z m 10.7,-0.3 c 0,-8.3 0,-13 0,-14.1 h 1.3 l 0.1,2.8 c 0.5,-0.8 1.1,-1.5 1.9,-2.1 0.8,-0.5 1.6,-0.8 2.4,-0.8 0.3,0 0.7,0 1.1,0.1 l -0.1,1.3 c -0.3,-0.1 -0.6,-0.1 -1,-0.1 -1.2,0 -2.2,0.5 -3,1.4 -0.8,0.9 -1.2,2.1 -1.2,3.3 v 8.1 h -1.5 z m 15,0.3 c -1.9,0 -3.4,-0.7 -4.6,-2 -1.2,-1.3 -1.7,-3.1 -1.7,-5.3 0,-2.2 0.6,-3.9 1.7,-5.3 1.1,-1.4 2.5,-2.1 4.3,-2.1 1.6,0 2.9,0.6 3.9,1.8 1,1.2 1.5,2.8 1.5,4.8 0,0.1 0,0.2 0,0.5 0,0.3 0,0.4 0,0.5 H 656 c 0,1.8 0.4,3.2 1.3,4.3 0.8,1.1 2,1.6 3.3,1.6 0.9,0 1.7,-0.1 2.4,-0.3 0.7,-0.2 1.4,-0.5 2.1,-0.9 l 0.3,1.2 c -1.4,0.8 -3,1.2 -4.8,1.2 z m -4.5,-8.4 h 7.9 c 0,-1.6 -0.3,-2.8 -1,-3.6 -0.7,-0.8 -1.6,-1.3 -2.7,-1.3 -1.2,0 -2.1,0.4 -2.9,1.3 -0.7,0.9 -1.2,2.1 -1.3,3.6 z M 673,83 c -1.3,0 -2.4,-0.3 -3.1,-1 -0.8,-0.7 -1.2,-1.6 -1.2,-2.9 0,-0.7 0.2,-1.4 0.5,-1.9 0.3,-0.5 0.8,-1 1.4,-1.3 0.6,-0.3 1.3,-0.6 2,-0.8 0.8,-0.2 1.7,-0.3 2.7,-0.4 1.1,-0.1 1.9,-0.1 2.4,-0.2 V 73 c 0,-1.1 -0.2,-1.9 -0.7,-2.4 -0.5,-0.5 -1.3,-0.8 -2.3,-0.8 -1.5,0 -2.8,0.4 -4.1,1.1 0,-0.1 -0.1,-0.3 -0.2,-0.6 -0.1,-0.3 -0.2,-0.5 -0.3,-0.7 0.5,-0.3 1.2,-0.6 2.1,-0.9 0.8,-0.2 1.7,-0.3 2.5,-0.3 1.7,0 2.9,0.4 3.6,1.1 0.7,0.7 1.1,2 1.1,3.8 v 9.4 h -1.2 c 0,-0.2 -0.1,-0.6 -0.2,-1.2 -0.1,-0.6 -0.1,-0.9 -0.1,-0.9 -1.4,1.6 -2.9,2.4 -4.9,2.4 z m 0.1,-1.3 c 1.1,0 2,-0.3 2.9,-1 0.8,-0.6 1.4,-1.5 1.7,-2.7 v -2.4 c -1.2,0.1 -1.8,0.2 -1.8,0.2 -2.1,0.2 -3.5,0.5 -4.3,1 -0.8,0.5 -1.2,1.3 -1.2,2.3 0,0.9 0.3,1.5 0.8,1.9 0.5,0.4 1,0.7 1.9,0.7 z m 14.4,1.3 c -1.2,0 -2,-0.3 -2.6,-0.8 -0.5,-0.5 -0.8,-1.4 -0.8,-2.6 v -9.8 h -2 l 0.1,-1 1.9,-0.2 0.4,-3.2 1.1,-0.1 v 3.3 h 4.1 v 1.2 h -4.1 v 9.5 c 0,1 0.2,1.7 0.5,2 0.3,0.3 0.9,0.5 1.7,0.5 0.5,0 1.2,-0.1 1.9,-0.3 l 0.1,1.2 c -1,0.2 -1.8,0.3 -2.3,0.3 z m 10.8,0 c -1.9,0 -3.4,-0.7 -4.6,-2 -1.2,-1.3 -1.7,-3.1 -1.7,-5.3 0,-2.2 0.6,-3.9 1.7,-5.3 1.1,-1.4 2.5,-2.1 4.3,-2.1 1.6,0 2.9,0.6 3.9,1.8 1,1.2 1.5,2.8 1.5,4.8 0,0.1 0,0.2 0,0.5 0,0.2 0,0.4 0,0.5 h -9.7 c 0,1.8 0.4,3.2 1.3,4.3 0.8,1.1 2,1.6 3.3,1.6 0.9,0 1.7,-0.1 2.4,-0.3 0.7,-0.2 1.4,-0.5 2.1,-0.9 l 0.3,1.2 c -1.4,0.8 -3,1.2 -4.8,1.2 z m -4.5,-8.4 h 7.9 c 0,-1.6 -0.3,-2.8 -1,-3.6 -0.7,-0.8 -1.6,-1.3 -2.7,-1.3 -1.2,0 -2.1,0.4 -2.9,1.3 -0.7,0.9 -1.2,2.1 -1.3,3.6 z m 13.4,8.1 c 0,-8.3 0,-13 0,-14.1 h 1.3 l 0.1,2.8 c 0.5,-0.8 1.1,-1.5 1.9,-2.1 0.8,-0.5 1.6,-0.8 2.4,-0.8 0.3,0 0.7,0 1.1,0.1 l -0.1,1.3 c -0.3,-0.1 -0.6,-0.1 -1,-0.1 -1.2,0 -2.2,0.5 -3,1.4 -0.8,0.9 -1.2,2.1 -1.2,3.3 v 8.1 h -1.5 z m 20.3,0 V 65 h -5.9 v -1.4 h 13.5 V 65 h -5.9 v 17.7 z m 10.1,0 V 63.1 l 1.6,-0.1 v 7.1 c 0,0.1 0,0.1 0,0.1 0,0 0,0.1 0,0.1 v 0.4 c 1.1,-1.6 2.8,-2.4 4.9,-2.4 3,0 4.5,1.8 4.5,5.5 v 8.8 H 747 v -8.5 c 0,-1.6 -0.2,-2.7 -0.7,-3.4 -0.5,-0.7 -1.3,-1.1 -2.5,-1.1 -1.2,0 -2.2,0.3 -3,1 -0.8,0.6 -1.3,1.5 -1.5,2.5 0,0.3 0,0.9 0,1.5 v 8 h -1.7 z m 18.9,0.3 c -1.3,0 -2.4,-0.3 -3.1,-1 -0.7,-0.7 -1.2,-1.6 -1.2,-2.9 0,-0.7 0.2,-1.4 0.5,-1.9 0.3,-0.5 0.8,-1 1.4,-1.3 0.6,-0.3 1.3,-0.6 2,-0.8 0.8,-0.2 1.7,-0.3 2.7,-0.4 1.1,-0.1 1.9,-0.1 2.4,-0.2 V 73 c 0,-1.1 -0.2,-1.9 -0.7,-2.4 -0.5,-0.5 -1.3,-0.8 -2.3,-0.8 -1.5,0 -2.8,0.4 -4.1,1.1 0,-0.1 -0.1,-0.3 -0.2,-0.6 -0.1,-0.3 -0.2,-0.5 -0.3,-0.7 0.5,-0.3 1.2,-0.6 2.1,-0.9 0.8,-0.2 1.7,-0.3 2.5,-0.3 1.7,0 2.9,0.4 3.6,1.1 0.7,0.7 1.1,2 1.1,3.8 v 9.4 h -1.2 c 0,-0.2 -0.1,-0.6 -0.2,-1.2 -0.1,-0.6 -0.1,-0.9 -0.1,-0.9 -1.4,1.6 -2.9,2.4 -4.9,2.4 z m 0.1,-1.3 c 1.1,0 2,-0.3 2.9,-1 0.8,-0.6 1.4,-1.5 1.7,-2.7 v -2.4 c -1.2,0.1 -1.8,0.2 -1.8,0.2 -2.1,0.2 -3.5,0.5 -4.3,1 -0.8,0.5 -1.2,1.3 -1.2,2.3 0,0.9 0.3,1.5 0.8,1.9 0.5,0.4 1,0.7 1.9,0.7 z m 10.5,1 V 68.6 h 1.4 l 0.2,2.2 c 0.5,-0.8 1.2,-1.3 2,-1.8 0.8,-0.4 1.7,-0.6 2.7,-0.6 1.6,0 2.8,0.4 3.5,1.3 0.8,0.9 1.1,2.3 1.1,4.3 v 8.7 h -1.6 v -9.5 c 0,-1.3 -0.3,-2.2 -0.8,-2.7 -0.5,-0.5 -1.3,-0.8 -2.4,-0.8 -1.3,0 -2.3,0.3 -3.1,1 -0.8,0.7 -1.3,1.5 -1.5,2.5 0,0.4 -0.1,0.8 -0.1,1.3 v 8.3 h -1.4 z"
   inkscape:connector-curvature="0"
   style="clip-rule:evenodd;fill:#52b1db;fill-rule:evenodd" />
		<path
   id="Fill-1"
   class="st1"
   d="m 850,71.5 c 0,0.1 0,0.1 -0.1,0.1 l -10.5,8.3 c -0.1,0.1 -0.2,0.1 -0.3,0 -0.1,-0.1 -0.1,-0.2 0,-0.3 l 10.3,-8.2 -10.3,-8.2 c -0.1,-0.1 -0.1,-0.2 0,-0.3 0.1,-0.1 0.2,-0.1 0.3,0 v 0 l 10.5,8.3 c 0.1,0.2 0.1,0.2 0.1,0.3"
   inkscape:connector-curvature="0"
   style="clip-rule:evenodd;fill:#52b1db;fill-rule:evenodd;stroke:#52b1db;stroke-width:1.5" />
		<path
   id="Line-2"
   class="st2"
   d="m 797.5,72 h 51"
   inkscape:connector-curvature="0"
   style="fill:none;stroke:#52b1db;stroke-width:1.5;stroke-linecap:square" />
		<path
   id="Fill-1_1_"
   class="st3"
   d="m 358,71.5 c 0,0.1 0,0.1 0.1,0.1 l 10.5,8.3 c 0.1,0.1 0.2,0.1 0.3,0 0.1,-0.1 0.1,-0.2 0,-0.3 l -10.3,-8.2 10.3,-8.2 c 0.1,-0.1 0.1,-0.2 0,-0.3 -0.1,-0.1 -0.2,-0.1 -0.3,0 v 0 l -10.5,8.3 c -0.1,0.2 -0.1,0.2 -0.1,0.3"
   inkscape:connector-curvature="0"
   style="clip-rule:evenodd;fill:#4ea8d0;fill-rule:evenodd;stroke:#52b1db;stroke-width:1.5" />
		<path
   id="Line-2_1_"
   class="st2"
   d="m 410.5,72 h -51"
   inkscape:connector-curvature="0"
   style="fill:none;stroke:#52b1db;stroke-width:1.5;stroke-linecap:square" />
		<path
   id="Line"
   class="st4"
   d="M 30.5,44 1178,38"
   inkscape:connector-curvature="0"
   style="fill:none;stroke:#4e768d;stroke-width:2;stroke-linecap:square" />
		<path
   id="Binary-Search-Tree"
   class="st5"
   d="m 453,887.7 v 10 h 5.4 c 2.2,0 3.9,-0.4 5,-1.2 1.1,-0.8 1.7,-2.1 1.7,-3.8 0,-1.8 -0.6,-3.1 -1.8,-3.8 -1.2,-0.7 -3,-1.1 -5.6,-1.1 H 453 Z m 0,-2.5 h 5.6 c 1.8,0 3.2,-0.3 4.1,-1 0.9,-0.7 1.4,-1.8 1.4,-3.4 0,-1.6 -0.6,-2.8 -1.7,-3.4 -1.1,-0.6 -2.8,-0.9 -5.2,-0.9 H 453 Z M 450,874 h 7.5 c 3.3,0 5.8,0.5 7.4,1.5 1.6,1 2.4,2.7 2.4,4.9 0,0.3 0,0.7 -0.1,1 -0.1,0.3 -0.1,0.7 -0.3,1.3 -0.2,0.5 -0.4,1 -0.7,1.4 -0.3,0.4 -0.7,0.8 -1.3,1.3 -0.6,0.5 -1.2,0.8 -2,1 1.7,0.3 3.1,1.1 4,2.2 0.9,1.1 1.4,2.6 1.4,4.2 0,2.4 -0.8,4.2 -2.3,5.5 -1.5,1.3 -3.8,2 -6.9,2 H 450 Z m 26.2,6.7 v 19.5 h -3 v -19.5 z m 0,-7 v 3.5 h -3 v -3.5 z m 6.2,26.5 v -19.5 h 2.5 l 0.4,2.8 c 0.8,-1 1.7,-1.7 2.9,-2.3 1.1,-0.6 2.4,-0.9 3.7,-0.9 2.2,0 3.9,0.6 4.9,1.9 1.1,1.3 1.6,3.2 1.6,5.8 v 12.2 h -2.9 c 0,-7.8 0,-12 0,-12.5 0,-1.7 -0.4,-2.9 -1,-3.6 -0.6,-0.8 -1.6,-1.2 -3.1,-1.2 -1.5,0 -2.8,0.4 -3.8,1.1 -1,0.7 -1.7,1.7 -2,2.9 -0.1,0.8 -0.2,1.7 -0.2,2.7 v 10.6 z m 27,-2 c 1.4,0 2.6,-0.4 3.7,-1.2 1.1,-0.8 1.7,-1.8 2,-3.1 v -3.3 c -0.1,0 -0.4,0 -1.1,0.1 -0.7,0.1 -1.1,0.1 -1.3,0.1 -2.5,0.2 -4.3,0.6 -5.3,1.3 -1,0.6 -1.5,1.6 -1.5,3 0,1 0.3,1.8 0.9,2.4 0.6,0.6 1.6,0.7 2.6,0.7 z m 6.4,2 c -0.2,-0.8 -0.3,-1.6 -0.5,-2.4 -1.1,1.1 -2.1,1.8 -3,2.2 -0.9,0.4 -2,0.6 -3.3,0.6 -1.8,0 -3.3,-0.5 -4.4,-1.4 -1.1,-1 -1.6,-2.3 -1.6,-4.1 0,-2 0.7,-3.5 2.2,-4.4 1.5,-1 3.7,-1.6 6.5,-1.8 0.4,0 1,-0.1 1.8,-0.2 0.8,-0.1 1.4,-0.1 1.8,-0.2 v -1.7 c 0,-1.4 -0.3,-2.4 -0.9,-3.1 -0.6,-0.7 -1.6,-1 -3,-1 -1.9,0 -3.8,0.5 -5.8,1.4 -0.1,-0.1 -0.2,-0.6 -0.5,-1.2 -0.2,-0.7 -0.4,-1 -0.4,-1.1 0.9,-0.5 1.9,-0.9 3.1,-1.2 1.2,-0.3 2.4,-0.4 3.6,-0.4 2.4,0 4.1,0.5 5.2,1.6 1.1,1.1 1.6,2.9 1.6,5.4 v 12.9 h -2.4 z m 16.7,-19.6 c 0.5,0 1,0 1.4,0.1 l -0.1,2.7 c -0.5,-0.1 -1,-0.1 -1.4,-0.1 -1.6,0 -3,0.6 -4,1.7 -1,1.1 -1.5,2.6 -1.5,4.3 v 10.9 H 524 c 0,-11.9 0,-18.4 0,-19.5 h 2.4 l 0.3,3.5 c 0.7,-1.1 1.5,-2 2.6,-2.7 0.9,-0.6 2,-0.9 3.2,-0.9 z m 2.7,0.1 h 3.1 l 6.1,16.2 5.4,-16.2 h 3.1 c -5.2,14.4 -7.9,21.9 -8.1,22.3 -0.8,2 -1.8,3.5 -2.9,4.5 -1.1,1 -2.7,1.4 -4.5,1.4 -0.6,0 -1.2,0 -1.8,-0.1 l -0.2,-2.5 c 0.7,0 1.1,0.1 1.5,0.1 1.3,0 2.3,-0.2 3,-0.7 0.7,-0.5 1.3,-1.4 1.8,-2.8 0.5,-1.2 0.8,-2.2 1.1,-2.9 z m 30.7,15.2 c 2.7,1.3 5.6,2 8.7,2 3.8,0 5.7,-1.7 5.7,-5.2 0,-1.1 -0.3,-2.1 -0.9,-2.8 -0.6,-0.7 -1.7,-1.3 -3.3,-1.7 l -5.2,-1.3 c -4,-1 -5.9,-3.1 -5.9,-6.4 0,-2.5 0.9,-4.3 2.6,-5.6 1.7,-1.2 4.1,-1.8 7.1,-1.8 1.6,0 3,0.2 4.4,0.5 1.4,0.3 2.5,0.8 3.4,1.4 l -0.9,2.5 c -0.8,-0.4 -1.8,-0.8 -3.1,-1.2 -1.3,-0.3 -2.6,-0.5 -3.9,-0.5 -4.2,0 -6.4,1.5 -6.4,4.5 0,1 0.3,1.8 1,2.4 0.7,0.6 1.6,1.1 2.9,1.4 l 4.9,1.2 c 2.1,0.5 3.7,1.3 4.8,2.4 1.1,1.1 1.6,2.7 1.6,4.8 0,2.7 -0.8,4.7 -2.4,6 -1.6,1.3 -3.8,2 -6.6,2 -2.1,0 -3.9,-0.2 -5.6,-0.6 -1.6,-0.4 -2.9,-0.9 -3.9,-1.5 z m 33.4,-11.6 c -0.9,-1 -2,-1.6 -3.5,-1.6 -1.5,0 -2.7,0.5 -3.7,1.6 -1,1.1 -1.5,2.5 -1.7,4.4 h 10.2 c 0,-1.9 -0.5,-3.3 -1.3,-4.4 z m -3,16.3 c -2.8,0 -5,-0.9 -6.6,-2.7 -1.6,-1.8 -2.4,-4.3 -2.4,-7.4 0,-3 0.8,-5.5 2.3,-7.3 1.5,-1.8 3.6,-2.8 6.2,-2.9 2.4,0 4.3,0.8 5.7,2.5 1.4,1.6 2.1,3.9 2.1,6.6 0,0.1 0,0.4 0,0.8 0,0.4 0,0.7 0,0.8 h -13.2 c 0,2.2 0.6,3.9 1.7,5.2 1.1,1.3 2.6,1.9 4.4,1.9 2,0 4.1,-0.5 6.1,-1.6 l 0.5,2.4 c -2.1,1.1 -4.3,1.7 -6.8,1.7 z m 17.4,-2.4 c 1.4,0 2.6,-0.4 3.7,-1.2 1.1,-0.8 1.7,-1.8 2,-3.1 v -3.3 c -0.1,0 -0.4,0 -1.1,0.1 -0.7,0.1 -1.1,0.1 -1.3,0.1 -2.5,0.2 -4.3,0.6 -5.3,1.3 -1,0.6 -1.5,1.6 -1.5,3 0,1 0.3,1.8 0.9,2.4 0.6,0.6 1.5,0.7 2.6,0.7 z m 6.3,2 c -0.2,-0.8 -0.3,-1.6 -0.5,-2.4 -1.1,1.1 -2.1,1.8 -3,2.2 -0.9,0.4 -2,0.6 -3.3,0.6 -1.8,0 -3.3,-0.5 -4.4,-1.4 -1.1,-0.9 -1.6,-2.3 -1.6,-4.1 0,-2 0.7,-3.5 2.2,-4.4 1.5,-1 3.7,-1.6 6.5,-1.8 0.4,0 1,-0.1 1.8,-0.2 0.8,-0.1 1.4,-0.1 1.8,-0.2 v -1.7 c 0,-1.4 -0.3,-2.4 -0.9,-3.1 -0.6,-0.7 -1.6,-1 -3,-1 -1.9,0 -3.8,0.5 -5.8,1.4 -0.1,-0.1 -0.2,-0.6 -0.5,-1.2 -0.2,-0.7 -0.4,-1 -0.4,-1.1 0.9,-0.5 1.9,-0.9 3.1,-1.2 1.2,-0.3 2.4,-0.4 3.6,-0.4 2.4,0 4.1,0.5 5.2,1.6 1.1,1.1 1.6,2.9 1.6,5.4 v 12.9 H 620 Z m 16.7,-19.6 c 0.5,0 1,0 1.4,0.1 l -0.1,2.7 c -0.5,-0.1 -1,-0.1 -1.4,-0.1 -1.6,0 -3,0.6 -4,1.7 -1,1.1 -1.5,2.6 -1.5,4.3 v 10.9 h -2.9 c 0,-11.9 0,-18.4 0,-19.5 h 2.4 l 0.3,3.5 c 0.7,-1.1 1.5,-2 2.6,-2.7 0.9,-0.6 2,-0.9 3.2,-0.9 z m 12.9,20 c -2.8,0 -5.1,-0.9 -6.7,-2.8 -1.6,-1.9 -2.4,-4.3 -2.4,-7.3 0,-3 0.8,-5.5 2.5,-7.4 1.7,-1.9 3.8,-2.8 6.7,-2.8 1,0 2,0.1 2.9,0.4 0.9,0.2 1.7,0.6 2.2,1 L 654,884 c -1.4,-0.7 -2.8,-1.1 -4.3,-1.1 -1.9,0 -3.3,0.7 -4.4,2.1 -1.1,1.4 -1.6,3.2 -1.6,5.6 0,2.3 0.5,4.2 1.6,5.5 1.1,1.4 2.6,2 4.5,2 1.5,0 3.1,-0.4 4.6,-1.2 l 0.4,2.4 c -1.4,0.8 -3.1,1.3 -5.2,1.3 z m 22.6,-0.4 v -11.8 c 0,-2 -0.3,-3.4 -0.9,-4.3 -0.6,-0.9 -1.7,-1.3 -3.2,-1.3 -1.5,0 -2.7,0.4 -3.7,1.1 -1,0.7 -1.7,1.7 -2,2.9 -0.1,0.9 -0.2,1.9 -0.2,3 v 10.4 h -2.9 v -27 l 2.9,-0.2 v 7.9 c 0,0.7 0,1.5 -0.1,2.5 1.7,-2.1 3.8,-3.1 6.6,-3.1 4.3,0 6.5,2.5 6.5,7.6 v 12.2 h -3 z m 25.5,0 h -3.1 v -23.5 h -8 V 874 h 19.1 v 2.7 h -8 z m 20,-19.6 c 0.5,0 1,0 1.4,0.1 l -0.1,2.7 c -0.5,-0.1 -1,-0.1 -1.4,-0.1 -1.6,0 -3,0.6 -4,1.7 -1,1.1 -1.5,2.6 -1.5,4.3 v 10.9 h -2.9 c 0,-11.9 0,-18.4 0,-19.5 h 2.4 l 0.3,3.5 c 0.7,-1.1 1.5,-2 2.6,-2.7 0.9,-0.6 2,-0.9 3.2,-0.9 z m 15.9,3.7 c -0.9,-1 -2,-1.6 -3.5,-1.6 -1.5,0 -2.7,0.5 -3.7,1.6 -1,1.1 -1.5,2.5 -1.7,4.4 h 10.2 c 0,-1.9 -0.5,-3.3 -1.3,-4.4 z m -3,16.3 c -2.8,0 -5,-0.9 -6.6,-2.7 -1.6,-1.8 -2.4,-4.3 -2.4,-7.4 0,-3 0.8,-5.5 2.3,-7.3 1.6,-1.9 3.6,-2.8 6.2,-2.9 2.4,0 4.3,0.8 5.7,2.5 1.4,1.7 2.1,3.9 2.1,6.6 0,0.1 0,0.4 0,0.8 0,0.4 0,0.7 0,0.8 h -13.2 c 0,2.2 0.6,3.9 1.7,5.2 1.1,1.3 2.6,1.9 4.4,1.9 2,0 4.1,-0.5 6.1,-1.6 l 0.5,2.4 c -2.1,1.1 -4.3,1.7 -6.8,1.7 z m 23.1,-16.3 c -0.9,-1 -2,-1.6 -3.5,-1.6 -1.5,0 -2.7,0.5 -3.7,1.6 -1,1.1 -1.5,2.5 -1.7,4.4 H 755 c 0,-1.9 -0.4,-3.3 -1.3,-4.4 z m -2.9,16.3 c -2.8,0 -5,-0.9 -6.6,-2.7 -1.6,-1.8 -2.4,-4.3 -2.4,-7.4 0,-3 0.8,-5.5 2.3,-7.3 1.5,-1.8 3.6,-2.8 6.2,-2.9 2.4,0 4.3,0.8 5.7,2.5 1.4,1.7 2.1,3.9 2.1,6.6 0,0.1 0,0.4 0,0.8 0,0.4 0,0.7 0,0.8 h -13.2 c 0,2.2 0.6,3.9 1.7,5.2 1.1,1.2 2.6,1.9 4.4,1.9 2,0 4.1,-0.5 6.1,-1.6 l 0.5,2.4 c -2.1,1.1 -4.3,1.7 -6.8,1.7 z"
   inkscape:connector-curvature="0"
   style="clip-rule:evenodd;fill:#ffffff;fill-rule:evenodd" />
		<path
   id="Stroke-19"
   class="st6"
   d="M 680,278 921.7,389.1"
   inkscape:connector-curvature="0"
   style="fill:none;stroke:#7a98a9;stroke-width:2.73600006" />
		<path
   id="Stroke-19-Copy-3"
   class="st6"
   d="M 1055,561 974,497"
   inkscape:connector-curvature="0"
   style="fill:none;stroke:#7a98a9;stroke-width:2.73600006" />
		<path
   id="Stroke-19-Copy-6"
   class="st6"
   d="m 929,498 -81,64"
   inkscape:connector-curvature="0"
   style="fill:none;stroke:#7a98a9;stroke-width:2.73600006" />
		<circle
   id="Oval"
   class="st7"
   cx="945.5"
   cy="438.5"
   r="72.5"
   style="clip-rule:evenodd;fill:#4e768d;fill-rule:evenodd" />
		<path
   id="_x37_0"
   class="st5"
   d="m 912.8,471.1 19.5,-49.9 H 907 l 0.5,-4 h 28.7 l 0.6,4.5 -19.1,49.5 h -4.9 z m 52.4,-3.3 c 3.7,0 6.7,-2.2 8.9,-6.7 2.3,-4.4 3.4,-10.4 3.4,-17.9 0,-7.3 -1.1,-13.2 -3.4,-17.6 -2.3,-4.4 -5.2,-6.5 -8.9,-6.5 -3.7,0 -6.7,2.2 -8.9,6.6 -2.2,4.4 -3.4,10.2 -3.4,17.6 0,7.5 1.1,13.4 3.4,17.9 2.3,4.4 5.2,6.6 8.9,6.6 z m 8,2.1 c -2.3,1.4 -4.9,2.1 -8,2.1 -3,0 -5.7,-0.7 -8,-2.1 -2.3,-1.4 -4.2,-3.3 -5.6,-5.9 -1.4,-2.6 -2.5,-5.5 -3.2,-9 -0.7,-3.5 -1.1,-7.3 -1.1,-11.6 0,-9.1 1.5,-16.1 4.6,-21 3.1,-5 7.5,-7.4 13.3,-7.4 5.8,0 10.2,2.5 13.2,7.4 3,4.9 4.5,12 4.5,21 0,4.3 -0.3,8.2 -1,11.6 -0.7,3.4 -1.8,6.4 -3.2,9 -1.3,2.6 -3.2,4.6 -5.5,5.9 z"
   inkscape:connector-curvature="0"
   style="clip-rule:evenodd;fill:#ffffff;fill-rule:evenodd" />
		<path
   id="Stroke-19-Copy-4"
   class="st6"
   d="m 805,708 52,-52"
   inkscape:connector-curvature="0"
   style="fill:none;stroke:#7a98a9;stroke-width:2.73600006" />
		<path
   id="Stroke-19-Copy-5"
   class="st6"
   d="m 866,661 52,52"
   inkscape:connector-curvature="0"
   style="fill:none;stroke:#7a98a9;stroke-width:2.73600006" />
		<circle
   id="Oval_1_"
   class="st7"
   cx="808.5"
   cy="738.5"
   r="37.5"
   style="clip-rule:evenodd;fill:#4e768d;fill-rule:evenodd" />
		<path
   id="_x34_2"
   class="st5"
   d="m 798.9,752 v -7.4 H 786 v -2.5 L 798.9,724 h 2.3 v 18.6 h 3.5 l -0.3,2 h -3.2 v 7.4 z m -10.3,-9.4 h 10.3 v -14.8 z m 21.3,9.4 -0.6,-2.3 9.8,-11.1 c 1.3,-1.5 2.2,-2.8 2.9,-3.9 0.7,-1.1 0.9,-2.2 0.9,-3.2 0,-1.7 -0.4,-3.1 -1.3,-4 -0.8,-0.9 -2.1,-1.4 -3.8,-1.4 -1.2,0 -2.4,0.2 -3.5,0.5 -1.2,0.3 -2.1,0.9 -2.8,1.5 l -0.9,-1.8 c 1.6,-1.5 4,-2.2 7.3,-2.2 2.4,0 4.3,0.6 5.7,1.9 1.4,1.3 2.1,3 2.1,5.1 0,1.4 -0.4,2.8 -1.1,4.2 -0.7,1.4 -1.9,3 -3.6,4.9 l -8.5,9.5 H 826 l -0.2,2.3 z"
   inkscape:connector-curvature="0"
   style="clip-rule:evenodd;fill:#ffffff;fill-rule:evenodd" />
		<circle
   id="Oval_2_"
   class="st7"
   cx="907.5"
   cy="738.5"
   r="37.5"
   style="clip-rule:evenodd;fill:#4e768d;fill-rule:evenodd" />
		<path
   id="_x36_9"
   class="st5"
   d="m 895,755 c -1.4,0 -2.7,-0.3 -3.8,-0.8 -1.1,-0.5 -2.1,-1.2 -2.9,-2.1 -0.7,-0.9 -1.3,-1.9 -1.7,-3 -0.4,-1.1 -0.6,-2.3 -0.6,-3.5 0,-0.6 0,-1.1 0.1,-1.5 0.1,-0.5 0.1,-0.9 0.2,-1.3 0.1,-0.4 0.3,-0.9 0.5,-1.4 0.3,-0.5 0.5,-1 0.7,-1.4 0.2,-0.4 0.6,-0.9 1.1,-1.7 0.5,-0.8 0.9,-1.3 1.3,-1.9 0.4,-0.6 1,-1.3 1.7,-2.4 0.6,-0.8 1.5,-1.8 2.6,-3.1 1.1,-1.3 2,-2.4 2.8,-3.2 l 1.2,-1.3 h 2.6 l -9.8,12.1 c 0.7,-0.4 1.5,-0.8 2.3,-1 0.8,-0.2 1.6,-0.3 2.6,-0.3 1.1,0 2.1,0.2 3.1,0.7 1,0.5 1.9,1.1 2.6,1.9 0.7,0.8 1.3,1.7 1.8,2.8 0.4,1.1 0.7,2.3 0.7,3.5 0,2.4 -0.8,4.5 -2.5,6.2 -1.7,1.7 -4,2.7 -6.6,2.7 z m 0,-2.1 c 1.9,0 3.5,-0.7 4.8,-2 1.2,-1.3 1.8,-2.9 1.8,-4.7 0,-1.2 -0.2,-2.4 -0.7,-3.4 -0.5,-1 -1.3,-1.9 -2.3,-2.6 -1,-0.7 -2.2,-1 -3.5,-1 -1.1,0 -2,0.2 -2.9,0.6 -0.9,0.4 -1.6,0.9 -2.1,1.5 -0.5,0.6 -0.9,1.4 -1.2,2.2 -0.3,0.8 -0.4,1.7 -0.4,2.6 0,0.8 0.2,1.7 0.5,2.5 0.3,0.8 0.7,1.5 1.3,2.2 0.5,0.6 1.2,1.2 2.1,1.5 0.7,0.4 1.6,0.6 2.6,0.6 z m 17.2,1.7 10.5,-12.8 c -0.7,0.5 -1.5,0.8 -2.4,1.1 -0.9,0.3 -1.8,0.4 -2.6,0.4 -1.5,0 -2.9,-0.3 -4.2,-1 -1.3,-0.7 -2.4,-1.7 -3.2,-3 -0.8,-1.3 -1.2,-2.8 -1.2,-4.5 0,-1.2 0.2,-2.3 0.6,-3.4 0.4,-1.1 1,-2 1.8,-2.8 0.8,-0.8 1.7,-1.4 2.9,-1.9 1.2,-0.5 2.4,-0.7 3.8,-0.7 1.4,0 2.7,0.2 3.9,0.7 1.1,0.5 2.1,1.2 2.8,2 0.7,0.8 1.3,1.8 1.6,2.9 0.3,1.1 0.6,2.2 0.6,3.5 0,1.8 -0.3,3.4 -0.8,4.7 -0.5,1.3 -1.7,3.2 -3.5,5.7 l -1.9,2.3 c -1.2,1.5 -2.5,3 -3.7,4.5 l -1.9,2.3 z m 5.8,-13.3 c 1.1,0 2.1,-0.2 3,-0.5 0.9,-0.4 1.6,-0.9 2.1,-1.5 0.5,-0.6 0.9,-1.3 1.2,-2.1 0.3,-0.8 0.4,-1.6 0.4,-2.4 0,-0.9 -0.1,-1.7 -0.4,-2.5 -0.3,-0.8 -0.7,-1.5 -1.2,-2.1 -0.5,-0.6 -1.2,-1.1 -2.1,-1.5 -0.9,-0.4 -1.8,-0.6 -2.8,-0.6 -1.4,0 -2.6,0.3 -3.6,1 -1.1,0.7 -1.9,1.5 -2.4,2.5 -0.5,1 -0.8,2.1 -0.8,3.3 0,1.9 0.6,3.4 1.8,4.6 1.2,1.2 2.8,1.8 4.8,1.8 z"
   inkscape:connector-curvature="0"
   style="clip-rule:evenodd;fill:#ffffff;fill-rule:evenodd" />
		<path
   id="Stroke-19-Copy-4_1_"
   class="st6"
   d="m 994,708 52,-52"
   inkscape:connector-curvature="0"
   style="fill:none;stroke:#7a98a9;stroke-width:2.73600006" />
		<path
   id="Stroke-19-Copy-5_1_"
   class="st6"
   d="m 1056,661 52,52"
   inkscape:connector-curvature="0"
   style="fill:none;stroke:#7a98a9;stroke-width:2.73600006" />
		<circle
   id="Oval_3_"
   class="st7"
   cx="997.5"
   cy="738.5"
   r="37.5"
   style="clip-rule:evenodd;fill:#4e768d;fill-rule:evenodd" />
		<path
   id="_x37_6"
   class="st5"
   d="m 982,753.6 10.1,-25.5 H 979 l 0.3,-2.1 h 14.9 l 0.3,2.3 -9.9,25.3 z m 27,0.4 c -1.4,0 -2.7,-0.3 -3.8,-0.8 -1.2,-0.5 -2.1,-1.2 -2.9,-2.1 -0.7,-0.9 -1.3,-1.8 -1.7,-2.9 -0.4,-1.1 -0.6,-2.2 -0.6,-3.4 0,-0.5 0,-1 0.1,-1.5 0.1,-0.5 0.1,-0.9 0.2,-1.3 0.1,-0.4 0.3,-0.8 0.5,-1.4 0.3,-0.5 0.5,-1 0.7,-1.3 0.2,-0.4 0.6,-0.9 1.1,-1.6 0.5,-0.7 0.9,-1.3 1.3,-1.8 0.4,-0.5 1,-1.3 1.7,-2.3 0.6,-0.8 1.5,-1.8 2.6,-3.1 1.1,-1.3 2,-2.3 2.8,-3.2 l 1.2,-1.3 h 2.6 l -9.8,11.8 c 0.7,-0.4 1.5,-0.7 2.3,-0.9 0.8,-0.2 1.6,-0.3 2.6,-0.3 1.1,0 2.1,0.2 3.1,0.7 1,0.5 1.9,1.1 2.6,1.8 0.7,0.8 1.3,1.7 1.8,2.8 0.5,1.1 0.7,2.2 0.7,3.5 0,2.4 -0.8,4.4 -2.5,6.1 -1.8,1.7 -4,2.5 -6.6,2.5 z m 0,-2.1 c 1.9,0 3.5,-0.7 4.8,-2 1.2,-1.3 1.8,-2.9 1.8,-4.6 0,-1.2 -0.2,-2.3 -0.7,-3.4 -0.5,-1.1 -1.2,-1.9 -2.3,-2.5 -1.1,-0.6 -2.2,-1 -3.5,-1 -1.1,0 -2,0.2 -2.9,0.5 -0.9,0.3 -1.5,0.9 -2.1,1.5 -0.5,0.6 -0.9,1.3 -1.2,2.1 -0.3,0.8 -0.4,1.7 -0.4,2.6 0,0.8 0.2,1.6 0.5,2.4 0.3,0.8 0.7,1.5 1.3,2.1 0.5,0.6 1.2,1.1 2.1,1.5 0.7,0.7 1.6,0.8 2.6,0.8 z"
   inkscape:connector-curvature="0"
   style="clip-rule:evenodd;fill:#ffffff;fill-rule:evenodd" />
		<circle
   id="Oval_4_"
   class="st7"
   cx="1096.5"
   cy="738.5"
   r="37.5"
   style="clip-rule:evenodd;fill:#4e768d;fill-rule:evenodd" />
		<path
   id="_x39_8"
   class="st5"
   d="m 1079.2,755.6 10.5,-12.8 c -0.7,0.5 -1.5,0.8 -2.4,1.1 -0.9,0.3 -1.8,0.4 -2.6,0.4 -1.5,0 -2.9,-0.3 -4.2,-1 -1.3,-0.7 -2.4,-1.7 -3.2,-3 -0.8,-1.3 -1.2,-2.8 -1.2,-4.5 0,-1.2 0.2,-2.3 0.6,-3.4 0.4,-1.1 1,-2 1.8,-2.8 0.8,-0.8 1.7,-1.4 2.9,-1.9 1.2,-0.5 2.4,-0.7 3.8,-0.7 1.5,0 2.8,0.2 3.9,0.7 1.2,0.5 2.1,1.2 2.8,2 0.7,0.8 1.3,1.8 1.6,2.9 0.4,1.1 0.6,2.2 0.6,3.5 0,1.8 -0.3,3.4 -0.8,4.7 -0.5,1.3 -1.7,3.2 -3.5,5.7 l -1.9,2.3 c -1.2,1.5 -2.5,3 -3.7,4.5 l -1.9,2.3 z m 5.9,-13.3 c 1.1,0 2.1,-0.2 3,-0.5 0.9,-0.4 1.6,-0.9 2.1,-1.5 0.5,-0.6 0.9,-1.3 1.2,-2.1 0.3,-0.8 0.4,-1.6 0.4,-2.4 0,-0.9 -0.1,-1.7 -0.4,-2.5 -0.3,-0.8 -0.7,-1.5 -1.2,-2.1 -0.5,-0.6 -1.2,-1.1 -2.1,-1.5 -0.8,-0.4 -1.8,-0.6 -2.8,-0.6 -1.4,0 -2.6,0.3 -3.7,1 -1.1,0.7 -1.9,1.5 -2.4,2.5 -0.5,1 -0.8,2.1 -0.8,3.3 0,1.9 0.6,3.4 1.8,4.6 1.2,1.2 2.9,1.8 4.9,1.8 z m 23,13.7 c -1.7,0 -3.2,-0.3 -4.5,-0.9 -1.3,-0.6 -2.4,-1.4 -3.3,-2.6 -0.8,-1.2 -1.2,-2.6 -1.2,-4.2 0,-1.8 0.6,-3.5 1.7,-4.9 1.1,-1.4 2.7,-2.4 4.8,-3 -1.9,-0.5 -3.3,-1.3 -4.3,-2.4 -1,-1.1 -1.5,-2.4 -1.5,-4 0,-2.1 0.8,-3.8 2.3,-5.1 1.6,-1.3 3.6,-1.9 6.1,-1.9 2.5,0 4.5,0.6 6,1.9 1.5,1.3 2.3,3 2.3,5.1 0,1.6 -0.5,2.9 -1.5,4 -1,1.1 -2.3,1.9 -4.1,2.4 1.9,0.6 3.4,1.6 4.5,3 1.1,1.4 1.7,3.1 1.7,4.9 0,1.2 -0.2,2.3 -0.7,3.3 -0.5,1 -1.1,1.8 -1.9,2.4 -0.8,0.6 -1.7,1.1 -2.8,1.5 -1.2,0.3 -2.4,0.5 -3.6,0.5 z m 0,-2 c 1.8,0 3.3,-0.5 4.6,-1.5 1.2,-1 1.8,-2.4 1.8,-4.1 0,-1.8 -0.6,-3.3 -1.7,-4.5 -1.1,-1.2 -2.7,-2 -4.7,-2.5 -2,0.5 -3.5,1.3 -4.7,2.5 -1.2,1.2 -1.8,2.7 -1.8,4.5 0,1.7 0.6,3 1.9,4.1 1.3,1.1 2.7,1.5 4.6,1.5 z m 0,-14.6 c 3.9,-0.8 5.8,-2.6 5.8,-5.5 0,-1.6 -0.6,-2.8 -1.7,-3.6 -1.1,-0.8 -2.5,-1.3 -4.1,-1.3 -1.6,0 -3,0.4 -4.2,1.3 -1.2,0.9 -1.7,2.1 -1.7,3.6 0,2.9 1.9,4.7 5.9,5.5 z"
   inkscape:connector-curvature="0"
   style="clip-rule:evenodd;fill:#ffffff;fill-rule:evenodd" />
		<circle
   id="Oval_5_"
   class="st7"
   cx="858"
   cy="611"
   r="55"
   style="clip-rule:evenodd;fill:#4e768d;fill-rule:evenodd" />
		<path
   id="_x36_4"
   class="st5"
   d="m 839.1,632 c -2,0 -3.9,-0.4 -5.5,-1.1 -1.7,-0.8 -3.1,-1.8 -4.2,-3 -1.1,-1.3 -1.9,-2.7 -2.5,-4.3 -0.6,-1.6 -0.9,-3.3 -0.9,-5 0,-0.8 0,-1.5 0.1,-2.2 0.1,-0.7 0.2,-1.3 0.3,-1.9 0.1,-0.6 0.4,-1.2 0.7,-2 0.3,-0.8 0.7,-1.4 1,-2 0.3,-0.6 0.8,-1.4 1.5,-2.4 0.7,-1 1.4,-1.9 1.9,-2.7 0.6,-0.8 1.4,-1.9 2.5,-3.4 0.9,-1.2 2.2,-2.7 3.8,-4.5 1.6,-1.8 3,-3.4 4.1,-4.7 l 1.7,-1.9 h 3.7 L 833,608.3 c 1.1,-0.6 2.2,-1.1 3.3,-1.4 1.1,-0.3 2.4,-0.4 3.8,-0.4 1.6,0 3.1,0.3 4.5,1 1.5,0.7 2.7,1.6 3.8,2.7 1.1,1.1 2,2.5 2.6,4.1 0.7,1.6 1,3.3 1,5.1 0,3.5 -1.2,6.5 -3.7,9 -2.5,2.5 -5.4,3.6 -9.2,3.6 z m 0,-3 c 2.8,0 5.1,-1 6.9,-2.9 1.8,-1.9 2.7,-4.2 2.7,-6.8 0,-1.8 -0.4,-3.4 -1.1,-5 -0.7,-1.6 -1.8,-2.7 -3.3,-3.7 -1.5,-1 -3.2,-1.4 -5.1,-1.4 -1.6,0 -3,0.3 -4.2,0.8 -1.2,0.5 -2.3,1.3 -3,2.2 -0.8,0.9 -1.4,2 -1.8,3.2 -0.4,1.2 -0.6,2.5 -0.6,3.8 0,1.2 0.2,2.4 0.7,3.6 0.4,1.2 1.1,2.2 1.8,3.1 0.7,0.9 1.8,1.7 3,2.2 1.2,0.6 2.6,0.9 4,0.9 z m 39.5,2.4 V 620.5 H 860 v -3.7 l 18.7,-26.7 h 3.3 v 27.4 h 5.1 l -0.4,3 H 882 v 10.9 z m -14.9,-14 h 14.8 v -21.8 z"
   inkscape:connector-curvature="0"
   style="clip-rule:evenodd;fill:#ffffff;fill-rule:evenodd" />
		<circle
   id="Oval_6_"
   class="st7"
   cx="1049"
   cy="611"
   r="55"
   style="clip-rule:evenodd;fill:#4e768d;fill-rule:evenodd" />
		<path
   id="_x39_7"
   class="st5"
   d="m 1027.7,636 15.3,-18.8 c -1,0.7 -2.2,1.2 -3.5,1.6 -1.3,0.4 -2.6,0.6 -3.8,0.6 -2.2,0 -4.3,-0.5 -6.2,-1.5 -1.9,-1 -3.5,-2.5 -4.7,-4.4 -1.2,-1.9 -1.8,-4.1 -1.8,-6.6 0,-1.8 0.3,-3.4 0.9,-5 0.6,-1.6 1.5,-2.9 2.6,-4.1 1.1,-1.2 2.5,-2.1 4.2,-2.8 1.7,-0.7 3.5,-1 5.6,-1 2.1,0 4,0.4 5.7,1.1 1.7,0.7 3,1.7 4.1,3 1,1.2 1.8,2.7 2.4,4.3 0.5,1.6 0.8,3.3 0.8,5.1 0,2.7 -0.4,5 -1.2,6.9 -0.8,1.9 -2.5,4.7 -5.1,8.4 l -2.7,3.3 c -1.8,2.2 -3.6,4.4 -5.4,6.6 l -2.7,3.3 z m 8.5,-19.5 c 1.6,0 3.1,-0.3 4.3,-0.8 1.3,-0.5 2.3,-1.3 3,-2.2 0.8,-0.9 1.3,-1.9 1.7,-3.1 0.4,-1.1 0.6,-2.3 0.6,-3.6 0,-1.3 -0.2,-2.5 -0.6,-3.7 -0.4,-1.2 -1,-2.2 -1.8,-3.1 -0.8,-0.9 -1.8,-1.7 -3,-2.2 -1.2,-0.5 -2.6,-0.8 -4.1,-0.8 -2,0 -3.8,0.5 -5.3,1.5 -1.5,1 -2.7,2.2 -3.5,3.7 -0.8,1.5 -1.2,3.1 -1.2,4.8 0,2.8 0.9,5 2.7,6.8 1.9,1.8 4.3,2.7 7.2,2.7 z m 24.6,19.5 14.8,-38.2 h -19.1 l 0.4,-3.1 h 21.7 l 0.4,3.4 -14.4,37.9 z"
   inkscape:connector-curvature="0"
   style="clip-rule:evenodd;fill:#ffffff;fill-rule:evenodd" />
		<path
   id="Stroke-19_1_"
   class="st6"
   d="M 290.6,382.8 526,279"
   inkscape:connector-curvature="0"
   style="fill:none;stroke:#7a98a9;stroke-width:2.73600006" />
		<path
   id="Stroke-19-Copy-3_1_"
   class="st6"
   d="M 357,561 276,497"
   inkscape:connector-curvature="0"
   style="fill:none;stroke:#7a98a9;stroke-width:2.73600006" />
		<path
   id="Stroke-19-Copy-6_1_"
   class="st6"
   d="m 232,498 -81,64"
   inkscape:connector-curvature="0"
   style="fill:none;stroke:#7a98a9;stroke-width:2.73600006" />
		<circle
   id="Oval_7_"
   class="st7"
   cx="248.5"
   cy="438.5"
   r="72.5"
   style="clip-rule:evenodd;fill:#4e768d;fill-rule:evenodd" />
		<path
   id="_x32_3"
   class="st5"
   d="m 210.1,471.2 -1.1,-4.6 18.8,-22 c 2.5,-2.9 4.3,-5.5 5.5,-7.7 1.2,-2.2 1.8,-4.3 1.8,-6.3 0,-3.4 -0.8,-6.1 -2.4,-7.9 -1.6,-1.8 -4,-2.7 -7.2,-2.7 -2.3,0 -4.5,0.3 -6.8,1 -2.2,0.7 -4,1.7 -5.4,3 l -1.7,-3.5 c 3,-2.9 7.7,-4.4 14.1,-4.4 4.6,0 8.3,1.3 10.9,3.8 2.7,2.5 4,5.9 4,10 0,2.8 -0.7,5.5 -2.1,8.2 -1.4,2.7 -3.7,5.9 -7,9.7 l -16.3,18.8 H 241 l -0.3,4.5 h -30.6 z m 58.1,0.8 c -3.2,0 -6,-0.4 -8.5,-1.3 -2.5,-0.9 -4.2,-1.8 -5.1,-2.7 l 1.7,-3.7 c 3.3,2.6 7.1,3.9 11.5,3.9 3.8,0 6.9,-1 9.2,-3 2.3,-2 3.4,-4.9 3.4,-8.6 0,-1.9 -0.3,-3.6 -0.8,-5 -0.5,-1.4 -1.3,-2.6 -2.2,-3.5 -0.9,-0.9 -2.1,-1.6 -3.5,-2.2 -1.4,-0.6 -2.9,-1 -4.3,-1.2 -1.5,-0.2 -3.2,-0.4 -5.1,-0.5 h -2.1 V 440 h 1.6 c 1.4,0 2.6,-0.1 3.7,-0.3 1.1,-0.2 2.3,-0.3 3.5,-0.6 1.2,-0.3 2.3,-0.7 3.2,-1.2 0.9,-0.5 1.7,-1.1 2.5,-1.9 0.7,-0.7 1.3,-1.7 1.7,-2.8 0.4,-1.1 0.6,-2.4 0.6,-3.8 0,-6.4 -3.5,-9.5 -10.6,-9.5 -2.4,0 -4.7,0.3 -6.8,1 -2.1,0.7 -3.9,1.6 -5.2,2.9 l -1.7,-3.8 c 3.1,-2.7 8.1,-4 14.9,-4 1.7,0 3.4,0.3 5,0.8 1.6,0.5 3.1,1.3 4.4,2.3 1.3,1 2.4,2.3 3.2,4 0.8,1.7 1.2,3.6 1.2,5.7 0,6.9 -3.2,11.3 -9.5,13.2 7.3,1.9 11,6.7 11.2,14.3 0.1,4.7 -1.4,8.5 -4.5,11.4 -3.5,2.8 -7.5,4.3 -12.6,4.3 z"
   inkscape:connector-curvature="0"
   style="clip-rule:evenodd;fill:#ffffff;fill-rule:evenodd" />
		<path
   id="Stroke-19-Copy-4_2_"
   class="st6"
   d="m 107,708 52,-52"
   inkscape:connector-curvature="0"
   style="fill:none;stroke:#7a98a9;stroke-width:2.73600006" />
		<path
   id="Stroke-19-Copy-5_2_"
   class="st6"
   d="m 169,661 52,52"
   inkscape:connector-curvature="0"
   style="fill:none;stroke:#7a98a9;stroke-width:2.73600006" />
		<circle
   id="Oval_8_"
   class="st7"
   cx="110.5"
   cy="738.5"
   r="37.5"
   style="clip-rule:evenodd;fill:#4e768d;fill-rule:evenodd" />
		<path
   id="_x31_5"
   class="st5"
   d="m 98.5,755.6 v -25.1 c -0.4,0.3 -1,0.6 -1.9,1.1 -0.9,0.4 -1.7,0.8 -2.6,1.1 v -2 c 2.6,-1.2 4.3,-2.1 5,-2.6 h 2 v 27.6 h -2.5 z m 18,0.4 c -3.4,0 -6.1,-0.8 -8.2,-2.5 l 0.9,-1.8 c 2,1.5 4.5,2.3 7.5,2.3 2.1,0 3.7,-0.7 4.9,-2 1.2,-1.4 1.9,-3.1 1.9,-5.3 0,-1.8 -0.5,-3.4 -1.6,-4.6 -1.1,-1.2 -2.4,-1.8 -4,-1.8 -1.1,0 -2.1,0.2 -2.9,0.5 -0.8,0.3 -1.7,0.8 -2.7,1.6 l -2.4,-0.2 0.6,-14.2 h 14.4 l -0.2,2.1 h -12.1 l -0.6,10.1 c 1.6,-1.2 3.4,-1.8 5.4,-1.8 1.7,0 3.3,0.3 4.6,1.1 1.3,0.8 2.3,1.8 3,3 0.7,1.3 1,2.6 1,4.1 0,2.8 -0.9,5.1 -2.6,6.8 -1.7,1.7 -4,2.6 -6.9,2.6 z"
   inkscape:connector-curvature="0"
   style="clip-rule:evenodd;fill:#ffffff;fill-rule:evenodd" />
		<circle
   id="Oval_9_"
   class="st7"
   cx="209.5"
   cy="738.5"
   r="37.5"
   style="clip-rule:evenodd;fill:#4e768d;fill-rule:evenodd" />
		<path
   id="_x32_2"
   class="st5"
   d="m 192.6,755 -0.6,-2.3 9.7,-11.2 c 1.3,-1.5 2.2,-2.8 2.8,-3.9 0.6,-1.1 0.9,-2.2 0.9,-3.2 0,-1.8 -0.4,-3.1 -1.3,-4 -0.8,-0.9 -2.1,-1.4 -3.7,-1.4 -1.2,0 -2.3,0.2 -3.5,0.5 -1.1,0.4 -2.1,0.9 -2.8,1.5 l -0.9,-1.8 c 1.6,-1.5 4,-2.2 7.3,-2.2 2.4,0 4.3,0.6 5.6,1.9 1.4,1.3 2.1,3 2.1,5.1 0,1.4 -0.4,2.8 -1.1,4.2 -0.7,1.4 -1.9,3 -3.6,4.9 l -8.4,9.6 h 13.3 l -0.1,2.3 z m 22.5,0 -0.6,-2.3 9.7,-11.2 c 1.3,-1.5 2.2,-2.8 2.8,-3.9 0.6,-1.1 0.9,-2.2 0.9,-3.2 0,-1.8 -0.4,-3.1 -1.3,-4 -0.8,-0.9 -2.1,-1.4 -3.7,-1.4 -1.2,0 -2.3,0.2 -3.5,0.5 -1.1,0.4 -2.1,0.9 -2.8,1.5 l -0.9,-1.8 c 1.6,-1.5 4,-2.2 7.3,-2.2 2.4,0 4.3,0.6 5.6,1.9 1.4,1.3 2.1,3 2.1,5.1 0,1.4 -0.4,2.8 -1.1,4.2 -0.7,1.4 -1.9,3 -3.6,4.9 l -8.4,9.6 H 231 l -0.1,2.3 z"
   inkscape:connector-curvature="0"
   style="clip-rule:evenodd;fill:#ffffff;fill-rule:evenodd" />
		<path
   id="Stroke-19-Copy-4_3_"
   class="st6"
   d="m 296,708 52,-52"
   inkscape:connector-curvature="0"
   style="fill:none;stroke:#7a98a9;stroke-width:2.73600006" />
		<path
   id="Stroke-19-Copy-5_3_"
   class="st6"
   d="m 358,661 52,52"
   inkscape:connector-curvature="0"
   style="fill:none;stroke:#7a98a9;stroke-width:2.73600006" />
		<circle
   id="Oval_10_"
   class="st7"
   cx="299.5"
   cy="738.5"
   r="37.5"
   style="clip-rule:evenodd;fill:#4e768d;fill-rule:evenodd" />
		<path
   id="_x33_1"
   class="st5"
   d="m 289.9,756 c -1.6,0 -3,-0.2 -4.3,-0.7 -1.3,-0.5 -2.1,-0.9 -2.6,-1.4 l 0.9,-1.9 c 1.7,1.3 3.6,2 5.8,2 1.9,0 3.5,-0.5 4.6,-1.6 1.1,-1.1 1.7,-2.5 1.7,-4.5 0,-1 -0.1,-1.9 -0.4,-2.6 -0.3,-0.7 -0.7,-1.4 -1.1,-1.8 -0.5,-0.5 -1.1,-0.8 -1.8,-1.1 -0.7,-0.3 -1.4,-0.5 -2.2,-0.6 -0.8,-0.1 -1.6,-0.2 -2.6,-0.2 h -1.1 v -2.1 h 0.8 c 0.7,0 1.3,-0.1 1.9,-0.1 0.6,0 1.1,-0.2 1.8,-0.3 0.6,-0.1 1.1,-0.3 1.6,-0.6 0.5,-0.3 0.9,-0.6 1.2,-1 0.4,-0.4 0.7,-0.9 0.9,-1.4 0.2,-0.5 0.3,-1.2 0.3,-2 0,-3.3 -1.8,-4.9 -5.3,-4.9 -1.2,0 -2.4,0.2 -3.4,0.5 -1.1,0.4 -1.9,0.9 -2.6,1.5 l -0.8,-2 c 1.6,-1.4 4.1,-2.1 7.5,-2.1 0.9,0 1.7,0.1 2.5,0.4 0.8,0.3 1.5,0.7 2.2,1.2 0.7,0.5 1.2,1.2 1.6,2.1 0.4,0.9 0.6,1.8 0.6,2.9 0,3.6 -1.6,5.8 -4.8,6.8 3.7,1 5.6,3.5 5.6,7.4 0,2.4 -0.7,4.4 -2.3,5.9 -1.6,1.4 -3.7,2.2 -6.2,2.2 z m 16.8,-0.4 V 730 c -0.4,0.3 -1,0.6 -1.9,1.1 -0.8,0.4 -1.7,0.8 -2.5,1.1 v -2 c 2.6,-1.2 4.2,-2.1 4.8,-2.6 h 1.9 v 28 z"
   inkscape:connector-curvature="0"
   style="clip-rule:evenodd;fill:#ffffff;fill-rule:evenodd" />
		<circle
   id="Oval_11_"
   class="st7"
   cx="398.5"
   cy="738.5"
   r="37.5"
   style="clip-rule:evenodd;fill:#4e768d;fill-rule:evenodd" />
		<path
   id="_x33_8"
   class="st5"
   d="m 389,756 c -1.6,0 -3.1,-0.2 -4.4,-0.7 -1.3,-0.5 -2.2,-0.9 -2.6,-1.4 l 0.9,-1.9 c 1.7,1.3 3.7,2 5.9,2 2,0 3.5,-0.5 4.7,-1.6 1.2,-1 1.7,-2.5 1.7,-4.5 0,-1 -0.1,-1.9 -0.4,-2.6 -0.3,-0.7 -0.7,-1.4 -1.1,-1.8 -0.5,-0.5 -1.1,-0.8 -1.8,-1.1 -0.7,-0.3 -1.5,-0.5 -2.2,-0.6 -0.8,-0.1 -1.6,-0.2 -2.6,-0.2 H 386 v -2.1 h 0.8 c 0.7,0 1.3,-0.1 1.9,-0.1 0.6,0 1.2,-0.2 1.8,-0.3 0.6,-0.1 1.2,-0.3 1.6,-0.6 0.5,-0.3 0.9,-0.6 1.3,-1 0.4,-0.4 0.7,-0.9 0.9,-1.4 0.2,-0.6 0.3,-1.2 0.3,-2 0,-3.3 -1.8,-4.9 -5.4,-4.9 -1.2,0 -2.4,0.2 -3.5,0.5 -1.1,0.4 -2,0.9 -2.7,1.5 l -0.9,-2 c 1.6,-1.4 4.1,-2.1 7.7,-2.1 0.9,0 1.8,0.1 2.6,0.4 0.8,0.3 1.6,0.7 2.3,1.2 0.7,0.5 1.2,1.2 1.6,2.1 0.4,0.9 0.6,1.8 0.6,2.9 0,3.6 -1.6,5.8 -4.9,6.8 3.8,1 5.7,3.5 5.7,7.4 0,2.4 -0.7,4.4 -2.3,5.9 -1.7,1.4 -3.8,2.2 -6.4,2.2 z m 23.2,0 c -1.7,0 -3.1,-0.3 -4.5,-0.9 -1.3,-0.6 -2.4,-1.4 -3.2,-2.6 -0.8,-1.2 -1.2,-2.6 -1.2,-4.2 0,-1.8 0.6,-3.5 1.7,-4.9 1.1,-1.4 2.7,-2.4 4.7,-3 -1.9,-0.5 -3.3,-1.3 -4.3,-2.4 -1,-1.1 -1.5,-2.4 -1.5,-4 0,-2.1 0.8,-3.8 2.3,-5.1 1.5,-1.3 3.6,-1.9 6.1,-1.9 2.5,0 4.4,0.6 5.9,1.9 1.5,1.3 2.3,2.9 2.3,5.1 0,1.6 -0.5,2.9 -1.5,4 -1,1.1 -2.3,1.9 -4.1,2.4 1.9,0.6 3.4,1.6 4.5,3 1.1,1.4 1.6,3.1 1.6,4.9 0,1.2 -0.2,2.3 -0.7,3.3 -0.5,1 -1.1,1.8 -1.9,2.4 -0.8,0.6 -1.7,1.1 -2.8,1.5 -1.1,0.4 -2.2,0.5 -3.4,0.5 z m 0,-2 c 1.8,0 3.3,-0.5 4.5,-1.5 1.2,-1 1.8,-2.4 1.8,-4.1 0,-1.8 -0.6,-3.3 -1.7,-4.5 -1.1,-1.2 -2.7,-2 -4.6,-2.5 -1.9,0.5 -3.5,1.3 -4.7,2.5 -1.2,1.2 -1.8,2.7 -1.8,4.5 0,1.7 0.6,3 1.8,4.1 1.3,1 2.8,1.5 4.7,1.5 z m 0,-14.6 c 3.9,-0.8 5.8,-2.6 5.8,-5.5 0,-1.6 -0.6,-2.8 -1.7,-3.6 -1.1,-0.9 -2.5,-1.3 -4.1,-1.3 -1.6,0 -3,0.4 -4.1,1.3 -1.1,0.9 -1.7,2.1 -1.7,3.6 -0.1,2.9 1.8,4.7 5.8,5.5 z"
   inkscape:connector-curvature="0"
   style="clip-rule:evenodd;fill:#ffffff;fill-rule:evenodd" />
		<circle
   id="Oval_12_"
   class="st7"
   cx="160"
   cy="611"
   r="55"
   style="clip-rule:evenodd;fill:#4e768d;fill-rule:evenodd" />
		<path
   id="_x31_9"
   class="st5"
   d="m 145.6,636 v -37.6 c -0.6,0.4 -1.5,1 -2.8,1.6 -1.3,0.6 -2.5,1.2 -3.8,1.6 v -3 c 3.8,-1.8 6.2,-3.1 7.2,-3.9 h 2.9 V 636 Z m 17.8,0 15.3,-18.8 c -1,0.7 -2.2,1.2 -3.5,1.6 -1.3,0.4 -2.6,0.6 -3.8,0.6 -2.2,0 -4.3,-0.5 -6.2,-1.5 -1.9,-1 -3.5,-2.5 -4.7,-4.4 -1.2,-1.9 -1.8,-4.1 -1.8,-6.6 0,-1.8 0.3,-3.4 0.9,-5 0.6,-1.6 1.5,-2.9 2.6,-4.1 1.1,-1.2 2.5,-2.1 4.2,-2.8 1.7,-0.7 3.5,-1 5.6,-1 2.1,0 4,0.4 5.7,1.1 1.7,0.7 3,1.7 4.1,3 1.1,1.3 1.8,2.7 2.4,4.3 0.5,1.6 0.8,3.3 0.8,5.1 0,2.7 -0.4,5 -1.2,6.9 -0.8,1.9 -2.5,4.7 -5.1,8.4 l -2.7,3.3 c -1.8,2.2 -3.6,4.4 -5.4,6.6 l -2.7,3.3 z m 8.5,-19.5 c 1.6,0 3.1,-0.3 4.3,-0.8 1.3,-0.5 2.3,-1.3 3.1,-2.2 0.8,-0.9 1.3,-1.9 1.7,-3.1 0.4,-1.1 0.6,-2.3 0.6,-3.6 0,-1.3 -0.2,-2.5 -0.6,-3.7 -0.4,-1.2 -1,-2.2 -1.8,-3.1 -0.8,-0.9 -1.8,-1.7 -3,-2.2 -1.2,-0.6 -2.6,-0.8 -4.1,-0.8 -2,0 -3.8,0.5 -5.3,1.5 -1.6,1 -2.7,2.2 -3.5,3.7 -0.8,1.5 -1.2,3.1 -1.2,4.8 0,2.8 0.9,5 2.7,6.8 1.8,1.8 4.1,2.7 7.1,2.7 z"
   inkscape:connector-curvature="0"
   style="clip-rule:evenodd;fill:#ffffff;fill-rule:evenodd" />
		<circle
   id="Oval_13_"
   class="st7"
   cx="351"
   cy="611"
   r="55"
   style="clip-rule:evenodd;fill:#4e768d;fill-rule:evenodd" />
		<path
   id="_x33_5"
   class="st5"
   d="m 334.3,635 c -2.4,0 -4.5,-0.3 -6.4,-1 -1.9,-0.7 -3.2,-1.3 -3.9,-2 l 1.3,-2.8 c 2.5,1.9 5.4,2.9 8.7,2.9 2.9,0 5.2,-0.8 6.9,-2.3 1.7,-1.5 2.6,-3.7 2.6,-6.5 0,-1.4 -0.2,-2.7 -0.6,-3.8 -0.4,-1.1 -1,-2 -1.7,-2.6 -0.7,-0.6 -1.6,-1.2 -2.7,-1.7 -1.1,-0.4 -2.2,-0.7 -3.3,-0.9 -1.1,-0.2 -2.4,-0.3 -3.8,-0.3 h -1.6 v -3 h 1.2 c 1,0 1.9,-0.1 2.8,-0.2 0.8,-0.1 1.7,-0.3 2.6,-0.5 0.9,-0.2 1.7,-0.5 2.4,-0.9 0.7,-0.4 1.3,-0.9 1.9,-1.4 0.6,-0.6 1,-1.3 1.3,-2.1 0.3,-0.8 0.4,-1.8 0.4,-2.9 0,-4.8 -2.7,-7.2 -8,-7.2 -1.8,0 -3.5,0.3 -5.1,0.8 -1.6,0.5 -2.9,1.2 -3.9,2.1 L 324,596 c 2.3,-2 6.1,-3 11.3,-3 1.3,0 2.6,0.2 3.8,0.6 1.2,0.4 2.3,1 3.3,1.7 1,0.7 1.8,1.7 2.4,3 0.6,1.3 0.9,2.7 0.9,4.3 0,5.1 -2.4,8.4 -7.1,9.9 5.5,1.4 8.3,5 8.4,10.8 0.1,3.5 -1.1,6.4 -3.4,8.5 -2.4,2.1 -5.5,3.2 -9.3,3.2 z m 32.9,0 c -4.9,0 -8.8,-1.2 -11.9,-3.7 l 1.2,-2.6 c 2.8,2.3 6.4,3.4 10.8,3.4 3,0 5.3,-1 7.1,-3 1.8,-2 2.7,-4.6 2.7,-7.8 0,-2.7 -0.8,-4.9 -2.3,-6.7 -1.5,-1.8 -3.4,-2.7 -5.7,-2.7 -1.7,0 -3.1,0.2 -4.2,0.7 -1.1,0.5 -2.5,1.2 -3.9,2.4 l -3.4,-0.2 0.9,-21 h 20.8 l -0.4,3 h -17.5 l -0.8,14.9 c 2.3,-1.7 4.9,-2.6 7.8,-2.7 2.5,0 4.7,0.5 6.6,1.7 1.9,1.1 3.4,2.6 4.4,4.5 1,1.9 1.5,3.9 1.5,6.1 0,4.2 -1.2,7.5 -3.7,10 -2.4,2.4 -5.8,3.7 -10,3.7 z"
   inkscape:connector-curvature="0"
   style="clip-rule:evenodd;fill:#ffffff;fill-rule:evenodd" />
		<circle
   id="Oval_14_"
   class="st7"
   cx="603.5"
   cy="254.5"
   r="81.5"
   style="clip-rule:evenodd;fill:#4e768d;fill-rule:evenodd" />
		<path
   id="_x33_9"
   class="st5"
   d="m 577.2,290 c -3.5,0 -6.7,-0.5 -9.5,-1.5 -2.8,-1 -4.7,-1.9 -5.7,-2.9 l 1.9,-4.1 c 3.7,2.8 7.9,4.3 12.8,4.3 4.3,0 7.7,-1.1 10.2,-3.4 2.5,-2.2 3.8,-5.4 3.8,-9.6 0,-2.1 -0.3,-4 -0.9,-5.6 -0.6,-1.6 -1.5,-2.9 -2.5,-3.9 -1,-1 -2.3,-1.8 -3.9,-2.4 -1.6,-0.6 -3.2,-1.1 -4.9,-1.3 -1.7,-0.3 -3.6,-0.4 -5.7,-0.5 h -2.3 v -4.5 h 1.8 c 1.5,-0.1 2.9,-0.2 4.1,-0.3 1.2,-0.1 2.5,-0.4 3.9,-0.7 1.4,-0.3 2.5,-0.7 3.5,-1.3 1,-0.6 1.9,-1.3 2.8,-2.1 0.8,-0.8 1.5,-1.8 1.9,-3.1 0.4,-1.2 0.6,-2.6 0.6,-4.2 0,-7 -3.9,-10.6 -11.8,-10.6 -2.7,0 -5.2,0.4 -7.6,1.1 -2.4,0.8 -4.3,1.8 -5.8,3.2 l -1.9,-4.2 c 3.5,-3 9,-4.4 16.7,-4.4 1.9,0 3.8,0.3 5.6,0.9 1.8,0.6 3.4,1.4 4.9,2.5 1.5,1.1 2.6,2.6 3.5,4.4 0.9,1.9 1.3,3.9 1.3,6.3 0,7.6 -3.5,12.5 -10.6,14.6 8.2,2.1 12.3,7.4 12.5,15.9 0.1,5.2 -1.6,9.4 -5.1,12.6 -3.4,3.2 -7.9,4.8 -13.6,4.8 z m 36.8,-0.9 22.6,-27.3 c -1.5,1 -3.2,1.8 -5.2,2.4 -1.9,0.6 -3.8,0.9 -5.6,0.9 -3.3,0 -6.3,-0.7 -9.2,-2.2 -2.8,-1.4 -5.1,-3.6 -6.9,-6.4 -1.8,-2.8 -2.7,-6 -2.7,-9.6 0,-2.6 0.5,-5 1.4,-7.3 0.9,-2.3 2.2,-4.3 3.9,-6 1.7,-1.7 3.8,-3.1 6.3,-4.1 2.5,-1 5.2,-1.5 8.2,-1.5 3.1,0 5.9,0.5 8.4,1.6 2.5,1.1 4.5,2.5 6.1,4.3 1.6,1.8 2.7,3.9 3.5,6.2 0.8,2.3 1.2,4.8 1.2,7.4 0,3.9 -0.6,7.3 -1.8,10 -1.2,2.7 -3.7,6.8 -7.6,12.2 l -4,4.8 c -2.7,3.2 -5.3,6.4 -8,9.6 l -4,4.8 H 614 Z m 12.6,-28.4 c 2.4,0 4.5,-0.4 6.4,-1.2 1.9,-0.8 3.4,-1.8 4.5,-3.1 1.1,-1.3 2,-2.8 2.6,-4.4 0.6,-1.6 0.9,-3.4 0.9,-5.2 0,-1.9 -0.3,-3.7 -0.9,-5.4 -0.6,-1.7 -1.5,-3.2 -2.6,-4.6 -1.1,-1.3 -2.6,-2.4 -4.5,-3.2 -1.8,-0.8 -3.9,-1.2 -6.1,-1.2 -3,0 -5.6,0.7 -7.9,2.1 -2.3,1.4 -4,3.2 -5.2,5.4 -1.1,2.2 -1.7,4.5 -1.7,7 0,4 1.3,7.3 4,9.9 2.7,2.6 6.1,3.9 10.5,3.9 z"
   inkscape:connector-curvature="0"
   style="clip-rule:evenodd;fill:#ffffff;fill-rule:evenodd" />
	</g>
</g></svg>