<?xml version="1.0" encoding="UTF-8"?>
<svg width="1214px" height="942px" viewBox="0 0 1214 942" version="1.1" xmlns="http://www.w3.org/2000/svg" xmlns:xlink="http://www.w3.org/1999/xlink">
    <!-- Generator: Sketch 46.2 (44496) - http://www.bohemiancoding.com/sketch -->
    <title>Artboard Copy 3</title>
    <desc>Created with Sketch.</desc>
    <defs></defs>
    <g id="Page-1" stroke="none" stroke-width="1" fill="none" fill-rule="evenodd">
        <g id="Artboard-Copy-3">
            <polygon id="Page-1" fill="#204056" points="0 942 1214 942 1214 1 0 1"></polygon>
            <g id="Group-5" transform="translate(405.000000, -30.000000)" stroke="#4E768D" stroke-width="1.5" stroke-linecap="square">
                <path d="M0.5,1030.49309 L0.5,0" id="Line"></path>
                <path d="M405.5,1030.49309 L405.5,0" id="Line-Copy"></path>
            </g>
            <g id="Group-7" transform="translate(568.000000, 47.000000)" font-size="30" font-family="Oxygen-Regular, Oxygen" letter-spacing="0.655594409" fill="#FFFFFF" font-weight="normal">
                <g id="Group-6">
                    <text id="Deep">
                        <tspan x="0" y="31">Deep</tspan>
                    </text>
                </g>
            </g>
            <g id="Group-7-Copy" transform="translate(165.000000, 47.000000)" font-size="30" font-family="Oxygen-Regular, Oxygen" letter-spacing="0.655594409" fill="#FFFFFF" font-weight="normal">
                <g id="Group-6">
                    <text id="Wide">
                        <tspan x="0" y="31">Wide</tspan>
                    </text>
                </g>
            </g>
            <path d="M463,384 L570,201" id="Stroke-19-Copy-5" stroke="#7A98A9" stroke-width="2"></path>
            <g id="Group-12" transform="translate(21.000000, 115.000000)">
                <g id="Group-2-Copy" transform="translate(84.000000, 354.000000)">
                    <g id="Group-Copy-7"></g>
                </g>
                <path d="M50,261 L157,78" id="Stroke-19" stroke="#7A98A9" stroke-width="2"></path>
                <g id="Group-2" transform="translate(0.000000, 244.000000)">
                    <g id="Group-10" transform="translate(0.000000, 33.000000)">
                        <g id="Group-9">
                            <g id="Group-3" transform="translate(66.000000, 0.000000)">
                                <path d="M0.923076923,56 L33.9230769,1" id="Stroke-19-Copy" stroke="#7A98A9" stroke-width="2.33928009" transform="translate(17.461538, 28.974684) scale(-1, 1) translate(-17.461538, -28.974684) "></path>
                                <ellipse id="Oval" fill="#4E768D" transform="translate(31.694599, 67.234076) scale(-1, 1) translate(-31.694599, -67.234076) " cx="31.6945992" cy="67.2340764" rx="16.6945992" ry="16.5568612"></ellipse>
                            </g>
                            <g id="Group-3-Copy-2" transform="translate(24.500000, 42.000000) scale(-1, 1) translate(-24.500000, -42.000000) ">
                                <path d="M0.923076923,56 L33.9230769,1" id="Stroke-19-Copy" stroke="#7A98A9" stroke-width="2.33928009" transform="translate(17.461538, 28.974684) scale(-1, 1) translate(-17.461538, -28.974684) "></path>
                                <ellipse id="Oval" fill="#4E768D" transform="translate(31.694599, 67.234076) scale(-1, 1) translate(-31.694599, -67.234076) " cx="31.6945992" cy="67.2340764" rx="16.6945992" ry="16.5568612"></ellipse>
                            </g>
                        </g>
                        <g id="Group-8" transform="translate(41.000000, 3.000000)">
                            <path d="M14.5692308,57.5993608 L15.3283938,0.160132894" id="Stroke-19-Copy-3" stroke="#7A98A9" stroke-width="2.33928009"></path>
                            <ellipse id="Oval" fill="#4E768D" cx="16.6945992" cy="64.5568612" rx="16.6945992" ry="16.5568612"></ellipse>
                        </g>
                    </g>
                    <g id="Group-4" transform="translate(30.000000, 0.000000)" fill="#4E768D">
                        <ellipse id="Oval" cx="26" cy="25.5" rx="26" ry="25.5"></ellipse>
                    </g>
                </g>
                <path d="M205,261 L312,78" id="Stroke-19" stroke="#7A98A9" stroke-width="2" transform="translate(258.500000, 169.500000) scale(-1, 1) translate(-258.500000, -169.500000) "></path>
                <g id="Group-3" transform="translate(271.500000, 319.000000) scale(-1, 1) translate(-271.500000, -319.000000) translate(247.000000, 277.000000)">
                    <path d="M0.923076923,56 L33.9230769,1" id="Stroke-19-Copy" stroke="#7A98A9" stroke-width="2.33928009" transform="translate(17.461538, 28.974684) scale(-1, 1) translate(-17.461538, -28.974684) "></path>
                    <ellipse id="Oval" fill="#4E768D" transform="translate(31.694599, 67.234076) scale(-1, 1) translate(-31.694599, -67.234076) " cx="31.6945992" cy="67.2340764" rx="16.6945992" ry="16.5568612"></ellipse>
                </g>
                <g id="Group-3-Copy-2" transform="translate(313.000000, 277.000000)">
                    <path d="M0.923076923,56 L33.9230769,1" id="Stroke-19-Copy" stroke="#7A98A9" stroke-width="2.33928009" transform="translate(17.461538, 28.974684) scale(-1, 1) translate(-17.461538, -28.974684) "></path>
                    <ellipse id="Oval" fill="#4E768D" transform="translate(31.694599, 67.234076) scale(-1, 1) translate(-31.694599, -67.234076) " cx="31.6945992" cy="67.2340764" rx="16.6945992" ry="16.5568612"></ellipse>
                </g>
                <g id="Group-8" transform="translate(304.000000, 321.000000) scale(-1, 1) translate(-304.000000, -321.000000) translate(287.000000, 280.000000)">
                    <path d="M14.5692308,57.5993608 L15.3283938,0.160132894" id="Stroke-19-Copy-3" stroke="#7A98A9" stroke-width="2.33928009"></path>
                    <ellipse id="Oval" fill="#4E768D" cx="16.6945992" cy="64.5568612" rx="16.6945992" ry="16.5568612"></ellipse>
                </g>
                <g id="Group-4" transform="translate(306.000000, 269.500000) scale(-1, 1) translate(-306.000000, -269.500000) translate(280.000000, 244.000000)" fill="#4E768D">
                    <ellipse id="Oval" cx="26" cy="25.5" rx="26" ry="25.5"></ellipse>
                </g>
                <g id="Group-13" transform="translate(124.000000, 94.000000)">
                    <path d="M57,0.5 L57,181.043624" id="Line-4" stroke="#7A98A9" stroke-width="2" stroke-linecap="square"></path>
                    <g id="Group-2-Copy-2" transform="translate(0.000000, 150.000000)">
                        <g id="Group-10" transform="translate(0.000000, 33.000000)">
                            <g id="Group-9">
                                <g id="Group-3" transform="translate(66.000000, 0.000000)">
                                    <path d="M0.923076923,56 L33.9230769,1" id="Stroke-19-Copy" stroke="#7A98A9" stroke-width="2.33928009" transform="translate(17.461538, 28.974684) scale(-1, 1) translate(-17.461538, -28.974684) "></path>
                                    <ellipse id="Oval" fill="#4E768D" transform="translate(31.694599, 67.234076) scale(-1, 1) translate(-31.694599, -67.234076) " cx="31.6945992" cy="67.2340764" rx="16.6945992" ry="16.5568612"></ellipse>
                                </g>
                                <g id="Group-3-Copy-2" transform="translate(24.500000, 42.000000) scale(-1, 1) translate(-24.500000, -42.000000) ">
                                    <path d="M0.923076923,56 L33.9230769,1" id="Stroke-19-Copy" stroke="#7A98A9" stroke-width="2.33928009" transform="translate(17.461538, 28.974684) scale(-1, 1) translate(-17.461538, -28.974684) "></path>
                                    <ellipse id="Oval" fill="#4E768D" transform="translate(31.694599, 67.234076) scale(-1, 1) translate(-31.694599, -67.234076) " cx="31.6945992" cy="67.2340764" rx="16.6945992" ry="16.5568612"></ellipse>
                                </g>
                            </g>
                            <g id="Group-8" transform="translate(41.000000, 3.000000)">
                                <path d="M14.5692308,57.5993608 L15.3283938,0.160132894" id="Stroke-19-Copy-3" stroke="#7A98A9" stroke-width="2.33928009"></path>
                                <ellipse id="Oval" fill="#4E768D" cx="16.6945992" cy="64.5568612" rx="16.6945992" ry="16.5568612"></ellipse>
                            </g>
                        </g>
                        <g id="Group-4" transform="translate(30.000000, 0.000000)" fill="#4E768D">
                            <ellipse id="Oval" cx="26" cy="25.5" rx="26" ry="25.5"></ellipse>
                        </g>
                    </g>
                </g>
                <g id="Group-11" transform="translate(117.000000, 0.000000)" fill="#4E768D">
                    <g id="Group">
                        <circle id="Oval" cx="64.7787622" cy="64.7787622" r="64.7787622"></circle>
                    </g>
                </g>
            </g>
            <g id="Group-12-Copy" transform="translate(640.500000, 291.500000) scale(-1, 1) translate(-640.500000, -291.500000) translate(587.000000, 200.000000)" stroke="#7A98A9" stroke-width="2">
                <path d="M0,183 L107,0" id="Stroke-19"></path>
            </g>
            <g id="Group-11" transform="translate(528.000000, 115.000000)" fill="#4E768D">
                <g id="Group">
                    <circle id="Oval" cx="64.7787622" cy="64.7787622" r="64.7787622"></circle>
                </g>
            </g>
            <path d="M692,576 L758,491" id="Stroke-19-Copy-2" stroke="#7A98A9" stroke-width="2"></path>
            <path d="M622,477 L688,392" id="Stroke-19-Copy-6" stroke="#7A98A9" stroke-width="2"></path>
            <path d="M700,756 L752,681" id="Stroke-19-Copy-4" stroke="#7A98A9" stroke-width="2"></path>
            <g id="Group-2-Copy-7" transform="translate(670.000000, 734.000000)" fill="#4E768D">
                <g id="Group-4">
                    <ellipse id="Oval" cx="26" cy="25.5" rx="26" ry="25.5"></ellipse>
                </g>
            </g>
            <path d="M699,397 L758,477" id="Line-2" stroke="#7A98A9" stroke-width="2" stroke-linecap="square"></path>
            <path d="M694,580 L760,664" id="Line-2-Copy" stroke="#7A98A9" stroke-width="2" stroke-linecap="square"></path>
            <path d="M468,753 L521,848" id="Line-2-Copy-2" stroke="#7A98A9" stroke-width="2" stroke-linecap="square"></path>
            <g id="Group-2-Copy-6" transform="translate(730.000000, 642.000000)" fill="#4E768D">
                <g id="Group-4">
                    <ellipse id="Oval" cx="26" cy="25.5" rx="26" ry="25.5"></ellipse>
                </g>
            </g>
            <g id="Group-2-Copy-9" transform="translate(504.000000, 836.000000)" fill="#4E768D">
                <g id="Group-4">
                    <ellipse id="Oval" cx="26" cy="25.5" rx="26" ry="25.5"></ellipse>
                </g>
            </g>
            <g id="Group-2-Copy-4" transform="translate(730.000000, 458.000000)" fill="#4E768D">
                <g id="Group-4">
                    <ellipse id="Oval" cx="26" cy="25.5" rx="26" ry="25.5"></ellipse>
                </g>
            </g>
            <g id="Group-2-Copy-5" transform="translate(670.000000, 550.000000)" fill="#4E768D">
                <g id="Group-4">
                    <ellipse id="Oval" cx="26" cy="25.5" rx="26" ry="25.5"></ellipse>
                </g>
            </g>
            <g id="Group-2-Copy-8" transform="translate(600.000000, 458.000000)" fill="#4E768D">
                <g id="Group-4">
                    <ellipse id="Oval" cx="26" cy="25.5" rx="26" ry="25.5"></ellipse>
                </g>
            </g>
            <path d="M466,569 L532,484" id="Stroke-19-Copy-2" stroke="#7A98A9" stroke-width="2"></path>
            <path d="M474,749 L526,674" id="Stroke-19-Copy-4" stroke="#7A98A9" stroke-width="2"></path>
            <g id="Group-2-Copy-7" transform="translate(444.000000, 727.000000)" fill="#4E768D">
                <g id="Group-4">
                    <ellipse id="Oval" cx="26" cy="25.5" rx="26" ry="25.5"></ellipse>
                </g>
            </g>
            <path d="M473,390 L532,470" id="Line-2" stroke="#7A98A9" stroke-width="2" stroke-linecap="square"></path>
            <path d="M468,573 L534,657" id="Line-2-Copy" stroke="#7A98A9" stroke-width="2" stroke-linecap="square"></path>
            <g id="Group-2-Copy-6" transform="translate(504.000000, 635.000000)" fill="#4E768D">
                <g id="Group-4">
                    <ellipse id="Oval" cx="26" cy="25.5" rx="26" ry="25.5"></ellipse>
                </g>
            </g>
            <g id="Group-2-Copy-3" transform="translate(444.000000, 359.000000)" fill="#4E768D">
                <g id="Group-4">
                    <ellipse id="Oval" cx="26" cy="25.5" rx="26" ry="25.5"></ellipse>
                </g>
            </g>
            <g id="Group-2-Copy-4" transform="translate(504.000000, 458.000000)" fill="#4E768D">
                <g id="Group-4">
                    <ellipse id="Oval" cx="26" cy="25.5" rx="26" ry="25.5"></ellipse>
                </g>
            </g>
            <g id="Group-2-Copy-5" transform="translate(444.000000, 543.000000)" fill="#4E768D">
                <g id="Group-4">
                    <ellipse id="Oval" cx="26" cy="25.5" rx="26" ry="25.5"></ellipse>
                </g>
            </g>
            <g id="Group-2" transform="translate(668.000000, 359.000000)" fill="#4E768D">
                <g id="Group-4">
                    <ellipse id="Oval" cx="26" cy="25.5" rx="26" ry="25.5"></ellipse>
                </g>
            </g>
            <g id="Group-15" transform="translate(824.000000, 115.000000)">
                <g id="Group-2-Copy" transform="translate(90.000000, 354.000000)">
                    <g id="Group-Copy-7"></g>
                </g>
                <path d="M56,261 L163,78" id="Stroke-19" stroke="#7A98A9" stroke-width="2"></path>
                <g id="Group-9" transform="translate(6.000000, 277.000000)">
                    <g id="Group-3" transform="translate(66.000000, 0.000000)">
                        <path d="M0.923076923,56 L33.9230769,1" id="Stroke-19-Copy" stroke="#7A98A9" stroke-width="2.33928009" transform="translate(17.461538, 28.974684) scale(-1, 1) translate(-17.461538, -28.974684) "></path>
                        <ellipse id="Oval" fill="#4E768D" transform="translate(31.694599, 67.234076) scale(-1, 1) translate(-31.694599, -67.234076) " cx="31.6945992" cy="67.2340764" rx="16.6945992" ry="16.5568612"></ellipse>
                    </g>
                    <g id="Group-3-Copy-2" transform="translate(24.500000, 42.000000) scale(-1, 1) translate(-24.500000, -42.000000) ">
                        <path d="M0.923076923,56 L33.9230769,1" id="Stroke-19-Copy" stroke="#7A98A9" stroke-width="2.33928009" transform="translate(17.461538, 28.974684) scale(-1, 1) translate(-17.461538, -28.974684) "></path>
                        <ellipse id="Oval" fill="#4E768D" transform="translate(31.694599, 67.234076) scale(-1, 1) translate(-31.694599, -67.234076) " cx="31.6945992" cy="67.2340764" rx="16.6945992" ry="16.5568612"></ellipse>
                    </g>
                </g>
                <g id="Group-4" transform="translate(36.000000, 244.000000)" fill="#4E768D">
                    <ellipse id="Oval" cx="26" cy="25.5" rx="26" ry="25.5"></ellipse>
                </g>
                <path d="M211,261 L318,78" id="Stroke-19" stroke="#7A98A9" stroke-width="2" transform="translate(264.500000, 169.500000) scale(-1, 1) translate(-264.500000, -169.500000) "></path>
                <g id="Group-3" transform="translate(277.500000, 319.000000) scale(-1, 1) translate(-277.500000, -319.000000) translate(253.000000, 277.000000)">
                    <path d="M0.923076923,56 L33.9230769,1" id="Stroke-19-Copy" stroke="#7A98A9" stroke-width="2.33928009" transform="translate(17.461538, 28.974684) scale(-1, 1) translate(-17.461538, -28.974684) "></path>
                    <ellipse id="Oval" fill="#4E768D" transform="translate(31.694599, 67.234076) scale(-1, 1) translate(-31.694599, -67.234076) " cx="31.6945992" cy="67.2340764" rx="16.6945992" ry="16.5568612"></ellipse>
                </g>
                <g id="Group-3-Copy-2" transform="translate(319.000000, 277.000000)">
                    <path d="M0.923076923,56 L33.9230769,1" id="Stroke-19-Copy" stroke="#7A98A9" stroke-width="2.33928009" transform="translate(17.461538, 28.974684) scale(-1, 1) translate(-17.461538, -28.974684) "></path>
                    <ellipse id="Oval" fill="#4E768D" transform="translate(31.694599, 67.234076) scale(-1, 1) translate(-31.694599, -67.234076) " cx="31.6945992" cy="67.2340764" rx="16.6945992" ry="16.5568612"></ellipse>
                </g>
                <g id="Group-4" transform="translate(312.000000, 269.500000) scale(-1, 1) translate(-312.000000, -269.500000) translate(286.000000, 244.000000)" fill="#4E768D">
                    <ellipse id="Oval" cx="26" cy="25.5" rx="26" ry="25.5"></ellipse>
                </g>
                <g id="Group-11" transform="translate(123.000000, 0.000000)" fill="#4E768D">
                    <g id="Group">
                        <circle id="Oval" cx="64.7787622" cy="64.7787622" r="64.7787622"></circle>
                    </g>
                </g>
                <path d="M0.562686567,66 L376.816178,66" id="Line-3" stroke="#D3DDE2" stroke-width="2" stroke-linecap="square" stroke-dasharray="2,7"></path>
                <path d="M0.562686567,271 L376.816178,271" id="Line-3-Copy" stroke="#D3DDE2" stroke-width="2" stroke-linecap="square" stroke-dasharray="2,7"></path>
                <path d="M0.562686567,346 L376.816178,346" id="Line-3-Copy-2" stroke="#D3DDE2" stroke-width="2" stroke-linecap="square" stroke-dasharray="2,7"></path>
                <g id="Group-7-Copy-2" transform="translate(156.000000, 31.000000)" fill="#D3DDE2">
                    <g id="Group-6">
                        <path d="M1.69921875,21 L1.69921875,6.55664062 L3.3984375,6.55664062 L3.3984375,19.4960938 L9.75585938,19.4960938 L9.69726563,21 L1.69921875,21 Z M18.1946569,12.2695312 C17.7193941,11.6966117 17.0651038,11.4101562 16.2317663,11.4101562 C15.3984288,11.4101562 14.718097,11.7047497 14.1907507,12.2939453 C13.6634043,12.883141 13.3541626,13.688797 13.2630163,14.7109375 L18.9173132,14.7109375 C18.9173132,13.6497343 18.6764302,12.8359403 18.1946569,12.2695312 Z M16.5540319,21.2246094 C14.9980345,21.2246094 13.7724609,20.7298227 12.8772741,19.7402344 C11.9820873,18.7506461 11.5345007,17.396493 11.5345007,15.6777344 C11.5345007,14.0175698 11.967439,12.6715546 12.8333288,11.6396484 C13.6992185,10.6077422 14.8385301,10.0820313 16.2512975,10.0625 C17.5794292,10.0625 18.6324785,10.516597 19.4104772,11.4248047 C20.1884759,12.3330124 20.5774694,13.5455653 20.5774694,15.0625 C20.5774694,15.1406254 20.5758418,15.2838531 20.5725866,15.4921875 C20.5693314,15.7005219 20.5677038,15.85026 20.5677038,15.9414062 L13.2141882,15.9414062 C13.2337195,17.1588603 13.547844,18.107744 14.156571,18.7880859 C14.765298,19.4684279 15.5839747,19.8085938 16.6126257,19.8085938 C17.7454438,19.8085938 18.8815002,19.5091176 20.0208288,18.9101562 L20.274735,20.2285156 C19.18749,20.8925814 17.947268,21.2246094 16.5540319,21.2246094 Z M26.2428294,21 L22.0924388,10.2871094 L23.8404857,10.2871094 L26.2037669,16.6542969 L27.1803294,19.3691406 C27.4016847,18.6725226 27.7076712,17.774094 28.0982982,16.6738281 C28.5930923,15.2871024 29.3613138,13.1582175 30.4029857,10.2871094 L32.1412669,10.2871094 L28.0201732,21 L26.2428294,21 Z M40.2675645,12.2695312 C39.7923017,11.6966117 39.1380114,11.4101562 38.3046739,11.4101562 C37.4713364,11.4101562 36.7910046,11.7047497 36.2636582,12.2939453 C35.7363118,12.883141 35.4270701,13.688797 35.3359239,14.7109375 L40.9902207,14.7109375 C40.9902207,13.6497343 40.7493377,12.8359403 40.2675645,12.2695312 Z M38.6269395,21.2246094 C37.0709421,21.2246094 35.8453684,20.7298227 34.9501817,19.7402344 C34.0549949,18.7506461 33.6074082,17.396493 33.6074082,15.6777344 C33.6074082,14.0175698 34.0403466,12.6715546 34.9062364,11.6396484 C35.7721261,10.6077422 36.9114376,10.0820313 38.3242051,10.0625 C39.6523367,10.0625 40.7053861,10.516597 41.4833848,11.4248047 C42.2613835,12.3330124 42.650377,13.5455653 42.650377,15.0625 C42.650377,15.1406254 42.6487494,15.2838531 42.6454942,15.4921875 C42.6422389,15.7005219 42.6406114,15.85026 42.6406114,15.9414062 L35.2870957,15.9414062 C35.3066271,17.1588603 35.6207515,18.107744 36.2294785,18.7880859 C36.8382055,19.4684279 37.6568822,19.8085938 38.6855332,19.8085938 C39.8183514,19.8085938 40.9544077,19.5091176 42.0937364,18.9101562 L42.3476426,20.2285156 C41.2603976,20.8925814 40.0201756,21.2246094 38.6269395,21.2246094 Z M48.4524558,21.1953125 C47.4107839,21.1953125 46.6734866,20.9153674 46.2405417,20.3554688 C45.8075968,19.7955701 45.5911276,18.8222726 45.5911276,17.4355469 L45.5911276,6.12695312 L47.2122214,6.02929688 L47.2122214,16.7910156 C47.2122214,17.2337262 47.2171041,17.5885403 47.2268698,17.8554688 C47.2366355,18.1223972 47.2610493,18.3844388 47.300112,18.6416016 C47.3391747,18.8987643 47.3912575,19.0924473 47.456362,19.2226562 C47.5214665,19.3528652 47.6158666,19.4716792 47.7395651,19.5791016 C47.8632637,19.686524 48.0113742,19.7581378 48.1839011,19.7939453 C48.356428,19.8297528 48.569642,19.8476562 48.8235495,19.8476562 C49.0318839,19.8476562 49.442036,19.8085941 50.0540183,19.7304688 L50.1419089,21.0292969 C49.4713326,21.1399745 48.9081872,21.1953125 48.4524558,21.1953125 Z M58.9823946,6.390625 L60.535129,6.390625 L60.535129,21 L58.8066133,21 L58.8066133,8.19726562 C58.149058,8.62695527 57.3450295,8.99479014 56.394504,9.30078125 L56.394504,7.66992188 C56.4986711,7.62434873 56.7102576,7.53320381 57.0292696,7.39648438 C57.3482816,7.25976494 57.587537,7.15559932 57.747043,7.08398438 C57.906549,7.01236943 58.1067423,6.91145898 58.347629,6.78125 C58.5885156,6.65104102 58.800102,6.52083398 58.9823946,6.390625 Z" id="Level-1"></path>
                    </g>
                </g>
                <path d="M154.699219,257 L154.699219,242.556641 L156.398438,242.556641 L156.398438,255.496094 L162.755859,255.496094 L162.697266,257 L154.699219,257 Z M171.194657,248.269531 C170.719394,247.696612 170.065104,247.410156 169.231766,247.410156 C168.398429,247.410156 167.718097,247.70475 167.190751,248.293945 C166.663404,248.883141 166.354163,249.688797 166.263016,250.710938 L171.917313,250.710938 C171.917313,249.649734 171.67643,248.83594 171.194657,248.269531 Z M169.554032,257.224609 C167.998035,257.224609 166.772461,256.729823 165.877274,255.740234 C164.982087,254.750646 164.534501,253.396493 164.534501,251.677734 C164.534501,250.01757 164.967439,248.671555 165.833329,247.639648 C166.699219,246.607742 167.83853,246.082031 169.251298,246.0625 C170.579429,246.0625 171.632479,246.516597 172.410477,247.424805 C173.188476,248.333012 173.577469,249.545565 173.577469,251.0625 C173.577469,251.140625 173.575842,251.283853 173.572587,251.492188 C173.569331,251.700522 173.567704,251.85026 173.567704,251.941406 L166.214188,251.941406 C166.23372,253.15886 166.547844,254.107744 167.156571,254.788086 C167.765298,255.468428 168.583975,255.808594 169.612626,255.808594 C170.745444,255.808594 171.8815,255.509118 173.020829,254.910156 L173.274735,256.228516 C172.18749,256.892581 170.947268,257.224609 169.554032,257.224609 Z M179.242829,257 L175.092439,246.287109 L176.840486,246.287109 L179.203767,252.654297 L180.180329,255.369141 C180.401685,254.672523 180.707671,253.774094 181.098298,252.673828 C181.593092,251.287102 182.361314,249.158217 183.402986,246.287109 L185.141267,246.287109 L181.020173,257 L179.242829,257 Z M193.267564,248.269531 C192.792302,247.696612 192.138011,247.410156 191.304674,247.410156 C190.471336,247.410156 189.791005,247.70475 189.263658,248.293945 C188.736312,248.883141 188.42707,249.688797 188.335924,250.710938 L193.990221,250.710938 C193.990221,249.649734 193.749338,248.83594 193.267564,248.269531 Z M191.626939,257.224609 C190.070942,257.224609 188.845368,256.729823 187.950182,255.740234 C187.054995,254.750646 186.607408,253.396493 186.607408,251.677734 C186.607408,250.01757 187.040347,248.671555 187.906236,247.639648 C188.772126,246.607742 189.911438,246.082031 191.324205,246.0625 C192.652337,246.0625 193.705386,246.516597 194.483385,247.424805 C195.261383,248.333012 195.650377,249.545565 195.650377,251.0625 C195.650377,251.140625 195.648749,251.283853 195.645494,251.492188 C195.642239,251.700522 195.640611,251.85026 195.640611,251.941406 L188.287096,251.941406 C188.306627,253.15886 188.620752,254.107744 189.229479,254.788086 C189.838206,255.468428 190.656882,255.808594 191.685533,255.808594 C192.818351,255.808594 193.954408,255.509118 195.093736,254.910156 L195.347643,256.228516 C194.260398,256.892581 193.020176,257.224609 191.626939,257.224609 Z M201.452456,257.195312 C200.410784,257.195312 199.673487,256.915367 199.240542,256.355469 C198.807597,255.79557 198.591128,254.822273 198.591128,253.435547 L198.591128,242.126953 L200.212221,242.029297 L200.212221,252.791016 C200.212221,253.233726 200.217104,253.58854 200.22687,253.855469 C200.236635,254.122397 200.261049,254.384439 200.300112,254.641602 C200.339175,254.898764 200.391258,255.092447 200.456362,255.222656 C200.521467,255.352865 200.615867,255.471679 200.739565,255.579102 C200.863264,255.686524 201.011374,255.758138 201.183901,255.793945 C201.356428,255.829753 201.569642,255.847656 201.82355,255.847656 C202.031884,255.847656 202.442036,255.808594 203.054018,255.730469 L203.141909,257.029297 C202.471333,257.139975 201.908187,257.195312 201.452456,257.195312 Z M210.136691,257 L209.912082,255.398438 L214.96091,249.792969 C215.299454,249.415363 215.626599,248.927086 215.942356,248.328125 C216.258112,247.729164 216.487602,247.221356 216.630832,246.804688 L216.855441,246.189453 C216.855441,245.382157 216.630834,244.755536 216.181613,244.30957 C215.732392,243.863605 215.094378,243.640625 214.267551,243.640625 C212.887336,243.640625 211.800107,244.041012 211.005832,244.841797 L210.439426,243.376953 C211.337868,242.530595 212.652959,242.107422 214.384738,242.107422 C215.71287,242.107422 216.770802,242.467119 217.558566,243.186523 C218.346331,243.905928 218.740207,244.867833 218.740207,246.072266 C218.714165,246.163412 218.675103,246.285481 218.62302,246.438477 C218.570936,246.591472 218.458632,246.889321 218.286106,247.332031 C218.113579,247.774742 217.932916,248.194659 217.744113,248.591797 C217.55531,248.988934 217.316055,249.425128 217.02634,249.900391 C216.736625,250.375653 216.442031,250.772785 216.142551,251.091797 L212.021457,255.496094 L218.789035,255.496094 L218.681613,257 L210.136691,257 Z" id="Level-2" fill="#D3DDE2"></path>
                <path d="M154.699219,332 L154.699219,317.556641 L156.398438,317.556641 L156.398438,330.496094 L162.755859,330.496094 L162.697266,332 L154.699219,332 Z M171.194657,323.269531 C170.719394,322.696612 170.065104,322.410156 169.231766,322.410156 C168.398429,322.410156 167.718097,322.70475 167.190751,323.293945 C166.663404,323.883141 166.354163,324.688797 166.263016,325.710938 L171.917313,325.710938 C171.917313,324.649734 171.67643,323.83594 171.194657,323.269531 Z M169.554032,332.224609 C167.998035,332.224609 166.772461,331.729823 165.877274,330.740234 C164.982087,329.750646 164.534501,328.396493 164.534501,326.677734 C164.534501,325.01757 164.967439,323.671555 165.833329,322.639648 C166.699219,321.607742 167.83853,321.082031 169.251298,321.0625 C170.579429,321.0625 171.632479,321.516597 172.410477,322.424805 C173.188476,323.333012 173.577469,324.545565 173.577469,326.0625 C173.577469,326.140625 173.575842,326.283853 173.572587,326.492188 C173.569331,326.700522 173.567704,326.85026 173.567704,326.941406 L166.214188,326.941406 C166.23372,328.15886 166.547844,329.107744 167.156571,329.788086 C167.765298,330.468428 168.583975,330.808594 169.612626,330.808594 C170.745444,330.808594 171.8815,330.509118 173.020829,329.910156 L173.274735,331.228516 C172.18749,331.892581 170.947268,332.224609 169.554032,332.224609 Z M179.242829,332 L175.092439,321.287109 L176.840486,321.287109 L179.203767,327.654297 L180.180329,330.369141 C180.401685,329.672523 180.707671,328.774094 181.098298,327.673828 C181.593092,326.287102 182.361314,324.158217 183.402986,321.287109 L185.141267,321.287109 L181.020173,332 L179.242829,332 Z M193.267564,323.269531 C192.792302,322.696612 192.138011,322.410156 191.304674,322.410156 C190.471336,322.410156 189.791005,322.70475 189.263658,323.293945 C188.736312,323.883141 188.42707,324.688797 188.335924,325.710938 L193.990221,325.710938 C193.990221,324.649734 193.749338,323.83594 193.267564,323.269531 Z M191.626939,332.224609 C190.070942,332.224609 188.845368,331.729823 187.950182,330.740234 C187.054995,329.750646 186.607408,328.396493 186.607408,326.677734 C186.607408,325.01757 187.040347,323.671555 187.906236,322.639648 C188.772126,321.607742 189.911438,321.082031 191.324205,321.0625 C192.652337,321.0625 193.705386,321.516597 194.483385,322.424805 C195.261383,323.333012 195.650377,324.545565 195.650377,326.0625 C195.650377,326.140625 195.648749,326.283853 195.645494,326.492188 C195.642239,326.700522 195.640611,326.85026 195.640611,326.941406 L188.287096,326.941406 C188.306627,328.15886 188.620752,329.107744 189.229479,329.788086 C189.838206,330.468428 190.656882,330.808594 191.685533,330.808594 C192.818351,330.808594 193.954408,330.509118 195.093736,329.910156 L195.347643,331.228516 C194.260398,331.892581 193.020176,332.224609 191.626939,332.224609 Z M201.452456,332.195312 C200.410784,332.195312 199.673487,331.915367 199.240542,331.355469 C198.807597,330.79557 198.591128,329.822273 198.591128,328.435547 L198.591128,317.126953 L200.212221,317.029297 L200.212221,327.791016 C200.212221,328.233726 200.217104,328.58854 200.22687,328.855469 C200.236635,329.122397 200.261049,329.384439 200.300112,329.641602 C200.339175,329.898764 200.391258,330.092447 200.456362,330.222656 C200.521467,330.352865 200.615867,330.471679 200.739565,330.579102 C200.863264,330.686524 201.011374,330.758138 201.183901,330.793945 C201.356428,330.829753 201.569642,330.847656 201.82355,330.847656 C202.031884,330.847656 202.442036,330.808594 203.054018,330.730469 L203.141909,332.029297 C202.471333,332.139975 201.908187,332.195312 201.452456,332.195312 Z M213.876926,332.224609 C213.004526,332.224609 212.228166,332.110678 211.547824,331.882812 C210.867482,331.654947 210.371068,331.391278 210.058566,331.091797 L210.605441,329.65625 C211.523415,330.37891 212.617154,330.740234 213.886691,330.740234 C214.863259,330.740234 215.639618,330.497724 216.215793,330.012695 C216.791968,329.527667 217.080051,328.848963 217.080051,327.976562 C217.080051,327.5013 217.006809,327.086265 216.860324,326.731445 C216.713839,326.376626 216.518529,326.09017 216.274387,325.87207 C216.030245,325.65397 215.717748,325.478191 215.336887,325.344727 C214.956025,325.211262 214.565404,325.116862 214.165012,325.061523 C213.764619,325.006185 213.300757,324.972005 212.77341,324.958984 C212.708306,324.958984 212.61065,324.957357 212.480441,324.954102 C212.350232,324.950846 212.252577,324.949219 212.187473,324.949219 L212.187473,323.494141 L212.675754,323.494141 C213.131485,323.48763 213.5335,323.463216 213.881809,323.420898 C214.230118,323.378581 214.578421,323.302084 214.926731,323.191406 C215.27504,323.080729 215.563123,322.934246 215.790988,322.751953 C216.018854,322.569661 216.204399,322.325522 216.347629,322.019531 C216.490859,321.71354 216.562473,321.352216 216.562473,320.935547 C216.562473,319.373039 215.667299,318.591797 213.876926,318.591797 C213.232391,318.591797 212.626929,318.686197 212.06052,318.875 C211.49411,319.063803 211.009089,319.317707 210.605441,319.636719 L210.058566,318.210938 C211.028623,317.475257 212.425094,317.107422 214.24802,317.107422 C214.9837,317.107422 215.664032,317.242512 216.289035,317.512695 C216.914038,317.782879 217.428356,318.196286 217.832004,318.75293 C218.235652,319.309573 218.437473,319.962236 218.437473,320.710938 C218.437473,321.6224 218.212866,322.371091 217.763645,322.957031 C217.314424,323.542972 216.682919,323.962889 215.869113,324.216797 C216.780576,324.41211 217.495087,324.838538 218.012668,325.496094 C218.530249,326.153649 218.789035,326.986974 218.789035,327.996094 C218.789035,329.278652 218.330055,330.304033 217.412082,331.072266 C216.494109,331.840499 215.315735,332.224609 213.876926,332.224609 Z" id="Level-3" fill="#D3DDE2"></path>
            </g>
            <g id="Group-2-Copy-10" transform="translate(915.000000, 888.000000)">
                <g id="Group-Copy-7"></g>
            </g>
            <path d="M881,795 L988,612" id="Stroke-19-Copy-7" stroke="#7A98A9" stroke-width="2"></path>
            <g id="Group-9-Copy" transform="translate(831.000000, 811.000000)">
                <g id="Group-3" transform="translate(66.000000, 0.000000)">
                    <path d="M0.923076923,56 L33.9230769,1" id="Stroke-19-Copy" stroke="#7A98A9" stroke-width="2.33928009" transform="translate(17.461538, 28.974684) scale(-1, 1) translate(-17.461538, -28.974684) "></path>
                    <ellipse id="Oval" fill="#4E768D" transform="translate(31.694599, 67.234076) scale(-1, 1) translate(-31.694599, -67.234076) " cx="31.6945992" cy="67.2340764" rx="16.6945992" ry="16.5568612"></ellipse>
                </g>
                <g id="Group-3-Copy-2" transform="translate(24.500000, 42.000000) scale(-1, 1) translate(-24.500000, -42.000000) ">
                    <path d="M0.923076923,56 L33.9230769,1" id="Stroke-19-Copy" stroke="#7A98A9" stroke-width="2.33928009" transform="translate(17.461538, 28.974684) scale(-1, 1) translate(-17.461538, -28.974684) "></path>
                    <ellipse id="Oval" fill="#4E768D" transform="translate(31.694599, 67.234076) scale(-1, 1) translate(-31.694599, -67.234076) " cx="31.6945992" cy="67.2340764" rx="16.6945992" ry="16.5568612"></ellipse>
                </g>
            </g>
            <g id="Group-4-Copy" transform="translate(861.000000, 778.000000)" fill="#4E768D">
                <ellipse id="Oval" cx="26" cy="25.5" rx="26" ry="25.5"></ellipse>
            </g>
            <path d="M1036,795 L1143,612" id="Stroke-19-Copy-8" stroke="#7A98A9" stroke-width="2" transform="translate(1089.500000, 703.500000) scale(-1, 1) translate(-1089.500000, -703.500000) "></path>
            <g id="Group-3-Copy" transform="translate(1102.500000, 853.000000) scale(-1, 1) translate(-1102.500000, -853.000000) translate(1078.000000, 811.000000)">
                <path d="M0.923076923,56 L33.9230769,1" id="Stroke-19-Copy" stroke="#7A98A9" stroke-width="2.33928009" transform="translate(17.461538, 28.974684) scale(-1, 1) translate(-17.461538, -28.974684) "></path>
                <ellipse id="Oval" fill="#4E768D" transform="translate(31.694599, 67.234076) scale(-1, 1) translate(-31.694599, -67.234076) " cx="31.6945992" cy="67.2340764" rx="16.6945992" ry="16.5568612"></ellipse>
            </g>
            <g id="Group-3-Copy-3" transform="translate(1144.000000, 811.000000)">
                <path d="M0.923076923,56 L33.9230769,1" id="Stroke-19-Copy" stroke="#7A98A9" stroke-width="2.33928009" transform="translate(17.461538, 28.974684) scale(-1, 1) translate(-17.461538, -28.974684) "></path>
                <ellipse id="Oval" fill="#4E768D" transform="translate(31.694599, 67.234076) scale(-1, 1) translate(-31.694599, -67.234076) " cx="31.6945992" cy="67.2340764" rx="16.6945992" ry="16.5568612"></ellipse>
            </g>
            <g id="Group-4-Copy-2" transform="translate(1137.000000, 803.500000) scale(-1, 1) translate(-1137.000000, -803.500000) translate(1111.000000, 778.000000)" fill="#4E768D">
                <ellipse id="Oval" cx="26" cy="25.5" rx="26" ry="25.5"></ellipse>
            </g>
            <g id="Group-11-Copy" transform="translate(948.000000, 534.000000)" fill="#4E768D">
                <g id="Group">
                    <circle id="Oval" cx="64.7787622" cy="64.7787622" r="64.7787622"></circle>
                </g>
            </g>
            <g id="Group-7-Copy-4" transform="translate(850.000000, 710.000000)" fill="#D3DDE2">
                <g id="Group-6">
                    <path d="M9.4140625,10.25 C9.4140625,8.63540859 8.9974,7.46094117 8.1640625,6.7265625 C7.330725,5.99218383 6.11719547,5.625 4.5234375,5.625 L2.7109375,5.625 L2.7109375,14.8203125 L4.75,14.8203125 C6.27084094,14.8203125 7.42838145,14.4362018 8.22265625,13.6679688 C9.01693105,12.8997357 9.4140625,11.7604242 9.4140625,10.25 Z M10.859375,10.2109375 C10.859375,12.0911552 10.3255262,13.5260367 9.2578125,14.515625 C8.19009883,15.5052133 6.70053039,16 4.7890625,16 L1.359375,16 L1.359375,4.4453125 L4.5625,4.4453125 C5.52604648,4.4453125 6.38801703,4.55859262 7.1484375,4.78515625 C7.90885797,5.01171988 8.56900762,5.35546645 9.12890625,5.81640625 C9.68880488,6.27734605 10.117186,6.87890254 10.4140625,7.62109375 C10.710939,8.36328496 10.859375,9.22655758 10.859375,10.2109375 Z M18.313538,9.015625 C17.9333278,8.55728937 17.4098955,8.328125 16.7432255,8.328125 C16.0765555,8.328125 15.5322901,8.56379973 15.110413,9.03515625 C14.6885359,9.50651277 14.4411425,10.1510376 14.3682255,10.96875 L18.891663,10.96875 C18.891663,10.1197874 18.6989566,9.46875227 18.313538,9.015625 Z M17.001038,16.1796875 C15.7562401,16.1796875 14.7757812,15.7838581 14.0596318,14.9921875 C13.3434824,14.2005169 12.985413,13.1171944 12.985413,11.7421875 C12.985413,10.4140559 13.3317637,9.33724371 14.0244755,8.51171875 C14.7171873,7.68619379 15.6286365,7.26562508 16.7588505,7.25 C17.8213558,7.25 18.6637953,7.61327762 19.2861943,8.33984375 C19.9085932,9.06640988 20.219788,10.0364523 20.219788,11.25 C20.219788,11.3125003 20.2184859,11.4270825 20.2158818,11.59375 C20.2132776,11.7604175 20.2119755,11.880208 20.2119755,11.953125 L14.329163,11.953125 C14.3447881,12.9270882 14.5960877,13.6861952 15.0830693,14.2304687 C15.5700509,14.7747423 16.2249922,15.046875 17.047913,15.046875 C17.9541675,15.046875 18.8630126,14.8072941 19.7744755,14.328125 L19.9776005,15.3828125 C19.1078045,15.9140652 18.1156269,16.1796875 17.001038,16.1796875 Z M22.5567635,19.71875 L22.5567635,7.4296875 L23.705201,7.4296875 L23.830201,8.59375 C24.5802048,7.69791219 25.4812374,7.25 26.533326,7.25 C27.3145799,7.25 27.9760317,7.44531055 28.517701,7.8359375 C29.0593704,8.22656445 29.459106,8.755205 29.7169198,9.421875 C29.9747336,10.088545 30.1036385,10.867183 30.1036385,11.7578125 C30.1036385,12.6119834 29.9630149,13.3710904 29.6817635,14.0351562 C29.4005121,14.6992221 28.9877558,15.2226543 28.4434823,15.6054688 C27.8992087,15.9882832 27.2624963,16.1796875 26.533326,16.1796875 C25.9812399,16.1796875 25.463016,16.0559908 24.9786385,15.8085938 C24.4942611,15.5611967 24.1062442,15.234377 23.814576,14.828125 C23.8458262,15.3906278 23.861451,15.9374973 23.861451,16.46875 L23.861451,19.6328125 L22.5567635,19.71875 Z M26.3536385,15.078125 C26.7494738,15.078125 27.103637,14.9882821 27.4161385,14.8085938 C27.7286401,14.6289054 27.9812417,14.3828141 28.173951,14.0703125 C28.3666603,13.7578109 28.5124922,13.4023457 28.611451,13.0039062 C28.7104099,12.6054668 28.7598885,12.1744815 28.7598885,11.7109375 C28.7598885,10.7317659 28.5541614,9.92838855 28.142701,9.30078125 C27.7312406,8.67317395 27.1296842,8.359375 26.3380135,8.359375 C24.6817552,8.359375 23.8536385,9.4296768 23.8536385,11.5703125 C23.8536385,12.7317766 24.047647,13.6067679 24.4356698,14.1953125 C24.8236926,14.7838571 25.4630091,15.078125 26.3536385,15.078125 Z M35.1984265,16.15625 C34.3546723,16.15625 33.75572,15.9505229 33.4015515,15.5390625 C33.0473831,15.1276021 32.859885,14.4635462 32.8390515,13.546875 L32.8390515,8.3984375 L31.565614,8.3984375 L31.6203015,7.5390625 L32.831239,7.4296875 L33.2765515,5.46875 L34.1359265,5.4375 L34.1359265,7.4296875 L36.518739,7.4296875 L36.518739,8.3984375 L34.1359265,8.3984375 L34.1359265,13.3125 C34.1359265,13.9635449 34.2348839,14.4218737 34.4328015,14.6875 C34.6307192,14.9531263 34.9692575,15.0859375 35.4484265,15.0859375 C35.6203024,15.0859375 35.9926945,15.0442712 36.565614,14.9609375 L36.6203015,15.9921875 C36.0005068,16.101563 35.5265532,16.15625 35.1984265,16.15625 Z M44.3088396,16 L44.3088396,10.8203125 C44.3088396,9.9609332 44.1721222,9.33593945 43.8986833,8.9453125 C43.6252444,8.55468555 43.1473846,8.359375 42.4650896,8.359375 C41.8088363,8.359375 41.2554564,8.52343586 40.8049333,8.8515625 C40.3544102,9.17968914 40.0614444,9.60416406 39.9260271,10.125 C39.8791518,10.515627 39.8557146,10.9505184 39.8557146,11.4296875 L39.8557146,16 L38.5510271,16 L38.5510271,4.1015625 L39.8557146,4.0234375 L39.8557146,7.5078125 C39.8557146,7.80468898 39.845298,8.17187281 39.8244646,8.609375 C40.5588432,7.70312047 41.5327918,7.25 42.7463396,7.25 C44.6578075,7.25 45.6135271,8.37238461 45.6135271,10.6171875 L45.6135271,16 L44.3088396,16 Z" id="Depth"></path>
                </g>
            </g>
            <g id="Group-7-Copy-5" transform="translate(1126.000000, 710.000000)" fill="#D3DDE2">
                <g id="Group-6">
                    <path d="M10.265625,16 L8.9140625,16 L8.9140625,10.59375 L2.7109375,10.59375 L2.7109375,16 L1.359375,16 L1.359375,4.4453125 L2.7109375,4.4453125 L2.7109375,9.40625 L8.9140625,9.40625 L8.9140625,4.4453125 L10.265625,4.4453125 L10.265625,16 Z M18.204163,9.015625 C17.8239528,8.55728937 17.3005205,8.328125 16.6338505,8.328125 C15.9671805,8.328125 15.4229151,8.56379973 15.001038,9.03515625 C14.5791609,9.50651277 14.3317675,10.1510376 14.2588505,10.96875 L18.782288,10.96875 C18.782288,10.1197874 18.5895816,9.46875227 18.204163,9.015625 Z M16.891663,16.1796875 C15.6468651,16.1796875 14.6664062,15.7838581 13.9502568,14.9921875 C13.2341074,14.2005169 12.876038,13.1171944 12.876038,11.7421875 C12.876038,10.4140559 13.2223887,9.33724371 13.9151005,8.51171875 C14.6078123,7.68619379 15.5192615,7.26562508 16.6494755,7.25 C17.7119808,7.25 18.5544203,7.61327762 19.1768193,8.33984375 C19.7992182,9.06640988 20.110413,10.0364523 20.110413,11.25 C20.110413,11.3125003 20.1091109,11.4270825 20.1065068,11.59375 C20.1039026,11.7604175 20.1026005,11.880208 20.1026005,11.953125 L14.219788,11.953125 C14.2354131,12.9270882 14.4867127,13.6861952 14.9736943,14.2304688 C15.4606759,14.7747423 16.1156172,15.046875 16.938538,15.046875 C17.8447925,15.046875 18.7536376,14.8072941 19.6651005,14.328125 L19.8682255,15.3828125 C18.9984295,15.9140652 18.0062519,16.1796875 16.891663,16.1796875 Z M23.986451,7.4296875 L23.986451,16 L22.673951,16 L22.673951,7.4296875 L23.986451,7.4296875 Z M23.986451,4.3125 L23.986451,5.859375 L22.673951,5.859375 L22.673951,4.3125 L23.986451,4.3125 Z M30.2921765,14.8828125 C30.7348871,14.8828125 31.122904,14.8046883 31.456239,14.6484375 C31.789574,14.4921867 32.0499881,14.276043 32.237489,14 C32.42499,13.723957 32.5643115,13.4166684 32.6554578,13.078125 C32.7466041,12.7395816 32.7921765,12.3697937 32.7921765,11.96875 L32.7921765,11.3359375 C32.7921765,10.9192688 32.745302,10.535158 32.6515515,10.1835938 C32.5578011,9.83202949 32.4132713,9.51692848 32.2179578,9.23828125 C32.0226443,8.95963402 31.7622303,8.74218828 31.4367078,8.5859375 C31.1111853,8.42968672 30.7322829,8.3515625 30.299989,8.3515625 C29.9406122,8.3515625 29.6137926,8.41927016 29.3195203,8.5546875 C29.025248,8.69010484 28.7830629,8.86848848 28.5929578,9.08984375 C28.4028527,9.31119902 28.241396,9.56900895 28.1085828,9.86328125 C27.9757696,10.1575536 27.8807185,10.4557277 27.8234265,10.7578125 C27.7661346,11.0598973 27.737489,11.3645818 27.737489,11.671875 C27.737489,11.9739598 27.7687387,12.273436 27.831239,12.5703125 C27.8937394,12.867189 27.9926967,13.1562486 28.128114,13.4375 C28.2635314,13.7187514 28.4275922,13.9648427 28.6203015,14.1757812 C28.8130108,14.3867198 29.0538938,14.557291 29.3429578,14.6875 C29.6320217,14.817709 29.9484248,14.8828125 30.2921765,14.8828125 Z M28.284364,19.921875 L28.1671765,18.7421875 L29.7609265,18.7421875 C30.2036371,18.7421875 30.5890499,18.7109378 30.9171765,18.6484375 C31.2453032,18.5859372 31.518738,18.4830736 31.737489,18.3398438 C31.9562401,18.1966139 32.1333217,18.0377613 32.268739,17.8632812 C32.4041564,17.6888012 32.5070199,17.462241 32.5773328,17.1835938 C32.6476456,16.9049465 32.6945202,16.6289076 32.7179578,16.3554688 C32.7413954,16.0820299 32.753114,15.7473978 32.753114,15.3515625 L32.753114,14.59375 C32.4406125,15.0416689 32.0786369,15.3867175 31.6671765,15.6289062 C31.2557162,15.871095 30.7322839,15.9921875 30.096864,15.9921875 C29.6072783,15.9921875 29.1554599,15.9075529 28.7413953,15.7382812 C28.3273307,15.5690096 27.9783759,15.3437514 27.6945203,15.0625 C27.4106647,14.7812486 27.1684796,14.455731 26.9679578,14.0859375 C26.767436,13.716144 26.6216041,13.3333353 26.5304578,12.9375 C26.4393115,12.5416647 26.393739,12.1432312 26.393739,11.7421875 C26.393739,11.1171844 26.4705612,10.5390652 26.6242078,10.0078125 C26.7778544,9.47655984 27.0057167,9.00260625 27.3078015,8.5859375 C27.6098864,8.16926875 28.0070178,7.8424491 28.4992078,7.60546875 C28.9913978,7.3684884 29.5551942,7.25 30.190614,7.25 C30.7531169,7.25 31.2439974,7.35807184 31.6632703,7.57421875 C32.0825432,7.79036566 32.4588415,8.12239359 32.7921765,8.5703125 L32.7921765,7.4296875 L34.065614,7.4296875 L34.065614,15.3828125 C34.065614,15.7473977 34.0564996,16.0664049 34.0382703,16.3398438 C34.020041,16.6132826 33.9757706,16.916665 33.9054578,17.25 C33.8351449,17.583335 33.7400938,17.8697905 33.6203015,18.109375 C33.5005093,18.3489595 33.3325422,18.5898425 33.1163953,18.8320312 C32.9002484,19.07422 32.6424385,19.2695305 32.3429578,19.4179688 C32.0434771,19.566407 31.6723871,19.6874995 31.2296765,19.78125 C30.786966,19.8750005 30.286971,19.921875 29.7296765,19.921875 L28.284364,19.921875 Z M42.5354021,16 L42.5354021,10.8203125 C42.5354021,9.9609332 42.3986847,9.33593945 42.1252458,8.9453125 C41.8518069,8.55468555 41.3739471,8.359375 40.6916521,8.359375 C40.0353988,8.359375 39.4820189,8.52343586 39.0314958,8.8515625 C38.5809727,9.17968914 38.2880069,9.60416406 38.1525896,10.125 C38.1057143,10.515627 38.0822771,10.9505184 38.0822771,11.4296875 L38.0822771,16 L36.7775896,16 L36.7775896,4.1015625 L38.0822771,4.0234375 L38.0822771,7.5078125 C38.0822771,7.80468898 38.0718605,8.17187281 38.0510271,8.609375 C38.7854057,7.70312047 39.7593543,7.25 40.9729021,7.25 C42.88437,7.25 43.8400896,8.37238461 43.8400896,10.6171875 L43.8400896,16 L42.5354021,16 Z M48.7083151,16.15625 C47.8645609,16.15625 47.2656085,15.9505229 46.9114401,15.5390625 C46.5572716,15.1276021 46.3697735,14.4635462 46.3489401,13.546875 L46.3489401,8.3984375 L45.0755026,8.3984375 L45.1301901,7.5390625 L46.3411276,7.4296875 L46.7864401,5.46875 L47.6458151,5.4375 L47.6458151,7.4296875 L50.0286276,7.4296875 L50.0286276,8.3984375 L47.6458151,8.3984375 L47.6458151,13.3125 C47.6458151,13.9635449 47.7447724,14.4218737 47.9426901,14.6875 C48.1406077,14.9531263 48.479146,15.0859375 48.9583151,15.0859375 C49.1301909,15.0859375 49.502583,15.0442712 50.0755026,14.9609375 L50.1301901,15.9921875 C49.5103953,16.101563 49.0364417,16.15625 48.7083151,16.15625 Z" id="Height"></path>
                </g>
            </g>
            <g id="Group-14" transform="translate(899.000000, 659.000000)" stroke="#D3DDE2">
                <path d="M1.9731,43.4334 L36.5,1.5" id="Stroke-19" stroke-width="1.5"></path>
                <path d="M2.46278078,44.073003 L1.15324486,32.0569954 C1.12809868,31.8132709 0.907585983,31.6372476 0.663861424,31.6643281 C0.422071188,31.6914086 0.246047896,31.909987 0.273128402,32.1537115 L1.62715373,44.6030072 C1.65423423,44.8467318 1.87281261,45.0227551 2.11653716,44.9976089 L14.5677672,43.6397149 C14.8114917,43.6145688 14.987515,43.3940561 14.9604345,43.1503315 C14.933354,42.9085413 14.7147756,42.7344523 14.4710511,42.7595985 L2.46278078,44.073003 Z" id="Stroke-21" stroke-width="0.5" fill="#D3DDE2"></path>
            </g>
            <g id="Group-14-Copy-2" transform="translate(1102.500000, 681.500000) scale(1, -1) translate(-1102.500000, -681.500000) translate(1084.000000, 659.000000)" stroke="#D3DDE2">
                <path d="M1.9731,43.4334 L36.5,1.5" id="Stroke-19" stroke-width="1.5"></path>
                <path d="M2.46278078,44.073003 L1.15324486,32.0569954 C1.12809868,31.8132709 0.907585983,31.6372476 0.663861424,31.6643281 C0.422071188,31.6914086 0.246047896,31.909987 0.273128402,32.1537115 L1.62715373,44.6030072 C1.65423423,44.8467318 1.87281261,45.0227551 2.11653716,44.9976089 L14.5677672,43.6397149 C14.8114917,43.6145688 14.987515,43.3940561 14.9604345,43.1503315 C14.933354,42.9085413 14.7147756,42.7344523 14.4710511,42.7595985 L2.46278078,44.073003 Z" id="Stroke-21" stroke-width="0.5" fill="#D3DDE2"></path>
            </g>
            <g id="Group-14-Copy" transform="translate(831.000000, 741.000000)" stroke="#D3DDE2">
                <path d="M1.9731,43.4334 L36.5,1.5" id="Stroke-19" stroke-width="1.5"></path>
                <path d="M2.46278078,44.073003 L1.15324486,32.0569954 C1.12809868,31.8132709 0.907585983,31.6372476 0.663861424,31.6643281 C0.422071188,31.6914086 0.246047896,31.909987 0.273128402,32.1537115 L1.62715373,44.6030072 C1.65423423,44.8467318 1.87281261,45.0227551 2.11653716,44.9976089 L14.5677672,43.6397149 C14.8114917,43.6145688 14.987515,43.3940561 14.9604345,43.1503315 C14.933354,42.9085413 14.7147756,42.7344523 14.4710511,42.7595985 L2.46278078,44.073003 Z" id="Stroke-21" stroke-width="0.5" fill="#D3DDE2"></path>
            </g>
            <g id="Group-14-Copy-3" transform="translate(1170.500000, 763.500000) scale(1, -1) translate(-1170.500000, -763.500000) translate(1152.000000, 741.000000)" stroke="#D3DDE2">
                <path d="M1.9731,43.4334 L36.5,1.5" id="Stroke-19" stroke-width="1.5"></path>
                <path d="M2.46278078,44.073003 L1.15324486,32.0569954 C1.12809868,31.8132709 0.907585983,31.6372476 0.663861424,31.6643281 C0.422071188,31.6914086 0.246047896,31.909987 0.273128402,32.1537115 L1.62715373,44.6030072 C1.65423423,44.8467318 1.87281261,45.0227551 2.11653716,44.9976089 L14.5677672,43.6397149 C14.8114917,43.6145688 14.987515,43.3940561 14.9604345,43.1503315 C14.933354,42.9085413 14.7147756,42.7344523 14.4710511,42.7595985 L2.46278078,44.073003 Z" id="Stroke-21" stroke-width="0.5" fill="#D3DDE2"></path>
            </g>
        </g>
    </g>
</svg>