<?xml version="1.0" encoding="UTF-8" standalone="no"?>
<svg
   xmlns:dc="http://purl.org/dc/elements/1.1/"
   xmlns:cc="http://creativecommons.org/ns#"
   xmlns:rdf="http://www.w3.org/1999/02/22-rdf-syntax-ns#"
   xmlns:svg="http://www.w3.org/2000/svg"
   xmlns="http://www.w3.org/2000/svg"
   xmlns:sodipodi="http://sodipodi.sourceforge.net/DTD/sodipodi-0.dtd"
   xmlns:inkscape="http://www.inkscape.org/namespaces/inkscape"
   height="941"
   viewBox="0 0 1214 941"
   width="1214"
   version="1.1"
   id="svg92"
   sodipodi:docname="TreeNode.svg"
   inkscape:version="0.92.3 (2405546, 2018-03-11)">
  <metadata
     id="metadata98">
    <rdf:RDF>
      <cc:Work
         rdf:about="">
        <dc:format>image/svg+xml</dc:format>
        <dc:type
           rdf:resource="http://purl.org/dc/dcmitype/StillImage" />
        <dc:title></dc:title>
      </cc:Work>
    </rdf:RDF>
  </metadata>
  <defs
     id="defs96" />
  <sodipodi:namedview
     pagecolor="#ffffff"
     bordercolor="#666666"
     borderopacity="1"
     objecttolerance="10"
     gridtolerance="10"
     guidetolerance="10"
     inkscape:pageopacity="0"
     inkscape:pageshadow="2"
     inkscape:window-width="1280"
     inkscape:window-height="657"
     id="namedview94"
     showgrid="false"
     inkscape:zoom="0.23640857"
     inkscape:cx="80.369338"
     inkscape:cy="470.5"
     inkscape:window-x="-8"
     inkscape:window-y="-8"
     inkscape:window-maximized="1"
     inkscape:current-layer="svg92" />
  <rect
     style="opacity:1;fill:#262656;fill-opacity:1;fill-rule:nonzero;stroke:#03f3f4;stroke-width:0.75590551;stroke-linecap:round;stroke-linejoin:miter;stroke-miterlimit:4;stroke-dasharray:none;stroke-dashoffset:0;stroke-opacity:1;paint-order:stroke fill markers"
     id="rect905"
     width="1218.23"
     height="922.13239"
     x="8.4599304"
     y="6.1777005"
     rx="13.8545" />
  <g
     id="g90"
     style="fill:none;fill-rule:evenodd"
     transform="matrix(1.0284242,0,0,1.1013093,-32.434771,7.7055815)">
    <path
       d="m 317.77,514.46 -1.9,-0.6 5.14,-16.08 1.9,0.6 z m 9.66,-1.3 c -0.86667,0 -1.66333,-0.10667 -2.39,-0.32 -0.72667,-0.21333 -1.34333,-0.52 -1.85,-0.92 l 0.7,-1.74 c 1.04,0.76 2.23333,1.14 3.58,1.14 0.57334,0 1.01,-0.0933 1.31,-0.28 0.3,-0.18667 0.45,-0.45333 0.45,-0.8 0,-0.29334 -0.10333,-0.52 -0.31,-0.68 -0.20667,-0.16 -0.57666,-0.30667 -1.11,-0.44 l -1.6,-0.36 c -0.90667,-0.2 -1.58,-0.52666 -2.02,-0.98 -0.44,-0.45334 -0.66,-1.04 -0.66,-1.76 0,-0.6 0.17,-1.13 0.51,-1.59 0.34,-0.46 0.81333,-0.81667 1.42,-1.07 0.60667,-0.25333 1.31,-0.38 2.11,-0.38 0.69334,0 1.36333,0.10667 2.01,0.32 0.64667,0.21333 1.21666,0.51333 1.71,0.9 l -0.7,1.7 c -1.01334,-0.73334 -2.02666,-1.1 -3.04,-1.1 -0.54667,0 -0.97333,0.1 -1.28,0.3 -0.30667,0.2 -0.46,0.48 -0.46,0.84 0,0.26667 0.0967,0.48667 0.29,0.66 0.19333,0.17333 0.50333,0.30667 0.93,0.4 l 1.66,0.38 c 0.97334,0.21333 1.68666,0.55 2.14,1.01 0.45334,0.46 0.68,1.06333 0.68,1.81 0,0.90667 -0.36666,1.62666 -1.1,2.16 -0.73334,0.53334 -1.72666,0.8 -2.98,0.8 z m 10.3,-10.18 c 1.37334,0 2.39333,0.33333 3.06,1 0.66667,0.66667 1,1.69333 1,3.08 V 513 h -2.38 v -1.5 c -0.22667,0.52 -0.58333,0.92667 -1.07,1.22 -0.48667,0.29334 -1.05,0.44 -1.69,0.44 -0.65334,0 -1.24666,-0.13333 -1.78,-0.4 -0.53334,-0.26667 -0.95333,-0.63333 -1.26,-1.1 -0.30667,-0.46667 -0.46,-0.98666 -0.46,-1.56 0,-0.72 0.18333,-1.28666 0.55,-1.7 0.36667,-0.41333 0.96333,-0.71333 1.79,-0.9 0.75778,-0.17111 1.77884,-0.2638 3.06319,-0.27806 L 339.41,507.22 v -0.46 c 0,-0.66667 -0.14333,-1.14666 -0.43,-1.44 -0.28667,-0.29333 -0.76333,-0.44 -1.43,-0.44 -0.52,0 -1.06333,0.09 -1.63,0.27 -0.56667,0.18 -1.12333,0.43 -1.67,0.75 l -0.7,-1.72 c 0.54667,-0.34667 1.20666,-0.63333 1.98,-0.86 0.77334,-0.22667 1.50666,-0.34 2.2,-0.34 z m -0.58,8.38 c 0.66667,0 1.21,-0.22333 1.63,-0.67 0.42,-0.44667 0.63,-1.02333 0.63,-1.73 v -0.42 h -0.36 c -0.89334,0 -1.58666,0.04 -2.08,0.12 -0.49334,0.08 -0.84667,0.22 -1.06,0.42 -0.21333,0.2 -0.32,0.47333 -0.32,0.82 0,0.42667 0.14667,0.77667 0.44,1.05 0.29334,0.27334 0.66666,0.41 1.12,0.41 z m 10.36,-8.14 h 2.58 v 1.88 h -2.58 v 7.9 h -2.5 v -7.9 h -1.88 v -1.88 h 1.88 c 0,-1.4 0.36333,-2.45333 1.09,-3.16 0.67823,-0.65956 1.70779,-1.04616 3.08871,-1.15982 l 1.28129,-0.0802 0.16,1.86 -0.94,0.04 c -0.78667,0.04 -1.34666,0.21667 -1.68,0.53 -0.33333,0.31334 -0.5,0.81666 -0.5,1.51 z m 8.18,-0.24 c 1.37334,0 2.39333,0.33333 3.06,1 0.66667,0.66667 1,1.69333 1,3.08 V 513 h -2.38 v -1.5 c -0.22667,0.52 -0.58333,0.92667 -1.07,1.22 -0.48667,0.29334 -1.05,0.44 -1.69,0.44 -0.65334,0 -1.24666,-0.13333 -1.78,-0.4 -0.53334,-0.26667 -0.95333,-0.63333 -1.26,-1.1 -0.30667,-0.46667 -0.46,-0.98666 -0.46,-1.56 0,-0.72 0.18333,-1.28666 0.55,-1.7 0.36667,-0.41333 0.96333,-0.71333 1.79,-0.9 0.75778,-0.17111 1.77884,-0.2638 3.06319,-0.27806 L 357.37,507.22 v -0.46 c 0,-0.66667 -0.14333,-1.14666 -0.43,-1.44 -0.28667,-0.29333 -0.76333,-0.44 -1.43,-0.44 -0.52,0 -1.06333,0.09 -1.63,0.27 -0.56667,0.18 -1.12333,0.43 -1.67,0.75 l -0.7,-1.72 c 0.54667,-0.34667 1.20666,-0.63333 1.98,-0.86 0.77334,-0.22667 1.50666,-0.34 2.2,-0.34 z m -0.58,8.38 c 0.66667,0 1.21,-0.22333 1.63,-0.67 0.42,-0.44667 0.63,-1.02333 0.63,-1.73 v -0.42 h -0.36 c -0.89334,0 -1.58666,0.04 -2.08,0.12 -0.49334,0.08 -0.84667,0.22 -1.06,0.42 -0.21333,0.2 -0.32,0.47333 -0.32,0.82 0,0.42667 0.14667,0.77667 0.44,1.05 0.29334,0.27334 0.66666,0.41 1.12,0.41 z m 13.62,-6.3 -1.46,0.14 c -1.65334,0.17333 -2.48,1.01333 -2.48,2.52 V 513 h -2.5 v -9.78 h 2.38 v 1.72 c 0.47852,-1.10815 1.4387,-1.74058 2.88055,-1.89728 L 368.57,502.96 Z m 1.22,7.94 v -9.78 h 2.5 V 513 Z m -0.14,-14.32 h 2.76 v 2.46 h -2.76 z"
       id="path2"
       inkscape:connector-curvature="0"
       style="fill:#ffffff;fill-rule:nonzero" />
    <circle
       cx="399.5"
       cy="506.5"
       r="5.5"
       id="circle4"
       style="fill:#4c7ef3;fill-rule:nonzero" />
    <path
       d="m 823.04,514.46 -1.9,-0.6 5.14,-16.08 1.9,0.6 z m 19.26,-11.24 h 2.44 L 840.9,513 h -2.18 l -2.4,-6.3 -2.34,6.3 h -2.16 l -3.86,-9.78 h 2.56 l 2.5,6.8 2.5,-6.8 h 1.8 l 2.5,6.84 z m 12.5,5.34 h -6.66 c 0.08,0.90667 0.35333,1.58 0.82,2.02 0.46667,0.44 1.13333,0.66 2,0.66 1.08001,0 2.06666,-0.34666 2.96,-1.04 l 0.72,1.72 c -0.45334,0.37334 -1.02333,0.67333 -1.71,0.9 -0.68667,0.22667 -1.37666,0.34 -2.07,0.34 -1.60001,0 -2.86333,-0.45333 -3.79,-1.36 -0.92667,-0.90667 -1.39,-2.14666 -1.39,-3.72 0,-1 0.2,-1.88666 0.6,-2.66 0.4,-0.77334 0.96333,-1.37333 1.69,-1.8 0.72667,-0.42667 1.55,-0.64 2.47,-0.64 1.34667,0 2.41,0.43333 3.19,1.3 0.78,0.86667 1.17,2.05999 1.17,3.58 z m -4.3,-3.82 c -0.66667,0 -1.20333,0.21333 -1.61,0.64 -0.40667,0.42667 -0.65667,1.04 -0.75,1.84 h 4.52 c -0.0267,-0.81334 -0.22667,-1.43 -0.6,-1.85 -0.37334,-0.42 -0.89333,-0.63 -1.56,-0.63 z m 15.78,-5.84 V 513 h -2.48 v -1.58 c -0.29334,0.54667 -0.71666,0.97333 -1.27,1.28 -0.55334,0.30667 -1.18333,0.46 -1.89,0.46 -0.84,0 -1.59,-0.21333 -2.25,-0.64 -0.66,-0.42667 -1.17333,-1.03 -1.54,-1.81 -0.36667,-0.78 -0.55,-1.67666 -0.55,-2.69 0,-1.01334 0.18333,-1.9 0.55,-2.66 0.36667,-0.76 0.87666,-1.34666 1.53,-1.76 0.65334,-0.41333 1.40666,-0.62 2.26,-0.62 0.70667,0 1.33333,0.14667 1.88,0.44 0.54667,0.29334 0.96667,0.70666 1.26,1.24 v -5.76 z m -4.98,12.32 c 0.8,0 1.41666,-0.27333 1.85,-0.82 0.43334,-0.54667 0.65,-1.32666 0.65,-2.34 0,-1.01334 -0.21667,-1.79 -0.65,-2.33 -0.43334,-0.54 -1.04333,-0.81 -1.83,-0.81 -0.8,0 -1.42,0.26666 -1.86,0.8 -0.44,0.53334 -0.66,1.3 -0.66,2.3 0,1.01334 0.22,1.8 0.66,2.36 0.44,0.56 1.05333,0.84 1.84,0.84 z m 17,-12.32 V 513 h -2.48 v -1.58 c -0.29334,0.54667 -0.71666,0.97333 -1.27,1.28 -0.55334,0.30667 -1.18333,0.46 -1.89,0.46 -0.84,0 -1.59,-0.21333 -2.25,-0.64 -0.66,-0.42667 -1.17333,-1.03 -1.54,-1.81 -0.36667,-0.78 -0.55,-1.67666 -0.55,-2.69 0,-1.01334 0.18333,-1.9 0.55,-2.66 0.36667,-0.76 0.87666,-1.34666 1.53,-1.76 0.65334,-0.41333 1.40666,-0.62 2.26,-0.62 0.70667,0 1.33333,0.14667 1.88,0.44 0.54667,0.29334 0.96666,0.70666 1.26,1.24 v -5.76 z m -4.98,12.32 c 0.8,0 1.41666,-0.27333 1.85,-0.82 0.43334,-0.54667 0.65,-1.32666 0.65,-2.34 0,-1.01334 -0.21667,-1.79 -0.65,-2.33 -0.43334,-0.54 -1.04333,-0.81 -1.83,-0.81 -0.8,0 -1.42,0.26666 -1.86,0.8 -0.44,0.53334 -0.66,1.3 -0.66,2.3 0,1.01334 0.22,1.8 0.66,2.36 0.44,0.56 1.05333,0.84 1.84,0.84 z m 7.56,1.78 v -9.78 h 2.5 V 513 Z m -0.14,-14.32 h 2.76 v 2.46 h -2.76 z m 10.9,4.3 c 1.17334,0 2.04666,0.33333 2.62,1 0.57334,0.66667 0.86,1.67333 0.86,3.02 v 6 h -2.5 v -5.86 c 0,-0.76 -0.14333,-1.31333 -0.43,-1.66 -0.28667,-0.34667 -0.73666,-0.52 -1.35,-0.52 -0.72,0 -1.29666,0.22666 -1.73,0.68 -0.43334,0.45334 -0.65,1.06 -0.65,1.82 V 513 h -2.5 v -9.78 h 2.44 v 1.46 c 0.33333,-0.54667 0.78,-0.96666 1.34,-1.26 0.56,-0.29334 1.19333,-0.44 1.9,-0.44 z"
       id="path6"
       inkscape:connector-curvature="0"
       style="fill:#ffffff;fill-rule:nonzero" />
    <path
       d="m 901.5,502.98 c 0.72,0 1.36,0.15 1.92,0.45 0.56,0.3 0.98666,0.72333 1.28,1.27 v -1.48 h 2.48 v 8.88 c 0,1.53334 -0.42333,2.69333 -1.27,3.48 -0.84667,0.78667 -2.09666,1.18 -3.75,1.18 -0.85334,0 -1.67333,-0.11 -2.46,-0.33 -0.78667,-0.22 -1.47333,-0.53 -2.06,-0.93 l 0.7,-1.76 c 1.21334,0.73334 2.46666,1.1 3.76,1.1 1.73334,0 2.6,-0.85333 2.6,-2.56 V 511 c -0.29333,0.54667 -0.72,0.97 -1.28,1.27 -0.56,0.3 -1.2,0.45 -1.92,0.45 -0.85334,0 -1.61,-0.20333 -2.27,-0.61 -0.66,-0.40667 -1.17666,-0.97666 -1.55,-1.71 -0.37333,-0.73334 -0.56,-1.57999 -0.56,-2.54 0,-0.96 0.18333,-1.81 0.55,-2.55 0.36667,-0.74 0.88333,-1.31333 1.55,-1.72 0.66667,-0.40667 1.42666,-0.61 2.28,-0.61 z m 0.66,1.94 c -0.78667,0 -1.40666,0.26 -1.86,0.78 -0.45334,0.52 -0.68,1.23999 -0.68,2.16 0,0.89334 0.22666,1.60333 0.68,2.13 0.45334,0.52667 1.07333,0.79 1.86,0.79 0.8,0 1.42333,-0.26 1.87,-0.78 0.44667,-0.52 0.67,-1.23333 0.67,-2.14 0,-0.92 -0.22333,-1.64 -0.67,-2.16 -0.44667,-0.52 -1.07,-0.78 -1.87,-0.78 z"
       id="path8"
       inkscape:connector-curvature="0"
       style="fill:#ffffff;fill-rule:nonzero" />
    <path
       d="m 573.47,293.46 -1.9,-0.6 5.14,-16.08 1.9,0.6 z m 11.68,-11.48 c 0.84,0 1.59,0.21333 2.25,0.64 0.66,0.42667 1.17333,1.03 1.54,1.81 0.36667,0.78 0.55,1.67666 0.55,2.69 0,1.01334 -0.18333,1.9 -0.55,2.66 -0.36667,0.76 -0.87666,1.34666 -1.53,1.76 -0.65334,0.41333 -1.40666,0.62 -2.26,0.62 -0.69334,0 -1.31333,-0.14667 -1.86,-0.44 -0.54667,-0.29334 -0.96667,-0.7 -1.26,-1.22 v 5.1 h -2.5 v -13.38 h 2.46 v 1.48 c 0.29333,-0.54667 0.71666,-0.97 1.27,-1.27 0.55334,-0.3 1.18333,-0.45 1.89,-0.45 z m -0.66,8.24 c 0.78667,0 1.4,-0.27 1.84,-0.81 0.44,-0.54 0.66,-1.30333 0.66,-2.29 0,-1.01334 -0.22,-1.8 -0.66,-2.36 -0.44,-0.56 -1.05333,-0.84 -1.84,-0.84 -0.8,0 -1.41666,0.27333 -1.85,0.82 -0.43334,0.54667 -0.65,1.32666 -0.65,2.34 0,1 0.21666,1.77333 0.65,2.32 0.43334,0.54667 1.05,0.82 1.85,0.82 z m 12.74,-8.24 c 1.17334,0 2.04666,0.33333 2.62,1 0.57334,0.66667 0.86,1.67333 0.86,3.02 v 6 h -2.5 v -5.86 c 0,-0.76 -0.14333,-1.31333 -0.43,-1.66 -0.28667,-0.34667 -0.73666,-0.52 -1.35,-0.52 -0.72,0 -1.29666,0.22666 -1.73,0.68 -0.43334,0.45334 -0.65,1.06 -0.65,1.82 V 292 h -2.5 v -14.1 h 2.5 v 5.68 c 0.33334,-0.52 0.77666,-0.91667 1.33,-1.19 0.55334,-0.27334 1.17,-0.41 1.85,-0.41 z m 10.48,10.18 c -1,0 -1.87666,-0.20667 -2.63,-0.62 -0.75334,-0.41334 -1.33667,-1.00666 -1.75,-1.78 -0.41333,-0.77334 -0.62,-1.67333 -0.62,-2.7 0,-1.02667 0.20667,-1.92333 0.62,-2.69 0.41333,-0.76667 0.99666,-1.35667 1.75,-1.77 0.75334,-0.41333 1.63,-0.62 2.63,-0.62 1,0 1.87666,0.20666 2.63,0.62 0.75334,0.41334 1.33333,1.00333 1.74,1.77 0.40667,0.76667 0.61,1.66333 0.61,2.69 0,1.02667 -0.20333,1.92666 -0.61,2.7 -0.40667,0.77334 -0.98666,1.36666 -1.74,1.78 -0.75334,0.41333 -1.63,0.62 -2.63,0.62 z m -0.02,-1.94 c 0.81334,0 1.43333,-0.26666 1.86,-0.8 0.42667,-0.53334 0.64,-1.32 0.64,-2.36 0,-1.02667 -0.21333,-1.81 -0.64,-2.35 -0.42667,-0.54 -1.04,-0.81 -1.84,-0.81 -0.8,0 -1.41666,0.27 -1.85,0.81 -0.43334,0.54 -0.65,1.32333 -0.65,2.35 0,1.04 0.21333,1.82666 0.64,2.36 0.42667,0.53334 1.04,0.8 1.84,0.8 z m 12.06,0.06 c 0.29333,0 0.6,-0.02 0.92,-0.06 l -0.12,1.86 c -0.4,0.04 -0.76667,0.06 -1.1,0.06 -1.37334,0 -2.38666,-0.31666 -3.04,-0.95 -0.65334,-0.63334 -0.98,-1.57666 -0.98,-2.83 v -4.26 h -1.88 v -1.88 h 1.88 v -2.92 h 2.5 v 2.92 h 2.58 v 1.88 h -2.58 v 4.22 c 0,1.30667 0.60666,1.96 1.82,1.96 z m 6.84,1.88 c -1,0 -1.87666,-0.20667 -2.63,-0.62 -0.75334,-0.41334 -1.33667,-1.00666 -1.75,-1.78 -0.41333,-0.77334 -0.62,-1.67333 -0.62,-2.7 0,-1.02667 0.20667,-1.92333 0.62,-2.69 0.41333,-0.76667 0.99666,-1.35667 1.75,-1.77 0.75334,-0.41333 1.63,-0.62 2.63,-0.62 1,0 1.87666,0.20666 2.63,0.62 0.75334,0.41334 1.33333,1.00333 1.74,1.77 0.40667,0.76667 0.61,1.66333 0.61,2.69 0,1.02667 -0.20333,1.92666 -0.61,2.7 -0.40667,0.77334 -0.98666,1.36666 -1.74,1.78 -0.75334,0.41333 -1.63,0.62 -2.63,0.62 z m -0.02,-1.94 c 0.81334,0 1.43333,-0.26666 1.86,-0.8 0.42667,-0.53334 0.64,-1.32 0.64,-2.36 0,-1.02667 -0.21333,-1.81 -0.64,-2.35 -0.42667,-0.54 -1.04,-0.81 -1.84,-0.81 -0.8,0 -1.41666,0.27 -1.85,0.81 -0.43334,0.54 -0.65,1.32333 -0.65,2.35 0,1.04 0.21333,1.82666 0.64,2.36 0.42667,0.53334 1.04,0.8 1.84,0.8 z m 10.66,1.94 c -0.86667,0 -1.66333,-0.10667 -2.39,-0.32 -0.72667,-0.21333 -1.34333,-0.52 -1.85,-0.92 l 0.7,-1.74 c 1.04,0.76 2.23333,1.14 3.58,1.14 0.57334,0 1.01,-0.0933 1.31,-0.28 0.3,-0.18667 0.45,-0.45333 0.45,-0.8 0,-0.29334 -0.10333,-0.52 -0.31,-0.68 -0.20667,-0.16 -0.57666,-0.30667 -1.11,-0.44 l -1.6,-0.36 c -0.90667,-0.2 -1.58,-0.52666 -2.02,-0.98 -0.44,-0.45334 -0.66,-1.04 -0.66,-1.76 0,-0.6 0.17,-1.13 0.51,-1.59 0.34,-0.46 0.81333,-0.81667 1.42,-1.07 0.60667,-0.25334 1.31,-0.38 2.11,-0.38 0.69334,0 1.36333,0.10667 2.01,0.32 0.64667,0.21333 1.21666,0.51333 1.71,0.9 l -0.7,1.7 c -1.01334,-0.73334 -2.02666,-1.1 -3.04,-1.1 -0.54667,0 -0.97333,0.1 -1.28,0.3 -0.30667,0.2 -0.46,0.48 -0.46,0.84 0,0.26667 0.0967,0.48667 0.29,0.66 0.19333,0.17333 0.50333,0.30667 0.93,0.4 l 1.66,0.38 c 0.97334,0.21333 1.68666,0.55 2.14,1.01 0.45334,0.46 0.68,1.06333 0.68,1.81 0,0.90667 -0.36666,1.62666 -1.1,2.16 -0.73334,0.53334 -1.72666,0.8 -2.98,0.8 z"
       id="path10"
       inkscape:connector-curvature="0"
       style="fill:#ffffff;fill-rule:nonzero" />
    <circle
       cx="808.5"
       cy="506.5"
       r="5.5"
       id="circle12"
       style="fill:#4c7ef3;fill-rule:nonzero" />
    <circle
       cx="290.5"
       cy="506.5"
       r="5.5"
       id="circle14"
       style="fill:#4c7ef3;fill-rule:nonzero" />
    <path
       d="m 941.14,723.98 c 0.85334,0 1.60666,0.20667 2.26,0.62 0.65334,0.41333 1.16333,1 1.53,1.76 0.36667,0.76 0.55,1.64666 0.55,2.66 0,1.01334 -0.18333,1.91 -0.55,2.69 -0.36667,0.78 -0.88,1.38333 -1.54,1.81 -0.66,0.42667 -1.41,0.64 -2.25,0.64 -0.70667,0 -1.33666,-0.15333 -1.89,-0.46 -0.55334,-0.30667 -0.97667,-0.73333 -1.27,-1.28 V 734 h -2.46 v -14.1 h 2.5 v 5.74 c 0.29333,-0.53334 0.71333,-0.94333 1.26,-1.23 0.54667,-0.28667 1.16666,-0.43 1.86,-0.43 z m -0.66,8.24 c 0.78667,0 1.4,-0.28 1.84,-0.84 0.44,-0.56 0.66,-1.34666 0.66,-2.36 0,-1.00001 -0.21666,-1.76666 -0.65,-2.3 -0.43334,-0.53334 -1.05,-0.8 -1.85,-0.8 -0.8,0 -1.41666,0.27 -1.85,0.81 -0.43334,0.54 -0.65,1.31666 -0.65,2.33 0,1.01334 0.21666,1.79333 0.65,2.34 0.43334,0.54667 1.05,0.82 1.85,0.82 z m 13.5,-6.16 -1.46,0.14 c -1.65334,0.17333 -2.48,1.01333 -2.48,2.52 V 734 h -2.5 v -9.78 h 2.38 v 1.72 c 0.47852,-1.10815 1.4387,-1.74058 2.88055,-1.89728 L 953.82,723.96 Z m 1.22,7.94 v -9.78 h 2.5 V 734 Z m -0.14,-14.32 h 2.76 v 2.46 h -2.76 z m 14.66,0.22 V 734 h -2.48 v -1.58 c -0.29333,0.54667 -0.71666,0.97333 -1.27,1.28 -0.55334,0.30667 -1.18333,0.46 -1.89,0.46 -0.84,0 -1.59,-0.21333 -2.25,-0.64 -0.66,-0.42667 -1.17333,-1.03 -1.54,-1.81 -0.36667,-0.78 -0.55,-1.67666 -0.55,-2.69 0,-1.01334 0.18333,-1.9 0.55,-2.66 0.36667,-0.76 0.87666,-1.34666 1.53,-1.76 0.65334,-0.41333 1.40666,-0.62 2.26,-0.62 0.70667,0 1.33333,0.14667 1.88,0.44 0.54667,0.29334 0.96667,0.70666 1.26,1.24 v -5.76 z m -4.98,12.32 c 0.8,0 1.41666,-0.27333 1.85,-0.82 0.43334,-0.54667 0.65,-1.32666 0.65,-2.34 0,-1.01334 -0.21666,-1.79 -0.65,-2.33 -0.43334,-0.54 -1.04333,-0.81 -1.83,-0.81 -0.8,0 -1.42,0.26666 -1.86,0.8 -0.44,0.53334 -0.66,1.29999 -0.66,2.3 0,1.01334 0.22,1.8 0.66,2.36 0.44,0.56 1.05333,0.84 1.84,0.84 z m 16.14,-2.66 h -6.66 c 0.08,0.90667 0.35333,1.58 0.82,2.02 0.46667,0.44 1.13333,0.66 2,0.66 1.08001,0 2.06666,-0.34666 2.96,-1.04 l 0.72,1.72 c -0.45334,0.37334 -1.02333,0.67333 -1.71,0.9 -0.68667,0.22667 -1.37666,0.34 -2.07,0.34 -1.60001,0 -2.86333,-0.45333 -3.79,-1.36 -0.92667,-0.90667 -1.39,-2.14666 -1.39,-3.72 0,-1 0.2,-1.88666 0.6,-2.66 0.4,-0.77334 0.96333,-1.37333 1.69,-1.8 0.72667,-0.42667 1.55,-0.64 2.47,-0.64 1.34667,0 2.41,0.43333 3.19,1.3 0.78,0.86667 1.17,2.05999 1.17,3.58 z m -4.3,-3.82 c -0.66667,0 -1.20333,0.21333 -1.61,0.64 -0.40667,0.42667 -0.65667,1.04 -0.75,1.84 h 4.52 c -0.0267,-0.81334 -0.22667,-1.43 -0.6,-1.85 -0.37334,-0.42 -0.89333,-0.63 -1.56,-0.63 z m 6.12,5.5 h 2.8 V 734 h -2.8 z m 7.68,2.32 c 0,1.37334 -0.32,2.37333 -0.96,3 -0.64,0.62667 -1.70666,0.98667 -3.2,1.08 l -0.94,0.06 -0.18,-1.82 0.98,-0.08 c 0.61334,-0.04 1.06666,-0.20333 1.36,-0.49 0.29333,-0.28667 0.44,-0.72333 0.44,-1.31 v -9.78 h 2.5 z m -2.66,-13.88 h 2.76 v 2.46 h -2.76 z m 10.86,4.3 c 0.84,0 1.59,0.21333 2.25,0.64 0.66,0.42667 1.1733,1.03 1.54,1.81 0.3667,0.78 0.55,1.67666 0.55,2.69 0,1.01334 -0.1833,1.9 -0.55,2.66 -0.3667,0.76 -0.8767,1.34667 -1.53,1.76 -0.6533,0.41334 -1.40666,0.62 -2.26,0.62 -0.69334,0 -1.31333,-0.14666 -1.86,-0.44 -0.54667,-0.29334 -0.96667,-0.7 -1.26,-1.22 v 5.1 h -2.5 v -13.38 h 2.46 v 1.48 c 0.29334,-0.54667 0.71666,-0.97 1.27,-1.27 0.55334,-0.3 1.18333,-0.45 1.89,-0.45 z m -0.66,8.24 c 0.78667,0 1.4,-0.27 1.84,-0.81 0.44,-0.54 0.66,-1.30333 0.66,-2.29 0,-1.01334 -0.22,-1.8 -0.66,-2.36 -0.44,-0.56 -1.05333,-0.84 -1.84,-0.84 -0.8,0 -1.41666,0.27333 -1.85,0.82 -0.43334,0.54667 -0.65,1.32666 -0.65,2.34 0,1.00001 0.21667,1.77333 0.65,2.32 0.43334,0.54667 1.05,0.82 1.85,0.82 z"
       id="path16"
       inkscape:connector-curvature="0"
       style="fill:#ffffff;fill-rule:nonzero" />
    <path
       d="m 1008.82,723.98 c 0.72,0 1.36,0.15 1.92,0.45 0.56,0.3 0.9867,0.72333 1.28,1.27 v -1.48 h 2.48 v 8.88 c 0,1.53334 -0.4233,2.69333 -1.27,3.48 -0.8467,0.78667 -2.0967,1.18 -3.75,1.18 -0.8533,0 -1.6733,-0.11 -2.46,-0.33 -0.7867,-0.22 -1.4733,-0.53 -2.06,-0.93 l 0.7,-1.76 c 1.2133,0.73334 2.4667,1.1 3.76,1.1 1.7333,0 2.6,-0.85333 2.6,-2.56 V 732 c -0.2933,0.54667 -0.72,0.97 -1.28,1.27 -0.56,0.3 -1.2,0.45 -1.92,0.45 -0.8533,0 -1.61,-0.20333 -2.27,-0.61 -0.66,-0.40667 -1.1767,-0.97666 -1.55,-1.71 -0.3733,-0.73334 -0.56,-1.57999 -0.56,-2.54 0,-0.96 0.1833,-1.81 0.55,-2.55 0.3667,-0.74 0.8833,-1.31333 1.55,-1.72 0.6667,-0.40667 1.4267,-0.61 2.28,-0.61 z m 0.66,1.94 c -0.7867,0 -1.4067,0.26 -1.86,0.78 -0.4533,0.52 -0.68,1.24 -0.68,2.16 0,0.89334 0.2267,1.60333 0.68,2.13 0.4533,0.52667 1.0733,0.79 1.86,0.79 0.8,0 1.4233,-0.26 1.87,-0.78 0.4467,-0.52 0.67,-1.23333 0.67,-2.14 0,-0.92 -0.2233,-1.64 -0.67,-2.16 -0.4467,-0.52 -1.07,-0.78 -1.87,-0.78 z"
       id="path18"
       inkscape:connector-curvature="0"
       style="fill:#ffffff;fill-rule:nonzero" />
    <circle
       cx="552"
       cy="286.5"
       r="5.5"
       id="circle20"
       style="fill:#4c7ef3;fill-rule:nonzero" />
    <circle
       cx="660.5"
       cy="286.5"
       r="5.5"
       id="circle22"
       style="fill:#4c7ef3;fill-rule:nonzero" />
    <circle
       cx="1028.5"
       cy="727.5"
       r="5.5"
       id="circle24"
       style="fill:#4c7ef3;fill-rule:nonzero" />
    <path
       d="m 583.132,491.144 c -0.864,0 -1.67466,-0.11733 -2.432,-0.352 -0.75734,-0.23467 -1.39733,-0.56533 -1.92,-0.992 l 0.688,-1.504 c 0.544,0.416 1.11733,0.72 1.72,0.912 0.60267,0.192 1.256,0.288 1.96,0.288 0.77867,0 1.37866,-0.136 1.8,-0.408 0.42133,-0.272 0.632,-0.65333 0.632,-1.144 0,-0.42667 -0.19467,-0.752 -0.584,-0.976 -0.3504,-0.2016 -0.91032,-0.39456 -1.67976,-0.57888 L 583.052,486.328 c -0.93867,-0.20267 -1.70133,-0.43733 -2.288,-0.704 -0.58667,-0.26667 -1.02933,-0.608 -1.328,-1.024 -0.29867,-0.416 -0.448,-0.944 -0.448,-1.584 0,-0.66134 0.18133,-1.25333 0.544,-1.776 0.36267,-0.52267 0.87466,-0.93067 1.536,-1.224 0.66134,-0.29334 1.424,-0.44 2.288,-0.44 0.78934,0 1.54133,0.12 2.256,0.36 0.71467,0.24 1.30133,0.568 1.76,0.984 l -0.688,1.504 c -1.00267,-0.8 -2.11199,-1.2 -3.328,-1.2 -0.72534,0 -1.29867,0.14666 -1.72,0.44 -0.42134,0.29333 -0.632,0.70133 -0.632,1.224 0,0.43734 0.18666,0.77333 0.56,1.008 0.336,0.2112 0.88368,0.40944 1.64304,0.59472 l 0.26096,0.0613 c 0.94934,0.21333 1.72,0.45066 2.312,0.712 0.592,0.26133 1.04533,0.59466 1.36,1 0.31467,0.40533 0.472,0.91733 0.472,1.536 0,0.672 -0.17867,1.26133 -0.536,1.768 -0.35733,0.50667 -0.87466,0.896 -1.552,1.168 -0.67734,0.272 -1.47466,0.408 -2.392,0.408 z M 589.34,491 v -7.824 h 2 V 491 Z m -0.112,-11.456 h 2.208 v 1.968 h -2.208 z m 8.672,3.44 c 0.68267,0 1.28533,0.16533 1.808,0.496 0.52267,0.33067 0.93066,0.8 1.224,1.408 0.29334,0.608 0.44,1.31733 0.44,2.128 0,0.81067 -0.14666,1.528 -0.44,2.152 -0.29334,0.624 -0.704,1.10666 -1.232,1.448 -0.528,0.34133 -1.128,0.512 -1.8,0.512 -0.56534,0 -1.06933,-0.12267 -1.512,-0.368 -0.44267,-0.24534 -0.78133,-0.58666 -1.016,-1.024 V 491 h -1.968 v -11.28 h 2 v 4.592 c 0.23467,-0.42667 0.57066,-0.75467 1.008,-0.984 0.43734,-0.22933 0.93333,-0.344 1.488,-0.344 z m -0.528,6.592 c 0.62934,0 1.12,-0.224 1.472,-0.672 0.352,-0.448 0.528,-1.07733 0.528,-1.888 0,-0.8 -0.17333,-1.41333 -0.52,-1.84 -0.34667,-0.42667 -0.84,-0.64 -1.48,-0.64 -0.64,0 -1.13333,0.216 -1.48,0.648 -0.34667,0.432 -0.52,1.05333 -0.52,1.864 0,0.81067 0.17333,1.43466 0.52,1.872 0.34667,0.43734 0.84,0.656 1.48,0.656 z M 603.02,491 v -11.28 h 2 V 491 Z m 4.064,0 v -7.824 h 2 V 491 Z m -0.112,-11.456 h 2.208 v 1.968 h -2.208 z m 8.72,3.44 c 0.93867,0 1.63733,0.26666 2.096,0.8 0.45867,0.53334 0.688,1.33866 0.688,2.416 v 4.8 h -2 v -4.688 c 0,-0.608 -0.11467,-1.05067 -0.344,-1.328 -0.22933,-0.27734 -0.58933,-0.416 -1.08,-0.416 -0.576,0 -1.03733,0.18133 -1.384,0.544 -0.34667,0.36267 -0.52,0.848 -0.52,1.456 V 491 h -2 v -7.824 h 1.952 v 1.168 c 0.26667,-0.43734 0.624,-0.77333 1.072,-1.008 0.448,-0.23467 0.95466,-0.352 1.52,-0.352 z m 12.432,0.192 v 7.104 c 0,1.22667 -0.33866,2.15466 -1.016,2.784 -0.67734,0.62934 -1.67733,0.944 -3,0.944 -0.68267,0 -1.33866,-0.088 -1.968,-0.264 -0.62934,-0.176 -1.17866,-0.424 -1.648,-0.744 l 0.56,-1.408 c 0.97067,0.58667 1.97333,0.88 3.008,0.88 1.38667,0 2.08,-0.68266 2.08,-2.048 V 489.4 c -0.23467,0.43734 -0.576,0.776 -1.024,1.016 -0.448,0.24 -0.96,0.36 -1.536,0.36 -0.68267,0 -1.288,-0.16267 -1.816,-0.488 -0.528,-0.32534 -0.94133,-0.78133 -1.24,-1.368 -0.29867,-0.58667 -0.448,-1.264 -0.448,-2.032 0,-0.768 0.14667,-1.448 0.44,-2.04 0.29334,-0.592 0.70666,-1.05067 1.24,-1.376 0.53334,-0.32534 1.14133,-0.488 1.824,-0.488 0.576,0 1.088,0.12 1.536,0.36 0.448,0.24 0.78933,0.57866 1.024,1.016 v -1.184 z m -4.016,6.048 c 0.64,0 1.13866,-0.208 1.496,-0.624 0.35734,-0.416 0.536,-0.98666 0.536,-1.712 0,-0.736 -0.17867,-1.312 -0.536,-1.728 -0.35733,-0.416 -0.856,-0.624 -1.496,-0.624 -0.62934,0 -1.12533,0.208 -1.488,0.624 -0.36267,0.416 -0.544,0.992 -0.544,1.728 0,0.71467 0.18133,1.28266 0.544,1.704 0.36267,0.42133 0.85866,0.632 1.488,0.632 z m 8.96,1.904 c -0.69334,0 -1.33066,-0.0853 -1.912,-0.256 -0.58134,-0.17067 -1.07466,-0.416 -1.48,-0.736 l 0.56,-1.392 c 0.832,0.608 1.78666,0.912 2.864,0.912 0.45867,0 0.808,-0.0747 1.048,-0.224 0.24,-0.14933 0.36,-0.36267 0.36,-0.64 0,-0.23467 -0.0827,-0.416 -0.248,-0.544 -0.16533,-0.128 -0.46133,-0.24533 -0.888,-0.352 l -1.28,-0.288 c -0.72534,-0.16 -1.264,-0.42133 -1.616,-0.784 -0.352,-0.36267 -0.528,-0.832 -0.528,-1.408 0,-0.48 0.136,-0.904 0.408,-1.272 0.272,-0.368 0.65066,-0.65333 1.136,-0.856 0.48534,-0.20267 1.048,-0.304 1.688,-0.304 0.55467,0 1.09066,0.0853 1.608,0.256 0.51734,0.17067 0.97333,0.41066 1.368,0.72 l -0.56,1.36 c -0.81067,-0.58667 -1.62133,-0.88 -2.432,-0.88 -0.43734,0 -0.77867,0.08 -1.024,0.24 -0.24533,0.16 -0.368,0.384 -0.368,0.672 0,0.21333 0.0773,0.38933 0.232,0.528 0.15467,0.13867 0.40266,0.24533 0.744,0.32 l 1.328,0.304 c 0.77867,0.17067 1.34933,0.44 1.712,0.808 0.36267,0.368 0.544,0.85066 0.544,1.448 0,0.72534 -0.29333,1.30133 -0.88,1.728 -0.58667,0.42667 -1.38133,0.64 -2.384,0.64 z"
       id="path26"
       inkscape:connector-curvature="0"
       style="fill:#4c7ef3;fill-rule:nonzero" />
    <path
       d="m 104.86,512.144 c -1.10934,0 -2.07733,-0.23733 -2.904,-0.712 -0.82667,-0.47467 -1.46133,-1.14933 -1.904,-2.024 -0.442669,-0.87467 -0.664,-1.89333 -0.664,-3.056 0,-1.16267 0.221331,-2.17866 0.664,-3.048 0.44267,-0.86934 1.07733,-1.54133 1.904,-2.016 0.82667,-0.47467 1.79466,-0.712 2.904,-0.712 0.75734,0 1.472,0.11733 2.144,0.352 0.672,0.23467 1.23733,0.56533 1.696,0.992 l -0.688,1.504 c -0.512,-0.40533 -1.01866,-0.70133 -1.52,-0.888 -0.50134,-0.18667 -1.03466,-0.28 -1.6,-0.28 -1.088,0 -1.928,0.352 -2.52,1.056 -0.592,0.704 -0.888,1.71733 -0.888,3.04 0,1.33334 0.296,2.352 0.888,3.056 0.592,0.704 1.432,1.056 2.52,1.056 0.56534,0 1.09866,-0.0933 1.6,-0.28 0.50134,-0.18667 1.008,-0.48266 1.52,-0.888 l 0.688,1.504 c -0.45867,0.42667 -1.024,0.75733 -1.696,0.992 -0.672,0.23467 -1.38666,0.352 -2.144,0.352 z m 10.096,-8.16 c 0.93867,0 1.63733,0.26666 2.096,0.8 0.45867,0.53334 0.688,1.33866 0.688,2.416 v 4.8 h -2 v -4.688 c 0,-0.608 -0.11467,-1.05066 -0.344,-1.328 -0.22933,-0.27733 -0.58933,-0.416 -1.08,-0.416 -0.576,0 -1.03733,0.18133 -1.384,0.544 -0.34667,0.36267 -0.52,0.848 -0.52,1.456 V 512 h -2 v -11.28 h 2 v 4.544 c 0.26667,-0.416 0.62133,-0.73333 1.064,-0.952 0.44267,-0.21867 0.936,-0.328 1.48,-0.328 z m 4.816,8.016 v -7.824 h 2 V 512 Z m -0.112,-11.456 h 2.208 v 1.968 H 119.66 Z M 123.836,512 v -11.28 h 2 V 512 Z"
       id="path28"
       inkscape:connector-curvature="0"
       style="fill:#4c7ef3;fill-rule:nonzero" />
    <path
       d="M 135.452,500.72 V 512 h -1.984 v -1.264 c -0.23467,0.43734 -0.57333,0.77866 -1.016,1.024 -0.44267,0.24534 -0.94666,0.368 -1.512,0.368 -0.672,0 -1.272,-0.17066 -1.8,-0.512 -0.528,-0.34133 -0.93867,-0.824 -1.232,-1.448 -0.29334,-0.624 -0.44,-1.34133 -0.44,-2.152 0,-0.81067 0.14666,-1.52 0.44,-2.128 0.29333,-0.608 0.70133,-1.07733 1.224,-1.408 0.52267,-0.33067 1.12533,-0.496 1.808,-0.496 0.56534,0 1.06666,0.11733 1.504,0.352 0.43734,0.23467 0.77333,0.56533 1.008,0.992 v -4.608 z m -3.968,4.816 c -0.64,0 -1.136,0.21333 -1.488,0.64 -0.352,0.42667 -0.528,1.04 -0.528,1.84 0,0.81067 0.176,1.44 0.528,1.888 0.352,0.448 0.84266,0.672 1.472,0.672 0.64,0 1.13333,-0.21866 1.48,-0.656 0.34667,-0.43734 0.52,-1.06133 0.52,-1.872 0,-0.81067 -0.17333,-1.432 -0.52,-1.864 -0.34667,-0.432 -0.83466,-0.648 -1.464,-0.648 z"
       id="path30"
       inkscape:connector-curvature="0"
       style="fill:#4c7ef3;fill-rule:nonzero" />
    <path
       d="m 349.672,280.72 h 4.928 c 1.20534,0 2.144,0.30133 2.816,0.904 0.672,0.60267 1.008,1.448 1.008,2.536 0,1.08801 -0.336,1.936 -1.008,2.544 -0.672,0.608 -1.61066,0.912 -2.816,0.912 h -2.864 V 292 h -2.064 z m 4.672,5.312 c 1.41867,0 2.128,-0.61866 2.128,-1.856 0,-0.62934 -0.176,-1.096 -0.528,-1.4 -0.352,-0.304 -0.88533,-0.456 -1.6,-0.456 h -2.608 v 3.712 z m 9.072,-2.048 c 1.09867,0 1.91466,0.26666 2.448,0.8 0.53334,0.53334 0.8,1.35466 0.8,2.464 V 292 h -1.904 v -1.2 c -0.18133,0.416 -0.46666,0.74133 -0.856,0.976 -0.38933,0.23467 -0.84,0.352 -1.352,0.352 -0.52267,0 -0.99733,-0.10667 -1.424,-0.32 -0.42667,-0.21333 -0.76266,-0.50666 -1.008,-0.88 -0.24533,-0.37333 -0.368,-0.78933 -0.368,-1.248 0,-0.576 0.14667,-1.02933 0.44,-1.36 0.29334,-0.33067 0.77066,-0.57067 1.432,-0.72 0.5952,-0.1344 1.39344,-0.20832 2.39472,-0.22176 l 0.74128,-0.002 v -0.368 c 0,-0.53334 -0.11467,-0.91733 -0.344,-1.152 -0.22933,-0.23467 -0.61066,-0.352 -1.144,-0.352 -0.416,0 -0.85066,0.072 -1.304,0.216 -0.45334,0.144 -0.89866,0.344 -1.336,0.6 l -0.56,-1.376 c 0.43734,-0.27733 0.96533,-0.50667 1.584,-0.688 0.61867,-0.18133 1.20533,-0.272 1.76,-0.272 z m -0.464,6.704 c 0.53334,0 0.968,-0.17866 1.304,-0.536 0.336,-0.35733 0.504,-0.81866 0.504,-1.384 v -0.336 h -0.288 c -0.71467,0 -1.26933,0.032 -1.664,0.096 -0.39467,0.064 -0.67733,0.176 -0.848,0.336 -0.17067,0.16 -0.256,0.37867 -0.256,0.656 0,0.34134 0.11733,0.62133 0.352,0.84 0.23467,0.21867 0.53333,0.328 0.896,0.328 z m 10.896,-5.04 -1.168,0.112 c -1.32267,0.13867 -1.984,0.81066 -1.984,2.016 V 292 h -2 v -7.824 h 1.904 v 1.376 c 0.40534,-0.93867 1.24266,-1.45067 2.512,-1.536 l 0.608,-0.048 z m 7.84,2.8 h -5.328 c 0.064,0.72534 0.28267,1.264 0.656,1.616 0.37334,0.352 0.90666,0.528 1.6,0.528 0.864,0 1.65333,-0.27733 2.368,-0.832 l 0.576,1.376 c -0.36267,0.29867 -0.81866,0.53867 -1.368,0.72 -0.54934,0.18133 -1.10133,0.272 -1.656,0.272 -1.28001,0 -2.29066,-0.36266 -3.032,-1.088 -0.74134,-0.72534 -1.112,-1.71733 -1.112,-2.976 0,-0.8 0.16,-1.50933 0.48,-2.128 0.32,-0.61867 0.77066,-1.09866 1.352,-1.44 0.58134,-0.34133 1.24,-0.512 1.976,-0.512 1.07734,0 1.928,0.34666 2.552,1.04 0.624,0.69334 0.936,1.64799 0.936,2.864 z m -3.44,-3.056 c -0.53334,0 -0.96266,0.17067 -1.288,0.512 -0.32533,0.34134 -0.52533,0.832 -0.6,1.472 h 3.616 c -0.0213,-0.65067 -0.18133,-1.144 -0.48,-1.48 -0.29867,-0.336 -0.71466,-0.504 -1.248,-0.504 z m 9.616,-1.408 c 0.93867,0 1.63733,0.26666 2.096,0.8 0.45867,0.53334 0.688,1.33866 0.688,2.416 v 4.8 h -2 v -4.688 c 0,-0.608 -0.11467,-1.05066 -0.344,-1.328 -0.22933,-0.27733 -0.58933,-0.416 -1.08,-0.416 -0.576,0 -1.03733,0.18133 -1.384,0.544 -0.34667,0.36267 -0.52,0.848 -0.52,1.456 V 292 h -2 v -7.824 h 1.952 v 1.168 c 0.26667,-0.43734 0.624,-0.77333 1.072,-1.008 0.448,-0.23467 0.95466,-0.352 1.52,-0.352 z m 8.816,6.64 c 0.23467,0 0.48,-0.016 0.736,-0.048 l -0.096,1.488 c -0.32,0.032 -0.61333,0.048 -0.88,0.048 -1.09867,0 -1.90933,-0.25333 -2.432,-0.76 -0.52267,-0.50667 -0.784,-1.26133 -0.784,-2.264 v -3.408 h -1.504 v -1.504 h 1.504 v -2.336 h 2 v 2.336 h 2.064 v 1.504 h -2.064 v 3.376 c 0,1.04534 0.48533,1.568 1.456,1.568 z"
       id="path32"
       inkscape:connector-curvature="0"
       style="fill:#4c7ef3;fill-rule:nonzero" />
    <path
       d="m 823.672,292 h -2.24 l -1.936,-3.6 c -0.18133,-0.34134 -0.40533,-0.58133 -0.672,-0.72 -0.26667,-0.13867 -0.60267,-0.208 -1.008,-0.208 h -1.568 V 292 h -2.032 v -11.28 h 4.992 c 1.28001,0 2.25333,0.28533 2.92,0.856 0.66667,0.57067 1,1.39466 1,2.472 0,0.864 -0.24266,1.576 -0.728,2.136 -0.48534,0.56 -1.17066,0.92533 -2.056,1.096 0.59734,0.16 1.07733,0.58133 1.44,1.264 z m -4.752,-6.112 c 0.77867,0 1.34933,-0.14667 1.712,-0.44 0.36267,-0.29334 0.544,-0.744 0.544,-1.352 0,-0.61867 -0.18133,-1.06933 -0.544,-1.352 -0.36267,-0.28267 -0.93333,-0.424 -1.712,-0.424 h -2.688 v 3.568 z m 9.808,6.24 c -0.8,0 -1.50133,-0.16533 -2.104,-0.496 -0.60267,-0.33067 -1.06933,-0.80533 -1.4,-1.424 -0.33067,-0.61867 -0.496,-1.33866 -0.496,-2.16 0,-0.82134 0.16533,-1.53866 0.496,-2.152 0.33067,-0.61334 0.79733,-1.08533 1.4,-1.416 0.60267,-0.33067 1.304,-0.496 2.104,-0.496 0.8,0 1.50133,0.16533 2.104,0.496 0.60267,0.33067 1.06667,0.80266 1.392,1.416 0.32534,0.61334 0.488,1.33066 0.488,2.152 0,0.82134 -0.16266,1.54133 -0.488,2.16 -0.32533,0.61867 -0.78933,1.09333 -1.392,1.424 -0.60267,0.33067 -1.304,0.496 -2.104,0.496 z m -0.016,-1.552 c 0.65067,0 1.14667,-0.21333 1.488,-0.64 0.34134,-0.42667 0.512,-1.056 0.512,-1.888 0,-0.82134 -0.17066,-1.448 -0.512,-1.88 -0.34133,-0.432 -0.832,-0.648 -1.472,-0.648 -0.64,0 -1.13333,0.216 -1.48,0.648 -0.34667,0.432 -0.52,1.05866 -0.52,1.88 0,0.832 0.17067,1.46133 0.512,1.888 0.34134,0.42667 0.832,0.64 1.472,0.64 z m 9.216,1.552 c -0.8,0 -1.50133,-0.16533 -2.104,-0.496 -0.60267,-0.33067 -1.06933,-0.80533 -1.4,-1.424 -0.33067,-0.61867 -0.496,-1.33866 -0.496,-2.16 0,-0.82134 0.16533,-1.53866 0.496,-2.152 0.33067,-0.61334 0.79733,-1.08533 1.4,-1.416 0.60267,-0.33067 1.304,-0.496 2.104,-0.496 0.8,0 1.50133,0.16533 2.104,0.496 0.60267,0.33067 1.06667,0.80266 1.392,1.416 0.32534,0.61334 0.488,1.33066 0.488,2.152 0,0.82134 -0.16266,1.54133 -0.488,2.16 -0.32533,0.61867 -0.78933,1.09333 -1.392,1.424 -0.60267,0.33067 -1.304,0.496 -2.104,0.496 z m -0.016,-1.552 c 0.65067,0 1.14667,-0.21333 1.488,-0.64 0.34134,-0.42667 0.512,-1.056 0.512,-1.888 0,-0.82134 -0.17066,-1.448 -0.512,-1.88 -0.34133,-0.432 -0.832,-0.648 -1.472,-0.648 -0.64,0 -1.13333,0.216 -1.48,0.648 -0.34667,0.432 -0.52,1.05866 -0.52,1.88 0,0.832 0.17067,1.46133 0.512,1.888 0.34134,0.42667 0.832,0.64 1.472,0.64 z m 9.648,0.048 c 0.23467,0 0.48,-0.016 0.736,-0.048 l -0.096,1.488 c -0.32,0.032 -0.61333,0.048 -0.88,0.048 -1.09867,0 -1.90933,-0.25333 -2.432,-0.76 -0.52267,-0.50667 -0.784,-1.26133 -0.784,-2.264 V 285.68 H 842.6 v -1.504 h 1.504 v -2.336 h 2 v 2.336 h 2.064 v 1.504 h -2.064 v 3.376 c 0,1.04534 0.48533,1.568 1.456,1.568 z"
       id="path34"
       inkscape:connector-curvature="0"
       style="fill:#4c7ef3;fill-rule:nonzero" />
    <path
       d="M 462.684,111 V 94.228 h -6.44 V 91.26 h 16.492 v 2.968 h -6.44 V 111 Z m 21.224,-11.116 -2.044,0.196 c -2.31468,0.24267 -3.472,1.41866 -3.472,3.528 V 111 h -3.5 V 97.308 h 3.332 v 2.408 c 0.67978,-1.57423 2.05386,-2.462704 4.12227,-2.665444 L 483.684,96.944 Z m 13.72,4.9 h -9.324 c 0.112,1.26934 0.49466,2.212 1.148,2.828 0.65334,0.616 1.58666,0.924 2.8,0.924 1.51201,0 2.89333,-0.48533 4.144,-1.456 l 1.008,2.408 c -0.63467,0.52267 -1.43266,0.94267 -2.394,1.26 -0.96134,0.31734 -1.92733,0.476 -2.898,0.476 -2.24001,0 -4.00866,-0.63466 -5.306,-1.904 -1.29734,-1.26934 -1.946,-3.00532 -1.946,-5.208 0,-1.40001 0.28,-2.64133 0.84,-3.724 0.56,-1.082672 1.34866,-1.922664 2.366,-2.52 1.01734,-0.597336 2.16999,-0.896 3.458,-0.896 1.88534,0 3.37399,0.606661 4.466,1.82 1.092,1.21334 1.638,2.88399 1.638,5.012 z m -6.02,-5.348 c -0.93334,0 -1.68466,0.298664 -2.254,0.896 -0.56934,0.59734 -0.91933,1.45599 -1.05,2.576 h 6.328 c -0.0373,-1.13867 -0.31733,-2.002 -0.84,-2.59 -0.52267,-0.588003 -1.25066,-0.882 -2.184,-0.882 z m 20.888,5.348 h -9.324 c 0.112,1.26934 0.49466,2.212 1.148,2.828 0.65334,0.616 1.58666,0.924 2.8,0.924 1.51201,0 2.89333,-0.48533 4.144,-1.456 l 1.008,2.408 c -0.63467,0.52267 -1.43266,0.94267 -2.394,1.26 -0.96134,0.31734 -1.92733,0.476 -2.898,0.476 -2.24001,0 -4.00866,-0.63466 -5.306,-1.904 -1.29734,-1.26934 -1.946,-3.00532 -1.946,-5.208 0,-1.40001 0.28,-2.64133 0.84,-3.724 0.56,-1.082672 1.34866,-1.922664 2.366,-2.52 1.01734,-0.597336 2.16999,-0.896 3.458,-0.896 1.88534,0 3.374,0.606661 4.466,1.82 1.09201,1.21334 1.638,2.88399 1.638,5.012 z m -6.02,-5.348 c -0.93334,0 -1.68466,0.298664 -2.254,0.896 -0.56934,0.59734 -0.91933,1.45599 -1.05,2.576 h 6.328 c -0.0373,-1.13867 -0.31733,-2.002 -0.84,-2.59 -0.52267,-0.588003 -1.25066,-0.882 -2.184,-0.882 z M 536.52,91.26 h 3.388 V 111 h -2.716 L 526.608,97.224 V 111 h -3.36 V 91.26 h 2.688 l 10.584,13.748 z m 13.58,19.964 c -1.40001,0 -2.62733,-0.28933 -3.682,-0.868 -1.05467,-0.57867 -1.87133,-1.40933 -2.45,-2.492 -0.57867,-1.08267 -0.868,-2.34266 -0.868,-3.78 0,-1.43734 0.28933,-2.69266 0.868,-3.766 0.57867,-1.073339 1.39533,-1.89933 2.45,-2.478 1.05467,-0.57867 2.28199,-0.868 3.682,-0.868 1.40001,0 2.62733,0.28933 3.682,0.868 1.05467,0.57867 1.86666,1.404661 2.436,2.478 0.56934,1.07334 0.854,2.32866 0.854,3.766 0,1.43734 -0.28466,2.69733 -0.854,3.78 -0.56934,1.08267 -1.38133,1.91333 -2.436,2.492 -1.05467,0.57867 -2.28199,0.868 -3.682,0.868 z m -0.028,-2.716 c 1.13867,0 2.00666,-0.37333 2.604,-1.12 0.59734,-0.74667 0.896,-1.84799 0.896,-3.304 0,-1.43734 -0.29866,-2.534 -0.896,-3.29 -0.59734,-0.756 -1.45599,-1.134 -2.576,-1.134 -1.12001,0 -1.98333,0.378 -2.59,1.134 -0.60667,0.756 -0.91,1.85266 -0.91,3.29 0,1.45601 0.29866,2.55733 0.896,3.304 0.59734,0.74667 1.45599,1.12 2.576,1.12 z m 23.1,-17.248 V 111 H 569.7 v -2.212 c -0.41067,0.76534 -1.00333,1.36267 -1.778,1.792 -0.77467,0.42933 -1.65666,0.644 -2.646,0.644 -1.17601,0 -2.22599,-0.29866 -3.15,-0.896 -0.924,-0.59734 -1.64266,-1.442 -2.156,-2.534 -0.51334,-1.09201 -0.77,-2.34733 -0.77,-3.766 0,-1.41867 0.25666,-2.66 0.77,-3.724 0.51334,-1.064005 1.22733,-1.88533 2.142,-2.464 0.91467,-0.57867 1.96933,-0.868 3.164,-0.868 0.98934,0 1.86666,0.205331 2.632,0.616 0.76534,0.410669 1.35333,0.98933 1.764,1.736 V 91.26 Z m -6.972,17.248 c 1.12001,0 1.98333,-0.38266 2.59,-1.148 0.60667,-0.76534 0.91,-1.85733 0.91,-3.276 0,-1.41867 -0.30333,-2.506 -0.91,-3.262 -0.60667,-0.756 -1.46066,-1.134 -2.562,-1.134 -1.12001,0 -1.988,0.37333 -2.604,1.12 -0.616,0.74667 -0.924,1.81999 -0.924,3.22 0,1.41867 0.308,2.52 0.924,3.304 0.616,0.784 1.47466,1.176 2.576,1.176 z m 22.596,-3.724 h -9.324 c 0.112,1.26934 0.49466,2.212 1.148,2.828 0.65334,0.616 1.58666,0.924 2.8,0.924 1.51201,0 2.89333,-0.48533 4.144,-1.456 l 1.008,2.408 c -0.63467,0.52267 -1.43266,0.94267 -2.394,1.26 -0.96134,0.31734 -1.92733,0.476 -2.898,0.476 -2.24001,0 -4.00866,-0.63466 -5.306,-1.904 -1.29734,-1.26934 -1.946,-3.00532 -1.946,-5.208 0,-1.40001 0.28,-2.64133 0.84,-3.724 0.56,-1.082672 1.34866,-1.922664 2.366,-2.52 1.01734,-0.597336 2.16999,-0.896 3.458,-0.896 1.88534,0 3.374,0.606661 4.466,1.82 1.09201,1.21334 1.638,2.88399 1.638,5.012 z m -6.02,-5.348 c -0.93334,0 -1.68466,0.298664 -2.254,0.896 -0.56934,0.59734 -0.91933,1.45599 -1.05,2.576 h 6.328 c -0.0373,-1.13867 -0.31733,-2.002 -0.84,-2.59 -0.52267,-0.588003 -1.25066,-0.882 -2.184,-0.882 z M 604.196,111 V 94.228 h -6.44 V 91.26 h 16.492 v 2.968 h -6.44 V 111 Z m 24.22,-6.216 h -9.324 c 0.112,1.26934 0.49466,2.212 1.148,2.828 0.65334,0.616 1.58666,0.924 2.8,0.924 1.51201,0 2.89333,-0.48533 4.144,-1.456 l 1.008,2.408 c -0.63467,0.52267 -1.43266,0.94267 -2.394,1.26 -0.96134,0.31734 -1.92733,0.476 -2.898,0.476 -2.24001,0 -4.00866,-0.63466 -5.306,-1.904 -1.29734,-1.26934 -1.946,-3.00532 -1.946,-5.208 0,-1.40001 0.28,-2.64133 0.84,-3.724 0.56,-1.082672 1.34866,-1.922664 2.366,-2.52 1.01734,-0.597336 2.16999,-0.896 3.458,-0.896 1.88534,0 3.374,0.606661 4.466,1.82 1.09201,1.21334 1.638,2.88399 1.638,5.012 z m -6.02,-5.348 c -0.93334,0 -1.68466,0.298664 -2.254,0.896 -0.56934,0.59734 -0.91933,1.45599 -1.05,2.576 h 6.328 c -0.0373,-1.13867 -0.31733,-2.002 -0.84,-2.59 -0.52267,-0.588003 -1.25066,-0.882 -2.184,-0.882 z m 17.892,0.448 -2.044,0.196 c -2.31468,0.24267 -3.472,1.41866 -3.472,3.528 V 111 h -3.5 V 97.308 h 3.332 v 2.408 c 0.67978,-1.57423 2.05386,-2.462704 4.12227,-2.665444 L 640.064,96.944 Z m 17.976,-2.912 c 1.54934,0 2.70666,0.461995 3.472,1.386 0.76534,0.924005 1.148,2.33799 1.148,4.242 v 8.4 h -3.5 v -8.26 c 0,-1.04534 -0.17733,-1.806 -0.532,-2.282 -0.35467,-0.476002 -0.924,-0.714 -1.708,-0.714 -0.93334,0 -1.66133,0.31733 -2.184,0.952 -0.52267,0.63467 -0.784,1.52133 -0.784,2.66 V 111 h -3.5 v -8.26 c 0,-1.04534 -0.17266,-1.806 -0.518,-2.282 -0.34533,-0.476002 -0.91933,-0.714 -1.722,-0.714 -0.91467,0 -1.63333,0.31733 -2.156,0.952 -0.52267,0.63467 -0.784,1.52133 -0.784,2.66 V 111 h -3.5 V 97.308 h 3.416 v 1.932 c 0.41067,-0.74667 0.98,-1.311331 1.708,-1.694 0.728,-0.382669 1.55866,-0.574 2.492,-0.574 2.07201,0 3.444,0.858658 4.116,2.576 0.42934,-0.802671 1.04533,-1.432664 1.848,-1.89 0.80267,-0.457336 1.69866,-0.686 2.688,-0.686 z M 666.44,111 V 97.308 h 3.5 V 111 Z m -0.196,-20.048 h 3.864 v 3.444 h -3.864 z m 15.26,6.02 c 1.64268,0 2.86533,0.466662 3.668,1.4 0.80267,0.933338 1.204,2.34266 1.204,4.228 v 8.4 h -3.5 v -8.204 c 0,-1.06401 -0.20066,-1.83866 -0.602,-2.324 -0.40133,-0.485336 -1.03133,-0.728 -1.89,-0.728 -1.008,0 -1.81533,0.31733 -2.422,0.952 -0.60667,0.63467 -0.91,1.48399 -0.91,2.548 V 111 h -3.5 V 97.308 h 3.416 v 2.044 c 0.46667,-0.765337 1.092,-1.353331 1.876,-1.764 0.784,-0.410669 1.67066,-0.616 2.66,-0.616 z m 14.672,14.252 c -1.40001,0 -2.62733,-0.28933 -3.682,-0.868 -1.05467,-0.57867 -1.87133,-1.40933 -2.45,-2.492 -0.57867,-1.08267 -0.868,-2.34266 -0.868,-3.78 0,-1.43734 0.28933,-2.69266 0.868,-3.766 0.57867,-1.073339 1.39533,-1.89933 2.45,-2.478 1.05467,-0.57867 2.28199,-0.868 3.682,-0.868 1.40001,0 2.62733,0.28933 3.682,0.868 1.05467,0.57867 1.86666,1.404661 2.436,2.478 0.56934,1.07334 0.854,2.32866 0.854,3.766 0,1.43734 -0.28466,2.69733 -0.854,3.78 -0.56934,1.08267 -1.38133,1.91333 -2.436,2.492 -1.05467,0.57867 -2.28199,0.868 -3.682,0.868 z m -0.028,-2.716 c 1.13867,0 2.00666,-0.37333 2.604,-1.12 0.59734,-0.74667 0.896,-1.84799 0.896,-3.304 0,-1.43734 -0.29866,-2.534 -0.896,-3.29 -0.59734,-0.756 -1.45599,-1.134 -2.576,-1.134 -1.12001,0 -1.98333,0.378 -2.59,1.134 -0.60667,0.756 -0.91,1.85266 -0.91,3.29 0,1.45601 0.29866,2.55733 0.896,3.304 0.59734,0.74667 1.45599,1.12 2.576,1.12 z M 706.032,111 V 91.26 h 3.5 V 111 Z m 13.356,0.224 c -1.40001,0 -2.62733,-0.28933 -3.682,-0.868 -1.05467,-0.57867 -1.87133,-1.40933 -2.45,-2.492 -0.57867,-1.08267 -0.868,-2.34266 -0.868,-3.78 0,-1.43734 0.28933,-2.69266 0.868,-3.766 0.57867,-1.073339 1.39533,-1.89933 2.45,-2.478 1.05467,-0.57867 2.28199,-0.868 3.682,-0.868 1.40001,0 2.62733,0.28933 3.682,0.868 1.05467,0.57867 1.86666,1.404661 2.436,2.478 0.56934,1.07334 0.854,2.32866 0.854,3.766 0,1.43734 -0.28466,2.69733 -0.854,3.78 -0.56934,1.08267 -1.38133,1.91333 -2.436,2.492 -1.05467,0.57867 -2.28199,0.868 -3.682,0.868 z m -0.028,-2.716 c 1.13867,0 2.00666,-0.37333 2.604,-1.12 0.59734,-0.74667 0.896,-1.84799 0.896,-3.304 0,-1.43734 -0.29866,-2.534 -0.896,-3.29 -0.59734,-0.756 -1.45599,-1.134 -2.576,-1.134 -1.12001,0 -1.98333,0.378 -2.59,1.134 -0.60667,0.756 -0.91,1.85266 -0.91,3.29 0,1.45601 0.29866,2.55733 0.896,3.304 0.59734,0.74667 1.45599,1.12 2.576,1.12 z m 23.212,-11.2 v 12.432 c 0,2.14668 -0.59266,3.77066 -1.778,4.872 -1.18534,1.10134 -2.93532,1.652 -5.25,1.652 -1.19467,0 -2.34266,-0.154 -3.444,-0.462 -1.10134,-0.308 -2.06266,-0.742 -2.884,-1.302 l 0.98,-2.464 c 1.69868,1.02667 3.45332,1.54 5.264,1.54 2.42668,0 3.64,-1.19465 3.64,-3.584 V 108.2 c -0.41067,0.76534 -1.008,1.358 -1.792,1.778 -0.784,0.42 -1.67999,0.63 -2.688,0.63 -1.19467,0 -2.25399,-0.28466 -3.178,-0.854 -0.924,-0.56934 -1.64733,-1.36733 -2.17,-2.394 -0.52267,-1.02667 -0.784,-2.21199 -0.784,-3.556 0,-1.34401 0.25666,-2.534 0.77,-3.57 0.51334,-1.036005 1.23666,-1.838664 2.17,-2.408 0.93334,-0.569336 1.99733,-0.854 3.192,-0.854 1.00801,0 1.904,0.209998 2.688,0.63 0.784,0.420002 1.38133,1.012663 1.792,1.778 v -2.072 z m -7.028,10.584 c 1.12001,0 1.99266,-0.364 2.618,-1.092 0.62534,-0.728 0.938,-1.72666 0.938,-2.996 0,-1.28801 -0.31266,-2.296 -0.938,-3.024 -0.62534,-0.728 -1.49799,-1.092 -2.618,-1.092 -1.10134,0 -1.96933,0.364 -2.604,1.092 -0.63467,0.728 -0.952,1.73599 -0.952,3.024 0,1.25067 0.31733,2.24466 0.952,2.982 0.63467,0.73734 1.50266,1.106 2.604,1.106 z m 20.244,-10.556 h 3.444 L 751,116.04 h -3.528 l 2.492,-5.572 -5.712,-13.132 h 3.696 l 3.864,9.66 z"
       id="path36"
       inkscape:connector-curvature="0"
       style="fill:#ffffff;fill-rule:nonzero" />
    <path
       d="m 260,477 h 170 v 60 H 260 Z"
       id="path38"
       inkscape:connector-curvature="0"
       style="stroke:#757f97;stroke-width:2" />
    <path
       d="m 780,477 h 170 v 60 H 780 Z"
       id="path40"
       inkscape:connector-curvature="0"
       style="stroke:#757f97;stroke-width:2" />
    <g
       id="g88"
       style="fill-rule:nonzero">
      <path
         d="m 202.54,734 v -14.1 h 2.5 V 734 Z m 5.08,0 v -9.78 h 2.5 V 734 Z m -0.14,-14.32 h 2.76 v 2.46 h -2.76 z m 9.68,14.48 c -1,0 -1.87666,-0.20667 -2.63,-0.62 -0.75334,-0.41334 -1.33666,-1.00666 -1.75,-1.78 -0.41333,-0.77334 -0.62,-1.67333 -0.62,-2.7 0,-1.02667 0.20666,-1.92333 0.62,-2.69 0.41334,-0.76667 0.99666,-1.35667 1.75,-1.77 0.75334,-0.41334 1.63,-0.62 2.63,-0.62 1,0 1.87666,0.20666 2.63,0.62 0.75334,0.41333 1.33333,1.00333 1.74,1.77 0.40667,0.76667 0.61,1.66333 0.61,2.69 0,1.02667 -0.20333,1.92666 -0.61,2.7 -0.40667,0.77334 -0.98666,1.36666 -1.74,1.78 -0.75334,0.41333 -1.63,0.62 -2.63,0.62 z m -0.02,-1.94 c 0.81334,0 1.43333,-0.26666 1.86,-0.8 0.42667,-0.53334 0.64,-1.32 0.64,-2.36 0,-1.02667 -0.21333,-1.81 -0.64,-2.35 -0.42667,-0.54 -1.04,-0.81 -1.84,-0.81 -0.8,0 -1.41666,0.27 -1.85,0.81 -0.43333,0.54 -0.65,1.32333 -0.65,2.35 0,1.04 0.21333,1.82666 0.64,2.36 0.42667,0.53334 1.04,0.8 1.84,0.8 z m 12.74,-8.24 c 1.17334,0 2.04666,0.33333 2.62,1 0.57334,0.66667 0.86,1.67333 0.86,3.02 v 6 h -2.5 v -5.86 c 0,-0.76 -0.14333,-1.31333 -0.43,-1.66 -0.28667,-0.34667 -0.73666,-0.52 -1.35,-0.52 -0.72,0 -1.29666,0.22666 -1.73,0.68 -0.43334,0.45334 -0.65,1.06 -0.65,1.82 V 734 h -2.5 v -9.78 h 2.44 v 1.46 c 0.33334,-0.54667 0.78,-0.96667 1.34,-1.26 0.56,-0.29334 1.19333,-0.44 1.9,-0.44 z m 5.8,7.26 h 2.8 V 734 h -2.8 z m 7.68,2.32 c 0,1.37334 -0.32,2.37333 -0.96,3 -0.64,0.62667 -1.70666,0.98667 -3.2,1.08 l -0.94,0.06 -0.18,-1.82 0.98,-0.08 c 0.61334,-0.04 1.06667,-0.20333 1.36,-0.49 0.29334,-0.28667 0.44,-0.72333 0.44,-1.31 v -9.78 h 2.5 z m -2.66,-13.88 h 2.76 v 2.46 h -2.76 z m 10.86,4.3 c 0.84,0 1.59,0.21333 2.25,0.64 0.66,0.42667 1.17333,1.03 1.54,1.81 0.36667,0.78 0.55,1.67666 0.55,2.69 0,1.01334 -0.18333,1.9 -0.55,2.66 -0.36667,0.76 -0.87666,1.34666 -1.53,1.76 -0.65334,0.41333 -1.40666,0.62 -2.26,0.62 -0.69334,0 -1.31333,-0.14667 -1.86,-0.44 -0.54667,-0.29334 -0.96666,-0.7 -1.26,-1.22 v 5.1 h -2.5 v -13.38 h 2.46 v 1.48 c 0.29334,-0.54667 0.71666,-0.97 1.27,-1.27 0.55334,-0.3 1.18333,-0.45 1.89,-0.45 z m -0.66,8.24 c 0.78667,0 1.4,-0.27 1.84,-0.81 0.44,-0.54 0.66,-1.30333 0.66,-2.29 0,-1.01334 -0.22,-1.8 -0.66,-2.36 -0.44,-0.56 -1.05333,-0.84 -1.84,-0.84 -0.8,0 -1.41666,0.27333 -1.85,0.82 -0.43333,0.54667 -0.65,1.32666 -0.65,2.34 0,1.00001 0.21667,1.77333 0.65,2.32 0.43334,0.54667 1.05,0.82 1.85,0.82 z"
         id="path42"
         inkscape:connector-curvature="0"
         style="fill:#ffffff" />
      <path
         d="m 261.8,723.98 c 0.72,0 1.36,0.15 1.92,0.45 0.56,0.3 0.98667,0.72333 1.28,1.27 v -1.48 h 2.48 v 8.88 c 0,1.53334 -0.42333,2.69333 -1.27,3.48 -0.84667,0.78667 -2.09666,1.18 -3.75,1.18 -0.85334,0 -1.67333,-0.11 -2.46,-0.33 -0.78667,-0.22 -1.47333,-0.53 -2.06,-0.93 l 0.7,-1.76 c 1.21334,0.73334 2.46666,1.1 3.76,1.1 1.73334,0 2.6,-0.85333 2.6,-2.56 V 732 c -0.29333,0.54667 -0.72,0.97 -1.28,1.27 -0.56,0.3 -1.2,0.45 -1.92,0.45 -0.85334,0 -1.61,-0.20333 -2.27,-0.61 -0.66,-0.40667 -1.17666,-0.97666 -1.55,-1.71 -0.37333,-0.73334 -0.56,-1.57999 -0.56,-2.54 0,-0.96 0.18333,-1.81 0.55,-2.55 0.36667,-0.74 0.88333,-1.31333 1.55,-1.72 0.66667,-0.40667 1.42666,-0.61 2.28,-0.61 z m 0.66,1.94 c -0.78667,0 -1.40666,0.26 -1.86,0.78 -0.45334,0.52 -0.68,1.24 -0.68,2.16 0,0.89334 0.22666,1.60333 0.68,2.13 0.45334,0.52667 1.07333,0.79 1.86,0.79 0.8,0 1.42333,-0.26 1.87,-0.78 0.44667,-0.52 0.67,-1.23333 0.67,-2.14 0,-0.92 -0.22333,-1.64 -0.67,-2.16 -0.44667,-0.52 -1.07,-0.78 -1.87,-0.78 z"
         id="path44"
         inkscape:connector-curvature="0"
         style="fill:#ffffff" />
      <path
         d="m 721.66,724.24 h 2.46 l -4.28,9.76 h -2.18 l -4.24,-9.76 h 2.64 l 2.76,6.9 z m 8.12,9.92 c -1,0 -1.87666,-0.20667 -2.63,-0.62 -0.75334,-0.41334 -1.33667,-1.00666 -1.75,-1.78 -0.41333,-0.77334 -0.62,-1.67333 -0.62,-2.7 0,-1.02667 0.20667,-1.92333 0.62,-2.69 0.41333,-0.76667 0.99666,-1.35667 1.75,-1.77 0.75334,-0.41334 1.63,-0.62 2.63,-0.62 1,0 1.87666,0.20666 2.63,0.62 0.75334,0.41333 1.33333,1.00333 1.74,1.77 0.40667,0.76667 0.61,1.66333 0.61,2.69 0,1.02667 -0.20333,1.92666 -0.61,2.7 -0.40667,0.77334 -0.98666,1.36666 -1.74,1.78 -0.75334,0.41333 -1.63,0.62 -2.63,0.62 z m -0.02,-1.94 c 0.81334,0 1.43333,-0.26666 1.86,-0.8 0.42667,-0.53334 0.64,-1.32 0.64,-2.36 0,-1.02667 -0.21333,-1.81 -0.64,-2.35 -0.42667,-0.54 -1.04,-0.81 -1.84,-0.81 -0.8,0 -1.41667,0.27 -1.85,0.81 -0.43334,0.54 -0.65,1.32333 -0.65,2.35 0,1.04 0.21333,1.82666 0.64,2.36 0.42667,0.53334 1.04,0.8 1.84,0.8 z m 20.26,-8 h 2.44 l -3.84,9.78 h -2.18 l -2.4,-6.3 -2.34,6.3 h -2.16 l -3.86,-9.78 h 2.56 l 2.5,6.8 2.5,-6.8 h 1.8 l 2.5,6.84 z m 7.52,9.94 c -0.86667,0 -1.66333,-0.10667 -2.39,-0.32 -0.72667,-0.21333 -1.34333,-0.52 -1.85,-0.92 l 0.7,-1.74 c 1.04,0.76 2.23333,1.14 3.58,1.14 0.57334,0 1.01,-0.0933 1.31,-0.28 0.3,-0.18667 0.45,-0.45333 0.45,-0.8 0,-0.29333 -0.10333,-0.52 -0.31,-0.68 -0.20667,-0.16 -0.57666,-0.30667 -1.11,-0.44 l -1.6,-0.36 c -0.90667,-0.2 -1.58,-0.52666 -2.02,-0.98 -0.44,-0.45334 -0.66,-1.04 -0.66,-1.76 0,-0.6 0.17,-1.13 0.51,-1.59 0.34,-0.46 0.81333,-0.81667 1.42,-1.07 0.60667,-0.25334 1.31,-0.38 2.11,-0.38 0.69334,0 1.36333,0.10667 2.01,0.32 0.64667,0.21333 1.21666,0.51333 1.71,0.9 l -0.7,1.7 c -1.01334,-0.73334 -2.02666,-1.1 -3.04,-1.1 -0.54667,0 -0.97333,0.1 -1.28,0.3 -0.30667,0.2 -0.46,0.48 -0.46,0.84 0,0.26667 0.0967,0.48667 0.29,0.66 0.19333,0.17333 0.50333,0.30667 0.93,0.4 l 1.66,0.38 c 0.97334,0.21333 1.68666,0.55 2.14,1.01 0.45334,0.46 0.68,1.06333 0.68,1.81 0,0.90667 -0.36666,1.62666 -1.1,2.16 -0.73334,0.53334 -1.72666,0.8 -2.98,0.8 z m 5.88,-2.92 h 2.8 V 734 h -2.8 z m 7.68,2.32 c 0,1.37334 -0.32,2.37333 -0.96,3 -0.64,0.62667 -1.70666,0.98667 -3.2,1.08 l -0.94,0.06 -0.18,-1.82 0.98,-0.08 c 0.61334,-0.04 1.06666,-0.20333 1.36,-0.49 0.29333,-0.28667 0.44,-0.72333 0.44,-1.31 v -9.78 h 2.5 z m -2.66,-13.88 h 2.76 v 2.46 h -2.76 z m 10.86,4.3 c 0.84,0 1.59,0.21333 2.25,0.64 0.66,0.42667 1.17333,1.03 1.54,1.81 0.36667,0.78 0.55,1.67666 0.55,2.69 0,1.01334 -0.18333,1.9 -0.55,2.66 -0.36667,0.76 -0.87666,1.34666 -1.53,1.76 -0.65334,0.41333 -1.40666,0.62 -2.26,0.62 -0.69334,0 -1.31333,-0.14667 -1.86,-0.44 -0.54667,-0.29334 -0.96667,-0.7 -1.26,-1.22 v 5.1 h -2.5 v -13.38 h 2.46 v 1.48 c 0.29333,-0.54667 0.71666,-0.97 1.27,-1.27 0.55334,-0.3 1.18333,-0.45 1.89,-0.45 z m -0.66,8.24 c 0.78667,0 1.4,-0.27 1.84,-0.81 0.44,-0.54 0.66,-1.30333 0.66,-2.29 0,-1.01334 -0.22,-1.8 -0.66,-2.36 -0.44,-0.56 -1.05333,-0.84 -1.84,-0.84 -0.8,0 -1.41666,0.27333 -1.85,0.82 -0.43334,0.54667 -0.65,1.32666 -0.65,2.34 0,1.00001 0.21666,1.77333 0.65,2.32 0.43334,0.54667 1.05,0.82 1.85,0.82 z"
         id="path46"
         inkscape:connector-curvature="0"
         style="fill:#ffffff" />
      <path
         d="m 789.54,723.98 c 0.72,0 1.36,0.15 1.92,0.45 0.56,0.3 0.98666,0.72333 1.28,1.27 v -1.48 h 2.48 v 8.88 c 0,1.53334 -0.42333,2.69333 -1.27,3.48 -0.84667,0.78667 -2.09666,1.18 -3.75,1.18 -0.85334,0 -1.67333,-0.11 -2.46,-0.33 -0.78667,-0.22 -1.47333,-0.53 -2.06,-0.93 l 0.7,-1.76 c 1.21334,0.73334 2.46666,1.1 3.76,1.1 1.73334,0 2.6,-0.85333 2.6,-2.56 V 732 c -0.29333,0.54667 -0.72,0.97 -1.28,1.27 -0.56,0.3 -1.2,0.45 -1.92,0.45 -0.85334,0 -1.61,-0.20333 -2.27,-0.61 -0.66,-0.40667 -1.17666,-0.97666 -1.55,-1.71 -0.37333,-0.73334 -0.56,-1.57999 -0.56,-2.54 0,-0.96 0.18333,-1.81 0.55,-2.55 0.36667,-0.74 0.88333,-1.31333 1.55,-1.72 0.66667,-0.40667 1.42666,-0.61 2.28,-0.61 z m 0.66,1.94 c -0.78667,0 -1.40666,0.26 -1.86,0.78 -0.45334,0.52 -0.68,1.24 -0.68,2.16 0,0.89334 0.22666,1.60333 0.68,2.13 0.45334,0.52667 1.07333,0.79 1.86,0.79 0.8,0 1.42333,-0.26 1.87,-0.78 0.44667,-0.52 0.67,-1.23333 0.67,-2.14 0,-0.92 -0.22333,-1.64 -0.67,-2.16 -0.44667,-0.52 -1.07,-0.78 -1.87,-0.78 z"
         id="path48"
         inkscape:connector-curvature="0"
         style="fill:#ffffff" />
      <path
         d="m 418.45,724.22 v 8.88 c 0,1.53334 -0.42333,2.69333 -1.27,3.48 -0.84667,0.78667 -2.09666,1.18 -3.75,1.18 -0.85334,0 -1.67333,-0.11 -2.46,-0.33 -0.78667,-0.22 -1.47333,-0.53 -2.06,-0.93 l 0.7,-1.76 c 1.21334,0.73334 2.46666,1.1 3.76,1.1 1.73334,0 2.6,-0.85333 2.6,-2.56 V 732 c -0.29333,0.54667 -0.72,0.97 -1.28,1.27 -0.56,0.3 -1.2,0.45 -1.92,0.45 -0.85334,0 -1.61,-0.20333 -2.27,-0.61 -0.66,-0.40667 -1.17666,-0.97666 -1.55,-1.71 -0.37333,-0.73334 -0.56,-1.57999 -0.56,-2.54 0,-0.96 0.18333,-1.81 0.55,-2.55 0.36667,-0.74 0.88333,-1.31333 1.55,-1.72 0.66667,-0.40667 1.42666,-0.61 2.28,-0.61 0.72,0 1.36,0.15 1.92,0.45 0.56,0.3 0.98667,0.72333 1.28,1.27 v -1.48 z m -5.02,7.56 c 0.8,0 1.42333,-0.26 1.87,-0.78 0.44667,-0.52 0.67,-1.23333 0.67,-2.14 0,-0.92 -0.22333,-1.64 -0.67,-2.16 -0.44667,-0.52 -1.07,-0.78 -1.87,-0.78 -0.78667,0 -1.40666,0.26 -1.86,0.78 -0.45334,0.52 -0.68,1.24 -0.68,2.16 0,0.89334 0.22666,1.60333 0.68,2.13 0.45334,0.52667 1.07333,0.79 1.86,0.79 z m 7.6,2.22 v -9.78 h 2.5 V 734 Z m -0.14,-14.32 h 2.76 v 2.46 h -2.76 z m 11.66,6.38 -1.46,0.14 c -1.65334,0.17333 -2.48,1.01333 -2.48,2.52 V 734 h -2.5 v -9.78 h 2.38 v 1.72 c 0.47852,-1.10815 1.4387,-1.74058 2.88055,-1.89728 L 432.39,723.96 Z m 5.42,-2.08 c 1.37334,0 2.39333,0.33333 3.06,1 0.66667,0.66667 1,1.69333 1,3.08 V 734 h -2.38 v -1.5 c -0.22667,0.52 -0.58333,0.92666 -1.07,1.22 -0.48667,0.29334 -1.05,0.44 -1.69,0.44 -0.65334,0 -1.24666,-0.13333 -1.78,-0.4 -0.53334,-0.26667 -0.95333,-0.63333 -1.26,-1.1 -0.30667,-0.46667 -0.46,-0.98666 -0.46,-1.56 0,-0.72 0.18333,-1.28666 0.55,-1.7 0.36667,-0.41333 0.96333,-0.71333 1.79,-0.9 0.75778,-0.17111 1.77884,-0.2638 3.06319,-0.27806 L 439.65,728.22 v -0.46 c 0,-0.66667 -0.14333,-1.14666 -0.43,-1.44 -0.28667,-0.29334 -0.76333,-0.44 -1.43,-0.44 -0.52,0 -1.06333,0.09 -1.63,0.27 -0.56667,0.18 -1.12333,0.43 -1.67,0.75 l -0.7,-1.72 c 0.54667,-0.34667 1.20666,-0.63333 1.98,-0.86 0.77334,-0.22667 1.50666,-0.34 2.2,-0.34 z m -0.58,8.38 c 0.66667,0 1.21,-0.22333 1.63,-0.67 0.42,-0.44667 0.63,-1.02333 0.63,-1.73 v -0.42 h -0.36 c -0.89334,0 -1.58666,0.04 -2.08,0.12 -0.49334,0.08 -0.84667,0.22 -1.06,0.42 -0.21333,0.2 -0.32,0.47333 -0.32,0.82 0,0.42667 0.14667,0.77666 0.44,1.05 0.29334,0.27333 0.66666,0.41 1.12,0.41 z m 10.36,-8.14 h 2.58 v 1.88 h -2.58 v 7.9 h -2.5 v -7.9 h -1.88 v -1.88 h 1.88 c 0,-1.4 0.36333,-2.45333 1.09,-3.16 0.67823,-0.65956 1.70779,-1.04616 3.08871,-1.15982 l 1.28129,-0.0802 0.16,1.86 -0.94,0.04 c -0.78667,0.04 -1.34666,0.21666 -1.68,0.53 -0.33333,0.31333 -0.5,0.81666 -0.5,1.51 z m 7.16,0 h 2.58 v 1.88 h -2.58 v 7.9 h -2.5 v -7.9 h -1.88 v -1.88 h 1.88 c 0,-1.4 0.36333,-2.45333 1.09,-3.16 0.67823,-0.65956 1.70779,-1.04616 3.08871,-1.15982 l 1.28129,-0.0802 0.16,1.86 -0.94,0.04 c -0.78667,0.04 -1.34666,0.21666 -1.68,0.53 -0.33333,0.31333 -0.5,0.81666 -0.5,1.51 z m 12.56,5.34 h -6.66 c 0.08,0.90667 0.35333,1.58 0.82,2.02 0.46667,0.44 1.13333,0.66 2,0.66 1.08001,0 2.06666,-0.34666 2.96,-1.04 l 0.72,1.72 c -0.45334,0.37333 -1.02333,0.67333 -1.71,0.9 -0.68667,0.22667 -1.37666,0.34 -2.07,0.34 -1.60001,0 -2.86333,-0.45333 -3.79,-1.36 -0.92667,-0.90667 -1.39,-2.14666 -1.39,-3.72 0,-1.00001 0.2,-1.88666 0.6,-2.66 0.4,-0.77334 0.96333,-1.37333 1.69,-1.8 0.72667,-0.42667 1.55,-0.64 2.47,-0.64 1.34667,0 2.41,0.43333 3.19,1.3 0.78,0.86667 1.17,2.05999 1.17,3.58 z m -4.3,-3.82 c -0.66667,0 -1.20333,0.21333 -1.61,0.64 -0.40667,0.42667 -0.65667,1.04 -0.75,1.84 h 4.52 c -0.0267,-0.81334 -0.22666,-1.43 -0.6,-1.85 -0.37333,-0.42 -0.89333,-0.63 -1.56,-0.63 z m 6.12,5.5 h 2.8 V 734 h -2.8 z m 7.68,2.32 c 0,1.37334 -0.32,2.37333 -0.96,3 -0.64,0.62667 -1.70666,0.98667 -3.2,1.08 l -0.94,0.06 -0.18,-1.82 0.98,-0.08 c 0.61334,-0.04 1.06667,-0.20333 1.36,-0.49 0.29334,-0.28667 0.44,-0.72333 0.44,-1.31 v -9.78 h 2.5 z m -2.66,-13.88 h 2.76 v 2.46 h -2.76 z m 10.86,4.3 c 0.84,0 1.59,0.21333 2.25,0.64 0.66,0.42667 1.17333,1.03 1.54,1.81 0.36667,0.78 0.55,1.67666 0.55,2.69 0,1.01334 -0.18333,1.9 -0.55,2.66 -0.36667,0.76 -0.87666,1.34666 -1.53,1.76 -0.65334,0.41333 -1.40666,0.62 -2.26,0.62 -0.69334,0 -1.31333,-0.14667 -1.86,-0.44 -0.54667,-0.29334 -0.96666,-0.7 -1.26,-1.22 v 5.1 h -2.5 v -13.38 h 2.46 v 1.48 c 0.29334,-0.54667 0.71666,-0.97 1.27,-1.27 0.55334,-0.3 1.18333,-0.45 1.89,-0.45 z m -0.66,8.24 c 0.78667,0 1.4,-0.27 1.84,-0.81 0.44,-0.54 0.66,-1.30333 0.66,-2.29 0,-1.01334 -0.22,-1.8 -0.66,-2.36 -0.44,-0.56 -1.05333,-0.84 -1.84,-0.84 -0.8,0 -1.41666,0.27333 -1.85,0.82 -0.43334,0.54667 -0.65,1.32666 -0.65,2.34 0,1.00001 0.21666,1.77333 0.65,2.32 0.43334,0.54667 1.05,0.82 1.85,0.82 z"
         id="path50"
         inkscape:connector-curvature="0"
         style="fill:#ffffff" />
      <path
         d="m 495.41,723.98 c 0.72,0 1.36,0.15 1.92,0.45 0.56,0.3 0.98667,0.72333 1.28,1.27 v -1.48 h 2.48 v 8.88 c 0,1.53334 -0.42333,2.69333 -1.27,3.48 -0.84667,0.78667 -2.09666,1.18 -3.75,1.18 -0.85334,0 -1.67333,-0.11 -2.46,-0.33 -0.78667,-0.22 -1.47333,-0.53 -2.06,-0.93 l 0.7,-1.76 c 1.21334,0.73334 2.46666,1.1 3.76,1.1 1.73334,0 2.6,-0.85333 2.6,-2.56 V 732 c -0.29333,0.54667 -0.72,0.97 -1.28,1.27 -0.56,0.3 -1.2,0.45 -1.92,0.45 -0.85334,0 -1.61,-0.20333 -2.27,-0.61 -0.66,-0.40667 -1.17666,-0.97666 -1.55,-1.71 -0.37333,-0.73334 -0.56,-1.57999 -0.56,-2.54 0,-0.96 0.18333,-1.81 0.55,-2.55 0.36667,-0.74 0.88333,-1.31333 1.55,-1.72 0.66667,-0.40667 1.42666,-0.61 2.28,-0.61 z m 0.66,1.94 c -0.78667,0 -1.40666,0.26 -1.86,0.78 -0.45334,0.52 -0.68,1.24 -0.68,2.16 0,0.89334 0.22666,1.60333 0.68,2.13 0.45334,0.52667 1.07333,0.79 1.86,0.79 0.8,0 1.42333,-0.26 1.87,-0.78 0.44667,-0.52 0.67,-1.23333 0.67,-2.14 0,-0.92 -0.22333,-1.64 -0.67,-2.16 -0.44667,-0.52 -1.07,-0.78 -1.87,-0.78 z"
         id="path52"
         inkscape:connector-curvature="0"
         style="fill:#ffffff" />
      <path
         d="M 321,759 H 149 v -62 h 172 z m -2,-60 H 151 v 58 h 168 z"
         id="path54"
         inkscape:connector-curvature="0"
         style="fill:#757f97" />
      <path
         d="M 841,759 H 669 v -62 h 172 z m -2,-60 H 671 v 58 h 168 z"
         id="path56"
         inkscape:connector-curvature="0"
         style="fill:#757f97" />
      <path
         d="M 541,759 H 369 v -62 h 172 z m -2,-60 H 371 v 58 h 168 z"
         id="path58"
         inkscape:connector-curvature="0"
         style="fill:#757f97" />
      <path
         d="M 1061,759 H 889 v -62 h 172 z m -2,-60 H 891 v 58 h 168 z"
         id="path60"
         inkscape:connector-curvature="0"
         style="fill:#757f97" />
      <path
         d="M 693,317 H 521 v -62 h 172 z m -2,-60 H 523 v 58 h 168 z"
         id="path62"
         inkscape:connector-curvature="0"
         style="fill:#757f97" />
      <path
         d="m 606.5,316 v 33.50781 h -262 V 477 h 1 V 350.50781 h 262 V 316 Z"
         id="path64"
         inkscape:connector-curvature="0"
         style="fill:#757f97" />
      <path
         d="m 346.5,537 v 33.50781 h -112 V 698 h 1 V 571.50781 h 112 V 537 Z"
         id="path66"
         inkscape:connector-curvature="0"
         style="fill:#757f97" />
      <path
         d="m 866.5,537 v 33.50781 h -112 V 698 h 1 V 571.50781 h 112 V 537 Z"
         id="path68"
         inkscape:connector-curvature="0"
         style="fill:#757f97" />
      <path
         d="m 864.5,316 v 33.50781 h -258 V 477 h 1 V 350.50781 h 258 V 316 Z"
         transform="matrix(-1,0,0,1,1472,0)"
         id="path70"
         inkscape:connector-curvature="0"
         style="fill:#757f97" />
      <path
         d="m 454.5,537 v 33.50781 h -108 V 698 h 1 V 571.50781 h 108 V 537 Z"
         transform="matrix(-1,0,0,1,802,0)"
         id="path72"
         inkscape:connector-curvature="0"
         style="fill:#757f97" />
      <path
         d="m 974.5,537 v 33.50781 h -108 V 698 h 1 V 571.50781 h 108 V 537 Z"
         transform="matrix(-1,0,0,1,1842,0)"
         id="path74"
         inkscape:connector-curvature="0"
         style="fill:#757f97" />
      <path
         d="m 409,508 h 6 c 0.55228,0 1,-0.44772 1,-1 0,-0.55228 -0.44772,-1 -1,-1 h -6 c -0.55228,0 -1,0.44772 -1,1 0,0.55228 0.44772,1 1,1 z m 12,0 h 6 c 0.55228,0 1,-0.44772 1,-1 0,-0.55228 -0.44772,-1 -1,-1 h -6 c -0.55228,0 -1,0.44772 -1,1 0,0.55228 0.44772,1 1,1 z m 12,0 h 6 c 0.55228,0 1,-0.44772 1,-1 0,-0.55228 -0.44772,-1 -1,-1 h -6 c -0.55228,0 -1,0.44772 -1,1 0,0.55228 0.44772,1 1,1 z m 12,0 h 6 c 0.55228,0 1,-0.44772 1,-1 0,-0.55228 -0.44772,-1 -1,-1 h -6 c -0.55228,0 -1,0.44772 -1,1 0,0.55228 0.44772,1 1,1 z m 12,0 h 6 c 0.55228,0 1,-0.44772 1,-1 0,-0.55228 -0.44772,-1 -1,-1 h -6 c -0.55228,0 -1,0.44772 -1,1 0,0.55228 0.44772,1 1,1 z m 12,0 h 6 c 0.55228,0 1,-0.44772 1,-1 0,-0.55228 -0.44772,-1 -1,-1 h -6 c -0.55228,0 -1,0.44772 -1,1 0,0.55228 0.44772,1 1,1 z m 12,0 h 6 c 0.55228,0 1,-0.44772 1,-1 0,-0.55228 -0.44772,-1 -1,-1 h -6 c -0.55228,0 -1,0.44772 -1,1 0,0.55228 0.44772,1 1,1 z m 12,0 h 6 c 0.55228,0 1,-0.44772 1,-1 0,-0.55228 -0.44772,-1 -1,-1 h -6 c -0.55228,0 -1,0.44772 -1,1 0,0.55228 0.44772,1 1,1 z m 12,0 h 6 c 0.55228,0 1,-0.44772 1,-1 0,-0.55228 -0.44772,-1 -1,-1 h -6 c -0.55228,0 -1,0.44772 -1,1 0,0.55228 0.44772,1 1,1 z m 12,0 h 6 c 0.55228,0 1,-0.44772 1,-1 0,-0.55228 -0.44772,-1 -1,-1 h -6 c -0.55228,0 -1,0.44772 -1,1 0,0.55228 0.44772,1 1,1 z m 12,0 h 6 c 0.55228,0 1,-0.44772 1,-1 0,-0.55228 -0.44772,-1 -1,-1 h -6 c -0.55228,0 -1,0.44772 -1,1 0,0.55228 0.44772,1 1,1 z m 12,0 h 6 c 0.55228,0 1,-0.44772 1,-1 0,-0.55228 -0.44772,-1 -1,-1 h -6 c -0.55228,0 -1,0.44772 -1,1 0,0.55228 0.44772,1 1,1 z m 12,0 h 6 c 0.55228,0 1,-0.44772 1,-1 0,-0.55228 -0.44772,-1 -1,-1 h -6 c -0.55228,0 -1,0.44772 -1,1 0,0.55228 0.44772,1 1,1 z m 12,0 h 6 c 0.55228,0 1,-0.44772 1,-1 0,-0.55228 -0.44772,-1 -1,-1 h -6 c -0.55228,0 -1,0.44772 -1,1 0,0.55228 0.44772,1 1,1 z m 12,0 h 6 c 0.55228,0 1,-0.44772 1,-1 0,-0.55228 -0.44772,-1 -1,-1 h -6 c -0.55228,0 -1,0.44772 -1,1 0,0.55228 0.44772,1 1,1 z m 12,0 h 6 c 0.55228,0 1,-0.44772 1,-1 0,-0.55228 -0.44772,-1 -1,-1 h -6 c -0.55228,0 -1,0.44772 -1,1 0,0.55228 0.44772,1 1,1 z m 12,0 h 6 c 0.55228,0 1,-0.44772 1,-1 0,-0.55228 -0.44772,-1 -1,-1 h -6 c -0.55228,0 -1,0.44772 -1,1 0,0.55228 0.44772,1 1,1 z m 12,0 h 6 c 0.55228,0 1,-0.44772 1,-1 0,-0.55228 -0.44772,-1 -1,-1 h -6 c -0.55228,0 -1,0.44772 -1,1 0,0.55228 0.44772,1 1,1 z m 12,0 h 6 c 0.55228,0 1,-0.44772 1,-1 0,-0.55228 -0.44772,-1 -1,-1 h -6 c -0.55228,0 -1,0.44772 -1,1 0,0.55228 0.44772,1 1,1 z m 12,0 h 6 c 0.55228,0 1,-0.44772 1,-1 0,-0.55228 -0.44772,-1 -1,-1 h -6 c -0.55228,0 -1,0.44772 -1,1 0,0.55228 0.44772,1 1,1 z m 12,0 h 6 c 0.55228,0 1,-0.44772 1,-1 0,-0.55228 -0.44772,-1 -1,-1 h -6 c -0.55228,0 -1,0.44772 -1,1 0,0.55228 0.44772,1 1,1 z m 12,0 h 6 c 0.55228,0 1,-0.44772 1,-1 0,-0.55228 -0.44772,-1 -1,-1 h -6 c -0.55228,0 -1,0.44772 -1,1 0,0.55228 0.44772,1 1,1 z m 12,0 h 6 c 0.55228,0 1,-0.44772 1,-1 0,-0.55228 -0.44772,-1 -1,-1 h -6 c -0.55228,0 -1,0.44772 -1,1 0,0.55228 0.44772,1 1,1 z m 12,0 h 6 c 0.55228,0 1,-0.44772 1,-1 0,-0.55228 -0.44772,-1 -1,-1 h -6 c -0.55228,0 -1,0.44772 -1,1 0,0.55228 0.44772,1 1,1 z m 12,0 h 6 c 0.55228,0 1,-0.44772 1,-1 0,-0.55228 -0.44772,-1 -1,-1 h -6 c -0.55228,0 -1,0.44772 -1,1 0,0.55228 0.44772,1 1,1 z m 12,0 h 6 c 0.55228,0 1,-0.44772 1,-1 0,-0.55228 -0.44772,-1 -1,-1 h -6 c -0.55228,0 -1,0.44772 -1,1 0,0.55228 0.44772,1 1,1 z m 12,0 h 6 c 0.55228,0 1,-0.44772 1,-1 0,-0.55228 -0.44772,-1 -1,-1 h -6 c -0.55228,0 -1,0.44772 -1,1 0,0.55228 0.44772,1 1,1 z m 12,0 h 6 c 0.55228,0 1,-0.44772 1,-1 0,-0.55228 -0.44772,-1 -1,-1 h -6 c -0.55228,0 -1,0.44772 -1,1 0,0.55228 0.44772,1 1,1 z m 12,0 h 6 c 0.55228,0 1,-0.44772 1,-1 0,-0.55228 -0.44772,-1 -1,-1 h -6 c -0.55228,0 -1,0.44772 -1,1 0,0.55228 0.44772,1 1,1 z m 12,0 h 6 c 0.55228,0 1,-0.44772 1,-1 0,-0.55228 -0.44772,-1 -1,-1 h -6 c -0.55228,0 -1,0.44772 -1,1 0,0.55228 0.44772,1 1,1 z m 12,0 h 6 c 0.55228,0 1,-0.44772 1,-1 0,-0.55228 -0.44772,-1 -1,-1 h -6 c -0.55228,0 -1,0.44772 -1,1 0,0.55228 0.44772,1 1,1 z m 12,0 h 6 c 0.55228,0 1,-0.44772 1,-1 0,-0.55228 -0.44772,-1 -1,-1 h -6 c -0.55228,0 -1,0.44772 -1,1 0,0.55228 0.44772,1 1,1 z m 12,0 h 6 c 0.55228,0 1,-0.44772 1,-1 0,-0.55228 -0.44772,-1 -1,-1 h -6 c -0.55228,0 -1,0.44772 -1,1 0,0.55228 0.44772,1 1,1 z m 12,0 h 4 c 0.55228,0 1,-0.44772 1,-1 0,-0.55228 -0.44772,-1 -1,-1 h -4 c -0.55228,0 -1,0.44772 -1,1 0,0.55228 0.44772,1 1,1 z"
         id="path76"
         inkscape:connector-curvature="0"
         style="fill:#4c7ef3" />
      <path
         d="m 143,508 h 6 c 0.55228,0 1,-0.44772 1,-1 0,-0.55228 -0.44772,-1 -1,-1 h -6 c -0.55229,0 -1,0.44772 -1,1 0,0.55228 0.44771,1 1,1 z m 12,0 h 6 c 0.55228,0 1,-0.44772 1,-1 0,-0.55228 -0.44772,-1 -1,-1 h -6 c -0.55229,0 -1,0.44772 -1,1 0,0.55228 0.44771,1 1,1 z m 12,0 h 6 c 0.55228,0 1,-0.44772 1,-1 0,-0.55228 -0.44772,-1 -1,-1 h -6 c -0.55229,0 -1,0.44772 -1,1 0,0.55228 0.44771,1 1,1 z m 12,0 h 6 c 0.55228,0 1,-0.44772 1,-1 0,-0.55228 -0.44772,-1 -1,-1 h -6 c -0.55229,0 -1,0.44772 -1,1 0,0.55228 0.44771,1 1,1 z m 12,0 h 6 c 0.55228,0 1,-0.44772 1,-1 0,-0.55228 -0.44772,-1 -1,-1 h -6 c -0.55229,0 -1,0.44772 -1,1 0,0.55228 0.44771,1 1,1 z m 12,0 h 6 c 0.55228,0 1,-0.44772 1,-1 0,-0.55228 -0.44772,-1 -1,-1 h -6 c -0.55229,0 -1,0.44772 -1,1 0,0.55228 0.44771,1 1,1 z m 12,0 h 6 c 0.55228,0 1,-0.44772 1,-1 0,-0.55228 -0.44772,-1 -1,-1 h -6 c -0.55229,0 -1,0.44772 -1,1 0,0.55228 0.44771,1 1,1 z m 12,0 h 6 c 0.55228,0 1,-0.44772 1,-1 0,-0.55228 -0.44772,-1 -1,-1 h -6 c -0.55229,0 -1,0.44772 -1,1 0,0.55228 0.44771,1 1,1 z m 12,0 h 6 c 0.55228,0 1,-0.44772 1,-1 0,-0.55228 -0.44772,-1 -1,-1 h -6 c -0.55229,0 -1,0.44772 -1,1 0,0.55228 0.44771,1 1,1 z m 12,0 h 6 c 0.55228,0 1,-0.44772 1,-1 0,-0.55228 -0.44772,-1 -1,-1 h -6 c -0.55229,0 -1,0.44772 -1,1 0,0.55228 0.44771,1 1,1 z m 12,0 h 6 c 0.55228,0 1,-0.44772 1,-1 0,-0.55228 -0.44772,-1 -1,-1 h -6 c -0.55228,0 -1,0.44772 -1,1 0,0.55228 0.44772,1 1,1 z m 12,0 h 6 c 0.55228,0 1,-0.44772 1,-1 0,-0.55228 -0.44772,-1 -1,-1 h -6 c -0.55228,0 -1,0.44772 -1,1 0,0.55228 0.44772,1 1,1 z"
         id="path78"
         inkscape:connector-curvature="0"
         style="fill:#4c7ef3" />
      <path
         d="m 404.5,288 h 6 c 0.55228,0 1,-0.44772 1,-1 0,-0.55228 -0.44772,-1 -1,-1 h -6 c -0.55228,0 -1,0.44772 -1,1 0,0.55228 0.44772,1 1,1 z m 12,0 h 6 c 0.55228,0 1,-0.44772 1,-1 0,-0.55228 -0.44772,-1 -1,-1 h -6 c -0.55228,0 -1,0.44772 -1,1 0,0.55228 0.44772,1 1,1 z m 12,0 h 6 c 0.55228,0 1,-0.44772 1,-1 0,-0.55228 -0.44772,-1 -1,-1 h -6 c -0.55228,0 -1,0.44772 -1,1 0,0.55228 0.44772,1 1,1 z m 12,0 h 6 c 0.55228,0 1,-0.44772 1,-1 0,-0.55228 -0.44772,-1 -1,-1 h -6 c -0.55228,0 -1,0.44772 -1,1 0,0.55228 0.44772,1 1,1 z m 12,0 h 6 c 0.55228,0 1,-0.44772 1,-1 0,-0.55228 -0.44772,-1 -1,-1 h -6 c -0.55228,0 -1,0.44772 -1,1 0,0.55228 0.44772,1 1,1 z m 12,0 h 6 c 0.55228,0 1,-0.44772 1,-1 0,-0.55228 -0.44772,-1 -1,-1 h -6 c -0.55228,0 -1,0.44772 -1,1 0,0.55228 0.44772,1 1,1 z m 12,0 h 6 c 0.55228,0 1,-0.44772 1,-1 0,-0.55228 -0.44772,-1 -1,-1 h -6 c -0.55228,0 -1,0.44772 -1,1 0,0.55228 0.44772,1 1,1 z m 12,0 h 6 c 0.55228,0 1,-0.44772 1,-1 0,-0.55228 -0.44772,-1 -1,-1 h -6 c -0.55228,0 -1,0.44772 -1,1 0,0.55228 0.44772,1 1,1 z m 12,0 h 6 c 0.55228,0 1,-0.44772 1,-1 0,-0.55228 -0.44772,-1 -1,-1 h -6 c -0.55228,0 -1,0.44772 -1,1 0,0.55228 0.44772,1 1,1 z m 12,0 h 6 c 0.55228,0 1,-0.44772 1,-1 0,-0.55228 -0.44772,-1 -1,-1 h -6 c -0.55228,0 -1,0.44772 -1,1 0,0.55228 0.44772,1 1,1 z m 12,0 h 6 c 0.55228,0 1,-0.44772 1,-1 0,-0.55228 -0.44772,-1 -1,-1 h -6 c -0.55228,0 -1,0.44772 -1,1 0,0.55228 0.44772,1 1,1 z m 12,0 h 6 c 0.55228,0 1,-0.44772 1,-1 0,-0.55228 -0.44772,-1 -1,-1 h -6 c -0.55228,0 -1,0.44772 -1,1 0,0.55228 0.44772,1 1,1 z"
         id="path80"
         inkscape:connector-curvature="0"
         style="fill:#4c7ef3" />
      <path
         d="m 670.5,288 h 6 c 0.55228,0 1,-0.44772 1,-1 0,-0.55228 -0.44772,-1 -1,-1 h -6 c -0.55228,0 -1,0.44772 -1,1 0,0.55228 0.44772,1 1,1 z m 12,0 h 6 c 0.55228,0 1,-0.44772 1,-1 0,-0.55228 -0.44772,-1 -1,-1 h -6 c -0.55228,0 -1,0.44772 -1,1 0,0.55228 0.44772,1 1,1 z m 12,0 h 6 c 0.55228,0 1,-0.44772 1,-1 0,-0.55228 -0.44772,-1 -1,-1 h -6 c -0.55228,0 -1,0.44772 -1,1 0,0.55228 0.44772,1 1,1 z m 12,0 h 6 c 0.55228,0 1,-0.44772 1,-1 0,-0.55228 -0.44772,-1 -1,-1 h -6 c -0.55228,0 -1,0.44772 -1,1 0,0.55228 0.44772,1 1,1 z m 12,0 h 6 c 0.55228,0 1,-0.44772 1,-1 0,-0.55228 -0.44772,-1 -1,-1 h -6 c -0.55228,0 -1,0.44772 -1,1 0,0.55228 0.44772,1 1,1 z m 12,0 h 6 c 0.55228,0 1,-0.44772 1,-1 0,-0.55228 -0.44772,-1 -1,-1 h -6 c -0.55228,0 -1,0.44772 -1,1 0,0.55228 0.44772,1 1,1 z m 12,0 h 6 c 0.55228,0 1,-0.44772 1,-1 0,-0.55228 -0.44772,-1 -1,-1 h -6 c -0.55228,0 -1,0.44772 -1,1 0,0.55228 0.44772,1 1,1 z m 12,0 h 6 c 0.55228,0 1,-0.44772 1,-1 0,-0.55228 -0.44772,-1 -1,-1 h -6 c -0.55228,0 -1,0.44772 -1,1 0,0.55228 0.44772,1 1,1 z m 12,0 h 6 c 0.55228,0 1,-0.44772 1,-1 0,-0.55228 -0.44772,-1 -1,-1 h -6 c -0.55228,0 -1,0.44772 -1,1 0,0.55228 0.44772,1 1,1 z m 12,0 h 6 c 0.55228,0 1,-0.44772 1,-1 0,-0.55228 -0.44772,-1 -1,-1 h -6 c -0.55228,0 -1,0.44772 -1,1 0,0.55228 0.44772,1 1,1 z m 12,0 h 6 c 0.55228,0 1,-0.44772 1,-1 0,-0.55228 -0.44772,-1 -1,-1 h -6 c -0.55228,0 -1,0.44772 -1,1 0,0.55228 0.44772,1 1,1 z m 12,0 h 6 c 0.55228,0 1,-0.44772 1,-1 0,-0.55228 -0.44772,-1 -1,-1 h -6 c -0.55228,0 -1,0.44772 -1,1 0,0.55228 0.44772,1 1,1 z"
         id="path82"
         inkscape:connector-curvature="0"
         style="fill:#4c7ef3" />
      <path
         d="m 1110.216,733 v -11.28 h 2.064 v 9.584 h 5.264 V 733 Z m 15.568,-3.552 h -5.328 c 0.064,0.72534 0.2827,1.264 0.656,1.616 0.3733,0.352 0.9067,0.528 1.6,0.528 0.864,0 1.6533,-0.27733 2.368,-0.832 l 0.576,1.376 c -0.3627,0.29867 -0.8187,0.53867 -1.368,0.72 -0.5493,0.18133 -1.1013,0.272 -1.656,0.272 -1.28,0 -2.2907,-0.36266 -3.032,-1.088 -0.7413,-0.72534 -1.112,-1.71733 -1.112,-2.976 0,-0.8 0.16,-1.50933 0.48,-2.128 0.32,-0.61867 0.7707,-1.09866 1.352,-1.44 0.5813,-0.34134 1.24,-0.512 1.976,-0.512 1.0773,0 1.928,0.34666 2.552,1.04 0.624,0.69334 0.936,1.64799 0.936,2.864 z m -3.44,-3.056 c -0.5333,0 -0.9627,0.17066 -1.288,0.512 -0.3253,0.34133 -0.5253,0.832 -0.6,1.472 h 3.616 c -0.021,-0.65067 -0.1813,-1.144 -0.48,-1.48 -0.2987,-0.336 -0.7147,-0.504 -1.248,-0.504 z m 8.432,-1.408 c 1.0987,0 1.9147,0.26666 2.448,0.8 0.5333,0.53334 0.8,1.35466 0.8,2.464 V 733 h -1.904 v -1.2 c -0.1813,0.416 -0.4667,0.74133 -0.856,0.976 -0.3893,0.23467 -0.84,0.352 -1.352,0.352 -0.5227,0 -0.9973,-0.10667 -1.424,-0.32 -0.4267,-0.21333 -0.7627,-0.50667 -1.008,-0.88 -0.2453,-0.37334 -0.368,-0.78933 -0.368,-1.248 0,-0.576 0.1467,-1.02933 0.44,-1.36 0.2933,-0.33067 0.7707,-0.57067 1.432,-0.72 0.5952,-0.1344 1.3934,-0.20832 2.3947,-0.22176 l 0.7413,-0.002 v -0.368 c 0,-0.53334 -0.1147,-0.91733 -0.344,-1.152 -0.2293,-0.23467 -0.6107,-0.352 -1.144,-0.352 -0.416,0 -0.8507,0.072 -1.304,0.216 -0.4533,0.144 -0.8987,0.344 -1.336,0.6 l -0.56,-1.376 c 0.4373,-0.27734 0.9653,-0.50667 1.584,-0.688 0.6187,-0.18133 1.2053,-0.272 1.76,-0.272 z m -0.464,6.704 c 0.5333,0 0.968,-0.17867 1.304,-0.536 0.336,-0.35734 0.504,-0.81866 0.504,-1.384 v -0.336 h -0.288 c -0.7147,0 -1.2693,0.032 -1.664,0.096 -0.3947,0.064 -0.6773,0.176 -0.848,0.336 -0.1707,0.16 -0.256,0.37866 -0.256,0.656 0,0.34133 0.1173,0.62133 0.352,0.84 0.2347,0.21867 0.5333,0.328 0.896,0.328 z m 8.288,-6.512 h 2.064 v 1.504 H 1138.6 V 733 h -2 v -6.32 h -1.504 v -1.504 h 1.504 c 0,-1.12001 0.2907,-1.96266 0.872,-2.528 0.5813,-0.56534 1.4853,-0.88 2.712,-0.944 l 0.784,-0.048 0.128,1.488 -0.752,0.032 c -0.6293,0.032 -1.0773,0.17333 -1.344,0.424 -0.2667,0.25067 -0.4,0.65333 -0.4,1.208 z"
         id="path84"
         inkscape:connector-curvature="0"
         style="fill:#4c7ef3" />
      <path
         d="m 1038.5,729 h 6 c 0.5523,0 1,-0.44772 1,-1 0,-0.55228 -0.4477,-1 -1,-1 h -6 c -0.5523,0 -1,0.44772 -1,1 0,0.55228 0.4477,1 1,1 z m 12,0 h 6 c 0.5523,0 1,-0.44772 1,-1 0,-0.55228 -0.4477,-1 -1,-1 h -6 c -0.5523,0 -1,0.44772 -1,1 0,0.55228 0.4477,1 1,1 z m 12,0 h 6 c 0.5523,0 1,-0.44772 1,-1 0,-0.55228 -0.4477,-1 -1,-1 h -6 c -0.5523,0 -1,0.44772 -1,1 0,0.55228 0.4477,1 1,1 z m 12,0 h 6 c 0.5523,0 1,-0.44772 1,-1 0,-0.55228 -0.4477,-1 -1,-1 h -6 c -0.5523,0 -1,0.44772 -1,1 0,0.55228 0.4477,1 1,1 z m 12,0 h 6 c 0.5523,0 1,-0.44772 1,-1 0,-0.55228 -0.4477,-1 -1,-1 h -6 c -0.5523,0 -1,0.44772 -1,1 0,0.55228 0.4477,1 1,1 z m 12,0 h 6 c 0.5523,0 1,-0.44772 1,-1 0,-0.55228 -0.4477,-1 -1,-1 h -6 c -0.5523,0 -1,0.44772 -1,1 0,0.55228 0.4477,1 1,1 z"
         id="path86"
         inkscape:connector-curvature="0"
         style="fill:#4c7ef3" />
    </g>
  </g>
</svg>
