<?xml version="1.0" encoding="UTF-8"?>
<svg width="1214px" height="866px" viewBox="0 0 1214 866" version="1.1" xmlns="http://www.w3.org/2000/svg" xmlns:xlink="http://www.w3.org/1999/xlink">
    <!-- Generator: Sketch 51.3 (57544) - http://www.bohemiancoding.com/sketch -->
    <title>radix ex 2</title>
    <desc>Created with Sketch.</desc>
    <defs></defs>
    <g id="radix-ex-2" stroke="none" stroke-width="1" fill="none" fill-rule="evenodd">
        <rect id="Rectangle" fill="#245466" fill-rule="nonzero" x="349" y="246" width="351" height="91" rx="10"></rect>
        <rect id="Rectangle-Copy" fill="#245466" fill-rule="nonzero" x="349" y="386" width="398" height="91" rx="10"></rect>
        <rect id="Rectangle-Copy-2" fill="#245466" fill-rule="nonzero" x="349" y="527" width="514" height="91" rx="10"></rect>
        <path d="M378.181641,309.47168 C376.322256,309.47168 374.64405,309.160648 373.146973,308.538574 C371.649895,307.916501 370.436528,306.962897 369.506836,305.677734 C368.577144,304.392572 368.112305,302.868173 368.112305,301.104492 C368.112305,299.149404 368.672846,297.447273 369.793945,295.998047 C370.915045,294.548821 372.480459,293.496097 374.490234,292.839844 C370.66209,291.486321 368.748047,289.025408 368.748047,285.457031 C368.748047,283.037097 369.623038,281.143562 371.373047,279.776367 C373.123056,278.409173 375.392564,277.725586 378.181641,277.725586 C380.957045,277.725586 383.206046,278.409173 384.928711,279.776367 C386.651376,281.143562 387.512695,283.037097 387.512695,285.457031 C387.512695,287.261728 387.047856,288.779291 386.118164,290.009766 C385.188472,291.240241 383.889657,292.18359 382.22168,292.839844 C384.067392,293.496097 385.516596,294.548821 386.569336,295.998047 C387.622076,297.447273 388.148438,299.149404 388.148438,301.104492 C388.148438,303.729505 387.20167,305.780266 385.308105,307.256836 C383.414541,308.733406 381.039077,309.47168 378.181641,309.47168 Z M378.181641,294.583008 C376.226553,295.034182 374.661139,295.789545 373.485352,296.849121 C372.309564,297.908697 371.72168,299.245109 371.72168,300.858398 C371.72168,302.540047 372.330072,303.87646 373.546875,304.867676 C374.763678,305.858892 376.308584,306.354492 378.181641,306.354492 C380.054697,306.354492 381.582514,305.858892 382.765137,304.867676 C383.94776,303.87646 384.539062,302.540047 384.539062,300.858398 C384.539062,299.231437 383.964849,297.888189 382.816406,296.828613 C381.667963,295.769038 380.123057,295.02051 378.181641,294.583008 Z M378.181641,280.842773 C376.568351,280.842773 375.19776,281.24609 374.069824,282.052734 C372.941889,282.859379 372.37793,283.96679 372.37793,285.375 C372.37793,288.601579 374.312481,290.645504 378.181641,291.506836 C381.996113,290.645504 383.90332,288.601579 383.90332,285.375 C383.90332,283.96679 383.349615,282.859379 382.242188,282.052734 C381.13476,281.24609 379.781258,280.842773 378.181641,280.842773 Z M403.426758,301.268555 L403.426758,298.356445 L423.216797,298.356445 L423.216797,301.268555 L403.426758,301.268555 Z M403.40625,292.614258 L403.40625,289.661133 L423.216797,289.661133 L423.216797,292.614258 L403.40625,292.614258 Z M448.564453,309.47168 C446.705069,309.47168 445.026863,309.160648 443.529785,308.538574 C442.032707,307.916501 440.819341,306.962897 439.889648,305.677734 C438.959956,304.392572 438.495117,302.868173 438.495117,301.104492 C438.495117,299.149404 439.055658,297.447273 440.176758,295.998047 C441.297857,294.548821 442.863271,293.496097 444.873047,292.839844 C441.044903,291.486321 439.130859,289.025408 439.130859,285.457031 C439.130859,283.037097 440.005851,281.143562 441.755859,279.776367 C443.505868,278.409173 445.775377,277.725586 448.564453,277.725586 C451.339858,277.725586 453.588859,278.409173 455.311523,279.776367 C457.034188,281.143562 457.895508,283.037097 457.895508,285.457031 C457.895508,287.261728 457.430669,288.779291 456.500977,290.009766 C455.571284,291.240241 454.272469,292.18359 452.604492,292.839844 C454.450205,293.496097 455.899409,294.548821 456.952148,295.998047 C458.004888,297.447273 458.53125,299.149404 458.53125,301.104492 C458.53125,303.729505 457.584482,305.780266 455.690918,307.256836 C453.797354,308.733406 451.421889,309.47168 448.564453,309.47168 Z M448.564453,294.583008 C446.609365,295.034182 445.043951,295.789545 443.868164,296.849121 C442.692377,297.908697 442.104492,299.245109 442.104492,300.858398 C442.104492,302.540047 442.712885,303.87646 443.929688,304.867676 C445.14649,305.858892 446.691397,306.354492 448.564453,306.354492 C450.437509,306.354492 451.965326,305.858892 453.147949,304.867676 C454.330572,303.87646 454.921875,302.540047 454.921875,300.858398 C454.921875,299.231437 454.347662,297.888189 453.199219,296.828613 C452.050776,295.769038 450.505869,295.02051 448.564453,294.583008 Z M448.564453,280.842773 C446.951164,280.842773 445.580572,281.24609 444.452637,282.052734 C443.324701,282.859379 442.760742,283.96679 442.760742,285.375 C442.760742,288.601579 444.695293,290.645504 448.564453,291.506836 C452.378925,290.645504 454.286133,288.601579 454.286133,285.375 C454.286133,283.96679 453.732427,282.859379 452.625,282.052734 C451.517573,281.24609 450.16407,280.842773 448.564453,280.842773 Z M479.982422,297.556641 L472.045898,286.50293 L475.962891,286.50293 L481.97168,295.075195 L488.000977,286.50293 L491.917969,286.50293 L483.960938,297.597656 L492.123047,309 L488.329102,309 L481.992188,299.956055 L475.655273,309 L471.738281,309 L479.982422,297.556641 Z M509.452148,278.320312 L512.712891,278.320312 L512.712891,309 L509.083008,309 L509.083008,282.114258 C507.702142,283.016606 506.013682,283.789059 504.017578,284.431641 L504.017578,281.006836 C504.236329,280.911132 504.680661,280.719728 505.350586,280.432617 C506.020511,280.145506 506.522948,279.926759 506.85791,279.776367 C507.192873,279.625976 507.613279,279.414064 508.119141,279.140625 C508.625003,278.867186 509.069334,278.593751 509.452148,278.320312 Z M529.283203,301.268555 L529.283203,298.356445 L549.073242,298.356445 L549.073242,301.268555 L529.283203,301.268555 Z M529.262695,292.614258 L529.262695,289.661133 L549.073242,289.661133 L549.073242,292.614258 L529.262695,292.614258 Z M574.420898,309.47168 C572.561514,309.47168 570.883308,309.160648 569.38623,308.538574 C567.889153,307.916501 566.675786,306.962897 565.746094,305.677734 C564.816402,304.392572 564.351562,302.868173 564.351562,301.104492 C564.351562,299.149404 564.912104,297.447273 566.033203,295.998047 C567.154302,294.548821 568.719717,293.496097 570.729492,292.839844 C566.901348,291.486321 564.987305,289.025408 564.987305,285.457031 C564.987305,283.037097 565.862296,281.143562 567.612305,279.776367 C569.362313,278.409173 571.631822,277.725586 574.420898,277.725586 C577.196303,277.725586 579.445304,278.409173 581.167969,279.776367 C582.890634,281.143562 583.751953,283.037097 583.751953,285.457031 C583.751953,287.261728 583.287114,288.779291 582.357422,290.009766 C581.42773,291.240241 580.128915,292.18359 578.460938,292.839844 C580.30665,293.496097 581.755854,294.548821 582.808594,295.998047 C583.861333,297.447273 584.387695,299.149404 584.387695,301.104492 C584.387695,303.729505 583.440927,305.780266 581.547363,307.256836 C579.653799,308.733406 577.278335,309.47168 574.420898,309.47168 Z M574.420898,294.583008 C572.465811,295.034182 570.900397,295.789545 569.724609,296.849121 C568.548822,297.908697 567.960938,299.245109 567.960938,300.858398 C567.960938,302.540047 568.56933,303.87646 569.786133,304.867676 C571.002936,305.858892 572.547842,306.354492 574.420898,306.354492 C576.293955,306.354492 577.821771,305.858892 579.004395,304.867676 C580.187018,303.87646 580.77832,302.540047 580.77832,300.858398 C580.77832,299.231437 580.204107,297.888189 579.055664,296.828613 C577.907221,295.769038 576.362314,295.02051 574.420898,294.583008 Z M574.420898,280.842773 C572.807609,280.842773 571.437017,281.24609 570.309082,282.052734 C569.181147,282.859379 568.617188,283.96679 568.617188,285.375 C568.617188,288.601579 570.551738,290.645504 574.420898,291.506836 C578.235371,290.645504 580.142578,288.601579 580.142578,285.375 C580.142578,283.96679 579.588873,282.859379 578.481445,282.052734 C577.374018,281.24609 576.020516,280.842773 574.420898,280.842773 Z M605.838867,297.556641 L597.902344,286.50293 L601.819336,286.50293 L607.828125,295.075195 L613.857422,286.50293 L617.774414,286.50293 L609.817383,297.597656 L617.979492,309 L614.185547,309 L607.848633,299.956055 L601.511719,309 L597.594727,309 L605.838867,297.556641 Z M635.308594,278.320312 L638.569336,278.320312 L638.569336,309 L634.939453,309 L634.939453,282.114258 C633.558587,283.016606 631.870127,283.789059 629.874023,284.431641 L629.874023,281.006836 C630.092775,280.911132 630.537106,280.719728 631.207031,280.432617 C631.876956,280.145506 632.379393,279.926759 632.714355,279.776367 C633.049318,279.625976 633.469724,279.414064 633.975586,279.140625 C634.481448,278.867186 634.925779,278.593751 635.308594,278.320312 Z M654.708984,309.47168 C652.890616,309.47168 651.297858,309.071781 649.930664,308.271973 C648.56347,307.472164 647.466313,306.347663 646.63916,304.898438 C645.812008,303.449212 645.196779,301.781259 644.793457,299.894531 C644.390135,298.007803 644.188477,295.909191 644.188477,293.598633 C644.188477,291.698233 644.321776,289.941414 644.588379,288.328125 C644.854982,286.714836 645.268552,285.25196 645.829102,283.939453 C646.389651,282.626947 647.083492,281.5127 647.910645,280.59668 C648.737797,279.680659 649.72558,278.973147 650.874023,278.474121 C652.022467,277.975095 653.300774,277.725586 654.708984,277.725586 C656.458993,277.725586 658.007317,278.108395 659.354004,278.874023 C660.70069,279.639652 661.794429,280.729973 662.635254,282.14502 C663.476078,283.560066 664.108396,285.228018 664.532227,287.148926 C664.956057,289.069834 665.167969,291.219715 665.167969,293.598633 C665.167969,295.909191 664.969729,298.007803 664.573242,299.894531 C664.176756,301.781259 663.568363,303.449212 662.748047,304.898438 C661.92773,306.347663 660.837409,307.472164 659.477051,308.271973 C658.116692,309.071781 656.527353,309.47168 654.708984,309.47168 Z M654.708984,280.842773 C653.314446,280.842773 652.118169,281.393061 651.120117,282.493652 C650.122065,283.594244 649.373538,285.084463 648.874512,286.964355 C648.375486,288.844248 648.125977,291.014636 648.125977,293.475586 C648.125977,295.977552 648.375486,298.188955 648.874512,300.109863 C649.373538,302.030771 650.122065,303.551752 651.120117,304.672852 C652.118169,305.793951 653.314446,306.354492 654.708984,306.354492 C656.103523,306.354492 657.2998,305.793951 658.297852,304.672852 C659.295903,303.551752 660.044431,302.030771 660.543457,300.109863 C661.042483,298.188955 661.291992,295.977552 661.291992,293.475586 C661.291992,291.014636 661.042483,288.844248 660.543457,286.964355 C660.044431,285.084463 659.295903,283.594244 658.297852,282.493652 C657.2998,281.393061 656.103523,280.842773 654.708984,280.842773 Z" id="8-=-8-x-1-=-8-x-10" fill="#37C3BE"></path>
        <path d="M378.181641,449.47168 C376.322256,449.47168 374.64405,449.160648 373.146973,448.538574 C371.649895,447.916501 370.436528,446.962897 369.506836,445.677734 C368.577144,444.392572 368.112305,442.868173 368.112305,441.104492 C368.112305,439.149404 368.672846,437.447273 369.793945,435.998047 C370.915045,434.548821 372.480459,433.496097 374.490234,432.839844 C370.66209,431.486321 368.748047,429.025408 368.748047,425.457031 C368.748047,423.037097 369.623038,421.143562 371.373047,419.776367 C373.123056,418.409173 375.392564,417.725586 378.181641,417.725586 C380.957045,417.725586 383.206046,418.409173 384.928711,419.776367 C386.651376,421.143562 387.512695,423.037097 387.512695,425.457031 C387.512695,427.261728 387.047856,428.779291 386.118164,430.009766 C385.188472,431.240241 383.889657,432.18359 382.22168,432.839844 C384.067392,433.496097 385.516596,434.548821 386.569336,435.998047 C387.622076,437.447273 388.148438,439.149404 388.148438,441.104492 C388.148438,443.729505 387.20167,445.780266 385.308105,447.256836 C383.414541,448.733406 381.039077,449.47168 378.181641,449.47168 Z M378.181641,434.583008 C376.226553,435.034182 374.661139,435.789545 373.485352,436.849121 C372.309564,437.908697 371.72168,439.245109 371.72168,440.858398 C371.72168,442.540047 372.330072,443.87646 373.546875,444.867676 C374.763678,445.858892 376.308584,446.354492 378.181641,446.354492 C380.054697,446.354492 381.582514,445.858892 382.765137,444.867676 C383.94776,443.87646 384.539062,442.540047 384.539062,440.858398 C384.539062,439.231437 383.964849,437.888189 382.816406,436.828613 C381.667963,435.769038 380.123057,435.02051 378.181641,434.583008 Z M378.181641,420.842773 C376.568351,420.842773 375.19776,421.24609 374.069824,422.052734 C372.941889,422.859379 372.37793,423.96679 372.37793,425.375 C372.37793,428.601579 374.312481,430.645504 378.181641,431.506836 C381.996113,430.645504 383.90332,428.601579 383.90332,425.375 C383.90332,423.96679 383.349615,422.859379 382.242188,422.052734 C381.13476,421.24609 379.781258,420.842773 378.181641,420.842773 Z M402.996094,449.47168 C401.177725,449.47168 399.584968,449.071781 398.217773,448.271973 C396.850579,447.472164 395.753422,446.347663 394.92627,444.898438 C394.099117,443.449212 393.483889,441.781259 393.080566,439.894531 C392.677244,438.007803 392.475586,435.909191 392.475586,433.598633 C392.475586,431.698233 392.608885,429.941414 392.875488,428.328125 C393.142091,426.714836 393.555661,425.25196 394.116211,423.939453 C394.676761,422.626947 395.370601,421.5127 396.197754,420.59668 C397.024906,419.680659 398.01269,418.973147 399.161133,418.474121 C400.309576,417.975095 401.587884,417.725586 402.996094,417.725586 C404.746103,417.725586 406.294427,418.108395 407.641113,418.874023 C408.9878,419.639652 410.081539,420.729973 410.922363,422.14502 C411.763188,423.560066 412.395506,425.228018 412.819336,427.148926 C413.243166,429.069834 413.455078,431.219715 413.455078,433.598633 C413.455078,435.909191 413.256838,438.007803 412.860352,439.894531 C412.463865,441.781259 411.855473,443.449212 411.035156,444.898438 C410.21484,446.347663 409.124519,447.472164 407.76416,448.271973 C406.403802,449.071781 404.814462,449.47168 402.996094,449.47168 Z M402.996094,420.842773 C401.601556,420.842773 400.405278,421.393061 399.407227,422.493652 C398.409175,423.594244 397.660647,425.084463 397.161621,426.964355 C396.662595,428.844248 396.413086,431.014636 396.413086,433.475586 C396.413086,435.977552 396.662595,438.188955 397.161621,440.109863 C397.660647,442.030771 398.409175,443.551752 399.407227,444.672852 C400.405278,445.793951 401.601556,446.354492 402.996094,446.354492 C404.390632,446.354492 405.586909,445.793951 406.584961,444.672852 C407.583013,443.551752 408.33154,442.030771 408.830566,440.109863 C409.329592,438.188955 409.579102,435.977552 409.579102,433.475586 C409.579102,431.014636 409.329592,428.844248 408.830566,426.964355 C408.33154,425.084463 407.583013,423.594244 406.584961,422.493652 C405.586909,421.393061 404.390632,420.842773 402.996094,420.842773 Z M428.876953,441.268555 L428.876953,438.356445 L448.666992,438.356445 L448.666992,441.268555 L428.876953,441.268555 Z M428.856445,432.614258 L428.856445,429.661133 L448.666992,429.661133 L448.666992,432.614258 L428.856445,432.614258 Z M474.014648,449.47168 C472.155264,449.47168 470.477058,449.160648 468.97998,448.538574 C467.482903,447.916501 466.269536,446.962897 465.339844,445.677734 C464.410152,444.392572 463.945312,442.868173 463.945312,441.104492 C463.945312,439.149404 464.505854,437.447273 465.626953,435.998047 C466.748052,434.548821 468.313467,433.496097 470.323242,432.839844 C466.495098,431.486321 464.581055,429.025408 464.581055,425.457031 C464.581055,423.037097 465.456046,421.143562 467.206055,419.776367 C468.956063,418.409173 471.225572,417.725586 474.014648,417.725586 C476.790053,417.725586 479.039054,418.409173 480.761719,419.776367 C482.484384,421.143562 483.345703,423.037097 483.345703,425.457031 C483.345703,427.261728 482.880864,428.779291 481.951172,430.009766 C481.02148,431.240241 479.722665,432.18359 478.054688,432.839844 C479.9004,433.496097 481.349604,434.548821 482.402344,435.998047 C483.455083,437.447273 483.981445,439.149404 483.981445,441.104492 C483.981445,443.729505 483.034677,445.780266 481.141113,447.256836 C479.247549,448.733406 476.872085,449.47168 474.014648,449.47168 Z M474.014648,434.583008 C472.059561,435.034182 470.494147,435.789545 469.318359,436.849121 C468.142572,437.908697 467.554688,439.245109 467.554688,440.858398 C467.554688,442.540047 468.16308,443.87646 469.379883,444.867676 C470.596686,445.858892 472.141592,446.354492 474.014648,446.354492 C475.887705,446.354492 477.415521,445.858892 478.598145,444.867676 C479.780768,443.87646 480.37207,442.540047 480.37207,440.858398 C480.37207,439.231437 479.797857,437.888189 478.649414,436.828613 C477.500971,435.769038 475.956064,435.02051 474.014648,434.583008 Z M474.014648,420.842773 C472.401359,420.842773 471.030767,421.24609 469.902832,422.052734 C468.774897,422.859379 468.210938,423.96679 468.210938,425.375 C468.210938,428.601579 470.145488,430.645504 474.014648,431.506836 C477.829121,430.645504 479.736328,428.601579 479.736328,425.375 C479.736328,423.96679 479.182623,422.859379 478.075195,422.052734 C476.967768,421.24609 475.614266,420.842773 474.014648,420.842773 Z M505.432617,437.556641 L497.496094,426.50293 L501.413086,426.50293 L507.421875,435.075195 L513.451172,426.50293 L517.368164,426.50293 L509.411133,437.597656 L517.573242,449 L513.779297,449 L507.442383,439.956055 L501.105469,449 L497.188477,449 L505.432617,437.556641 Z M534.902344,418.320312 L538.163086,418.320312 L538.163086,449 L534.533203,449 L534.533203,422.114258 C533.152337,423.016606 531.463877,423.789059 529.467773,424.431641 L529.467773,421.006836 C529.686525,420.911132 530.130856,420.719728 530.800781,420.432617 C531.470706,420.145506 531.973143,419.926759 532.308105,419.776367 C532.643068,419.625976 533.063474,419.414064 533.569336,419.140625 C534.075198,418.867186 534.519529,418.593751 534.902344,418.320312 Z M554.302734,449.47168 C552.484366,449.47168 550.891608,449.071781 549.524414,448.271973 C548.15722,447.472164 547.060063,446.347663 546.23291,444.898438 C545.405758,443.449212 544.790529,441.781259 544.387207,439.894531 C543.983885,438.007803 543.782227,435.909191 543.782227,433.598633 C543.782227,431.698233 543.915526,429.941414 544.182129,428.328125 C544.448732,426.714836 544.862302,425.25196 545.422852,423.939453 C545.983401,422.626947 546.677242,421.5127 547.504395,420.59668 C548.331547,419.680659 549.31933,418.973147 550.467773,418.474121 C551.616217,417.975095 552.894524,417.725586 554.302734,417.725586 C556.052743,417.725586 557.601067,418.108395 558.947754,418.874023 C560.29444,419.639652 561.388179,420.729973 562.229004,422.14502 C563.069828,423.560066 563.702146,425.228018 564.125977,427.148926 C564.549807,429.069834 564.761719,431.219715 564.761719,433.598633 C564.761719,435.909191 564.563479,438.007803 564.166992,439.894531 C563.770506,441.781259 563.162113,443.449212 562.341797,444.898438 C561.52148,446.347663 560.431159,447.472164 559.070801,448.271973 C557.710442,449.071781 556.121103,449.47168 554.302734,449.47168 Z M554.302734,420.842773 C552.908196,420.842773 551.711919,421.393061 550.713867,422.493652 C549.715815,423.594244 548.967288,425.084463 548.468262,426.964355 C547.969236,428.844248 547.719727,431.014636 547.719727,433.475586 C547.719727,435.977552 547.969236,438.188955 548.468262,440.109863 C548.967288,442.030771 549.715815,443.551752 550.713867,444.672852 C551.711919,445.793951 552.908196,446.354492 554.302734,446.354492 C555.697273,446.354492 556.89355,445.793951 557.891602,444.672852 C558.889653,443.551752 559.638181,442.030771 560.137207,440.109863 C560.636233,438.188955 560.885742,435.977552 560.885742,433.475586 C560.885742,431.014636 560.636233,428.844248 560.137207,426.964355 C559.638181,425.084463 558.889653,423.594244 557.891602,422.493652 C556.89355,421.393061 555.697273,420.842773 554.302734,420.842773 Z M580.183594,441.268555 L580.183594,438.356445 L599.973633,438.356445 L599.973633,441.268555 L580.183594,441.268555 Z M580.163086,432.614258 L580.163086,429.661133 L599.973633,429.661133 L599.973633,432.614258 L580.163086,432.614258 Z M625.321289,449.47168 C623.461905,449.47168 621.783699,449.160648 620.286621,448.538574 C618.789543,447.916501 617.576177,446.962897 616.646484,445.677734 C615.716792,444.392572 615.251953,442.868173 615.251953,441.104492 C615.251953,439.149404 615.812494,437.447273 616.933594,435.998047 C618.054693,434.548821 619.620107,433.496097 621.629883,432.839844 C617.801739,431.486321 615.887695,429.025408 615.887695,425.457031 C615.887695,423.037097 616.762687,421.143562 618.512695,419.776367 C620.262704,418.409173 622.532213,417.725586 625.321289,417.725586 C628.096694,417.725586 630.345695,418.409173 632.068359,419.776367 C633.791024,421.143562 634.652344,423.037097 634.652344,425.457031 C634.652344,427.261728 634.187505,428.779291 633.257812,430.009766 C632.32812,431.240241 631.029305,432.18359 629.361328,432.839844 C631.20704,433.496097 632.656245,434.548821 633.708984,435.998047 C634.761724,437.447273 635.288086,439.149404 635.288086,441.104492 C635.288086,443.729505 634.341318,445.780266 632.447754,447.256836 C630.55419,448.733406 628.178725,449.47168 625.321289,449.47168 Z M625.321289,434.583008 C623.366201,435.034182 621.800787,435.789545 620.625,436.849121 C619.449213,437.908697 618.861328,439.245109 618.861328,440.858398 C618.861328,442.540047 619.46972,443.87646 620.686523,444.867676 C621.903326,445.858892 623.448233,446.354492 625.321289,446.354492 C627.194345,446.354492 628.722162,445.858892 629.904785,444.867676 C631.087408,443.87646 631.678711,442.540047 631.678711,440.858398 C631.678711,439.231437 631.104498,437.888189 629.956055,436.828613 C628.807611,435.769038 627.262705,435.02051 625.321289,434.583008 Z M625.321289,420.842773 C623.708,420.842773 622.337408,421.24609 621.209473,422.052734 C620.081537,422.859379 619.517578,423.96679 619.517578,425.375 C619.517578,428.601579 621.452129,430.645504 625.321289,431.506836 C629.135761,430.645504 631.042969,428.601579 631.042969,425.375 C631.042969,423.96679 630.489263,422.859379 629.381836,422.052734 C628.274409,421.24609 626.920906,420.842773 625.321289,420.842773 Z M656.739258,437.556641 L648.802734,426.50293 L652.719727,426.50293 L658.728516,435.075195 L664.757812,426.50293 L668.674805,426.50293 L660.717773,437.597656 L668.879883,449 L665.085938,449 L658.749023,439.956055 L652.412109,449 L648.495117,449 L656.739258,437.556641 Z M686.208984,418.320312 L689.469727,418.320312 L689.469727,449 L685.839844,449 L685.839844,422.114258 C684.458977,423.016606 682.770518,423.789059 680.774414,424.431641 L680.774414,421.006836 C680.993165,420.911132 681.437497,420.719728 682.107422,420.432617 C682.777347,420.145506 683.279783,419.926759 683.614746,419.776367 C683.949709,419.625976 684.370115,419.414064 684.875977,419.140625 C685.381838,418.867186 685.82617,418.593751 686.208984,418.320312 Z M705.609375,449.47168 C703.791007,449.47168 702.198249,449.071781 700.831055,448.271973 C699.46386,447.472164 698.366703,446.347663 697.539551,444.898438 C696.712398,443.449212 696.09717,441.781259 695.693848,439.894531 C695.290525,438.007803 695.088867,435.909191 695.088867,433.598633 C695.088867,431.698233 695.222167,429.941414 695.48877,428.328125 C695.755372,426.714836 696.168943,425.25196 696.729492,423.939453 C697.290042,422.626947 697.983883,421.5127 698.811035,420.59668 C699.638188,419.680659 700.625971,418.973147 701.774414,418.474121 C702.922857,417.975095 704.201165,417.725586 705.609375,417.725586 C707.359384,417.725586 708.907708,418.108395 710.254395,418.874023 C711.601081,419.639652 712.69482,420.729973 713.535645,422.14502 C714.376469,423.560066 715.008787,425.228018 715.432617,427.148926 C715.856447,429.069834 716.068359,431.219715 716.068359,433.598633 C716.068359,435.909191 715.870119,438.007803 715.473633,439.894531 C715.077146,441.781259 714.468754,443.449212 713.648438,444.898438 C712.828121,446.347663 711.7378,447.472164 710.377441,448.271973 C709.017083,449.071781 707.427743,449.47168 705.609375,449.47168 Z M705.609375,420.842773 C704.214837,420.842773 703.01856,421.393061 702.020508,422.493652 C701.022456,423.594244 700.273928,425.084463 699.774902,426.964355 C699.275876,428.844248 699.026367,431.014636 699.026367,433.475586 C699.026367,435.977552 699.275876,438.188955 699.774902,440.109863 C700.273928,442.030771 701.022456,443.551752 702.020508,444.672852 C703.01856,445.793951 704.214837,446.354492 705.609375,446.354492 C707.003913,446.354492 708.20019,445.793951 709.198242,444.672852 C710.196294,443.551752 710.944822,442.030771 711.443848,440.109863 C711.942874,438.188955 712.192383,435.977552 712.192383,433.475586 C712.192383,431.014636 711.942874,428.844248 711.443848,426.964355 C710.944822,425.084463 710.196294,423.594244 709.198242,422.493652 C708.20019,421.393061 707.003913,420.842773 705.609375,420.842773 Z" id="80-=-8-x-10-=-8-x-10" fill="#37C3BE"></path>
        <path d="M378.181641,590.47168 C376.322256,590.47168 374.64405,590.160648 373.146973,589.538574 C371.649895,588.916501 370.436528,587.962897 369.506836,586.677734 C368.577144,585.392572 368.112305,583.868173 368.112305,582.104492 C368.112305,580.149404 368.672846,578.447273 369.793945,576.998047 C370.915045,575.548821 372.480459,574.496097 374.490234,573.839844 C370.66209,572.486321 368.748047,570.025408 368.748047,566.457031 C368.748047,564.037097 369.623038,562.143562 371.373047,560.776367 C373.123056,559.409173 375.392564,558.725586 378.181641,558.725586 C380.957045,558.725586 383.206046,559.409173 384.928711,560.776367 C386.651376,562.143562 387.512695,564.037097 387.512695,566.457031 C387.512695,568.261728 387.047856,569.779291 386.118164,571.009766 C385.188472,572.240241 383.889657,573.18359 382.22168,573.839844 C384.067392,574.496097 385.516596,575.548821 386.569336,576.998047 C387.622076,578.447273 388.148438,580.149404 388.148438,582.104492 C388.148438,584.729505 387.20167,586.780266 385.308105,588.256836 C383.414541,589.733406 381.039077,590.47168 378.181641,590.47168 Z M378.181641,575.583008 C376.226553,576.034182 374.661139,576.789545 373.485352,577.849121 C372.309564,578.908697 371.72168,580.245109 371.72168,581.858398 C371.72168,583.540047 372.330072,584.87646 373.546875,585.867676 C374.763678,586.858892 376.308584,587.354492 378.181641,587.354492 C380.054697,587.354492 381.582514,586.858892 382.765137,585.867676 C383.94776,584.87646 384.539062,583.540047 384.539062,581.858398 C384.539062,580.231437 383.964849,578.888189 382.816406,577.828613 C381.667963,576.769038 380.123057,576.02051 378.181641,575.583008 Z M378.181641,561.842773 C376.568351,561.842773 375.19776,562.24609 374.069824,563.052734 C372.941889,563.859379 372.37793,564.96679 372.37793,566.375 C372.37793,569.601579 374.312481,571.645504 378.181641,572.506836 C381.996113,571.645504 383.90332,569.601579 383.90332,566.375 C383.90332,564.96679 383.349615,563.859379 382.242188,563.052734 C381.13476,562.24609 379.781258,561.842773 378.181641,561.842773 Z M402.996094,590.47168 C401.177725,590.47168 399.584968,590.071781 398.217773,589.271973 C396.850579,588.472164 395.753422,587.347663 394.92627,585.898438 C394.099117,584.449212 393.483889,582.781259 393.080566,580.894531 C392.677244,579.007803 392.475586,576.909191 392.475586,574.598633 C392.475586,572.698233 392.608885,570.941414 392.875488,569.328125 C393.142091,567.714836 393.555661,566.25196 394.116211,564.939453 C394.676761,563.626947 395.370601,562.5127 396.197754,561.59668 C397.024906,560.680659 398.01269,559.973147 399.161133,559.474121 C400.309576,558.975095 401.587884,558.725586 402.996094,558.725586 C404.746103,558.725586 406.294427,559.108395 407.641113,559.874023 C408.9878,560.639652 410.081539,561.729973 410.922363,563.14502 C411.763188,564.560066 412.395506,566.228018 412.819336,568.148926 C413.243166,570.069834 413.455078,572.219715 413.455078,574.598633 C413.455078,576.909191 413.256838,579.007803 412.860352,580.894531 C412.463865,582.781259 411.855473,584.449212 411.035156,585.898438 C410.21484,587.347663 409.124519,588.472164 407.76416,589.271973 C406.403802,590.071781 404.814462,590.47168 402.996094,590.47168 Z M402.996094,561.842773 C401.601556,561.842773 400.405278,562.393061 399.407227,563.493652 C398.409175,564.594244 397.660647,566.084463 397.161621,567.964355 C396.662595,569.844248 396.413086,572.014636 396.413086,574.475586 C396.413086,576.977552 396.662595,579.188955 397.161621,581.109863 C397.660647,583.030771 398.409175,584.551752 399.407227,585.672852 C400.405278,586.793951 401.601556,587.354492 402.996094,587.354492 C404.390632,587.354492 405.586909,586.793951 406.584961,585.672852 C407.583013,584.551752 408.33154,583.030771 408.830566,581.109863 C409.329592,579.188955 409.579102,576.977552 409.579102,574.475586 C409.579102,572.014636 409.329592,569.844248 408.830566,567.964355 C408.33154,566.084463 407.583013,564.594244 406.584961,563.493652 C405.586909,562.393061 404.390632,561.842773 402.996094,561.842773 Z M428.446289,590.47168 C426.627921,590.47168 425.035163,590.071781 423.667969,589.271973 C422.300774,588.472164 421.203617,587.347663 420.376465,585.898438 C419.549312,584.449212 418.934084,582.781259 418.530762,580.894531 C418.127439,579.007803 417.925781,576.909191 417.925781,574.598633 C417.925781,572.698233 418.059081,570.941414 418.325684,569.328125 C418.592286,567.714836 419.005857,566.25196 419.566406,564.939453 C420.126956,563.626947 420.820797,562.5127 421.647949,561.59668 C422.475102,560.680659 423.462885,559.973147 424.611328,559.474121 C425.759771,558.975095 427.038079,558.725586 428.446289,558.725586 C430.196298,558.725586 431.744622,559.108395 433.091309,559.874023 C434.437995,560.639652 435.531734,561.729973 436.372559,563.14502 C437.213383,564.560066 437.845701,566.228018 438.269531,568.148926 C438.693361,570.069834 438.905273,572.219715 438.905273,574.598633 C438.905273,576.909191 438.707033,579.007803 438.310547,580.894531 C437.914061,582.781259 437.305668,584.449212 436.485352,585.898438 C435.665035,587.347663 434.574714,588.472164 433.214355,589.271973 C431.853997,590.071781 430.264658,590.47168 428.446289,590.47168 Z M428.446289,561.842773 C427.051751,561.842773 425.855474,562.393061 424.857422,563.493652 C423.85937,564.594244 423.110842,566.084463 422.611816,567.964355 C422.11279,569.844248 421.863281,572.014636 421.863281,574.475586 C421.863281,576.977552 422.11279,579.188955 422.611816,581.109863 C423.110842,583.030771 423.85937,584.551752 424.857422,585.672852 C425.855474,586.793951 427.051751,587.354492 428.446289,587.354492 C429.840827,587.354492 431.037104,586.793951 432.035156,585.672852 C433.033208,584.551752 433.781736,583.030771 434.280762,581.109863 C434.779788,579.188955 435.029297,576.977552 435.029297,574.475586 C435.029297,572.014636 434.779788,569.844248 434.280762,567.964355 C433.781736,566.084463 433.033208,564.594244 432.035156,563.493652 C431.037104,562.393061 429.840827,561.842773 428.446289,561.842773 Z M454.327148,582.268555 L454.327148,579.356445 L474.117188,579.356445 L474.117188,582.268555 L454.327148,582.268555 Z M454.306641,573.614258 L454.306641,570.661133 L474.117188,570.661133 L474.117188,573.614258 L454.306641,573.614258 Z M499.464844,590.47168 C497.605459,590.47168 495.927254,590.160648 494.430176,589.538574 C492.933098,588.916501 491.719731,587.962897 490.790039,586.677734 C489.860347,585.392572 489.395508,583.868173 489.395508,582.104492 C489.395508,580.149404 489.956049,578.447273 491.077148,576.998047 C492.198248,575.548821 493.763662,574.496097 495.773438,573.839844 C491.945293,572.486321 490.03125,570.025408 490.03125,566.457031 C490.03125,564.037097 490.906241,562.143562 492.65625,560.776367 C494.406259,559.409173 496.675767,558.725586 499.464844,558.725586 C502.240248,558.725586 504.489249,559.409173 506.211914,560.776367 C507.934579,562.143562 508.795898,564.037097 508.795898,566.457031 C508.795898,568.261728 508.331059,569.779291 507.401367,571.009766 C506.471675,572.240241 505.17286,573.18359 503.504883,573.839844 C505.350595,574.496097 506.799799,575.548821 507.852539,576.998047 C508.905279,578.447273 509.431641,580.149404 509.431641,582.104492 C509.431641,584.729505 508.484873,586.780266 506.591309,588.256836 C504.697744,589.733406 502.32228,590.47168 499.464844,590.47168 Z M499.464844,575.583008 C497.509756,576.034182 495.944342,576.789545 494.768555,577.849121 C493.592768,578.908697 493.004883,580.245109 493.004883,581.858398 C493.004883,583.540047 493.613275,584.87646 494.830078,585.867676 C496.046881,586.858892 497.591788,587.354492 499.464844,587.354492 C501.3379,587.354492 502.865717,586.858892 504.04834,585.867676 C505.230963,584.87646 505.822266,583.540047 505.822266,581.858398 C505.822266,580.231437 505.248053,578.888189 504.099609,577.828613 C502.951166,576.769038 501.40626,576.02051 499.464844,575.583008 Z M499.464844,561.842773 C497.851554,561.842773 496.480963,562.24609 495.353027,563.052734 C494.225092,563.859379 493.661133,564.96679 493.661133,566.375 C493.661133,569.601579 495.595684,571.645504 499.464844,572.506836 C503.279316,571.645504 505.186523,569.601579 505.186523,566.375 C505.186523,564.96679 504.632818,563.859379 503.525391,563.052734 C502.417963,562.24609 501.064461,561.842773 499.464844,561.842773 Z M530.882812,578.556641 L522.946289,567.50293 L526.863281,567.50293 L532.87207,576.075195 L538.901367,567.50293 L542.818359,567.50293 L534.861328,578.597656 L543.023438,590 L539.229492,590 L532.892578,580.956055 L526.555664,590 L522.638672,590 L530.882812,578.556641 Z M560.352539,559.320312 L563.613281,559.320312 L563.613281,590 L559.983398,590 L559.983398,563.114258 C558.602532,564.016606 556.914072,564.789059 554.917969,565.431641 L554.917969,562.006836 C555.13672,561.911132 555.581051,561.719728 556.250977,561.432617 C556.920902,561.145506 557.423338,560.926759 557.758301,560.776367 C558.093263,560.625976 558.513669,560.414064 559.019531,560.140625 C559.525393,559.867186 559.969725,559.593751 560.352539,559.320312 Z M579.75293,590.47168 C577.934561,590.47168 576.341804,590.071781 574.974609,589.271973 C573.607415,588.472164 572.510258,587.347663 571.683105,585.898438 C570.855953,584.449212 570.240725,582.781259 569.837402,580.894531 C569.43408,579.007803 569.232422,576.909191 569.232422,574.598633 C569.232422,572.698233 569.365721,570.941414 569.632324,569.328125 C569.898927,567.714836 570.312497,566.25196 570.873047,564.939453 C571.433597,563.626947 572.127437,562.5127 572.95459,561.59668 C573.781742,560.680659 574.769526,559.973147 575.917969,559.474121 C577.066412,558.975095 578.34472,558.725586 579.75293,558.725586 C581.502938,558.725586 583.051263,559.108395 584.397949,559.874023 C585.744636,560.639652 586.838375,561.729973 587.679199,563.14502 C588.520024,564.560066 589.152342,566.228018 589.576172,568.148926 C590.000002,570.069834 590.211914,572.219715 590.211914,574.598633 C590.211914,576.909191 590.013674,579.007803 589.617188,580.894531 C589.220701,582.781259 588.612309,584.449212 587.791992,585.898438 C586.971676,587.347663 585.881354,588.472164 584.520996,589.271973 C583.160638,590.071781 581.571298,590.47168 579.75293,590.47168 Z M579.75293,561.842773 C578.358391,561.842773 577.162114,562.393061 576.164062,563.493652 C575.166011,564.594244 574.417483,566.084463 573.918457,567.964355 C573.419431,569.844248 573.169922,572.014636 573.169922,574.475586 C573.169922,576.977552 573.419431,579.188955 573.918457,581.109863 C574.417483,583.030771 575.166011,584.551752 576.164062,585.672852 C577.162114,586.793951 578.358391,587.354492 579.75293,587.354492 C581.147468,587.354492 582.343745,586.793951 583.341797,585.672852 C584.339849,584.551752 585.088376,583.030771 585.587402,581.109863 C586.086428,579.188955 586.335938,576.977552 586.335938,574.475586 C586.335938,572.014636 586.086428,569.844248 585.587402,567.964355 C585.088376,566.084463 584.339849,564.594244 583.341797,563.493652 C582.343745,562.393061 581.147468,561.842773 579.75293,561.842773 Z M611.806641,578.556641 L603.870117,567.50293 L607.787109,567.50293 L613.795898,576.075195 L619.825195,567.50293 L623.742188,567.50293 L615.785156,578.597656 L623.947266,590 L620.15332,590 L613.816406,580.956055 L607.479492,590 L603.5625,590 L611.806641,578.556641 Z M641.276367,559.320312 L644.537109,559.320312 L644.537109,590 L640.907227,590 L640.907227,563.114258 C639.52636,564.016606 637.837901,564.789059 635.841797,565.431641 L635.841797,562.006836 C636.060548,561.911132 636.504879,561.719728 637.174805,561.432617 C637.84473,561.145506 638.347166,560.926759 638.682129,560.776367 C639.017092,560.625976 639.437497,560.414064 639.943359,560.140625 C640.449221,559.867186 640.893553,559.593751 641.276367,559.320312 Z M660.676758,590.47168 C658.858389,590.47168 657.265632,590.071781 655.898438,589.271973 C654.531243,588.472164 653.434086,587.347663 652.606934,585.898438 C651.779781,584.449212 651.164553,582.781259 650.76123,580.894531 C650.357908,579.007803 650.15625,576.909191 650.15625,574.598633 C650.15625,572.698233 650.289549,570.941414 650.556152,569.328125 C650.822755,567.714836 651.236325,566.25196 651.796875,564.939453 C652.357425,563.626947 653.051265,562.5127 653.878418,561.59668 C654.705571,560.680659 655.693354,559.973147 656.841797,559.474121 C657.99024,558.975095 659.268548,558.725586 660.676758,558.725586 C662.426767,558.725586 663.975091,559.108395 665.321777,559.874023 C666.668464,560.639652 667.762203,561.729973 668.603027,563.14502 C669.443852,564.560066 670.07617,566.228018 670.5,568.148926 C670.92383,570.069834 671.135742,572.219715 671.135742,574.598633 C671.135742,576.909191 670.937502,579.007803 670.541016,580.894531 C670.144529,582.781259 669.536137,584.449212 668.71582,585.898438 C667.895504,587.347663 666.805183,588.472164 665.444824,589.271973 C664.084466,590.071781 662.495126,590.47168 660.676758,590.47168 Z M660.676758,561.842773 C659.28222,561.842773 658.085942,562.393061 657.087891,563.493652 C656.089839,564.594244 655.341311,566.084463 654.842285,567.964355 C654.343259,569.844248 654.09375,572.014636 654.09375,574.475586 C654.09375,576.977552 654.343259,579.188955 654.842285,581.109863 C655.341311,583.030771 656.089839,584.551752 657.087891,585.672852 C658.085942,586.793951 659.28222,587.354492 660.676758,587.354492 C662.071296,587.354492 663.267573,586.793951 664.265625,585.672852 C665.263677,584.551752 666.012205,583.030771 666.51123,581.109863 C667.010256,579.188955 667.259766,576.977552 667.259766,574.475586 C667.259766,572.014636 667.010256,569.844248 666.51123,567.964355 C666.012205,566.084463 665.263677,564.594244 664.265625,563.493652 C663.267573,562.393061 662.071296,561.842773 660.676758,561.842773 Z M686.557617,582.268555 L686.557617,579.356445 L706.347656,579.356445 L706.347656,582.268555 L686.557617,582.268555 Z M686.537109,573.614258 L686.537109,570.661133 L706.347656,570.661133 L706.347656,573.614258 L686.537109,573.614258 Z M731.695312,590.47168 C729.835928,590.47168 728.157722,590.160648 726.660645,589.538574 C725.163567,588.916501 723.9502,587.962897 723.020508,586.677734 C722.090816,585.392572 721.625977,583.868173 721.625977,582.104492 C721.625977,580.149404 722.186518,578.447273 723.307617,576.998047 C724.428717,575.548821 725.994131,574.496097 728.003906,573.839844 C724.175762,572.486321 722.261719,570.025408 722.261719,566.457031 C722.261719,564.037097 723.13671,562.143562 724.886719,560.776367 C726.636728,559.409173 728.906236,558.725586 731.695312,558.725586 C734.470717,558.725586 736.719718,559.409173 738.442383,560.776367 C740.165048,562.143562 741.026367,564.037097 741.026367,566.457031 C741.026367,568.261728 740.561528,569.779291 739.631836,571.009766 C738.702144,572.240241 737.403329,573.18359 735.735352,573.839844 C737.581064,574.496097 739.030268,575.548821 740.083008,576.998047 C741.135747,578.447273 741.662109,580.149404 741.662109,582.104492 C741.662109,584.729505 740.715341,586.780266 738.821777,588.256836 C736.928213,589.733406 734.552749,590.47168 731.695312,590.47168 Z M731.695312,575.583008 C729.740225,576.034182 728.174811,576.789545 726.999023,577.849121 C725.823236,578.908697 725.235352,580.245109 725.235352,581.858398 C725.235352,583.540047 725.843744,584.87646 727.060547,585.867676 C728.27735,586.858892 729.822256,587.354492 731.695312,587.354492 C733.568369,587.354492 735.096185,586.858892 736.278809,585.867676 C737.461432,584.87646 738.052734,583.540047 738.052734,581.858398 C738.052734,580.231437 737.478521,578.888189 736.330078,577.828613 C735.181635,576.769038 733.636728,576.02051 731.695312,575.583008 Z M731.695312,561.842773 C730.082023,561.842773 728.711431,562.24609 727.583496,563.052734 C726.455561,563.859379 725.891602,564.96679 725.891602,566.375 C725.891602,569.601579 727.826153,571.645504 731.695312,572.506836 C735.509785,571.645504 737.416992,569.601579 737.416992,566.375 C737.416992,564.96679 736.863287,563.859379 735.755859,563.052734 C734.648432,562.24609 733.29493,561.842773 731.695312,561.842773 Z M763.113281,578.556641 L755.176758,567.50293 L759.09375,567.50293 L765.102539,576.075195 L771.131836,567.50293 L775.048828,567.50293 L767.091797,578.597656 L775.253906,590 L771.459961,590 L765.123047,580.956055 L758.786133,590 L754.869141,590 L763.113281,578.556641 Z M792.583008,559.320312 L795.84375,559.320312 L795.84375,590 L792.213867,590 L792.213867,563.114258 C790.833001,564.016606 789.144541,564.789059 787.148438,565.431641 L787.148438,562.006836 C787.367189,561.911132 787.81152,561.719728 788.481445,561.432617 C789.151371,561.145506 789.653807,560.926759 789.98877,560.776367 C790.323732,560.625976 790.744138,560.414064 791.25,560.140625 C791.755862,559.867186 792.200193,559.593751 792.583008,559.320312 Z M811.983398,590.47168 C810.16503,590.47168 808.572272,590.071781 807.205078,589.271973 C805.837884,588.472164 804.740727,587.347663 803.913574,585.898438 C803.086422,584.449212 802.471193,582.781259 802.067871,580.894531 C801.664549,579.007803 801.462891,576.909191 801.462891,574.598633 C801.462891,572.698233 801.59619,570.941414 801.862793,569.328125 C802.129396,567.714836 802.542966,566.25196 803.103516,564.939453 C803.664065,563.626947 804.357906,562.5127 805.185059,561.59668 C806.012211,560.680659 806.999994,559.973147 808.148438,559.474121 C809.296881,558.975095 810.575188,558.725586 811.983398,558.725586 C813.733407,558.725586 815.281732,559.108395 816.628418,559.874023 C817.975104,560.639652 819.068843,561.729973 819.909668,563.14502 C820.750492,564.560066 821.38281,566.228018 821.806641,568.148926 C822.230471,570.069834 822.442383,572.219715 822.442383,574.598633 C822.442383,576.909191 822.244143,579.007803 821.847656,580.894531 C821.45117,582.781259 820.842778,584.449212 820.022461,585.898438 C819.202144,587.347663 818.111823,588.472164 816.751465,589.271973 C815.391106,590.071781 813.801767,590.47168 811.983398,590.47168 Z M811.983398,561.842773 C810.58886,561.842773 809.392583,562.393061 808.394531,563.493652 C807.396479,564.594244 806.647952,566.084463 806.148926,567.964355 C805.6499,569.844248 805.400391,572.014636 805.400391,574.475586 C805.400391,576.977552 805.6499,579.188955 806.148926,581.109863 C806.647952,583.030771 807.396479,584.551752 808.394531,585.672852 C809.392583,586.793951 810.58886,587.354492 811.983398,587.354492 C813.377937,587.354492 814.574214,586.793951 815.572266,585.672852 C816.570317,584.551752 817.318845,583.030771 817.817871,581.109863 C818.316897,579.188955 818.566406,576.977552 818.566406,574.475586 C818.566406,572.014636 818.316897,569.844248 817.817871,567.964355 C817.318845,566.084463 816.570317,564.594244 815.572266,563.493652 C814.574214,562.393061 813.377937,561.842773 811.983398,561.842773 Z" id="800-=-8-x-10-x-10-=" fill="#37C3BE"></path>
        <path d="M676.896484,285.291992 C675.770828,285.291992 674.784835,285.044436 673.938477,284.549316 C673.092118,284.054197 672.412926,283.358077 671.900879,282.460938 C671.388832,281.563798 671.007977,280.531256 670.758301,279.363281 C670.508625,278.195307 670.383789,276.896166 670.383789,275.46582 C670.383789,274.289382 670.466308,273.201828 670.631348,272.203125 C670.796388,271.204422 671.052407,270.298832 671.399414,269.486328 C671.746421,268.673824 672.175941,267.984052 672.687988,267.416992 C673.200035,266.849932 673.81152,266.411948 674.522461,266.103027 C675.233402,265.794107 676.024735,265.639648 676.896484,265.639648 C677.979823,265.639648 678.93831,265.876625 679.771973,266.350586 C680.605636,266.824547 681.282712,267.499507 681.803223,268.375488 C682.323733,269.251469 682.715168,270.284011 682.977539,271.473145 C683.23991,272.662278 683.371094,273.993157 683.371094,275.46582 C683.371094,276.896166 683.248374,278.195307 683.00293,279.363281 C682.757486,280.531256 682.380862,281.563798 681.873047,282.460938 C681.365232,283.358077 680.690271,284.054197 679.848145,284.549316 C679.006018,285.044436 678.022141,285.291992 676.896484,285.291992 Z M676.896484,267.569336 C676.033199,267.569336 675.292646,267.90999 674.674805,268.591309 C674.056963,269.272627 673.593589,270.195144 673.284668,271.358887 C672.975747,272.52263 672.821289,273.866203 672.821289,275.389648 C672.821289,276.938484 672.975747,278.307448 673.284668,279.496582 C673.593589,280.685716 674.056963,281.627275 674.674805,282.321289 C675.292646,283.015303 676.033199,283.362305 676.896484,283.362305 C677.75977,283.362305 678.500322,283.015303 679.118164,282.321289 C679.736006,281.627275 680.19938,280.685716 680.508301,279.496582 C680.817222,278.307448 680.97168,276.938484 680.97168,275.389648 C680.97168,273.866203 680.817222,272.52263 680.508301,271.358887 C680.19938,270.195144 679.736006,269.272627 679.118164,268.591309 C678.500322,267.90999 677.75977,267.569336 676.896484,267.569336 Z" id="0" fill="#FFFFFF"></path>
        <path d="M725.833984,406.007812 L727.852539,406.007812 L727.852539,425 L725.605469,425 L725.605469,408.356445 C724.750647,408.915042 723.70541,409.393227 722.469727,409.791016 L722.469727,407.670898 C722.605144,407.611653 722.880206,407.493165 723.294922,407.31543 C723.709637,407.137694 724.02067,407.002279 724.228027,406.90918 C724.435385,406.81608 724.695636,406.684897 725.008789,406.515625 C725.321942,406.346353 725.597004,406.177084 725.833984,406.007812 Z" id="1" fill="#FFFFFF"></path>
        <path d="M832.43457,566 L832.142578,563.917969 L838.706055,556.630859 C839.146161,556.139972 839.57145,555.505212 839.981934,554.726562 C840.392417,553.947913 840.690754,553.287763 840.876953,552.746094 L841.168945,551.946289 C841.168945,550.896805 840.876956,550.082197 840.292969,549.502441 C839.708981,548.922686 838.879563,548.632812 837.804688,548.632812 C836.010408,548.632812 834.59701,549.153315 833.564453,550.194336 L832.828125,548.290039 C833.9961,547.189773 835.705718,546.639648 837.957031,546.639648 C839.683602,546.639648 841.058914,547.107254 842.083008,548.04248 C843.107101,548.977706 843.619141,550.228182 843.619141,551.793945 C843.585286,551.912435 843.534506,552.071125 843.466797,552.27002 C843.399088,552.468914 843.253094,552.856117 843.028809,553.431641 C842.804524,554.007164 842.569663,554.553057 842.324219,555.069336 C842.078775,555.585615 841.767743,556.152666 841.391113,556.770508 C841.014484,557.388349 840.631512,557.90462 840.242188,558.319336 L834.884766,564.044922 L843.682617,564.044922 L843.542969,566 L832.43457,566 Z" id="2" fill="#FFFFFF"></path>
    </g>
</svg>