<?xml version="1.0" encoding="UTF-8" standalone="no"?>
<!-- Generator: Adobe Illustrator 23.0.3, SVG Export Plug-In . SVG Version: 6.00 Build 0)  -->

<svg
   xmlns:dc="http://purl.org/dc/elements/1.1/"
   xmlns:cc="http://creativecommons.org/ns#"
   xmlns:rdf="http://www.w3.org/1999/02/22-rdf-syntax-ns#"
   xmlns:svg="http://www.w3.org/2000/svg"
   xmlns="http://www.w3.org/2000/svg"
   xmlns:sodipodi="http://sodipodi.sourceforge.net/DTD/sodipodi-0.dtd"
   xmlns:inkscape="http://www.inkscape.org/namespaces/inkscape"
   version="1.1"
   id="Layer_1"
   x="0px"
   y="0px"
   viewBox="0 0 1214 866"
   style="enable-background:new 0 0 1214 866;"
   xml:space="preserve"
   sodipodi:docname="radix4.svg"
   inkscape:version="0.92.3 (2405546, 2018-03-11)"><metadata
   id="metadata97"><rdf:RDF><cc:Work
       rdf:about=""><dc:format>image/svg+xml</dc:format><dc:type
         rdf:resource="http://purl.org/dc/dcmitype/StillImage" /><dc:title>radix ex 4</dc:title></cc:Work></rdf:RDF></metadata><defs
   id="defs95" /><sodipodi:namedview
   pagecolor="#ffffff"
   bordercolor="#666666"
   borderopacity="1"
   objecttolerance="10"
   gridtolerance="10"
   guidetolerance="10"
   inkscape:pageopacity="0"
   inkscape:pageshadow="2"
   inkscape:window-width="1280"
   inkscape:window-height="657"
   id="namedview93"
   showgrid="false"
   inkscape:zoom="0.23640857"
   inkscape:cx="80.369338"
   inkscape:cy="433"
   inkscape:window-x="-8"
   inkscape:window-y="-8"
   inkscape:window-maximized="1"
   inkscape:current-layer="Layer_1" />
<style
   type="text/css"
   id="style2">
	.st0{fill:#245466;}
	.st1{fill-rule:evenodd;clip-rule:evenodd;fill:#37C3BE;}
	.st2{fill-rule:evenodd;clip-rule:evenodd;fill:#FFFFFF;}
	.st3{fill:#FFFFFF;}
	.st4{fill:none;stroke:#37C3BE;stroke-width:2;stroke-linecap:round;}
</style>
<title
   id="title4">radix ex 4</title>
<desc
   id="desc6">Created with Sketch.</desc>

<g
   id="g90">
	<path
   class="st3"
   d="M998.2,298.1v-22.8h4.4l0.6,2.9c2.3-2.3,4.9-3.4,7.7-3.4c2.7,0,4.6,0.8,6,2.3c1.3,1.5,2,3.7,2,6.7v14.4h-5.5   v-13.8c0-1.8-0.3-3.2-0.9-4.1c-0.6-0.9-1.6-1.4-3.1-1.4c-1.2,0-2.3,0.3-3.2,0.9c-1,0.6-1.7,1.4-2.1,2.3c-0.3,1.1-0.4,2.7-0.4,5   v11.1H998.2z"
   id="path84" />
	<path
   class="st3"
   d="M1034.4,282.4v-4h21.1v4H1034.4z M1034.4,290.7v-4h21.1v4H1034.4z"
   id="path86" />
	<path
   class="st3"
   d="M1079.7,298.5c-1.4,0-2.8-0.2-4.2-0.7c-1.5-0.4-2.6-0.9-3.3-1.3s-1.3-0.7-1.5-0.9l1.7-3.9   c0.3,0.2,0.6,0.5,1.2,0.8c0.5,0.3,1.3,0.7,2.4,1.1c1.1,0.4,2.2,0.6,3.2,0.6c1.9,0,3.4-0.5,4.4-1.6s1.5-2.5,1.5-4.2   c0-1.6-0.5-3-1.4-4s-2.1-1.5-3.5-1.5c-1.7,0-3.3,0.7-4.6,2.2l-3.6-0.7l0.8-16.6h16.5l-0.3,4.3h-11.4c0,0.2,0,1.5-0.1,3.7   c-0.1,2.2-0.1,3.5-0.2,3.8c1.2-0.7,2.5-1,3.8-1c2.8,0,5,0.9,6.8,2.7c1.7,1.8,2.6,4.1,2.6,7c0,3.1-0.9,5.5-2.8,7.4   C1085.7,297.6,1083.1,298.5,1079.7,298.5z"
   id="path88" />
</g>
<rect
   style="opacity:1;fill:#545454;fill-opacity:1;fill-rule:nonzero;stroke:#03f3f4;stroke-width:0.75590551;stroke-linecap:round;stroke-linejoin:miter;stroke-miterlimit:4;stroke-dasharray:none;stroke-dashoffset:0;stroke-opacity:1;paint-order:stroke fill markers"
   id="rect904"
   width="1243.6097"
   height="892.52264"
   x="-12.689896"
   y="-9.602787"
   rx="13.8545" /><g
   id="radix-ex-4"
   transform="matrix(1.2814381,0,0,1.119074,-119.15988,-44.535406)">
	<g
   id="Group-2"
   transform="translate(366,505)">
		<g
   id="Group-3-Copy">
			<path
   id="Rectangle"
   class="st0"
   d="m 10,0 h 219 c 5.5,0 10,4.5 10,10 v 71 c 0,5.5 -4.5,10 -10,10 H 10 C 4.5,91 0,86.5 0,81 V 10 C 0,4.5 4.5,0 10,0 Z"
   inkscape:connector-curvature="0"
   style="fill:#245466" />
			<path
   class="st1"
   d="M 26.4,62 26,58.6 36.6,46.8 C 37.3,46 38,45 38.7,43.7 c 0.7,-1.3 1.1,-2.3 1.4,-3.2 l 0.5,-1.3 c 0,-1.7 -0.5,-3 -1.4,-3.9 -0.9,-0.9 -2.3,-1.4 -4,-1.4 -2.9,0 -5.2,0.8 -6.8,2.5 l -1.2,-3.1 c 1.9,-1.8 4.6,-2.7 8.3,-2.7 2.8,0 5,0.8 6.7,2.3 1.7,1.5 2.5,3.5 2.5,6.1 -0.1,0.2 -0.1,0.4 -0.2,0.8 -0.1,0.4 -0.3,0.9 -0.7,1.9 -0.4,1 -0.7,1.8 -1.1,2.6 -0.4,0.8 -0.9,1.7 -1.5,2.7 -0.6,1 -1.2,1.8 -1.9,2.5 l -8.7,9.2 H 44.8 L 44.4,62 Z m 30.8,0.5 c -1.8,0 -3.5,-0.2 -4.9,-0.7 -1.4,-0.5 -2.5,-1 -3.1,-1.7 l 1.1,-3 c 1.9,1.5 4.2,2.3 6.9,2.3 2.1,0 3.7,-0.5 4.9,-1.5 1.2,-1 1.8,-2.4 1.8,-4.3 0,-1 -0.2,-1.9 -0.5,-2.6 -0.3,-0.7 -0.7,-1.3 -1.2,-1.8 -0.5,-0.5 -1.2,-0.8 -2,-1.1 -0.8,-0.3 -1.6,-0.5 -2.5,-0.6 -0.9,-0.1 -1.8,-0.2 -2.9,-0.2 -0.1,0 -0.3,0 -0.6,0 -0.3,0 -0.5,0 -0.6,0 v -3.1 h 1 c 1,0 1.8,-0.1 2.5,-0.2 0.7,-0.1 1.5,-0.2 2.2,-0.5 0.7,-0.3 1.3,-0.5 1.8,-0.9 0.5,-0.4 0.9,-0.9 1.2,-1.5 0.3,-0.6 0.5,-1.4 0.5,-2.3 0,-3.3 -1.9,-4.9 -5.6,-4.9 -1.4,0 -2.6,0.2 -3.8,0.6 -1.2,0.4 -2.2,0.9 -3.1,1.6 l -1.1,-3 c 2,-1.5 5,-2.3 8.8,-2.3 1.5,0 3,0.3 4.3,0.9 1.3,0.6 2.4,1.4 3.2,2.6 0.8,1.2 1.3,2.5 1.3,4.1 0,1.9 -0.5,3.5 -1.4,4.7 -0.9,1.2 -2.3,2.1 -4,2.6 1.9,0.4 3.4,1.3 4.5,2.7 1.1,1.4 1.6,3.1 1.6,5.2 0,2.7 -1,4.8 -2.9,6.5 -1.9,1.6 -4.4,2.4 -7.4,2.4 z M 92.9,62 92.4,58.6 103,46.9 c 0.7,-0.8 1.4,-1.8 2.1,-3.1 0.7,-1.3 1.1,-2.3 1.4,-3.2 l 0.5,-1.3 c 0,-1.7 -0.5,-3 -1.4,-3.9 -0.9,-0.9 -2.3,-1.4 -4,-1.4 -2.9,0 -5.2,0.8 -6.8,2.5 l -1.2,-3.1 c 1.9,-1.8 4.6,-2.7 8.3,-2.7 2.8,0 5,0.8 6.7,2.3 1.7,1.5 2.5,3.5 2.5,6.1 -0.1,0.2 -0.1,0.4 -0.2,0.8 -0.1,0.4 -0.3,0.9 -0.7,1.9 -0.4,1 -0.7,1.8 -1.1,2.6 -0.4,0.8 -0.9,1.7 -1.5,2.7 -0.6,1 -1.2,1.8 -1.9,2.5 L 97,58.8 h 14.2 L 111,62 Z m 41.2,-30.7 -0.3,3.4 h -12.5 c -0.1,4 -0.2,7.2 -0.3,9.7 1.5,-1 3.2,-1.5 5,-1.5 1.5,0 2.9,0.2 4.1,0.7 1.2,0.5 2.2,1.2 2.9,2 0.7,0.8 1.3,1.8 1.7,3 0.4,1.2 0.6,2.3 0.6,3.7 0,3.1 -1,5.6 -3,7.5 -2,1.9 -4.7,2.8 -8.1,2.8 -3.4,0 -6.2,-0.9 -8.2,-2.8 l 1.3,-2.9 c 2,1.6 4.4,2.4 7,2.4 2.2,0 4,-0.6 5.3,-1.9 1.3,-1.3 1.9,-2.9 1.9,-5 0,-1.8 -0.5,-3.3 -1.6,-4.5 -1.1,-1.2 -2.7,-1.7 -4.7,-1.7 -2,0 -3.7,0.7 -4.9,2 l -2.9,-0.4 0.8,-16.4 h 15.9 z m 30.7,0 h 3.3 V 62 h -3.6 V 35.1 c -1.4,0.9 -3.1,1.7 -5.1,2.3 V 34 c 0.2,-0.1 0.7,-0.3 1.3,-0.6 0.6,-0.3 1.2,-0.5 1.5,-0.7 0.3,-0.2 0.8,-0.4 1.3,-0.6 0.4,-0.2 0.9,-0.5 1.3,-0.8 z m 8.9,30.7 -0.5,-3.4 10.6,-11.8 c 0.7,-0.8 1.4,-1.8 2.1,-3.1 0.7,-1.3 1.1,-2.3 1.4,-3.2 l 0.5,-1.3 c 0,-1.7 -0.5,-3 -1.4,-3.9 -0.9,-0.9 -2.3,-1.4 -4,-1.4 -2.9,0 -5.2,0.8 -6.8,2.5 l -1.2,-3.1 c 1.9,-1.8 4.6,-2.7 8.3,-2.7 2.8,0 5,0.8 6.7,2.3 1.7,1.5 2.5,3.5 2.5,6.1 -0.1,0.2 -0.1,0.4 -0.2,0.8 -0.1,0.4 -0.3,0.9 -0.7,1.9 -0.4,1 -0.7,1.8 -1.1,2.6 -0.4,0.8 -0.9,1.7 -1.5,2.7 -0.6,1 -1.2,1.8 -1.9,2.5 l -8.7,9.2 H 192 l -0.2,3.2 h -18.1 z m 33.7,-18.9 c 1.7,0 3.3,0.4 4.8,1.2 1.5,0.8 2.6,2 3.5,3.5 0.9,1.5 1.3,3.2 1.3,5 0,2.8 -0.9,5.1 -2.8,6.9 -1.9,1.8 -4.4,2.7 -7.4,2.7 -1.6,0 -3.1,-0.3 -4.4,-0.8 -1.3,-0.5 -2.4,-1.3 -3.3,-2.2 -0.9,-0.9 -1.5,-2 -2,-3.2 -0.5,-1.2 -0.7,-2.5 -0.7,-3.9 0,-2.2 0.4,-4.2 1.2,-6 0.8,-1.8 2.3,-4 4.4,-6.7 0.5,-0.7 1.3,-1.7 2.5,-3 1.2,-1.3 2.1,-2.6 3,-3.6 l 1.3,-1.6 h 4.7 l -10.8,12.9 c 1.6,-0.8 3.1,-1.2 4.7,-1.2 z m -7.1,9.6 c 0,1.2 0.2,2.3 0.7,3.3 0.5,1 1.2,1.8 2.2,2.4 1,0.6 2.1,0.9 3.5,0.9 2,0 3.6,-0.6 4.8,-1.9 1.2,-1.3 1.7,-2.8 1.7,-4.6 0,-1.9 -0.6,-3.5 -1.7,-4.8 -1.1,-1.3 -2.7,-1.9 -4.8,-1.9 -2.1,0 -3.7,0.6 -4.8,1.8 -1.1,1.2 -1.6,2.9 -1.6,4.8 z"
   id="path9"
   inkscape:connector-curvature="0"
   style="clip-rule:evenodd;fill:#37c3be;fill-rule:evenodd" />
			<path
   class="st2"
   d="m 109.6,118.1 -0.3,-6.3 h 1.9 l -0.4,6.3 z m -3.6,0 -0.3,-6.3 h 1.9 l -0.4,6.3 z m 9.4,12.9 -0.3,-2.1 6.6,-7.3 c 0.4,-0.5 0.9,-1.1 1.3,-1.9 0.4,-0.8 0.7,-1.4 0.9,-2 l 0.3,-0.8 c 0,-1 -0.3,-1.9 -0.9,-2.4 -0.6,-0.6 -1.4,-0.9 -2.5,-0.9 -1.8,0 -3.2,0.5 -4.2,1.6 l -0.7,-1.9 c 1.2,-1.1 2.9,-1.7 5.1,-1.7 1.7,0 3.1,0.5 4.1,1.4 1,0.9 1.5,2.2 1.5,3.8 0,0.1 -0.1,0.3 -0.2,0.5 -0.1,0.2 -0.2,0.6 -0.4,1.2 -0.2,0.6 -0.5,1.1 -0.7,1.6 -0.2,0.5 -0.6,1.1 -0.9,1.7 -0.4,0.6 -0.8,1.1 -1.1,1.5 l -5.4,5.7 h 8.8 l -0.1,2 z m 19.3,-12.9 -0.3,-6.3 h 1.9 l -0.4,6.3 z m -3.6,0 -0.3,-6.3 h 1.9 l -0.4,6.3 z"
   id="path11"
   inkscape:connector-curvature="0"
   style="clip-rule:evenodd;fill:#ffffff;fill-rule:evenodd" />
		</g>
		<g
   id="Group-2-Copy"
   transform="translate(271)">
			<path
   id="Rectangle-Copy"
   class="st0"
   d="m 16,0 h 152 c 5.5,0 10,4.5 10,10 v 71 c 0,5.5 -4.5,10 -10,10 H 16 C 10.5,91 6,86.5 6,81 V 10 C 6,4.5 10.5,0 16,0 Z"
   inkscape:connector-curvature="0"
   style="fill:#245466" />
			<path
   class="st1"
   d="m 36.3,31.3 h 3.3 V 62 H 36 V 35.1 c -1.4,0.9 -3.1,1.7 -5.1,2.3 V 34 c 0.2,-0.1 0.7,-0.3 1.3,-0.6 0.6,-0.3 1.2,-0.5 1.5,-0.7 0.3,-0.2 0.8,-0.4 1.3,-0.6 0.5,-0.2 0.9,-0.5 1.3,-0.8 z m 16.8,31.2 c -1.8,0 -3.5,-0.2 -4.9,-0.7 -1.4,-0.5 -2.5,-1 -3.1,-1.7 l 1.1,-3 c 1.9,1.5 4.2,2.3 6.9,2.3 2.1,0 3.7,-0.5 4.9,-1.5 1.2,-1 1.8,-2.4 1.8,-4.3 0,-1 -0.2,-1.9 -0.5,-2.6 -0.3,-0.7 -0.7,-1.3 -1.2,-1.8 -0.5,-0.5 -1.2,-0.8 -2,-1.1 -0.8,-0.3 -1.6,-0.5 -2.5,-0.6 -0.9,-0.1 -1.8,-0.2 -2.9,-0.2 -0.1,0 -0.3,0 -0.6,0 -0.3,0 -0.5,0 -0.6,0 v -3.1 h 1 c 1,0 1.8,-0.1 2.5,-0.2 0.7,-0.1 1.5,-0.2 2.2,-0.5 0.7,-0.3 1.3,-0.5 1.8,-0.9 0.5,-0.4 0.9,-0.9 1.2,-1.5 0.3,-0.6 0.5,-1.4 0.5,-2.3 0,-3.3 -1.9,-4.9 -5.6,-4.9 -1.4,0 -2.6,0.2 -3.8,0.6 -1.2,0.4 -2.2,0.9 -3.1,1.6 l -1.1,-3 c 2,-1.5 5,-2.3 8.8,-2.3 1.5,0 3,0.3 4.3,0.9 1.3,0.6 2.4,1.4 3.2,2.6 0.8,1.2 1.3,2.5 1.3,4.1 0,1.9 -0.5,3.5 -1.4,4.7 -0.9,1.2 -2.3,2.1 -4,2.6 1.9,0.4 3.4,1.3 4.5,2.7 1.1,1.4 1.6,3.1 1.6,5.2 0,2.7 -1,4.8 -2.9,6.5 -1.9,1.7 -4.4,2.4 -7.4,2.4 z m 22.6,0 c -1.8,0 -3.5,-0.2 -4.9,-0.7 -1.4,-0.5 -2.5,-1 -3.1,-1.7 l 1.1,-3 c 1.9,1.5 4.2,2.3 6.9,2.3 2.1,0 3.7,-0.5 4.9,-1.5 1.2,-1 1.8,-2.4 1.8,-4.3 0,-1 -0.2,-1.9 -0.5,-2.6 -0.3,-0.7 -0.7,-1.3 -1.2,-1.8 -0.5,-0.5 -1.2,-0.8 -2,-1.1 -0.8,-0.3 -1.6,-0.5 -2.5,-0.6 -0.9,-0.1 -1.8,-0.2 -2.9,-0.2 -0.1,0 -0.3,0 -0.6,0 -0.3,0 -0.5,0 -0.6,0 v -3.1 h 1 c 1,0 1.8,-0.1 2.5,-0.2 0.7,-0.1 1.5,-0.2 2.2,-0.5 0.7,-0.3 1.3,-0.5 1.8,-0.9 0.5,-0.4 0.9,-0.9 1.2,-1.5 0.3,-0.6 0.5,-1.4 0.5,-2.3 0,-3.3 -1.9,-4.9 -5.6,-4.9 -1.4,0 -2.6,0.2 -3.8,0.6 -1.2,0.4 -2.2,0.9 -3.1,1.6 l -1.1,-3 c 2,-1.5 5,-2.3 8.8,-2.3 1.5,0 3,0.3 4.3,0.9 1.3,0.6 2.4,1.4 3.2,2.6 0.8,1.2 1.3,2.5 1.3,4.1 0,1.9 -0.5,3.5 -1.4,4.7 -0.9,1.2 -2.3,2.1 -4,2.6 1.9,0.4 3.4,1.3 4.5,2.7 1.1,1.4 1.6,3.1 1.6,5.2 0,2.7 -1,4.8 -2.9,6.5 -1.9,1.7 -4.3,2.4 -7.4,2.4 z m 43.6,0 c -1.8,0 -3.5,-0.2 -4.9,-0.7 -1.4,-0.5 -2.5,-1 -3.1,-1.7 l 1.1,-3 c 1.9,1.5 4.2,2.3 6.9,2.3 2.1,0 3.7,-0.5 4.9,-1.5 1.2,-1 1.8,-2.4 1.8,-4.3 0,-1 -0.2,-1.9 -0.5,-2.6 -0.3,-0.7 -0.7,-1.3 -1.2,-1.8 -0.5,-0.5 -1.2,-0.8 -2,-1.1 -0.8,-0.3 -1.6,-0.5 -2.5,-0.6 -0.8,-0.1 -1.8,-0.2 -2.9,-0.2 -0.1,0 -0.3,0 -0.6,0 -0.3,0 -0.5,0 -0.6,0 v -3.1 h 1 c 1,0 1.8,-0.1 2.5,-0.2 0.7,-0.1 1.5,-0.2 2.2,-0.5 0.7,-0.2 1.3,-0.5 1.8,-0.9 0.5,-0.4 0.9,-0.9 1.2,-1.5 0.3,-0.6 0.5,-1.4 0.5,-2.3 0,-3.3 -1.9,-4.9 -5.6,-4.9 -1.4,0 -2.6,0.2 -3.8,0.6 -1.2,0.4 -2.2,0.9 -3.1,1.6 l -1.1,-3 c 2,-1.5 5,-2.3 8.8,-2.3 1.5,0 3,0.3 4.3,0.9 1.3,0.6 2.4,1.4 3.2,2.6 0.8,1.2 1.3,2.5 1.3,4.1 0,1.9 -0.5,3.5 -1.4,4.7 -0.9,1.2 -2.3,2.1 -4,2.6 1.9,0.4 3.4,1.3 4.5,2.7 1.1,1.4 1.6,3.1 1.6,5.2 0,2.7 -1,4.8 -2.9,6.5 -1.9,1.6 -4.4,2.4 -7.4,2.4 z m 33,-31.2 -0.3,3.4 h -12.5 c -0.1,4 -0.2,7.2 -0.3,9.7 1.5,-1 3.2,-1.5 5,-1.5 1.5,0 2.9,0.2 4.1,0.7 1.2,0.5 2.2,1.2 2.9,2 0.7,0.8 1.3,1.8 1.7,3 0.4,1.2 0.6,2.3 0.6,3.7 0,3.1 -1,5.6 -3,7.5 -2,1.9 -4.7,2.8 -8.1,2.8 -3.4,0 -6.2,-0.9 -8.2,-2.8 l 1.3,-2.9 c 2,1.6 4.4,2.4 7,2.4 2.2,0 4,-0.6 5.3,-1.9 1.3,-1.3 1.9,-2.9 1.9,-5 0,-1.8 -0.5,-3.3 -1.6,-4.5 -1.1,-1.2 -2.7,-1.7 -4.7,-1.7 -2,0 -3.7,0.7 -4.9,2 l -2.9,-0.4 0.8,-16.4 h 15.9 z"
   id="path15"
   inkscape:connector-curvature="0"
   style="clip-rule:evenodd;fill:#37c3be;fill-rule:evenodd" />
			<path
   class="st2"
   d="m 80.7,118.1 -0.3,-6.3 h 1.9 l -0.4,6.3 z m -3.6,0 -0.3,-6.3 h 1.9 l -0.4,6.3 z m 14.2,13.2 c -1.1,0 -2.1,-0.1 -3,-0.4 -0.9,-0.3 -1.5,-0.6 -1.9,-1 l 0.7,-1.9 c 1.2,0.9 2.6,1.4 4.3,1.4 1.3,0 2.3,-0.3 3,-0.9 0.7,-0.6 1.1,-1.5 1.1,-2.6 0,-0.6 -0.1,-1.2 -0.3,-1.6 -0.2,-0.4 -0.4,-0.8 -0.8,-1.1 -0.4,-0.3 -0.7,-0.5 -1.2,-0.7 -0.5,-0.2 -1,-0.3 -1.5,-0.4 -0.5,-0.1 -1.1,-0.1 -1.8,-0.1 -0.1,0 -0.2,0 -0.4,0 -0.2,0 -0.3,0 -0.4,0 v -1.9 h 0.6 c 0.6,0 1.1,0 1.6,-0.1 0.5,-0.1 0.9,-0.2 1.4,-0.3 0.5,-0.1 0.8,-0.3 1.1,-0.6 0.3,-0.3 0.5,-0.6 0.7,-1 0.2,-0.4 0.3,-0.9 0.3,-1.4 0,-2 -1.2,-3 -3.5,-3 -0.8,0 -1.6,0.1 -2.4,0.4 -0.7,0.2 -1.4,0.6 -1.9,1 l -0.7,-1.9 c 1.3,-1 3.1,-1.4 5.4,-1.4 1,0 1.8,0.2 2.7,0.5 0.8,0.4 1.5,0.9 2,1.6 0.5,0.7 0.8,1.6 0.8,2.5 0,1.2 -0.3,2.2 -0.9,2.9 -0.6,0.8 -1.4,1.3 -2.5,1.6 1.2,0.3 2.1,0.8 2.8,1.7 0.7,0.9 1,1.9 1,3.2 0,1.7 -0.6,3 -1.8,4 -1.2,1 -2.6,1.5 -4.5,1.5 z m 14.3,-13.2 -0.3,-6.3 h 1.9 l -0.4,6.3 z m -3.6,0 -0.3,-6.3 h 1.9 l -0.4,6.3 z"
   id="path17"
   inkscape:connector-curvature="0"
   style="clip-rule:evenodd;fill:#ffffff;fill-rule:evenodd" />
		</g>
	</g>
	<g
   id="Group"
   transform="translate(366,669)">
		<g
   id="Group-3-Copy-2">
			<path
   class="st0"
   d="m 10,0 h 219 c 5.5,0 10,4.5 10,10 v 71 c 0,5.5 -4.5,10 -10,10 H 10 C 4.5,91 0,86.5 0,81 V 10 C 0,4.5 4.5,0 10,0 Z"
   id="path21"
   inkscape:connector-curvature="0"
   style="fill:#245466" />
			<path
   class="st1"
   d="M 33.2,62 32.7,58.6 43.3,46.8 C 44,46 44.7,45 45.4,43.7 c 0.7,-1.3 1.1,-2.3 1.4,-3.2 l 0.5,-1.3 c 0,-1.7 -0.5,-3 -1.4,-3.9 -0.9,-0.9 -2.3,-1.4 -4,-1.4 -2.9,0 -5.2,0.8 -6.8,2.5 l -1.2,-3.1 c 1.9,-1.8 4.6,-2.7 8.3,-2.7 2.8,0 5,0.8 6.7,2.3 1.7,1.5 2.5,3.5 2.5,6.1 -0.1,0.2 -0.1,0.4 -0.2,0.8 -0.1,0.4 -0.3,0.9 -0.7,1.9 -0.4,1 -0.7,1.8 -1.1,2.6 -0.4,0.8 -0.9,1.7 -1.5,2.7 -0.6,1 -1.2,1.8 -1.9,2.5 l -8.7,9.2 H 51.5 L 51.2,62 Z M 64,62.5 c -1.8,0 -3.5,-0.2 -4.9,-0.7 -1.4,-0.5 -2.5,-1 -3.1,-1.7 l 1.1,-3 c 1.9,1.5 4.2,2.3 6.9,2.3 2.1,0 3.7,-0.5 4.9,-1.5 1.2,-1 1.8,-2.4 1.8,-4.3 0,-1 -0.2,-1.9 -0.5,-2.6 -0.3,-0.7 -0.7,-1.3 -1.2,-1.8 -0.5,-0.5 -1.2,-0.8 -2,-1.1 -0.8,-0.3 -1.6,-0.5 -2.5,-0.6 -0.8,-0.1 -1.8,-0.2 -2.9,-0.2 -0.1,0 -0.3,0 -0.6,0 -0.3,0 -0.5,0 -0.6,0 v -3.1 h 1 c 1,0 1.8,-0.1 2.5,-0.2 0.7,-0.1 1.5,-0.2 2.2,-0.5 0.7,-0.3 1.3,-0.5 1.8,-0.9 0.5,-0.4 0.9,-0.9 1.2,-1.5 0.3,-0.6 0.5,-1.4 0.5,-2.3 0,-3.3 -1.9,-4.9 -5.6,-4.9 -1.4,0 -2.6,0.2 -3.8,0.6 -1.2,0.4 -2.2,0.9 -3.1,1.6 l -1.1,-3 c 2,-1.5 5,-2.3 8.8,-2.3 1.5,0 3,0.3 4.3,0.9 1.3,0.6 2.4,1.4 3.2,2.6 0.8,1.2 1.3,2.5 1.3,4.1 0,1.9 -0.5,3.5 -1.4,4.7 -0.9,1.2 -2.3,2.1 -4,2.6 1.9,0.4 3.4,1.3 4.5,2.7 1.1,1.4 1.6,3.1 1.6,5.2 0,2.7 -1,4.8 -2.9,6.5 -1.9,1.7 -4.4,2.4 -7.4,2.4 z M 99.7,62 99.2,58.6 109.8,46.8 c 0.7,-0.8 1.4,-1.8 2.1,-3.1 0.7,-1.3 1.1,-2.3 1.4,-3.2 l 0.5,-1.3 c 0,-1.7 -0.5,-3 -1.4,-3.9 -0.9,-0.9 -2.3,-1.4 -4,-1.4 -2.9,0 -5.2,0.8 -6.8,2.5 l -1.2,-3.1 c 1.9,-1.8 4.6,-2.7 8.3,-2.7 2.8,0 5,0.8 6.7,2.3 1.7,1.5 2.5,3.5 2.5,6.1 -0.1,0.2 -0.1,0.4 -0.2,0.8 -0.1,0.4 -0.3,0.9 -0.7,1.9 -0.4,1 -0.7,1.8 -1.1,2.6 -0.4,0.8 -0.9,1.7 -1.5,2.7 -0.6,1 -1.2,1.8 -1.9,2.5 l -8.7,9.2 H 118 l -0.2,3.2 H 99.7 Z m 41.1,-30.7 -0.3,3.4 H 128 c -0.1,4 -0.2,7.2 -0.3,9.7 1.5,-1 3.2,-1.5 5,-1.5 1.5,0 2.9,0.2 4.1,0.7 1.2,0.5 2.2,1.2 2.9,2 0.7,0.8 1.3,1.8 1.7,3 0.4,1.2 0.6,2.3 0.6,3.7 0,3.1 -1,5.6 -3,7.5 -2,1.9 -4.7,2.8 -8.1,2.8 -3.4,0 -6.2,-0.9 -8.2,-2.8 l 1.3,-2.9 c 2,1.6 4.4,2.4 7,2.4 2.2,0 4,-0.6 5.3,-1.9 1.3,-1.3 1.9,-2.9 1.9,-5 0,-1.8 -0.5,-3.3 -1.6,-4.5 -1.1,-1.2 -2.7,-1.7 -4.7,-1.7 -2,0 -3.7,0.7 -4.9,2 l -2.9,-0.4 0.8,-16.4 h 15.9 z m 34.7,31.2 c -1.8,0 -3.5,-0.2 -4.9,-0.7 -1.4,-0.5 -2.5,-1 -3.1,-1.7 l 1.1,-3 c 1.9,1.5 4.2,2.3 6.9,2.3 2.1,0 3.7,-0.5 4.9,-1.5 1.2,-1 1.8,-2.4 1.8,-4.3 0,-1 -0.2,-1.9 -0.5,-2.6 -0.3,-0.7 -0.7,-1.3 -1.2,-1.8 -0.5,-0.5 -1.2,-0.8 -2,-1.1 -0.8,-0.3 -1.6,-0.5 -2.5,-0.6 -0.9,-0.1 -1.8,-0.2 -2.9,-0.2 -0.1,0 -0.3,0 -0.6,0 -0.3,0 -0.5,0 -0.6,0 v -3.1 h 1 c 1,0 1.8,-0.1 2.5,-0.2 0.7,-0.1 1.5,-0.2 2.2,-0.5 0.7,-0.3 1.3,-0.5 1.8,-0.9 0.5,-0.4 0.9,-0.9 1.2,-1.5 0.3,-0.6 0.5,-1.4 0.5,-2.3 0,-3.3 -1.9,-4.9 -5.6,-4.9 -1.4,0 -2.6,0.2 -3.8,0.6 -1.2,0.4 -2.2,0.9 -3.1,1.6 l -1.1,-3 c 2,-1.5 5,-2.3 8.8,-2.3 1.5,0 3,0.3 4.3,0.9 1.3,0.6 2.4,1.4 3.2,2.6 0.8,1.2 1.3,2.5 1.3,4.1 0,1.9 -0.5,3.5 -1.4,4.7 -0.9,1.2 -2.3,2.1 -4,2.6 1.9,0.4 3.4,1.3 4.5,2.7 1.1,1.4 1.6,3.1 1.6,5.2 0,2.7 -1,4.8 -2.9,6.5 -1.9,1.7 -4.4,2.4 -7.4,2.4 z m 33.1,-31.2 -0.3,3.4 h -12.5 c -0.1,4 -0.2,7.2 -0.3,9.7 1.5,-1 3.2,-1.5 5,-1.5 1.5,0 2.9,0.2 4.1,0.7 1.2,0.5 2.2,1.2 2.9,2 0.7,0.8 1.3,1.8 1.7,3 0.4,1.2 0.6,2.3 0.6,3.7 0,3.1 -1,5.6 -3,7.5 -2,1.9 -4.7,2.8 -8.1,2.8 -3.4,0 -6.2,-0.9 -8.2,-2.8 l 1.3,-2.9 c 2,1.6 4.4,2.4 7,2.4 2.2,0 4,-0.6 5.3,-1.9 1.3,-1.3 1.9,-2.9 1.9,-5 0,-1.8 -0.5,-3.3 -1.6,-4.5 -1.1,-1.2 -2.7,-1.7 -4.7,-1.7 -2,0 -3.7,0.7 -4.9,2 l -2.9,-0.4 0.8,-16.4 h 15.9 z"
   id="path23"
   inkscape:connector-curvature="0"
   style="clip-rule:evenodd;fill:#37c3be;fill-rule:evenodd" />
			<path
   class="st2"
   d="m 108.8,118.1 -0.3,-6.3 h 1.9 l -0.4,6.3 z m -3.6,0 -0.3,-6.3 h 1.9 l -0.4,6.3 z m 15.8,13.2 c -1.1,0 -2.1,-0.2 -3,-0.7 -0.9,-0.5 -1.5,-1.2 -2,-2.1 -0.5,-0.9 -0.9,-1.9 -1.1,-3.1 -0.2,-1.2 -0.4,-2.5 -0.4,-3.9 0,-1.2 0.1,-2.3 0.2,-3.3 0.1,-1 0.4,-1.9 0.8,-2.7 0.4,-0.8 0.8,-1.5 1.3,-2.1 0.5,-0.6 1.1,-1 1.8,-1.3 0.7,-0.3 1.5,-0.5 2.4,-0.5 1.1,0 2,0.2 2.9,0.7 0.9,0.5 1.5,1.1 2,2 0.5,0.9 0.9,1.9 1.2,3.1 0.3,1.2 0.4,2.5 0.4,4 0,1.4 -0.1,2.7 -0.4,3.9 -0.3,1.2 -0.6,2.2 -1.1,3.1 -0.5,0.9 -1.2,1.6 -2,2.1 -0.8,0.5 -1.8,0.8 -3,0.8 z m 0,-17.7 c -0.9,0 -1.6,0.3 -2.2,1 -0.6,0.7 -1.1,1.6 -1.4,2.8 -0.3,1.2 -0.5,2.5 -0.5,4 0,1.5 0.2,2.9 0.5,4.1 0.3,1.2 0.8,2.1 1.4,2.8 0.6,0.7 1.4,1 2.2,1 0.9,0 1.6,-0.3 2.2,-1 0.6,-0.7 1.1,-1.6 1.4,-2.8 0.3,-1.2 0.5,-2.6 0.5,-4.1 0,-1.5 -0.2,-2.9 -0.5,-4 -0.3,-1.1 -0.8,-2.1 -1.4,-2.8 -0.6,-0.7 -1.3,-1 -2.2,-1 z m 14.5,4.5 -0.3,-6.3 h 1.9 l -0.4,6.3 z m -3.6,0 -0.3,-6.3 h 1.9 l -0.4,6.3 z"
   id="path25"
   inkscape:connector-curvature="0"
   style="clip-rule:evenodd;fill:#ffffff;fill-rule:evenodd" />
		</g>
		<g
   id="Group-2-Copy-2"
   transform="translate(277)">
			<path
   class="st0"
   d="m 10,0 h 174 c 5.5,0 10,4.5 10,10 v 71 c 0,5.5 -4.5,10 -10,10 H 10 C 4.5,91 0,86.5 0,81 V 10 C 0,4.5 4.5,0 10,0 Z"
   id="path28"
   inkscape:connector-curvature="0"
   style="fill:#245466" />
			<path
   class="st1"
   d="m 34.5,31.3 h 3.3 V 62 H 34.2 V 35.1 c -1.4,0.9 -3.1,1.7 -5.1,2.3 V 34 c 0.2,-0.1 0.7,-0.3 1.3,-0.6 0.6,-0.3 1.2,-0.5 1.5,-0.7 0.3,-0.2 0.8,-0.4 1.3,-0.6 0.5,-0.2 0.9,-0.5 1.3,-0.8 z M 43.5,62 43,58.6 53.6,46.8 C 54.3,46 55,45 55.7,43.7 c 0.7,-1.3 1.1,-2.3 1.4,-3.2 l 0.5,-1.3 c 0,-1.7 -0.5,-3 -1.4,-3.9 -0.9,-0.9 -2.3,-1.4 -4,-1.4 -2.9,0 -5.2,0.8 -6.8,2.5 l -1.2,-3.1 c 1.9,-1.8 4.6,-2.7 8.3,-2.7 2.8,0 5,0.8 6.7,2.3 1.7,1.5 2.5,3.5 2.5,6.1 -0.1,0.2 -0.1,0.4 -0.2,0.8 -0.1,0.4 -0.3,0.9 -0.7,1.9 -0.4,1 -0.7,1.8 -1.1,2.6 -0.4,0.8 -0.9,1.7 -1.5,2.7 -0.6,1 -1.2,1.8 -1.9,2.5 l -8.7,9.2 H 61.8 L 61.4,62 Z M 77.1,43.1 c 1.7,0 3.3,0.4 4.8,1.2 1.5,0.8 2.6,2 3.5,3.5 0.9,1.5 1.3,3.2 1.3,5 0,2.8 -0.9,5.1 -2.8,6.9 -1.9,1.8 -4.4,2.7 -7.4,2.7 -1.6,0 -3.1,-0.3 -4.4,-0.8 -1.3,-0.5 -2.4,-1.3 -3.3,-2.2 -0.9,-0.9 -1.5,-2 -2,-3.2 -0.5,-1.2 -0.7,-2.5 -0.7,-3.9 0,-2.2 0.4,-4.2 1.2,-6 0.8,-1.8 2.3,-4 4.4,-6.7 0.5,-0.7 1.3,-1.7 2.5,-3 1.2,-1.3 2.1,-2.6 3,-3.6 l 1.3,-1.6 h 4.7 L 72.5,44.3 c 1.5,-0.8 3.1,-1.2 4.6,-1.2 z M 70,52.7 c 0,1.2 0.2,2.3 0.7,3.3 0.5,1 1.2,1.8 2.2,2.4 1,0.6 2.1,0.9 3.5,0.9 2,0 3.6,-0.6 4.8,-1.9 1.2,-1.3 1.7,-2.8 1.7,-4.6 0,-1.9 -0.6,-3.5 -1.7,-4.8 -1.1,-1.3 -2.7,-1.9 -4.8,-1.9 -2.1,0 -3.7,0.6 -4.8,1.8 -1.1,1.2 -1.6,2.9 -1.6,4.8 z m 45.8,-21.4 h 3.3 V 62 h -3.6 V 35.1 c -1.4,0.9 -3.1,1.7 -5.1,2.3 V 34 c 0.2,-0.1 0.7,-0.3 1.3,-0.6 0.6,-0.3 1.2,-0.5 1.5,-0.7 0.3,-0.2 0.8,-0.4 1.3,-0.6 0.5,-0.2 0.9,-0.5 1.3,-0.8 z m 16.8,31.2 c -1.8,0 -3.5,-0.2 -4.9,-0.7 -1.4,-0.5 -2.5,-1 -3.1,-1.7 l 1.1,-3 c 1.9,1.5 4.2,2.3 6.9,2.3 2.1,0 3.7,-0.5 4.9,-1.5 1.2,-1 1.8,-2.4 1.8,-4.3 0,-1 -0.2,-1.9 -0.5,-2.6 -0.3,-0.7 -0.7,-1.3 -1.2,-1.8 -0.5,-0.5 -1.2,-0.8 -2,-1.1 -0.8,-0.3 -1.6,-0.5 -2.5,-0.6 -0.9,-0.1 -1.8,-0.2 -2.9,-0.2 -0.1,0 -0.3,0 -0.6,0 -0.3,0 -0.5,0 -0.6,0 v -3.1 h 1 c 1,0 1.8,-0.1 2.5,-0.2 0.7,-0.1 1.5,-0.2 2.2,-0.5 0.7,-0.3 1.3,-0.5 1.8,-0.9 0.5,-0.4 0.9,-0.9 1.2,-1.5 0.3,-0.6 0.5,-1.4 0.5,-2.3 0,-3.3 -1.9,-4.9 -5.6,-4.9 -1.4,0 -2.6,0.2 -3.8,0.6 -1.2,0.4 -2.2,0.9 -3.1,1.6 l -1.1,-3 c 2,-1.5 5,-2.3 8.8,-2.3 1.5,0 3,0.3 4.3,0.9 1.3,0.6 2.4,1.4 3.2,2.6 0.8,1.2 1.3,2.5 1.3,4.1 0,1.9 -0.5,3.5 -1.4,4.7 -0.9,1.2 -2.3,2.1 -4,2.6 1.9,0.4 3.4,1.3 4.5,2.7 1.1,1.4 1.6,3.1 1.6,5.2 0,2.7 -1,4.8 -2.9,6.5 -1.9,1.7 -4.4,2.4 -7.4,2.4 z m 22.6,0 c -1.8,0 -3.5,-0.2 -4.9,-0.7 -1.4,-0.5 -2.5,-1 -3.1,-1.7 l 1.1,-3 c 1.9,1.5 4.2,2.3 6.9,2.3 2.1,0 3.7,-0.5 4.9,-1.5 1.2,-1 1.8,-2.4 1.8,-4.3 0,-1 -0.2,-1.9 -0.5,-2.6 -0.3,-0.7 -0.7,-1.3 -1.2,-1.8 -0.5,-0.5 -1.2,-0.8 -2,-1.1 -0.8,-0.3 -1.6,-0.5 -2.5,-0.6 -0.9,-0.1 -1.8,-0.2 -2.9,-0.2 -0.1,0 -0.3,0 -0.6,0 -0.3,0 -0.5,0 -0.6,0 v -3.1 h 1 c 1,0 1.8,-0.1 2.5,-0.2 0.7,-0.1 1.5,-0.2 2.2,-0.5 0.7,-0.3 1.3,-0.5 1.8,-0.9 0.5,-0.4 0.9,-0.9 1.2,-1.5 0.3,-0.6 0.5,-1.4 0.5,-2.3 0,-3.3 -1.9,-4.9 -5.6,-4.9 -1.4,0 -2.6,0.2 -3.8,0.6 -1.2,0.4 -2.2,0.9 -3.1,1.6 l -1.1,-3 c 2,-1.5 5,-2.3 8.8,-2.3 1.5,0 3,0.3 4.3,0.9 1.3,0.6 2.4,1.4 3.2,2.6 0.8,1.2 1.3,2.5 1.3,4.1 0,1.9 -0.5,3.5 -1.4,4.7 -0.9,1.2 -2.3,2.1 -4,2.6 1.9,0.4 3.4,1.3 4.5,2.7 1.1,1.4 1.6,3.1 1.6,5.2 0,2.7 -1,4.8 -2.9,6.5 -1.9,1.7 -4.4,2.4 -7.4,2.4 z"
   id="path30"
   inkscape:connector-curvature="0"
   style="clip-rule:evenodd;fill:#37c3be;fill-rule:evenodd" />
			<path
   class="st2"
   d="m 88.7,118.1 -0.3,-6.3 h 1.9 l -0.4,6.3 z m -3.6,0 -0.3,-6.3 h 1.9 l -0.4,6.3 z M 96.9,112 h 2 v 19 h -2.2 v -16.6 c -0.9,0.6 -1.9,1 -3.1,1.4 v -2.1 c 0.1,-0.1 0.4,-0.2 0.8,-0.4 0.4,-0.2 0.7,-0.3 0.9,-0.4 0.2,-0.1 0.5,-0.2 0.8,-0.4 0.3,-0.2 0.5,-0.3 0.8,-0.5 z m 10.7,6.1 -0.3,-6.3 h 1.9 l -0.4,6.3 z m -3.6,0 -0.3,-6.3 h 1.9 l -0.4,6.3 z"
   id="path32"
   inkscape:connector-curvature="0"
   style="clip-rule:evenodd;fill:#ffffff;fill-rule:evenodd" />
		</g>
	</g>
	<g
   id="Group-3"
   transform="translate(366,337)">
		<path
   class="st0"
   d="m 10,0 h 143 c 5.5,0 10,4.5 10,10 v 71 c 0,5.5 -4.5,10 -10,10 H 10 C 4.5,91 0,86.5 0,81 V 10 C 0,4.5 4.5,0 10,0 Z"
   id="path36"
   inkscape:connector-curvature="0"
   style="fill:#245466" />
		<path
   class="st1"
   d="m 24.9,31.3 h 3.3 V 62 H 24.6 V 35.1 c -1.4,0.9 -3.1,1.7 -5.1,2.3 V 34 c 0.2,-0.1 0.7,-0.3 1.3,-0.6 0.6,-0.3 1.2,-0.5 1.5,-0.7 0.3,-0.2 0.8,-0.4 1.3,-0.6 0.5,-0.2 0.9,-0.5 1.3,-0.8 z m 16.8,31.2 c -1.8,0 -3.5,-0.2 -4.9,-0.7 -1.4,-0.5 -2.5,-1 -3.1,-1.7 l 1.1,-3 c 1.9,1.5 4.2,2.3 6.9,2.3 2.1,0 3.7,-0.5 4.9,-1.5 1.2,-1 1.8,-2.4 1.8,-4.3 0,-1 -0.2,-1.9 -0.5,-2.6 -0.3,-0.7 -0.7,-1.3 -1.2,-1.8 -0.5,-0.5 -1.2,-0.8 -2,-1.1 -0.8,-0.3 -1.6,-0.5 -2.5,-0.6 -0.9,-0.1 -1.8,-0.2 -2.9,-0.2 -0.1,0 -0.3,0 -0.6,0 -0.3,0 -0.5,0 -0.6,0 v -3.1 h 1 c 1,0 1.8,-0.1 2.5,-0.2 0.7,-0.1 1.5,-0.2 2.2,-0.5 0.7,-0.3 1.3,-0.5 1.8,-0.9 0.5,-0.4 0.9,-0.9 1.2,-1.5 0.3,-0.6 0.5,-1.4 0.5,-2.3 0,-3.3 -1.9,-4.9 -5.6,-4.9 -1.4,0 -2.6,0.2 -3.8,0.6 -1.2,0.4 -2.2,0.9 -3.1,1.6 l -1.1,-3 c 2,-1.5 5,-2.3 8.8,-2.3 1.5,0 3,0.3 4.3,0.9 1.3,0.6 2.4,1.4 3.2,2.6 0.8,1.2 1.3,2.5 1.3,4.1 0,1.9 -0.5,3.5 -1.4,4.7 -0.9,1.2 -2.3,2.1 -4,2.6 1.9,0.4 3.4,1.3 4.5,2.7 1.1,1.4 1.6,3.1 1.6,5.2 0,2.7 -1,4.8 -2.9,6.5 -1.9,1.7 -4.3,2.4 -7.4,2.4 z m 22.7,0 c -1.8,0 -3.5,-0.2 -4.9,-0.7 -1.4,-0.5 -2.5,-1 -3.1,-1.7 l 1.1,-3 c 1.9,1.5 4.2,2.3 6.9,2.3 2.1,0 3.7,-0.5 4.9,-1.5 1.2,-1 1.8,-2.4 1.8,-4.3 0,-1 -0.2,-1.9 -0.5,-2.6 -0.3,-0.7 -0.7,-1.3 -1.2,-1.8 -0.5,-0.5 -1.2,-0.8 -2,-1.1 -0.8,-0.3 -1.6,-0.5 -2.5,-0.6 -0.9,-0.1 -1.8,-0.2 -2.9,-0.2 -0.1,0 -0.3,0 -0.6,0 -0.3,0 -0.5,0 -0.6,0 v -3.1 h 1 c 1,0 1.8,-0.1 2.5,-0.2 0.7,-0.1 1.5,-0.2 2.2,-0.5 0.7,-0.3 1.3,-0.5 1.8,-0.9 0.5,-0.4 0.9,-0.9 1.2,-1.5 0.3,-0.6 0.5,-1.4 0.5,-2.3 0,-3.3 -1.9,-4.9 -5.6,-4.9 -1.4,0 -2.6,0.2 -3.8,0.6 -1.2,0.4 -2.2,0.9 -3.1,1.6 l -1.1,-3 c 2,-1.5 5,-2.3 8.8,-2.3 1.5,0 3,0.3 4.3,0.9 1.3,0.6 2.4,1.4 3.2,2.6 0.8,1.2 1.3,2.5 1.3,4.1 0,1.9 -0.5,3.5 -1.4,4.7 -0.9,1.2 -2.3,2.1 -4,2.6 1.9,0.4 3.4,1.3 4.5,2.7 1.1,1.4 1.6,3.1 1.6,5.2 0,2.7 -1,4.8 -2.9,6.5 -1.9,1.7 -4.4,2.4 -7.4,2.4 z M 100.1,62 99.6,58.6 110.2,46.8 c 0.7,-0.8 1.4,-1.8 2.1,-3.1 0.7,-1.3 1.1,-2.3 1.4,-3.2 l 0.5,-1.3 c 0,-1.7 -0.5,-3 -1.4,-3.9 -0.9,-0.9 -2.3,-1.4 -4,-1.4 -2.9,0 -5.2,0.8 -6.8,2.5 l -1.2,-3.1 c 1.9,-1.8 4.6,-2.7 8.3,-2.7 2.8,0 5,0.8 6.7,2.3 1.7,1.5 2.5,3.5 2.5,6.1 -0.1,0.2 -0.1,0.4 -0.2,0.8 -0.1,0.4 -0.3,0.9 -0.7,1.9 -0.4,1 -0.7,1.8 -1.1,2.6 -0.4,0.8 -0.9,1.7 -1.5,2.7 -0.6,1 -1.2,1.8 -1.9,2.5 l -8.7,9.2 h 14.2 L 118,62 Z m 30.7,0.5 c -1.8,0 -3.5,-0.2 -4.9,-0.7 -1.4,-0.5 -2.5,-1 -3.1,-1.7 l 1.1,-3 c 1.9,1.5 4.2,2.3 6.9,2.3 2.1,0 3.7,-0.5 4.9,-1.5 1.2,-1 1.8,-2.4 1.8,-4.3 0,-1 -0.2,-1.9 -0.5,-2.6 -0.3,-0.7 -0.7,-1.3 -1.2,-1.8 -0.5,-0.5 -1.2,-0.8 -2,-1.1 -0.8,-0.3 -1.6,-0.5 -2.5,-0.6 -0.9,-0.1 -1.8,-0.2 -2.9,-0.2 -0.1,0 -0.3,0 -0.6,0 -0.3,0 -0.5,0 -0.6,0 v -3.1 h 1 c 1,0 1.8,-0.1 2.5,-0.2 0.7,-0.1 1.5,-0.2 2.2,-0.5 0.7,-0.3 1.3,-0.5 1.8,-0.9 0.5,-0.4 0.9,-0.9 1.2,-1.5 0.3,-0.6 0.5,-1.4 0.5,-2.3 0,-3.3 -1.9,-4.9 -5.6,-4.9 -1.4,0 -2.6,0.2 -3.8,0.6 -1.2,0.4 -2.2,0.9 -3.1,1.6 l -1.1,-3 c 2,-1.5 5,-2.3 8.8,-2.3 1.5,0 3,0.3 4.3,0.9 1.3,0.6 2.4,1.4 3.2,2.6 0.8,1.2 1.3,2.5 1.3,4.1 0,1.9 -0.5,3.5 -1.4,4.7 -0.9,1.2 -2.3,2.1 -4,2.6 1.9,0.4 3.4,1.3 4.5,2.7 1.1,1.4 1.6,3.1 1.6,5.2 0,2.7 -1,4.8 -2.9,6.5 -1.9,1.7 -4.4,2.4 -7.4,2.4 z"
   id="path38"
   inkscape:connector-curvature="0"
   style="clip-rule:evenodd;fill:#37c3be;fill-rule:evenodd" />
		<path
   class="st2"
   d="m 69.7,118.1 -0.3,-6.3 h 1.9 l -0.4,6.3 z m -3.6,0 -0.3,-6.3 h 1.9 l -0.4,6.3 z m 14.2,13.2 c -1.1,0 -2.1,-0.1 -3,-0.4 -0.9,-0.3 -1.5,-0.6 -1.9,-1 l 0.7,-1.9 c 1.2,0.9 2.6,1.4 4.3,1.4 1.3,0 2.3,-0.3 3,-0.9 0.7,-0.6 1.1,-1.5 1.1,-2.6 0,-0.6 -0.1,-1.2 -0.3,-1.6 -0.2,-0.4 -0.4,-0.8 -0.8,-1.1 -0.4,-0.3 -0.7,-0.5 -1.2,-0.7 -0.5,-0.2 -1,-0.3 -1.5,-0.4 -0.5,-0.1 -1.1,-0.1 -1.8,-0.1 -0.1,0 -0.2,0 -0.4,0 -0.2,0 -0.3,0 -0.4,0 v -1.9 h 0.6 c 0.6,0 1.1,0 1.6,-0.1 0.5,-0.1 0.9,-0.2 1.4,-0.3 0.5,-0.1 0.8,-0.3 1.1,-0.6 0.3,-0.3 0.5,-0.6 0.7,-1 0.2,-0.4 0.3,-0.9 0.3,-1.4 0,-2 -1.2,-3 -3.5,-3 -0.8,0 -1.6,0.1 -2.4,0.4 -0.7,0.2 -1.4,0.6 -1.9,1 l -0.7,-1.9 c 1.3,-1 3.1,-1.4 5.4,-1.4 1,0 1.8,0.2 2.7,0.5 0.8,0.4 1.5,0.9 2,1.6 0.5,0.7 0.8,1.6 0.8,2.5 0,1.2 -0.3,2.2 -0.9,2.9 -0.6,0.8 -1.4,1.3 -2.5,1.6 1.2,0.3 2.1,0.8 2.8,1.7 0.7,0.9 1,1.9 1,3.2 0,1.7 -0.6,3 -1.8,4 -1.2,1 -2.6,1.5 -4.5,1.5 z m 14.3,-13.2 -0.3,-6.3 h 1.9 l -0.4,6.3 z m -3.6,0 -0.3,-6.3 h 1.9 l -0.4,6.3 z"
   id="path40"
   inkscape:connector-curvature="0"
   style="clip-rule:evenodd;fill:#ffffff;fill-rule:evenodd" />
		<path
   class="st0"
   d="m 212,0 h 129 c 5.5,0 10,4.5 10,10 v 71 c 0,5.5 -4.5,10 -10,10 H 212 c -5.5,0 -10,-4.5 -10,-10 V 10 c 0,-5.5 4.5,-10 10,-10 z"
   id="path42"
   inkscape:connector-curvature="0"
   style="fill:#245466" />
		<path
   class="st1"
   d="M 222.9,62 222.4,58.6 233,46.8 c 0.7,-0.8 1.4,-1.8 2.1,-3.1 0.7,-1.3 1.1,-2.3 1.4,-3.2 l 0.5,-1.3 c 0,-1.7 -0.5,-3 -1.4,-3.9 -0.9,-0.9 -2.3,-1.4 -4,-1.4 -2.9,0 -5.2,0.8 -6.8,2.5 l -1.2,-3.1 c 1.9,-1.8 4.6,-2.7 8.3,-2.7 2.8,0 5,0.8 6.7,2.3 1.7,1.5 2.5,3.5 2.5,6.1 -0.1,0.2 -0.1,0.4 -0.2,0.8 -0.1,0.4 -0.3,0.9 -0.7,1.9 -0.4,1 -0.7,1.8 -1.1,2.6 -0.4,0.8 -0.9,1.7 -1.5,2.7 -0.6,1 -1.2,1.8 -1.9,2.5 l -8.7,9.2 h 14.2 l -0.2,3.2 h -18.1 z m 41.2,-30.7 -0.3,3.4 h -12.5 c -0.1,4 -0.2,7.2 -0.3,9.7 1.5,-1 3.2,-1.5 5,-1.5 1.5,0 2.9,0.2 4.1,0.7 1.2,0.5 2.2,1.2 2.9,2 0.7,0.8 1.3,1.8 1.7,3 0.4,1.2 0.6,2.3 0.6,3.7 0,3.1 -1,5.6 -3,7.5 -2,1.9 -4.7,2.8 -8.1,2.8 -3.4,0 -6.2,-0.9 -8.2,-2.8 l 1.3,-2.9 c 2,1.6 4.4,2.4 7,2.4 2.2,0 4,-0.6 5.3,-1.9 1.3,-1.3 1.9,-2.9 1.9,-5 0,-1.8 -0.5,-3.3 -1.6,-4.5 -1.1,-1.2 -2.7,-1.7 -4.7,-1.7 -2,0 -3.7,0.7 -4.9,2 l -2.9,-0.4 0.8,-16.4 h 15.9 z m 34.7,31.2 c -1.8,0 -3.5,-0.2 -4.9,-0.7 -1.4,-0.5 -2.5,-1 -3.1,-1.7 l 1.1,-3 c 1.9,1.5 4.2,2.3 6.9,2.3 2.1,0 3.7,-0.5 4.9,-1.5 1.2,-1 1.8,-2.4 1.8,-4.3 0,-1 -0.2,-1.9 -0.5,-2.6 -0.3,-0.7 -0.7,-1.3 -1.2,-1.8 -0.5,-0.5 -1.2,-0.8 -2,-1.1 -0.8,-0.3 -1.6,-0.5 -2.5,-0.6 -0.9,-0.1 -1.8,-0.2 -2.9,-0.2 -0.1,0 -0.3,0 -0.6,0 -0.3,0 -0.5,0 -0.6,0 v -3.1 h 1 c 1,0 1.8,-0.1 2.5,-0.2 0.7,-0.1 1.5,-0.2 2.2,-0.5 0.7,-0.3 1.3,-0.5 1.8,-0.9 0.5,-0.4 0.9,-0.9 1.2,-1.5 0.3,-0.6 0.5,-1.4 0.5,-2.3 0,-3.3 -1.9,-4.9 -5.6,-4.9 -1.4,0 -2.6,0.2 -3.8,0.6 -1.2,0.4 -2.2,0.9 -3.1,1.6 l -1.1,-3 c 2,-1.5 5,-2.3 8.8,-2.3 1.5,0 3,0.3 4.3,0.9 1.3,0.6 2.4,1.4 3.2,2.6 0.8,1.2 1.3,2.5 1.3,4.1 0,1.9 -0.5,3.5 -1.4,4.7 -0.9,1.2 -2.3,2.1 -4,2.6 1.9,0.4 3.4,1.3 4.5,2.7 1.1,1.4 1.6,3.1 1.6,5.2 0,2.7 -1,4.8 -2.9,6.5 -1.9,1.7 -4.4,2.4 -7.4,2.4 z m 33,-31.2 -0.3,3.4 H 319 c -0.1,4 -0.2,7.2 -0.3,9.7 1.5,-1 3.2,-1.5 5,-1.5 1.5,0 2.9,0.2 4.1,0.7 1.2,0.5 2.2,1.2 2.9,2 0.7,0.8 1.3,1.8 1.7,3 0.4,1.2 0.6,2.3 0.6,3.7 0,3.1 -1,5.6 -3,7.5 -2,1.9 -4.7,2.8 -8.1,2.8 -3.4,0 -6.2,-0.9 -8.2,-2.8 l 1.3,-2.9 c 2,1.6 4.4,2.4 7,2.4 2.2,0 4,-0.6 5.3,-1.9 1.3,-1.3 1.9,-2.9 1.9,-5 0,-1.8 -0.5,-3.3 -1.6,-4.5 -1.1,-1.2 -2.7,-1.7 -4.7,-1.7 -2,0 -3.7,0.7 -4.9,2 l -2.9,-0.4 0.8,-16.4 h 15.9 z"
   id="path44"
   inkscape:connector-curvature="0"
   style="clip-rule:evenodd;fill:#37c3be;fill-rule:evenodd" />
		<path
   class="st2"
   d="m 264.7,118.1 -0.3,-6.3 h 1.9 l -0.4,6.3 z m -3.6,0 -0.3,-6.3 h 1.9 l -0.4,6.3 z m 20.7,-6.1 -0.2,2.1 h -7.8 c -0.1,2.5 -0.1,4.5 -0.2,6 1,-0.6 2,-0.9 3.1,-0.9 0.9,0 1.8,0.2 2.5,0.5 0.7,0.3 1.3,0.7 1.8,1.2 0.5,0.5 0.8,1.1 1.1,1.8 0.3,0.7 0.4,1.5 0.4,2.3 0,1.9 -0.6,3.5 -1.8,4.6 -1.2,1.1 -2.9,1.7 -5,1.7 -2.1,0 -3.8,-0.6 -5.1,-1.7 l 0.8,-1.8 c 1.3,1 2.7,1.5 4.4,1.5 1.4,0 2.5,-0.4 3.3,-1.2 0.8,-0.8 1.2,-1.8 1.2,-3.1 0,-1.1 -0.3,-2.1 -1,-2.8 -0.7,-0.7 -1.6,-1.1 -2.9,-1.1 -1.3,0 -2.3,0.4 -3,1.3 l -1.8,-0.2 0.5,-10.2 z m 8.8,6.1 -0.3,-6.3 h 1.9 l -0.4,6.3 z m -3.6,0 -0.3,-6.3 h 1.9 l -0.4,6.3 z"
   id="path46"
   inkscape:connector-curvature="0"
   style="clip-rule:evenodd;fill:#ffffff;fill-rule:evenodd" />
		<path
   id="Rectangle-Copy-2"
   class="st0"
   d="m 400,0 h 87 c 5.5,0 10,4.5 10,10 v 71 c 0,5.5 -4.5,10 -10,10 h -87 c -5.5,0 -10,-4.5 -10,-10 V 10 c 0,-5.5 4.5,-10 10,-10 z"
   inkscape:connector-curvature="0"
   style="fill:#245466" />
		<path
   class="st1"
   d="m 421.5,31.3 h 3.3 V 62 h -3.6 V 35.1 c -1.4,0.9 -3.1,1.7 -5.1,2.3 V 34 c 0.2,-0.1 0.7,-0.3 1.3,-0.6 0.6,-0.3 1.2,-0.5 1.5,-0.7 0.3,-0.2 0.8,-0.4 1.3,-0.6 0.5,-0.2 1,-0.5 1.3,-0.8 z m 9,30.7 -0.5,-3.4 10.6,-11.8 c 0.7,-0.8 1.4,-1.8 2.1,-3.1 0.7,-1.3 1.1,-2.3 1.4,-3.2 l 0.5,-1.3 c 0,-1.7 -0.5,-3 -1.4,-3.9 -0.9,-0.9 -2.3,-1.4 -4,-1.4 -2.9,0 -5.2,0.8 -6.8,2.5 l -1.2,-3.1 c 1.9,-1.8 4.6,-2.7 8.3,-2.7 2.8,0 5,0.8 6.7,2.3 1.7,1.5 2.5,3.5 2.5,6.1 -0.1,0.2 -0.1,0.4 -0.2,0.8 -0.1,0.4 -0.3,0.9 -0.7,1.9 -0.4,1 -0.7,1.8 -1.1,2.6 -0.4,0.8 -0.9,1.7 -1.5,2.7 -0.6,1 -1.2,1.8 -1.9,2.5 l -8.7,9.2 h 14.2 l -0.2,3.2 h -18.1 z m 33.6,-18.9 c 1.7,0 3.3,0.4 4.8,1.2 1.5,0.8 2.6,2 3.5,3.5 0.9,1.5 1.3,3.2 1.3,5 0,2.8 -0.9,5.1 -2.8,6.9 -1.9,1.8 -4.4,2.7 -7.4,2.7 -1.6,0 -3.1,-0.3 -4.4,-0.8 -1.3,-0.5 -2.4,-1.3 -3.3,-2.2 -0.9,-0.9 -1.5,-2 -2,-3.2 -0.5,-1.2 -0.7,-2.5 -0.7,-3.9 0,-2.2 0.4,-4.2 1.2,-6 0.8,-1.8 2.3,-4 4.4,-6.7 0.5,-0.7 1.3,-1.7 2.5,-3 1.2,-1.3 2.1,-2.6 3,-3.6 l 1.3,-1.6 h 4.7 l -10.8,12.9 c 1.7,-0.8 3.2,-1.2 4.7,-1.2 z m -7,9.6 c 0,1.2 0.2,2.3 0.7,3.3 0.5,1 1.2,1.8 2.2,2.4 1,0.6 2.1,0.9 3.5,0.9 2,0 3.6,-0.6 4.8,-1.9 1.2,-1.3 1.7,-2.8 1.7,-4.6 0,-1.9 -0.6,-3.5 -1.7,-4.8 -1.1,-1.3 -2.7,-1.9 -4.8,-1.9 -2.1,0 -3.7,0.6 -4.8,1.8 -1.1,1.2 -1.6,2.9 -1.6,4.8 z"
   id="path49"
   inkscape:connector-curvature="0"
   style="clip-rule:evenodd;fill:#37c3be;fill-rule:evenodd" />
		<path
   class="st2"
   d="m 433.1,118.1 -0.3,-6.3 h 1.9 l -0.4,6.3 z m -3.6,0 -0.3,-6.3 h 1.9 l -0.4,6.3 z m 16,1.2 c 1.1,0 2.1,0.3 3,0.8 0.9,0.5 1.6,1.2 2.2,2.1 0.6,0.9 0.8,2 0.8,3.1 0,1.7 -0.6,3.2 -1.7,4.3 -1.2,1.1 -2.7,1.7 -4.6,1.7 -1,0 -1.9,-0.2 -2.7,-0.5 -0.8,-0.3 -1.5,-0.8 -2,-1.4 -0.5,-0.6 -0.9,-1.2 -1.2,-2 -0.3,-0.8 -0.4,-1.6 -0.4,-2.4 0,-1.4 0.3,-2.6 0.8,-3.7 0.5,-1.1 1.4,-2.5 2.7,-4.1 0.3,-0.4 0.8,-1 1.5,-1.9 0.7,-0.8 1.3,-1.6 1.9,-2.2 l 0.8,-1 h 2.9 l -6.7,8 c 0.8,-0.5 1.7,-0.8 2.7,-0.8 z m -4.4,5.9 c 0,0.8 0.1,1.4 0.4,2 0.3,0.6 0.7,1.1 1.3,1.5 0.6,0.4 1.3,0.6 2.2,0.6 1.3,0 2.2,-0.4 3,-1.2 0.8,-0.8 1.1,-1.7 1.1,-2.9 0,-1.2 -0.4,-2.2 -1.1,-3 -0.7,-0.8 -1.7,-1.2 -3,-1.2 -1.3,0 -2.3,0.4 -3,1.1 -0.6,1 -0.9,2 -0.9,3.1 z m 18.2,-7.1 -0.3,-6.3 h 1.9 l -0.4,6.3 z m -3.7,0 -0.3,-6.3 h 1.9 l -0.4,6.3 z"
   id="path51"
   inkscape:connector-curvature="0"
   style="clip-rule:evenodd;fill:#ffffff;fill-rule:evenodd" />
	</g>
	<path
   class="st2"
   d="m 129.6,85 -6.8,-22.5 h 5.5 l 4.3,16.5 c 0.1,-0.3 0.9,-3 2.3,-8.1 1.5,-5.1 2.3,-7.9 2.5,-8.5 h 5.5 c 0.2,0.6 1,3.4 2.4,8.4 1.4,5 2.1,7.7 2.3,8.1 l 4.5,-16.5 h 5.4 L 150.3,85 h -5.4 c -0.2,-0.6 -1,-3.6 -2.5,-8.9 -1.5,-5.4 -2.3,-8.3 -2.4,-8.7 -0.3,1 -1.1,4 -2.6,9 -1.5,5 -2.3,7.9 -2.6,8.6 z m 41,-7.3 v -3.9 h 20.9 v 3.9 z m 0,-8.2 v -4 h 20.9 v 4 z m 43.8,15.9 c -1.8,0 -3.4,-0.2 -5,-0.7 -1.6,-0.5 -2.8,-1.1 -3.7,-1.9 l 1.5,-3.9 c 0.8,0.6 1.8,1.1 3.1,1.5 1.3,0.4 2.7,0.6 4.1,0.6 1.6,0 2.8,-0.4 3.8,-1.3 1,-0.9 1.4,-2 1.4,-3.3 0,-0.8 -0.1,-1.6 -0.4,-2.2 -0.3,-0.6 -0.6,-1.1 -1.1,-1.5 -0.5,-0.4 -1,-0.7 -1.8,-0.9 -0.8,-0.2 -1.5,-0.4 -2.2,-0.5 -0.7,-0.1 -1.7,-0.1 -2.8,-0.1 0,0 -0.2,0 -0.6,0 -0.4,0 -0.6,0 -0.6,0 v -4.1 h 1.1 c 1.2,0 2.2,-0.1 3.1,-0.2 0.9,-0.1 1.6,-0.3 2.4,-0.6 0.8,-0.3 1.3,-0.7 1.7,-1.3 0.4,-0.6 0.6,-1.3 0.6,-2.2 0,-1.2 -0.4,-2.2 -1.3,-3 -0.9,-0.8 -2.1,-1.2 -3.7,-1.2 -2.6,0 -4.9,0.6 -6.9,1.9 l -1.5,-3.9 c 2.5,-1.5 5.4,-2.3 8.9,-2.3 2.9,0 5.2,0.8 7,2.3 1.8,1.5 2.7,3.4 2.7,5.8 0,1.6 -0.4,3 -1.3,4.2 -0.9,1.2 -2.1,2 -3.7,2.5 1.8,0.4 3.3,1.2 4.3,2.6 1,1.4 1.5,3.1 1.5,5 0,1.8 -0.5,3.4 -1.5,4.7 -1,1.3 -2.3,2.3 -3.9,2.9 -1.6,0.6 -3.2,1.1 -5.2,1.1 z"
   id="path54"
   inkscape:connector-curvature="0"
   style="clip-rule:evenodd;fill:#ffffff;fill-rule:evenodd" />
	<path
   id="Line-2"
   class="st3"
   d="M 386,112 V 71 h -147 -1 v -2 h 1 148 1 v 1 42 h 6 l -7,14 -7,-14 z"
   inkscape:connector-curvature="0"
   style="fill:#ffffff" />
	<path
   id="Line-2-Copy"
   class="st3"
   d="m 337.2,384 h -199.1 -1 v -1 -282 -1 h 2 v 1 281 h 198.1 v -6 l 14,7 -14,7 z"
   inkscape:connector-curvature="0"
   style="fill:#ffffff" />
	<path
   class="st3"
   d="m 335.9,551 h -196.7 -1 v -1 -448 -1 h 2 v 1 447 h 195.6 v -6 l 14,7 -14,7 v -6 z"
   id="path58"
   inkscape:connector-curvature="0"
   style="fill:#ffffff" />
	<path
   class="st3"
   d="M 335.9,717 H 138 137 v -1 -614 -1 h 2 v 1 613 h 196.8 v -6 l 14,7 -14,7 v -6 z"
   id="path60"
   inkscape:connector-curvature="0"
   style="fill:#ffffff" />
	<path
   class="st1"
   d="m 369.2,176.6 h 2.5 V 200 H 369 v -20.5 c -1.1,0.7 -2.3,1.3 -3.9,1.8 v -2.6 c 0.2,-0.1 0.5,-0.2 1,-0.4 0.5,-0.2 0.9,-0.4 1.1,-0.5 0.2,-0.1 0.6,-0.3 1,-0.5 0.4,-0.2 0.8,-0.5 1,-0.7 z m 6.9,23.4 -0.4,-2.6 8.1,-9 c 0.5,-0.6 1.1,-1.4 1.6,-2.3 0.5,-0.9 0.9,-1.8 1.1,-2.4 l 0.4,-1 c 0,-1.3 -0.4,-2.3 -1.1,-3 -0.7,-0.7 -1.7,-1.1 -3.1,-1.1 -2.2,0 -3.9,0.6 -5.2,1.9 l -0.9,-2.3 c 1.4,-1.4 3.5,-2 6.3,-2 2.1,0 3.8,0.6 5.1,1.7 1.3,1.1 1.9,2.7 1.9,4.6 0,0.1 -0.1,0.3 -0.2,0.6 -0.1,0.3 -0.3,0.7 -0.5,1.4 -0.2,0.7 -0.6,1.4 -0.9,2 -0.3,0.6 -0.7,1.3 -1.1,2.1 -0.4,0.8 -0.9,1.4 -1.4,1.9 l -6.6,7 H 390 l -0.2,2.4 h -13.7 z m 25.6,-14.4 c 1.3,0 2.5,0.3 3.6,0.9 1.1,0.6 2,1.5 2.7,2.6 0.7,1.1 1,2.4 1,3.8 0,2.1 -0.7,3.9 -2.1,5.3 -1.4,1.4 -3.3,2.1 -5.7,2.1 -1.2,0 -2.3,-0.2 -3.3,-0.6 -1,-0.4 -1.8,-1 -2.5,-1.7 -0.7,-0.7 -1.2,-1.5 -1.5,-2.5 -0.3,-1 -0.5,-1.9 -0.5,-3 0,-1.7 0.3,-3.2 0.9,-4.6 0.6,-1.4 1.7,-3 3.4,-5.1 0.4,-0.5 1,-1.3 1.9,-2.3 0.9,-1 1.6,-2 2.3,-2.8 l 1,-1.2 h 3.6 l -8.2,9.8 c 1.1,-0.4 2.2,-0.7 3.4,-0.7 z m -5.4,7.3 c 0,0.9 0.2,1.8 0.5,2.5 0.3,0.7 0.9,1.4 1.6,1.8 0.7,0.4 1.6,0.7 2.7,0.7 1.5,0 2.8,-0.5 3.6,-1.4 0.8,-0.9 1.3,-2.1 1.3,-3.5 0,-1.5 -0.4,-2.7 -1.3,-3.6 -0.9,-0.9 -2.1,-1.4 -3.6,-1.4 -1.6,0 -2.8,0.5 -3.6,1.4 -0.8,0.9 -1.2,2.1 -1.2,3.5 z"
   id="path62"
   inkscape:connector-curvature="0"
   style="clip-rule:evenodd;fill:#37c3be;fill-rule:evenodd" />
	<path
   class="st1"
   d="m 491.1,176.6 h 2.5 V 200 h -2.8 v -20.5 c -1.1,0.7 -2.3,1.3 -3.9,1.8 v -2.6 c 0.2,-0.1 0.5,-0.2 1,-0.4 0.5,-0.2 0.9,-0.4 1.1,-0.5 0.2,-0.1 0.6,-0.3 1,-0.5 0.4,-0.2 0.8,-0.5 1.1,-0.7 z m 12.9,23.8 c -1.4,0 -2.6,-0.2 -3.7,-0.5 -1.1,-0.3 -1.9,-0.8 -2.4,-1.3 l 0.9,-2.3 c 1.5,1.2 3.2,1.7 5.2,1.7 1.6,0 2.8,-0.4 3.7,-1.2 0.9,-0.8 1.4,-1.9 1.4,-3.3 0,-0.8 -0.1,-1.4 -0.4,-2 -0.3,-0.6 -0.5,-1 -0.9,-1.4 -0.4,-0.4 -0.9,-0.6 -1.5,-0.8 -0.6,-0.2 -1.2,-0.4 -1.9,-0.5 -0.7,-0.1 -1.4,-0.1 -2.2,-0.2 -0.1,0 -0.3,0 -0.5,0 -0.2,0 -0.4,0 -0.5,0 v -2.3 h 0.8 c 0.7,0 1.4,0 1.9,-0.1 0.5,-0.1 1.1,-0.2 1.7,-0.4 0.6,-0.2 1,-0.4 1.4,-0.7 0.4,-0.3 0.7,-0.7 0.9,-1.2 0.2,-0.5 0.3,-1.1 0.3,-1.7 0,-2.5 -1.4,-3.8 -4.3,-3.8 -1,0 -2,0.2 -2.9,0.5 -0.9,0.3 -1.7,0.7 -2.3,1.2 l -0.9,-2.3 c 1.6,-1.2 3.8,-1.8 6.7,-1.8 1.2,0 2.3,0.2 3.3,0.6 1,0.4 1.8,1.1 2.5,2 0.7,0.9 1,1.9 1,3.1 0,1.5 -0.4,2.7 -1.1,3.6 -0.7,0.9 -1.7,1.6 -3,2 1.5,0.3 2.6,1 3.4,2 0.8,1 1.2,2.4 1.2,4 0,2.1 -0.7,3.7 -2.2,4.9 -1.5,1.2 -3.3,2.2 -5.6,2.2 z m 17.2,0 c -1.4,0 -2.6,-0.2 -3.7,-0.5 -1.1,-0.3 -1.9,-0.8 -2.4,-1.3 l 0.9,-2.3 c 1.5,1.2 3.2,1.7 5.2,1.7 1.6,0 2.8,-0.4 3.7,-1.2 0.9,-0.8 1.4,-1.9 1.4,-3.3 0,-0.8 -0.1,-1.4 -0.4,-2 -0.3,-0.6 -0.5,-1 -0.9,-1.4 -0.4,-0.4 -0.9,-0.6 -1.5,-0.8 -0.6,-0.2 -1.2,-0.4 -1.9,-0.5 -0.7,-0.1 -1.4,-0.1 -2.2,-0.2 -0.1,0 -0.3,0 -0.5,0 -0.2,0 -0.4,0 -0.5,0 v -2.3 h 0.8 c 0.7,0 1.4,0 1.9,-0.1 0.5,-0.1 1.1,-0.2 1.7,-0.4 0.6,-0.2 1,-0.4 1.4,-0.7 0.4,-0.3 0.7,-0.7 0.9,-1.2 0.2,-0.5 0.3,-1.1 0.3,-1.7 0,-2.5 -1.4,-3.8 -4.3,-3.8 -1,0 -2,0.2 -2.9,0.5 -0.9,0.3 -1.7,0.7 -2.3,1.2 l -0.9,-2.3 c 1.6,-1.2 3.8,-1.8 6.7,-1.8 1.2,0 2.3,0.2 3.3,0.6 1,0.4 1.8,1.1 2.5,2 0.7,0.9 1,1.9 1,3.1 0,1.5 -0.4,2.7 -1.1,3.6 -0.7,0.9 -1.7,1.6 -3,2 1.5,0.3 2.6,1 3.4,2 0.8,1 1.2,2.4 1.2,4 0,2.1 -0.7,3.7 -2.2,4.9 -1.5,1.2 -3.3,2.2 -5.6,2.2 z"
   id="path64"
   inkscape:connector-curvature="0"
   style="clip-rule:evenodd;fill:#37c3be;fill-rule:evenodd" />
	<path
   class="st1"
   d="m 608.4,200 -0.4,-2.6 8.1,-9 c 0.5,-0.6 1.1,-1.4 1.6,-2.3 0.5,-0.9 0.9,-1.8 1.1,-2.4 l 0.4,-1 c 0,-1.3 -0.4,-2.3 -1.1,-3 -0.7,-0.7 -1.7,-1.1 -3.1,-1.1 -2.2,0 -3.9,0.6 -5.2,1.9 l -0.9,-2.3 c 1.4,-1.4 3.5,-2 6.3,-2 2.1,0 3.8,0.6 5.1,1.7 1.3,1.1 1.9,2.7 1.9,4.6 0,0.1 -0.1,0.3 -0.2,0.6 -0.1,0.3 -0.3,0.7 -0.5,1.4 -0.2,0.7 -0.6,1.4 -0.9,2 -0.3,0.6 -0.7,1.3 -1.1,2.1 -0.4,0.8 -0.9,1.4 -1.4,1.9 l -6.6,7 h 10.8 L 622,200 Z m 31.3,-23.4 -0.2,2.6 H 630 c -0.1,3 -0.2,5.5 -0.2,7.4 1.2,-0.8 2.5,-1.1 3.8,-1.1 1.2,0 2.2,0.2 3.1,0.6 0.9,0.4 1.7,0.9 2.2,1.5 0.5,0.6 1,1.4 1.3,2.3 0.3,0.9 0.5,1.8 0.5,2.8 0,2.4 -0.8,4.3 -2.3,5.7 -1.5,1.4 -3.6,2.1 -6.2,2.1 -2.6,0 -4.7,-0.7 -6.3,-2.1 l 1,-2.2 c 1.5,1.2 3.3,1.8 5.4,1.8 1.7,0 3.1,-0.5 4,-1.5 0.9,-1 1.5,-2.2 1.5,-3.8 0,-1.4 -0.4,-2.5 -1.2,-3.4 -0.8,-0.9 -2,-1.3 -3.6,-1.3 -1.6,0 -2.8,0.5 -3.7,1.5 l -2.2,-0.3 0.6,-12.5 h 12 z"
   id="path66"
   inkscape:connector-curvature="0"
   style="clip-rule:evenodd;fill:#37c3be;fill-rule:evenodd" />
	<path
   class="st1"
   d="m 725.1,200.4 c -1.4,0 -2.6,-0.2 -3.7,-0.5 -1.1,-0.3 -1.9,-0.8 -2.4,-1.3 l 0.9,-2.3 c 1.5,1.2 3.2,1.7 5.2,1.7 1.6,0 2.8,-0.4 3.7,-1.2 0.9,-0.8 1.4,-1.9 1.4,-3.3 0,-0.8 -0.1,-1.4 -0.4,-2 -0.3,-0.6 -0.5,-1 -0.9,-1.4 -0.4,-0.4 -0.9,-0.6 -1.5,-0.8 -0.6,-0.2 -1.2,-0.4 -1.9,-0.5 -0.7,-0.1 -1.4,-0.1 -2.2,-0.2 -0.1,0 -0.3,0 -0.5,0 -0.2,0 -0.4,0 -0.5,0 v -2.3 h 0.8 c 0.7,0 1.4,0 1.9,-0.1 0.5,-0.1 1.1,-0.2 1.7,-0.4 0.6,-0.2 1,-0.4 1.4,-0.7 0.4,-0.3 0.7,-0.7 0.9,-1.2 0.2,-0.5 0.3,-1.1 0.3,-1.7 0,-2.5 -1.4,-3.8 -4.3,-3.8 -1,0 -2,0.2 -2.9,0.5 -0.9,0.3 -1.7,0.7 -2.3,1.2 l -0.9,-2.3 c 1.6,-1.2 3.8,-1.8 6.7,-1.8 1.2,0 2.3,0.2 3.3,0.6 1,0.4 1.8,1.1 2.5,2 0.7,0.9 1,1.9 1,3.1 0,1.5 -0.4,2.7 -1.1,3.6 -0.7,0.9 -1.7,1.6 -3,2 1.5,0.3 2.6,1 3.4,2 0.8,1 1.2,2.4 1.2,4 0,2.1 -0.7,3.7 -2.2,4.9 -1.5,1.2 -3.3,2.2 -5.6,2.2 z m 25.2,-23.8 -0.2,2.6 h -9.5 c -0.1,3 -0.2,5.5 -0.2,7.4 1.2,-0.8 2.5,-1.1 3.8,-1.1 1.2,0 2.2,0.2 3.1,0.6 0.9,0.4 1.7,0.9 2.2,1.5 0.5,0.6 1,1.4 1.3,2.3 0.3,0.9 0.5,1.8 0.5,2.8 0,2.4 -0.8,4.3 -2.3,5.7 -1.5,1.4 -3.6,2.1 -6.2,2.1 -2.6,0 -4.7,-0.7 -6.3,-2.1 l 1,-2.2 c 1.5,1.2 3.3,1.8 5.4,1.8 1.7,0 3.1,-0.5 4,-1.5 0.9,-1 1.5,-2.2 1.5,-3.8 0,-1.4 -0.4,-2.5 -1.2,-3.4 -0.8,-0.9 -2,-1.3 -3.6,-1.3 -1.6,0 -2.8,0.5 -3.7,1.5 l -2.2,-0.3 0.6,-12.5 h 12 z"
   id="path68"
   inkscape:connector-curvature="0"
   style="clip-rule:evenodd;fill:#37c3be;fill-rule:evenodd" />
	<path
   class="st1"
   d="m 829.4,200 -0.4,-2.6 8.1,-9 c 0.5,-0.6 1.1,-1.4 1.6,-2.3 0.5,-0.9 0.9,-1.8 1.1,-2.4 l 0.4,-1 c 0,-1.3 -0.4,-2.3 -1.1,-3 -0.7,-0.7 -1.7,-1.1 -3.1,-1.1 -2.2,0 -3.9,0.6 -5.2,1.9 l -0.9,-2.3 c 1.4,-1.4 3.5,-2 6.3,-2 2.1,0 3.8,0.6 5.1,1.7 1.3,1.1 1.9,2.7 1.9,4.6 0,0.1 -0.1,0.3 -0.2,0.6 -0.1,0.3 -0.3,0.7 -0.5,1.4 -0.2,0.7 -0.6,1.4 -0.9,2 -0.3,0.6 -0.7,1.3 -1.1,2.1 -0.4,0.8 -0.9,1.4 -1.4,1.9 l -6.6,7 h 10.8 L 843,200 Z m 23.4,0.4 c -1.4,0 -2.6,-0.2 -3.7,-0.5 -1.1,-0.3 -1.9,-0.8 -2.4,-1.3 l 0.9,-2.3 c 1.5,1.2 3.2,1.7 5.2,1.7 1.6,0 2.8,-0.4 3.7,-1.2 0.9,-0.8 1.4,-1.9 1.4,-3.3 0,-0.8 -0.1,-1.4 -0.4,-2 -0.3,-0.6 -0.5,-1 -0.9,-1.4 -0.4,-0.4 -0.9,-0.6 -1.5,-0.8 -0.6,-0.2 -1.2,-0.4 -1.9,-0.5 -0.7,-0.1 -1.4,-0.1 -2.2,-0.2 -0.1,0 -0.3,0 -0.5,0 -0.2,0 -0.4,0 -0.5,0 v -2.3 h 0.8 c 0.7,0 1.4,0 1.9,-0.1 0.5,-0.1 1.1,-0.2 1.7,-0.4 0.6,-0.2 1,-0.4 1.4,-0.7 0.4,-0.3 0.7,-0.7 0.9,-1.2 0.2,-0.5 0.3,-1.1 0.3,-1.7 0,-2.5 -1.4,-3.8 -4.3,-3.8 -1,0 -2,0.2 -2.9,0.5 -0.9,0.3 -1.7,0.7 -2.3,1.2 l -0.9,-2.3 c 1.6,-1.2 3.8,-1.8 6.7,-1.8 1.2,0 2.3,0.2 3.3,0.6 1,0.4 1.8,1.1 2.5,2 0.7,0.9 1,1.9 1,3.1 0,1.5 -0.4,2.7 -1.1,3.6 -0.7,0.9 -1.7,1.6 -3,2 1.5,0.3 2.6,1 3.4,2 0.8,1 1.2,2.4 1.2,4 0,2.1 -0.7,3.7 -2.2,4.9 -1.5,1.2 -3.3,2.2 -5.6,2.2 z"
   id="path70"
   inkscape:connector-curvature="0"
   style="clip-rule:evenodd;fill:#37c3be;fill-rule:evenodd" />
	
		<g
   transform="rotate(-180,206.5,83)"
   id="g75">
		<path
   id="Path-2"
   class="st4"
   d="m 0,0.3 c 0,6.6 2.4,6.6 11.8,6.6 14,0 14,9.2 14,9.2"
   inkscape:connector-curvature="0"
   style="fill:none;stroke:#37c3be;stroke-width:2;stroke-linecap:round" />
		<path
   class="st4"
   d="m 51.7,0.3 c 0,6.6 -2.4,6.6 -11.8,6.6 -14,0 -14,9.2 -14,9.2"
   id="path73"
   inkscape:connector-curvature="0"
   style="fill:none;stroke:#37c3be;stroke-width:2;stroke-linecap:round" />
	</g>
	
		<g
   id="Group-Copy"
   transform="translate(361,212)">
		<path
   class="st4"
   d="M 0,0 C 0,26 23.3,26 115.1,26 252,26 252,62 252,62"
   id="path77"
   inkscape:connector-curvature="0"
   style="fill:none;stroke:#37c3be;stroke-width:2;stroke-linecap:round" />
		<path
   class="st4"
   d="M 504,0 C 504,26 480.7,26 388.9,26 252,26 252,62 252,62"
   id="path79"
   inkscape:connector-curvature="0"
   style="fill:none;stroke:#37c3be;stroke-width:2;stroke-linecap:round" />
	</g>
	<path
   id="Path-3"
   class="st3"
   d="m 648.6,285 h 330.9 v 2 H 648.6 v 6 l -14,-7 14,-7 z"
   inkscape:connector-curvature="0"
   style="fill:#ffffff" />
</g></svg>