<?xml version="1.0" encoding="UTF-8" standalone="no"?>
<svg
   xmlns:dc="http://purl.org/dc/elements/1.1/"
   xmlns:cc="http://creativecommons.org/ns#"
   xmlns:rdf="http://www.w3.org/1999/02/22-rdf-syntax-ns#"
   xmlns:svg="http://www.w3.org/2000/svg"
   xmlns="http://www.w3.org/2000/svg"
   xmlns:sodipodi="http://sodipodi.sourceforge.net/DTD/sodipodi-0.dtd"
   xmlns:inkscape="http://www.inkscape.org/namespaces/inkscape"
   width="1214px"
   height="866px"
   viewBox="0 0 1214 866"
   version="1.1"
   id="svg47"
   sodipodi:docname="radix3.svg"
   inkscape:version="0.92.3 (2405546, 2018-03-11)">
  <metadata
     id="metadata53">
    <rdf:RDF>
      <cc:Work
         rdf:about="">
        <dc:format>image/svg+xml</dc:format>
        <dc:type
           rdf:resource="http://purl.org/dc/dcmitype/StillImage" />
        <dc:title>radix ex 3</dc:title>
      </cc:Work>
    </rdf:RDF>
  </metadata>
  <defs
     id="defs51" />
  <sodipodi:namedview
     pagecolor="#ffffff"
     bordercolor="#666666"
     borderopacity="1"
     objecttolerance="10"
     gridtolerance="10"
     guidetolerance="10"
     inkscape:pageopacity="0"
     inkscape:pageshadow="2"
     inkscape:window-width="1280"
     inkscape:window-height="657"
     id="namedview49"
     showgrid="false"
     inkscape:zoom="0.23640857"
     inkscape:cx="80.369338"
     inkscape:cy="433"
     inkscape:window-x="-8"
     inkscape:window-y="-8"
     inkscape:window-maximized="1"
     inkscape:current-layer="svg47" />
  <!-- Generator: Sketch 52.2 (67145) - http://www.bohemiancoding.com/sketch -->
  <title
     id="title2">radix ex 3</title>
  <desc
     id="desc4">Created with Sketch.</desc>
  <rect
     style="opacity:1;fill:#545454;fill-opacity:1;fill-rule:nonzero;stroke:#03f3f4;stroke-width:0.75590551;stroke-linecap:round;stroke-linejoin:miter;stroke-miterlimit:4;stroke-dasharray:none;stroke-dashoffset:0;stroke-opacity:1;paint-order:stroke fill markers"
     id="rect860"
     width="1222.46"
     height="892.52264"
     x="4.2299652"
     y="-9.602787"
     rx="13.8545" />
  <g
     id="radix-ex-3"
     style="fill:none;fill-rule:evenodd;stroke:none;stroke-width:1"
     transform="matrix(1.3301776,0,0,1.1782939,-191.23646,-63.289402)">
    <g
       id="Group-2"
       transform="translate(379,443)">
      <g
         id="Group-3-Copy">
        <rect
           id="Rectangle"
           x="0"
           y="0"
           width="239"
           height="91"
           rx="10"
           style="fill:#245466;fill-rule:nonzero" />
        <path
           d="m 26.436035,62 -0.47168,-3.363281 10.602539,-11.771485 c 0.710942,-0.792972 1.397946,-1.818353 2.061036,-3.076172 0.663089,-1.257818 1.145018,-2.324214 1.445801,-3.199218 l 0.471679,-1.291992 c 0,-1.695321 -0.471675,-3.011226 -1.415039,-3.947754 -0.943364,-0.936529 -2.283194,-1.404786 -4.019531,-1.404786 -2.898452,0 -5.181632,0.840812 -6.84961,2.522461 l -1.189453,-3.076171 c 1.886728,-1.777353 4.64842,-2.666016 8.285157,-2.666016 2.789076,0 5.010734,0.755363 6.665039,2.266113 1.654305,1.51075 2.481445,3.530749 2.481445,6.060059 -0.05469,0.191407 -0.136718,0.447752 -0.246094,0.769043 -0.109375,0.32129 -0.345213,0.946772 -0.707519,1.876465 -0.362307,0.929692 -0.741698,1.811519 -1.138184,2.645507 -0.396486,0.833989 -0.898923,1.749995 -1.507324,2.748047 -0.608402,0.998052 -1.227048,1.832028 -1.855957,2.501953 l -8.654297,9.249024 H 44.605957 L 44.380371,62 Z m 30.741211,0.47168 c -1.83204,0 -3.462395,-0.239256 -4.891113,-0.717774 -1.428718,-0.478518 -2.471188,-1.032223 -3.127442,-1.661133 l 1.148438,-3.014648 c 1.927744,1.517586 4.224596,2.276367 6.890625,2.276367 2.050791,0 3.681146,-0.509272 4.891113,-1.527832 1.209967,-1.01856 1.814942,-2.443838 1.814942,-4.275879 0,-0.998052 -0.153807,-1.869625 -0.461426,-2.614746 -0.307619,-0.745121 -0.717771,-1.346677 -1.230469,-1.804687 -0.512698,-0.45801 -1.168941,-0.827147 -1.96875,-1.107422 -0.799809,-0.280275 -1.620113,-0.478515 -2.460937,-0.594727 -0.840825,-0.116211 -1.814936,-0.187988 -2.922364,-0.215332 -0.136719,0 -0.341795,-0.0034 -0.615234,-0.01025 -0.273439,-0.0068 -0.478515,-0.01025 -0.615235,-0.01025 v -3.055664 h 1.025391 c 0.957036,-0.01367 1.801266,-0.06494 2.532715,-0.153808 0.731449,-0.08887 1.462887,-0.249511 2.194336,-0.481934 0.731449,-0.232423 1.336423,-0.540037 1.814941,-0.922851 0.478518,-0.382815 0.868163,-0.895505 1.168946,-1.538086 0.300782,-0.642582 0.451171,-1.401363 0.451171,-2.276368 0,-3.281266 -1.879864,-4.921875 -5.639648,-4.921875 -1.353522,0 -2.624994,0.198241 -3.814453,0.594727 -1.189459,0.396486 -2.208004,0.929684 -3.055664,1.599609 l -1.148438,-2.99414 c 2.03712,-1.54493 4.969708,-2.317383 8.797852,-2.317383 1.54493,0 2.973626,0.283688 4.286133,0.851074 1.312506,0.567386 2.392574,1.435541 3.240234,2.604492 0.847661,1.168952 1.271485,2.539543 1.271485,4.111817 0,1.914072 -0.471675,3.486322 -1.41504,4.716797 -0.943364,1.230474 -2.269522,2.112302 -3.978515,2.645507 1.914072,0.410159 3.414545,1.305658 4.501465,2.686524 1.086919,1.380866 1.630371,3.130849 1.630371,5.25 0,2.693373 -0.963858,4.846671 -2.891602,6.459961 -1.927744,1.613289 -4.402328,2.419922 -7.423828,2.419922 z M 92.901855,62 92.430176,58.636719 103.03271,46.865234 c 0.71095,-0.792972 1.39795,-1.818353 2.06104,-3.076172 0.66309,-1.257818 1.14502,-2.324214 1.4458,-3.199218 l 0.47168,-1.291992 c 0,-1.695321 -0.47168,-3.011226 -1.41504,-3.947754 -0.94336,-0.936529 -2.28319,-1.404786 -4.01953,-1.404786 -2.898452,0 -5.181632,0.840812 -6.849609,2.522461 l -1.189453,-3.076171 c 1.886728,-1.777353 4.648419,-2.666016 8.285152,-2.666016 2.78908,0 5.01074,0.755363 6.66504,2.266113 1.65431,1.51075 2.48145,3.530749 2.48145,6.060059 -0.0547,0.191407 -0.13672,0.447752 -0.24609,0.769043 -0.10938,0.32129 -0.34522,0.946772 -0.70752,1.876465 -0.36231,0.929692 -0.7417,1.811519 -1.13819,2.645507 -0.39649,0.833989 -0.89892,1.749995 -1.50732,2.748047 -0.6084,0.998052 -1.22705,1.832028 -1.85596,2.501953 l -8.654297,9.249024 H 111.07178 L 110.84619,62 Z m 41.159175,-30.679688 -0.2871,3.363282 h -12.53028 c -0.13672,3.978535 -0.23925,7.19823 -0.30761,9.659179 1.54492,-0.98438 3.21971,-1.476562 5.02441,-1.476562 1.51759,0 2.8745,0.242673 4.0708,0.728027 1.19629,0.485354 2.17382,1.151851 2.93262,1.999512 0.75879,0.847661 1.33642,1.835444 1.73291,2.963379 0.39648,1.127935 0.59472,2.348138 0.59472,3.660644 0,3.103532 -0.99462,5.58837 -2.98388,7.45459 -1.98927,1.866221 -4.69286,2.799317 -8.11084,2.799317 -3.43166,0 -6.17968,-0.936514 -8.24414,-2.809571 l 1.33301,-2.891601 c 2.02344,1.585945 4.36815,2.378906 7.03417,2.378906 2.2422,0 4.01269,-0.635736 5.31153,-1.907227 1.29883,-1.27149 1.94824,-2.932606 1.94824,-4.983398 0,-1.83204 -0.54687,-3.318842 -1.64063,-4.460449 -1.09375,-1.141607 -2.65233,-1.712403 -4.67578,-1.712403 -2.02344,0 -3.65038,0.676752 -4.88086,2.030274 l -2.85058,-0.389649 0.7998,-16.40625 z m 30.7002,0 h 3.26074 V 62 h -3.62988 V 35.114258 c -1.38087,0.902348 -3.06933,1.674801 -5.06543,2.317383 v -3.424805 c 0.21875,-0.0957 0.66308,-0.287108 1.33301,-0.574219 0.66992,-0.287111 1.17236,-0.505858 1.50732,-0.65625 0.33496,-0.150391 0.75537,-0.362303 1.26123,-0.635742 0.50586,-0.273439 0.9502,-0.546874 1.33301,-0.820313 z M 173.72314,62 173.25146,58.636719 183.854,46.865234 c 0.71094,-0.792972 1.39795,-1.818353 2.06104,-3.076172 0.66309,-1.257818 1.14502,-2.324214 1.4458,-3.199218 l 0.47168,-1.291992 c 0,-1.695321 -0.47168,-3.011226 -1.41504,-3.947754 -0.94336,-0.936529 -2.28319,-1.404786 -4.01953,-1.404786 -2.89845,0 -5.18163,0.840812 -6.84961,2.522461 l -1.18945,-3.076171 c 1.88672,-1.777353 4.64842,-2.666016 8.28515,-2.666016 2.78908,0 5.01074,0.755363 6.66504,2.266113 1.65431,1.51075 2.48145,3.530749 2.48145,6.060059 -0.0547,0.191407 -0.13672,0.447752 -0.2461,0.769043 -0.10937,0.32129 -0.34521,0.946772 -0.70752,1.876465 -0.3623,0.929692 -0.74169,1.811519 -1.13818,2.645507 -0.39649,0.833989 -0.89892,1.749995 -1.50732,2.748047 -0.6084,0.998052 -1.22705,1.832028 -1.85596,2.501953 l -8.6543,9.249024 h 14.21192 L 191.66748,62 Z m 33.63282,-18.887695 c 1.72266,0 3.31542,0.406734 4.77832,1.220214 1.46289,0.813481 2.63866,1.968743 3.52734,3.465821 0.88868,1.497078 1.33301,3.161612 1.33301,4.993652 0,2.789077 -0.93993,5.0996 -2.81983,6.931641 -1.87989,1.83204 -4.35789,2.748047 -7.43408,2.748047 -1.59962,0 -3.05907,-0.270017 -4.37842,-0.810059 -1.31934,-0.540042 -2.40624,-1.27148 -3.26074,-2.194336 -0.85449,-0.922856 -1.51757,-1.996087 -1.98926,-3.219726 -0.47168,-1.223639 -0.70752,-2.532708 -0.70752,-3.927247 0,-2.228526 0.40674,-4.221182 1.22022,-5.978027 0.81348,-1.756845 2.28661,-3.98192 4.41943,-6.675293 0.51954,-0.656253 1.33984,-1.667962 2.46094,-3.035156 1.1211,-1.367194 2.11914,-2.570307 2.99414,-3.609375 l 1.29199,-1.558594 h 4.73731 L 202.7417,44.342773 c 1.54493,-0.820316 3.083,-1.230468 4.61426,-1.230468 z m -7.0752,9.597656 c 0,1.216803 0.229,2.317378 0.68701,3.301758 0.45801,0.98438 1.17578,1.787594 2.15332,2.409668 0.97755,0.622073 2.14306,0.933105 3.49659,0.933105 2.02344,0 3.61278,-0.622064 4.76806,-1.866211 1.15528,-1.244147 1.73291,-2.789053 1.73291,-4.634765 0,-1.941416 -0.57763,-3.537592 -1.73291,-4.788575 -1.15528,-1.250982 -2.74462,-1.876464 -4.76806,-1.876464 -2.1465,0 -3.73926,0.608392 -4.77833,1.825195 -1.03906,1.216803 -1.55859,2.782217 -1.55859,4.696289 z"
           id="23-25-126"
           inkscape:connector-curvature="0"
           style="fill:#37c3be" />
        <path
           d="m 109.62001,118.10156 -0.2666,-6.27148 h 1.91699 l -0.36816,6.27148 z m -3.63086,0 -0.2666,-6.27148 h 1.91699 l -0.36816,6.27148 z M 115.3691,131 l -0.29199,-2.08203 6.56348,-7.28711 c 0.44011,-0.49089 0.86539,-1.12565 1.27588,-1.9043 0.41048,-0.77865 0.70882,-1.4388 0.89502,-1.98047 l 0.29199,-0.7998 c 0,-1.04948 -0.29199,-1.86409 -0.87598,-2.44385 -0.58398,-0.57975 -1.4134,-0.86963 -2.48828,-0.86963 -1.79428,0 -3.20768,0.52051 -4.24023,1.56153 l -0.73633,-1.9043 c 1.16797,-1.10027 2.87759,-1.65039 5.12891,-1.65039 1.72657,0 3.10188,0.4676 4.12597,1.40283 1.0241,0.93523 1.53613,2.1857 1.53613,3.75146 -0.0339,0.1185 -0.0846,0.27718 -0.15234,0.47608 -0.0677,0.19889 -0.2137,0.5861 -0.43799,1.16162 -0.22428,0.57552 -0.45914,1.12142 -0.70459,1.6377 -0.24544,0.51628 -0.55647,1.08333 -0.9331,1.70117 -0.37663,0.61784 -0.7596,1.13411 -1.14893,1.54883 l -5.35742,5.72558 h 8.79785 L 126.4775,131 Z m 19.35847,-12.89844 -0.2666,-6.27148 h 1.917 l -0.36817,6.27148 z m -3.63085,0 -0.26661,-6.27148 h 1.917 l -0.36817,6.27148 z"
           id="&quot;2&quot;"
           inkscape:connector-curvature="0"
           style="fill:#ffffff" />
      </g>
      <g
         id="Group-2-Copy"
         transform="translate(271)">
        <rect
           id="Rectangle-Copy"
           x="6"
           y="0"
           width="172"
           height="91"
           rx="10"
           style="fill:#245466;fill-rule:nonzero" />
        <path
           d="m 36.295898,31.320312 h 3.260743 V 62 H 35.926758 V 35.114258 c -1.380866,0.902348 -3.069326,1.674801 -5.06543,2.317383 v -3.424805 c 0.218751,-0.0957 0.663083,-0.287108 1.333008,-0.574219 0.669925,-0.287111 1.172361,-0.505858 1.507324,-0.65625 0.334963,-0.150391 0.755369,-0.362303 1.261231,-0.635742 0.505861,-0.273439 0.950193,-0.546874 1.333007,-0.820313 z M 53.112305,62.47168 c -1.832041,0 -3.462396,-0.239256 -4.891114,-0.717774 -1.428718,-0.478518 -2.471188,-1.032223 -3.127441,-1.661133 l 1.148437,-3.014648 c 1.927744,1.517586 4.224596,2.276367 6.890625,2.276367 2.050792,0 3.681147,-0.509272 4.891114,-1.527832 1.209967,-1.01856 1.814941,-2.443838 1.814941,-4.275879 0,-0.998052 -0.153807,-1.869625 -0.461426,-2.614746 -0.307618,-0.745121 -0.717771,-1.346677 -1.230468,-1.804687 -0.512698,-0.45801 -1.168942,-0.827147 -1.96875,-1.107422 -0.799809,-0.280275 -1.620113,-0.478515 -2.460938,-0.594727 -0.840824,-0.116211 -1.814936,-0.187988 -2.922363,-0.215332 -0.13672,0 -0.341796,-0.0034 -0.615235,-0.01025 -0.273438,-0.0068 -0.478514,-0.01025 -0.615234,-0.01025 v -3.055664 h 1.025391 c 0.957036,-0.01367 1.801266,-0.06494 2.532715,-0.153808 0.731449,-0.08887 1.462887,-0.249511 2.194335,-0.481934 0.73145,-0.232423 1.336424,-0.540037 1.814942,-0.922851 0.478518,-0.382815 0.868162,-0.895505 1.168945,-1.538086 0.300783,-0.642582 0.451172,-1.401363 0.451172,-2.276368 0,-3.281266 -1.879864,-4.921875 -5.639648,-4.921875 -1.353523,0 -2.624994,0.198241 -3.814453,0.594727 -1.18946,0.396486 -2.208004,0.929684 -3.055665,1.599609 l -1.148437,-2.99414 c 2.03712,-1.54493 4.969707,-2.317383 8.797852,-2.317383 1.544929,0 2.973626,0.283688 4.286132,0.851074 1.312507,0.567386 2.392574,1.435541 3.240235,2.604492 0.84766,1.168952 1.271484,2.539543 1.271484,4.111817 0,1.914072 -0.471675,3.486322 -1.415039,4.716797 -0.943364,1.230474 -2.269523,2.112302 -3.978516,2.645507 1.914072,0.410159 3.414546,1.305658 4.501465,2.686524 1.08692,1.380866 1.630371,3.130849 1.630371,5.25 0,2.693373 -0.963857,4.846671 -2.891601,6.459961 -1.927744,1.613289 -4.402329,2.419922 -7.423828,2.419922 z m 22.620117,0 c -1.832041,0 -3.462395,-0.239256 -4.891113,-0.717774 -1.428719,-0.478518 -2.471189,-1.032223 -3.127442,-1.661133 l 1.148438,-3.014648 c 1.927744,1.517586 4.224596,2.276367 6.890625,2.276367 2.050791,0 3.681146,-0.509272 4.891113,-1.527832 1.209967,-1.01856 1.814941,-2.443838 1.814941,-4.275879 0,-0.998052 -0.153807,-1.869625 -0.461425,-2.614746 -0.307619,-0.745121 -0.717771,-1.346677 -1.230469,-1.804687 -0.512698,-0.45801 -1.168942,-0.827147 -1.96875,-1.107422 -0.799809,-0.280275 -1.620113,-0.478515 -2.460938,-0.594727 -0.840824,-0.116211 -1.814936,-0.187988 -2.922363,-0.215332 -0.136719,0 -0.341795,-0.0034 -0.615234,-0.01025 -0.273439,-0.0068 -0.478515,-0.01025 -0.615235,-0.01025 v -3.055664 h 1.025391 c 0.957036,-0.01367 1.801266,-0.06494 2.532715,-0.153808 0.731449,-0.08887 1.462887,-0.249511 2.194336,-0.481934 0.731449,-0.232423 1.336423,-0.540037 1.814941,-0.922851 0.478518,-0.382815 0.868163,-0.895505 1.168945,-1.538086 0.300783,-0.642582 0.451172,-1.401363 0.451172,-2.276368 0,-3.281266 -1.879864,-4.921875 -5.639648,-4.921875 -1.353522,0 -2.624994,0.198241 -3.814453,0.594727 -1.189459,0.396486 -2.208004,0.929684 -3.055664,1.599609 l -1.148438,-2.99414 c 2.03712,-1.54493 4.969708,-2.317383 8.797852,-2.317383 1.544929,0 2.973626,0.283688 4.286133,0.851074 1.312506,0.567386 2.392573,1.435541 3.240234,2.604492 0.84766,1.168952 1.271484,2.539543 1.271484,4.111817 0,1.914072 -0.471675,3.486322 -1.415039,4.716797 -0.943364,1.230474 -2.269522,2.112302 -3.978515,2.645507 1.914072,0.410159 3.414545,1.305658 4.501464,2.686524 1.08692,1.380866 1.630372,3.130849 1.630372,5.25 0,2.693373 -0.963858,4.846671 -2.891602,6.459961 -1.927744,1.613289 -4.402329,2.419922 -7.423828,2.419922 z m 43.579098,0 c -1.83204,0 -3.46239,-0.239256 -4.89111,-0.717774 -1.42872,-0.478518 -2.47119,-1.032223 -3.12744,-1.661133 l 1.14844,-3.014648 c 1.92774,1.517586 4.22459,2.276367 6.89062,2.276367 2.05079,0 3.68115,-0.509272 4.89112,-1.527832 1.20996,-1.01856 1.81494,-2.443838 1.81494,-4.275879 0,-0.998052 -0.15381,-1.869625 -0.46143,-2.614746 -0.30762,-0.745121 -0.71777,-1.346677 -1.23047,-1.804687 -0.5127,-0.45801 -1.16894,-0.827147 -1.96875,-1.107422 -0.79981,-0.280275 -1.62011,-0.478515 -2.46094,-0.594727 -0.84082,-0.116211 -1.81493,-0.187988 -2.92236,-0.215332 -0.13672,0 -0.3418,-0.0034 -0.61523,-0.01025 -0.27344,-0.0068 -0.47852,-0.01025 -0.61524,-0.01025 v -3.055664 h 1.02539 c 0.95704,-0.01367 1.80127,-0.06494 2.53272,-0.153808 0.73145,-0.08887 1.46288,-0.249511 2.19433,-0.481934 0.73145,-0.232423 1.33643,-0.540037 1.81495,-0.922851 0.47851,-0.382815 0.86816,-0.895505 1.16894,-1.538086 0.30078,-0.642582 0.45117,-1.401363 0.45117,-2.276368 0,-3.281266 -1.87986,-4.921875 -5.63965,-4.921875 -1.35352,0 -2.62499,0.198241 -3.81445,0.594727 -1.18946,0.396486 -2.208,0.929684 -3.05566,1.599609 l -1.14844,-2.99414 c 2.03712,-1.54493 4.96971,-2.317383 8.79785,-2.317383 1.54493,0 2.97363,0.283688 4.28613,0.851074 1.31251,0.567386 2.39258,1.435541 3.24024,2.604492 0.84766,1.168952 1.27148,2.539543 1.27148,4.111817 0,1.914072 -0.47167,3.486322 -1.41504,4.716797 -0.94336,1.230474 -2.26952,2.112302 -3.97851,2.645507 1.91407,0.410159 3.41454,1.305658 4.50146,2.686524 1.08692,1.380866 1.63037,3.130849 1.63037,5.25 0,2.693373 -0.96385,4.846671 -2.8916,6.459961 -1.92774,1.613289 -4.40233,2.419922 -7.42383,2.419922 z m 33.03809,-31.151368 -0.28711,3.363282 h -12.53027 c -0.13672,3.978535 -0.23926,7.19823 -0.30762,9.659179 1.54493,-0.98438 3.21972,-1.476562 5.02441,-1.476562 1.51759,0 2.87451,0.242673 4.0708,0.728027 1.1963,0.485354 2.17383,1.151851 2.93262,1.999512 0.75879,0.847661 1.33642,1.835444 1.73291,2.963379 0.39649,1.127935 0.59473,2.348138 0.59473,3.660644 0,3.103532 -0.99462,5.58837 -2.98389,7.45459 -1.98927,1.866221 -4.69285,2.799317 -8.11084,2.799317 -3.43166,0 -6.17968,-0.936514 -8.24414,-2.809571 l 1.33301,-2.891601 c 2.02345,1.585945 4.36815,2.378906 7.03418,2.378906 2.2422,0 4.01269,-0.635736 5.31152,-1.907227 1.29884,-1.27149 1.94824,-2.932606 1.94824,-4.983398 0,-1.83204 -0.54687,-3.318842 -1.64062,-4.460449 -1.09376,-1.141607 -2.65234,-1.712403 -4.67578,-1.712403 -2.02345,0 -3.65039,0.676752 -4.88086,2.030274 l -2.85059,-0.389649 0.79981,-16.40625 z"
           id="133-35"
           inkscape:connector-curvature="0"
           style="fill:#37c3be" />
        <path
           d="m 80.702528,118.10156 -0.266601,-6.27148 h 1.916992 l -0.368164,6.27148 z m -3.630859,0 -0.266602,-6.27148 h 1.916992 l -0.368164,6.27148 z m 14.24226,13.19043 c -1.134121,0 -2.143388,-0.14811 -3.027832,-0.44433 -0.884445,-0.29623 -1.529783,-0.639 -1.936036,-1.02832 l 0.710938,-1.86621 c 1.193365,0.93945 2.615226,1.40917 4.265625,1.40917 1.269538,0 2.278805,-0.31526 3.027832,-0.9458 0.749027,-0.63053 1.123535,-1.51285 1.123535,-2.64697 0,-0.61784 -0.09521,-1.15739 -0.285644,-1.61865 -0.190431,-0.46127 -0.444335,-0.83366 -0.761719,-1.11719 -0.317385,-0.28353 -0.723631,-0.51204 -1.21875,-0.68554 -0.49512,-0.17351 -1.002927,-0.29623 -1.523438,-0.36817 -0.52051,-0.0719 -1.123531,-0.11637 -1.809082,-0.1333 -0.08463,0 -0.211587,-0.002 -0.380859,-0.006 -0.169272,-0.004 -0.296224,-0.006 -0.380859,-0.006 v -1.8916 h 0.634765 c 0.592451,-0.008 1.11507,-0.0402 1.567871,-0.0952 0.452802,-0.055 0.905597,-0.15446 1.358399,-0.29834 0.452802,-0.14388 0.827309,-0.33431 1.123535,-0.57129 0.296225,-0.23698 0.537434,-0.55436 0.723633,-0.95215 0.186199,-0.39779 0.279297,-0.86751 0.279297,-1.40918 0,-2.03126 -1.163726,-3.04687 -3.491211,-3.04687 -0.837895,0 -1.624997,0.12272 -2.361328,0.36816 -0.736332,0.24544 -1.36686,0.57552 -1.891602,0.99023 l -0.710938,-1.85351 c 1.261075,-0.95639 3.076486,-1.43457 5.44629,-1.43457 0.956384,0 1.840816,0.17561 2.65332,0.52685 0.812504,0.35124 1.481117,0.88867 2.005859,1.61231 0.524742,0.72363 0.78711,1.5721 0.78711,2.54541 0,1.1849 -0.29199,2.1582 -0.875977,2.91992 -0.583987,0.76172 -1.404943,1.30762 -2.462891,1.6377 1.184902,0.2539 2.113767,0.80826 2.786621,1.66308 0.672855,0.85482 1.009278,1.93815 1.009278,3.25 0,1.66733 -0.596674,3.00032 -1.790039,3.99902 -1.193366,0.99871 -2.725251,1.49805 -4.595703,1.49805 z m 14.331131,-13.19043 -0.26661,-6.27148 h 1.917 l -0.36817,6.27148 z m -3.63086,0 -0.2666,-6.27148 h 1.91699 l -0.36817,6.27148 z"
           id="&quot;3&quot;"
           inkscape:connector-curvature="0"
           style="fill:#ffffff" />
      </g>
    </g>
    <g
       id="Group"
       transform="translate(372,627)">
      <g
         id="Group-3-Copy-2">
        <rect
           id="rect15"
           x="0"
           y="0"
           width="239"
           height="91"
           rx="10"
           style="fill:#245466;fill-rule:nonzero" />
        <path
           d="m 33.213867,62 -0.47168,-3.363281 10.60254,-11.771485 c 0.710941,-0.792972 1.397945,-1.818353 2.061035,-3.076172 0.663089,-1.257818 1.145018,-2.324214 1.4458,-3.199218 l 0.47168,-1.291992 c 0,-1.695321 -0.471675,-3.011226 -1.415039,-3.947754 -0.943364,-0.936529 -2.283194,-1.404786 -4.019531,-1.404786 -2.898452,0 -5.181632,0.840812 -6.84961,2.522461 l -1.189453,-3.076171 c 1.886729,-1.777353 4.64842,-2.666016 8.285157,-2.666016 2.789076,0 5.010733,0.755363 6.665039,2.266113 1.654305,1.51075 2.481445,3.530749 2.481445,6.060059 -0.05469,0.191407 -0.136718,0.447752 -0.246094,0.769043 -0.109375,0.32129 -0.345213,0.946772 -0.707519,1.876465 -0.362307,0.929692 -0.741697,1.811519 -1.138184,2.645507 -0.396486,0.833989 -0.898923,1.749995 -1.507324,2.748047 -0.608402,0.998052 -1.227048,1.832028 -1.855957,2.501953 l -8.654297,9.249024 H 51.383789 L 51.158203,62 Z m 30.741211,0.47168 c -1.83204,0 -3.462395,-0.239256 -4.891113,-0.717774 -1.428718,-0.478518 -2.471188,-1.032223 -3.127442,-1.661133 l 1.148438,-3.014648 c 1.927744,1.517586 4.224596,2.276367 6.890625,2.276367 2.050791,0 3.681146,-0.509272 4.891113,-1.527832 1.209967,-1.01856 1.814942,-2.443838 1.814942,-4.275879 0,-0.998052 -0.153807,-1.869625 -0.461426,-2.614746 -0.307619,-0.745121 -0.717771,-1.346677 -1.230469,-1.804687 -0.512698,-0.45801 -1.168941,-0.827147 -1.96875,-1.107422 -0.799809,-0.280275 -1.620113,-0.478515 -2.460937,-0.594727 -0.840825,-0.116211 -1.814936,-0.187988 -2.922364,-0.215332 -0.136719,0 -0.341795,-0.0034 -0.615234,-0.01025 -0.273439,-0.0068 -0.478515,-0.01025 -0.615234,-0.01025 v -3.055664 h 1.02539 c 0.957036,-0.01367 1.801266,-0.06494 2.532715,-0.153808 0.731449,-0.08887 1.462887,-0.249511 2.194336,-0.481934 0.731449,-0.232423 1.336423,-0.540037 1.814941,-0.922851 0.478518,-0.382815 0.868163,-0.895505 1.168946,-1.538086 0.300782,-0.642582 0.451172,-1.401363 0.451172,-2.276368 0,-3.281266 -1.879865,-4.921875 -5.639649,-4.921875 -1.353522,0 -2.624994,0.198241 -3.814453,0.594727 -1.189459,0.396486 -2.208004,0.929684 -3.055664,1.599609 l -1.148438,-2.99414 c 2.03712,-1.54493 4.969708,-2.317383 8.797852,-2.317383 1.54493,0 2.973626,0.283688 4.286133,0.851074 1.312506,0.567386 2.392574,1.435541 3.240234,2.604492 0.847661,1.168952 1.271485,2.539543 1.271485,4.111817 0,1.914072 -0.471675,3.486322 -1.41504,4.716797 -0.943364,1.230474 -2.269522,2.112302 -3.978515,2.645507 1.914072,0.410159 3.414545,1.305658 4.501465,2.686524 1.086919,1.380866 1.630371,3.130849 1.630371,5.25 0,2.693373 -0.963858,4.846671 -2.891602,6.459961 -1.927744,1.613289 -4.402328,2.419922 -7.423828,2.419922 z M 99.679687,62 99.208008,58.636719 109.81055,46.865234 c 0.71094,-0.792972 1.39794,-1.818353 2.06103,-3.076172 0.66309,-1.257818 1.14502,-2.324214 1.4458,-3.199218 l 0.47168,-1.291992 c 0,-1.695321 -0.47167,-3.011226 -1.41504,-3.947754 -0.94336,-0.936529 -2.28319,-1.404786 -4.01953,-1.404786 -2.89845,0 -5.18163,0.840812 -6.84961,2.522461 l -1.18945,-3.076171 c 1.88673,-1.777353 4.64842,-2.666016 8.28516,-2.666016 2.78907,0 5.01073,0.755363 6.66504,2.266113 1.6543,1.51075 2.48144,3.530749 2.48144,6.060059 -0.0547,0.191407 -0.13672,0.447752 -0.24609,0.769043 -0.10938,0.32129 -0.34522,0.946772 -0.70752,1.876465 -0.36231,0.929692 -0.7417,1.811519 -1.13819,2.645507 -0.39648,0.833989 -0.89892,1.749995 -1.50732,2.748047 -0.6084,0.998052 -1.22705,1.832028 -1.85596,2.501953 l -8.6543,9.249024 h 14.21192 L 117.62402,62 Z m 41.159183,-30.679688 -0.28711,3.363282 h -12.53028 c -0.13671,3.978535 -0.23925,7.19823 -0.30761,9.659179 1.54493,-0.98438 3.21971,-1.476562 5.02441,-1.476562 1.51759,0 2.87451,0.242673 4.0708,0.728027 1.1963,0.485354 2.17383,1.151851 2.93262,1.999512 0.75879,0.847661 1.33642,1.835444 1.73291,2.963379 0.39649,1.127935 0.59473,2.348138 0.59473,3.660644 0,3.103532 -0.99462,5.58837 -2.98389,7.45459 -1.98927,1.866221 -4.69286,2.799317 -8.11084,2.799317 -3.43166,0 -6.17968,-0.936514 -8.24414,-2.809571 l 1.33301,-2.891601 c 2.02344,1.585945 4.36815,2.378906 7.03418,2.378906 2.24219,0 4.01268,-0.635736 5.31152,-1.907227 1.29883,-1.27149 1.94824,-2.932606 1.94824,-4.983398 0,-1.83204 -0.54687,-3.318842 -1.64062,-4.460449 -1.09376,-1.141607 -2.65234,-1.712403 -4.67578,-1.712403 -2.02345,0 -3.65039,0.676752 -4.88086,2.030274 l -2.85059,-0.389649 0.79981,-16.40625 z m 34.67871,31.151368 c -1.83204,0 -3.4624,-0.239256 -4.89112,-0.717774 -1.42871,-0.478518 -2.47118,-1.032223 -3.12744,-1.661133 l 1.14844,-3.014648 c 1.92774,1.517586 4.2246,2.276367 6.89063,2.276367 2.05079,0 3.68114,-0.509272 4.89111,-1.527832 1.20997,-1.01856 1.81494,-2.443838 1.81494,-4.275879 0,-0.998052 -0.15381,-1.869625 -0.46143,-2.614746 -0.30761,-0.745121 -0.71777,-1.346677 -1.23046,-1.804687 -0.5127,-0.45801 -1.16895,-0.827147 -1.96875,-1.107422 -0.79981,-0.280275 -1.62012,-0.478515 -2.46094,-0.594727 -0.84083,-0.116211 -1.81494,-0.187988 -2.92237,-0.215332 -0.13671,0 -0.34179,-0.0034 -0.61523,-0.01025 -0.27344,-0.0068 -0.47851,-0.01025 -0.61523,-0.01025 v -3.055664 h 1.02539 c 0.95703,-0.01367 1.80126,-0.06494 2.53271,-0.153808 0.73145,-0.08887 1.46289,-0.249511 2.19434,-0.481934 0.73145,-0.232423 1.33642,-0.540037 1.81494,-0.922851 0.47852,-0.382815 0.86816,-0.895505 1.16894,-1.538086 0.30079,-0.642582 0.45118,-1.401363 0.45118,-2.276368 0,-3.281266 -1.87987,-4.921875 -5.63965,-4.921875 -1.35352,0 -2.625,0.198241 -3.81446,0.594727 -1.18945,0.396486 -2.208,0.929684 -3.05566,1.599609 l -1.14844,-2.99414 c 2.03712,-1.54493 4.96971,-2.317383 8.79785,-2.317383 1.54493,0 2.97363,0.283688 4.28614,0.851074 1.3125,0.567386 2.39257,1.435541 3.24023,2.604492 0.84766,1.168952 1.27149,2.539543 1.27149,4.111817 0,1.914072 -0.47168,3.486322 -1.41504,4.716797 -0.94337,1.230474 -2.26953,2.112302 -3.97852,2.645507 1.91407,0.410159 3.41455,1.305658 4.50147,2.686524 1.08692,1.380866 1.63037,3.130849 1.63037,5.25 0,2.693373 -0.96386,4.846671 -2.8916,6.459961 -1.92775,1.613289 -4.40233,2.419922 -7.42383,2.419922 z m 33.03808,-31.151368 -0.28711,3.363282 h -12.53027 c -0.13672,3.978535 -0.23926,7.19823 -0.30762,9.659179 1.54493,-0.98438 3.21972,-1.476562 5.02442,-1.476562 1.51758,0 2.8745,0.242673 4.0708,0.728027 1.19629,0.485354 2.17382,1.151851 2.93262,1.999512 0.75879,0.847661 1.33642,1.835444 1.73291,2.963379 0.39648,1.127935 0.59472,2.348138 0.59472,3.660644 0,3.103532 -0.99462,5.58837 -2.98388,7.45459 -1.98927,1.866221 -4.69286,2.799317 -8.11084,2.799317 -3.43166,0 -6.17968,-0.936514 -8.24414,-2.809571 l 1.333,-2.891601 c 2.02345,1.585945 4.36815,2.378906 7.03418,2.378906 2.2422,0 4.01269,-0.635736 5.31153,-1.907227 1.29883,-1.27149 1.94824,-2.932606 1.94824,-4.983398 0,-1.83204 -0.54687,-3.318842 -1.64063,-4.460449 -1.09375,-1.141607 -2.65233,-1.712403 -4.67578,-1.712403 -2.02345,0 -3.65038,0.676752 -4.88086,2.030274 l -2.85058,-0.389649 0.7998,-16.40625 z"
           id="23-25-35"
           inkscape:connector-curvature="0"
           style="fill:#37c3be" />
        <path
           d="m 108.82655,118.10156 -0.2666,-6.27148 h 1.91699 l -0.36816,6.27148 z m -3.63086,0 -0.2666,-6.27148 h 1.91699 l -0.36816,6.27148 z m 15.84187,13.19043 c -1.12565,0 -2.11165,-0.24755 -2.95801,-0.74267 -0.84636,-0.49512 -1.52555,-1.19124 -2.03759,-2.08838 -0.51205,-0.89714 -0.89291,-1.92968 -1.14258,-3.09766 -0.24968,-1.16797 -0.37451,-2.46711 -0.37451,-3.89746 0,-1.17644 0.0825,-2.26399 0.24755,-3.26269 0.16505,-0.99871 0.42106,-1.9043 0.76807,-2.7168 0.34701,-0.81251 0.77653,-1.50228 1.28858,-2.06934 0.51204,-0.56706 1.12353,-1.00504 1.83447,-1.31396 0.71094,-0.30892 1.50227,-0.46338 2.37402,-0.46338 1.08334,0 2.04183,0.23698 2.87549,0.71094 0.83366,0.47396 1.51074,1.14892 2.03125,2.0249 0.52051,0.87598 0.91195,1.90852 1.17432,3.09766 0.26237,1.18913 0.39355,2.52001 0.39355,3.99267 0,1.43035 -0.12272,2.72949 -0.36816,3.89746 -0.24545,1.16798 -0.62207,2.20052 -1.12989,3.09766 -0.50781,0.89714 -1.18277,1.59326 -2.0249,2.08838 -0.84213,0.49512 -1.826,0.74267 -2.95166,0.74267 z m 0,-17.72265 c -0.86328,0 -1.60384,0.34065 -2.22168,1.02197 -0.61784,0.68132 -1.08121,1.60383 -1.39013,2.76758 -0.30893,1.16374 -0.46338,2.50731 -0.46338,4.03076 0,1.54883 0.15445,2.9178 0.46338,4.10693 0.30892,1.18914 0.77229,2.13069 1.39013,2.82471 0.61784,0.69401 1.3584,1.04101 2.22168,1.04101 0.86329,0 1.60384,-0.347 2.22168,-1.04101 0.61784,-0.69402 1.08122,-1.63557 1.39014,-2.82471 0.30892,-1.18913 0.46338,-2.5581 0.46338,-4.10693 0,-1.52345 -0.15446,-2.86702 -0.46338,-4.03076 -0.30892,-1.16375 -0.7723,-2.08626 -1.39014,-2.76758 -0.61784,-0.68132 -1.35839,-1.02197 -2.22168,-1.02197 z m 14.48347,4.53222 -0.2666,-6.27148 h 1.91699 l -0.36816,6.27148 z m -3.63086,0 -0.2666,-6.27148 h 1.91699 l -0.36816,6.27148 z"
           id="&quot;0&quot;"
           inkscape:connector-curvature="0"
           style="fill:#ffffff" />
      </g>
      <g
         id="Group-2-Copy-2"
         transform="translate(277)">
        <path
           d="m 10,0 h 174 c 5.52285,0 10,4.4771525 10,10 v 71 c 0,5.522847 -4.47715,10 -10,10 H 10 C 4.4771525,91 0,86.522847 0,81 V 10 C 0,4.4771525 4.4771525,0 10,0 Z"
           id="path20"
           inkscape:connector-curvature="0"
           style="fill:#245466;fill-rule:nonzero" />
        <path
           d="m 34.518066,31.320312 h 3.260743 V 62 H 34.148926 V 35.114258 c -1.380867,0.902348 -3.069326,1.674801 -5.06543,2.317383 v -3.424805 c 0.218751,-0.0957 0.663083,-0.287108 1.333008,-0.574219 0.669925,-0.287111 1.172361,-0.505858 1.507324,-0.65625 0.334963,-0.150391 0.755369,-0.362303 1.261231,-0.635742 0.505861,-0.273439 0.950193,-0.546874 1.333007,-0.820313 z M 43.479981,62 43.008301,58.636719 53.61084,46.865234 c 0.710941,-0.792972 1.397946,-1.818353 2.061035,-3.076172 0.663089,-1.257818 1.145018,-2.324214 1.445801,-3.199218 l 0.47168,-1.291992 c 0,-1.695321 -0.471676,-3.011226 -1.41504,-3.947754 -0.943364,-0.936529 -2.283194,-1.404786 -4.019531,-1.404786 -2.898452,0 -5.181632,0.840812 -6.849609,2.522461 l -1.189453,-3.076171 c 1.886728,-1.777353 4.648419,-2.666016 8.285156,-2.666016 2.789076,0 5.010734,0.755363 6.665039,2.266113 1.654305,1.51075 2.481445,3.530749 2.481445,6.060059 -0.05469,0.191407 -0.136718,0.447752 -0.246094,0.769043 -0.109375,0.32129 -0.345212,0.946772 -0.707519,1.876465 -0.362307,0.929692 -0.741697,1.811519 -1.138184,2.645507 -0.396486,0.833989 -0.898922,1.749995 -1.507324,2.748047 -0.608401,0.998052 -1.227047,1.832028 -1.855957,2.501953 l -8.654297,9.249024 H 61.649902 L 61.424316,62 Z M 77.112793,43.112305 c 1.722665,0 3.315422,0.406734 4.77832,1.220214 1.462898,0.813481 2.638668,1.968743 3.527344,3.465821 0.888676,1.497078 1.333008,3.161612 1.333008,4.993652 0,2.789077 -0.939932,5.0996 -2.819824,6.931641 -1.879893,1.83204 -4.357895,2.748047 -7.434082,2.748047 -1.599618,0 -3.059076,-0.270017 -4.378418,-0.810059 -1.319343,-0.540042 -2.406246,-1.27148 -3.260743,-2.194336 -0.854496,-0.922856 -1.517575,-1.996087 -1.989257,-3.219726 -0.471682,-1.223639 -0.70752,-2.532708 -0.70752,-3.927247 0,-2.228526 0.406734,-4.221182 1.220215,-5.978027 0.813481,-1.756845 2.28661,-3.98192 4.419434,-6.675293 0.519533,-0.656253 1.339838,-1.667962 2.460937,-3.035156 1.121099,-1.367194 2.119136,-2.570307 2.994141,-3.609375 l 1.291992,-1.558594 h 4.737305 l -10.78711,12.878906 c 1.54493,-0.820316 3.083,-1.230468 4.614258,-1.230468 z m -7.075195,9.597656 c 0,1.216803 0.229001,2.317378 0.687011,3.301758 0.458011,0.98438 1.175777,1.787594 2.153321,2.409668 0.977544,0.622073 2.143059,0.933105 3.496582,0.933105 2.023447,0 3.612787,-0.622064 4.768066,-1.866211 1.155279,-1.244147 1.73291,-2.789053 1.73291,-4.634765 0,-1.941416 -0.577631,-3.537592 -1.73291,-4.788575 -1.155279,-1.250982 -2.744619,-1.876464 -4.768066,-1.876464 -2.146495,0 -3.739253,0.608392 -4.778321,1.825195 -1.039067,1.216803 -1.558593,2.782217 -1.558593,4.696289 z M 115.79053,31.320312 h 3.26074 V 62 h -3.62988 V 35.114258 c -1.38087,0.902348 -3.06933,1.674801 -5.06543,2.317383 v -3.424805 c 0.21875,-0.0957 0.66308,-0.287108 1.333,-0.574219 0.66993,-0.287111 1.17237,-0.505858 1.50733,-0.65625 0.33496,-0.150391 0.75537,-0.362303 1.26123,-0.635742 0.50586,-0.273439 0.95019,-0.546874 1.33301,-0.820313 z m 16.8164,31.151368 c -1.83204,0 -3.46239,-0.239256 -4.89111,-0.717774 -1.42872,-0.478518 -2.47119,-1.032223 -3.12744,-1.661133 l 1.14844,-3.014648 c 1.92774,1.517586 4.22459,2.276367 6.89062,2.276367 2.05079,0 3.68115,-0.509272 4.89111,-1.527832 1.20997,-1.01856 1.81495,-2.443838 1.81495,-4.275879 0,-0.998052 -0.15381,-1.869625 -0.46143,-2.614746 -0.30762,-0.745121 -0.71777,-1.346677 -1.23047,-1.804687 -0.5127,-0.45801 -1.16894,-0.827147 -1.96875,-1.107422 -0.79981,-0.280275 -1.62011,-0.478515 -2.46094,-0.594727 -0.84082,-0.116211 -1.81493,-0.187988 -2.92236,-0.215332 -0.13672,0 -0.3418,-0.0034 -0.61523,-0.01025 -0.27344,-0.0068 -0.47852,-0.01025 -0.61524,-0.01025 v -3.055664 h 1.02539 c 0.95704,-0.01367 1.80127,-0.06494 2.53272,-0.153808 0.73145,-0.08887 1.46288,-0.249511 2.19433,-0.481934 0.73145,-0.232423 1.33643,-0.540037 1.81494,-0.922851 0.47852,-0.382815 0.86817,-0.895505 1.16895,-1.538086 0.30078,-0.642582 0.45117,-1.401363 0.45117,-2.276368 0,-3.281266 -1.87986,-4.921875 -5.63965,-4.921875 -1.35352,0 -2.62499,0.198241 -3.81445,0.594727 -1.18946,0.396486 -2.208,0.929684 -3.05566,1.599609 l -1.14844,-2.99414 c 2.03712,-1.54493 4.96971,-2.317383 8.79785,-2.317383 1.54493,0 2.97363,0.283688 4.28613,0.851074 1.31251,0.567386 2.39258,1.435541 3.24024,2.604492 0.84766,1.168952 1.27148,2.539543 1.27148,4.111817 0,1.914072 -0.47167,3.486322 -1.41504,4.716797 -0.94336,1.230474 -2.26952,2.112302 -3.97851,2.645507 1.91407,0.410159 3.41454,1.305658 4.50146,2.686524 1.08692,1.380866 1.63037,3.130849 1.63037,5.25 0,2.693373 -0.96385,4.846671 -2.8916,6.459961 -1.92774,1.613289 -4.40233,2.419922 -7.42383,2.419922 z m 22.62012,0 c -1.83204,0 -3.46239,-0.239256 -4.89111,-0.717774 -1.42872,-0.478518 -2.47119,-1.032223 -3.12744,-1.661133 l 1.14843,-3.014648 c 1.92775,1.517586 4.2246,2.276367 6.89063,2.276367 2.05079,0 3.68114,-0.509272 4.89111,-1.527832 1.20997,-1.01856 1.81494,-2.443838 1.81494,-4.275879 0,-0.998052 -0.1538,-1.869625 -0.46142,-2.614746 -0.30762,-0.745121 -0.71777,-1.346677 -1.23047,-1.804687 -0.5127,-0.45801 -1.16894,-0.827147 -1.96875,-1.107422 -0.79981,-0.280275 -1.62011,-0.478515 -2.46094,-0.594727 -0.84082,-0.116211 -1.81494,-0.187988 -2.92236,-0.215332 -0.13672,0 -0.3418,-0.0034 -0.61524,-0.01025 -0.27344,-0.0068 -0.47851,-0.01025 -0.61523,-0.01025 v -3.055664 h 1.02539 c 0.95704,-0.01367 1.80127,-0.06494 2.53271,-0.153808 0.73145,-0.08887 1.46289,-0.249511 2.19434,-0.481934 0.73145,-0.232423 1.33642,-0.540037 1.81494,-0.922851 0.47852,-0.382815 0.86816,-0.895505 1.16895,-1.538086 0.30078,-0.642582 0.45117,-1.401363 0.45117,-2.276368 0,-3.281266 -1.87986,-4.921875 -5.63965,-4.921875 -1.35352,0 -2.62499,0.198241 -3.81445,0.594727 -1.18946,0.396486 -2.20801,0.929684 -3.05567,1.599609 l -1.14843,-2.99414 c 2.03712,-1.54493 4.9697,-2.317383 8.79785,-2.317383 1.54493,0 2.97362,0.283688 4.28613,0.851074 1.31251,0.567386 2.39257,1.435541 3.24023,2.604492 0.84766,1.168952 1.27149,2.539543 1.27149,4.111817 0,1.914072 -0.47168,3.486322 -1.41504,4.716797 -0.94336,1.230474 -2.26952,2.112302 -3.97852,2.645507 1.91408,0.410159 3.41455,1.305658 4.50147,2.686524 1.08692,1.380866 1.63037,3.130849 1.63037,5.25 0,2.693373 -0.96386,4.846671 -2.8916,6.459961 -1.92774,1.613289 -4.40233,2.419922 -7.42383,2.419922 z"
           id="126-133"
           inkscape:connector-curvature="0"
           style="fill:#37c3be" />
        <path
           d="m 88.73036,118.10156 -0.266601,-6.27148 h 1.916992 l -0.368164,6.27148 z m -3.630859,0 -0.266602,-6.27148 h 1.916992 l -0.368164,6.27148 z m 11.779369,-6.09375 h 2.018555 V 131 h -2.247071 v -16.64356 c -0.854822,0.5586 -1.900059,1.03679 -3.135742,1.43458 v -2.12012 c 0.135418,-0.0593 0.41048,-0.17773 0.825196,-0.35547 0.414715,-0.17774 0.725747,-0.31315 0.933105,-0.40625 0.207358,-0.0931 0.467609,-0.22428 0.780762,-0.39355 0.313152,-0.16928 0.588215,-0.33855 0.825195,-0.50782 z m 10.73835,6.09375 -0.2666,-6.27148 h 1.91699 l -0.36816,6.27148 z m -3.63086,0 -0.2666,-6.27148 h 1.91699 l -0.36816,6.27148 z"
           id="&quot;1&quot;"
           inkscape:connector-curvature="0"
           style="fill:#ffffff" />
      </g>
    </g>
    <g
       id="Group-3"
       transform="translate(355,257)">
      <rect
         id="rect26"
         x="7"
         y="0"
         width="163"
         height="91"
         rx="10"
         style="fill:#245466;fill-rule:nonzero" />
      <path
         d="m 31.921387,31.320312 h 3.260742 V 62 H 31.552246 V 35.114258 c -1.380866,0.902348 -3.069326,1.674801 -5.06543,2.317383 v -3.424805 c 0.218751,-0.0957 0.663083,-0.287108 1.333008,-0.574219 0.669925,-0.287111 1.172362,-0.505858 1.507324,-0.65625 0.334963,-0.150391 0.755369,-0.362303 1.261231,-0.635742 0.505862,-0.273439 0.950193,-0.546874 1.333008,-0.820313 z M 48.737793,62.47168 c -1.83204,0 -3.462395,-0.239256 -4.891113,-0.717774 -1.428718,-0.478518 -2.471188,-1.032223 -3.127442,-1.661133 l 1.148438,-3.014648 c 1.927744,1.517586 4.224596,2.276367 6.890625,2.276367 2.050791,0 3.681146,-0.509272 4.891113,-1.527832 1.209967,-1.01856 1.814942,-2.443838 1.814942,-4.275879 0,-0.998052 -0.153808,-1.869625 -0.461426,-2.614746 -0.307619,-0.745121 -0.717771,-1.346677 -1.230469,-1.804687 -0.512698,-0.45801 -1.168941,-0.827147 -1.96875,-1.107422 -0.799809,-0.280275 -1.620113,-0.478515 -2.460938,-0.594727 -0.840824,-0.116211 -1.814935,-0.187988 -2.922363,-0.215332 -0.136719,0 -0.341795,-0.0034 -0.615234,-0.01025 -0.273439,-0.0068 -0.478515,-0.01025 -0.615235,-0.01025 v -3.055664 h 1.025391 c 0.957036,-0.01367 1.801266,-0.06494 2.532715,-0.153808 0.731449,-0.08887 1.462887,-0.249511 2.194336,-0.481934 0.731449,-0.232423 1.336423,-0.540037 1.814941,-0.922851 0.478518,-0.382815 0.868163,-0.895505 1.168945,-1.538086 0.300783,-0.642582 0.451172,-1.401363 0.451172,-2.276368 0,-3.281266 -1.879864,-4.921875 -5.639648,-4.921875 -1.353522,0 -2.624994,0.198241 -3.814453,0.594727 -1.189459,0.396486 -2.208004,0.929684 -3.055664,1.599609 l -1.148438,-2.99414 c 2.03712,-1.54493 4.969708,-2.317383 8.797852,-2.317383 1.544929,0 2.973626,0.283688 4.286133,0.851074 1.312506,0.567386 2.392573,1.435541 3.240234,2.604492 0.84766,1.168952 1.271484,2.539543 1.271484,4.111817 0,1.914072 -0.471675,3.486322 -1.415039,4.716797 -0.943364,1.230474 -2.269522,2.112302 -3.978515,2.645507 1.914072,0.410159 3.414545,1.305658 4.501465,2.686524 1.086919,1.380866 1.630371,3.130849 1.630371,5.25 0,2.693373 -0.963858,4.846671 -2.891602,6.459961 -1.927744,1.613289 -4.402329,2.419922 -7.423828,2.419922 z m 22.620117,0 c -1.83204,0 -3.462395,-0.239256 -4.891113,-0.717774 -1.428718,-0.478518 -2.471188,-1.032223 -3.127441,-1.661133 l 1.148437,-3.014648 c 1.927744,1.517586 4.224596,2.276367 6.890625,2.276367 2.050791,0 3.681146,-0.509272 4.891113,-1.527832 1.209967,-1.01856 1.814942,-2.443838 1.814942,-4.275879 0,-0.998052 -0.153807,-1.869625 -0.461426,-2.614746 -0.307619,-0.745121 -0.717771,-1.346677 -1.230469,-1.804687 -0.512698,-0.45801 -1.168941,-0.827147 -1.96875,-1.107422 -0.799809,-0.280275 -1.620113,-0.478515 -2.460937,-0.594727 -0.840825,-0.116211 -1.814936,-0.187988 -2.922364,-0.215332 -0.136719,0 -0.341795,-0.0034 -0.615234,-0.01025 -0.273439,-0.0068 -0.478515,-0.01025 -0.615234,-0.01025 v -3.055664 h 1.02539 c 0.957036,-0.01367 1.801266,-0.06494 2.532715,-0.153808 0.731449,-0.08887 1.462887,-0.249511 2.194336,-0.481934 0.731449,-0.232423 1.336423,-0.540037 1.814941,-0.922851 0.478518,-0.382815 0.868163,-0.895505 1.168946,-1.538086 0.300783,-0.642582 0.451172,-1.401363 0.451172,-2.276368 0,-3.281266 -1.879864,-4.921875 -5.639649,-4.921875 -1.353522,0 -2.624994,0.198241 -3.814453,0.594727 -1.189459,0.396486 -2.208004,0.929684 -3.055664,1.599609 l -1.148437,-2.99414 c 2.037119,-1.54493 4.969707,-2.317383 8.797851,-2.317383 1.54493,0 2.973626,0.283688 4.286133,0.851074 1.312506,0.567386 2.392574,1.435541 3.240234,2.604492 0.847661,1.168952 1.271485,2.539543 1.271485,4.111817 0,1.914072 -0.471675,3.486322 -1.415039,4.716797 -0.943365,1.230474 -2.269523,2.112302 -3.978516,2.645507 1.914072,0.410159 3.414545,1.305658 4.501465,2.686524 1.086919,1.380866 1.630371,3.130849 1.630371,5.25 0,2.693373 -0.963858,4.846671 -2.891602,6.459961 -1.927744,1.613289 -4.402328,2.419922 -7.423828,2.419922 z M 107.08252,62 106.61084,58.636719 117.21338,46.865234 c 0.71094,-0.792972 1.39794,-1.818353 2.06103,-3.076172 0.66309,-1.257818 1.14502,-2.324214 1.4458,-3.199218 l 0.47169,-1.291992 c 0,-1.695321 -0.47168,-3.011226 -1.41505,-3.947754 -0.94336,-0.936529 -2.28319,-1.404786 -4.01953,-1.404786 -2.89845,0 -5.18163,0.840812 -6.84961,2.522461 l -1.18945,-3.076171 c 1.88673,-1.777353 4.64842,-2.666016 8.28516,-2.666016 2.78907,0 5.01073,0.755363 6.66504,2.266113 1.6543,1.51075 2.48144,3.530749 2.48144,6.060059 -0.0547,0.191407 -0.13672,0.447752 -0.24609,0.769043 -0.10938,0.32129 -0.34521,0.946772 -0.70752,1.876465 -0.36231,0.929692 -0.7417,1.811519 -1.13819,2.645507 -0.39648,0.833989 -0.89892,1.749995 -1.50732,2.748047 -0.6084,0.998052 -1.22705,1.832028 -1.85596,2.501953 l -8.65429,9.249024 h 14.21191 L 125.02685,62 Z m 30.74121,0.47168 c -1.83204,0 -3.4624,-0.239256 -4.89111,-0.717774 -1.42872,-0.478518 -2.47119,-1.032223 -3.12744,-1.661133 l 1.14843,-3.014648 c 1.92775,1.517586 4.2246,2.276367 6.89063,2.276367 2.05079,0 3.68114,-0.509272 4.89111,-1.527832 1.20997,-1.01856 1.81494,-2.443838 1.81494,-4.275879 0,-0.998052 -0.1538,-1.869625 -0.46142,-2.614746 -0.30762,-0.745121 -0.71777,-1.346677 -1.23047,-1.804687 -0.5127,-0.45801 -1.16894,-0.827147 -1.96875,-1.107422 -0.79981,-0.280275 -1.62012,-0.478515 -2.46094,-0.594727 -0.84082,-0.116211 -1.81494,-0.187988 -2.92236,-0.215332 -0.13672,0 -0.3418,-0.0034 -0.61524,-0.01025 -0.27344,-0.0068 -0.47851,-0.01025 -0.61523,-0.01025 v -3.055664 h 1.02539 c 0.95704,-0.01367 1.80126,-0.06494 2.53271,-0.153808 0.73145,-0.08887 1.46289,-0.249511 2.19434,-0.481934 0.73145,-0.232423 1.33642,-0.540037 1.81494,-0.922851 0.47852,-0.382815 0.86816,-0.895505 1.16895,-1.538086 0.30078,-0.642582 0.45117,-1.401363 0.45117,-2.276368 0,-3.281266 -1.87987,-4.921875 -5.63965,-4.921875 -1.35352,0 -2.62499,0.198241 -3.81445,0.594727 -1.18946,0.396486 -2.20801,0.929684 -3.05567,1.599609 l -1.14843,-2.99414 c 2.03711,-1.54493 4.9697,-2.317383 8.79785,-2.317383 1.54493,0 2.97362,0.283688 4.28613,0.851074 1.31251,0.567386 2.39257,1.435541 3.24023,2.604492 0.84766,1.168952 1.27149,2.539543 1.27149,4.111817 0,1.914072 -0.47168,3.486322 -1.41504,4.716797 -0.94336,1.230474 -2.26952,2.112302 -3.97852,2.645507 1.91408,0.410159 3.41455,1.305658 4.50147,2.686524 1.08692,1.380866 1.63037,3.130849 1.63037,5.25 0,2.693373 -0.96386,4.846671 -2.8916,6.459961 -1.92775,1.613289 -4.40233,2.419922 -7.42383,2.419922 z"
         id="133-23"
         inkscape:connector-curvature="0"
         style="fill:#37c3be" />
      <path
         d="m 76.702528,118.10156 -0.266601,-6.27148 h 1.916992 l -0.368164,6.27148 z m -3.630859,0 -0.266602,-6.27148 h 1.916992 l -0.368164,6.27148 z m 14.24226,13.19043 c -1.134121,0 -2.143388,-0.14811 -3.027832,-0.44433 -0.884445,-0.29623 -1.529783,-0.639 -1.936036,-1.02832 l 0.710938,-1.86621 c 1.193365,0.93945 2.615226,1.40917 4.265625,1.40917 1.269538,0 2.278805,-0.31526 3.027832,-0.9458 0.749027,-0.63053 1.123535,-1.51285 1.123535,-2.64697 0,-0.61784 -0.09521,-1.15739 -0.285644,-1.61865 -0.190431,-0.46127 -0.444335,-0.83366 -0.761719,-1.11719 -0.317385,-0.28353 -0.723631,-0.51204 -1.21875,-0.68554 -0.49512,-0.17351 -1.002927,-0.29623 -1.523438,-0.36817 -0.52051,-0.0719 -1.123531,-0.11637 -1.809082,-0.1333 -0.08463,0 -0.211587,-0.002 -0.380859,-0.006 -0.169272,-0.004 -0.296224,-0.006 -0.380859,-0.006 v -1.8916 h 0.634765 c 0.592451,-0.008 1.11507,-0.0402 1.567871,-0.0952 0.452802,-0.055 0.905597,-0.15446 1.358399,-0.29834 0.452802,-0.14388 0.827309,-0.33431 1.123535,-0.57129 0.296225,-0.23698 0.537434,-0.55436 0.723633,-0.95215 0.186199,-0.39779 0.279297,-0.86751 0.279297,-1.40918 0,-2.03126 -1.163726,-3.04687 -3.491211,-3.04687 -0.837895,0 -1.624997,0.12272 -2.361328,0.36816 -0.736332,0.24544 -1.36686,0.57552 -1.891602,0.99023 l -0.710938,-1.85351 c 1.261075,-0.95639 3.076486,-1.43457 5.44629,-1.43457 0.956384,0 1.840816,0.17561 2.65332,0.52685 0.812504,0.35124 1.481117,0.88867 2.005859,1.61231 0.524742,0.72363 0.78711,1.5721 0.78711,2.54541 0,1.1849 -0.29199,2.1582 -0.875977,2.91992 -0.583987,0.76172 -1.404943,1.30762 -2.462891,1.6377 1.184902,0.2539 2.113767,0.80826 2.786621,1.66308 0.672855,0.85482 1.009278,1.93815 1.009278,3.25 0,1.66733 -0.596674,3.00032 -1.790039,3.99902 -1.193366,0.99871 -2.725251,1.49805 -4.595703,1.49805 z m 14.331131,-13.19043 -0.26661,-6.27148 h 1.917 l -0.36817,6.27148 z m -3.630864,0 -0.266601,-6.27148 h 1.916992 l -0.368164,6.27148 z"
         id="path29"
         inkscape:connector-curvature="0"
         style="fill:#ffffff" />
      <rect
         id="rect31"
         x="209"
         y="0"
         width="149"
         height="91"
         rx="10"
         style="fill:#245466;fill-rule:nonzero" />
      <path
         d="m 229.94678,62 -0.47168,-3.363281 10.60254,-11.771485 c 0.71094,-0.792972 1.39794,-1.818353 2.06103,-3.076172 0.66309,-1.257818 1.14502,-2.324214 1.4458,-3.199218 l 0.47168,-1.291992 c 0,-1.695321 -0.47167,-3.011226 -1.41504,-3.947754 -0.94336,-0.936529 -2.28319,-1.404786 -4.01953,-1.404786 -2.89845,0 -5.18163,0.840812 -6.84961,2.522461 l -1.18945,-3.076171 c 1.88673,-1.777353 4.64842,-2.666016 8.28516,-2.666016 2.78907,0 5.01073,0.755363 6.66503,2.266113 1.65431,1.51075 2.48145,3.530749 2.48145,6.060059 -0.0547,0.191407 -0.13672,0.447752 -0.24609,0.769043 -0.10938,0.32129 -0.34522,0.946772 -0.70752,1.876465 -0.36231,0.929692 -0.7417,1.811519 -1.13819,2.645507 -0.39648,0.833989 -0.89892,1.749995 -1.50732,2.748047 -0.6084,0.998052 -1.22705,1.832028 -1.85596,2.501953 l -8.6543,9.249024 H 248.1167 L 247.89111,62 Z m 41.15918,-30.679688 -0.28711,3.363282 h -12.53028 c -0.13672,3.978535 -0.23925,7.19823 -0.30761,9.659179 1.54493,-0.98438 3.21971,-1.476562 5.02441,-1.476562 1.51759,0 2.87451,0.242673 4.0708,0.728027 1.1963,0.485354 2.17383,1.151851 2.93262,1.999512 0.75879,0.847661 1.33642,1.835444 1.73291,2.963379 0.39649,1.127935 0.59473,2.348138 0.59473,3.660644 0,3.103532 -0.99462,5.58837 -2.98389,7.45459 -1.98927,1.866221 -4.69285,2.799317 -8.11084,2.799317 -3.43166,0 -6.17968,-0.936514 -8.24414,-2.809571 l 1.33301,-2.891601 c 2.02344,1.585945 4.36815,2.378906 7.03418,2.378906 2.24219,0 4.01268,-0.635736 5.31152,-1.907227 1.29883,-1.27149 1.94824,-2.932606 1.94824,-4.983398 0,-1.83204 -0.54687,-3.318842 -1.64062,-4.460449 -1.09376,-1.141607 -2.65234,-1.712403 -4.67579,-1.712403 -2.02344,0 -3.65038,0.676752 -4.88085,2.030274 l -2.85059,-0.389649 0.7998,-16.40625 z m 34.67871,31.151368 c -1.83204,0 -3.4624,-0.239256 -4.89112,-0.717774 -1.42871,-0.478518 -2.47118,-1.032223 -3.12744,-1.661133 l 1.14844,-3.014648 c 1.92774,1.517586 4.2246,2.276367 6.89063,2.276367 2.05079,0 3.68114,-0.509272 4.89111,-1.527832 1.20997,-1.01856 1.81494,-2.443838 1.81494,-4.275879 0,-0.998052 -0.15381,-1.869625 -0.46143,-2.614746 -0.30761,-0.745121 -0.71777,-1.346677 -1.23046,-1.804687 -0.5127,-0.45801 -1.16895,-0.827147 -1.96875,-1.107422 -0.79981,-0.280275 -1.62012,-0.478515 -2.46094,-0.594727 -0.84083,-0.116211 -1.81494,-0.187988 -2.92237,-0.215332 -0.13671,0 -0.34179,-0.0034 -0.61523,-0.01025 -0.27344,-0.0068 -0.47851,-0.01025 -0.61523,-0.01025 v -3.055664 h 1.02539 c 0.95703,-0.01367 1.80126,-0.06494 2.53271,-0.153808 0.73145,-0.08887 1.46289,-0.249511 2.19434,-0.481934 0.73145,-0.232423 1.33642,-0.540037 1.81494,-0.922851 0.47852,-0.382815 0.86816,-0.895505 1.16894,-1.538086 0.30079,-0.642582 0.45118,-1.401363 0.45118,-2.276368 0,-3.281266 -1.87987,-4.921875 -5.63965,-4.921875 -1.35352,0 -2.625,0.198241 -3.81446,0.594727 -1.18945,0.396486 -2.208,0.929684 -3.05566,1.599609 l -1.14844,-2.99414 c 2.03712,-1.54493 4.96971,-2.317383 8.79785,-2.317383 1.54493,0 2.97363,0.283688 4.28614,0.851074 1.3125,0.567386 2.39257,1.435541 3.24023,2.604492 0.84766,1.168952 1.27149,2.539543 1.27149,4.111817 0,1.914072 -0.47168,3.486322 -1.41504,4.716797 -0.94337,1.230474 -2.26953,2.112302 -3.97852,2.645507 1.91407,0.410159 3.41455,1.305658 4.50147,2.686524 1.08692,1.380866 1.63037,3.130849 1.63037,5.25 0,2.693373 -0.96386,4.846671 -2.8916,6.459961 -1.92775,1.613289 -4.40233,2.419922 -7.42383,2.419922 z m 33.03808,-31.151368 -0.28711,3.363282 h -12.53027 c -0.13672,3.978535 -0.23926,7.19823 -0.30762,9.659179 1.54493,-0.98438 3.21972,-1.476562 5.02442,-1.476562 1.51758,0 2.8745,0.242673 4.0708,0.728027 1.19629,0.485354 2.17382,1.151851 2.93262,1.999512 0.75879,0.847661 1.33642,1.835444 1.73291,2.963379 0.39648,1.127935 0.59472,2.348138 0.59472,3.660644 0,3.103532 -0.99462,5.58837 -2.98388,7.45459 -1.98927,1.866221 -4.69286,2.799317 -8.11084,2.799317 -3.43166,0 -6.17968,-0.936514 -8.24415,-2.809571 l 1.33301,-2.891601 c 2.02345,1.585945 4.36815,2.378906 7.03418,2.378906 2.2422,0 4.01269,-0.635736 5.31153,-1.907227 1.29883,-1.27149 1.94824,-2.932606 1.94824,-4.983398 0,-1.83204 -0.54687,-3.318842 -1.64063,-4.460449 -1.09375,-1.141607 -2.65233,-1.712403 -4.67578,-1.712403 -2.02344,0 -3.65038,0.676752 -4.88086,2.030274 l -2.85058,-0.389649 0.7998,-16.40625 z"
         id="25-35"
         inkscape:connector-curvature="0"
         style="fill:#37c3be" />
      <path
         d="m 271.7328,118.10156 -0.2666,-6.27148 h 1.91699 l -0.36816,6.27148 z m -3.63086,0 -0.2666,-6.27148 h 1.91699 l -0.36816,6.27148 z m 20.69148,-6.09375 -0.17773,2.08203 h -7.75684 c -0.0846,2.46291 -0.14811,4.45605 -0.19043,5.9795 0.95639,-0.60938 1.99316,-0.91407 3.11035,-0.91407 0.93946,0 1.77946,0.15023 2.52002,0.45069 0.74057,0.30045 1.3457,0.71305 1.81543,1.23779 0.46973,0.52474 0.82731,1.13623 1.07276,1.83447 0.24544,0.69825 0.36816,1.45361 0.36816,2.26612 0,1.92123 -0.61572,3.45946 -1.84717,4.61474 -1.23145,1.15528 -2.9051,1.73291 -5.02099,1.73291 -2.12436,0 -3.82552,-0.57975 -5.10352,-1.73926 l 0.82519,-1.79004 c 1.25262,0.98178 2.7041,1.47266 4.3545,1.47266 1.38803,0 2.48404,-0.39355 3.28808,-1.18066 0.80404,-0.78712 1.20606,-1.81543 1.20606,-3.08496 0,-1.13412 -0.33854,-2.05452 -1.01563,-2.76123 -0.67708,-0.70671 -1.64192,-1.06006 -2.89453,-1.06006 -1.25261,0 -2.25976,0.41894 -3.02148,1.25683 l -1.76465,-0.24121 0.49512,-10.15625 z m 8.82136,6.09375 -0.2666,-6.27148 h 1.91699 l -0.36816,6.27148 z m -3.63086,0 -0.2666,-6.27148 h 1.91699 l -0.36816,6.27148 z"
         id="&quot;5&quot;"
         inkscape:connector-curvature="0"
         style="fill:#ffffff" />
      <rect
         id="Rectangle-Copy-2"
         x="397"
         y="0"
         width="107"
         height="91"
         rx="10"
         style="fill:#245466;fill-rule:nonzero" />
      <path
         d="m 428.53662,31.320312 h 3.26074 V 62 h -3.62988 V 35.114258 c -1.38087,0.902348 -3.06932,1.674801 -5.06543,2.317383 v -3.424805 c 0.21875,-0.0957 0.66308,-0.287108 1.33301,-0.574219 0.66992,-0.287111 1.17236,-0.505858 1.50732,-0.65625 0.33497,-0.150391 0.75537,-0.362303 1.26123,-0.635742 0.50586,-0.273439 0.9502,-0.546874 1.33301,-0.820313 z M 437.49853,62 437.02685,58.636719 447.62939,46.865234 c 0.71095,-0.792972 1.39795,-1.818353 2.06104,-3.076172 0.66309,-1.257818 1.14502,-2.324214 1.4458,-3.199218 l 0.47168,-1.291992 c 0,-1.695321 -0.47168,-3.011226 -1.41504,-3.947754 -0.94336,-0.936529 -2.28319,-1.404786 -4.01953,-1.404786 -2.89845,0 -5.18163,0.840812 -6.84961,2.522461 l -1.18945,-3.076171 c 1.88673,-1.777353 4.64842,-2.666016 8.28515,-2.666016 2.78908,0 5.01074,0.755363 6.66504,2.266113 1.65431,1.51075 2.48145,3.530749 2.48145,6.060059 -0.0547,0.191407 -0.13672,0.447752 -0.2461,0.769043 -0.10937,0.32129 -0.34521,0.946772 -0.70752,1.876465 -0.3623,0.929692 -0.74169,1.811519 -1.13818,2.645507 -0.39649,0.833989 -0.89892,1.749995 -1.50732,2.748047 -0.60841,0.998052 -1.22705,1.832028 -1.85596,2.501953 l -8.6543,9.249024 h 14.21192 L 455.44287,62 Z m 33.63282,-18.887695 c 1.72266,0 3.31542,0.406734 4.77832,1.220214 1.4629,0.813481 2.63866,1.968743 3.52734,3.465821 0.88868,1.497078 1.33301,3.161612 1.33301,4.993652 0,2.789077 -0.93993,5.0996 -2.81983,6.931641 -1.87989,1.83204 -4.35789,2.748047 -7.43408,2.748047 -1.59961,0 -3.05907,-0.270017 -4.37842,-0.810059 -1.31934,-0.540042 -2.40624,-1.27148 -3.26074,-2.194336 -0.85449,-0.922856 -1.51757,-1.996087 -1.98926,-3.219726 -0.47168,-1.223639 -0.70751,-2.532708 -0.70751,-3.927247 0,-2.228526 0.40673,-4.221182 1.22021,-5.978027 0.81348,-1.756845 2.28661,-3.98192 4.41943,-6.675293 0.51954,-0.656253 1.33984,-1.667962 2.46094,-3.035156 1.1211,-1.367194 2.11914,-2.570307 2.99414,-3.609375 l 1.29199,-1.558594 h 4.73731 l -10.78711,12.878906 c 1.54493,-0.820316 3.083,-1.230468 4.61426,-1.230468 z m -7.0752,9.597656 c 0,1.216803 0.229,2.317378 0.68701,3.301758 0.45801,0.98438 1.17578,1.787594 2.15332,2.409668 0.97755,0.622073 2.14306,0.933105 3.49659,0.933105 2.02344,0 3.61278,-0.622064 4.76806,-1.866211 1.15528,-1.244147 1.73291,-2.789053 1.73291,-4.634765 0,-1.941416 -0.57763,-3.537592 -1.73291,-4.788575 -1.15528,-1.250982 -2.74462,-1.876464 -4.76806,-1.876464 -2.1465,0 -3.73926,0.608392 -4.77832,1.825195 -1.03907,1.216803 -1.5586,2.782217 -1.5586,4.696289 z"
         id="126"
         inkscape:connector-curvature="0"
         style="fill:#37c3be" />
      <path
         d="m 440.09315,118.10156 -0.2666,-6.27148 h 1.91699 l -0.36816,6.27148 z m -3.63086,0 -0.2666,-6.27148 h 1.91699 l -0.36816,6.27148 z m 16.0323,1.20606 c 1.06641,0 2.05241,0.25178 2.95801,0.75537 0.9056,0.50358 1.63346,1.21874 2.18359,2.14551 0.55014,0.92676 0.8252,1.95718 0.8252,3.09131 0,1.72657 -0.58186,3.15689 -1.74561,4.29101 -1.16374,1.13412 -2.69774,1.70117 -4.60205,1.70117 -0.99024,0 -1.89371,-0.16715 -2.71045,-0.50146 -0.81673,-0.33431 -1.48958,-0.78711 -2.01855,-1.3584 -0.52898,-0.57129 -0.93945,-1.23567 -1.23145,-1.99317 -0.29199,-0.75749 -0.43798,-1.56786 -0.43798,-2.43115 0,-1.37956 0.25178,-2.61311 0.75537,-3.70068 0.50358,-1.08757 1.41552,-2.465 2.73584,-4.13232 0.32161,-0.40626 0.82942,-1.03255 1.52343,-1.87891 0.69402,-0.84636 1.31185,-1.59114 1.85352,-2.23438 l 0.7998,-0.96484 h 2.93262 l -6.67773,7.97266 c 0.95638,-0.50782 1.90852,-0.76172 2.85644,-0.76172 z m -4.37988,5.9414 c 0,0.75326 0.14176,1.43457 0.42529,2.04395 0.28353,0.60938 0.72786,1.1066 1.33301,1.4917 0.60515,0.38509 1.32666,0.57763 2.16455,0.57763 1.25261,0 2.23649,-0.38508 2.95166,-1.15527 0.71517,-0.77018 1.07276,-1.72656 1.07276,-2.86914 0,-1.20183 -0.35759,-2.18994 -1.07276,-2.96435 -0.71517,-0.77442 -1.69905,-1.16163 -2.95166,-1.16163 -1.32878,0 -2.31477,0.37663 -2.95801,1.12989 -0.64323,0.75326 -0.96484,1.72232 -0.96484,2.90722 z m 18.13972,-7.14746 -0.2666,-6.27148 h 1.91699 l -0.36816,6.27148 z m -3.63086,0 -0.2666,-6.27148 h 1.91699 l -0.36816,6.27148 z"
         id="&quot;6&quot;"
         inkscape:connector-curvature="0"
         style="fill:#ffffff" />
    </g>
    <g
       id="Group-4"
       transform="translate(246,117)"
       style="fill:#37c3be">
      <path
         d="M 5.5366211,1.3203125 H 8.7973633 V 32 H 5.1674805 V 5.1142578 C 3.7866142,6.0166061 2.0981545,6.7890593 0.10205078,7.4316406 V 4.0068359 C 0.32080188,3.9111323 0.76513337,3.719728 1.4350586,3.4326172 2.1049838,3.1455064 2.6074202,2.9267586 2.9423828,2.7763672 3.2773454,2.6259758 3.6977514,2.4140639 4.2036133,2.140625 4.7094752,1.8671861 5.1538067,1.5937514 5.5366211,1.3203125 Z M 14.498535,32 14.026856,28.636719 24.629394,16.865234 c 0.710942,-0.792972 1.397946,-1.818353 2.061036,-3.076171 0.663089,-1.257819 1.145018,-2.324215 1.4458,-3.199219 l 0.47168,-1.2919924 c 0,-1.695321 -0.471675,-3.0112258 -1.415039,-3.9477539 -0.943364,-0.9365282 -2.283194,-1.4047852 -4.019531,-1.4047852 -2.898452,0 -5.181632,0.8408119 -6.84961,2.5224609 L 15.134277,3.3916016 c 1.886728,-1.7773527 4.64842,-2.66601566 8.285157,-2.66601566 2.789076,0 5.010733,0.75536356 6.665039,2.26611326 1.654305,1.5107498 2.481445,3.5307491 2.481445,6.0600586 -0.05469,0.1914072 -0.136718,0.4477523 -0.246094,0.769043 -0.109375,0.3212902 -0.345213,0.9467722 -0.707519,1.8764652 -0.362307,0.929692 -0.741698,1.811519 -1.138184,2.645507 -0.396486,0.833989 -0.898923,1.749995 -1.507324,2.748047 -0.608402,0.998052 -1.227048,1.832028 -1.855957,2.501953 l -8.654297,9.249024 H 32.668457 L 32.442871,32 Z M 48.131348,13.112305 c 1.722665,0 3.315422,0.406734 4.77832,1.220215 1.462898,0.81348 2.638667,1.968742 3.527344,3.46582 0.888676,1.497078 1.333007,3.161612 1.333007,4.993652 0,2.789077 -0.939932,5.0996 -2.819824,6.931641 -1.879892,1.83204 -4.357895,2.748047 -7.434082,2.748047 -1.599617,0 -3.059075,-0.270017 -4.378418,-0.810059 -1.319342,-0.540042 -2.406245,-1.27148 -3.260742,-2.194336 -0.854496,-0.922856 -1.517576,-1.996088 -1.989258,-3.219726 -0.471682,-1.223639 -0.707519,-2.532708 -0.707519,-3.927247 0,-2.228526 0.406734,-4.221182 1.220215,-5.978027 0.81348,-1.756845 2.28661,-3.98192 4.419433,-6.6752928 0.519534,-0.6562533 1.339838,-1.6679619 2.460938,-3.0351563 1.121099,-1.3671943 2.119136,-2.5703073 2.99414,-3.609375 l 1.291992,-1.5585937 h 4.737305 L 43.51709,14.342773 c 1.544929,-0.820316 3.083,-1.230468 4.614258,-1.230468 z m -7.075196,9.597656 c 0,1.216803 0.229002,2.317378 0.687012,3.301758 0.45801,0.98438 1.175776,1.787594 2.15332,2.409668 0.977544,0.622073 2.14306,0.933105 3.496582,0.933105 2.023448,0 3.612788,-0.622064 4.768067,-1.866211 1.155279,-1.244147 1.73291,-2.789053 1.73291,-4.634765 0,-1.941416 -0.577631,-3.537592 -1.73291,-4.788575 -1.155279,-1.250982 -2.744619,-1.876464 -4.768067,-1.876464 -2.146495,0 -3.739252,0.608392 -4.77832,1.825195 -1.039068,1.216803 -1.558594,2.782217 -1.558594,4.696289 z"
         id="path39"
         inkscape:connector-curvature="0" />
      <path
         d="m 182.43457,1.3203125 h 3.26074 V 32 h -3.62988 V 5.1142578 C 180.68456,6.0166061 178.9961,6.7890593 177,7.4316406 V 4.0068359 c 0.21875,-0.095704 0.66308,-0.2871079 1.33301,-0.5742187 0.66992,-0.2871108 1.17236,-0.5058586 1.50732,-0.65625 0.33496,-0.1503914 0.75537,-0.3623033 1.26123,-0.6357422 0.50586,-0.2734389 0.9502,-0.5468736 1.33301,-0.8203125 z M 199.25098,32.47168 c -1.83204,0 -3.4624,-0.239256 -4.89112,-0.717774 -1.42872,-0.478518 -2.47119,-1.032223 -3.12744,-1.661133 l 1.14844,-3.014648 c 1.92774,1.517586 4.22459,2.276367 6.89062,2.276367 2.0508,0 3.68115,-0.509272 4.89112,-1.527832 1.20996,-1.01856 1.81494,-2.443838 1.81494,-4.275879 0,-0.998052 -0.15381,-1.869625 -0.46143,-2.614746 -0.30762,-0.745121 -0.71777,-1.346677 -1.23047,-1.804687 -0.51269,-0.45801 -1.16894,-0.827147 -1.96875,-1.107422 -0.7998,-0.280275 -1.62011,-0.478515 -2.46093,-0.594727 -0.84083,-0.116211 -1.81494,-0.187988 -2.92237,-0.215332 -0.13672,0 -0.34179,-0.0034 -0.61523,-0.01025 -0.27344,-0.0068 -0.47852,-0.01025 -0.61524,-0.01025 v -3.055664 h 1.0254 c 0.95703,-0.01367 1.80126,-0.06494 2.53271,-0.153808 0.73145,-0.08887 1.46289,-0.249511 2.19434,-0.481934 0.73144,-0.232423 1.33642,-0.540037 1.81494,-0.922851 0.47852,-0.382815 0.86816,-0.895505 1.16894,-1.538086 0.30079,-0.642582 0.45117,-1.4013632 0.45117,-2.2763676 0,-3.2812664 -1.87986,-4.921875 -5.63964,-4.921875 -1.35353,0 -2.625,0.1982402 -3.81446,0.5947266 -1.18946,0.3964864 -2.208,0.9296841 -3.05566,1.5996094 l -1.14844,-2.9941406 c 2.03712,-1.5449296 4.96971,-2.31738286 8.79785,-2.31738286 1.54493,0 2.97363,0.28368856 4.28614,0.85107426 1.3125,0.5673856 2.39257,1.435541 3.24023,2.6044921 0.84766,1.1689512 1.27148,2.539543 1.27148,4.1118165 0,1.9140722 -0.47167,3.4863222 -1.41503,4.7167972 -0.94337,1.230475 -2.26953,2.112302 -3.97852,2.645507 1.91407,0.410159 3.41455,1.305658 4.50146,2.686524 1.08692,1.380866 1.63038,3.130849 1.63038,5.25 0,2.693373 -0.96386,4.846671 -2.89161,6.459961 -1.92774,1.613289 -4.40232,2.419922 -7.42382,2.419922 z m 22.62011,0 c -1.83204,0 -3.46239,-0.239256 -4.89111,-0.717774 -1.42872,-0.478518 -2.47119,-1.032223 -3.12744,-1.661133 l 1.14844,-3.014648 c 1.92774,1.517586 4.22459,2.276367 6.89062,2.276367 2.05079,0 3.68115,-0.509272 4.89111,-1.527832 1.20997,-1.01856 1.81495,-2.443838 1.81495,-4.275879 0,-0.998052 -0.15381,-1.869625 -0.46143,-2.614746 -0.30762,-0.745121 -0.71777,-1.346677 -1.23047,-1.804687 -0.5127,-0.45801 -1.16894,-0.827147 -1.96875,-1.107422 -0.79981,-0.280275 -1.62011,-0.478515 -2.46094,-0.594727 -0.84082,-0.116211 -1.81493,-0.187988 -2.92236,-0.215332 -0.13672,0 -0.3418,-0.0034 -0.61523,-0.01025 -0.27344,-0.0068 -0.47852,-0.01025 -0.61524,-0.01025 v -3.055664 h 1.02539 c 0.95704,-0.01367 1.80127,-0.06494 2.53272,-0.153808 0.73145,-0.08887 1.46288,-0.249511 2.19433,-0.481934 0.73145,-0.232423 1.33643,-0.540037 1.81494,-0.922851 0.47852,-0.382815 0.86817,-0.895505 1.16895,-1.538086 0.30078,-0.642582 0.45117,-1.4013632 0.45117,-2.2763676 0,-3.2812664 -1.87986,-4.921875 -5.63965,-4.921875 -1.35352,0 -2.62499,0.1982402 -3.81445,0.5947266 -1.18946,0.3964864 -2.208,0.9296841 -3.05566,1.5996094 l -1.14844,-2.9941406 c 2.03712,-1.5449296 4.96971,-2.31738286 8.79785,-2.31738286 1.54493,0 2.97363,0.28368856 4.28613,0.85107426 1.31251,0.5673856 2.39258,1.435541 3.24024,2.6044921 0.84766,1.1689512 1.27148,2.539543 1.27148,4.1118165 0,1.9140722 -0.47167,3.4863222 -1.41504,4.7167972 -0.94336,1.230475 -2.26952,2.112302 -3.97851,2.645507 1.91407,0.410159 3.41454,1.305658 4.50146,2.686524 1.08692,1.380866 1.63037,3.130849 1.63037,5.25 0,2.693373 -0.96385,4.846671 -2.8916,6.459961 -1.92774,1.613289 -4.40233,2.419922 -7.42383,2.419922 z"
         id="133"
         inkscape:connector-curvature="0" />
      <path
         d="M 352.47168,32 352,28.636719 362.60254,16.865234 c 0.71094,-0.792972 1.39795,-1.818353 2.06103,-3.076171 0.66309,-1.257819 1.14502,-2.324215 1.4458,-3.199219 l 0.47168,-1.2919924 c 0,-1.695321 -0.47167,-3.0112258 -1.41503,-3.9477539 -0.94337,-0.9365282 -2.2832,-1.4047852 -4.01954,-1.4047852 -2.89845,0 -5.18163,0.8408119 -6.84961,2.5224609 l -1.18945,-3.0761718 c 1.88673,-1.7773527 4.64842,-2.66601566 8.28516,-2.66601566 2.78907,0 5.01073,0.75536356 6.66504,2.26611326 1.6543,1.5107498 2.48144,3.5307491 2.48144,6.0600586 -0.0547,0.1914072 -0.13672,0.4477523 -0.24609,0.769043 -0.10938,0.3212902 -0.34521,0.9467722 -0.70752,1.8764652 -0.36231,0.929692 -0.7417,1.811519 -1.13818,2.645507 -0.39649,0.833989 -0.89893,1.749995 -1.50733,2.748047 -0.6084,0.998052 -1.22705,1.832028 -1.85596,2.501953 l -8.65429,9.249024 H 370.6416 L 370.41602,32 Z m 41.15918,-30.6796875 -0.28711,3.3632812 h -12.53027 c -0.13672,3.9785356 -0.23926,7.1982303 -0.30762,9.6591793 1.54493,-0.984379 3.21972,-1.476562 5.02441,-1.476562 1.51759,0 2.87451,0.242673 4.0708,0.728027 1.1963,0.485354 2.17383,1.151852 2.93262,1.999512 0.75879,0.84766 1.33642,1.835444 1.73291,2.963379 0.39649,1.127935 0.59473,2.348138 0.59473,3.660644 0,3.103532 -0.99462,5.58837 -2.98389,7.45459 -1.98927,1.866221 -4.69285,2.799317 -8.11084,2.799317 -3.43166,0 -6.17968,-0.936514 -8.24414,-2.809571 l 1.33301,-2.891601 c 2.02345,1.585945 4.36815,2.378906 7.03418,2.378906 2.2422,0 4.01269,-0.635736 5.31152,-1.907227 1.29884,-1.27149 1.94824,-2.932606 1.94824,-4.983398 0,-1.83204 -0.54686,-3.318842 -1.64062,-4.460449 -1.09376,-1.141607 -2.65234,-1.712403 -4.67578,-1.712403 -2.02345,0 -3.65039,0.676751 -4.88086,2.030274 l -2.85059,-0.389649 0.79981,-16.4062495 z"
         id="25"
         inkscape:connector-curvature="0" />
      <path
         d="m 522.01855,32.47168 c -1.83204,0 -3.46239,-0.239256 -4.89111,-0.717774 C 515.69872,31.275388 514.65625,30.721683 514,30.092773 l 1.14844,-3.014648 c 1.92774,1.517586 4.22459,2.276367 6.89062,2.276367 2.05079,0 3.68115,-0.509272 4.89112,-1.527832 1.20996,-1.01856 1.81494,-2.443838 1.81494,-4.275879 0,-0.998052 -0.15381,-1.869625 -0.46143,-2.614746 -0.30762,-0.745121 -0.71777,-1.346677 -1.23047,-1.804687 -0.5127,-0.45801 -1.16894,-0.827147 -1.96875,-1.107422 -0.79981,-0.280275 -1.62011,-0.478515 -2.46094,-0.594727 -0.84082,-0.116211 -1.81493,-0.187988 -2.92236,-0.215332 -0.13672,0 -0.34179,-0.0034 -0.61523,-0.01025 -0.27344,-0.0068 -0.47852,-0.01025 -0.61524,-0.01025 v -3.055664 h 1.02539 c 0.95704,-0.01367 1.80127,-0.06494 2.53272,-0.153808 0.73145,-0.08887 1.46289,-0.249511 2.19434,-0.481934 0.73144,-0.232423 1.33642,-0.540037 1.81494,-0.922851 0.47851,-0.382815 0.86816,-0.895505 1.16894,-1.538086 0.30078,-0.642582 0.45117,-1.4013632 0.45117,-2.2763676 0,-3.2812664 -1.87986,-4.921875 -5.63965,-4.921875 -1.35352,0 -2.62499,0.1982402 -3.81445,0.5947266 -1.18946,0.3964864 -2.208,0.9296841 -3.05566,1.5996094 L 514,3.0429688 c 2.03712,-1.5449296 4.96971,-2.31738286 8.79785,-2.31738286 1.54493,0 2.97363,0.28368856 4.28613,0.85107426 1.31251,0.5673856 2.39258,1.435541 3.24024,2.6044921 0.84766,1.1689512 1.27148,2.539543 1.27148,4.1118165 0,1.9140722 -0.47167,3.4863222 -1.41504,4.7167972 -0.94336,1.230475 -2.26952,2.112302 -3.97851,2.645507 1.91407,0.410159 3.41454,1.305658 4.50146,2.686524 1.08692,1.380866 1.63037,3.130849 1.63037,5.25 0,2.693373 -0.96385,4.846671 -2.8916,6.459961 -1.92774,1.613289 -4.40233,2.419922 -7.42383,2.419922 z M 555.05664,1.3203125 554.76953,4.6835937 H 542.23926 C 542.10254,8.6621293 542,11.881824 541.93164,14.342773 c 1.54493,-0.984379 3.21972,-1.476562 5.02441,-1.476562 1.51759,0 2.87451,0.242673 4.0708,0.728027 1.1963,0.485354 2.17383,1.151852 2.93262,1.999512 0.7588,0.84766 1.33643,1.835444 1.73291,2.963379 0.39649,1.127935 0.59473,2.348138 0.59473,3.660644 0,3.103532 -0.99462,5.58837 -2.98389,7.45459 -1.98927,1.866221 -4.69285,2.799317 -8.11084,2.799317 -3.43166,0 -6.17967,-0.936514 -8.24414,-2.809571 l 1.33301,-2.891601 c 2.02345,1.585945 4.36815,2.378906 7.03418,2.378906 2.2422,0 4.01269,-0.635736 5.31152,-1.907227 1.29884,-1.27149 1.94824,-2.932606 1.94824,-4.983398 0,-1.83204 -0.54686,-3.318842 -1.64062,-4.460449 -1.09375,-1.141607 -2.65233,-1.712403 -4.67578,-1.712403 -2.02345,0 -3.65039,0.676751 -4.88086,2.030274 l -2.85059,-0.389649 0.79981,-16.4062495 z"
         id="35"
         inkscape:connector-curvature="0" />
      <path
         d="M 676.47168,32 676,28.636719 686.60254,16.865234 c 0.71094,-0.792972 1.39795,-1.818353 2.06103,-3.076171 0.66309,-1.257819 1.14502,-2.324215 1.4458,-3.199219 l 0.47168,-1.2919924 c 0,-1.695321 -0.47167,-3.0112258 -1.41503,-3.9477539 -0.94337,-0.9365282 -2.2832,-1.4047852 -4.01954,-1.4047852 -2.89845,0 -5.18163,0.8408119 -6.84961,2.5224609 l -1.18945,-3.0761718 c 1.88673,-1.7773527 4.64842,-2.66601566 8.28516,-2.66601566 2.78907,0 5.01073,0.75536356 6.66504,2.26611326 1.6543,1.5107498 2.48144,3.5307491 2.48144,6.0600586 -0.0547,0.1914072 -0.13672,0.4477523 -0.24609,0.769043 -0.10938,0.3212902 -0.34521,0.9467722 -0.70752,1.8764652 -0.36231,0.929692 -0.7417,1.811519 -1.13818,2.645507 -0.39649,0.833989 -0.89893,1.749995 -1.50733,2.748047 -0.6084,0.998052 -1.22705,1.832028 -1.85596,2.501953 l -8.65429,9.249024 H 694.6416 L 694.41602,32 Z m 30.74121,0.47168 c -1.83204,0 -3.4624,-0.239256 -4.89111,-0.717774 -1.42872,-0.478518 -2.47119,-1.032223 -3.12744,-1.661133 l 1.14843,-3.014648 c 1.92775,1.517586 4.2246,2.276367 6.89063,2.276367 2.05079,0 3.68114,-0.509272 4.89111,-1.527832 1.20997,-1.01856 1.81494,-2.443838 1.81494,-4.275879 0,-0.998052 -0.1538,-1.869625 -0.46142,-2.614746 -0.30762,-0.745121 -0.71777,-1.346677 -1.23047,-1.804687 -0.5127,-0.45801 -1.16894,-0.827147 -1.96875,-1.107422 -0.79981,-0.280275 -1.62011,-0.478515 -2.46094,-0.594727 -0.84082,-0.116211 -1.81494,-0.187988 -2.92236,-0.215332 -0.13672,0 -0.3418,-0.0034 -0.61524,-0.01025 -0.27343,-0.0068 -0.47851,-0.01025 -0.61523,-0.01025 v -3.055664 h 1.02539 c 0.95704,-0.01367 1.80127,-0.06494 2.53272,-0.153808 0.73144,-0.08887 1.46288,-0.249511 2.19433,-0.481934 0.73145,-0.232423 1.33642,-0.540037 1.81494,-0.922851 0.47852,-0.382815 0.86816,-0.895505 1.16895,-1.538086 0.30078,-0.642582 0.45117,-1.4013632 0.45117,-2.2763676 0,-3.2812664 -1.87987,-4.921875 -5.63965,-4.921875 -1.35352,0 -2.62499,0.1982402 -3.81445,0.5947266 -1.18946,0.3964864 -2.20801,0.9296841 -3.05567,1.5996094 l -1.14843,-2.9941406 c 2.03711,-1.5449296 4.9697,-2.31738286 8.79785,-2.31738286 1.54493,0 2.97362,0.28368856 4.28613,0.85107426 1.31251,0.5673856 2.39257,1.435541 3.24023,2.6044921 0.84766,1.1689512 1.27149,2.539543 1.27149,4.1118165 0,1.9140722 -0.47168,3.4863222 -1.41504,4.7167972 -0.94336,1.230475 -2.26952,2.112302 -3.97852,2.645507 1.91408,0.410159 3.41455,1.305658 4.50147,2.686524 1.08692,1.380866 1.63037,3.130849 1.63037,5.25 0,2.693373 -0.96386,4.846671 -2.8916,6.459961 -1.92775,1.613289 -4.40233,2.419922 -7.42383,2.419922 z"
         id="23"
         inkscape:connector-curvature="0" />
    </g>
  </g>
</svg>
