<?xml version="1.0" encoding="utf-8"?>
<!-- Generator: Adobe Illustrator 22.1.0, SVG Export Plug-In . SVG Version: 6.00 Build 0)  -->
<svg version="1.1" id="Layer_1" xmlns="http://www.w3.org/2000/svg" xmlns:xlink="http://www.w3.org/1999/xlink" x="0px" y="0px"
	 viewBox="0 0 452 941" style="enable-background:new 0 0 452 941;" xml:space="preserve">
<style type="text/css">
	.st0{fill:#4E768D;stroke:#FFFFFF;stroke-width:1.0109;}
	.st1{fill:#FFFFFF;}
	.st2{fill:none;stroke:#4E768D;stroke-width:0.72;}
	.st3{fill:none;stroke:#4E768D;stroke-width:0.5;}
	.st4{fill:#4E768D;}
	.st5{fill:none;stroke:#4E768D;}
</style>
<title>Sorting Course Efficiency Diagram 1 Copy</title>
<desc>Created with Sketch.</desc>
<g id="Page-1">
	<g id="Sorting-Course-Efficiency-Diagram-1-Copy">
		<g id="Group-6" transform="translate(35.000000, 145.000000)">
			<g id="Group-4">
				<g id="Group-3">
					<g id="Group">
						<polygon id="Fill-8-Copy-2" class="st0" points="62,61 124,61 124,0 62,0 						"/>
						<polygon id="Fill-8-Copy-3" class="st0" points="124,61 186,61 186,0 124,0 						"/>
						<polygon id="Fill-8-Copy-4" class="st0" points="186,61 248,61 248,0 186,0 						"/>
						<polygon id="Fill-8-Copy-5" class="st0" points="248.8,61 310.8,61 310.8,0 248.8,0 						"/>
						<polygon id="Fill-8-Copy" class="st0" points="0,61 62,61 62,0 0,0 						"/>
						<path id="_x36_" class="st1" d="M93.5,45.4c-1.3,0-2.5-0.2-3.5-0.7s-2-1.1-2.6-1.9C86.6,42,86.1,41,85.7,40
							c-0.4-1-0.6-2.1-0.6-3.2c0-0.5,0-1,0.1-1.4c0.1-0.4,0.1-0.8,0.2-1.2c0.1-0.4,0.2-0.8,0.5-1.3c0.2-0.5,0.4-0.9,0.6-1.2
							c0.2-0.4,0.5-0.9,1-1.5c0.5-0.7,0.9-1.2,1.2-1.7c0.4-0.5,0.9-1.2,1.6-2.2c0.6-0.7,1.4-1.7,2.4-2.9s1.9-2.2,2.6-3l1.1-1.2h2.4
							l-9.1,11c0.7-0.4,1.4-0.7,2.1-0.9c0.7-0.2,1.5-0.3,2.4-0.3c1,0,1.9,0.2,2.9,0.6s1.7,1,2.4,1.7s1.2,1.6,1.7,2.6
							c0.4,1,0.6,2.1,0.6,3.2c0,2.2-0.8,4.1-2.3,5.7C97.8,44.6,95.9,45.4,93.5,45.4z M93.4,43.5c1.8,0,3.3-0.6,4.4-1.8
							c1.1-1.2,1.7-2.7,1.7-4.3c0-1.1-0.2-2.2-0.7-3.1c-0.5-1-1.2-1.7-2.1-2.3c-0.9-0.6-2-0.9-3.2-0.9c-1,0-1.9,0.2-2.7,0.5
							c-0.8,0.3-1.4,0.8-1.9,1.4c-0.5,0.6-0.9,1.2-1.1,2s-0.4,1.6-0.4,2.4c0,0.8,0.1,1.5,0.4,2.3c0.3,0.7,0.7,1.4,1.2,2
							s1.1,1.1,1.9,1.4C91.7,43.3,92.5,43.5,93.4,43.5z"/>
						<path id="_x35_" class="st1" d="M219.4,45.4c-3.1,0-5.6-0.8-7.5-2.3l0.8-1.7c1.8,1.4,4.1,2.2,6.8,2.2c1.9,0,3.4-0.6,4.5-1.9
							c1.1-1.3,1.7-2.9,1.7-4.9c0-1.7-0.5-3.1-1.5-4.3s-2.2-1.7-3.6-1.7c-1,0-1.9,0.1-2.7,0.4c-0.7,0.3-1.6,0.8-2.5,1.5l-2.2-0.2
							l0.6-13.3H227l-0.2,1.9h-11l-0.5,9.4c1.5-1.1,3.1-1.7,5-1.7c1.6,0,3,0.3,4.2,1c1.2,0.7,2.1,1.7,2.8,2.8
							c0.6,1.2,0.9,2.5,0.9,3.9c0,2.6-0.8,4.8-2.4,6.4C224.1,44.6,222,45.4,219.4,45.4z"/>
						<path id="_x32_" class="st1" d="M23.3,45l-0.5-2.2l9-10.4c1.2-1.4,2.1-2.6,2.6-3.6c0.6-1,0.9-2,0.9-3c0-1.6-0.4-2.9-1.2-3.8
							s-1.9-1.3-3.5-1.3c-1.1,0-2.2,0.2-3.2,0.5c-1.1,0.3-1.9,0.8-2.6,1.4L24,20.9c1.4-1.4,3.7-2.1,6.7-2.1c2.2,0,3.9,0.6,5.2,1.8
							s1.9,2.8,1.9,4.8c0,1.3-0.3,2.6-1,3.9c-0.7,1.3-1.8,2.8-3.3,4.6l-7.8,8.9H38L37.9,45H23.3z"/>
						<path id="_x33_" class="st1" d="M154.8,45.4c-1.5,0-2.9-0.2-4-0.6c-1.2-0.4-2-0.8-2.5-1.3l0.8-1.8c1.6,1.2,3.4,1.8,5.5,1.8
							c1.8,0,3.3-0.5,4.4-1.4c1.1-1,1.6-2.3,1.6-4.1c0-0.9-0.1-1.7-0.4-2.4s-0.6-1.2-1.1-1.7c-0.4-0.4-1-0.8-1.7-1
							c-0.7-0.3-1.4-0.5-2.1-0.6s-1.5-0.2-2.4-0.2h-1v-1.9h0.8c0.6,0,1.2-0.1,1.8-0.1c0.5-0.1,1.1-0.2,1.7-0.3s1.1-0.3,1.5-0.6
							c0.4-0.2,0.8-0.5,1.2-0.9c0.4-0.4,0.6-0.8,0.8-1.3s0.3-1.1,0.3-1.8c0-3-1.7-4.5-5-4.5c-1.2,0-2.2,0.2-3.2,0.5
							s-1.8,0.8-2.5,1.4l-0.8-1.8c1.5-1.3,3.8-1.9,7.1-1.9c0.8,0,1.6,0.1,2.4,0.4s1.5,0.6,2.1,1.1c0.6,0.5,1.1,1.1,1.5,1.9
							c0.4,0.8,0.6,1.7,0.6,2.7c0,3.3-1.5,5.3-4.5,6.3c3.5,0.9,5.3,3.2,5.3,6.8c0,2.2-0.7,4-2.2,5.4S157.2,45.4,154.8,45.4z"/>
						<path id="_x31_" class="st1" d="M281.1,44.7V21.3c-0.4,0.3-1,0.6-1.8,1s-1.6,0.7-2.4,1v-1.9c2.4-1.1,3.9-1.9,4.5-2.4h1.8v25.7
							H281.1z"/>
					</g>
					<path id="n-1-comparisons" class="st1" d="M98,111.2v-7.5h0.7l0.1,1.2c0.3-0.4,0.6-0.7,1.1-0.9c0.5-0.2,0.9-0.3,1.5-0.3
						c0.9,0,1.5,0.2,1.9,0.7s0.6,1.2,0.6,2.3v4.6h-0.9v-5c0-0.7-0.2-1.1-0.4-1.4c-0.3-0.3-0.7-0.4-1.3-0.4c-0.7,0-1.2,0.2-1.7,0.5
						s-0.7,0.8-0.8,1.3c0,0.2,0,0.4,0,0.7v4.4H98z M106.8,107.5v-0.8h3.3v0.8H106.8z M113.9,111.2v-9.3c-0.1,0.1-0.4,0.2-0.7,0.4
						s-0.6,0.3-0.9,0.4V102c1-0.4,1.6-0.8,1.8-1h0.7v10.2H113.9z M126.1,111.3c-0.7,0-1.4-0.2-1.9-0.5s-0.9-0.8-1.2-1.4
						s-0.4-1.2-0.4-1.9c0-0.5,0.1-1,0.2-1.5s0.4-0.9,0.7-1.3c0.3-0.4,0.7-0.7,1.1-0.9s0.9-0.3,1.5-0.3c0.4,0,0.7,0,1.1,0.1
						s0.6,0.2,0.8,0.3l-0.3,0.6c-0.5-0.3-1-0.4-1.7-0.4c-0.8,0-1.4,0.3-1.9,0.9s-0.7,1.4-0.7,2.3c0,0.9,0.2,1.7,0.7,2.3
						s1.1,0.9,1.9,0.9c0.5,0,1.1-0.1,1.8-0.4l0.1,0.6c-0.2,0.2-0.5,0.3-0.8,0.4S126.4,111.3,126.1,111.3z M134,110.7
						c0.5,0,1-0.1,1.4-0.4s0.6-0.7,0.8-1.1s0.3-1,0.3-1.6c0-1-0.2-1.7-0.6-2.3s-1-0.9-1.9-0.9c-0.5,0-1,0.1-1.4,0.4
						s-0.7,0.7-0.8,1.2s-0.3,1-0.3,1.6c0,0.9,0.2,1.7,0.7,2.3S133.1,110.7,134,110.7z M133.9,111.3c-0.7,0-1.3-0.2-1.8-0.5
						s-0.9-0.8-1.2-1.4s-0.4-1.2-0.4-2c0-0.6,0.1-1.1,0.2-1.5s0.4-0.9,0.7-1.2s0.7-0.6,1.1-0.8s0.9-0.3,1.4-0.3
						c0.7,0,1.3,0.2,1.8,0.5c0.5,0.3,0.9,0.8,1.2,1.4s0.4,1.2,0.4,2c0,0.7-0.1,1.4-0.4,2s-0.7,1-1.2,1.4S134.6,111.3,133.9,111.3z
						 M140.3,111.2c0-4.5,0-7,0-7.5h0.7l0.1,1.1c0.2-0.4,0.5-0.7,1-0.9s0.9-0.4,1.4-0.4c1.2,0,2,0.5,2.3,1.4
						c0.5-0.9,1.4-1.4,2.5-1.4c0.8,0,1.4,0.2,1.8,0.7s0.6,1.2,0.6,2.1v4.8h-0.8v-3.7c0-0.3,0-0.6,0-0.9s0-0.5-0.1-0.8
						s-0.1-0.5-0.2-0.7s-0.2-0.3-0.3-0.5s-0.3-0.3-0.4-0.3s-0.4-0.1-0.6-0.1c-0.6,0-1.1,0.2-1.5,0.5c-0.4,0.3-0.7,0.8-0.8,1.4
						c0,0.5,0,0.8,0,1.1v3.9h-0.8v-3.8c0-0.4,0-0.7,0-1c0-0.3-0.1-0.6-0.1-0.8s-0.2-0.5-0.3-0.7s-0.3-0.3-0.5-0.4s-0.4-0.2-0.7-0.2
						c-0.6,0-1.1,0.2-1.6,0.5s-0.7,0.8-0.8,1.4c0,0.2,0,0.5,0,0.8v4.3H140.3z M153.9,114.5v-10.8h0.8l0.1,1.1
						c0.4-0.4,0.7-0.7,1.1-0.9s0.8-0.3,1.3-0.3c1.1,0,1.9,0.4,2.4,1.1s0.8,1.7,0.8,2.9c0,1.1-0.3,2-0.8,2.8s-1.3,1.1-2.3,1.1
						c-0.5,0-1-0.1-1.4-0.3s-0.8-0.5-1-0.9c0,0.6,0,1.1,0,1.7v2.7L153.9,114.5z M157.1,110.6c0.4,0,0.7-0.1,1-0.3s0.5-0.4,0.7-0.7
						s0.3-0.6,0.4-1s0.1-0.7,0.1-1.1c0-0.4,0-0.8-0.1-1.1s-0.2-0.7-0.4-1s-0.4-0.6-0.7-0.7s-0.7-0.3-1-0.3c-0.4,0-0.8,0.1-1.1,0.2
						s-0.6,0.4-0.7,0.7s-0.3,0.6-0.4,1s-0.1,0.8-0.1,1.2c0,0.5,0,1,0.1,1.4s0.2,0.7,0.4,1s0.4,0.5,0.7,0.7S156.7,110.6,157.1,110.6z
						 M165.2,111.3c-0.7,0-1.3-0.2-1.7-0.5s-0.6-0.9-0.6-1.5c0-0.4,0.1-0.7,0.3-1s0.4-0.5,0.7-0.7s0.7-0.3,1.1-0.4s0.9-0.2,1.4-0.2
						c0.6,0,1-0.1,1.3-0.1V106c0-0.6-0.1-1-0.4-1.3s-0.7-0.4-1.3-0.4c-0.8,0-1.5,0.2-2.2,0.6c0,0-0.1-0.1-0.1-0.3s-0.1-0.3-0.1-0.4
						c0.3-0.2,0.7-0.3,1.1-0.5s0.9-0.2,1.3-0.2c0.9,0,1.5,0.2,1.9,0.6s0.6,1.1,0.6,2v5h-0.7c0-0.1-0.1-0.3-0.1-0.6s-0.1-0.5-0.1-0.5
						C167.1,110.9,166.3,111.3,165.2,111.3z M165.2,110.7c0.6,0,1.1-0.2,1.6-0.5s0.8-0.8,0.9-1.4v-1.3c-0.7,0.1-1,0.1-1,0.1
						c-1.1,0.1-1.9,0.3-2.3,0.5s-0.6,0.7-0.6,1.2c0,0.5,0.1,0.8,0.4,1S164.8,110.7,165.2,110.7z M171.9,111.2c0-4.4,0-6.9,0-7.5h0.7
						l0.1,1.5c0.3-0.4,0.6-0.8,1-1.1s0.8-0.4,1.3-0.4c0.2,0,0.4,0,0.6,0l-0.1,0.7c-0.2,0-0.3,0-0.5,0c-0.6,0-1.2,0.2-1.6,0.7
						s-0.6,1.1-0.6,1.8v4.3H171.9z M178.2,111.2v-7.5h0.9v7.5H178.2z M178.2,102.1V101h0.8v1.1H178.2z M184.6,111.3
						c-0.5,0-0.9-0.1-1.4-0.2s-0.8-0.3-1-0.4l0.1-0.7c0.8,0.4,1.5,0.6,2.2,0.6c1.2,0,1.9-0.5,1.9-1.4c0-0.4-0.1-0.7-0.4-0.9
						s-0.7-0.4-1.5-0.7c-0.4-0.1-0.6-0.2-0.6-0.2c-1.2-0.4-1.8-1-1.8-1.9c0-0.5,0.2-1,0.7-1.4s1.1-0.6,1.9-0.6s1.5,0.2,2.2,0.5
						l-0.3,0.6c-0.7-0.3-1.4-0.4-2-0.4c-0.5,0-0.9,0.1-1.2,0.4s-0.5,0.6-0.5,1c0,0.3,0.1,0.6,0.3,0.8s0.6,0.4,1.2,0.5
						c0.1,0,0.2,0.1,0.4,0.1s0.3,0.1,0.3,0.1c0.8,0.2,1.3,0.5,1.7,0.9s0.5,0.8,0.5,1.4c0,0.7-0.3,1.2-0.7,1.5
						S185.4,111.3,184.6,111.3z M193.3,110.7c0.5,0,1-0.1,1.4-0.4s0.6-0.7,0.8-1.1s0.3-1,0.3-1.6c0-1-0.2-1.7-0.6-2.3
						s-1-0.9-1.9-0.9c-0.5,0-1,0.1-1.4,0.4s-0.7,0.7-0.8,1.2s-0.3,1-0.3,1.6c0,0.9,0.2,1.7,0.7,2.3S192.5,110.7,193.3,110.7z
						 M193.3,111.3c-0.7,0-1.3-0.2-1.8-0.5s-0.9-0.8-1.2-1.4s-0.4-1.2-0.4-2c0-0.6,0.1-1.1,0.2-1.5s0.4-0.9,0.7-1.2s0.7-0.6,1.1-0.8
						s0.9-0.3,1.4-0.3c0.7,0,1.3,0.2,1.8,0.5c0.5,0.3,0.9,0.8,1.2,1.4s0.4,1.2,0.4,2c0,0.7-0.1,1.4-0.4,2s-0.7,1-1.2,1.4
						S194,111.3,193.3,111.3z M199.7,111.2v-7.5h0.7l0.1,1.2c0.3-0.4,0.6-0.7,1.1-0.9c0.5-0.2,0.9-0.3,1.5-0.3
						c0.9,0,1.5,0.2,1.9,0.7s0.6,1.2,0.6,2.3v4.6h-0.9v-5c0-0.7-0.2-1.1-0.4-1.4c-0.3-0.3-0.7-0.4-1.3-0.4c-0.7,0-1.2,0.2-1.7,0.5
						s-0.7,0.8-0.8,1.3c0,0.2,0,0.4,0,0.7v4.4H199.7z M211,111.3c-0.5,0-0.9-0.1-1.4-0.2s-0.8-0.3-1-0.4l0.1-0.7
						c0.8,0.4,1.5,0.6,2.2,0.6c1.2,0,1.9-0.5,1.9-1.4c0-0.4-0.1-0.7-0.4-0.9s-0.7-0.4-1.5-0.7c-0.4-0.1-0.6-0.2-0.6-0.2
						c-1.2-0.4-1.8-1-1.8-1.9c0-0.5,0.2-1,0.7-1.4s1.1-0.6,1.9-0.6s1.5,0.2,2.2,0.5l-0.3,0.6c-0.7-0.3-1.4-0.4-2-0.4
						c-0.5,0-0.9,0.1-1.2,0.4s-0.5,0.6-0.5,1c0,0.3,0.1,0.6,0.3,0.8s0.6,0.4,1.2,0.5c0.1,0,0.2,0.1,0.4,0.1s0.3,0.1,0.3,0.1
						c0.8,0.2,1.3,0.5,1.7,0.9s0.5,0.8,0.5,1.4c0,0.7-0.3,1.2-0.7,1.5S211.8,111.3,211,111.3z"/>
					<g id="Group-2" transform="translate(43.000000, 66.000000)">
						<polyline id="Stroke-28" class="st2" points="39,1 39,15 5,15 5,1 						"/>
						<path id="Stroke-18" class="st3" d="M39,0.4l4.6,3.5c0.1,0.1,0.2,0.1,0.3,0c0.1-0.1,0.1-0.2,0-0.3l-4.7-3.6
							C39.1,0,39,0,38.9,0.1l-4.8,3.6c-0.1,0.1-0.1,0.2,0,0.3c0.1,0.1,0.2,0.1,0.3,0L39,0.4z"/>
						<path id="Stroke-18-Copy" class="st3" d="M5,0.9l4.1,3.5c0.1,0.1,0.2,0.1,0.3,0c0.1-0.1,0.1-0.2,0-0.3L5.2,0.6
							C5.1,0.5,5,0.5,4.9,0.6L0.6,4.1c-0.1,0.1-0.1,0.2,0,0.3c0.1,0.1,0.2,0.1,0.3,0L5,0.9z"/>
					</g>
					<g id="Group-2-Copy" transform="translate(105.000000, 66.000000)">
						<polyline id="Stroke-28_1_" class="st2" points="39,1 39,15 5,15 5,1 						"/>
						<path id="Stroke-18_1_" class="st3" d="M39,0.4l4.6,3.5c0.1,0.1,0.2,0.1,0.3,0c0.1-0.1,0.1-0.2,0-0.3l-4.7-3.6
							C39.1,0,39,0,38.9,0.1l-4.8,3.6c-0.1,0.1-0.1,0.2,0,0.3c0.1,0.1,0.2,0.1,0.3,0L39,0.4z"/>
						<path id="Stroke-18-Copy_1_" class="st3" d="M5,0.9l4.1,3.5c0.1,0.1,0.2,0.1,0.3,0c0.1-0.1,0.1-0.2,0-0.3L5.2,0.6
							C5.1,0.5,5,0.5,4.9,0.6L0.6,4.1c-0.1,0.1-0.1,0.2,0,0.3c0.1,0.1,0.2,0.1,0.3,0L5,0.9z"/>
					</g>
					<g id="Group-2-Copy-2" transform="translate(167.000000, 66.000000)">
						<polyline id="Stroke-28_2_" class="st2" points="39,1 39,15 5,15 5,1 						"/>
						<path id="Stroke-18_2_" class="st3" d="M39,0.4l4.6,3.5c0.1,0.1,0.2,0.1,0.3,0c0.1-0.1,0.1-0.2,0-0.3l-4.7-3.6
							C39.1,0,39,0,38.9,0.1l-4.8,3.6c-0.1,0.1-0.1,0.2,0,0.3c0.1,0.1,0.2,0.1,0.3,0L39,0.4z"/>
						<path id="Stroke-18-Copy_2_" class="st3" d="M5,0.9l4.1,3.5c0.1,0.1,0.2,0.1,0.3,0c0.1-0.1,0.1-0.2,0-0.3L5.2,0.6
							C5.1,0.5,5,0.5,4.9,0.6L0.6,4.1c-0.1,0.1-0.1,0.2,0,0.3c0.1,0.1,0.2,0.1,0.3,0L5,0.9z"/>
					</g>
					<g id="Group-2-Copy-3" transform="translate(229.000000, 66.000000)">
						<polyline id="Stroke-28_3_" class="st2" points="39,1 39,15 5,15 5,1 						"/>
						<path id="Stroke-18_3_" class="st3" d="M39,0.4l4.6,3.5c0.1,0.1,0.2,0.1,0.3,0c0.1-0.1,0.1-0.2,0-0.3l-4.7-3.6
							C39.1,0,39,0,38.9,0.1l-4.8,3.6c-0.1,0.1-0.1,0.2,0,0.3c0.1,0.1,0.2,0.1,0.3,0L39,0.4z"/>
						<path id="Stroke-18-Copy_3_" class="st3" d="M5,0.9l4.1,3.5c0.1,0.1,0.2,0.1,0.3,0c0.1-0.1,0.1-0.2,0-0.3L5.2,0.6
							C5.1,0.5,5,0.5,4.9,0.6L0.6,4.1c-0.1,0.1-0.1,0.2,0,0.3c0.1,0.1,0.2,0.1,0.3,0L5,0.9z"/>
					</g>
				</g>
				<g id="Group-3-Copy" transform="translate(0.000000, 170.000000)">
					<g id="Group_1_">
						<polygon id="Fill-8-Copy-2_1_" class="st0" points="62,61 124,61 124,0 62,0 						"/>
						<polygon id="Fill-8-Copy-3_1_" class="st0" points="124,61 186,61 186,0 124,0 						"/>
						<polygon id="Fill-8-Copy-4_1_" class="st0" points="186,61 248,61 248,0 186,0 						"/>
						<polygon id="Fill-8-Copy-5_1_" class="st0" points="248.8,61 310.8,61 310.8,0 248.8,0 						"/>
						<polygon id="Fill-8-Copy_1_" class="st0" points="0,61 62,61 62,0 0,0 						"/>
						<path id="_x33__1_" class="st1" d="M92.2,45.4c-1.5,0-2.9-0.2-4-0.6c-1.2-0.4-2-0.8-2.5-1.3l0.8-1.8c1.6,1.2,3.4,1.8,5.5,1.8
							c1.8,0,3.3-0.5,4.4-1.4c1.1-1,1.6-2.3,1.6-4.1c0-0.9-0.1-1.7-0.4-2.4c-0.3-0.7-0.6-1.2-1.1-1.7c-0.4-0.4-1-0.8-1.7-1
							s-1.4-0.5-2.1-0.6s-1.5-0.2-2.4-0.2h-1v-1.9h0.8c0.6,0,1.2-0.1,1.8-0.1c0.5-0.1,1.1-0.2,1.7-0.3s1.1-0.3,1.5-0.6
							c0.4-0.2,0.8-0.5,1.2-0.9c0.4-0.4,0.6-0.8,0.8-1.3c0.2-0.5,0.3-1.1,0.3-1.8c0-3-1.7-4.5-5-4.5c-1.2,0-2.2,0.2-3.2,0.5
							s-1.8,0.8-2.5,1.4l-0.8-1.8c1.5-1.3,3.8-1.9,7.1-1.9c0.8,0,1.6,0.1,2.4,0.4c0.8,0.2,1.5,0.6,2.1,1.1c0.6,0.5,1.1,1.1,1.5,1.9
							c0.4,0.8,0.6,1.7,0.6,2.7c0,3.3-1.5,5.3-4.5,6.3c3.5,0.9,5.3,3.2,5.3,6.8c0,2.2-0.7,4-2.2,5.4S94.6,45.4,92.2,45.4z"/>
						<path id="_x31_-copy" class="st1" d="M218.1,44.7V21.3c-0.4,0.3-1,0.6-1.8,1c-0.8,0.4-1.6,0.7-2.4,1v-1.9
							c2.4-1.1,3.9-1.9,4.5-2.4h1.8v25.7H218.1z"/>
						<path id="_x32__1_" class="st1" d="M23.3,45l-0.5-2.2l9-10.4c1.2-1.4,2.1-2.6,2.6-3.6c0.6-1,0.9-2,0.9-3
							c0-1.6-0.4-2.9-1.2-3.8s-1.9-1.3-3.5-1.3c-1.1,0-2.2,0.2-3.2,0.5c-1.1,0.3-1.9,0.8-2.6,1.4L24,20.9c1.4-1.4,3.7-2.1,6.7-2.1
							c2.2,0,3.9,0.6,5.2,1.8s1.9,2.8,1.9,4.8c0,1.3-0.3,2.6-1,3.9c-0.7,1.3-1.8,2.8-3.3,4.6l-7.8,8.9H38L37.9,45H23.3z"/>
						<path id="_x35__1_" class="st1" d="M155.3,45.4c-3.1,0-5.6-0.8-7.5-2.3l0.8-1.7c1.8,1.4,4.1,2.2,6.8,2.2
							c1.9,0,3.4-0.6,4.5-1.9c1.1-1.3,1.7-2.9,1.7-4.9c0-1.7-0.5-3.1-1.5-4.3s-2.2-1.7-3.6-1.7c-1,0-1.9,0.1-2.7,0.4
							c-0.7,0.3-1.6,0.8-2.5,1.5l-2.2-0.2l0.6-13.3h13.1l-0.2,1.9h-11l-0.5,9.4c1.5-1.1,3.1-1.7,5-1.7c1.6,0,3,0.3,4.2,1
							c1.2,0.7,2.1,1.7,2.8,2.8c0.6,1.2,0.9,2.5,0.9,3.9c0,2.6-0.8,4.8-2.4,6.4C160.1,44.6,158,45.4,155.3,45.4z"/>
						<path id="_x36__1_" class="st1" d="M281.6,45.4c-1.3,0-2.5-0.2-3.5-0.7s-2-1.1-2.6-1.9s-1.2-1.7-1.6-2.7s-0.6-2.1-0.6-3.2
							c0-0.5,0-1,0.1-1.4c0.1-0.4,0.1-0.8,0.2-1.2c0.1-0.4,0.2-0.8,0.5-1.3c0.2-0.5,0.4-0.9,0.6-1.2c0.2-0.4,0.5-0.9,1-1.5
							s0.9-1.2,1.2-1.7c0.4-0.5,0.9-1.2,1.6-2.2c0.6-0.7,1.4-1.7,2.4-2.9s1.9-2.2,2.6-3l1.1-1.2h2.4l-9.1,11
							c0.7-0.4,1.4-0.7,2.1-0.9c0.7-0.2,1.5-0.3,2.4-0.3c1,0,1.9,0.2,2.9,0.6c0.9,0.4,1.7,1,2.4,1.7c0.7,0.7,1.2,1.6,1.7,2.6
							c0.4,1,0.6,2.1,0.6,3.2c0,2.2-0.8,4.1-2.3,5.7C286,44.6,284,45.4,281.6,45.4z M281.6,43.5c1.8,0,3.3-0.6,4.4-1.8
							c1.1-1.2,1.7-2.7,1.7-4.3c0-1.1-0.2-2.2-0.7-3.1s-1.2-1.7-2.1-2.3c-0.9-0.6-2-0.9-3.2-0.9c-1,0-1.9,0.2-2.7,0.5
							c-0.8,0.3-1.4,0.8-1.9,1.4c-0.5,0.6-0.9,1.2-1.1,2c-0.3,0.8-0.4,1.6-0.4,2.4c0,0.8,0.1,1.5,0.4,2.3s0.7,1.4,1.2,2
							s1.1,1.1,1.9,1.4C279.8,43.3,280.7,43.5,281.6,43.5z"/>
					</g>
					<path id="n-1-comparisons_1_" class="st1" d="M98,111.2v-7.5h0.7l0.1,1.2c0.3-0.4,0.6-0.7,1.1-0.9c0.5-0.2,0.9-0.3,1.5-0.3
						c0.9,0,1.5,0.2,1.9,0.7s0.6,1.2,0.6,2.3v4.6h-0.9v-5c0-0.7-0.2-1.1-0.4-1.4c-0.3-0.3-0.7-0.4-1.3-0.4c-0.7,0-1.2,0.2-1.7,0.5
						s-0.7,0.8-0.8,1.3c0,0.2,0,0.4,0,0.7v4.4H98z M106.8,107.5v-0.8h3.3v0.8H106.8z M113.9,111.2v-9.3c-0.1,0.1-0.4,0.2-0.7,0.4
						s-0.6,0.3-0.9,0.4V102c1-0.4,1.6-0.8,1.8-1h0.7v10.2H113.9z M126.1,111.3c-0.7,0-1.4-0.2-1.9-0.5s-0.9-0.8-1.2-1.4
						s-0.4-1.2-0.4-1.9c0-0.5,0.1-1,0.2-1.5s0.4-0.9,0.7-1.3c0.3-0.4,0.7-0.7,1.1-0.9s0.9-0.3,1.5-0.3c0.4,0,0.7,0,1.1,0.1
						s0.6,0.2,0.8,0.3l-0.3,0.6c-0.5-0.3-1-0.4-1.7-0.4c-0.8,0-1.4,0.3-1.9,0.9s-0.7,1.4-0.7,2.3c0,0.9,0.2,1.7,0.7,2.3
						s1.1,0.9,1.9,0.9c0.5,0,1.1-0.1,1.8-0.4l0.1,0.6c-0.2,0.2-0.5,0.3-0.8,0.4S126.4,111.3,126.1,111.3z M134,110.7
						c0.5,0,1-0.1,1.4-0.4s0.6-0.7,0.8-1.1s0.3-1,0.3-1.6c0-1-0.2-1.7-0.6-2.3s-1-0.9-1.9-0.9c-0.5,0-1,0.1-1.4,0.4
						s-0.7,0.7-0.8,1.2s-0.3,1-0.3,1.6c0,0.9,0.2,1.7,0.7,2.3S133.1,110.7,134,110.7z M133.9,111.3c-0.7,0-1.3-0.2-1.8-0.5
						s-0.9-0.8-1.2-1.4s-0.4-1.2-0.4-2c0-0.6,0.1-1.1,0.2-1.5s0.4-0.9,0.7-1.2s0.7-0.6,1.1-0.8s0.9-0.3,1.4-0.3
						c0.7,0,1.3,0.2,1.8,0.5c0.5,0.3,0.9,0.8,1.2,1.4s0.4,1.2,0.4,2c0,0.7-0.1,1.4-0.4,2s-0.7,1-1.2,1.4S134.6,111.3,133.9,111.3z
						 M140.3,111.2c0-4.5,0-7,0-7.5h0.7l0.1,1.1c0.2-0.4,0.5-0.7,1-0.9s0.9-0.4,1.4-0.4c1.2,0,2,0.5,2.3,1.4
						c0.5-0.9,1.4-1.4,2.5-1.4c0.8,0,1.4,0.2,1.8,0.7s0.6,1.2,0.6,2.1v4.8h-0.8v-3.7c0-0.3,0-0.6,0-0.9s0-0.5-0.1-0.8
						s-0.1-0.5-0.2-0.7s-0.2-0.3-0.3-0.5s-0.3-0.3-0.4-0.3s-0.4-0.1-0.6-0.1c-0.6,0-1.1,0.2-1.5,0.5c-0.4,0.3-0.7,0.8-0.8,1.4
						c0,0.5,0,0.8,0,1.1v3.9h-0.8v-3.8c0-0.4,0-0.7,0-1c0-0.3-0.1-0.6-0.1-0.8s-0.2-0.5-0.3-0.7s-0.3-0.3-0.5-0.4s-0.4-0.2-0.7-0.2
						c-0.6,0-1.1,0.2-1.6,0.5s-0.7,0.8-0.8,1.4c0,0.2,0,0.5,0,0.8v4.3H140.3z M153.9,114.5v-10.8h0.8l0.1,1.1
						c0.4-0.4,0.7-0.7,1.1-0.9s0.8-0.3,1.3-0.3c1.1,0,1.9,0.4,2.4,1.1s0.8,1.7,0.8,2.9c0,1.1-0.3,2-0.8,2.8s-1.3,1.1-2.3,1.1
						c-0.5,0-1-0.1-1.4-0.3s-0.8-0.5-1-0.9c0,0.6,0,1.1,0,1.7v2.7L153.9,114.5z M157.1,110.6c0.4,0,0.7-0.1,1-0.3s0.5-0.4,0.7-0.7
						s0.3-0.6,0.4-1s0.1-0.7,0.1-1.1c0-0.4,0-0.8-0.1-1.1s-0.2-0.7-0.4-1s-0.4-0.6-0.7-0.7s-0.7-0.3-1-0.3c-0.4,0-0.8,0.1-1.1,0.2
						s-0.6,0.4-0.7,0.7s-0.3,0.6-0.4,1s-0.1,0.8-0.1,1.2c0,0.5,0,1,0.1,1.4s0.2,0.7,0.4,1s0.4,0.5,0.7,0.7S156.7,110.6,157.1,110.6z
						 M165.2,111.3c-0.7,0-1.3-0.2-1.7-0.5s-0.6-0.9-0.6-1.5c0-0.4,0.1-0.7,0.3-1s0.4-0.5,0.7-0.7s0.7-0.3,1.1-0.4s0.9-0.2,1.4-0.2
						c0.6,0,1-0.1,1.3-0.1V106c0-0.6-0.1-1-0.4-1.3s-0.7-0.4-1.3-0.4c-0.8,0-1.5,0.2-2.2,0.6c0,0-0.1-0.1-0.1-0.3s-0.1-0.3-0.1-0.4
						c0.3-0.2,0.7-0.3,1.1-0.5s0.9-0.2,1.3-0.2c0.9,0,1.5,0.2,1.9,0.6s0.6,1.1,0.6,2v5h-0.7c0-0.1-0.1-0.3-0.1-0.6s-0.1-0.5-0.1-0.5
						C167.1,110.9,166.3,111.3,165.2,111.3z M165.2,110.7c0.6,0,1.1-0.2,1.6-0.5s0.8-0.8,0.9-1.4v-1.3c-0.7,0.1-1,0.1-1,0.1
						c-1.1,0.1-1.9,0.3-2.3,0.5s-0.6,0.7-0.6,1.2c0,0.5,0.1,0.8,0.4,1S164.8,110.7,165.2,110.7z M171.9,111.2c0-4.4,0-6.9,0-7.5h0.7
						l0.1,1.5c0.3-0.4,0.6-0.8,1-1.1s0.8-0.4,1.3-0.4c0.2,0,0.4,0,0.6,0l-0.1,0.7c-0.2,0-0.3,0-0.5,0c-0.6,0-1.2,0.2-1.6,0.7
						s-0.6,1.1-0.6,1.8v4.3H171.9z M178.2,111.2v-7.5h0.9v7.5H178.2z M178.2,102.1V101h0.8v1.1H178.2z M184.6,111.3
						c-0.5,0-0.9-0.1-1.4-0.2s-0.8-0.3-1-0.4l0.1-0.7c0.8,0.4,1.5,0.6,2.2,0.6c1.2,0,1.9-0.5,1.9-1.4c0-0.4-0.1-0.7-0.4-0.9
						s-0.7-0.4-1.5-0.7c-0.4-0.1-0.6-0.2-0.6-0.2c-1.2-0.4-1.8-1-1.8-1.9c0-0.5,0.2-1,0.7-1.4s1.1-0.6,1.9-0.6s1.5,0.2,2.2,0.5
						l-0.3,0.6c-0.7-0.3-1.4-0.4-2-0.4c-0.5,0-0.9,0.1-1.2,0.4s-0.5,0.6-0.5,1c0,0.3,0.1,0.6,0.3,0.8s0.6,0.4,1.2,0.5
						c0.1,0,0.2,0.1,0.4,0.1s0.3,0.1,0.3,0.1c0.8,0.2,1.3,0.5,1.7,0.9s0.5,0.8,0.5,1.4c0,0.7-0.3,1.2-0.7,1.5
						S185.4,111.3,184.6,111.3z M193.3,110.7c0.5,0,1-0.1,1.4-0.4s0.6-0.7,0.8-1.1s0.3-1,0.3-1.6c0-1-0.2-1.7-0.6-2.3
						s-1-0.9-1.9-0.9c-0.5,0-1,0.1-1.4,0.4s-0.7,0.7-0.8,1.2s-0.3,1-0.3,1.6c0,0.9,0.2,1.7,0.7,2.3S192.5,110.7,193.3,110.7z
						 M193.3,111.3c-0.7,0-1.3-0.2-1.8-0.5s-0.9-0.8-1.2-1.4s-0.4-1.2-0.4-2c0-0.6,0.1-1.1,0.2-1.5s0.4-0.9,0.7-1.2s0.7-0.6,1.1-0.8
						s0.9-0.3,1.4-0.3c0.7,0,1.3,0.2,1.8,0.5c0.5,0.3,0.9,0.8,1.2,1.4s0.4,1.2,0.4,2c0,0.7-0.1,1.4-0.4,2s-0.7,1-1.2,1.4
						S194,111.3,193.3,111.3z M199.7,111.2v-7.5h0.7l0.1,1.2c0.3-0.4,0.6-0.7,1.1-0.9c0.5-0.2,0.9-0.3,1.5-0.3
						c0.9,0,1.5,0.2,1.9,0.7s0.6,1.2,0.6,2.3v4.6h-0.9v-5c0-0.7-0.2-1.1-0.4-1.4c-0.3-0.3-0.7-0.4-1.3-0.4c-0.7,0-1.2,0.2-1.7,0.5
						s-0.7,0.8-0.8,1.3c0,0.2,0,0.4,0,0.7v4.4H199.7z M211,111.3c-0.5,0-0.9-0.1-1.4-0.2s-0.8-0.3-1-0.4l0.1-0.7
						c0.8,0.4,1.5,0.6,2.2,0.6c1.2,0,1.9-0.5,1.9-1.4c0-0.4-0.1-0.7-0.4-0.9s-0.7-0.4-1.5-0.7c-0.4-0.1-0.6-0.2-0.6-0.2
						c-1.2-0.4-1.8-1-1.8-1.9c0-0.5,0.2-1,0.7-1.4s1.1-0.6,1.9-0.6s1.5,0.2,2.2,0.5l-0.3,0.6c-0.7-0.3-1.4-0.4-2-0.4
						c-0.5,0-0.9,0.1-1.2,0.4s-0.5,0.6-0.5,1c0,0.3,0.1,0.6,0.3,0.8s0.6,0.4,1.2,0.5c0.1,0,0.2,0.1,0.4,0.1s0.3,0.1,0.3,0.1
						c0.8,0.2,1.3,0.5,1.7,0.9s0.5,0.8,0.5,1.4c0,0.7-0.3,1.2-0.7,1.5S211.8,111.3,211,111.3z"/>
					<path id="n-times" class="st1" d="M347,143v-7.5h0.7l0.1,1.2c0.3-0.4,0.6-0.7,1.1-0.9s0.9-0.3,1.5-0.3c0.9,0,1.5,0.2,1.9,0.7
						s0.6,1.2,0.6,2.3v4.6h-0.9v-5c0-0.7-0.2-1.1-0.4-1.4s-0.7-0.4-1.3-0.4c-0.7,0-1.2,0.2-1.7,0.5s-0.7,0.8-0.8,1.3
						c0,0.2,0,0.4,0,0.7v4.4H347z M362.8,143.2c-0.6,0-1.1-0.1-1.4-0.4s-0.4-0.7-0.4-1.4v-5.2h-1.1l0.1-0.5l1-0.1l0.2-1.7l0.6,0v1.7
						h2.2v0.6h-2.2v5c0,0.5,0.1,0.9,0.3,1.1s0.5,0.3,0.9,0.3c0.3,0,0.6-0.1,1.1-0.2l0,0.7C363.5,143.1,363.1,143.2,362.8,143.2z
						 M366.7,143v-7.5h0.9v7.5H366.7z M366.7,134v-1.1h0.8v1.1H366.7z M371,143c0-4.5,0-7,0-7.5h0.7l0.1,1.1c0.2-0.4,0.5-0.7,1-0.9
						s0.9-0.4,1.4-0.4c1.2,0,2,0.5,2.3,1.4c0.5-0.9,1.4-1.4,2.5-1.4c0.8,0,1.4,0.2,1.8,0.7s0.6,1.2,0.6,2.1v4.8h-0.8v-3.7
						c0-0.3,0-0.6,0-0.9s0-0.5-0.1-0.8s-0.1-0.5-0.2-0.7s-0.2-0.3-0.3-0.5s-0.3-0.3-0.4-0.3s-0.4-0.1-0.6-0.1
						c-0.6,0-1.1,0.2-1.5,0.5s-0.7,0.8-0.8,1.4c0,0.5,0,0.8,0,1.1v3.9h-0.8v-3.8c0-0.4,0-0.7,0-1s-0.1-0.6-0.1-0.8s-0.2-0.5-0.3-0.7
						s-0.3-0.3-0.5-0.4s-0.4-0.2-0.7-0.2c-0.6,0-1.1,0.2-1.6,0.5s-0.7,0.8-0.8,1.4c0,0.2,0,0.5,0,0.8v4.3H371z M387.6,143.2
						c-1,0-1.9-0.3-2.5-1s-0.9-1.6-0.9-2.8c0-1.1,0.3-2.1,0.9-2.8s1.4-1.1,2.3-1.1c0.9,0,1.6,0.3,2.1,0.9s0.8,1.5,0.8,2.5
						c0,0,0,0.1,0,0.2s0,0.2,0,0.3h-5.2c0,1,0.2,1.7,0.7,2.3s1.1,0.8,1.8,0.8c0.5,0,0.9-0.1,1.3-0.2s0.7-0.3,1.1-0.5l0.1,0.6
						C389.5,142.9,388.6,143.2,387.6,143.2z M385.2,138.7h4.3c0-0.8-0.2-1.5-0.5-1.9s-0.9-0.7-1.5-0.7c-0.6,0-1.2,0.2-1.5,0.7
						S385.3,137.9,385.2,138.7z M395.6,143.2c-0.5,0-0.9-0.1-1.4-0.2s-0.8-0.3-1-0.4l0.1-0.7c0.8,0.4,1.5,0.6,2.2,0.6
						c1.2,0,1.9-0.5,1.9-1.4c0-0.4-0.1-0.7-0.4-0.9s-0.7-0.4-1.5-0.7c-0.4-0.1-0.6-0.2-0.6-0.2c-1.2-0.4-1.8-1-1.8-1.9
						c0-0.5,0.2-1,0.7-1.4s1.1-0.6,1.9-0.6s1.5,0.2,2.2,0.5l-0.3,0.6c-0.7-0.3-1.4-0.4-2-0.4c-0.5,0-0.9,0.1-1.2,0.4s-0.5,0.6-0.5,1
						c0,0.3,0.1,0.6,0.3,0.8s0.6,0.4,1.2,0.5c0.1,0,0.2,0.1,0.4,0.1s0.3,0.1,0.3,0.1c0.8,0.2,1.3,0.5,1.7,0.9s0.5,0.8,0.5,1.4
						c0,0.7-0.3,1.2-0.7,1.5S396.4,143.2,395.6,143.2z"/>
					<circle id="Oval" class="st4" cx="156" cy="172" r="3"/>
					<circle id="Oval-Copy" class="st4" cx="156" cy="218" r="3"/>
					<circle id="Oval-Copy-2" class="st4" cx="156" cy="264" r="3"/>
					<circle id="Oval-Copy-3" class="st4" cx="156" cy="310" r="3"/>
					<g id="Group-2_1_" transform="translate(43.000000, 66.000000)">
						<polyline id="Stroke-28_4_" class="st2" points="39,1 39,15 5,15 5,1 						"/>
						<path id="Stroke-18_4_" class="st3" d="M39,0.4l4.6,3.5c0.1,0.1,0.2,0.1,0.3,0c0.1-0.1,0.1-0.2,0-0.3l-4.7-3.6
							C39.1,0,39,0,38.9,0.1l-4.8,3.6c-0.1,0.1-0.1,0.2,0,0.3c0.1,0.1,0.2,0.1,0.3,0L39,0.4z"/>
						<path id="Stroke-18-Copy_4_" class="st3" d="M5,0.9l4.1,3.5c0.1,0.1,0.2,0.1,0.3,0c0.1-0.1,0.1-0.2,0-0.3L5.2,0.6
							C5.1,0.5,5,0.5,4.9,0.6L0.6,4.1c-0.1,0.1-0.1,0.2,0,0.3c0.1,0.1,0.2,0.1,0.3,0L5,0.9z"/>
					</g>
					<g id="Group-2-Copy_1_" transform="translate(105.000000, 66.000000)">
						<polyline id="Stroke-28_5_" class="st2" points="39,1 39,15 5,15 5,1 						"/>
						<path id="Stroke-18_5_" class="st3" d="M39,0.4l4.6,3.5c0.1,0.1,0.2,0.1,0.3,0c0.1-0.1,0.1-0.2,0-0.3l-4.7-3.6
							C39.1,0,39,0,38.9,0.1l-4.8,3.6c-0.1,0.1-0.1,0.2,0,0.3c0.1,0.1,0.2,0.1,0.3,0L39,0.4z"/>
						<path id="Stroke-18-Copy_5_" class="st3" d="M5,0.9l4.1,3.5c0.1,0.1,0.2,0.1,0.3,0c0.1-0.1,0.1-0.2,0-0.3L5.2,0.6
							C5.1,0.5,5,0.5,4.9,0.6L0.6,4.1c-0.1,0.1-0.1,0.2,0,0.3c0.1,0.1,0.2,0.1,0.3,0L5,0.9z"/>
					</g>
					<g id="Group-2-Copy-2_1_" transform="translate(167.000000, 66.000000)">
						<polyline id="Stroke-28_6_" class="st2" points="39,1 39,15 5,15 5,1 						"/>
						<path id="Stroke-18_6_" class="st3" d="M39,0.4l4.6,3.5c0.1,0.1,0.2,0.1,0.3,0c0.1-0.1,0.1-0.2,0-0.3l-4.7-3.6
							C39.1,0,39,0,38.9,0.1l-4.8,3.6c-0.1,0.1-0.1,0.2,0,0.3c0.1,0.1,0.2,0.1,0.3,0L39,0.4z"/>
						<path id="Stroke-18-Copy_6_" class="st3" d="M5,0.9l4.1,3.5c0.1,0.1,0.2,0.1,0.3,0c0.1-0.1,0.1-0.2,0-0.3L5.2,0.6
							C5.1,0.5,5,0.5,4.9,0.6L0.6,4.1c-0.1,0.1-0.1,0.2,0,0.3c0.1,0.1,0.2,0.1,0.3,0L5,0.9z"/>
					</g>
				</g>
				<g id="Group-3-Copy-2" transform="translate(6.000000, 541.000000)">
					<g id="Group_2_">
						<polygon id="Fill-8-Copy-2_2_" class="st0" points="62,61 124,61 124,0 62,0 						"/>
						<polygon id="Fill-8-Copy-3_2_" class="st0" points="124,61 186,61 186,0 124,0 						"/>
						<polygon id="Fill-8-Copy-4_2_" class="st0" points="186,61 248,61 248,0 186,0 						"/>
						<polygon id="Fill-8-Copy-5_2_" class="st0" points="249,61 311,61 311,0 249,0 						"/>
						<polygon id="Fill-8-Copy_2_" class="st0" points="0,61 62,61 62,0 0,0 						"/>
						<path id="_x32__2_" class="st1" d="M85.3,45l-0.5-2.2l9-10.4c1.2-1.4,2.1-2.6,2.6-3.6c0.6-1,0.9-2,0.9-3
							c0-1.6-0.4-2.9-1.2-3.8c-0.8-0.9-1.9-1.3-3.5-1.3c-1.1,0-2.2,0.2-3.2,0.5c-1.1,0.3-1.9,0.8-2.6,1.4L86,20.9
							c1.4-1.4,3.7-2.1,6.7-2.1c2.2,0,3.9,0.6,5.2,1.8c1.3,1.2,1.9,2.8,1.9,4.8c0,1.3-0.3,2.6-1,3.9s-1.8,2.8-3.3,4.6l-7.8,8.9H100
							L99.9,45H85.3z"/>
						<path id="_x35__2_" class="st1" d="M219.4,45.4c-3.1,0-5.6-0.8-7.5-2.3l0.8-1.7c1.8,1.4,4.1,2.2,6.8,2.2
							c1.9,0,3.4-0.6,4.5-1.9c1.1-1.3,1.7-2.9,1.7-4.9c0-1.7-0.5-3.1-1.5-4.3s-2.2-1.7-3.6-1.7c-1,0-1.9,0.1-2.7,0.4
							c-0.7,0.3-1.6,0.8-2.5,1.5l-2.2-0.2l0.6-13.3H227l-0.2,1.9h-11l-0.5,9.4c1.5-1.1,3.1-1.7,5-1.7c1.6,0,3,0.3,4.2,1
							c1.2,0.7,2.1,1.7,2.8,2.8c0.6,1.2,0.9,2.5,0.9,3.9c0,2.6-0.8,4.8-2.4,6.4C224.1,44.6,222,45.4,219.4,45.4z"/>
						<path id="_x31__1_" class="st1" d="M28.1,45V21.6c-0.4,0.3-1,0.6-1.8,1c-0.8,0.4-1.6,0.7-2.4,1v-1.9c2.4-1.1,3.9-1.9,4.5-2.4
							h1.8V45H28.1z"/>
						<path id="_x33__2_" class="st1" d="M154.8,45.4c-1.5,0-2.9-0.2-4-0.6c-1.2-0.4-2-0.8-2.5-1.3l0.8-1.8c1.6,1.2,3.4,1.8,5.5,1.8
							c1.8,0,3.3-0.5,4.4-1.4c1.1-1,1.6-2.3,1.6-4.1c0-0.9-0.1-1.7-0.4-2.4s-0.6-1.2-1.1-1.7c-0.4-0.4-1-0.8-1.7-1
							c-0.7-0.3-1.4-0.5-2.1-0.6s-1.5-0.2-2.4-0.2h-1v-1.9h0.8c0.6,0,1.2-0.1,1.8-0.1c0.5-0.1,1.1-0.2,1.7-0.3s1.1-0.3,1.5-0.6
							c0.4-0.2,0.8-0.5,1.2-0.9c0.4-0.4,0.6-0.8,0.8-1.3s0.3-1.1,0.3-1.8c0-3-1.7-4.5-5-4.5c-1.2,0-2.2,0.2-3.2,0.5
							s-1.8,0.8-2.5,1.4l-0.8-1.8c1.5-1.3,3.8-1.9,7.1-1.9c0.8,0,1.6,0.1,2.4,0.4s1.5,0.6,2.1,1.1c0.6,0.5,1.1,1.1,1.5,1.9
							c0.4,0.8,0.6,1.7,0.6,2.7c0,3.3-1.5,5.3-4.5,6.3c3.5,0.9,5.3,3.2,5.3,6.8c0,2.2-0.7,4-2.2,5.4S157.2,45.4,154.8,45.4z"/>
						<g>
							<path id="_x36__2_" class="st1" d="M279.3,44c-1.3,0-2.5-0.2-3.5-0.7s-2-1.1-2.6-1.9s-1.2-1.7-1.6-2.7s-0.6-2.1-0.6-3.2
								c0-0.5,0-1,0.1-1.4c0.1-0.4,0.1-0.8,0.2-1.2c0.1-0.4,0.2-0.8,0.5-1.3c0.2-0.5,0.4-0.9,0.6-1.2s0.5-0.9,1-1.5s0.9-1.2,1.2-1.7
								c0.4-0.5,0.9-1.2,1.6-2.2c0.6-0.7,1.4-1.7,2.4-2.9c1-1.2,1.9-2.2,2.6-3l1.1-1.2h2.4l-9.1,11c0.7-0.4,1.4-0.7,2.1-0.9
								s1.5-0.3,2.4-0.3c1,0,1.9,0.2,2.9,0.6c0.9,0.4,1.7,1,2.4,1.7c0.7,0.7,1.2,1.6,1.7,2.6c0.4,1,0.6,2.1,0.6,3.2
								c0,2.2-0.8,4.1-2.3,5.7C283.7,43.2,281.7,44,279.3,44z M279.3,42.1c1.8,0,3.3-0.6,4.4-1.8c1.1-1.2,1.7-2.7,1.7-4.3
								c0-1.1-0.2-2.2-0.7-3.1s-1.2-1.7-2.1-2.3c-0.9-0.6-2-0.9-3.2-0.9c-1,0-1.9,0.2-2.7,0.5c-0.8,0.3-1.4,0.8-1.9,1.4
								c-0.5,0.6-0.9,1.2-1.1,2c-0.3,0.8-0.4,1.6-0.4,2.4c0,0.8,0.1,1.5,0.4,2.3s0.7,1.4,1.2,2s1.1,1.1,1.9,1.4
								C277.5,41.9,278.4,42.1,279.3,42.1z"/>
						</g>
					</g>
					<g id="Group-2_2_" transform="translate(43.000000, 66.000000)">
						<polyline id="Stroke-28_8_" class="st2" points="39,1 39,15 5,15 5,1 						"/>
						<path id="Stroke-18_8_" class="st3" d="M39,0.4l4.6,3.5c0.1,0.1,0.2,0.1,0.3,0c0.1-0.1,0.1-0.2,0-0.3l-4.7-3.6
							C39.1,0,39,0,38.9,0.1l-4.8,3.6c-0.1,0.1-0.1,0.2,0,0.3c0.1,0.1,0.2,0.1,0.3,0L39,0.4z"/>
						<path id="Stroke-18-Copy_8_" class="st3" d="M5,0.9l4.1,3.5c0.1,0.1,0.2,0.1,0.3,0c0.1-0.1,0.1-0.2,0-0.3L5.2,0.6
							C5.1,0.5,5,0.5,4.9,0.6L0.6,4.1c-0.1,0.1-0.1,0.2,0,0.3c0.1,0.1,0.2,0.1,0.3,0L5,0.9z"/>
					</g>
				</g>
			</g>
			<path id="Stroke-22" class="st5" d="M317,32h21.5"/>
			<g id="Group-5" transform="translate(318.000000, 32.000000)">
				<path id="Stroke-20" class="st5" d="M20,0v547.6"/>
				<path id="Stroke-22-Copy" class="st5" d="M0,547h21"/>
			</g>
		</g>
	</g>
</g>
</svg>
