<?xml version="1.0" encoding="utf-8"?>
<!-- Generator: Adobe Illustrator 22.1.0, SVG Export Plug-In . SVG Version: 6.00 Build 0)  -->
<svg version="1.1" xmlns="http://www.w3.org/2000/svg" xmlns:xlink="http://www.w3.org/1999/xlink" x="0px" y="0px"
	 viewBox="0 0 1601.8 1125.2" style="enable-background:new 0 0 1601.8 1125.2;" xml:space="preserve">
<style type="text/css">
	.st0{fill:#214056;}
	.st1{clip-path:url(#SVGID_2_);}
	.st2{fill:none;stroke:#FFC105;stroke-width:4;stroke-miterlimit:10;}
	.st3{clip-path:url(#SVGID_4_);}
	.st4{fill:none;stroke:#F64358;stroke-width:4;stroke-miterlimit:10;}
	.st5{fill:none;stroke:#FFC105;stroke-width:4;stroke-linecap:round;stroke-miterlimit:10;}
	.st6{fill:#4C6677;}
	.st7{fill:none;stroke:#F64358;stroke-width:5;stroke-linecap:round;stroke-miterlimit:10;}
	.st8{fill:none;stroke:#FFC105;stroke-width:5;stroke-linecap:round;stroke-miterlimit:10;}
	.st9{fill:none;stroke:#EDEDED;stroke-width:4;stroke-linecap:round;stroke-miterlimit:10;}
	.st10{fill:#37BFBA;}
	.st11{clip-path:url(#SVGID_6_);}
	.st12{clip-path:url(#SVGID_8_);}
	.st13{fill:none;stroke:#C8C8C8;stroke-linecap:round;stroke-miterlimit:10;}
	.st14{clip-path:url(#SVGID_10_);}
	.st15{fill:#EDEDED;}
	.st16{fill:#C8C8C8;}
	.st17{display:none;}
	.st18{display:inline;fill:#EDEDED;}
	.st19{fill:none;stroke:#C8C8C8;stroke-width:1.5;stroke-miterlimit:10;}
	.st20{fill:none;stroke:#EDEDED;stroke-width:6;stroke-linecap:round;stroke-miterlimit:10;}
	.st21{fill:#F64358;}
	.st22{fill:none;stroke:#FFFFFF;stroke-width:5;stroke-linecap:round;stroke-miterlimit:10;}
	.st23{fill:none;stroke:#F64358;stroke-width:4;stroke-linecap:round;stroke-miterlimit:10;}
	.st24{fill:none;stroke:#4C7EEF;stroke-width:4;stroke-linecap:round;stroke-miterlimit:10;}
	.st25{fill:none;stroke:#C8C8C8;stroke-width:4;stroke-linecap:round;stroke-miterlimit:10;}
	.st26{fill:#F28E1E;}
	.st27{fill:#F6AB3B;}
	.st28{fill:none;stroke:#214056;stroke-width:6;stroke-linecap:round;stroke-miterlimit:10;}
	.st29{fill:none;stroke:#214056;stroke-width:4;stroke-linecap:round;stroke-miterlimit:10;}
</style>
<g id="Layer_1">
</g>
<g id="Layer_2">
</g>
<g id="Type">
</g>
<g id="Layer_4">
</g>
<g id="Layer_5">
	<circle class="st6" cx="476.7" cy="677.4" r="104.6"/>
	<circle class="st6" cx="910.3" cy="677.4" r="104.6"/>
	<circle class="st6" cx="1347.1" cy="925.3" r="104.6"/>
	<path class="st6" d="M882.4,271.7H720.8c-6.6,0-12-5.4-12-12V104.4c0-6.6,5.4-12,12-12h161.7c6.6,0,12,5.4,12,12v155.3
		C894.4,266.3,889,271.7,882.4,271.7z"/>
	<g>
		<line class="st9" x1="724.7" y1="207.4" x2="879.2" y2="207.4"/>
		<line class="st9" x1="724.7" y1="156.8" x2="879.2" y2="156.8"/>
		<line class="st9" x1="775.6" y1="108.3" x2="775.6" y2="256"/>
		<line class="st9" x1="828.6" y1="108.3" x2="828.6" y2="256"/>
	</g>
	<circle class="st2" cx="802" cy="182.1" r="13.7"/>
	<circle class="st2" cx="856.5" cy="234.6" r="13.7"/>
	<circle class="st4" cx="529.1" cy="675.4" r="13.7"/>
	<circle class="st4" cx="315.2" cy="626.3" r="13.7"/>
	<circle class="st4" cx="694.5" cy="626.3" r="13.7"/>
	<circle class="st4" cx="1397.3" cy="626.3" r="13.7"/>
	<circle class="st4" cx="963.9" cy="675.4" r="13.7"/>
	<circle class="st2" cx="749.6" cy="182.1" r="13.7"/>
	<g>
		<line class="st5" x1="790.1" y1="221.8" x2="813.9" y2="245.7"/>
		<line class="st5" x1="790" y1="245.7" x2="813.9" y2="221.8"/>
	</g>
	<g>
		<line class="st24" x1="843.5" y1="363.2" x2="867.3" y2="387.1"/>
		<line class="st24" x1="843.5" y1="387.1" x2="867.3" y2="363.2"/>
	</g>
	<g>
		<line class="st24" x1="1055" y1="413.2" x2="1078.9" y2="437"/>
		<line class="st24" x1="1055" y1="437" x2="1078.9" y2="413.2"/>
	</g>
	<g>
		<line class="st24" x1="577.1" y1="363.2" x2="601" y2="387.1"/>
		<line class="st24" x1="577.1" y1="387.1" x2="601" y2="363.2"/>
	</g>
	<g>
		<line class="st5" x1="737.7" y1="221.8" x2="761.5" y2="245.7"/>
		<line class="st5" x1="737.7" y1="245.7" x2="761.5" y2="221.8"/>
	</g>
	<g>
		<line class="st5" x1="737.7" y1="121.2" x2="761.5" y2="145.1"/>
		<line class="st5" x1="737.7" y1="145.1" x2="761.5" y2="121.2"/>
	</g>
	<g>
		<line class="st9" x1="724.7" y1="449.4" x2="879.2" y2="449.4"/>
		<line class="st9" x1="724.7" y1="398.8" x2="879.2" y2="398.8"/>
		<line class="st9" x1="775.6" y1="350.3" x2="775.6" y2="498"/>
		<line class="st9" x1="828.6" y1="350.3" x2="828.6" y2="498"/>
	</g>
	<circle class="st2" cx="802" cy="424.2" r="13.7"/>
	<circle class="st2" cx="856.5" cy="476.6" r="13.7"/>
	<circle class="st2" cx="749.6" cy="424.2" r="13.7"/>
	<g>
		<line class="st5" x1="790.1" y1="463.8" x2="813.9" y2="487.7"/>
		<line class="st5" x1="790" y1="487.7" x2="813.9" y2="463.8"/>
	</g>
	<g>
		<line class="st5" x1="737.7" y1="463.8" x2="761.5" y2="487.7"/>
		<line class="st5" x1="737.7" y1="487.7" x2="761.5" y2="463.8"/>
	</g>
	<g>
		<line class="st5" x1="737.7" y1="363.2" x2="761.5" y2="387.1"/>
		<line class="st5" x1="737.7" y1="387.1" x2="761.5" y2="363.2"/>
	</g>
	<g>
		<line class="st9" x1="512.1" y1="449.4" x2="666.6" y2="449.4"/>
		<line class="st9" x1="512.1" y1="398.8" x2="666.6" y2="398.8"/>
		<line class="st9" x1="563" y1="350.3" x2="563" y2="498"/>
		<line class="st9" x1="615.9" y1="350.3" x2="615.9" y2="498"/>
	</g>
	<circle class="st2" cx="589.4" cy="424.2" r="13.7"/>
	<circle class="st2" cx="643.9" cy="476.6" r="13.7"/>
	<circle class="st2" cx="537" cy="424.2" r="13.7"/>
	<g>
		<line class="st5" x1="577.4" y1="463.8" x2="601.3" y2="487.7"/>
		<line class="st5" x1="577.4" y1="487.7" x2="601.3" y2="463.8"/>
	</g>
	<g>
		<line class="st5" x1="525.1" y1="463.8" x2="548.9" y2="487.7"/>
		<line class="st5" x1="525" y1="487.7" x2="548.9" y2="463.8"/>
	</g>
	<g>
		<line class="st5" x1="525.1" y1="363.2" x2="548.9" y2="387.1"/>
		<line class="st5" x1="525" y1="387.1" x2="548.9" y2="363.2"/>
	</g>
	<g>
		<line class="st9" x1="939" y1="449.4" x2="1093.5" y2="449.4"/>
		<line class="st9" x1="939" y1="398.8" x2="1093.5" y2="398.8"/>
		<line class="st9" x1="989.9" y1="350.3" x2="989.9" y2="498"/>
		<line class="st9" x1="1042.9" y1="350.3" x2="1042.9" y2="498"/>
	</g>
	<circle class="st2" cx="1016.3" cy="424.2" r="13.7"/>
	<circle class="st2" cx="1070.8" cy="476.6" r="13.7"/>
	<circle class="st2" cx="963.9" cy="424.2" r="13.7"/>
	<g>
		<line class="st5" x1="1004.4" y1="463.8" x2="1028.2" y2="487.7"/>
		<line class="st5" x1="1004.4" y1="487.7" x2="1028.2" y2="463.8"/>
	</g>
	<g>
		<line class="st5" x1="952" y1="463.8" x2="975.9" y2="487.7"/>
		<line class="st5" x1="952" y1="487.7" x2="975.8" y2="463.8"/>
	</g>
	<g>
		<line class="st5" x1="952" y1="363.2" x2="975.9" y2="387.1"/>
		<line class="st5" x1="952" y1="387.1" x2="975.8" y2="363.2"/>
	</g>
	<g>
		<line class="st9" x1="616.9" y1="700.6" x2="771.4" y2="700.6"/>
		<line class="st9" x1="616.9" y1="650" x2="771.4" y2="650"/>
		<line class="st9" x1="667.8" y1="601.5" x2="667.8" y2="749.2"/>
		<line class="st9" x1="720.7" y1="601.5" x2="720.7" y2="749.2"/>
	</g>
	<circle class="st2" cx="695.1" cy="675.4" r="13.7"/>
	<circle class="st2" cx="748.6" cy="727.8" r="13.7"/>
	<circle class="st2" cx="641.8" cy="675.4" r="13.7"/>
	<g>
		<line class="st5" x1="682.2" y1="715" x2="706.1" y2="738.9"/>
		<line class="st5" x1="682.2" y1="738.9" x2="706.1" y2="715"/>
	</g>
	<g>
		<line class="st5" x1="629.9" y1="715" x2="653.7" y2="738.9"/>
		<line class="st5" x1="629.8" y1="738.9" x2="653.7" y2="715"/>
	</g>
	<g>
		<line class="st5" x1="629.9" y1="614.4" x2="653.7" y2="638.3"/>
		<line class="st5" x1="629.8" y1="638.3" x2="653.7" y2="614.4"/>
	</g>
	<g>
		<line class="st5" x1="734.3" y1="614.4" x2="758.2" y2="638.3"/>
		<line class="st5" x1="734.3" y1="638.3" x2="758.2" y2="614.4"/>
	</g>
	<g>
		<line class="st9" x1="400.3" y1="700.6" x2="554.8" y2="700.6"/>
		<line class="st9" x1="400.3" y1="650" x2="554.8" y2="650"/>
		<line class="st9" x1="451.2" y1="601.5" x2="451.2" y2="749.2"/>
		<line class="st9" x1="504.1" y1="601.5" x2="504.1" y2="749.2"/>
	</g>
	<circle class="st2" cx="477.5" cy="675.4" r="13.7"/>
	<circle class="st2" cx="532" cy="727.8" r="13.7"/>
	<circle class="st2" cx="425.1" cy="675.4" r="13.7"/>
	<g>
		<line class="st5" x1="465.6" y1="715" x2="489.4" y2="738.9"/>
		<line class="st5" x1="465.6" y1="738.9" x2="489.4" y2="715"/>
	</g>
	<g>
		<line class="st5" x1="413.2" y1="715" x2="437.1" y2="738.9"/>
		<line class="st5" x1="413.2" y1="738.9" x2="437.1" y2="715"/>
	</g>
	<g>
		<line class="st5" x1="413.2" y1="614.4" x2="437.1" y2="638.3"/>
		<line class="st5" x1="413.2" y1="638.3" x2="437.1" y2="614.4"/>
	</g>
	<g>
		<line class="st5" x1="464.8" y1="614.4" x2="488.6" y2="638.3"/>
		<line class="st5" x1="464.8" y1="638.3" x2="488.6" y2="614.4"/>
	</g>
	<g>
		<line class="st9" x1="833.9" y1="700.6" x2="988.4" y2="700.6"/>
		<line class="st9" x1="833.9" y1="650" x2="988.4" y2="650"/>
		<line class="st9" x1="884.8" y1="601.5" x2="884.8" y2="749.2"/>
		<line class="st9" x1="937.7" y1="601.5" x2="937.7" y2="749.2"/>
	</g>
	<circle class="st2" cx="911.1" cy="675.4" r="13.7"/>
	<circle class="st2" cx="965.6" cy="727.8" r="13.7"/>
	<circle class="st2" cx="858.8" cy="675.4" r="13.7"/>
	<g>
		<line class="st5" x1="899.2" y1="715" x2="923.1" y2="738.9"/>
		<line class="st5" x1="899.2" y1="738.9" x2="923" y2="715"/>
	</g>
	<g>
		<line class="st5" x1="846.8" y1="715" x2="870.7" y2="738.9"/>
		<line class="st5" x1="846.8" y1="738.9" x2="870.7" y2="715"/>
	</g>
	<g>
		<line class="st5" x1="846.8" y1="614.4" x2="870.7" y2="638.3"/>
		<line class="st5" x1="846.8" y1="638.3" x2="870.7" y2="614.4"/>
	</g>
	<g>
		<line class="st5" x1="952" y1="614.4" x2="975.9" y2="638.3"/>
		<line class="st5" x1="952" y1="638.3" x2="975.8" y2="614.4"/>
	</g>
	<g>
		<line class="st9" x1="183.4" y1="700.6" x2="337.9" y2="700.6"/>
		<line class="st9" x1="183.4" y1="650" x2="337.9" y2="650"/>
		<line class="st9" x1="234.3" y1="601.5" x2="234.3" y2="749.2"/>
		<line class="st9" x1="287.3" y1="601.5" x2="287.3" y2="749.2"/>
	</g>
	<circle class="st2" cx="260.7" cy="675.4" r="13.7"/>
	<circle class="st2" cx="315.2" cy="727.8" r="13.7"/>
	<circle class="st2" cx="208.3" cy="675.4" r="13.7"/>
	<g>
		<line class="st5" x1="248.8" y1="715" x2="272.6" y2="738.9"/>
		<line class="st5" x1="248.7" y1="738.9" x2="272.6" y2="715"/>
	</g>
	<g>
		<line class="st5" x1="196.4" y1="715" x2="220.2" y2="738.9"/>
		<line class="st5" x1="196.4" y1="738.9" x2="220.2" y2="715"/>
	</g>
	<g>
		<line class="st5" x1="196.4" y1="614.4" x2="220.2" y2="638.3"/>
		<line class="st5" x1="196.4" y1="638.3" x2="220.2" y2="614.4"/>
	</g>
	<g>
		<line class="st5" x1="248.8" y1="614.4" x2="272.6" y2="638.3"/>
		<line class="st5" x1="248.8" y1="638.3" x2="272.6" y2="614.4"/>
	</g>
	<g>
		<line class="st9" x1="1051" y1="700.6" x2="1205.5" y2="700.6"/>
		<line class="st9" x1="1051" y1="650" x2="1205.5" y2="650"/>
		<line class="st9" x1="1101.9" y1="601.5" x2="1101.9" y2="749.3"/>
		<line class="st9" x1="1154.9" y1="601.5" x2="1154.9" y2="749.3"/>
	</g>
	<circle class="st2" cx="1128.3" cy="675.4" r="13.7"/>
	<circle class="st2" cx="1182.8" cy="727.8" r="13.7"/>
	<circle class="st2" cx="1075.9" cy="675.4" r="13.7"/>
	<g>
		<line class="st5" x1="1116.4" y1="715" x2="1140.2" y2="738.9"/>
		<line class="st5" x1="1116.3" y1="738.9" x2="1140.2" y2="715"/>
	</g>
	<g>
		<line class="st5" x1="1168.8" y1="665.4" x2="1192.6" y2="689.3"/>
		<line class="st5" x1="1168.8" y1="689.3" x2="1192.6" y2="665.4"/>
	</g>
	<g>
		<line class="st5" x1="1064" y1="715" x2="1087.8" y2="738.9"/>
		<line class="st5" x1="1064" y1="738.9" x2="1087.8" y2="715"/>
	</g>
	<g>
		<line class="st5" x1="1064" y1="614.5" x2="1087.8" y2="638.3"/>
		<line class="st5" x1="1064" y1="638.3" x2="1087.8" y2="614.5"/>
	</g>
	<g>
		<g>
			<line class="st9" x1="1267.9" y1="700.6" x2="1422.4" y2="700.6"/>
			<line class="st9" x1="1267.9" y1="650" x2="1422.4" y2="650"/>
			<line class="st9" x1="1318.8" y1="601.5" x2="1318.8" y2="749.2"/>
			<line class="st9" x1="1371.7" y1="601.5" x2="1371.7" y2="749.2"/>
		</g>
		<circle class="st2" cx="1345.1" cy="675.4" r="13.7"/>
		<circle class="st2" cx="1399.6" cy="727.8" r="13.7"/>
		<circle class="st2" cx="1292.8" cy="675.4" r="13.7"/>
		<g>
			<line class="st5" x1="1333.2" y1="715" x2="1357.1" y2="738.9"/>
			<line class="st5" x1="1333.2" y1="738.9" x2="1357" y2="715"/>
		</g>
		<g>
			<line class="st5" x1="1385.3" y1="662.9" x2="1409.2" y2="686.7"/>
			<line class="st5" x1="1385.3" y1="686.7" x2="1409.2" y2="662.9"/>
		</g>
		<g>
			<line class="st5" x1="1280.8" y1="715" x2="1304.7" y2="738.9"/>
			<line class="st5" x1="1280.8" y1="738.9" x2="1304.7" y2="715"/>
		</g>
		<g>
			<line class="st5" x1="1280.8" y1="614.4" x2="1304.7" y2="638.3"/>
			<line class="st5" x1="1280.8" y1="638.3" x2="1304.7" y2="614.4"/>
		</g>
	</g>
	<circle class="st6" cx="1129.8" cy="926.3" r="104.6"/>
	<g>
		<line class="st9" x1="1052.5" y1="952.4" x2="1207" y2="952.4"/>
		<line class="st9" x1="1052.5" y1="901.8" x2="1207" y2="901.8"/>
		<line class="st9" x1="1103.4" y1="853.3" x2="1103.4" y2="1001"/>
		<line class="st9" x1="1156.4" y1="853.3" x2="1156.4" y2="1001"/>
	</g>
	<circle class="st2" cx="1129.8" cy="927.1" r="13.7"/>
	<circle class="st2" cx="1184.3" cy="979.6" r="13.7"/>
	<circle class="st2" cx="1129.8" cy="877.1" r="13.7"/>
	<circle class="st2" cx="1077.4" cy="927.1" r="13.7"/>
	<g>
		<line class="st5" x1="1117.8" y1="966.8" x2="1141.7" y2="990.6"/>
		<line class="st5" x1="1117.8" y1="990.6" x2="1141.7" y2="966.8"/>
	</g>
	<g>
		<line class="st5" x1="1170.9" y1="917" x2="1194.7" y2="940.8"/>
		<line class="st5" x1="1170.8" y1="940.8" x2="1194.7" y2="917"/>
	</g>
	<g>
		<line class="st5" x1="1065.5" y1="966.8" x2="1089.3" y2="990.6"/>
		<line class="st5" x1="1065.5" y1="990.6" x2="1089.3" y2="966.8"/>
	</g>
	<g>
		<line class="st5" x1="1065.5" y1="866.2" x2="1089.3" y2="890.1"/>
		<line class="st5" x1="1065.5" y1="890.1" x2="1089.3" y2="866.2"/>
	</g>
	<circle class="st6" cx="694.1" cy="925.3" r="104.6"/>
	<g>
		<line class="st9" x1="616.9" y1="951.4" x2="771.4" y2="951.4"/>
		<line class="st9" x1="616.9" y1="900.8" x2="771.4" y2="900.8"/>
		<line class="st9" x1="667.8" y1="852.3" x2="667.8" y2="1000"/>
		<line class="st9" x1="720.7" y1="852.3" x2="720.7" y2="1000"/>
	</g>
	<circle class="st2" cx="694.1" cy="926.1" r="13.7"/>
	<circle class="st2" cx="694.1" cy="877.1" r="13.7"/>
	<circle class="st2" cx="748.6" cy="978.6" r="13.7"/>
	<circle class="st2" cx="641.8" cy="926.1" r="13.7"/>
	<g>
		<line class="st5" x1="682.2" y1="965.8" x2="706.1" y2="989.6"/>
		<line class="st5" x1="682.2" y1="989.6" x2="706" y2="965.8"/>
	</g>
	<g>
		<line class="st5" x1="629.8" y1="965.8" x2="653.7" y2="989.6"/>
		<line class="st5" x1="629.8" y1="989.6" x2="653.7" y2="965.8"/>
	</g>
	<g>
		<line class="st5" x1="629.8" y1="865.2" x2="653.7" y2="889.1"/>
		<line class="st5" x1="629.8" y1="889.1" x2="653.7" y2="865.2"/>
	</g>
	<g>
		<line class="st5" x1="735" y1="865.2" x2="758.9" y2="889.1"/>
		<line class="st5" x1="735" y1="889.1" x2="758.9" y2="865.2"/>
	</g>
	<circle class="st6" cx="260.7" cy="925.3" r="104.6"/>
	<g>
		<line class="st9" x1="183.4" y1="951.4" x2="337.9" y2="951.4"/>
		<line class="st9" x1="183.4" y1="900.8" x2="337.9" y2="900.8"/>
		<line class="st9" x1="234.3" y1="852.3" x2="234.3" y2="1000"/>
		<line class="st9" x1="287.2" y1="852.3" x2="287.2" y2="1000"/>
	</g>
	<circle class="st2" cx="260.6" cy="926.1" r="13.7"/>
	<circle class="st2" cx="313" cy="877.1" r="13.7"/>
	<circle class="st2" cx="315.1" cy="978.6" r="13.7"/>
	<circle class="st2" cx="208.3" cy="926.1" r="13.7"/>
	<g>
		<line class="st5" x1="248.7" y1="965.8" x2="272.6" y2="989.6"/>
		<line class="st5" x1="248.7" y1="989.6" x2="272.6" y2="965.8"/>
	</g>
	<g>
		<line class="st5" x1="196.4" y1="965.8" x2="220.2" y2="989.6"/>
		<line class="st5" x1="196.3" y1="989.6" x2="220.2" y2="965.8"/>
	</g>
	<g>
		<line class="st5" x1="196.4" y1="865.2" x2="220.2" y2="889.1"/>
		<line class="st5" x1="196.3" y1="889.1" x2="220.2" y2="865.2"/>
	</g>
	<g>
		<line class="st5" x1="248.7" y1="865.2" x2="272.6" y2="889.1"/>
		<line class="st5" x1="248.7" y1="889.1" x2="272.5" y2="865.2"/>
	</g>
	<g>
		<line class="st9" x1="1269.8" y1="951.4" x2="1424.3" y2="951.4"/>
		<line class="st9" x1="1269.8" y1="900.8" x2="1424.3" y2="900.8"/>
		<line class="st9" x1="1320.7" y1="852.3" x2="1320.7" y2="1000"/>
		<line class="st9" x1="1373.7" y1="852.3" x2="1373.7" y2="1000"/>
	</g>
	<circle class="st2" cx="1347.1" cy="926.1" r="13.7"/>
	<circle class="st2" cx="1401.6" cy="978.6" r="13.7"/>
	<circle class="st2" cx="1399.6" cy="877.1" r="13.7"/>
	<circle class="st2" cx="1294.7" cy="926.1" r="13.7"/>
	<g>
		<line class="st5" x1="1335.2" y1="965.8" x2="1359" y2="989.6"/>
		<line class="st5" x1="1335.1" y1="989.6" x2="1359" y2="965.8"/>
	</g>
	<g>
		<line class="st5" x1="1387.7" y1="917" x2="1411.6" y2="940.8"/>
		<line class="st5" x1="1387.7" y1="940.8" x2="1411.5" y2="917"/>
	</g>
	<g>
		<line class="st5" x1="1282.8" y1="965.8" x2="1306.6" y2="989.6"/>
		<line class="st5" x1="1282.8" y1="989.6" x2="1306.6" y2="965.8"/>
	</g>
	<g>
		<line class="st5" x1="1282.8" y1="865.2" x2="1306.6" y2="889.1"/>
		<line class="st5" x1="1282.8" y1="889.1" x2="1306.6" y2="865.2"/>
	</g>
	<g>
		<path class="st15" d="M775.1,77V59.1h6.6c0.9,0,1.7,0,2.3,0.1c0.7,0.1,1.3,0.2,1.9,0.4c0.6,0.2,1.1,0.5,1.5,0.9
			c0.4,0.4,0.7,0.8,0.9,1.4c0.2,0.6,0.3,1.3,0.3,2.1c0,2.4-1.1,3.9-3.2,4.7c0.4,0.5,1,1.4,1.6,2.8l2.7,5.5h-3.6l-2.1-4.7
			c-0.8-1.7-1.3-2.7-1.5-3c-0.1,0-0.6,0-1.4,0l-2.8,0V77H775.1z M782,66.9c1.3,0,2.2-0.2,2.7-0.7c0.6-0.5,0.8-1.2,0.8-2.2
			c0-0.9-0.3-1.5-0.8-1.9c-0.6-0.4-1.4-0.6-2.6-0.6h-3.8v5.4c0.1,0,0.7,0,1.8,0S781.9,66.9,782,66.9z"/>
		<path class="st15" d="M797.7,77.3c-2,0-3.5-0.6-4.7-1.9c-1.1-1.3-1.7-3-1.7-5.1c0-2.2,0.6-3.9,1.7-5.1c1.1-1.2,2.7-1.9,4.8-1.9
			c2,0,3.6,0.6,4.7,1.9c1.1,1.3,1.7,3,1.7,5.1c0,2.1-0.6,3.8-1.7,5.1S799.7,77.3,797.7,77.3z M797.8,74.8c1.1,0,1.9-0.4,2.4-1.2
			c0.5-0.8,0.8-1.9,0.8-3.4c0-1.5-0.3-2.6-0.8-3.4s-1.4-1.2-2.5-1.2c-1.1,0-1.9,0.4-2.4,1.2c-0.5,0.8-0.8,1.9-0.8,3.4
			c0,1.5,0.3,2.6,0.8,3.4C795.8,74.4,796.7,74.8,797.8,74.8z"/>
		<path class="st15" d="M812.6,77.3c-2,0-3.5-0.6-4.7-1.9c-1.1-1.3-1.7-3-1.7-5.1c0-2.2,0.6-3.9,1.7-5.1c1.1-1.2,2.7-1.9,4.8-1.9
			c2,0,3.6,0.6,4.7,1.9c1.1,1.3,1.7,3,1.7,5.1c0,2.1-0.6,3.8-1.7,5.1S814.6,77.3,812.6,77.3z M812.7,74.8c1.1,0,1.9-0.4,2.4-1.2
			c0.5-0.8,0.8-1.9,0.8-3.4c0-1.5-0.3-2.6-0.8-3.4s-1.4-1.2-2.5-1.2c-1.1,0-1.9,0.4-2.4,1.2c-0.5,0.8-0.8,1.9-0.8,3.4
			c0,1.5,0.3,2.6,0.8,3.4C810.8,74.4,811.6,74.8,812.7,74.8z"/>
		<path class="st15" d="M827.1,77.2c-0.9,0-1.7-0.1-2.3-0.3c-0.6-0.2-1.1-0.6-1.4-1c-0.3-0.5-0.6-1-0.7-1.6
			c-0.1-0.6-0.2-1.4-0.2-2.3v-6.3h-2.2l0.1-1.7l2.3-0.2l1-3.6l2,0v3.6h3.3v1.9h-3.3v6.4c0,1,0.1,1.7,0.4,2.2s0.8,0.6,1.6,0.6
			c0.5,0,1,0,1.5-0.1l0.1,2.3c0,0-0.1,0-0.3,0.1c-0.2,0-0.4,0.1-0.5,0.1c-0.2,0-0.4,0.1-0.6,0.1S827.3,77.2,827.1,77.2z"/>
	</g>
	<g>
		<path class="st15" d="M453.4,813.7v-17.9h3.3v15.2h7.5l-0.1,2.6H453.4z"/>
		<path class="st15" d="M472.4,814c-2.2,0-3.8-0.6-5-1.9c-1.2-1.2-1.8-3-1.8-5.1c0-2.1,0.6-3.8,1.7-5.1s2.7-1.9,4.6-1.9
			c1.8,0,3.3,0.6,4.3,1.7c1,1.2,1.5,2.7,1.5,4.6c0,0.1,0,0.4,0,0.7c0,0.3,0,0.5,0,0.7h-8.9c0,1.3,0.4,2.2,1,2.9c0.7,0.7,1.6,1,2.7,1
			c1.5,0,2.9-0.4,4.2-1.1l0.5,2.3C475.9,813.6,474.3,814,472.4,814z M468.9,805.6h5.9c0-1.1-0.2-1.9-0.7-2.5
			c-0.5-0.6-1.2-0.9-2.1-0.9c-0.8,0-1.5,0.3-2.1,0.9C469.3,803.7,468.9,804.5,468.9,805.6z"/>
		<path class="st15" d="M483.9,814c-1.2,0-2.3-0.3-3-1c-0.8-0.7-1.2-1.7-1.2-3c0-1.4,0.5-2.4,1.4-3.1c0.9-0.7,2.3-1.1,4.1-1.3
			c0.3,0,0.5-0.1,0.8-0.1s0.6-0.1,1-0.1c0.4,0,0.7-0.1,0.9-0.1v-0.7c0-0.8-0.2-1.4-0.6-1.8c-0.4-0.4-0.9-0.6-1.7-0.6
			c-1.1,0-2.4,0.3-4,0.9c0,0-0.1-0.4-0.4-1.1s-0.4-1.1-0.4-1.1c1.6-0.7,3.3-1,5.1-1c1.8,0,3.1,0.4,3.9,1.2s1.2,2.1,1.2,3.8v8.8h-2.4
			c0,0-0.1-0.3-0.3-0.8c-0.2-0.5-0.3-0.8-0.3-0.8c-0.7,0.7-1.3,1.1-2,1.4C485.6,813.8,484.8,814,483.9,814z M484.7,811.7
			c0.7,0,1.4-0.2,1.9-0.5c0.5-0.4,0.9-0.8,1.2-1.3v-2.6c0,0-0.2,0-0.6,0c-0.4,0-0.6,0-0.7,0c-1.3,0.1-2.2,0.4-2.8,0.7
			c-0.6,0.4-0.9,1-0.9,1.8c0,0.6,0.2,1,0.5,1.3C483.6,811.5,484.1,811.7,484.7,811.7z"/>
		<path class="st15" d="M495.1,813.7v-11.3H493l0.2-1.9l1.9-0.2v-0.7c0-0.8,0.1-1.5,0.2-2.1c0.2-0.6,0.4-1.1,0.7-1.5
			c0.3-0.4,0.8-0.7,1.4-0.9c0.6-0.2,1.3-0.3,2.1-0.3c0.8,0,1.6,0.1,2.5,0.2l-0.3,2.4c-0.7-0.1-1.2-0.1-1.6-0.1
			c-0.7,0-1.2,0.2-1.5,0.5s-0.4,0.9-0.4,1.6v0.9h3.2v2.1h-3.2v11.3H495.1z"/>
	</g>
	<g>
		<path class="st15" d="M887.9,813.7v-17.9h3.3v15.2h7.5l-0.1,2.6H887.9z"/>
		<path class="st15" d="M906.8,814c-2.2,0-3.8-0.6-5-1.9c-1.2-1.2-1.8-3-1.8-5.1c0-2.1,0.6-3.8,1.7-5.1s2.7-1.9,4.6-1.9
			c1.8,0,3.3,0.6,4.3,1.7c1,1.2,1.5,2.7,1.5,4.6c0,0.1,0,0.4,0,0.7c0,0.3,0,0.5,0,0.7h-8.9c0,1.3,0.4,2.2,1,2.9c0.7,0.7,1.6,1,2.7,1
			c1.5,0,2.9-0.4,4.2-1.1l0.5,2.3C910.3,813.6,908.7,814,906.8,814z M903.3,805.6h5.9c0-1.1-0.2-1.9-0.7-2.5
			c-0.5-0.6-1.2-0.9-2.1-0.9c-0.8,0-1.5,0.3-2.1,0.9C903.7,803.7,903.4,804.5,903.3,805.6z"/>
		<path class="st15" d="M918.3,814c-1.2,0-2.3-0.3-3-1c-0.8-0.7-1.2-1.7-1.2-3c0-1.4,0.5-2.4,1.4-3.1c0.9-0.7,2.3-1.1,4.1-1.3
			c0.3,0,0.5-0.1,0.8-0.1s0.6-0.1,1-0.1c0.4,0,0.7-0.1,0.9-0.1v-0.7c0-0.8-0.2-1.4-0.6-1.8c-0.4-0.4-0.9-0.6-1.7-0.6
			c-1.1,0-2.4,0.3-4,0.9c0,0-0.1-0.4-0.4-1.1s-0.4-1.1-0.4-1.1c1.6-0.7,3.3-1,5.1-1c1.8,0,3.1,0.4,3.9,1.2s1.2,2.1,1.2,3.8v8.8h-2.4
			c0,0-0.1-0.3-0.3-0.8c-0.2-0.5-0.3-0.8-0.3-0.8c-0.7,0.7-1.3,1.1-2,1.4C920,813.8,919.2,814,918.3,814z M919.2,811.7
			c0.7,0,1.4-0.2,1.9-0.5c0.5-0.4,0.9-0.8,1.2-1.3v-2.6c0,0-0.2,0-0.6,0c-0.4,0-0.6,0-0.7,0c-1.3,0.1-2.2,0.4-2.8,0.7
			c-0.6,0.4-0.9,1-0.9,1.8c0,0.6,0.2,1,0.5,1.3C918.1,811.5,918.5,811.7,919.2,811.7z"/>
		<path class="st15" d="M929.6,813.7v-11.3h-2.1l0.2-1.9l1.9-0.2v-0.7c0-0.8,0.1-1.5,0.2-2.1c0.2-0.6,0.4-1.1,0.7-1.5
			c0.3-0.4,0.8-0.7,1.4-0.9c0.6-0.2,1.3-0.3,2.1-0.3c0.8,0,1.6,0.1,2.5,0.2l-0.3,2.4c-0.7-0.1-1.2-0.1-1.6-0.1
			c-0.7,0-1.2,0.2-1.5,0.5s-0.4,0.9-0.4,1.6v0.9h3.2v2.1h-3.2v11.3H929.6z"/>
	</g>
	<g>
		<path class="st15" d="M237.4,1061v-17.9h3.3v15.2h7.5l-0.1,2.6H237.4z"/>
		<path class="st15" d="M256.3,1061.3c-2.2,0-3.8-0.6-5-1.9c-1.2-1.2-1.8-3-1.8-5.1c0-2.1,0.6-3.8,1.7-5.1s2.7-1.9,4.6-1.9
			c1.8,0,3.3,0.6,4.3,1.7c1,1.2,1.5,2.7,1.5,4.6c0,0.1,0,0.4,0,0.7s0,0.5,0,0.7h-8.9c0,1.3,0.4,2.2,1,2.9c0.7,0.7,1.6,1,2.7,1
			c1.5,0,2.9-0.4,4.2-1.1l0.5,2.3C259.8,1060.9,258.2,1061.3,256.3,1061.3z M252.8,1053h5.9c0-1.1-0.2-1.9-0.7-2.5
			c-0.5-0.6-1.2-0.9-2.1-0.9c-0.8,0-1.5,0.3-2.1,0.9C253.2,1051,252.9,1051.8,252.8,1053z"/>
		<path class="st15" d="M267.8,1061.3c-1.2,0-2.3-0.3-3-1c-0.8-0.7-1.2-1.7-1.2-3c0-1.4,0.5-2.4,1.4-3.1c0.9-0.7,2.3-1.1,4.1-1.3
			c0.3,0,0.5-0.1,0.8-0.1c0.3,0,0.6-0.1,1-0.1c0.4,0,0.7-0.1,0.9-0.1v-0.7c0-0.8-0.2-1.4-0.6-1.8c-0.4-0.4-0.9-0.6-1.7-0.6
			c-1.1,0-2.4,0.3-4,0.9c0,0-0.1-0.4-0.4-1.1c-0.3-0.7-0.4-1.1-0.4-1.1c1.6-0.7,3.3-1,5.1-1c1.8,0,3.1,0.4,3.9,1.2
			c0.8,0.8,1.2,2.1,1.2,3.8v8.8h-2.4c0,0-0.1-0.3-0.3-0.8c-0.2-0.5-0.3-0.8-0.3-0.8c-0.7,0.7-1.3,1.1-2,1.4
			C269.5,1061.1,268.7,1061.3,267.8,1061.3z M268.7,1059c0.7,0,1.4-0.2,1.9-0.5c0.5-0.4,0.9-0.8,1.2-1.3v-2.6c0,0-0.2,0-0.6,0
			c-0.4,0-0.6,0-0.7,0c-1.3,0.1-2.2,0.4-2.8,0.7s-0.9,1-0.9,1.8c0,0.6,0.2,1,0.5,1.3C267.6,1058.9,268,1059,268.7,1059z"/>
		<path class="st15" d="M279,1061v-11.3h-2.1l0.2-1.9l1.9-0.2v-0.7c0-0.8,0.1-1.5,0.2-2.1c0.2-0.6,0.4-1.1,0.7-1.5s0.8-0.7,1.4-0.9
			c0.6-0.2,1.3-0.3,2.1-0.3c0.8,0,1.6,0.1,2.5,0.2l-0.3,2.4c-0.7-0.1-1.2-0.1-1.6-0.1c-0.7,0-1.2,0.2-1.5,0.5
			c-0.3,0.3-0.4,0.9-0.4,1.6v0.9h3.2v2.1h-3.2v11.3H279z"/>
	</g>
	<g>
		<path class="st15" d="M670.8,1061v-17.9h3.3v15.2h7.5l-0.1,2.6H670.8z"/>
		<path class="st15" d="M689.8,1061.3c-2.2,0-3.8-0.6-5-1.9c-1.2-1.2-1.8-3-1.8-5.1c0-2.1,0.6-3.8,1.7-5.1s2.7-1.9,4.6-1.9
			c1.8,0,3.3,0.6,4.3,1.7c1,1.2,1.5,2.7,1.5,4.6c0,0.1,0,0.4,0,0.7s0,0.5,0,0.7h-8.9c0,1.3,0.4,2.2,1,2.9c0.7,0.7,1.6,1,2.7,1
			c1.5,0,2.9-0.4,4.2-1.1l0.5,2.3C693.3,1060.9,691.7,1061.3,689.8,1061.3z M686.3,1053h5.9c0-1.1-0.2-1.9-0.7-2.5
			c-0.5-0.6-1.2-0.9-2.1-0.9c-0.8,0-1.5,0.3-2.1,0.9C686.7,1051,686.3,1051.8,686.3,1053z"/>
		<path class="st15" d="M701.3,1061.3c-1.2,0-2.3-0.3-3-1c-0.8-0.7-1.2-1.7-1.2-3c0-1.4,0.5-2.4,1.4-3.1c0.9-0.7,2.3-1.1,4.1-1.3
			c0.3,0,0.5-0.1,0.8-0.1c0.3,0,0.6-0.1,1-0.1c0.4,0,0.7-0.1,0.9-0.1v-0.7c0-0.8-0.2-1.4-0.6-1.8c-0.4-0.4-0.9-0.6-1.7-0.6
			c-1.1,0-2.4,0.3-4,0.9c0,0-0.1-0.4-0.4-1.1c-0.3-0.7-0.4-1.1-0.4-1.1c1.6-0.7,3.3-1,5.1-1c1.8,0,3.1,0.4,3.9,1.2
			c0.8,0.8,1.2,2.1,1.2,3.8v8.8h-2.4c0,0-0.1-0.3-0.3-0.8c-0.2-0.5-0.3-0.8-0.3-0.8c-0.7,0.7-1.3,1.1-2,1.4
			C703,1061.1,702.2,1061.3,701.3,1061.3z M702.1,1059c0.7,0,1.4-0.2,1.9-0.5c0.5-0.4,0.9-0.8,1.2-1.3v-2.6c0,0-0.2,0-0.6,0
			c-0.4,0-0.6,0-0.7,0c-1.3,0.1-2.2,0.4-2.8,0.7s-0.9,1-0.9,1.8c0,0.6,0.2,1,0.5,1.3C701,1058.9,701.5,1059,702.1,1059z"/>
		<path class="st15" d="M712.5,1061v-11.3h-2.1l0.2-1.9l1.9-0.2v-0.7c0-0.8,0.1-1.5,0.2-2.1c0.2-0.6,0.4-1.1,0.7-1.5
			s0.8-0.7,1.4-0.9c0.6-0.2,1.3-0.3,2.1-0.3c0.8,0,1.6,0.1,2.5,0.2l-0.3,2.4c-0.7-0.1-1.2-0.1-1.6-0.1c-0.7,0-1.2,0.2-1.5,0.5
			c-0.3,0.3-0.4,0.9-0.4,1.6v0.9h3.2v2.1h-3.2v11.3H712.5z"/>
	</g>
	<g>
		<path class="st15" d="M1106.5,1061v-17.9h3.3v15.2h7.5l-0.1,2.6H1106.5z"/>
		<path class="st15" d="M1125.5,1061.3c-2.2,0-3.8-0.6-5-1.9c-1.2-1.2-1.8-3-1.8-5.1c0-2.1,0.6-3.8,1.7-5.1s2.7-1.9,4.6-1.9
			c1.8,0,3.3,0.6,4.3,1.7c1,1.2,1.5,2.7,1.5,4.6c0,0.1,0,0.4,0,0.7s0,0.5,0,0.7h-8.9c0,1.3,0.4,2.2,1,2.9c0.7,0.7,1.6,1,2.7,1
			c1.5,0,2.9-0.4,4.2-1.1l0.5,2.3C1128.9,1060.9,1127.3,1061.3,1125.5,1061.3z M1121.9,1053h5.9c0-1.1-0.2-1.9-0.7-2.5
			c-0.5-0.6-1.2-0.9-2.1-0.9c-0.8,0-1.5,0.3-2.1,0.9C1122.3,1051,1122,1051.8,1121.9,1053z"/>
		<path class="st15" d="M1136.9,1061.3c-1.2,0-2.3-0.3-3-1c-0.8-0.7-1.2-1.7-1.2-3c0-1.4,0.5-2.4,1.4-3.1c0.9-0.7,2.3-1.1,4.1-1.3
			c0.3,0,0.5-0.1,0.8-0.1c0.3,0,0.6-0.1,1-0.1c0.4,0,0.7-0.1,0.9-0.1v-0.7c0-0.8-0.2-1.4-0.6-1.8c-0.4-0.4-0.9-0.6-1.7-0.6
			c-1.1,0-2.4,0.3-4,0.9c0,0-0.1-0.4-0.4-1.1c-0.3-0.7-0.4-1.1-0.4-1.1c1.6-0.7,3.3-1,5.1-1c1.8,0,3.1,0.4,3.9,1.2
			c0.8,0.8,1.2,2.1,1.2,3.8v8.8h-2.4c0,0-0.1-0.3-0.3-0.8c-0.2-0.5-0.3-0.8-0.3-0.8c-0.7,0.7-1.3,1.1-2,1.4
			C1138.6,1061.1,1137.9,1061.3,1136.9,1061.3z M1137.8,1059c0.7,0,1.4-0.2,1.9-0.5c0.5-0.4,0.9-0.8,1.2-1.3v-2.6c0,0-0.2,0-0.6,0
			c-0.4,0-0.6,0-0.7,0c-1.3,0.1-2.2,0.4-2.8,0.7s-0.9,1-0.9,1.8c0,0.6,0.2,1,0.5,1.3C1136.7,1058.9,1137.2,1059,1137.8,1059z"/>
		<path class="st15" d="M1148.2,1061v-11.3h-2.1l0.2-1.9l1.9-0.2v-0.7c0-0.8,0.1-1.5,0.2-2.1c0.2-0.6,0.4-1.1,0.7-1.5
			s0.8-0.7,1.4-0.9c0.6-0.2,1.3-0.3,2.1-0.3c0.8,0,1.6,0.1,2.5,0.2l-0.3,2.4c-0.7-0.1-1.2-0.1-1.6-0.1c-0.7,0-1.2,0.2-1.5,0.5
			c-0.3,0.3-0.4,0.9-0.4,1.6v0.9h3.2v2.1h-3.2v11.3H1148.2z"/>
	</g>
	<g>
		<path class="st15" d="M1323.8,1061v-17.9h3.3v15.2h7.5l-0.1,2.6H1323.8z"/>
		<path class="st15" d="M1342.8,1061.3c-2.2,0-3.8-0.6-5-1.9c-1.2-1.2-1.8-3-1.8-5.1c0-2.1,0.6-3.8,1.7-5.1s2.7-1.9,4.6-1.9
			c1.8,0,3.3,0.6,4.3,1.7c1,1.2,1.5,2.7,1.5,4.6c0,0.1,0,0.4,0,0.7s0,0.5,0,0.7h-8.9c0,1.3,0.4,2.2,1,2.9c0.7,0.7,1.6,1,2.7,1
			c1.5,0,2.9-0.4,4.2-1.1l0.5,2.3C1346.2,1060.9,1344.6,1061.3,1342.8,1061.3z M1339.2,1053h5.9c0-1.1-0.2-1.9-0.7-2.5
			c-0.5-0.6-1.2-0.9-2.1-0.9c-0.8,0-1.5,0.3-2.1,0.9C1339.6,1051,1339.3,1051.8,1339.2,1053z"/>
		<path class="st15" d="M1354.2,1061.3c-1.2,0-2.3-0.3-3-1c-0.8-0.7-1.2-1.7-1.2-3c0-1.4,0.5-2.4,1.4-3.1c0.9-0.7,2.3-1.1,4.1-1.3
			c0.3,0,0.5-0.1,0.8-0.1c0.3,0,0.6-0.1,1-0.1c0.4,0,0.7-0.1,0.9-0.1v-0.7c0-0.8-0.2-1.4-0.6-1.8c-0.4-0.4-0.9-0.6-1.7-0.6
			c-1.1,0-2.4,0.3-4,0.9c0,0-0.1-0.4-0.4-1.1c-0.3-0.7-0.4-1.1-0.4-1.1c1.6-0.7,3.3-1,5.1-1c1.8,0,3.1,0.4,3.9,1.2
			c0.8,0.8,1.2,2.1,1.2,3.8v8.8h-2.4c0,0-0.1-0.3-0.3-0.8c-0.2-0.5-0.3-0.8-0.3-0.8c-0.7,0.7-1.3,1.1-2,1.4
			C1355.9,1061.1,1355.1,1061.3,1354.2,1061.3z M1355.1,1059c0.7,0,1.4-0.2,1.9-0.5c0.5-0.4,0.9-0.8,1.2-1.3v-2.6c0,0-0.2,0-0.6,0
			c-0.4,0-0.6,0-0.7,0c-1.3,0.1-2.2,0.4-2.8,0.7s-0.9,1-0.9,1.8c0,0.6,0.2,1,0.5,1.3C1354,1058.9,1354.5,1059,1355.1,1059z"/>
		<path class="st15" d="M1365.5,1061v-11.3h-2.1l0.2-1.9l1.9-0.2v-0.7c0-0.8,0.1-1.5,0.2-2.1c0.2-0.6,0.4-1.1,0.7-1.5
			s0.8-0.7,1.4-0.9c0.6-0.2,1.3-0.3,2.1-0.3c0.8,0,1.6,0.1,2.5,0.2l-0.3,2.4c-0.7-0.1-1.2-0.1-1.6-0.1c-0.7,0-1.2,0.2-1.5,0.5
			c-0.3,0.3-0.4,0.9-0.4,1.6v0.9h3.2v2.1h-3.2v11.3H1365.5z"/>
	</g>
	<line class="st25" x1="589" y1="332.8" x2="802.5" y2="289.2"/>
	<line class="st25" x1="802.5" y1="289.2" x2="1016.2" y2="332.8"/>
	<g>
		<line class="st25" x1="1016.2" y1="517.3" x2="1345.2" y2="583"/>
		<line class="st25" x1="1016.2" y1="517.3" x2="1128.1" y2="583"/>
	</g>
	<g>
		<line class="st25" x1="589.6" y1="517.3" x2="260.7" y2="583.8"/>
		<line class="st25" x1="589.6" y1="517.3" x2="477.7" y2="583.8"/>
	</g>
	<line class="st25" x1="802.5" y1="289.2" x2="802.5" y2="332.8"/>
	<line class="st25" x1="802.5" y1="517.3" x2="911.1" y2="583"/>
	<line class="st25" x1="694.6" y1="583" x2="802.5" y2="517.3"/>
	<line class="st25" x1="1128.1" y1="766.6" x2="1128.1" y2="835"/>
	<line class="st25" x1="694.6" y1="766.6" x2="694.6" y2="835"/>
	<line class="st25" x1="260.6" y1="766.6" x2="260.6" y2="835"/>
	<line class="st25" x1="1345.2" y1="766.6" x2="1345.2" y2="835"/>
	<g>
		<line class="st24" x1="301.1" y1="913.4" x2="325" y2="937.3"/>
		<line class="st24" x1="301.1" y1="937.3" x2="324.9" y2="913.4"/>
	</g>
	<g>
		<line class="st24" x1="734.3" y1="913.4" x2="758.2" y2="937.3"/>
		<line class="st24" x1="734.3" y1="937.3" x2="758.2" y2="913.4"/>
	</g>
	<g>
		<line class="st24" x1="1333.2" y1="862.4" x2="1357.1" y2="886.3"/>
		<line class="st24" x1="1333.2" y1="886.3" x2="1357.1" y2="862.4"/>
	</g>
	<g>
		<line class="st24" x1="1170.9" y1="865.2" x2="1194.7" y2="889.1"/>
		<line class="st24" x1="1170.8" y1="889.1" x2="1194.7" y2="865.2"/>
	</g>
	<line class="st28" x1="400.3" y1="675.4" x2="554.8" y2="675.4"/>
	<line class="st28" x1="833.9" y1="675.4" x2="988.4" y2="675.4"/>
	<circle class="st4" cx="1128.1" cy="626.3" r="13.7"/>
</g>
</svg>
