<?xml version="1.0" encoding="UTF-8" standalone="no"?>
<!-- Generator: Adobe Illustrator 22.1.0, SVG Export Plug-In . SVG Version: 6.00 Build 0)  -->

<svg
   xmlns:dc="http://purl.org/dc/elements/1.1/"
   xmlns:cc="http://creativecommons.org/ns#"
   xmlns:rdf="http://www.w3.org/1999/02/22-rdf-syntax-ns#"
   xmlns:svg="http://www.w3.org/2000/svg"
   xmlns="http://www.w3.org/2000/svg"
   xmlns:sodipodi="http://sodipodi.sourceforge.net/DTD/sodipodi-0.dtd"
   xmlns:inkscape="http://www.inkscape.org/namespaces/inkscape"
   version="1.1"
   x="0px"
   y="0px"
   viewBox="0 0 1601.8 1125.2"
   style="enable-background:new 0 0 1601.8 1125.2;"
   xml:space="preserve"
   id="svg727"
   sodipodi:docname="tic-tac-toe-gray.svg"
   inkscape:version="0.92.3 (2405546, 2018-03-11)"><metadata
   id="metadata733"><rdf:RDF><cc:Work
       rdf:about=""><dc:format>image/svg+xml</dc:format><dc:type
         rdf:resource="http://purl.org/dc/dcmitype/StillImage" /><dc:title></dc:title></cc:Work></rdf:RDF></metadata><defs
   id="defs731" /><sodipodi:namedview
   pagecolor="#1e181e"
   bordercolor="#666666"
   borderopacity="1"
   objecttolerance="10"
   gridtolerance="10"
   guidetolerance="10"
   inkscape:pageopacity="0"
   inkscape:pageshadow="2"
   inkscape:window-width="1280"
   inkscape:window-height="657"
   id="namedview729"
   showgrid="false"
   inkscape:zoom="0.33208141"
   inkscape:cx="809.88385"
   inkscape:cy="526.97922"
   inkscape:window-x="-8"
   inkscape:window-y="-8"
   inkscape:window-maximized="1"
   inkscape:current-layer="svg727" />
<style
   type="text/css"
   id="style2">
	.st0{fill:#214056;}
	.st1{clip-path:url(#SVGID_2_);}
	.st2{fill:none;stroke:#FFC105;stroke-width:4;stroke-miterlimit:10;}
	.st3{clip-path:url(#SVGID_4_);}
	.st4{fill:none;stroke:#F64358;stroke-width:4;stroke-miterlimit:10;}
	.st5{fill:none;stroke:#FFC105;stroke-width:4;stroke-linecap:round;stroke-miterlimit:10;}
	.st6{fill:#4C6677;}
	.st7{fill:none;stroke:#F64358;stroke-width:5;stroke-linecap:round;stroke-miterlimit:10;}
	.st8{fill:none;stroke:#FFC105;stroke-width:5;stroke-linecap:round;stroke-miterlimit:10;}
	.st9{fill:none;stroke:#EDEDED;stroke-width:4;stroke-linecap:round;stroke-miterlimit:10;}
	.st10{fill:#37BFBA;}
	.st11{clip-path:url(#SVGID_6_);}
	.st12{clip-path:url(#SVGID_8_);}
	.st13{fill:none;stroke:#C8C8C8;stroke-linecap:round;stroke-miterlimit:10;}
	.st14{clip-path:url(#SVGID_10_);}
	.st15{fill:#EDEDED;}
	.st16{fill:#C8C8C8;}
	.st17{display:none;}
	.st18{display:inline;fill:#EDEDED;}
	.st19{fill:none;stroke:#C8C8C8;stroke-width:1.5;stroke-miterlimit:10;}
	.st20{fill:none;stroke:#EDEDED;stroke-width:6;stroke-linecap:round;stroke-miterlimit:10;}
	.st21{fill:#F64358;}
	.st22{fill:none;stroke:#FFFFFF;stroke-width:5;stroke-linecap:round;stroke-miterlimit:10;}
	.st23{fill:none;stroke:#F64358;stroke-width:4;stroke-linecap:round;stroke-miterlimit:10;}
	.st24{fill:none;stroke:#4C7EEF;stroke-width:4;stroke-linecap:round;stroke-miterlimit:10;}
	.st25{fill:none;stroke:#C8C8C8;stroke-width:4;stroke-linecap:round;stroke-miterlimit:10;}
	.st26{fill:#F28E1E;}
	.st27{fill:#F6AB3B;}
	.st28{fill:none;stroke:#214056;stroke-width:6;stroke-linecap:round;stroke-miterlimit:10;}
	.st29{fill:none;stroke:#214056;stroke-width:4;stroke-linecap:round;stroke-miterlimit:10;}
</style>
<g
   id="Layer_1">
</g>
<g
   id="Layer_2">
</g>
<g
   id="Type">
</g>
<g
   id="Layer_4">
</g>
<g
   id="Layer_5">
	<circle
   class="st6"
   cx="476.7"
   cy="677.4"
   r="104.6"
   id="circle8" />
	<circle
   class="st6"
   cx="910.3"
   cy="677.4"
   r="104.6"
   id="circle10" />
	<circle
   class="st6"
   cx="1347.1"
   cy="925.3"
   r="104.6"
   id="circle12" />
	<path
   class="st6"
   d="M882.4,271.7H720.8c-6.6,0-12-5.4-12-12V104.4c0-6.6,5.4-12,12-12h161.7c6.6,0,12,5.4,12,12v155.3   C894.4,266.3,889,271.7,882.4,271.7z"
   id="path14" />
	<g
   id="g24">
		<line
   class="st9"
   x1="724.7"
   y1="207.4"
   x2="879.2"
   y2="207.4"
   id="line16" />
		<line
   class="st9"
   x1="724.7"
   y1="156.8"
   x2="879.2"
   y2="156.8"
   id="line18" />
		<line
   class="st9"
   x1="775.6"
   y1="108.3"
   x2="775.6"
   y2="256"
   id="line20" />
		<line
   class="st9"
   x1="828.6"
   y1="108.3"
   x2="828.6"
   y2="256"
   id="line22" />
	</g>
	<circle
   class="st2"
   cx="802"
   cy="182.1"
   r="13.7"
   id="circle26" />
	<circle
   class="st2"
   cx="856.5"
   cy="234.6"
   r="13.7"
   id="circle28" />
	<circle
   class="st4"
   cx="529.1"
   cy="675.4"
   r="13.7"
   id="circle30" />
	<circle
   class="st4"
   cx="315.2"
   cy="626.3"
   r="13.7"
   id="circle32" />
	<circle
   class="st4"
   cx="694.5"
   cy="626.3"
   r="13.7"
   id="circle34" />
	<circle
   class="st4"
   cx="1397.3"
   cy="626.3"
   r="13.7"
   id="circle36" />
	<circle
   class="st4"
   cx="963.9"
   cy="675.4"
   r="13.7"
   id="circle38" />
	<circle
   class="st2"
   cx="749.6"
   cy="182.1"
   r="13.7"
   id="circle40" />
	<g
   id="g46">
		<line
   class="st5"
   x1="790.1"
   y1="221.8"
   x2="813.9"
   y2="245.7"
   id="line42" />
		<line
   class="st5"
   x1="790"
   y1="245.7"
   x2="813.9"
   y2="221.8"
   id="line44" />
	</g>
	<g
   id="g52">
		<line
   class="st24"
   x1="843.5"
   y1="363.2"
   x2="867.3"
   y2="387.1"
   id="line48" />
		<line
   class="st24"
   x1="843.5"
   y1="387.1"
   x2="867.3"
   y2="363.2"
   id="line50" />
	</g>
	<g
   id="g58">
		<line
   class="st24"
   x1="1055"
   y1="413.2"
   x2="1078.9"
   y2="437"
   id="line54" />
		<line
   class="st24"
   x1="1055"
   y1="437"
   x2="1078.9"
   y2="413.2"
   id="line56" />
	</g>
	<g
   id="g64">
		<line
   class="st24"
   x1="577.1"
   y1="363.2"
   x2="601"
   y2="387.1"
   id="line60" />
		<line
   class="st24"
   x1="577.1"
   y1="387.1"
   x2="601"
   y2="363.2"
   id="line62" />
	</g>
	<g
   id="g70">
		<line
   class="st5"
   x1="737.7"
   y1="221.8"
   x2="761.5"
   y2="245.7"
   id="line66" />
		<line
   class="st5"
   x1="737.7"
   y1="245.7"
   x2="761.5"
   y2="221.8"
   id="line68" />
	</g>
	<g
   id="g76">
		<line
   class="st5"
   x1="737.7"
   y1="121.2"
   x2="761.5"
   y2="145.1"
   id="line72" />
		<line
   class="st5"
   x1="737.7"
   y1="145.1"
   x2="761.5"
   y2="121.2"
   id="line74" />
	</g>
	<g
   id="g86">
		<line
   class="st9"
   x1="724.7"
   y1="449.4"
   x2="879.2"
   y2="449.4"
   id="line78" />
		<line
   class="st9"
   x1="724.7"
   y1="398.8"
   x2="879.2"
   y2="398.8"
   id="line80" />
		<line
   class="st9"
   x1="775.6"
   y1="350.3"
   x2="775.6"
   y2="498"
   id="line82" />
		<line
   class="st9"
   x1="828.6"
   y1="350.3"
   x2="828.6"
   y2="498"
   id="line84" />
	</g>
	<circle
   class="st2"
   cx="802"
   cy="424.2"
   r="13.7"
   id="circle88" />
	<circle
   class="st2"
   cx="856.5"
   cy="476.6"
   r="13.7"
   id="circle90" />
	<circle
   class="st2"
   cx="749.6"
   cy="424.2"
   r="13.7"
   id="circle92" />
	<g
   id="g98">
		<line
   class="st5"
   x1="790.1"
   y1="463.8"
   x2="813.9"
   y2="487.7"
   id="line94" />
		<line
   class="st5"
   x1="790"
   y1="487.7"
   x2="813.9"
   y2="463.8"
   id="line96" />
	</g>
	<g
   id="g104">
		<line
   class="st5"
   x1="737.7"
   y1="463.8"
   x2="761.5"
   y2="487.7"
   id="line100" />
		<line
   class="st5"
   x1="737.7"
   y1="487.7"
   x2="761.5"
   y2="463.8"
   id="line102" />
	</g>
	<g
   id="g110">
		<line
   class="st5"
   x1="737.7"
   y1="363.2"
   x2="761.5"
   y2="387.1"
   id="line106" />
		<line
   class="st5"
   x1="737.7"
   y1="387.1"
   x2="761.5"
   y2="363.2"
   id="line108" />
	</g>
	<g
   id="g120">
		<line
   class="st9"
   x1="512.1"
   y1="449.4"
   x2="666.6"
   y2="449.4"
   id="line112" />
		<line
   class="st9"
   x1="512.1"
   y1="398.8"
   x2="666.6"
   y2="398.8"
   id="line114" />
		<line
   class="st9"
   x1="563"
   y1="350.3"
   x2="563"
   y2="498"
   id="line116" />
		<line
   class="st9"
   x1="615.9"
   y1="350.3"
   x2="615.9"
   y2="498"
   id="line118" />
	</g>
	<circle
   class="st2"
   cx="589.4"
   cy="424.2"
   r="13.7"
   id="circle122" />
	<circle
   class="st2"
   cx="643.9"
   cy="476.6"
   r="13.7"
   id="circle124" />
	<circle
   class="st2"
   cx="537"
   cy="424.2"
   r="13.7"
   id="circle126" />
	<g
   id="g132">
		<line
   class="st5"
   x1="577.4"
   y1="463.8"
   x2="601.3"
   y2="487.7"
   id="line128" />
		<line
   class="st5"
   x1="577.4"
   y1="487.7"
   x2="601.3"
   y2="463.8"
   id="line130" />
	</g>
	<g
   id="g138">
		<line
   class="st5"
   x1="525.1"
   y1="463.8"
   x2="548.9"
   y2="487.7"
   id="line134" />
		<line
   class="st5"
   x1="525"
   y1="487.7"
   x2="548.9"
   y2="463.8"
   id="line136" />
	</g>
	<g
   id="g144">
		<line
   class="st5"
   x1="525.1"
   y1="363.2"
   x2="548.9"
   y2="387.1"
   id="line140" />
		<line
   class="st5"
   x1="525"
   y1="387.1"
   x2="548.9"
   y2="363.2"
   id="line142" />
	</g>
	<g
   id="g154">
		<line
   class="st9"
   x1="939"
   y1="449.4"
   x2="1093.5"
   y2="449.4"
   id="line146" />
		<line
   class="st9"
   x1="939"
   y1="398.8"
   x2="1093.5"
   y2="398.8"
   id="line148" />
		<line
   class="st9"
   x1="989.9"
   y1="350.3"
   x2="989.9"
   y2="498"
   id="line150" />
		<line
   class="st9"
   x1="1042.9"
   y1="350.3"
   x2="1042.9"
   y2="498"
   id="line152" />
	</g>
	<circle
   class="st2"
   cx="1016.3"
   cy="424.2"
   r="13.7"
   id="circle156" />
	<circle
   class="st2"
   cx="1070.8"
   cy="476.6"
   r="13.7"
   id="circle158" />
	<circle
   class="st2"
   cx="963.9"
   cy="424.2"
   r="13.7"
   id="circle160" />
	<g
   id="g166">
		<line
   class="st5"
   x1="1004.4"
   y1="463.8"
   x2="1028.2"
   y2="487.7"
   id="line162" />
		<line
   class="st5"
   x1="1004.4"
   y1="487.7"
   x2="1028.2"
   y2="463.8"
   id="line164" />
	</g>
	<g
   id="g172">
		<line
   class="st5"
   x1="952"
   y1="463.8"
   x2="975.9"
   y2="487.7"
   id="line168" />
		<line
   class="st5"
   x1="952"
   y1="487.7"
   x2="975.8"
   y2="463.8"
   id="line170" />
	</g>
	<g
   id="g178">
		<line
   class="st5"
   x1="952"
   y1="363.2"
   x2="975.9"
   y2="387.1"
   id="line174" />
		<line
   class="st5"
   x1="952"
   y1="387.1"
   x2="975.8"
   y2="363.2"
   id="line176" />
	</g>
	<g
   id="g188">
		<line
   class="st9"
   x1="616.9"
   y1="700.6"
   x2="771.4"
   y2="700.6"
   id="line180" />
		<line
   class="st9"
   x1="616.9"
   y1="650"
   x2="771.4"
   y2="650"
   id="line182" />
		<line
   class="st9"
   x1="667.8"
   y1="601.5"
   x2="667.8"
   y2="749.2"
   id="line184" />
		<line
   class="st9"
   x1="720.7"
   y1="601.5"
   x2="720.7"
   y2="749.2"
   id="line186" />
	</g>
	<circle
   class="st2"
   cx="695.1"
   cy="675.4"
   r="13.7"
   id="circle190" />
	<circle
   class="st2"
   cx="748.6"
   cy="727.8"
   r="13.7"
   id="circle192" />
	<circle
   class="st2"
   cx="641.8"
   cy="675.4"
   r="13.7"
   id="circle194" />
	<g
   id="g200">
		<line
   class="st5"
   x1="682.2"
   y1="715"
   x2="706.1"
   y2="738.9"
   id="line196" />
		<line
   class="st5"
   x1="682.2"
   y1="738.9"
   x2="706.1"
   y2="715"
   id="line198" />
	</g>
	<g
   id="g206">
		<line
   class="st5"
   x1="629.9"
   y1="715"
   x2="653.7"
   y2="738.9"
   id="line202" />
		<line
   class="st5"
   x1="629.8"
   y1="738.9"
   x2="653.7"
   y2="715"
   id="line204" />
	</g>
	<g
   id="g212">
		<line
   class="st5"
   x1="629.9"
   y1="614.4"
   x2="653.7"
   y2="638.3"
   id="line208" />
		<line
   class="st5"
   x1="629.8"
   y1="638.3"
   x2="653.7"
   y2="614.4"
   id="line210" />
	</g>
	<g
   id="g218">
		<line
   class="st5"
   x1="734.3"
   y1="614.4"
   x2="758.2"
   y2="638.3"
   id="line214" />
		<line
   class="st5"
   x1="734.3"
   y1="638.3"
   x2="758.2"
   y2="614.4"
   id="line216" />
	</g>
	<g
   id="g228">
		<line
   class="st9"
   x1="400.3"
   y1="700.6"
   x2="554.8"
   y2="700.6"
   id="line220" />
		<line
   class="st9"
   x1="400.3"
   y1="650"
   x2="554.8"
   y2="650"
   id="line222" />
		<line
   class="st9"
   x1="451.2"
   y1="601.5"
   x2="451.2"
   y2="749.2"
   id="line224" />
		<line
   class="st9"
   x1="504.1"
   y1="601.5"
   x2="504.1"
   y2="749.2"
   id="line226" />
	</g>
	<circle
   class="st2"
   cx="477.5"
   cy="675.4"
   r="13.7"
   id="circle230" />
	<circle
   class="st2"
   cx="532"
   cy="727.8"
   r="13.7"
   id="circle232" />
	<circle
   class="st2"
   cx="425.1"
   cy="675.4"
   r="13.7"
   id="circle234" />
	<g
   id="g240">
		<line
   class="st5"
   x1="465.6"
   y1="715"
   x2="489.4"
   y2="738.9"
   id="line236" />
		<line
   class="st5"
   x1="465.6"
   y1="738.9"
   x2="489.4"
   y2="715"
   id="line238" />
	</g>
	<g
   id="g246">
		<line
   class="st5"
   x1="413.2"
   y1="715"
   x2="437.1"
   y2="738.9"
   id="line242" />
		<line
   class="st5"
   x1="413.2"
   y1="738.9"
   x2="437.1"
   y2="715"
   id="line244" />
	</g>
	<g
   id="g252">
		<line
   class="st5"
   x1="413.2"
   y1="614.4"
   x2="437.1"
   y2="638.3"
   id="line248" />
		<line
   class="st5"
   x1="413.2"
   y1="638.3"
   x2="437.1"
   y2="614.4"
   id="line250" />
	</g>
	<g
   id="g258">
		<line
   class="st5"
   x1="464.8"
   y1="614.4"
   x2="488.6"
   y2="638.3"
   id="line254" />
		<line
   class="st5"
   x1="464.8"
   y1="638.3"
   x2="488.6"
   y2="614.4"
   id="line256" />
	</g>
	<g
   id="g268">
		<line
   class="st9"
   x1="833.9"
   y1="700.6"
   x2="988.4"
   y2="700.6"
   id="line260" />
		<line
   class="st9"
   x1="833.9"
   y1="650"
   x2="988.4"
   y2="650"
   id="line262" />
		<line
   class="st9"
   x1="884.8"
   y1="601.5"
   x2="884.8"
   y2="749.2"
   id="line264" />
		<line
   class="st9"
   x1="937.7"
   y1="601.5"
   x2="937.7"
   y2="749.2"
   id="line266" />
	</g>
	<circle
   class="st2"
   cx="911.1"
   cy="675.4"
   r="13.7"
   id="circle270" />
	<circle
   class="st2"
   cx="965.6"
   cy="727.8"
   r="13.7"
   id="circle272" />
	<circle
   class="st2"
   cx="858.8"
   cy="675.4"
   r="13.7"
   id="circle274" />
	<g
   id="g280">
		<line
   class="st5"
   x1="899.2"
   y1="715"
   x2="923.1"
   y2="738.9"
   id="line276" />
		<line
   class="st5"
   x1="899.2"
   y1="738.9"
   x2="923"
   y2="715"
   id="line278" />
	</g>
	<g
   id="g286">
		<line
   class="st5"
   x1="846.8"
   y1="715"
   x2="870.7"
   y2="738.9"
   id="line282" />
		<line
   class="st5"
   x1="846.8"
   y1="738.9"
   x2="870.7"
   y2="715"
   id="line284" />
	</g>
	<g
   id="g292">
		<line
   class="st5"
   x1="846.8"
   y1="614.4"
   x2="870.7"
   y2="638.3"
   id="line288" />
		<line
   class="st5"
   x1="846.8"
   y1="638.3"
   x2="870.7"
   y2="614.4"
   id="line290" />
	</g>
	<g
   id="g298">
		<line
   class="st5"
   x1="952"
   y1="614.4"
   x2="975.9"
   y2="638.3"
   id="line294" />
		<line
   class="st5"
   x1="952"
   y1="638.3"
   x2="975.8"
   y2="614.4"
   id="line296" />
	</g>
	<g
   id="g308">
		<line
   class="st9"
   x1="183.4"
   y1="700.6"
   x2="337.9"
   y2="700.6"
   id="line300" />
		<line
   class="st9"
   x1="183.4"
   y1="650"
   x2="337.9"
   y2="650"
   id="line302" />
		<line
   class="st9"
   x1="234.3"
   y1="601.5"
   x2="234.3"
   y2="749.2"
   id="line304" />
		<line
   class="st9"
   x1="287.3"
   y1="601.5"
   x2="287.3"
   y2="749.2"
   id="line306" />
	</g>
	<circle
   class="st2"
   cx="260.7"
   cy="675.4"
   r="13.7"
   id="circle310" />
	<circle
   class="st2"
   cx="315.2"
   cy="727.8"
   r="13.7"
   id="circle312" />
	<circle
   class="st2"
   cx="208.3"
   cy="675.4"
   r="13.7"
   id="circle314" />
	<g
   id="g320">
		<line
   class="st5"
   x1="248.8"
   y1="715"
   x2="272.6"
   y2="738.9"
   id="line316" />
		<line
   class="st5"
   x1="248.7"
   y1="738.9"
   x2="272.6"
   y2="715"
   id="line318" />
	</g>
	<g
   id="g326">
		<line
   class="st5"
   x1="196.4"
   y1="715"
   x2="220.2"
   y2="738.9"
   id="line322" />
		<line
   class="st5"
   x1="196.4"
   y1="738.9"
   x2="220.2"
   y2="715"
   id="line324" />
	</g>
	<g
   id="g332">
		<line
   class="st5"
   x1="196.4"
   y1="614.4"
   x2="220.2"
   y2="638.3"
   id="line328" />
		<line
   class="st5"
   x1="196.4"
   y1="638.3"
   x2="220.2"
   y2="614.4"
   id="line330" />
	</g>
	<g
   id="g338">
		<line
   class="st5"
   x1="248.8"
   y1="614.4"
   x2="272.6"
   y2="638.3"
   id="line334" />
		<line
   class="st5"
   x1="248.8"
   y1="638.3"
   x2="272.6"
   y2="614.4"
   id="line336" />
	</g>
	<g
   id="g348">
		<line
   class="st9"
   x1="1051"
   y1="700.6"
   x2="1205.5"
   y2="700.6"
   id="line340" />
		<line
   class="st9"
   x1="1051"
   y1="650"
   x2="1205.5"
   y2="650"
   id="line342" />
		<line
   class="st9"
   x1="1101.9"
   y1="601.5"
   x2="1101.9"
   y2="749.3"
   id="line344" />
		<line
   class="st9"
   x1="1154.9"
   y1="601.5"
   x2="1154.9"
   y2="749.3"
   id="line346" />
	</g>
	<circle
   class="st2"
   cx="1128.3"
   cy="675.4"
   r="13.7"
   id="circle350" />
	<circle
   class="st2"
   cx="1182.8"
   cy="727.8"
   r="13.7"
   id="circle352" />
	<circle
   class="st2"
   cx="1075.9"
   cy="675.4"
   r="13.7"
   id="circle354" />
	<g
   id="g360">
		<line
   class="st5"
   x1="1116.4"
   y1="715"
   x2="1140.2"
   y2="738.9"
   id="line356" />
		<line
   class="st5"
   x1="1116.3"
   y1="738.9"
   x2="1140.2"
   y2="715"
   id="line358" />
	</g>
	<g
   id="g366">
		<line
   class="st5"
   x1="1168.8"
   y1="665.4"
   x2="1192.6"
   y2="689.3"
   id="line362" />
		<line
   class="st5"
   x1="1168.8"
   y1="689.3"
   x2="1192.6"
   y2="665.4"
   id="line364" />
	</g>
	<g
   id="g372">
		<line
   class="st5"
   x1="1064"
   y1="715"
   x2="1087.8"
   y2="738.9"
   id="line368" />
		<line
   class="st5"
   x1="1064"
   y1="738.9"
   x2="1087.8"
   y2="715"
   id="line370" />
	</g>
	<g
   id="g378">
		<line
   class="st5"
   x1="1064"
   y1="614.5"
   x2="1087.8"
   y2="638.3"
   id="line374" />
		<line
   class="st5"
   x1="1064"
   y1="638.3"
   x2="1087.8"
   y2="614.5"
   id="line376" />
	</g>
	<g
   id="g420">
		<g
   id="g388">
			<line
   class="st9"
   x1="1267.9"
   y1="700.6"
   x2="1422.4"
   y2="700.6"
   id="line380" />
			<line
   class="st9"
   x1="1267.9"
   y1="650"
   x2="1422.4"
   y2="650"
   id="line382" />
			<line
   class="st9"
   x1="1318.8"
   y1="601.5"
   x2="1318.8"
   y2="749.2"
   id="line384" />
			<line
   class="st9"
   x1="1371.7"
   y1="601.5"
   x2="1371.7"
   y2="749.2"
   id="line386" />
		</g>
		<circle
   class="st2"
   cx="1345.1"
   cy="675.4"
   r="13.7"
   id="circle390" />
		<circle
   class="st2"
   cx="1399.6"
   cy="727.8"
   r="13.7"
   id="circle392" />
		<circle
   class="st2"
   cx="1292.8"
   cy="675.4"
   r="13.7"
   id="circle394" />
		<g
   id="g400">
			<line
   class="st5"
   x1="1333.2"
   y1="715"
   x2="1357.1"
   y2="738.9"
   id="line396" />
			<line
   class="st5"
   x1="1333.2"
   y1="738.9"
   x2="1357"
   y2="715"
   id="line398" />
		</g>
		<g
   id="g406">
			<line
   class="st5"
   x1="1385.3"
   y1="662.9"
   x2="1409.2"
   y2="686.7"
   id="line402" />
			<line
   class="st5"
   x1="1385.3"
   y1="686.7"
   x2="1409.2"
   y2="662.9"
   id="line404" />
		</g>
		<g
   id="g412">
			<line
   class="st5"
   x1="1280.8"
   y1="715"
   x2="1304.7"
   y2="738.9"
   id="line408" />
			<line
   class="st5"
   x1="1280.8"
   y1="738.9"
   x2="1304.7"
   y2="715"
   id="line410" />
		</g>
		<g
   id="g418">
			<line
   class="st5"
   x1="1280.8"
   y1="614.4"
   x2="1304.7"
   y2="638.3"
   id="line414" />
			<line
   class="st5"
   x1="1280.8"
   y1="638.3"
   x2="1304.7"
   y2="614.4"
   id="line416" />
		</g>
	</g>
	<circle
   class="st6"
   cx="1129.8"
   cy="926.3"
   r="104.6"
   id="circle422" />
	<g
   id="g432">
		<line
   class="st9"
   x1="1052.5"
   y1="952.4"
   x2="1207"
   y2="952.4"
   id="line424" />
		<line
   class="st9"
   x1="1052.5"
   y1="901.8"
   x2="1207"
   y2="901.8"
   id="line426" />
		<line
   class="st9"
   x1="1103.4"
   y1="853.3"
   x2="1103.4"
   y2="1001"
   id="line428" />
		<line
   class="st9"
   x1="1156.4"
   y1="853.3"
   x2="1156.4"
   y2="1001"
   id="line430" />
	</g>
	<circle
   class="st2"
   cx="1129.8"
   cy="927.1"
   r="13.7"
   id="circle434" />
	<circle
   class="st2"
   cx="1184.3"
   cy="979.6"
   r="13.7"
   id="circle436" />
	<circle
   class="st2"
   cx="1129.8"
   cy="877.1"
   r="13.7"
   id="circle438" />
	<circle
   class="st2"
   cx="1077.4"
   cy="927.1"
   r="13.7"
   id="circle440" />
	<g
   id="g446">
		<line
   class="st5"
   x1="1117.8"
   y1="966.8"
   x2="1141.7"
   y2="990.6"
   id="line442" />
		<line
   class="st5"
   x1="1117.8"
   y1="990.6"
   x2="1141.7"
   y2="966.8"
   id="line444" />
	</g>
	<g
   id="g452">
		<line
   class="st5"
   x1="1170.9"
   y1="917"
   x2="1194.7"
   y2="940.8"
   id="line448" />
		<line
   class="st5"
   x1="1170.8"
   y1="940.8"
   x2="1194.7"
   y2="917"
   id="line450" />
	</g>
	<g
   id="g458">
		<line
   class="st5"
   x1="1065.5"
   y1="966.8"
   x2="1089.3"
   y2="990.6"
   id="line454" />
		<line
   class="st5"
   x1="1065.5"
   y1="990.6"
   x2="1089.3"
   y2="966.8"
   id="line456" />
	</g>
	<g
   id="g464">
		<line
   class="st5"
   x1="1065.5"
   y1="866.2"
   x2="1089.3"
   y2="890.1"
   id="line460" />
		<line
   class="st5"
   x1="1065.5"
   y1="890.1"
   x2="1089.3"
   y2="866.2"
   id="line462" />
	</g>
	<circle
   class="st6"
   cx="694.1"
   cy="925.3"
   r="104.6"
   id="circle466" />
	<g
   id="g476">
		<line
   class="st9"
   x1="616.9"
   y1="951.4"
   x2="771.4"
   y2="951.4"
   id="line468" />
		<line
   class="st9"
   x1="616.9"
   y1="900.8"
   x2="771.4"
   y2="900.8"
   id="line470" />
		<line
   class="st9"
   x1="667.8"
   y1="852.3"
   x2="667.8"
   y2="1000"
   id="line472" />
		<line
   class="st9"
   x1="720.7"
   y1="852.3"
   x2="720.7"
   y2="1000"
   id="line474" />
	</g>
	<circle
   class="st2"
   cx="694.1"
   cy="926.1"
   r="13.7"
   id="circle478" />
	<circle
   class="st2"
   cx="694.1"
   cy="877.1"
   r="13.7"
   id="circle480" />
	<circle
   class="st2"
   cx="748.6"
   cy="978.6"
   r="13.7"
   id="circle482" />
	<circle
   class="st2"
   cx="641.8"
   cy="926.1"
   r="13.7"
   id="circle484" />
	<g
   id="g490">
		<line
   class="st5"
   x1="682.2"
   y1="965.8"
   x2="706.1"
   y2="989.6"
   id="line486" />
		<line
   class="st5"
   x1="682.2"
   y1="989.6"
   x2="706"
   y2="965.8"
   id="line488" />
	</g>
	<g
   id="g496">
		<line
   class="st5"
   x1="629.8"
   y1="965.8"
   x2="653.7"
   y2="989.6"
   id="line492" />
		<line
   class="st5"
   x1="629.8"
   y1="989.6"
   x2="653.7"
   y2="965.8"
   id="line494" />
	</g>
	<g
   id="g502">
		<line
   class="st5"
   x1="629.8"
   y1="865.2"
   x2="653.7"
   y2="889.1"
   id="line498" />
		<line
   class="st5"
   x1="629.8"
   y1="889.1"
   x2="653.7"
   y2="865.2"
   id="line500" />
	</g>
	<g
   id="g508">
		<line
   class="st5"
   x1="735"
   y1="865.2"
   x2="758.9"
   y2="889.1"
   id="line504" />
		<line
   class="st5"
   x1="735"
   y1="889.1"
   x2="758.9"
   y2="865.2"
   id="line506" />
	</g>
	<circle
   class="st6"
   cx="260.7"
   cy="925.3"
   r="104.6"
   id="circle510" />
	<g
   id="g520">
		<line
   class="st9"
   x1="183.4"
   y1="951.4"
   x2="337.9"
   y2="951.4"
   id="line512" />
		<line
   class="st9"
   x1="183.4"
   y1="900.8"
   x2="337.9"
   y2="900.8"
   id="line514" />
		<line
   class="st9"
   x1="234.3"
   y1="852.3"
   x2="234.3"
   y2="1000"
   id="line516" />
		<line
   class="st9"
   x1="287.2"
   y1="852.3"
   x2="287.2"
   y2="1000"
   id="line518" />
	</g>
	<circle
   class="st2"
   cx="260.6"
   cy="926.1"
   r="13.7"
   id="circle522" />
	<circle
   class="st2"
   cx="313"
   cy="877.1"
   r="13.7"
   id="circle524" />
	<circle
   class="st2"
   cx="315.1"
   cy="978.6"
   r="13.7"
   id="circle526" />
	<circle
   class="st2"
   cx="208.3"
   cy="926.1"
   r="13.7"
   id="circle528" />
	<g
   id="g534">
		<line
   class="st5"
   x1="248.7"
   y1="965.8"
   x2="272.6"
   y2="989.6"
   id="line530" />
		<line
   class="st5"
   x1="248.7"
   y1="989.6"
   x2="272.6"
   y2="965.8"
   id="line532" />
	</g>
	<g
   id="g540">
		<line
   class="st5"
   x1="196.4"
   y1="965.8"
   x2="220.2"
   y2="989.6"
   id="line536" />
		<line
   class="st5"
   x1="196.3"
   y1="989.6"
   x2="220.2"
   y2="965.8"
   id="line538" />
	</g>
	<g
   id="g546">
		<line
   class="st5"
   x1="196.4"
   y1="865.2"
   x2="220.2"
   y2="889.1"
   id="line542" />
		<line
   class="st5"
   x1="196.3"
   y1="889.1"
   x2="220.2"
   y2="865.2"
   id="line544" />
	</g>
	<g
   id="g552">
		<line
   class="st5"
   x1="248.7"
   y1="865.2"
   x2="272.6"
   y2="889.1"
   id="line548" />
		<line
   class="st5"
   x1="248.7"
   y1="889.1"
   x2="272.5"
   y2="865.2"
   id="line550" />
	</g>
	<g
   id="g562">
		<line
   class="st9"
   x1="1269.8"
   y1="951.4"
   x2="1424.3"
   y2="951.4"
   id="line554" />
		<line
   class="st9"
   x1="1269.8"
   y1="900.8"
   x2="1424.3"
   y2="900.8"
   id="line556" />
		<line
   class="st9"
   x1="1320.7"
   y1="852.3"
   x2="1320.7"
   y2="1000"
   id="line558" />
		<line
   class="st9"
   x1="1373.7"
   y1="852.3"
   x2="1373.7"
   y2="1000"
   id="line560" />
	</g>
	<circle
   class="st2"
   cx="1347.1"
   cy="926.1"
   r="13.7"
   id="circle564" />
	<circle
   class="st2"
   cx="1401.6"
   cy="978.6"
   r="13.7"
   id="circle566" />
	<circle
   class="st2"
   cx="1399.6"
   cy="877.1"
   r="13.7"
   id="circle568" />
	<circle
   class="st2"
   cx="1294.7"
   cy="926.1"
   r="13.7"
   id="circle570" />
	<g
   id="g576">
		<line
   class="st5"
   x1="1335.2"
   y1="965.8"
   x2="1359"
   y2="989.6"
   id="line572" />
		<line
   class="st5"
   x1="1335.1"
   y1="989.6"
   x2="1359"
   y2="965.8"
   id="line574" />
	</g>
	<g
   id="g582">
		<line
   class="st5"
   x1="1387.7"
   y1="917"
   x2="1411.6"
   y2="940.8"
   id="line578" />
		<line
   class="st5"
   x1="1387.7"
   y1="940.8"
   x2="1411.5"
   y2="917"
   id="line580" />
	</g>
	<g
   id="g588">
		<line
   class="st5"
   x1="1282.8"
   y1="965.8"
   x2="1306.6"
   y2="989.6"
   id="line584" />
		<line
   class="st5"
   x1="1282.8"
   y1="989.6"
   x2="1306.6"
   y2="965.8"
   id="line586" />
	</g>
	<g
   id="g594">
		<line
   class="st5"
   x1="1282.8"
   y1="865.2"
   x2="1306.6"
   y2="889.1"
   id="line590" />
		<line
   class="st5"
   x1="1282.8"
   y1="889.1"
   x2="1306.6"
   y2="865.2"
   id="line592" />
	</g>
	<g
   id="g604">
		<path
   class="st15"
   d="M775.1,77V59.1h6.6c0.9,0,1.7,0,2.3,0.1c0.7,0.1,1.3,0.2,1.9,0.4c0.6,0.2,1.1,0.5,1.5,0.9    c0.4,0.4,0.7,0.8,0.9,1.4c0.2,0.6,0.3,1.3,0.3,2.1c0,2.4-1.1,3.9-3.2,4.7c0.4,0.5,1,1.4,1.6,2.8l2.7,5.5h-3.6l-2.1-4.7    c-0.8-1.7-1.3-2.7-1.5-3c-0.1,0-0.6,0-1.4,0l-2.8,0V77H775.1z M782,66.9c1.3,0,2.2-0.2,2.7-0.7c0.6-0.5,0.8-1.2,0.8-2.2    c0-0.9-0.3-1.5-0.8-1.9c-0.6-0.4-1.4-0.6-2.6-0.6h-3.8v5.4c0.1,0,0.7,0,1.8,0S781.9,66.9,782,66.9z"
   id="path596" />
		<path
   class="st15"
   d="M797.7,77.3c-2,0-3.5-0.6-4.7-1.9c-1.1-1.3-1.7-3-1.7-5.1c0-2.2,0.6-3.9,1.7-5.1c1.1-1.2,2.7-1.9,4.8-1.9    c2,0,3.6,0.6,4.7,1.9c1.1,1.3,1.7,3,1.7,5.1c0,2.1-0.6,3.8-1.7,5.1S799.7,77.3,797.7,77.3z M797.8,74.8c1.1,0,1.9-0.4,2.4-1.2    c0.5-0.8,0.8-1.9,0.8-3.4c0-1.5-0.3-2.6-0.8-3.4s-1.4-1.2-2.5-1.2c-1.1,0-1.9,0.4-2.4,1.2c-0.5,0.8-0.8,1.9-0.8,3.4    c0,1.5,0.3,2.6,0.8,3.4C795.8,74.4,796.7,74.8,797.8,74.8z"
   id="path598" />
		<path
   class="st15"
   d="M812.6,77.3c-2,0-3.5-0.6-4.7-1.9c-1.1-1.3-1.7-3-1.7-5.1c0-2.2,0.6-3.9,1.7-5.1c1.1-1.2,2.7-1.9,4.8-1.9    c2,0,3.6,0.6,4.7,1.9c1.1,1.3,1.7,3,1.7,5.1c0,2.1-0.6,3.8-1.7,5.1S814.6,77.3,812.6,77.3z M812.7,74.8c1.1,0,1.9-0.4,2.4-1.2    c0.5-0.8,0.8-1.9,0.8-3.4c0-1.5-0.3-2.6-0.8-3.4s-1.4-1.2-2.5-1.2c-1.1,0-1.9,0.4-2.4,1.2c-0.5,0.8-0.8,1.9-0.8,3.4    c0,1.5,0.3,2.6,0.8,3.4C810.8,74.4,811.6,74.8,812.7,74.8z"
   id="path600" />
		<path
   class="st15"
   d="M827.1,77.2c-0.9,0-1.7-0.1-2.3-0.3c-0.6-0.2-1.1-0.6-1.4-1c-0.3-0.5-0.6-1-0.7-1.6    c-0.1-0.6-0.2-1.4-0.2-2.3v-6.3h-2.2l0.1-1.7l2.3-0.2l1-3.6l2,0v3.6h3.3v1.9h-3.3v6.4c0,1,0.1,1.7,0.4,2.2s0.8,0.6,1.6,0.6    c0.5,0,1,0,1.5-0.1l0.1,2.3c0,0-0.1,0-0.3,0.1c-0.2,0-0.4,0.1-0.5,0.1c-0.2,0-0.4,0.1-0.6,0.1S827.3,77.2,827.1,77.2z"
   id="path602" />
	</g>
	<g
   id="g614">
		<path
   class="st15"
   d="M453.4,813.7v-17.9h3.3v15.2h7.5l-0.1,2.6H453.4z"
   id="path606" />
		<path
   class="st15"
   d="M472.4,814c-2.2,0-3.8-0.6-5-1.9c-1.2-1.2-1.8-3-1.8-5.1c0-2.1,0.6-3.8,1.7-5.1s2.7-1.9,4.6-1.9    c1.8,0,3.3,0.6,4.3,1.7c1,1.2,1.5,2.7,1.5,4.6c0,0.1,0,0.4,0,0.7c0,0.3,0,0.5,0,0.7h-8.9c0,1.3,0.4,2.2,1,2.9c0.7,0.7,1.6,1,2.7,1    c1.5,0,2.9-0.4,4.2-1.1l0.5,2.3C475.9,813.6,474.3,814,472.4,814z M468.9,805.6h5.9c0-1.1-0.2-1.9-0.7-2.5    c-0.5-0.6-1.2-0.9-2.1-0.9c-0.8,0-1.5,0.3-2.1,0.9C469.3,803.7,468.9,804.5,468.9,805.6z"
   id="path608" />
		<path
   class="st15"
   d="M483.9,814c-1.2,0-2.3-0.3-3-1c-0.8-0.7-1.2-1.7-1.2-3c0-1.4,0.5-2.4,1.4-3.1c0.9-0.7,2.3-1.1,4.1-1.3    c0.3,0,0.5-0.1,0.8-0.1s0.6-0.1,1-0.1c0.4,0,0.7-0.1,0.9-0.1v-0.7c0-0.8-0.2-1.4-0.6-1.8c-0.4-0.4-0.9-0.6-1.7-0.6    c-1.1,0-2.4,0.3-4,0.9c0,0-0.1-0.4-0.4-1.1s-0.4-1.1-0.4-1.1c1.6-0.7,3.3-1,5.1-1c1.8,0,3.1,0.4,3.9,1.2s1.2,2.1,1.2,3.8v8.8h-2.4    c0,0-0.1-0.3-0.3-0.8c-0.2-0.5-0.3-0.8-0.3-0.8c-0.7,0.7-1.3,1.1-2,1.4C485.6,813.8,484.8,814,483.9,814z M484.7,811.7    c0.7,0,1.4-0.2,1.9-0.5c0.5-0.4,0.9-0.8,1.2-1.3v-2.6c0,0-0.2,0-0.6,0c-0.4,0-0.6,0-0.7,0c-1.3,0.1-2.2,0.4-2.8,0.7    c-0.6,0.4-0.9,1-0.9,1.8c0,0.6,0.2,1,0.5,1.3C483.6,811.5,484.1,811.7,484.7,811.7z"
   id="path610" />
		<path
   class="st15"
   d="M495.1,813.7v-11.3H493l0.2-1.9l1.9-0.2v-0.7c0-0.8,0.1-1.5,0.2-2.1c0.2-0.6,0.4-1.1,0.7-1.5    c0.3-0.4,0.8-0.7,1.4-0.9c0.6-0.2,1.3-0.3,2.1-0.3c0.8,0,1.6,0.1,2.5,0.2l-0.3,2.4c-0.7-0.1-1.2-0.1-1.6-0.1    c-0.7,0-1.2,0.2-1.5,0.5s-0.4,0.9-0.4,1.6v0.9h3.2v2.1h-3.2v11.3H495.1z"
   id="path612" />
	</g>
	<g
   id="g624">
		<path
   class="st15"
   d="M887.9,813.7v-17.9h3.3v15.2h7.5l-0.1,2.6H887.9z"
   id="path616" />
		<path
   class="st15"
   d="M906.8,814c-2.2,0-3.8-0.6-5-1.9c-1.2-1.2-1.8-3-1.8-5.1c0-2.1,0.6-3.8,1.7-5.1s2.7-1.9,4.6-1.9    c1.8,0,3.3,0.6,4.3,1.7c1,1.2,1.5,2.7,1.5,4.6c0,0.1,0,0.4,0,0.7c0,0.3,0,0.5,0,0.7h-8.9c0,1.3,0.4,2.2,1,2.9c0.7,0.7,1.6,1,2.7,1    c1.5,0,2.9-0.4,4.2-1.1l0.5,2.3C910.3,813.6,908.7,814,906.8,814z M903.3,805.6h5.9c0-1.1-0.2-1.9-0.7-2.5    c-0.5-0.6-1.2-0.9-2.1-0.9c-0.8,0-1.5,0.3-2.1,0.9C903.7,803.7,903.4,804.5,903.3,805.6z"
   id="path618" />
		<path
   class="st15"
   d="M918.3,814c-1.2,0-2.3-0.3-3-1c-0.8-0.7-1.2-1.7-1.2-3c0-1.4,0.5-2.4,1.4-3.1c0.9-0.7,2.3-1.1,4.1-1.3    c0.3,0,0.5-0.1,0.8-0.1s0.6-0.1,1-0.1c0.4,0,0.7-0.1,0.9-0.1v-0.7c0-0.8-0.2-1.4-0.6-1.8c-0.4-0.4-0.9-0.6-1.7-0.6    c-1.1,0-2.4,0.3-4,0.9c0,0-0.1-0.4-0.4-1.1s-0.4-1.1-0.4-1.1c1.6-0.7,3.3-1,5.1-1c1.8,0,3.1,0.4,3.9,1.2s1.2,2.1,1.2,3.8v8.8h-2.4    c0,0-0.1-0.3-0.3-0.8c-0.2-0.5-0.3-0.8-0.3-0.8c-0.7,0.7-1.3,1.1-2,1.4C920,813.8,919.2,814,918.3,814z M919.2,811.7    c0.7,0,1.4-0.2,1.9-0.5c0.5-0.4,0.9-0.8,1.2-1.3v-2.6c0,0-0.2,0-0.6,0c-0.4,0-0.6,0-0.7,0c-1.3,0.1-2.2,0.4-2.8,0.7    c-0.6,0.4-0.9,1-0.9,1.8c0,0.6,0.2,1,0.5,1.3C918.1,811.5,918.5,811.7,919.2,811.7z"
   id="path620" />
		<path
   class="st15"
   d="M929.6,813.7v-11.3h-2.1l0.2-1.9l1.9-0.2v-0.7c0-0.8,0.1-1.5,0.2-2.1c0.2-0.6,0.4-1.1,0.7-1.5    c0.3-0.4,0.8-0.7,1.4-0.9c0.6-0.2,1.3-0.3,2.1-0.3c0.8,0,1.6,0.1,2.5,0.2l-0.3,2.4c-0.7-0.1-1.2-0.1-1.6-0.1    c-0.7,0-1.2,0.2-1.5,0.5s-0.4,0.9-0.4,1.6v0.9h3.2v2.1h-3.2v11.3H929.6z"
   id="path622" />
	</g>
	<g
   id="g634">
		<path
   class="st15"
   d="M237.4,1061v-17.9h3.3v15.2h7.5l-0.1,2.6H237.4z"
   id="path626" />
		<path
   class="st15"
   d="M256.3,1061.3c-2.2,0-3.8-0.6-5-1.9c-1.2-1.2-1.8-3-1.8-5.1c0-2.1,0.6-3.8,1.7-5.1s2.7-1.9,4.6-1.9    c1.8,0,3.3,0.6,4.3,1.7c1,1.2,1.5,2.7,1.5,4.6c0,0.1,0,0.4,0,0.7s0,0.5,0,0.7h-8.9c0,1.3,0.4,2.2,1,2.9c0.7,0.7,1.6,1,2.7,1    c1.5,0,2.9-0.4,4.2-1.1l0.5,2.3C259.8,1060.9,258.2,1061.3,256.3,1061.3z M252.8,1053h5.9c0-1.1-0.2-1.9-0.7-2.5    c-0.5-0.6-1.2-0.9-2.1-0.9c-0.8,0-1.5,0.3-2.1,0.9C253.2,1051,252.9,1051.8,252.8,1053z"
   id="path628" />
		<path
   class="st15"
   d="M267.8,1061.3c-1.2,0-2.3-0.3-3-1c-0.8-0.7-1.2-1.7-1.2-3c0-1.4,0.5-2.4,1.4-3.1c0.9-0.7,2.3-1.1,4.1-1.3    c0.3,0,0.5-0.1,0.8-0.1c0.3,0,0.6-0.1,1-0.1c0.4,0,0.7-0.1,0.9-0.1v-0.7c0-0.8-0.2-1.4-0.6-1.8c-0.4-0.4-0.9-0.6-1.7-0.6    c-1.1,0-2.4,0.3-4,0.9c0,0-0.1-0.4-0.4-1.1c-0.3-0.7-0.4-1.1-0.4-1.1c1.6-0.7,3.3-1,5.1-1c1.8,0,3.1,0.4,3.9,1.2    c0.8,0.8,1.2,2.1,1.2,3.8v8.8h-2.4c0,0-0.1-0.3-0.3-0.8c-0.2-0.5-0.3-0.8-0.3-0.8c-0.7,0.7-1.3,1.1-2,1.4    C269.5,1061.1,268.7,1061.3,267.8,1061.3z M268.7,1059c0.7,0,1.4-0.2,1.9-0.5c0.5-0.4,0.9-0.8,1.2-1.3v-2.6c0,0-0.2,0-0.6,0    c-0.4,0-0.6,0-0.7,0c-1.3,0.1-2.2,0.4-2.8,0.7s-0.9,1-0.9,1.8c0,0.6,0.2,1,0.5,1.3C267.6,1058.9,268,1059,268.7,1059z"
   id="path630" />
		<path
   class="st15"
   d="M279,1061v-11.3h-2.1l0.2-1.9l1.9-0.2v-0.7c0-0.8,0.1-1.5,0.2-2.1c0.2-0.6,0.4-1.1,0.7-1.5s0.8-0.7,1.4-0.9    c0.6-0.2,1.3-0.3,2.1-0.3c0.8,0,1.6,0.1,2.5,0.2l-0.3,2.4c-0.7-0.1-1.2-0.1-1.6-0.1c-0.7,0-1.2,0.2-1.5,0.5    c-0.3,0.3-0.4,0.9-0.4,1.6v0.9h3.2v2.1h-3.2v11.3H279z"
   id="path632" />
	</g>
	<g
   id="g644">
		<path
   class="st15"
   d="M670.8,1061v-17.9h3.3v15.2h7.5l-0.1,2.6H670.8z"
   id="path636" />
		<path
   class="st15"
   d="M689.8,1061.3c-2.2,0-3.8-0.6-5-1.9c-1.2-1.2-1.8-3-1.8-5.1c0-2.1,0.6-3.8,1.7-5.1s2.7-1.9,4.6-1.9    c1.8,0,3.3,0.6,4.3,1.7c1,1.2,1.5,2.7,1.5,4.6c0,0.1,0,0.4,0,0.7s0,0.5,0,0.7h-8.9c0,1.3,0.4,2.2,1,2.9c0.7,0.7,1.6,1,2.7,1    c1.5,0,2.9-0.4,4.2-1.1l0.5,2.3C693.3,1060.9,691.7,1061.3,689.8,1061.3z M686.3,1053h5.9c0-1.1-0.2-1.9-0.7-2.5    c-0.5-0.6-1.2-0.9-2.1-0.9c-0.8,0-1.5,0.3-2.1,0.9C686.7,1051,686.3,1051.8,686.3,1053z"
   id="path638" />
		<path
   class="st15"
   d="M701.3,1061.3c-1.2,0-2.3-0.3-3-1c-0.8-0.7-1.2-1.7-1.2-3c0-1.4,0.5-2.4,1.4-3.1c0.9-0.7,2.3-1.1,4.1-1.3    c0.3,0,0.5-0.1,0.8-0.1c0.3,0,0.6-0.1,1-0.1c0.4,0,0.7-0.1,0.9-0.1v-0.7c0-0.8-0.2-1.4-0.6-1.8c-0.4-0.4-0.9-0.6-1.7-0.6    c-1.1,0-2.4,0.3-4,0.9c0,0-0.1-0.4-0.4-1.1c-0.3-0.7-0.4-1.1-0.4-1.1c1.6-0.7,3.3-1,5.1-1c1.8,0,3.1,0.4,3.9,1.2    c0.8,0.8,1.2,2.1,1.2,3.8v8.8h-2.4c0,0-0.1-0.3-0.3-0.8c-0.2-0.5-0.3-0.8-0.3-0.8c-0.7,0.7-1.3,1.1-2,1.4    C703,1061.1,702.2,1061.3,701.3,1061.3z M702.1,1059c0.7,0,1.4-0.2,1.9-0.5c0.5-0.4,0.9-0.8,1.2-1.3v-2.6c0,0-0.2,0-0.6,0    c-0.4,0-0.6,0-0.7,0c-1.3,0.1-2.2,0.4-2.8,0.7s-0.9,1-0.9,1.8c0,0.6,0.2,1,0.5,1.3C701,1058.9,701.5,1059,702.1,1059z"
   id="path640" />
		<path
   class="st15"
   d="M712.5,1061v-11.3h-2.1l0.2-1.9l1.9-0.2v-0.7c0-0.8,0.1-1.5,0.2-2.1c0.2-0.6,0.4-1.1,0.7-1.5    s0.8-0.7,1.4-0.9c0.6-0.2,1.3-0.3,2.1-0.3c0.8,0,1.6,0.1,2.5,0.2l-0.3,2.4c-0.7-0.1-1.2-0.1-1.6-0.1c-0.7,0-1.2,0.2-1.5,0.5    c-0.3,0.3-0.4,0.9-0.4,1.6v0.9h3.2v2.1h-3.2v11.3H712.5z"
   id="path642" />
	</g>
	<g
   id="g654">
		<path
   class="st15"
   d="M1106.5,1061v-17.9h3.3v15.2h7.5l-0.1,2.6H1106.5z"
   id="path646" />
		<path
   class="st15"
   d="M1125.5,1061.3c-2.2,0-3.8-0.6-5-1.9c-1.2-1.2-1.8-3-1.8-5.1c0-2.1,0.6-3.8,1.7-5.1s2.7-1.9,4.6-1.9    c1.8,0,3.3,0.6,4.3,1.7c1,1.2,1.5,2.7,1.5,4.6c0,0.1,0,0.4,0,0.7s0,0.5,0,0.7h-8.9c0,1.3,0.4,2.2,1,2.9c0.7,0.7,1.6,1,2.7,1    c1.5,0,2.9-0.4,4.2-1.1l0.5,2.3C1128.9,1060.9,1127.3,1061.3,1125.5,1061.3z M1121.9,1053h5.9c0-1.1-0.2-1.9-0.7-2.5    c-0.5-0.6-1.2-0.9-2.1-0.9c-0.8,0-1.5,0.3-2.1,0.9C1122.3,1051,1122,1051.8,1121.9,1053z"
   id="path648" />
		<path
   class="st15"
   d="M1136.9,1061.3c-1.2,0-2.3-0.3-3-1c-0.8-0.7-1.2-1.7-1.2-3c0-1.4,0.5-2.4,1.4-3.1c0.9-0.7,2.3-1.1,4.1-1.3    c0.3,0,0.5-0.1,0.8-0.1c0.3,0,0.6-0.1,1-0.1c0.4,0,0.7-0.1,0.9-0.1v-0.7c0-0.8-0.2-1.4-0.6-1.8c-0.4-0.4-0.9-0.6-1.7-0.6    c-1.1,0-2.4,0.3-4,0.9c0,0-0.1-0.4-0.4-1.1c-0.3-0.7-0.4-1.1-0.4-1.1c1.6-0.7,3.3-1,5.1-1c1.8,0,3.1,0.4,3.9,1.2    c0.8,0.8,1.2,2.1,1.2,3.8v8.8h-2.4c0,0-0.1-0.3-0.3-0.8c-0.2-0.5-0.3-0.8-0.3-0.8c-0.7,0.7-1.3,1.1-2,1.4    C1138.6,1061.1,1137.9,1061.3,1136.9,1061.3z M1137.8,1059c0.7,0,1.4-0.2,1.9-0.5c0.5-0.4,0.9-0.8,1.2-1.3v-2.6c0,0-0.2,0-0.6,0    c-0.4,0-0.6,0-0.7,0c-1.3,0.1-2.2,0.4-2.8,0.7s-0.9,1-0.9,1.8c0,0.6,0.2,1,0.5,1.3C1136.7,1058.9,1137.2,1059,1137.8,1059z"
   id="path650" />
		<path
   class="st15"
   d="M1148.2,1061v-11.3h-2.1l0.2-1.9l1.9-0.2v-0.7c0-0.8,0.1-1.5,0.2-2.1c0.2-0.6,0.4-1.1,0.7-1.5    s0.8-0.7,1.4-0.9c0.6-0.2,1.3-0.3,2.1-0.3c0.8,0,1.6,0.1,2.5,0.2l-0.3,2.4c-0.7-0.1-1.2-0.1-1.6-0.1c-0.7,0-1.2,0.2-1.5,0.5    c-0.3,0.3-0.4,0.9-0.4,1.6v0.9h3.2v2.1h-3.2v11.3H1148.2z"
   id="path652" />
	</g>
	<g
   id="g664">
		<path
   class="st15"
   d="M1323.8,1061v-17.9h3.3v15.2h7.5l-0.1,2.6H1323.8z"
   id="path656" />
		<path
   class="st15"
   d="M1342.8,1061.3c-2.2,0-3.8-0.6-5-1.9c-1.2-1.2-1.8-3-1.8-5.1c0-2.1,0.6-3.8,1.7-5.1s2.7-1.9,4.6-1.9    c1.8,0,3.3,0.6,4.3,1.7c1,1.2,1.5,2.7,1.5,4.6c0,0.1,0,0.4,0,0.7s0,0.5,0,0.7h-8.9c0,1.3,0.4,2.2,1,2.9c0.7,0.7,1.6,1,2.7,1    c1.5,0,2.9-0.4,4.2-1.1l0.5,2.3C1346.2,1060.9,1344.6,1061.3,1342.8,1061.3z M1339.2,1053h5.9c0-1.1-0.2-1.9-0.7-2.5    c-0.5-0.6-1.2-0.9-2.1-0.9c-0.8,0-1.5,0.3-2.1,0.9C1339.6,1051,1339.3,1051.8,1339.2,1053z"
   id="path658" />
		<path
   class="st15"
   d="M1354.2,1061.3c-1.2,0-2.3-0.3-3-1c-0.8-0.7-1.2-1.7-1.2-3c0-1.4,0.5-2.4,1.4-3.1c0.9-0.7,2.3-1.1,4.1-1.3    c0.3,0,0.5-0.1,0.8-0.1c0.3,0,0.6-0.1,1-0.1c0.4,0,0.7-0.1,0.9-0.1v-0.7c0-0.8-0.2-1.4-0.6-1.8c-0.4-0.4-0.9-0.6-1.7-0.6    c-1.1,0-2.4,0.3-4,0.9c0,0-0.1-0.4-0.4-1.1c-0.3-0.7-0.4-1.1-0.4-1.1c1.6-0.7,3.3-1,5.1-1c1.8,0,3.1,0.4,3.9,1.2    c0.8,0.8,1.2,2.1,1.2,3.8v8.8h-2.4c0,0-0.1-0.3-0.3-0.8c-0.2-0.5-0.3-0.8-0.3-0.8c-0.7,0.7-1.3,1.1-2,1.4    C1355.9,1061.1,1355.1,1061.3,1354.2,1061.3z M1355.1,1059c0.7,0,1.4-0.2,1.9-0.5c0.5-0.4,0.9-0.8,1.2-1.3v-2.6c0,0-0.2,0-0.6,0    c-0.4,0-0.6,0-0.7,0c-1.3,0.1-2.2,0.4-2.8,0.7s-0.9,1-0.9,1.8c0,0.6,0.2,1,0.5,1.3C1354,1058.9,1354.5,1059,1355.1,1059z"
   id="path660" />
		<path
   class="st15"
   d="M1365.5,1061v-11.3h-2.1l0.2-1.9l1.9-0.2v-0.7c0-0.8,0.1-1.5,0.2-2.1c0.2-0.6,0.4-1.1,0.7-1.5    s0.8-0.7,1.4-0.9c0.6-0.2,1.3-0.3,2.1-0.3c0.8,0,1.6,0.1,2.5,0.2l-0.3,2.4c-0.7-0.1-1.2-0.1-1.6-0.1c-0.7,0-1.2,0.2-1.5,0.5    c-0.3,0.3-0.4,0.9-0.4,1.6v0.9h3.2v2.1h-3.2v11.3H1365.5z"
   id="path662" />
	</g>
	<line
   class="st25"
   x1="589"
   y1="332.8"
   x2="802.5"
   y2="289.2"
   id="line666" />
	<line
   class="st25"
   x1="802.5"
   y1="289.2"
   x2="1016.2"
   y2="332.8"
   id="line668" />
	<g
   id="g674">
		<line
   class="st25"
   x1="1016.2"
   y1="517.3"
   x2="1345.2"
   y2="583"
   id="line670" />
		<line
   class="st25"
   x1="1016.2"
   y1="517.3"
   x2="1128.1"
   y2="583"
   id="line672" />
	</g>
	<g
   id="g680">
		<line
   class="st25"
   x1="589.6"
   y1="517.3"
   x2="260.7"
   y2="583.8"
   id="line676" />
		<line
   class="st25"
   x1="589.6"
   y1="517.3"
   x2="477.7"
   y2="583.8"
   id="line678" />
	</g>
	<line
   class="st25"
   x1="802.5"
   y1="289.2"
   x2="802.5"
   y2="332.8"
   id="line682" />
	<line
   class="st25"
   x1="802.5"
   y1="517.3"
   x2="911.1"
   y2="583"
   id="line684" />
	<line
   class="st25"
   x1="694.6"
   y1="583"
   x2="802.5"
   y2="517.3"
   id="line686" />
	<line
   class="st25"
   x1="1128.1"
   y1="766.6"
   x2="1128.1"
   y2="835"
   id="line688" />
	<line
   class="st25"
   x1="694.6"
   y1="766.6"
   x2="694.6"
   y2="835"
   id="line690" />
	<line
   class="st25"
   x1="260.6"
   y1="766.6"
   x2="260.6"
   y2="835"
   id="line692" />
	<line
   class="st25"
   x1="1345.2"
   y1="766.6"
   x2="1345.2"
   y2="835"
   id="line694" />
	<g
   id="g700">
		<line
   class="st24"
   x1="301.1"
   y1="913.4"
   x2="325"
   y2="937.3"
   id="line696" />
		<line
   class="st24"
   x1="301.1"
   y1="937.3"
   x2="324.9"
   y2="913.4"
   id="line698" />
	</g>
	<g
   id="g706">
		<line
   class="st24"
   x1="734.3"
   y1="913.4"
   x2="758.2"
   y2="937.3"
   id="line702" />
		<line
   class="st24"
   x1="734.3"
   y1="937.3"
   x2="758.2"
   y2="913.4"
   id="line704" />
	</g>
	<g
   id="g712">
		<line
   class="st24"
   x1="1333.2"
   y1="862.4"
   x2="1357.1"
   y2="886.3"
   id="line708" />
		<line
   class="st24"
   x1="1333.2"
   y1="886.3"
   x2="1357.1"
   y2="862.4"
   id="line710" />
	</g>
	<g
   id="g718">
		<line
   class="st24"
   x1="1170.9"
   y1="865.2"
   x2="1194.7"
   y2="889.1"
   id="line714" />
		<line
   class="st24"
   x1="1170.8"
   y1="889.1"
   x2="1194.7"
   y2="865.2"
   id="line716" />
	</g>
	<line
   class="st28"
   x1="400.3"
   y1="675.4"
   x2="554.8"
   y2="675.4"
   id="line720" />
	<line
   class="st28"
   x1="833.9"
   y1="675.4"
   x2="988.4"
   y2="675.4"
   id="line722" />
	<circle
   class="st4"
   cx="1128.1"
   cy="626.3"
   r="13.7"
   id="circle724" />
</g>
</svg>