<?xml version="1.0" encoding="utf-8" standalone="no"?>
<!DOCTYPE svg PUBLIC "-//W3C//DTD SVG 1.1//EN"
  "http://www.w3.org/Graphics/SVG/1.1/DTD/svg11.dtd">
<!-- Created with matplotlib (https://matplotlib.org/) -->
<svg height="324.47466pt" version="1.1" viewBox="0 0 525 324.47466" width="525pt" xmlns="http://www.w3.org/2000/svg" xmlns:xlink="http://www.w3.org/1999/xlink">
 <metadata>
  <rdf:RDF xmlns:cc="http://creativecommons.org/ns#" xmlns:dc="http://purl.org/dc/elements/1.1/" xmlns:rdf="http://www.w3.org/1999/02/22-rdf-syntax-ns#">
   <cc:Work>
    <dc:type rdf:resource="http://purl.org/dc/dcmitype/StillImage"/>
    <dc:date>2021-04-13T12:07:06.220453</dc:date>
    <dc:format>image/svg+xml</dc:format>
    <dc:creator>
     <cc:Agent>
      <dc:title>Matplotlib v3.3.4, https://matplotlib.org/</dc:title>
     </cc:Agent>
    </dc:creator>
   </cc:Work>
  </rdf:RDF>
 </metadata>
 <defs>
  <style type="text/css">*{stroke-linecap:butt;stroke-linejoin:round;}</style>
 </defs>
 <g id="figure_1">
  <g id="patch_1">
   <path d="M 0 324.47466 
L 525 324.47466 
L 525 0 
L 0 0 
z
" style="fill:#ffffff;"/>
  </g>
  <g id="axes_1">
   <g id="patch_2">
    <path d="M 52.5 275.803461 
L 472.5 275.803461 
L 472.5 48.671199 
L 52.5 48.671199 
z
" style="fill:#ffffff;"/>
   </g>
   <g id="PathCollection_1">
    <defs>
     <path d="M 0 3 
C 0.795609 3 1.55874 2.683901 2.12132 2.12132 
C 2.683901 1.55874 3 0.795609 3 0 
C 3 -0.795609 2.683901 -1.55874 2.12132 -2.12132 
C 1.55874 -2.683901 0.795609 -3 0 -3 
C -0.795609 -3 -1.55874 -2.683901 -2.12132 -2.12132 
C -2.683901 -1.55874 -3 -0.795609 -3 0 
C -3 0.795609 -2.683901 1.55874 -2.12132 2.12132 
C -1.55874 2.683901 -0.795609 3 0 3 
z
" id="m1732e9daba" style="stroke:#add8e6;stroke-opacity:0.8;"/>
    </defs>
    <g clip-path="url(#p86a9a61698)">
     <use style="fill:#add8e6;fill-opacity:0.8;stroke:#add8e6;stroke-opacity:0.8;" x="432.569061" xlink:href="#m1732e9daba" y="198.537826"/>
     <use style="fill:#add8e6;fill-opacity:0.8;stroke:#add8e6;stroke-opacity:0.8;" x="128.107735" xlink:href="#m1732e9daba" y="123.634815"/>
     <use style="fill:#add8e6;fill-opacity:0.8;stroke:#add8e6;stroke-opacity:0.8;" x="147.734807" xlink:href="#m1732e9daba" y="121.40156"/>
     <use style="fill:#add8e6;fill-opacity:0.8;stroke:#add8e6;stroke-opacity:0.8;" x="199.171271" xlink:href="#m1732e9daba" y="92.410224"/>
     <use style="fill:#add8e6;fill-opacity:0.8;stroke:#add8e6;stroke-opacity:0.8;" x="66.229282" xlink:href="#m1732e9daba" y="76.710921"/>
     <use style="fill:#add8e6;fill-opacity:0.8;stroke:#add8e6;stroke-opacity:0.8;" x="418.162983" xlink:href="#m1732e9daba" y="177.026157"/>
     <use style="fill:#add8e6;fill-opacity:0.8;stroke:#add8e6;stroke-opacity:0.8;" x="119.019337" xlink:href="#m1732e9daba" y="78.588502"/>
     <use style="fill:#add8e6;fill-opacity:0.8;stroke:#add8e6;stroke-opacity:0.8;" x="145.70442" xlink:href="#m1732e9daba" y="74.278553"/>
     <use style="fill:#add8e6;fill-opacity:0.8;stroke:#add8e6;stroke-opacity:0.8;" x="143.770718" xlink:href="#m1732e9daba" y="96.353248"/>
     <use style="fill:#add8e6;fill-opacity:0.8;stroke:#add8e6;stroke-opacity:0.8;" x="98.71547" xlink:href="#m1732e9daba" y="99.223035"/>
     <use style="fill:#add8e6;fill-opacity:0.8;stroke:#add8e6;stroke-opacity:0.8;" x="88.660221" xlink:href="#m1732e9daba" y="75.810151"/>
     <use style="fill:#add8e6;fill-opacity:0.8;stroke:#add8e6;stroke-opacity:0.8;" x="99.392265" xlink:href="#m1732e9daba" y="73.603152"/>
     <use style="fill:#add8e6;fill-opacity:0.8;stroke:#add8e6;stroke-opacity:0.8;" x="66.519337" xlink:href="#m1732e9daba" y="79.001411"/>
     <use style="fill:#add8e6;fill-opacity:0.8;stroke:#add8e6;stroke-opacity:0.8;" x="182.541436" xlink:href="#m1732e9daba" y="107.815223"/>
     <use style="fill:#add8e6;fill-opacity:0.8;stroke:#add8e6;stroke-opacity:0.8;" x="151.892265" xlink:href="#m1732e9daba" y="78.55703"/>
     <use style="fill:#add8e6;fill-opacity:0.8;stroke:#add8e6;stroke-opacity:0.8;" x="154.116022" xlink:href="#m1732e9daba" y="90.462646"/>
     <use style="fill:#add8e6;fill-opacity:0.8;stroke:#add8e6;stroke-opacity:0.8;" x="270.138122" xlink:href="#m1732e9daba" y="178.625684"/>
     <use style="fill:#add8e6;fill-opacity:0.8;stroke:#add8e6;stroke-opacity:0.8;" x="104.903315" xlink:href="#m1732e9daba" y="77.46556"/>
     <use style="fill:#add8e6;fill-opacity:0.8;stroke:#add8e6;stroke-opacity:0.8;" x="89.917127" xlink:href="#m1732e9daba" y="87.4185"/>
     <use style="fill:#add8e6;fill-opacity:0.8;stroke:#add8e6;stroke-opacity:0.8;" x="82.375691" xlink:href="#m1732e9daba" y="78.45242"/>
     <use style="fill:#add8e6;fill-opacity:0.8;stroke:#add8e6;stroke-opacity:0.8;" x="260.856354" xlink:href="#m1732e9daba" y="111.912704"/>
     <use style="fill:#add8e6;fill-opacity:0.8;stroke:#add8e6;stroke-opacity:0.8;" x="357.638122" xlink:href="#m1732e9daba" y="171.762709"/>
     <use style="fill:#add8e6;fill-opacity:0.8;stroke:#add8e6;stroke-opacity:0.8;" x="92.237569" xlink:href="#m1732e9daba" y="63.724101"/>
     <use style="fill:#add8e6;fill-opacity:0.8;stroke:#add8e6;stroke-opacity:0.8;" x="307.361878" xlink:href="#m1732e9daba" y="162.391601"/>
     <use style="fill:#add8e6;fill-opacity:0.8;stroke:#add8e6;stroke-opacity:0.8;" x="207.292818" xlink:href="#m1732e9daba" y="123.398603"/>
     <use style="fill:#add8e6;fill-opacity:0.8;stroke:#add8e6;stroke-opacity:0.8;" x="66.809392" xlink:href="#m1732e9daba" y="96.907288"/>
     <use style="fill:#add8e6;fill-opacity:0.8;stroke:#add8e6;stroke-opacity:0.8;" x="205.165746" xlink:href="#m1732e9daba" y="120.67079"/>
     <use style="fill:#add8e6;fill-opacity:0.8;stroke:#add8e6;stroke-opacity:0.8;" x="142.127072" xlink:href="#m1732e9daba" y="95.82235"/>
     <use style="fill:#add8e6;fill-opacity:0.8;stroke:#add8e6;stroke-opacity:0.8;" x="125.980663" xlink:href="#m1732e9daba" y="76.263485"/>
     <use style="fill:#add8e6;fill-opacity:0.8;stroke:#add8e6;stroke-opacity:0.8;" x="163.687845" xlink:href="#m1732e9daba" y="94.579638"/>
     <use style="fill:#add8e6;fill-opacity:0.8;stroke:#add8e6;stroke-opacity:0.8;" x="75.31768" xlink:href="#m1732e9daba" y="86.150961"/>
     <use style="fill:#add8e6;fill-opacity:0.8;stroke:#add8e6;stroke-opacity:0.8;" x="423.093923" xlink:href="#m1732e9daba" y="179.638868"/>
     <use style="fill:#add8e6;fill-opacity:0.8;stroke:#add8e6;stroke-opacity:0.8;" x="155.179558" xlink:href="#m1732e9daba" y="170.78706"/>
     <use style="fill:#add8e6;fill-opacity:0.8;stroke:#add8e6;stroke-opacity:0.8;" x="390.220994" xlink:href="#m1732e9daba" y="197.074104"/>
     <use style="fill:#add8e6;fill-opacity:0.8;stroke:#add8e6;stroke-opacity:0.8;" x="242.099448" xlink:href="#m1732e9daba" y="203.551076"/>
     <use style="fill:#add8e6;fill-opacity:0.8;stroke:#add8e6;stroke-opacity:0.8;" x="309.68232" xlink:href="#m1732e9daba" y="184.599112"/>
     <use style="fill:#add8e6;fill-opacity:0.8;stroke:#add8e6;stroke-opacity:0.8;" x="86.243094" xlink:href="#m1732e9daba" y="74.17778"/>
     <use style="fill:#add8e6;fill-opacity:0.8;stroke:#add8e6;stroke-opacity:0.8;" x="222.472376" xlink:href="#m1732e9daba" y="102.679014"/>
     <use style="fill:#add8e6;fill-opacity:0.8;stroke:#add8e6;stroke-opacity:0.8;" x="105.19337" xlink:href="#m1732e9daba" y="64.156149"/>
     <use style="fill:#add8e6;fill-opacity:0.8;stroke:#add8e6;stroke-opacity:0.8;" x="309.875691" xlink:href="#m1732e9daba" y="206.511189"/>
     <use style="fill:#add8e6;fill-opacity:0.8;stroke:#add8e6;stroke-opacity:0.8;" x="424.157459" xlink:href="#m1732e9daba" y="220.286436"/>
     <use style="fill:#add8e6;fill-opacity:0.8;stroke:#add8e6;stroke-opacity:0.8;" x="129.267956" xlink:href="#m1732e9daba" y="97.177812"/>
     <use style="fill:#add8e6;fill-opacity:0.8;stroke:#add8e6;stroke-opacity:0.8;" x="110.124309" xlink:href="#m1732e9daba" y="91.749457"/>
     <use style="fill:#add8e6;fill-opacity:0.8;stroke:#add8e6;stroke-opacity:0.8;" x="180.027624" xlink:href="#m1732e9daba" y="101.757268"/>
     <use style="fill:#add8e6;fill-opacity:0.8;stroke:#add8e6;stroke-opacity:0.8;" x="339.074586" xlink:href="#m1732e9daba" y="149.392132"/>
     <use style="fill:#add8e6;fill-opacity:0.8;stroke:#add8e6;stroke-opacity:0.8;" x="404.433702" xlink:href="#m1732e9daba" y="265.479267"/>
     <use style="fill:#add8e6;fill-opacity:0.8;stroke:#add8e6;stroke-opacity:0.8;" x="393.604972" xlink:href="#m1732e9daba" y="195.032549"/>
     <use style="fill:#add8e6;fill-opacity:0.8;stroke:#add8e6;stroke-opacity:0.8;" x="185.055249" xlink:href="#m1732e9daba" y="89.735566"/>
     <use style="fill:#add8e6;fill-opacity:0.8;stroke:#add8e6;stroke-opacity:0.8;" x="159.143646" xlink:href="#m1732e9daba" y="85.83712"/>
     <use style="fill:#add8e6;fill-opacity:0.8;stroke:#add8e6;stroke-opacity:0.8;" x="321.477901" xlink:href="#m1732e9daba" y="161.890323"/>
     <use style="fill:#add8e6;fill-opacity:0.8;stroke:#add8e6;stroke-opacity:0.8;" x="74.930939" xlink:href="#m1732e9daba" y="80.761943"/>
     <use style="fill:#add8e6;fill-opacity:0.8;stroke:#add8e6;stroke-opacity:0.8;" x="96.975138" xlink:href="#m1732e9daba" y="122.476209"/>
     <use style="fill:#add8e6;fill-opacity:0.8;stroke:#add8e6;stroke-opacity:0.8;" x="69.226519" xlink:href="#m1732e9daba" y="87.784441"/>
     <use style="fill:#add8e6;fill-opacity:0.8;stroke:#add8e6;stroke-opacity:0.8;" x="89.627072" xlink:href="#m1732e9daba" y="71.592888"/>
     <use style="fill:#add8e6;fill-opacity:0.8;stroke:#add8e6;stroke-opacity:0.8;" x="364.212707" xlink:href="#m1732e9daba" y="151.128391"/>
     <use style="fill:#add8e6;fill-opacity:0.8;stroke:#add8e6;stroke-opacity:0.8;" x="129.654696" xlink:href="#m1732e9daba" y="88.525472"/>
     <use style="fill:#add8e6;fill-opacity:0.8;stroke:#add8e6;stroke-opacity:0.8;" x="206.519337" xlink:href="#m1732e9daba" y="116.069687"/>
     <use style="fill:#add8e6;fill-opacity:0.8;stroke:#add8e6;stroke-opacity:0.8;" x="197.527624" xlink:href="#m1732e9daba" y="109.930441"/>
     <use style="fill:#add8e6;fill-opacity:0.8;stroke:#add8e6;stroke-opacity:0.8;" x="203.812155" xlink:href="#m1732e9daba" y="108.7671"/>
     <use style="fill:#add8e6;fill-opacity:0.8;stroke:#add8e6;stroke-opacity:0.8;" x="239.29558" xlink:href="#m1732e9daba" y="106.899455"/>
     <use style="fill:#add8e6;fill-opacity:0.8;stroke:#add8e6;stroke-opacity:0.8;" x="326.118785" xlink:href="#m1732e9daba" y="156.174246"/>
     <use style="fill:#add8e6;fill-opacity:0.8;stroke:#add8e6;stroke-opacity:0.8;" x="313.936464" xlink:href="#m1732e9daba" y="176.718586"/>
     <use style="fill:#add8e6;fill-opacity:0.8;stroke:#add8e6;stroke-opacity:0.8;" x="79.088398" xlink:href="#m1732e9daba" y="86.331114"/>
     <use style="fill:#add8e6;fill-opacity:0.8;stroke:#add8e6;stroke-opacity:0.8;" x="349.226519" xlink:href="#m1732e9daba" y="175.818704"/>
     <use style="fill:#add8e6;fill-opacity:0.8;stroke:#add8e6;stroke-opacity:0.8;" x="117.859116" xlink:href="#m1732e9daba" y="76.392533"/>
     <use style="fill:#add8e6;fill-opacity:0.8;stroke:#add8e6;stroke-opacity:0.8;" x="200.041436" xlink:href="#m1732e9daba" y="112.568429"/>
     <use style="fill:#add8e6;fill-opacity:0.8;stroke:#add8e6;stroke-opacity:0.8;" x="83.052486" xlink:href="#m1732e9daba" y="81.645109"/>
     <use style="fill:#add8e6;fill-opacity:0.8;stroke:#add8e6;stroke-opacity:0.8;" x="97.941989" xlink:href="#m1732e9daba" y="72.726921"/>
     <use style="fill:#add8e6;fill-opacity:0.8;stroke:#add8e6;stroke-opacity:0.8;" x="179.834254" xlink:href="#m1732e9daba" y="92.775837"/>
     <use style="fill:#add8e6;fill-opacity:0.8;stroke:#add8e6;stroke-opacity:0.8;" x="143.287293" xlink:href="#m1732e9daba" y="99.371538"/>
     <use style="fill:#add8e6;fill-opacity:0.8;stroke:#add8e6;stroke-opacity:0.8;" x="331.629834" xlink:href="#m1732e9daba" y="146.691143"/>
     <use style="fill:#add8e6;fill-opacity:0.8;stroke:#add8e6;stroke-opacity:0.8;" x="362.665746" xlink:href="#m1732e9daba" y="147.225719"/>
     <use style="fill:#add8e6;fill-opacity:0.8;stroke:#add8e6;stroke-opacity:0.8;" x="363.439227" xlink:href="#m1732e9daba" y="93.867551"/>
     <use style="fill:#add8e6;fill-opacity:0.8;stroke:#add8e6;stroke-opacity:0.8;" x="82.665746" xlink:href="#m1732e9daba" y="106.197641"/>
     <use style="fill:#add8e6;fill-opacity:0.8;stroke:#add8e6;stroke-opacity:0.8;" x="61.781768" xlink:href="#m1732e9daba" y="69.584907"/>
     <use style="fill:#add8e6;fill-opacity:0.8;stroke:#add8e6;stroke-opacity:0.8;" x="277.099448" xlink:href="#m1732e9daba" y="162.22335"/>
     <use style="fill:#add8e6;fill-opacity:0.8;stroke:#add8e6;stroke-opacity:0.8;" x="85.856354" xlink:href="#m1732e9daba" y="62.989572"/>
     <use style="fill:#add8e6;fill-opacity:0.8;stroke:#add8e6;stroke-opacity:0.8;" x="75.607735" xlink:href="#m1732e9daba" y="72.59143"/>
     <use style="fill:#add8e6;fill-opacity:0.8;stroke:#add8e6;stroke-opacity:0.8;" x="136.035912" xlink:href="#m1732e9daba" y="79.178252"/>
     <use style="fill:#add8e6;fill-opacity:0.8;stroke:#add8e6;stroke-opacity:0.8;" x="195.497238" xlink:href="#m1732e9daba" y="84.206814"/>
     <use style="fill:#add8e6;fill-opacity:0.8;stroke:#add8e6;stroke-opacity:0.8;" x="127.527624" xlink:href="#m1732e9daba" y="78.38987"/>
     <use style="fill:#add8e6;fill-opacity:0.8;stroke:#add8e6;stroke-opacity:0.8;" x="163.687845" xlink:href="#m1732e9daba" y="76.964762"/>
     <use style="fill:#add8e6;fill-opacity:0.8;stroke:#add8e6;stroke-opacity:0.8;" x="270.911602" xlink:href="#m1732e9daba" y="117.420575"/>
     <use style="fill:#add8e6;fill-opacity:0.8;stroke:#add8e6;stroke-opacity:0.8;" x="67.196133" xlink:href="#m1732e9daba" y="63.980681"/>
     <use style="fill:#add8e6;fill-opacity:0.8;stroke:#add8e6;stroke-opacity:0.8;" x="385.773481" xlink:href="#m1732e9daba" y="202.639872"/>
     <use style="fill:#add8e6;fill-opacity:0.8;stroke:#add8e6;stroke-opacity:0.8;" x="341.878453" xlink:href="#m1732e9daba" y="178.297189"/>
     <use style="fill:#add8e6;fill-opacity:0.8;stroke:#add8e6;stroke-opacity:0.8;" x="158.756906" xlink:href="#m1732e9daba" y="106.713666"/>
     <use style="fill:#add8e6;fill-opacity:0.8;stroke:#add8e6;stroke-opacity:0.8;" x="334.337017" xlink:href="#m1732e9daba" y="158.358244"/>
     <use style="fill:#add8e6;fill-opacity:0.8;stroke:#add8e6;stroke-opacity:0.8;" x="255.055249" xlink:href="#m1732e9daba" y="124.923266"/>
     <use style="fill:#add8e6;fill-opacity:0.8;stroke:#add8e6;stroke-opacity:0.8;" x="52.5" xlink:href="#m1732e9daba" y="74.419464"/>
     <use style="fill:#add8e6;fill-opacity:0.8;stroke:#add8e6;stroke-opacity:0.8;" x="75.994475" xlink:href="#m1732e9daba" y="86.158142"/>
     <use style="fill:#add8e6;fill-opacity:0.8;stroke:#add8e6;stroke-opacity:0.8;" x="113.895028" xlink:href="#m1732e9daba" y="70.32639"/>
     <use style="fill:#add8e6;fill-opacity:0.8;stroke:#add8e6;stroke-opacity:0.8;" x="194.820442" xlink:href="#m1732e9daba" y="134.499159"/>
     <use style="fill:#add8e6;fill-opacity:0.8;stroke:#add8e6;stroke-opacity:0.8;" x="178.674033" xlink:href="#m1732e9daba" y="131.222052"/>
     <use style="fill:#add8e6;fill-opacity:0.8;stroke:#add8e6;stroke-opacity:0.8;" x="146.381215" xlink:href="#m1732e9daba" y="90.88692"/>
     <use style="fill:#add8e6;fill-opacity:0.8;stroke:#add8e6;stroke-opacity:0.8;" x="291.21547" xlink:href="#m1732e9daba" y="138.416764"/>
     <use style="fill:#add8e6;fill-opacity:0.8;stroke:#add8e6;stroke-opacity:0.8;" x="121.726519" xlink:href="#m1732e9daba" y="76.551202"/>
     <use style="fill:#add8e6;fill-opacity:0.8;stroke:#add8e6;stroke-opacity:0.8;" x="88.853591" xlink:href="#m1732e9daba" y="69.29386"/>
     <use style="fill:#add8e6;fill-opacity:0.8;stroke:#add8e6;stroke-opacity:0.8;" x="155.759669" xlink:href="#m1732e9daba" y="78.468082"/>
     <use style="fill:#add8e6;fill-opacity:0.8;stroke:#add8e6;stroke-opacity:0.8;" x="66.325967" xlink:href="#m1732e9daba" y="80.166324"/>
     <use style="fill:#add8e6;fill-opacity:0.8;stroke:#add8e6;stroke-opacity:0.8;" x="183.314917" xlink:href="#m1732e9daba" y="110.239984"/>
     <use style="fill:#add8e6;fill-opacity:0.8;stroke:#add8e6;stroke-opacity:0.8;" x="72.610497" xlink:href="#m1732e9daba" y="78.525599"/>
     <use style="fill:#add8e6;fill-opacity:0.8;stroke:#add8e6;stroke-opacity:0.8;" x="71.933702" xlink:href="#m1732e9daba" y="64.888908"/>
     <use style="fill:#add8e6;fill-opacity:0.8;stroke:#add8e6;stroke-opacity:0.8;" x="187.472376" xlink:href="#m1732e9daba" y="114.370893"/>
     <use style="fill:#add8e6;fill-opacity:0.8;stroke:#add8e6;stroke-opacity:0.8;" x="136.712707" xlink:href="#m1732e9daba" y="103.474963"/>
     <use style="fill:#add8e6;fill-opacity:0.8;stroke:#add8e6;stroke-opacity:0.8;" x="366.049724" xlink:href="#m1732e9daba" y="176.114954"/>
     <use style="fill:#add8e6;fill-opacity:0.8;stroke:#add8e6;stroke-opacity:0.8;" x="278.356354" xlink:href="#m1732e9daba" y="135.979506"/>
     <use style="fill:#add8e6;fill-opacity:0.8;stroke:#add8e6;stroke-opacity:0.8;" x="132.265193" xlink:href="#m1732e9daba" y="136.149735"/>
     <use style="fill:#add8e6;fill-opacity:0.8;stroke:#add8e6;stroke-opacity:0.8;" x="78.701657" xlink:href="#m1732e9daba" y="77.256044"/>
     <use style="fill:#add8e6;fill-opacity:0.8;stroke:#add8e6;stroke-opacity:0.8;" x="194.143646" xlink:href="#m1732e9daba" y="97.405588"/>
     <use style="fill:#add8e6;fill-opacity:0.8;stroke:#add8e6;stroke-opacity:0.8;" x="202.458564" xlink:href="#m1732e9daba" y="119.643229"/>
     <use style="fill:#add8e6;fill-opacity:0.8;stroke:#add8e6;stroke-opacity:0.8;" x="325.151934" xlink:href="#m1732e9daba" y="162.731664"/>
     <use style="fill:#add8e6;fill-opacity:0.8;stroke:#add8e6;stroke-opacity:0.8;" x="71.353591" xlink:href="#m1732e9daba" y="87.2451"/>
     <use style="fill:#add8e6;fill-opacity:0.8;stroke:#add8e6;stroke-opacity:0.8;" x="161.077348" xlink:href="#m1732e9daba" y="92.775837"/>
     <use style="fill:#add8e6;fill-opacity:0.8;stroke:#add8e6;stroke-opacity:0.8;" x="221.312155" xlink:href="#m1732e9daba" y="150.193667"/>
     <use style="fill:#add8e6;fill-opacity:0.8;stroke:#add8e6;stroke-opacity:0.8;" x="414.875691" xlink:href="#m1732e9daba" y="206.511189"/>
     <use style="fill:#add8e6;fill-opacity:0.8;stroke:#add8e6;stroke-opacity:0.8;" x="238.135359" xlink:href="#m1732e9daba" y="109.643805"/>
     <use style="fill:#add8e6;fill-opacity:0.8;stroke:#add8e6;stroke-opacity:0.8;" x="80.732044" xlink:href="#m1732e9daba" y="72.764005"/>
     <use style="fill:#add8e6;fill-opacity:0.8;stroke:#add8e6;stroke-opacity:0.8;" x="66.616022" xlink:href="#m1732e9daba" y="96.026825"/>
     <use style="fill:#add8e6;fill-opacity:0.8;stroke:#add8e6;stroke-opacity:0.8;" x="97.458564" xlink:href="#m1732e9daba" y="75.842921"/>
     <use style="fill:#add8e6;fill-opacity:0.8;stroke:#add8e6;stroke-opacity:0.8;" x="64.005525" xlink:href="#m1732e9daba" y="82.892003"/>
     <use style="fill:#add8e6;fill-opacity:0.8;stroke:#add8e6;stroke-opacity:0.8;" x="98.232044" xlink:href="#m1732e9daba" y="92.363749"/>
     <use style="fill:#add8e6;fill-opacity:0.8;stroke:#add8e6;stroke-opacity:0.8;" x="382.389503" xlink:href="#m1732e9daba" y="195.69407"/>
     <use style="fill:#add8e6;fill-opacity:0.8;stroke:#add8e6;stroke-opacity:0.8;" x="399.019337" xlink:href="#m1732e9daba" y="176.718586"/>
     <use style="fill:#add8e6;fill-opacity:0.8;stroke:#add8e6;stroke-opacity:0.8;" x="203.038674" xlink:href="#m1732e9daba" y="101.376611"/>
     <use style="fill:#add8e6;fill-opacity:0.8;stroke:#add8e6;stroke-opacity:0.8;" x="318.577348" xlink:href="#m1732e9daba" y="117.977464"/>
     <use style="fill:#add8e6;fill-opacity:0.8;stroke:#add8e6;stroke-opacity:0.8;" x="463.701657" xlink:href="#m1732e9daba" y="181.802466"/>
     <use style="fill:#add8e6;fill-opacity:0.8;stroke:#add8e6;stroke-opacity:0.8;" x="80.828729" xlink:href="#m1732e9daba" y="76.335093"/>
     <use style="fill:#add8e6;fill-opacity:0.8;stroke:#add8e6;stroke-opacity:0.8;" x="301.560773" xlink:href="#m1732e9daba" y="117.657671"/>
     <use style="fill:#add8e6;fill-opacity:0.8;stroke:#add8e6;stroke-opacity:0.8;" x="114.861878" xlink:href="#m1732e9daba" y="82.303322"/>
     <use style="fill:#add8e6;fill-opacity:0.8;stroke:#add8e6;stroke-opacity:0.8;" x="378.328729" xlink:href="#m1732e9daba" y="164.879214"/>
     <use style="fill:#add8e6;fill-opacity:0.8;stroke:#add8e6;stroke-opacity:0.8;" x="131.201657" xlink:href="#m1732e9daba" y="89.785588"/>
     <use style="fill:#add8e6;fill-opacity:0.8;stroke:#add8e6;stroke-opacity:0.8;" x="377.941989" xlink:href="#m1732e9daba" y="132.314298"/>
     <use style="fill:#add8e6;fill-opacity:0.8;stroke:#add8e6;stroke-opacity:0.8;" x="182.058011" xlink:href="#m1732e9daba" y="101.028438"/>
     <use style="fill:#add8e6;fill-opacity:0.8;stroke:#add8e6;stroke-opacity:0.8;" x="220.635359" xlink:href="#m1732e9daba" y="112.101248"/>
     <use style="fill:#add8e6;fill-opacity:0.8;stroke:#add8e6;stroke-opacity:0.8;" x="133.812155" xlink:href="#m1732e9daba" y="97.739726"/>
     <use style="fill:#add8e6;fill-opacity:0.8;stroke:#add8e6;stroke-opacity:0.8;" x="70.870166" xlink:href="#m1732e9daba" y="58.995393"/>
     <use style="fill:#add8e6;fill-opacity:0.8;stroke:#add8e6;stroke-opacity:0.8;" x="190.759669" xlink:href="#m1732e9daba" y="129.823968"/>
     <use style="fill:#add8e6;fill-opacity:0.8;stroke:#add8e6;stroke-opacity:0.8;" x="194.530387" xlink:href="#m1732e9daba" y="137.316339"/>
     <use style="fill:#add8e6;fill-opacity:0.8;stroke:#add8e6;stroke-opacity:0.8;" x="322.154696" xlink:href="#m1732e9daba" y="196.374228"/>
     <use style="fill:#add8e6;fill-opacity:0.8;stroke:#add8e6;stroke-opacity:0.8;" x="217.154696" xlink:href="#m1732e9daba" y="126.742815"/>
     <use style="fill:#add8e6;fill-opacity:0.8;stroke:#add8e6;stroke-opacity:0.8;" x="221.40884" xlink:href="#m1732e9daba" y="106.797938"/>
     <use style="fill:#add8e6;fill-opacity:0.8;stroke:#add8e6;stroke-opacity:0.8;" x="281.546961" xlink:href="#m1732e9daba" y="159.830897"/>
     <use style="fill:#add8e6;fill-opacity:0.8;stroke:#add8e6;stroke-opacity:0.8;" x="87.403315" xlink:href="#m1732e9daba" y="78.546548"/>
     <use style="fill:#add8e6;fill-opacity:0.8;stroke:#add8e6;stroke-opacity:0.8;" x="124.917127" xlink:href="#m1732e9daba" y="84.153881"/>
     <use style="fill:#add8e6;fill-opacity:0.8;stroke:#add8e6;stroke-opacity:0.8;" x="157.11326" xlink:href="#m1732e9daba" y="93.099157"/>
     <use style="fill:#add8e6;fill-opacity:0.8;stroke:#add8e6;stroke-opacity:0.8;" x="115.055249" xlink:href="#m1732e9daba" y="79.568642"/>
     <use style="fill:#add8e6;fill-opacity:0.8;stroke:#add8e6;stroke-opacity:0.8;" x="218.991713" xlink:href="#m1732e9daba" y="137.738343"/>
     <use style="fill:#add8e6;fill-opacity:0.8;stroke:#add8e6;stroke-opacity:0.8;" x="472.5" xlink:href="#m1732e9daba" y="211.12403"/>
     <use style="fill:#add8e6;fill-opacity:0.8;stroke:#add8e6;stroke-opacity:0.8;" x="372.914365" xlink:href="#m1732e9daba" y="172.779449"/>
     <use style="fill:#add8e6;fill-opacity:0.8;stroke:#add8e6;stroke-opacity:0.8;" x="169.875691" xlink:href="#m1732e9daba" y="92.861001"/>
     <use style="fill:#add8e6;fill-opacity:0.8;stroke:#add8e6;stroke-opacity:0.8;" x="92.81768" xlink:href="#m1732e9daba" y="78.499438"/>
     <use style="fill:#add8e6;fill-opacity:0.8;stroke:#add8e6;stroke-opacity:0.8;" x="332.403315" xlink:href="#m1732e9daba" y="119.21589"/>
     <use style="fill:#add8e6;fill-opacity:0.8;stroke:#add8e6;stroke-opacity:0.8;" x="269.558011" xlink:href="#m1732e9daba" y="143.095537"/>
     <use style="fill:#add8e6;fill-opacity:0.8;stroke:#add8e6;stroke-opacity:0.8;" x="156.339779" xlink:href="#m1732e9daba" y="86.931634"/>
     <use style="fill:#add8e6;fill-opacity:0.8;stroke:#add8e6;stroke-opacity:0.8;" x="192.209945" xlink:href="#m1732e9daba" y="107.674749"/>
     <use style="fill:#add8e6;fill-opacity:0.8;stroke:#add8e6;stroke-opacity:0.8;" x="265.883978" xlink:href="#m1732e9daba" y="168.946625"/>
     <use style="fill:#add8e6;fill-opacity:0.8;stroke:#add8e6;stroke-opacity:0.8;" x="263.370166" xlink:href="#m1732e9daba" y="132.558426"/>
     <use style="fill:#add8e6;fill-opacity:0.8;stroke:#add8e6;stroke-opacity:0.8;" x="180.027624" xlink:href="#m1732e9daba" y="120.972594"/>
     <use style="fill:#add8e6;fill-opacity:0.8;stroke:#add8e6;stroke-opacity:0.8;" x="222.665746" xlink:href="#m1732e9daba" y="138.542187"/>
     <use style="fill:#add8e6;fill-opacity:0.8;stroke:#add8e6;stroke-opacity:0.8;" x="77.251381" xlink:href="#m1732e9daba" y="88.406945"/>
     <use style="fill:#add8e6;fill-opacity:0.8;stroke:#add8e6;stroke-opacity:0.8;" x="85.662983" xlink:href="#m1732e9daba" y="82.011253"/>
     <use style="fill:#add8e6;fill-opacity:0.8;stroke:#add8e6;stroke-opacity:0.8;" x="105.483425" xlink:href="#m1732e9daba" y="90.308644"/>
     <use style="fill:#add8e6;fill-opacity:0.8;stroke:#add8e6;stroke-opacity:0.8;" x="132.458564" xlink:href="#m1732e9daba" y="95.114821"/>
     <use style="fill:#add8e6;fill-opacity:0.8;stroke:#add8e6;stroke-opacity:0.8;" x="164.751381" xlink:href="#m1732e9daba" y="83.144228"/>
     <use style="fill:#add8e6;fill-opacity:0.8;stroke:#add8e6;stroke-opacity:0.8;" x="85.469613" xlink:href="#m1732e9daba" y="99.07544"/>
     <use style="fill:#add8e6;fill-opacity:0.8;stroke:#add8e6;stroke-opacity:0.8;" x="78.218232" xlink:href="#m1732e9daba" y="90.522802"/>
     <use style="fill:#add8e6;fill-opacity:0.8;stroke:#add8e6;stroke-opacity:0.8;" x="372.334254" xlink:href="#m1732e9daba" y="202.639872"/>
     <use style="fill:#add8e6;fill-opacity:0.8;stroke:#add8e6;stroke-opacity:0.8;" x="99.29558" xlink:href="#m1732e9daba" y="89.454048"/>
     <use style="fill:#add8e6;fill-opacity:0.8;stroke:#add8e6;stroke-opacity:0.8;" x="156.243094" xlink:href="#m1732e9daba" y="70.656673"/>
     <use style="fill:#add8e6;fill-opacity:0.8;stroke:#add8e6;stroke-opacity:0.8;" x="172.292818" xlink:href="#m1732e9daba" y="88.644585"/>
     <use style="fill:#add8e6;fill-opacity:0.8;stroke:#add8e6;stroke-opacity:0.8;" x="112.734807" xlink:href="#m1732e9daba" y="69.038065"/>
     <use style="fill:#add8e6;fill-opacity:0.8;stroke:#add8e6;stroke-opacity:0.8;" x="138.453039" xlink:href="#m1732e9daba" y="99.822607"/>
     <use style="fill:#add8e6;fill-opacity:0.8;stroke:#add8e6;stroke-opacity:0.8;" x="140.870166" xlink:href="#m1732e9daba" y="122.315141"/>
     <use style="fill:#add8e6;fill-opacity:0.8;stroke:#add8e6;stroke-opacity:0.8;" x="78.895028" xlink:href="#m1732e9daba" y="68.303682"/>
     <use style="fill:#add8e6;fill-opacity:0.8;stroke:#add8e6;stroke-opacity:0.8;" x="371.174033" xlink:href="#m1732e9daba" y="139.966645"/>
     <use style="fill:#add8e6;fill-opacity:0.8;stroke:#add8e6;stroke-opacity:0.8;" x="265.690608" xlink:href="#m1732e9daba" y="107.206591"/>
     <use style="fill:#add8e6;fill-opacity:0.8;stroke:#add8e6;stroke-opacity:0.8;" x="298.950276" xlink:href="#m1732e9daba" y="151.77227"/>
     <use style="fill:#add8e6;fill-opacity:0.8;stroke:#add8e6;stroke-opacity:0.8;" x="137.002762" xlink:href="#m1732e9daba" y="92.141903"/>
     <use style="fill:#add8e6;fill-opacity:0.8;stroke:#add8e6;stroke-opacity:0.8;" x="424.447514" xlink:href="#m1732e9daba" y="193.150244"/>
     <use style="fill:#add8e6;fill-opacity:0.8;stroke:#add8e6;stroke-opacity:0.8;" x="72.320442" xlink:href="#m1732e9daba" y="81.284435"/>
     <use style="fill:#add8e6;fill-opacity:0.8;stroke:#add8e6;stroke-opacity:0.8;" x="84.986188" xlink:href="#m1732e9daba" y="96.386134"/>
     <use style="fill:#add8e6;fill-opacity:0.8;stroke:#add8e6;stroke-opacity:0.8;" x="68.839779" xlink:href="#m1732e9daba" y="81.5975"/>
     <use style="fill:#add8e6;fill-opacity:0.8;stroke:#add8e6;stroke-opacity:0.8;" x="272.168508" xlink:href="#m1732e9daba" y="163.961079"/>
     <use style="fill:#add8e6;fill-opacity:0.8;stroke:#add8e6;stroke-opacity:0.8;" x="418.356354" xlink:href="#m1732e9daba" y="168.076476"/>
     <use style="fill:#add8e6;fill-opacity:0.8;stroke:#add8e6;stroke-opacity:0.8;" x="157.983425" xlink:href="#m1732e9daba" y="113.800086"/>
     <use style="fill:#add8e6;fill-opacity:0.8;stroke:#add8e6;stroke-opacity:0.8;" x="79.281768" xlink:href="#m1732e9daba" y="78.9321"/>
     <use style="fill:#add8e6;fill-opacity:0.8;stroke:#add8e6;stroke-opacity:0.8;" x="131.975138" xlink:href="#m1732e9daba" y="127.170843"/>
     <use style="fill:#add8e6;fill-opacity:0.8;stroke:#add8e6;stroke-opacity:0.8;" x="315.870166" xlink:href="#m1732e9daba" y="159.231015"/>
     <use style="fill:#add8e6;fill-opacity:0.8;stroke:#add8e6;stroke-opacity:0.8;" x="156.243094" xlink:href="#m1732e9daba" y="100.619767"/>
     <use style="fill:#add8e6;fill-opacity:0.8;stroke:#add8e6;stroke-opacity:0.8;" x="247.030387" xlink:href="#m1732e9daba" y="143.866977"/>
     <use style="fill:#add8e6;fill-opacity:0.8;stroke:#add8e6;stroke-opacity:0.8;" x="81.312155" xlink:href="#m1732e9daba" y="67.939635"/>
     <use style="fill:#add8e6;fill-opacity:0.8;stroke:#add8e6;stroke-opacity:0.8;" x="75.89779" xlink:href="#m1732e9daba" y="69.119483"/>
     <use style="fill:#add8e6;fill-opacity:0.8;stroke:#add8e6;stroke-opacity:0.8;" x="250.414365" xlink:href="#m1732e9daba" y="105.04005"/>
     <use style="fill:#add8e6;fill-opacity:0.8;stroke:#add8e6;stroke-opacity:0.8;" x="103.453039" xlink:href="#m1732e9daba" y="72.538263"/>
     <use style="fill:#add8e6;fill-opacity:0.8;stroke:#add8e6;stroke-opacity:0.8;" x="297.69337" xlink:href="#m1732e9daba" y="141.838137"/>
     <use style="fill:#add8e6;fill-opacity:0.8;stroke:#add8e6;stroke-opacity:0.8;" x="346.616022" xlink:href="#m1732e9daba" y="193.150244"/>
     <use style="fill:#add8e6;fill-opacity:0.8;stroke:#add8e6;stroke-opacity:0.8;" x="116.118785" xlink:href="#m1732e9daba" y="113.375122"/>
     <use style="fill:#add8e6;fill-opacity:0.8;stroke:#add8e6;stroke-opacity:0.8;" x="339.848066" xlink:href="#m1732e9daba" y="169.620455"/>
     <use style="fill:#add8e6;fill-opacity:0.8;stroke:#add8e6;stroke-opacity:0.8;" x="227.30663" xlink:href="#m1732e9daba" y="115.995436"/>
     <use style="fill:#add8e6;fill-opacity:0.8;stroke:#add8e6;stroke-opacity:0.8;" x="106.740331" xlink:href="#m1732e9daba" y="88.628669"/>
     <use style="fill:#add8e6;fill-opacity:0.8;stroke:#add8e6;stroke-opacity:0.8;" x="132.071823" xlink:href="#m1732e9daba" y="110.317994"/>
     <use style="fill:#add8e6;fill-opacity:0.8;stroke:#add8e6;stroke-opacity:0.8;" x="142.707182" xlink:href="#m1732e9daba" y="91.497298"/>
     <use style="fill:#add8e6;fill-opacity:0.8;stroke:#add8e6;stroke-opacity:0.8;" x="248.964088" xlink:href="#m1732e9daba" y="122.508552"/>
     <use style="fill:#add8e6;fill-opacity:0.8;stroke:#add8e6;stroke-opacity:0.8;" x="193.176796" xlink:href="#m1732e9daba" y="91.497298"/>
     <use style="fill:#add8e6;fill-opacity:0.8;stroke:#add8e6;stroke-opacity:0.8;" x="196.464088" xlink:href="#m1732e9daba" y="128.050358"/>
     <use style="fill:#add8e6;fill-opacity:0.8;stroke:#add8e6;stroke-opacity:0.8;" x="439.820442" xlink:href="#m1732e9daba" y="195.69407"/>
     <use style="fill:#add8e6;fill-opacity:0.8;stroke:#add8e6;stroke-opacity:0.8;" x="67.292818" xlink:href="#m1732e9daba" y="92.373037"/>
     <use style="fill:#add8e6;fill-opacity:0.8;stroke:#add8e6;stroke-opacity:0.8;" x="165.331492" xlink:href="#m1732e9daba" y="77.798517"/>
     <use style="fill:#add8e6;fill-opacity:0.8;stroke:#add8e6;stroke-opacity:0.8;" x="85.566298" xlink:href="#m1732e9daba" y="74.561201"/>
     <use style="fill:#add8e6;fill-opacity:0.8;stroke:#add8e6;stroke-opacity:0.8;" x="118.729282" xlink:href="#m1732e9daba" y="62.437514"/>
     <use style="fill:#add8e6;fill-opacity:0.8;stroke:#add8e6;stroke-opacity:0.8;" x="116.505525" xlink:href="#m1732e9daba" y="89.610962"/>
     <use style="fill:#add8e6;fill-opacity:0.8;stroke:#add8e6;stroke-opacity:0.8;" x="236.878453" xlink:href="#m1732e9daba" y="126.627386"/>
     <use style="fill:#add8e6;fill-opacity:0.8;stroke:#add8e6;stroke-opacity:0.8;" x="201.685083" xlink:href="#m1732e9daba" y="142.495654"/>
     <use style="fill:#add8e6;fill-opacity:0.8;stroke:#add8e6;stroke-opacity:0.8;" x="162.914365" xlink:href="#m1732e9daba" y="107.292605"/>
     <use style="fill:#add8e6;fill-opacity:0.8;stroke:#add8e6;stroke-opacity:0.8;" x="145.027624" xlink:href="#m1732e9daba" y="100.230757"/>
     <use style="fill:#add8e6;fill-opacity:0.8;stroke:#add8e6;stroke-opacity:0.8;" x="116.98895" xlink:href="#m1732e9daba" y="70.137024"/>
     <use style="fill:#add8e6;fill-opacity:0.8;stroke:#add8e6;stroke-opacity:0.8;" x="288.218232" xlink:href="#m1732e9daba" y="106.42932"/>
     <use style="fill:#add8e6;fill-opacity:0.8;stroke:#add8e6;stroke-opacity:0.8;" x="396.698895" xlink:href="#m1732e9daba" y="139.308729"/>
     <use style="fill:#add8e6;fill-opacity:0.8;stroke:#add8e6;stroke-opacity:0.8;" x="378.425414" xlink:href="#m1732e9daba" y="175.818704"/>
     <use style="fill:#add8e6;fill-opacity:0.8;stroke:#add8e6;stroke-opacity:0.8;" x="252.831492" xlink:href="#m1732e9daba" y="147.225719"/>
    </g>
   </g>
   <g id="PathCollection_2">
    <defs>
     <path d="M 0 5.700877 
C 1.51189 5.700877 2.962061 5.100197 4.031129 4.031129 
C 5.100197 2.962061 5.700877 1.51189 5.700877 -0 
C 5.700877 -1.51189 5.100197 -2.962061 4.031129 -4.031129 
C 2.962061 -5.100197 1.51189 -5.700877 0 -5.700877 
C -1.51189 -5.700877 -2.962061 -5.100197 -4.031129 -4.031129 
C -5.100197 -2.962061 -5.700877 -1.51189 -5.700877 0 
C -5.700877 1.51189 -5.100197 2.962061 -4.031129 4.031129 
C -2.962061 5.100197 -1.51189 5.700877 0 5.700877 
z
" id="C0_0_006f4c635f"/>
    </defs>
    <g clip-path="url(#p86a9a61698)">
     <use style="fill:none;stroke:#000000;" x="418.162983" xlink:href="#C0_0_006f4c635f" y="177.026157"/>
    </g>
    <g clip-path="url(#p86a9a61698)">
     <use style="fill:none;stroke:#000000;" x="281.546961" xlink:href="#C0_0_006f4c635f" y="159.830897"/>
    </g>
    <g clip-path="url(#p86a9a61698)">
     <use style="fill:none;stroke:#000000;" x="377.941989" xlink:href="#C0_0_006f4c635f" y="132.314298"/>
    </g>
    <g clip-path="url(#p86a9a61698)">
     <use style="fill:none;stroke:#000000;" x="96.975138" xlink:href="#C0_0_006f4c635f" y="122.476209"/>
    </g>
    <g clip-path="url(#p86a9a61698)">
     <use style="fill:none;stroke:#000000;" x="147.734807" xlink:href="#C0_0_006f4c635f" y="121.40156"/>
    </g>
    <g clip-path="url(#p86a9a61698)">
     <use style="fill:none;stroke:#000000;" x="200.041436" xlink:href="#C0_0_006f4c635f" y="112.568429"/>
    </g>
    <g clip-path="url(#p86a9a61698)">
     <use style="fill:none;stroke:#000000;" x="155.759669" xlink:href="#C0_0_006f4c635f" y="78.468082"/>
    </g>
    <g clip-path="url(#p86a9a61698)">
     <use style="fill:none;stroke:#000000;" x="99.392265" xlink:href="#C0_0_006f4c635f" y="73.603152"/>
    </g>
    <g clip-path="url(#p86a9a61698)">
     <use style="fill:none;stroke:#000000;" x="92.237569" xlink:href="#C0_0_006f4c635f" y="63.724101"/>
    </g>
   </g>
   <g id="matplotlib.axis_1">
    <g id="xtick_1">
     <g id="line2d_1">
      <defs>
       <path d="M 0 0 
L 0 3.5 
" id="mfd4d3a36b1" style="stroke:#000000;stroke-width:0.8;"/>
      </defs>
      <g>
       <use style="stroke:#000000;stroke-width:0.8;" x="78.701657" xlink:href="#mfd4d3a36b1" y="275.803461"/>
      </g>
     </g>
     <g id="text_1">
      <!-- 10 -->
      <g transform="translate(72.339157 290.401899)scale(0.1 -0.1)">
       <defs>
        <path d="M 12.40625 8.296875 
L 28.515625 8.296875 
L 28.515625 63.921875 
L 10.984375 60.40625 
L 10.984375 69.390625 
L 28.421875 72.90625 
L 38.28125 72.90625 
L 38.28125 8.296875 
L 54.390625 8.296875 
L 54.390625 0 
L 12.40625 0 
z
" id="DejaVuSans-49"/>
        <path d="M 31.78125 66.40625 
Q 24.171875 66.40625 20.328125 58.90625 
Q 16.5 51.421875 16.5 36.375 
Q 16.5 21.390625 20.328125 13.890625 
Q 24.171875 6.390625 31.78125 6.390625 
Q 39.453125 6.390625 43.28125 13.890625 
Q 47.125 21.390625 47.125 36.375 
Q 47.125 51.421875 43.28125 58.90625 
Q 39.453125 66.40625 31.78125 66.40625 
z
M 31.78125 74.21875 
Q 44.046875 74.21875 50.515625 64.515625 
Q 56.984375 54.828125 56.984375 36.375 
Q 56.984375 17.96875 50.515625 8.265625 
Q 44.046875 -1.421875 31.78125 -1.421875 
Q 19.53125 -1.421875 13.0625 8.265625 
Q 6.59375 17.96875 6.59375 36.375 
Q 6.59375 54.828125 13.0625 64.515625 
Q 19.53125 74.21875 31.78125 74.21875 
z
" id="DejaVuSans-48"/>
       </defs>
       <use xlink:href="#DejaVuSans-49"/>
       <use x="63.623047" xlink:href="#DejaVuSans-48"/>
      </g>
     </g>
    </g>
    <g id="xtick_2">
     <g id="line2d_2">
      <g>
       <use style="stroke:#000000;stroke-width:0.8;" x="127.044199" xlink:href="#mfd4d3a36b1" y="275.803461"/>
      </g>
     </g>
     <g id="text_2">
      <!-- 15 -->
      <g transform="translate(120.681699 290.401899)scale(0.1 -0.1)">
       <defs>
        <path d="M 10.796875 72.90625 
L 49.515625 72.90625 
L 49.515625 64.59375 
L 19.828125 64.59375 
L 19.828125 46.734375 
Q 21.96875 47.46875 24.109375 47.828125 
Q 26.265625 48.1875 28.421875 48.1875 
Q 40.625 48.1875 47.75 41.5 
Q 54.890625 34.8125 54.890625 23.390625 
Q 54.890625 11.625 47.5625 5.09375 
Q 40.234375 -1.421875 26.90625 -1.421875 
Q 22.3125 -1.421875 17.546875 -0.640625 
Q 12.796875 0.140625 7.71875 1.703125 
L 7.71875 11.625 
Q 12.109375 9.234375 16.796875 8.0625 
Q 21.484375 6.890625 26.703125 6.890625 
Q 35.15625 6.890625 40.078125 11.328125 
Q 45.015625 15.765625 45.015625 23.390625 
Q 45.015625 31 40.078125 35.4375 
Q 35.15625 39.890625 26.703125 39.890625 
Q 22.75 39.890625 18.8125 39.015625 
Q 14.890625 38.140625 10.796875 36.28125 
z
" id="DejaVuSans-53"/>
       </defs>
       <use xlink:href="#DejaVuSans-49"/>
       <use x="63.623047" xlink:href="#DejaVuSans-53"/>
      </g>
     </g>
    </g>
    <g id="xtick_3">
     <g id="line2d_3">
      <g>
       <use style="stroke:#000000;stroke-width:0.8;" x="175.38674" xlink:href="#mfd4d3a36b1" y="275.803461"/>
      </g>
     </g>
     <g id="text_3">
      <!-- 20 -->
      <g transform="translate(169.02424 290.401899)scale(0.1 -0.1)">
       <defs>
        <path d="M 19.1875 8.296875 
L 53.609375 8.296875 
L 53.609375 0 
L 7.328125 0 
L 7.328125 8.296875 
Q 12.9375 14.109375 22.625 23.890625 
Q 32.328125 33.6875 34.8125 36.53125 
Q 39.546875 41.84375 41.421875 45.53125 
Q 43.3125 49.21875 43.3125 52.78125 
Q 43.3125 58.59375 39.234375 62.25 
Q 35.15625 65.921875 28.609375 65.921875 
Q 23.96875 65.921875 18.8125 64.3125 
Q 13.671875 62.703125 7.8125 59.421875 
L 7.8125 69.390625 
Q 13.765625 71.78125 18.9375 73 
Q 24.125 74.21875 28.421875 74.21875 
Q 39.75 74.21875 46.484375 68.546875 
Q 53.21875 62.890625 53.21875 53.421875 
Q 53.21875 48.921875 51.53125 44.890625 
Q 49.859375 40.875 45.40625 35.40625 
Q 44.1875 33.984375 37.640625 27.21875 
Q 31.109375 20.453125 19.1875 8.296875 
z
" id="DejaVuSans-50"/>
       </defs>
       <use xlink:href="#DejaVuSans-50"/>
       <use x="63.623047" xlink:href="#DejaVuSans-48"/>
      </g>
     </g>
    </g>
    <g id="xtick_4">
     <g id="line2d_4">
      <g>
       <use style="stroke:#000000;stroke-width:0.8;" x="223.729282" xlink:href="#mfd4d3a36b1" y="275.803461"/>
      </g>
     </g>
     <g id="text_4">
      <!-- 25 -->
      <g transform="translate(217.366782 290.401899)scale(0.1 -0.1)">
       <use xlink:href="#DejaVuSans-50"/>
       <use x="63.623047" xlink:href="#DejaVuSans-53"/>
      </g>
     </g>
    </g>
    <g id="xtick_5">
     <g id="line2d_5">
      <g>
       <use style="stroke:#000000;stroke-width:0.8;" x="272.071823" xlink:href="#mfd4d3a36b1" y="275.803461"/>
      </g>
     </g>
     <g id="text_5">
      <!-- 30 -->
      <g transform="translate(265.709323 290.401899)scale(0.1 -0.1)">
       <defs>
        <path d="M 40.578125 39.3125 
Q 47.65625 37.796875 51.625 33 
Q 55.609375 28.21875 55.609375 21.1875 
Q 55.609375 10.40625 48.1875 4.484375 
Q 40.765625 -1.421875 27.09375 -1.421875 
Q 22.515625 -1.421875 17.65625 -0.515625 
Q 12.796875 0.390625 7.625 2.203125 
L 7.625 11.71875 
Q 11.71875 9.328125 16.59375 8.109375 
Q 21.484375 6.890625 26.8125 6.890625 
Q 36.078125 6.890625 40.9375 10.546875 
Q 45.796875 14.203125 45.796875 21.1875 
Q 45.796875 27.640625 41.28125 31.265625 
Q 36.765625 34.90625 28.71875 34.90625 
L 20.21875 34.90625 
L 20.21875 43.015625 
L 29.109375 43.015625 
Q 36.375 43.015625 40.234375 45.921875 
Q 44.09375 48.828125 44.09375 54.296875 
Q 44.09375 59.90625 40.109375 62.90625 
Q 36.140625 65.921875 28.71875 65.921875 
Q 24.65625 65.921875 20.015625 65.03125 
Q 15.375 64.15625 9.8125 62.3125 
L 9.8125 71.09375 
Q 15.4375 72.65625 20.34375 73.4375 
Q 25.25 74.21875 29.59375 74.21875 
Q 40.828125 74.21875 47.359375 69.109375 
Q 53.90625 64.015625 53.90625 55.328125 
Q 53.90625 49.265625 50.4375 45.09375 
Q 46.96875 40.921875 40.578125 39.3125 
z
" id="DejaVuSans-51"/>
       </defs>
       <use xlink:href="#DejaVuSans-51"/>
       <use x="63.623047" xlink:href="#DejaVuSans-48"/>
      </g>
     </g>
    </g>
    <g id="xtick_6">
     <g id="line2d_6">
      <g>
       <use style="stroke:#000000;stroke-width:0.8;" x="320.414365" xlink:href="#mfd4d3a36b1" y="275.803461"/>
      </g>
     </g>
     <g id="text_6">
      <!-- 35 -->
      <g transform="translate(314.051865 290.401899)scale(0.1 -0.1)">
       <use xlink:href="#DejaVuSans-51"/>
       <use x="63.623047" xlink:href="#DejaVuSans-53"/>
      </g>
     </g>
    </g>
    <g id="xtick_7">
     <g id="line2d_7">
      <g>
       <use style="stroke:#000000;stroke-width:0.8;" x="368.756906" xlink:href="#mfd4d3a36b1" y="275.803461"/>
      </g>
     </g>
     <g id="text_7">
      <!-- 40 -->
      <g transform="translate(362.394406 290.401899)scale(0.1 -0.1)">
       <defs>
        <path d="M 37.796875 64.3125 
L 12.890625 25.390625 
L 37.796875 25.390625 
z
M 35.203125 72.90625 
L 47.609375 72.90625 
L 47.609375 25.390625 
L 58.015625 25.390625 
L 58.015625 17.1875 
L 47.609375 17.1875 
L 47.609375 0 
L 37.796875 0 
L 37.796875 17.1875 
L 4.890625 17.1875 
L 4.890625 26.703125 
z
" id="DejaVuSans-52"/>
       </defs>
       <use xlink:href="#DejaVuSans-52"/>
       <use x="63.623047" xlink:href="#DejaVuSans-48"/>
      </g>
     </g>
    </g>
    <g id="xtick_8">
     <g id="line2d_8">
      <g>
       <use style="stroke:#000000;stroke-width:0.8;" x="417.099448" xlink:href="#mfd4d3a36b1" y="275.803461"/>
      </g>
     </g>
     <g id="text_8">
      <!-- 45 -->
      <g transform="translate(410.736948 290.401899)scale(0.1 -0.1)">
       <use xlink:href="#DejaVuSans-52"/>
       <use x="63.623047" xlink:href="#DejaVuSans-53"/>
      </g>
     </g>
    </g>
    <g id="xtick_9">
     <g id="line2d_9">
      <g>
       <use style="stroke:#000000;stroke-width:0.8;" x="465.441989" xlink:href="#mfd4d3a36b1" y="275.803461"/>
      </g>
     </g>
     <g id="text_9">
      <!-- 50 -->
      <g transform="translate(459.079489 290.401899)scale(0.1 -0.1)">
       <use xlink:href="#DejaVuSans-53"/>
       <use x="63.623047" xlink:href="#DejaVuSans-48"/>
      </g>
     </g>
    </g>
    <g id="text_10">
     <!-- birth_rate -->
     <g transform="translate(238.096094 304.080024)scale(0.1 -0.1)">
      <defs>
       <path d="M 48.6875 27.296875 
Q 48.6875 37.203125 44.609375 42.84375 
Q 40.53125 48.484375 33.40625 48.484375 
Q 26.265625 48.484375 22.1875 42.84375 
Q 18.109375 37.203125 18.109375 27.296875 
Q 18.109375 17.390625 22.1875 11.75 
Q 26.265625 6.109375 33.40625 6.109375 
Q 40.53125 6.109375 44.609375 11.75 
Q 48.6875 17.390625 48.6875 27.296875 
z
M 18.109375 46.390625 
Q 20.953125 51.265625 25.265625 53.625 
Q 29.59375 56 35.59375 56 
Q 45.5625 56 51.78125 48.09375 
Q 58.015625 40.1875 58.015625 27.296875 
Q 58.015625 14.40625 51.78125 6.484375 
Q 45.5625 -1.421875 35.59375 -1.421875 
Q 29.59375 -1.421875 25.265625 0.953125 
Q 20.953125 3.328125 18.109375 8.203125 
L 18.109375 0 
L 9.078125 0 
L 9.078125 75.984375 
L 18.109375 75.984375 
z
" id="DejaVuSans-98"/>
       <path d="M 9.421875 54.6875 
L 18.40625 54.6875 
L 18.40625 0 
L 9.421875 0 
z
M 9.421875 75.984375 
L 18.40625 75.984375 
L 18.40625 64.59375 
L 9.421875 64.59375 
z
" id="DejaVuSans-105"/>
       <path d="M 41.109375 46.296875 
Q 39.59375 47.171875 37.8125 47.578125 
Q 36.03125 48 33.890625 48 
Q 26.265625 48 22.1875 43.046875 
Q 18.109375 38.09375 18.109375 28.8125 
L 18.109375 0 
L 9.078125 0 
L 9.078125 54.6875 
L 18.109375 54.6875 
L 18.109375 46.1875 
Q 20.953125 51.171875 25.484375 53.578125 
Q 30.03125 56 36.53125 56 
Q 37.453125 56 38.578125 55.875 
Q 39.703125 55.765625 41.0625 55.515625 
z
" id="DejaVuSans-114"/>
       <path d="M 18.3125 70.21875 
L 18.3125 54.6875 
L 36.8125 54.6875 
L 36.8125 47.703125 
L 18.3125 47.703125 
L 18.3125 18.015625 
Q 18.3125 11.328125 20.140625 9.421875 
Q 21.96875 7.515625 27.59375 7.515625 
L 36.8125 7.515625 
L 36.8125 0 
L 27.59375 0 
Q 17.1875 0 13.234375 3.875 
Q 9.28125 7.765625 9.28125 18.015625 
L 9.28125 47.703125 
L 2.6875 47.703125 
L 2.6875 54.6875 
L 9.28125 54.6875 
L 9.28125 70.21875 
z
" id="DejaVuSans-116"/>
       <path d="M 54.890625 33.015625 
L 54.890625 0 
L 45.90625 0 
L 45.90625 32.71875 
Q 45.90625 40.484375 42.875 44.328125 
Q 39.84375 48.1875 33.796875 48.1875 
Q 26.515625 48.1875 22.3125 43.546875 
Q 18.109375 38.921875 18.109375 30.90625 
L 18.109375 0 
L 9.078125 0 
L 9.078125 75.984375 
L 18.109375 75.984375 
L 18.109375 46.1875 
Q 21.34375 51.125 25.703125 53.5625 
Q 30.078125 56 35.796875 56 
Q 45.21875 56 50.046875 50.171875 
Q 54.890625 44.34375 54.890625 33.015625 
z
" id="DejaVuSans-104"/>
       <path d="M 50.984375 -16.609375 
L 50.984375 -23.578125 
L -0.984375 -23.578125 
L -0.984375 -16.609375 
z
" id="DejaVuSans-95"/>
       <path d="M 34.28125 27.484375 
Q 23.390625 27.484375 19.1875 25 
Q 14.984375 22.515625 14.984375 16.5 
Q 14.984375 11.71875 18.140625 8.90625 
Q 21.296875 6.109375 26.703125 6.109375 
Q 34.1875 6.109375 38.703125 11.40625 
Q 43.21875 16.703125 43.21875 25.484375 
L 43.21875 27.484375 
z
M 52.203125 31.203125 
L 52.203125 0 
L 43.21875 0 
L 43.21875 8.296875 
Q 40.140625 3.328125 35.546875 0.953125 
Q 30.953125 -1.421875 24.3125 -1.421875 
Q 15.921875 -1.421875 10.953125 3.296875 
Q 6 8.015625 6 15.921875 
Q 6 25.140625 12.171875 29.828125 
Q 18.359375 34.515625 30.609375 34.515625 
L 43.21875 34.515625 
L 43.21875 35.40625 
Q 43.21875 41.609375 39.140625 45 
Q 35.0625 48.390625 27.6875 48.390625 
Q 23 48.390625 18.546875 47.265625 
Q 14.109375 46.140625 10.015625 43.890625 
L 10.015625 52.203125 
Q 14.9375 54.109375 19.578125 55.046875 
Q 24.21875 56 28.609375 56 
Q 40.484375 56 46.34375 49.84375 
Q 52.203125 43.703125 52.203125 31.203125 
z
" id="DejaVuSans-97"/>
       <path d="M 56.203125 29.59375 
L 56.203125 25.203125 
L 14.890625 25.203125 
Q 15.484375 15.921875 20.484375 11.0625 
Q 25.484375 6.203125 34.421875 6.203125 
Q 39.59375 6.203125 44.453125 7.46875 
Q 49.3125 8.734375 54.109375 11.28125 
L 54.109375 2.78125 
Q 49.265625 0.734375 44.1875 -0.34375 
Q 39.109375 -1.421875 33.890625 -1.421875 
Q 20.796875 -1.421875 13.15625 6.1875 
Q 5.515625 13.8125 5.515625 26.8125 
Q 5.515625 40.234375 12.765625 48.109375 
Q 20.015625 56 32.328125 56 
Q 43.359375 56 49.78125 48.890625 
Q 56.203125 41.796875 56.203125 29.59375 
z
M 47.21875 32.234375 
Q 47.125 39.59375 43.09375 43.984375 
Q 39.0625 48.390625 32.421875 48.390625 
Q 24.90625 48.390625 20.390625 44.140625 
Q 15.875 39.890625 15.1875 32.171875 
z
" id="DejaVuSans-101"/>
      </defs>
      <use xlink:href="#DejaVuSans-98"/>
      <use x="63.476562" xlink:href="#DejaVuSans-105"/>
      <use x="91.259766" xlink:href="#DejaVuSans-114"/>
      <use x="132.373047" xlink:href="#DejaVuSans-116"/>
      <use x="171.582031" xlink:href="#DejaVuSans-104"/>
      <use x="234.960938" xlink:href="#DejaVuSans-95"/>
      <use x="284.960938" xlink:href="#DejaVuSans-114"/>
      <use x="326.074219" xlink:href="#DejaVuSans-97"/>
      <use x="387.353516" xlink:href="#DejaVuSans-116"/>
      <use x="426.5625" xlink:href="#DejaVuSans-101"/>
     </g>
    </g>
   </g>
   <g id="matplotlib.axis_2">
    <g id="ytick_1">
     <g id="line2d_10">
      <defs>
       <path d="M 0 0 
L -3.5 0 
" id="m97e6a16dcf" style="stroke:#000000;stroke-width:0.8;"/>
      </defs>
      <g>
       <use style="stroke:#000000;stroke-width:0.8;" x="52.5" xlink:href="#m97e6a16dcf" y="274.909007"/>
      </g>
     </g>
     <g id="text_11">
      <!-- −2 -->
      <g transform="translate(30.757812 278.708225)scale(0.1 -0.1)">
       <defs>
        <path d="M 10.59375 35.5 
L 73.1875 35.5 
L 73.1875 27.203125 
L 10.59375 27.203125 
z
" id="DejaVuSans-8722"/>
       </defs>
       <use xlink:href="#DejaVuSans-8722"/>
       <use x="83.789062" xlink:href="#DejaVuSans-50"/>
      </g>
     </g>
    </g>
    <g id="ytick_2">
     <g id="line2d_11">
      <g>
       <use style="stroke:#000000;stroke-width:0.8;" x="52.5" xlink:href="#m97e6a16dcf" y="226.620964"/>
      </g>
     </g>
     <g id="text_12">
      <!-- 0 -->
      <g transform="translate(39.1375 230.420183)scale(0.1 -0.1)">
       <use xlink:href="#DejaVuSans-48"/>
      </g>
     </g>
    </g>
    <g id="ytick_3">
     <g id="line2d_12">
      <g>
       <use style="stroke:#000000;stroke-width:0.8;" x="52.5" xlink:href="#m97e6a16dcf" y="178.332922"/>
      </g>
     </g>
     <g id="text_13">
      <!-- 2 -->
      <g transform="translate(39.1375 182.13214)scale(0.1 -0.1)">
       <use xlink:href="#DejaVuSans-50"/>
      </g>
     </g>
    </g>
    <g id="ytick_4">
     <g id="line2d_13">
      <g>
       <use style="stroke:#000000;stroke-width:0.8;" x="52.5" xlink:href="#m97e6a16dcf" y="130.044879"/>
      </g>
     </g>
     <g id="text_14">
      <!-- 4 -->
      <g transform="translate(39.1375 133.844098)scale(0.1 -0.1)">
       <use xlink:href="#DejaVuSans-52"/>
      </g>
     </g>
    </g>
    <g id="ytick_5">
     <g id="line2d_14">
      <g>
       <use style="stroke:#000000;stroke-width:0.8;" x="52.5" xlink:href="#m97e6a16dcf" y="81.756837"/>
      </g>
     </g>
     <g id="text_15">
      <!-- 6 -->
      <g transform="translate(39.1375 85.556055)scale(0.1 -0.1)">
       <defs>
        <path d="M 33.015625 40.375 
Q 26.375 40.375 22.484375 35.828125 
Q 18.609375 31.296875 18.609375 23.390625 
Q 18.609375 15.53125 22.484375 10.953125 
Q 26.375 6.390625 33.015625 6.390625 
Q 39.65625 6.390625 43.53125 10.953125 
Q 47.40625 15.53125 47.40625 23.390625 
Q 47.40625 31.296875 43.53125 35.828125 
Q 39.65625 40.375 33.015625 40.375 
z
M 52.59375 71.296875 
L 52.59375 62.3125 
Q 48.875 64.0625 45.09375 64.984375 
Q 41.3125 65.921875 37.59375 65.921875 
Q 27.828125 65.921875 22.671875 59.328125 
Q 17.53125 52.734375 16.796875 39.40625 
Q 19.671875 43.65625 24.015625 45.921875 
Q 28.375 48.1875 33.59375 48.1875 
Q 44.578125 48.1875 50.953125 41.515625 
Q 57.328125 34.859375 57.328125 23.390625 
Q 57.328125 12.15625 50.6875 5.359375 
Q 44.046875 -1.421875 33.015625 -1.421875 
Q 20.359375 -1.421875 13.671875 8.265625 
Q 6.984375 17.96875 6.984375 36.375 
Q 6.984375 53.65625 15.1875 63.9375 
Q 23.390625 74.21875 37.203125 74.21875 
Q 40.921875 74.21875 44.703125 73.484375 
Q 48.484375 72.75 52.59375 71.296875 
z
" id="DejaVuSans-54"/>
       </defs>
       <use xlink:href="#DejaVuSans-54"/>
      </g>
     </g>
    </g>
    <g id="text_16">
     <!-- log_phones -->
     <g transform="translate(24.4 190.61233)rotate(-90)scale(0.1 -0.1)">
      <defs>
       <path d="M 9.421875 75.984375 
L 18.40625 75.984375 
L 18.40625 0 
L 9.421875 0 
z
" id="DejaVuSans-108"/>
       <path d="M 30.609375 48.390625 
Q 23.390625 48.390625 19.1875 42.75 
Q 14.984375 37.109375 14.984375 27.296875 
Q 14.984375 17.484375 19.15625 11.84375 
Q 23.34375 6.203125 30.609375 6.203125 
Q 37.796875 6.203125 41.984375 11.859375 
Q 46.1875 17.53125 46.1875 27.296875 
Q 46.1875 37.015625 41.984375 42.703125 
Q 37.796875 48.390625 30.609375 48.390625 
z
M 30.609375 56 
Q 42.328125 56 49.015625 48.375 
Q 55.71875 40.765625 55.71875 27.296875 
Q 55.71875 13.875 49.015625 6.21875 
Q 42.328125 -1.421875 30.609375 -1.421875 
Q 18.84375 -1.421875 12.171875 6.21875 
Q 5.515625 13.875 5.515625 27.296875 
Q 5.515625 40.765625 12.171875 48.375 
Q 18.84375 56 30.609375 56 
z
" id="DejaVuSans-111"/>
       <path d="M 45.40625 27.984375 
Q 45.40625 37.75 41.375 43.109375 
Q 37.359375 48.484375 30.078125 48.484375 
Q 22.859375 48.484375 18.828125 43.109375 
Q 14.796875 37.75 14.796875 27.984375 
Q 14.796875 18.265625 18.828125 12.890625 
Q 22.859375 7.515625 30.078125 7.515625 
Q 37.359375 7.515625 41.375 12.890625 
Q 45.40625 18.265625 45.40625 27.984375 
z
M 54.390625 6.78125 
Q 54.390625 -7.171875 48.1875 -13.984375 
Q 42 -20.796875 29.203125 -20.796875 
Q 24.46875 -20.796875 20.265625 -20.09375 
Q 16.0625 -19.390625 12.109375 -17.921875 
L 12.109375 -9.1875 
Q 16.0625 -11.328125 19.921875 -12.34375 
Q 23.78125 -13.375 27.78125 -13.375 
Q 36.625 -13.375 41.015625 -8.765625 
Q 45.40625 -4.15625 45.40625 5.171875 
L 45.40625 9.625 
Q 42.625 4.78125 38.28125 2.390625 
Q 33.9375 0 27.875 0 
Q 17.828125 0 11.671875 7.65625 
Q 5.515625 15.328125 5.515625 27.984375 
Q 5.515625 40.671875 11.671875 48.328125 
Q 17.828125 56 27.875 56 
Q 33.9375 56 38.28125 53.609375 
Q 42.625 51.21875 45.40625 46.390625 
L 45.40625 54.6875 
L 54.390625 54.6875 
z
" id="DejaVuSans-103"/>
       <path d="M 18.109375 8.203125 
L 18.109375 -20.796875 
L 9.078125 -20.796875 
L 9.078125 54.6875 
L 18.109375 54.6875 
L 18.109375 46.390625 
Q 20.953125 51.265625 25.265625 53.625 
Q 29.59375 56 35.59375 56 
Q 45.5625 56 51.78125 48.09375 
Q 58.015625 40.1875 58.015625 27.296875 
Q 58.015625 14.40625 51.78125 6.484375 
Q 45.5625 -1.421875 35.59375 -1.421875 
Q 29.59375 -1.421875 25.265625 0.953125 
Q 20.953125 3.328125 18.109375 8.203125 
z
M 48.6875 27.296875 
Q 48.6875 37.203125 44.609375 42.84375 
Q 40.53125 48.484375 33.40625 48.484375 
Q 26.265625 48.484375 22.1875 42.84375 
Q 18.109375 37.203125 18.109375 27.296875 
Q 18.109375 17.390625 22.1875 11.75 
Q 26.265625 6.109375 33.40625 6.109375 
Q 40.53125 6.109375 44.609375 11.75 
Q 48.6875 17.390625 48.6875 27.296875 
z
" id="DejaVuSans-112"/>
       <path d="M 54.890625 33.015625 
L 54.890625 0 
L 45.90625 0 
L 45.90625 32.71875 
Q 45.90625 40.484375 42.875 44.328125 
Q 39.84375 48.1875 33.796875 48.1875 
Q 26.515625 48.1875 22.3125 43.546875 
Q 18.109375 38.921875 18.109375 30.90625 
L 18.109375 0 
L 9.078125 0 
L 9.078125 54.6875 
L 18.109375 54.6875 
L 18.109375 46.1875 
Q 21.34375 51.125 25.703125 53.5625 
Q 30.078125 56 35.796875 56 
Q 45.21875 56 50.046875 50.171875 
Q 54.890625 44.34375 54.890625 33.015625 
z
" id="DejaVuSans-110"/>
       <path d="M 44.28125 53.078125 
L 44.28125 44.578125 
Q 40.484375 46.53125 36.375 47.5 
Q 32.28125 48.484375 27.875 48.484375 
Q 21.1875 48.484375 17.84375 46.4375 
Q 14.5 44.390625 14.5 40.28125 
Q 14.5 37.15625 16.890625 35.375 
Q 19.28125 33.59375 26.515625 31.984375 
L 29.59375 31.296875 
Q 39.15625 29.25 43.1875 25.515625 
Q 47.21875 21.78125 47.21875 15.09375 
Q 47.21875 7.46875 41.1875 3.015625 
Q 35.15625 -1.421875 24.609375 -1.421875 
Q 20.21875 -1.421875 15.453125 -0.5625 
Q 10.6875 0.296875 5.421875 2 
L 5.421875 11.28125 
Q 10.40625 8.6875 15.234375 7.390625 
Q 20.0625 6.109375 24.8125 6.109375 
Q 31.15625 6.109375 34.5625 8.28125 
Q 37.984375 10.453125 37.984375 14.40625 
Q 37.984375 18.0625 35.515625 20.015625 
Q 33.0625 21.96875 24.703125 23.78125 
L 21.578125 24.515625 
Q 13.234375 26.265625 9.515625 29.90625 
Q 5.8125 33.546875 5.8125 39.890625 
Q 5.8125 47.609375 11.28125 51.796875 
Q 16.75 56 26.8125 56 
Q 31.78125 56 36.171875 55.265625 
Q 40.578125 54.546875 44.28125 53.078125 
z
" id="DejaVuSans-115"/>
      </defs>
      <use xlink:href="#DejaVuSans-108"/>
      <use x="27.783203" xlink:href="#DejaVuSans-111"/>
      <use x="88.964844" xlink:href="#DejaVuSans-103"/>
      <use x="152.441406" xlink:href="#DejaVuSans-95"/>
      <use x="202.441406" xlink:href="#DejaVuSans-112"/>
      <use x="265.917969" xlink:href="#DejaVuSans-104"/>
      <use x="329.296875" xlink:href="#DejaVuSans-111"/>
      <use x="390.478516" xlink:href="#DejaVuSans-110"/>
      <use x="453.857422" xlink:href="#DejaVuSans-101"/>
      <use x="515.380859" xlink:href="#DejaVuSans-115"/>
     </g>
    </g>
   </g>
   <g id="line2d_15">
    <path clip-path="url(#p86a9a61698)" d="M 52.5 68.236131 
L 56.742424 69.618192 
L 60.984848 71.000253 
L 65.227273 72.382313 
L 69.469697 73.764374 
L 73.712121 75.146435 
L 77.954545 76.528496 
L 82.19697 77.910557 
L 86.439394 79.292618 
L 90.681818 80.674679 
L 94.924242 82.056739 
L 99.166667 83.4388 
L 103.409091 84.820861 
L 107.651515 86.202922 
L 111.893939 87.584983 
L 116.136364 88.967044 
L 120.378788 90.349105 
L 124.621212 91.731166 
L 128.863636 93.113226 
L 133.106061 94.495287 
L 137.348485 95.877348 
L 141.590909 97.259409 
L 145.833333 98.64147 
L 150.075758 100.023531 
L 154.318182 101.405592 
L 158.560606 102.787652 
L 162.80303 104.169713 
L 167.045455 105.551774 
L 171.287879 106.933835 
L 175.530303 108.315896 
L 179.772727 109.697957 
L 184.015152 111.080018 
L 188.257576 112.462079 
L 192.5 113.844139 
L 196.742424 115.2262 
L 200.984848 116.608261 
L 205.227273 117.990322 
L 209.469697 119.372383 
L 213.712121 120.754444 
L 217.954545 122.136505 
L 222.19697 123.518565 
L 226.439394 124.900626 
L 230.681818 126.282687 
L 234.924242 127.664748 
L 239.166667 129.046809 
L 243.409091 130.42887 
L 247.651515 131.810931 
L 251.893939 133.192992 
L 256.136364 134.575052 
L 260.378788 135.957113 
L 264.621212 137.339174 
L 268.863636 138.721235 
L 273.106061 140.103296 
L 277.348485 141.485357 
L 281.590909 142.867418 
L 285.833333 144.249479 
L 290.075758 145.631539 
L 294.318182 147.0136 
L 298.560606 148.395661 
L 302.80303 149.777722 
L 307.045455 151.159783 
L 311.287879 152.541844 
L 315.530303 153.923905 
L 319.772727 155.305965 
L 324.015152 156.688026 
L 328.257576 158.070087 
L 332.5 159.452148 
L 336.742424 160.834209 
L 340.984848 162.21627 
L 345.227273 163.598331 
L 349.469697 164.980392 
L 353.712121 166.362452 
L 357.954545 167.744513 
L 362.19697 169.126574 
L 366.439394 170.508635 
L 370.681818 171.890696 
L 374.924242 173.272757 
L 379.166667 174.654818 
L 383.409091 176.036878 
L 387.651515 177.418939 
L 391.893939 178.801 
L 396.136364 180.183061 
L 400.378788 181.565122 
L 404.621212 182.947183 
L 408.863636 184.329244 
L 413.106061 185.711305 
L 417.348485 187.093365 
L 421.590909 188.475426 
L 425.833333 189.857487 
L 430.075758 191.239548 
L 434.318182 192.621609 
L 438.560606 194.00367 
L 442.80303 195.385731 
L 447.045455 196.767791 
L 451.287879 198.149852 
L 455.530303 199.531913 
L 459.772727 200.913974 
L 464.015152 202.296035 
L 468.257576 203.678096 
L 472.5 205.060157 
" style="fill:none;stroke:#1f77b4;stroke-linecap:square;stroke-width:3;"/>
   </g>
   <g id="patch_3">
    <path d="M 52.5 275.803461 
L 52.5 48.671199 
" style="fill:none;stroke:#000000;stroke-linecap:square;stroke-linejoin:miter;stroke-width:0.8;"/>
   </g>
   <g id="patch_4">
    <path d="M 52.5 275.803461 
L 472.5 275.803461 
" style="fill:none;stroke:#000000;stroke-linecap:square;stroke-linejoin:miter;stroke-width:0.8;"/>
   </g>
   <g id="patch_5">
    <path d="M 418.162983 185.867702 
Q 418.162983 186.613204 418.162983 186.240672 
" style="fill:none;stroke:#000000;stroke-linecap:round;"/>
    <path d="M 420.162983 182.240672 
L 418.162983 186.240672 
L 416.162983 182.240672 
" style="fill:none;stroke:#000000;stroke-linecap:round;"/>
   </g>
   <g id="text_17">
    <!--   -->
    <g transform="translate(416.573921 179.785532)scale(0.1 -0.1)">
     <defs>
      <path id="DejaVuSans-32"/>
     </defs>
     <use xlink:href="#DejaVuSans-32"/>
    </g>
   </g>
   <g id="text_18">
    <!-- Angola -->
    <g transform="translate(427.831492 175.461728)scale(0.12 -0.12)">
     <defs>
      <path d="M 53.421875 13.28125 
L 24.03125 13.28125 
L 19.390625 0 
L 0.484375 0 
L 27.484375 72.90625 
L 49.90625 72.90625 
L 76.90625 0 
L 58.015625 0 
z
M 28.71875 26.8125 
L 48.6875 26.8125 
L 38.71875 55.8125 
z
" id="DejaVuSans-Bold-65"/>
      <path d="M 63.375 33.296875 
L 63.375 0 
L 45.796875 0 
L 45.796875 5.421875 
L 45.796875 25.484375 
Q 45.796875 32.5625 45.484375 35.25 
Q 45.171875 37.9375 44.390625 39.203125 
Q 43.359375 40.921875 41.59375 41.875 
Q 39.84375 42.828125 37.59375 42.828125 
Q 32.125 42.828125 29 38.59375 
Q 25.875 34.375 25.875 26.90625 
L 25.875 0 
L 8.40625 0 
L 8.40625 54.6875 
L 25.875 54.6875 
L 25.875 46.6875 
Q 29.828125 51.46875 34.265625 53.734375 
Q 38.71875 56 44.09375 56 
Q 53.5625 56 58.46875 50.1875 
Q 63.375 44.390625 63.375 33.296875 
z
" id="DejaVuSans-Bold-110"/>
      <path d="M 45.609375 9.28125 
Q 42 4.5 37.640625 2.25 
Q 33.296875 0 27.59375 0 
Q 17.578125 0 11.03125 7.875 
Q 4.5 15.765625 4.5 27.984375 
Q 4.5 40.234375 11.03125 48.0625 
Q 17.578125 55.90625 27.59375 55.90625 
Q 33.296875 55.90625 37.640625 53.65625 
Q 42 51.421875 45.609375 46.578125 
L 45.609375 54.6875 
L 63.1875 54.6875 
L 63.1875 5.515625 
Q 63.1875 -7.671875 54.859375 -14.625 
Q 46.53125 -21.578125 30.71875 -21.578125 
Q 25.59375 -21.578125 20.796875 -20.796875 
Q 16.015625 -20.015625 11.1875 -18.40625 
L 11.1875 -4.78125 
Q 15.765625 -7.421875 20.15625 -8.71875 
Q 24.5625 -10.015625 29 -10.015625 
Q 37.59375 -10.015625 41.59375 -6.25 
Q 45.609375 -2.484375 45.609375 5.515625 
z
M 34.078125 43.3125 
Q 28.65625 43.3125 25.625 39.296875 
Q 22.609375 35.296875 22.609375 27.984375 
Q 22.609375 20.453125 25.53125 16.578125 
Q 28.46875 12.703125 34.078125 12.703125 
Q 39.546875 12.703125 42.578125 16.703125 
Q 45.609375 20.703125 45.609375 27.984375 
Q 45.609375 35.296875 42.578125 39.296875 
Q 39.546875 43.3125 34.078125 43.3125 
z
" id="DejaVuSans-Bold-103"/>
      <path d="M 34.421875 43.5 
Q 28.609375 43.5 25.5625 39.328125 
Q 22.515625 35.15625 22.515625 27.296875 
Q 22.515625 19.4375 25.5625 15.25 
Q 28.609375 11.078125 34.421875 11.078125 
Q 40.140625 11.078125 43.15625 15.25 
Q 46.1875 19.4375 46.1875 27.296875 
Q 46.1875 35.15625 43.15625 39.328125 
Q 40.140625 43.5 34.421875 43.5 
z
M 34.421875 56 
Q 48.53125 56 56.46875 48.375 
Q 64.40625 40.765625 64.40625 27.296875 
Q 64.40625 13.8125 56.46875 6.1875 
Q 48.53125 -1.421875 34.421875 -1.421875 
Q 20.265625 -1.421875 12.28125 6.1875 
Q 4.296875 13.8125 4.296875 27.296875 
Q 4.296875 40.765625 12.28125 48.375 
Q 20.265625 56 34.421875 56 
z
" id="DejaVuSans-Bold-111"/>
      <path d="M 8.40625 75.984375 
L 25.875 75.984375 
L 25.875 0 
L 8.40625 0 
z
" id="DejaVuSans-Bold-108"/>
      <path d="M 32.90625 24.609375 
Q 27.4375 24.609375 24.671875 22.75 
Q 21.921875 20.90625 21.921875 17.28125 
Q 21.921875 13.96875 24.140625 12.078125 
Q 26.375 10.203125 30.328125 10.203125 
Q 35.25 10.203125 38.625 13.734375 
Q 42 17.28125 42 22.609375 
L 42 24.609375 
z
M 59.625 31.203125 
L 59.625 0 
L 42 0 
L 42 8.109375 
Q 38.484375 3.125 34.078125 0.84375 
Q 29.6875 -1.421875 23.390625 -1.421875 
Q 14.890625 -1.421875 9.59375 3.53125 
Q 4.296875 8.5 4.296875 16.40625 
Q 4.296875 26.03125 10.90625 30.515625 
Q 17.53125 35.015625 31.6875 35.015625 
L 42 35.015625 
L 42 36.375 
Q 42 40.53125 38.71875 42.453125 
Q 35.453125 44.390625 28.515625 44.390625 
Q 22.90625 44.390625 18.0625 43.265625 
Q 13.234375 42.140625 9.078125 39.890625 
L 9.078125 53.21875 
Q 14.703125 54.59375 20.359375 55.296875 
Q 26.03125 56 31.6875 56 
Q 46.484375 56 53.046875 50.171875 
Q 59.625 44.34375 59.625 31.203125 
z
" id="DejaVuSans-Bold-97"/>
     </defs>
     <use xlink:href="#DejaVuSans-Bold-65"/>
     <use x="77.392578" xlink:href="#DejaVuSans-Bold-110"/>
     <use x="148.583984" xlink:href="#DejaVuSans-Bold-103"/>
     <use x="220.166016" xlink:href="#DejaVuSans-Bold-111"/>
     <use x="288.867188" xlink:href="#DejaVuSans-Bold-108"/>
     <use x="323.144531" xlink:href="#DejaVuSans-Bold-97"/>
    </g>
   </g>
   <g id="patch_6">
    <path d="M 281.546961 150.99998 
Q 281.546961 147.926999 281.546961 145.972053 
" style="fill:none;stroke:#000000;stroke-linecap:round;"/>
    <path d="M 279.546961 149.972053 
L 281.546961 145.972053 
L 283.546961 149.972053 
" style="fill:none;stroke:#000000;stroke-linecap:round;"/>
   </g>
   <g id="text_19">
    <!--   -->
    <g transform="translate(279.957899 162.590272)scale(0.1 -0.1)">
     <use xlink:href="#DejaVuSans-32"/>
    </g>
   </g>
   <g id="text_20">
    <!-- Nepal -->
    <g transform="translate(291.21547 158.313343)scale(0.12 -0.12)">
     <defs>
      <path d="M 9.1875 72.90625 
L 30.171875 72.90625 
L 56.6875 22.90625 
L 56.6875 72.90625 
L 74.515625 72.90625 
L 74.515625 0 
L 53.515625 0 
L 27 50 
L 27 0 
L 9.1875 0 
z
" id="DejaVuSans-Bold-78"/>
      <path d="M 62.984375 27.484375 
L 62.984375 22.515625 
L 22.125 22.515625 
Q 22.75 16.359375 26.5625 13.28125 
Q 30.375 10.203125 37.203125 10.203125 
Q 42.71875 10.203125 48.5 11.84375 
Q 54.296875 13.484375 60.40625 16.796875 
L 60.40625 3.328125 
Q 54.203125 0.984375 48 -0.21875 
Q 41.796875 -1.421875 35.59375 -1.421875 
Q 20.75 -1.421875 12.515625 6.125 
Q 4.296875 13.671875 4.296875 27.296875 
Q 4.296875 40.671875 12.375 48.328125 
Q 20.453125 56 34.625 56 
Q 47.515625 56 55.25 48.234375 
Q 62.984375 40.484375 62.984375 27.484375 
z
M 45.015625 33.296875 
Q 45.015625 38.28125 42.109375 41.328125 
Q 39.203125 44.390625 34.515625 44.390625 
Q 29.4375 44.390625 26.265625 41.53125 
Q 23.09375 38.671875 22.3125 33.296875 
z
" id="DejaVuSans-Bold-101"/>
      <path d="M 25.875 7.90625 
L 25.875 -20.796875 
L 8.40625 -20.796875 
L 8.40625 54.6875 
L 25.875 54.6875 
L 25.875 46.6875 
Q 29.5 51.46875 33.890625 53.734375 
Q 38.28125 56 44 56 
Q 54.109375 56 60.59375 47.96875 
Q 67.09375 39.9375 67.09375 27.296875 
Q 67.09375 14.65625 60.59375 6.609375 
Q 54.109375 -1.421875 44 -1.421875 
Q 38.28125 -1.421875 33.890625 0.84375 
Q 29.5 3.125 25.875 7.90625 
z
M 37.5 43.3125 
Q 31.890625 43.3125 28.875 39.1875 
Q 25.875 35.0625 25.875 27.296875 
Q 25.875 19.53125 28.875 15.40625 
Q 31.890625 11.28125 37.5 11.28125 
Q 43.109375 11.28125 46.0625 15.375 
Q 49.03125 19.484375 49.03125 27.296875 
Q 49.03125 35.109375 46.0625 39.203125 
Q 43.109375 43.3125 37.5 43.3125 
z
" id="DejaVuSans-Bold-112"/>
     </defs>
     <use xlink:href="#DejaVuSans-Bold-78"/>
     <use x="83.691406" xlink:href="#DejaVuSans-Bold-101"/>
     <use x="151.513672" xlink:href="#DejaVuSans-Bold-112"/>
     <use x="223.095703" xlink:href="#DejaVuSans-Bold-97"/>
     <use x="290.576172" xlink:href="#DejaVuSans-Bold-108"/>
    </g>
   </g>
   <g id="patch_7">
    <path d="M 377.941989 141.152986 
Q 377.941989 156.704302 377.941989 171.137584 
" style="fill:none;stroke:#000000;stroke-linecap:round;"/>
    <path d="M 379.941989 167.137584 
L 377.941989 171.137584 
L 375.941989 167.137584 
" style="fill:none;stroke:#000000;stroke-linecap:round;"/>
   </g>
   <g id="text_21">
    <!--   -->
    <g transform="translate(376.352926 135.073673)scale(0.1 -0.1)">
     <use xlink:href="#DejaVuSans-32"/>
    </g>
   </g>
   <g id="text_22">
    <!-- Mayotte -->
    <g transform="translate(387.610497 130.702994)scale(0.12 -0.12)">
     <defs>
      <path d="M 9.1875 72.90625 
L 33.109375 72.90625 
L 49.703125 33.890625 
L 66.40625 72.90625 
L 90.28125 72.90625 
L 90.28125 0 
L 72.515625 0 
L 72.515625 53.328125 
L 55.71875 14.015625 
L 43.796875 14.015625 
L 27 53.328125 
L 27 0 
L 9.1875 0 
z
" id="DejaVuSans-Bold-77"/>
      <path d="M 1.21875 54.6875 
L 18.703125 54.6875 
L 33.40625 17.578125 
L 45.90625 54.6875 
L 63.375 54.6875 
L 40.375 -5.171875 
Q 36.921875 -14.3125 32.296875 -17.9375 
Q 27.6875 -21.578125 20.125 -21.578125 
L 10.015625 -21.578125 
L 10.015625 -10.109375 
L 15.484375 -10.109375 
Q 19.921875 -10.109375 21.9375 -8.6875 
Q 23.96875 -7.28125 25.09375 -3.609375 
L 25.59375 -2.09375 
z
" id="DejaVuSans-Bold-121"/>
      <path d="M 27.484375 70.21875 
L 27.484375 54.6875 
L 45.515625 54.6875 
L 45.515625 42.1875 
L 27.484375 42.1875 
L 27.484375 19 
Q 27.484375 15.1875 29 13.84375 
Q 30.515625 12.5 35.015625 12.5 
L 44 12.5 
L 44 0 
L 29 0 
Q 18.65625 0 14.328125 4.3125 
Q 10.015625 8.640625 10.015625 19 
L 10.015625 42.1875 
L 1.3125 42.1875 
L 1.3125 54.6875 
L 10.015625 54.6875 
L 10.015625 70.21875 
z
" id="DejaVuSans-Bold-116"/>
     </defs>
     <use xlink:href="#DejaVuSans-Bold-77"/>
     <use x="99.511719" xlink:href="#DejaVuSans-Bold-97"/>
     <use x="163.867188" xlink:href="#DejaVuSans-Bold-121"/>
     <use x="229.052734" xlink:href="#DejaVuSans-Bold-111"/>
     <use x="297.753906" xlink:href="#DejaVuSans-Bold-116"/>
     <use x="345.556641" xlink:href="#DejaVuSans-Bold-116"/>
     <use x="393.359375" xlink:href="#DejaVuSans-Bold-101"/>
    </g>
   </g>
   <g id="patch_8">
    <path d="M 96.975138 113.642222 
Q 96.975138 99.18179 96.975138 85.839391 
" style="fill:none;stroke:#000000;stroke-linecap:round;"/>
    <path d="M 94.975138 89.839391 
L 96.975138 85.839391 
L 98.975138 89.839391 
" style="fill:none;stroke:#000000;stroke-linecap:round;"/>
   </g>
   <g id="text_23">
    <!--   -->
    <g transform="translate(95.386076 125.235584)scale(0.1 -0.1)">
     <use xlink:href="#DejaVuSans-32"/>
    </g>
   </g>
   <g id="text_24">
    <!-- Cuba -->
    <g transform="translate(106.643646 120.958655)scale(0.12 -0.12)">
     <defs>
      <path d="M 67 4 
Q 61.8125 1.3125 56.203125 -0.046875 
Q 50.59375 -1.421875 44.484375 -1.421875 
Q 26.265625 -1.421875 15.625 8.765625 
Q 4.984375 18.953125 4.984375 36.375 
Q 4.984375 53.859375 15.625 64.03125 
Q 26.265625 74.21875 44.484375 74.21875 
Q 50.59375 74.21875 56.203125 72.84375 
Q 61.8125 71.484375 67 68.796875 
L 67 53.71875 
Q 61.765625 57.28125 56.6875 58.9375 
Q 51.609375 60.59375 46 60.59375 
Q 35.9375 60.59375 30.171875 54.140625 
Q 24.421875 47.703125 24.421875 36.375 
Q 24.421875 25.09375 30.171875 18.640625 
Q 35.9375 12.203125 46 12.203125 
Q 51.609375 12.203125 56.6875 13.859375 
Q 61.765625 15.53125 67 19.09375 
z
" id="DejaVuSans-Bold-67"/>
      <path d="M 7.8125 21.296875 
L 7.8125 54.6875 
L 25.390625 54.6875 
L 25.390625 49.21875 
Q 25.390625 44.78125 25.34375 38.0625 
Q 25.296875 31.34375 25.296875 29.109375 
Q 25.296875 22.515625 25.640625 19.609375 
Q 25.984375 16.703125 26.8125 15.375 
Q 27.875 13.671875 29.609375 12.734375 
Q 31.34375 11.8125 33.59375 11.8125 
Q 39.0625 11.8125 42.1875 16.015625 
Q 45.3125 20.21875 45.3125 27.6875 
L 45.3125 54.6875 
L 62.796875 54.6875 
L 62.796875 0 
L 45.3125 0 
L 45.3125 7.90625 
Q 41.359375 3.125 36.9375 0.84375 
Q 32.515625 -1.421875 27.203125 -1.421875 
Q 17.71875 -1.421875 12.765625 4.390625 
Q 7.8125 10.203125 7.8125 21.296875 
z
" id="DejaVuSans-Bold-117"/>
      <path d="M 37.5 11.28125 
Q 43.109375 11.28125 46.0625 15.375 
Q 49.03125 19.484375 49.03125 27.296875 
Q 49.03125 35.109375 46.0625 39.203125 
Q 43.109375 43.3125 37.5 43.3125 
Q 31.890625 43.3125 28.875 39.1875 
Q 25.875 35.0625 25.875 27.296875 
Q 25.875 19.53125 28.875 15.40625 
Q 31.890625 11.28125 37.5 11.28125 
z
M 25.875 46.6875 
Q 29.5 51.46875 33.890625 53.734375 
Q 38.28125 56 44 56 
Q 54.109375 56 60.59375 47.96875 
Q 67.09375 39.9375 67.09375 27.296875 
Q 67.09375 14.65625 60.59375 6.609375 
Q 54.109375 -1.421875 44 -1.421875 
Q 38.28125 -1.421875 33.890625 0.84375 
Q 29.5 3.125 25.875 7.90625 
L 25.875 0 
L 8.40625 0 
L 8.40625 75.984375 
L 25.875 75.984375 
z
" id="DejaVuSans-Bold-98"/>
     </defs>
     <use xlink:href="#DejaVuSans-Bold-67"/>
     <use x="73.388672" xlink:href="#DejaVuSans-Bold-117"/>
     <use x="144.580078" xlink:href="#DejaVuSans-Bold-98"/>
     <use x="216.162109" xlink:href="#DejaVuSans-Bold-97"/>
    </g>
   </g>
   <g id="patch_9">
    <path d="M 147.734807 112.562565 
Q 147.734807 106.910338 147.734807 102.376145 
" style="fill:none;stroke:#000000;stroke-linecap:round;"/>
    <path d="M 145.734807 106.376145 
L 147.734807 102.376145 
L 149.734807 106.376145 
" style="fill:none;stroke:#000000;stroke-linecap:round;"/>
   </g>
   <g id="text_25">
    <!--   -->
    <g transform="translate(146.145744 124.160935)scale(0.1 -0.1)">
     <use xlink:href="#DejaVuSans-32"/>
    </g>
   </g>
   <g id="text_26">
    <!-- Algeria -->
    <g transform="translate(157.403315 119.83713)scale(0.12 -0.12)">
     <defs>
      <path d="M 49.03125 39.796875 
Q 46.734375 40.875 44.453125 41.375 
Q 42.1875 41.890625 39.890625 41.890625 
Q 33.15625 41.890625 29.515625 37.5625 
Q 25.875 33.25 25.875 25.203125 
L 25.875 0 
L 8.40625 0 
L 8.40625 54.6875 
L 25.875 54.6875 
L 25.875 45.703125 
Q 29.25 51.078125 33.609375 53.53125 
Q 37.984375 56 44.09375 56 
Q 44.96875 56 45.984375 55.921875 
Q 47.015625 55.859375 48.96875 55.609375 
z
" id="DejaVuSans-Bold-114"/>
      <path d="M 8.40625 54.6875 
L 25.875 54.6875 
L 25.875 0 
L 8.40625 0 
z
M 8.40625 75.984375 
L 25.875 75.984375 
L 25.875 61.71875 
L 8.40625 61.71875 
z
" id="DejaVuSans-Bold-105"/>
     </defs>
     <use xlink:href="#DejaVuSans-Bold-65"/>
     <use x="77.392578" xlink:href="#DejaVuSans-Bold-108"/>
     <use x="111.669922" xlink:href="#DejaVuSans-Bold-103"/>
     <use x="183.251953" xlink:href="#DejaVuSans-Bold-101"/>
     <use x="251.074219" xlink:href="#DejaVuSans-Bold-114"/>
     <use x="300.390625" xlink:href="#DejaVuSans-Bold-105"/>
     <use x="334.667969" xlink:href="#DejaVuSans-Bold-97"/>
    </g>
   </g>
   <g id="patch_10">
    <path d="M 200.041436 114.569542 
Q 200.041436 115.435233 200.041436 115.18289 
" style="fill:none;stroke:#000000;stroke-linecap:round;"/>
    <path d="M 202.041436 111.18289 
L 200.041436 115.18289 
L 198.041436 111.18289 
" style="fill:none;stroke:#000000;stroke-linecap:round;"/>
   </g>
   <g id="text_27">
    <!--   -->
    <g transform="translate(198.452374 115.327804)scale(0.1 -0.1)">
     <use xlink:href="#DejaVuSans-32"/>
    </g>
   </g>
   <g id="text_28">
    <!-- Fiji -->
    <g transform="translate(209.709945 111.004)scale(0.12 -0.12)">
     <defs>
      <path d="M 9.1875 72.90625 
L 59.90625 72.90625 
L 59.90625 58.6875 
L 27.984375 58.6875 
L 27.984375 45.125 
L 58.015625 45.125 
L 58.015625 30.90625 
L 27.984375 30.90625 
L 27.984375 0 
L 9.1875 0 
z
" id="DejaVuSans-Bold-70"/>
      <path d="M 8.40625 54.6875 
L 25.875 54.6875 
L 25.875 0.984375 
Q 25.875 -10.015625 20.59375 -15.796875 
Q 15.328125 -21.578125 5.328125 -21.578125 
L -3.328125 -21.578125 
L -3.328125 -10.109375 
L -0.296875 -10.109375 
Q 4.6875 -10.109375 6.546875 -7.859375 
Q 8.40625 -5.609375 8.40625 0.984375 
z
M 8.40625 75.984375 
L 25.875 75.984375 
L 25.875 61.71875 
L 8.40625 61.71875 
z
" id="DejaVuSans-Bold-106"/>
     </defs>
     <use xlink:href="#DejaVuSans-Bold-70"/>
     <use x="68.310547" xlink:href="#DejaVuSans-Bold-105"/>
     <use x="102.587891" xlink:href="#DejaVuSans-Bold-106"/>
     <use x="136.865234" xlink:href="#DejaVuSans-Bold-105"/>
    </g>
   </g>
   <g id="patch_11">
    <path d="M 155.759669 87.308056 
Q 155.759669 93.590487 155.759669 98.754884 
" style="fill:none;stroke:#000000;stroke-linecap:round;"/>
    <path d="M 157.759669 94.754884 
L 155.759669 98.754884 
L 153.759669 94.754884 
" style="fill:none;stroke:#000000;stroke-linecap:round;"/>
   </g>
   <g id="text_29">
    <!--   -->
    <g transform="translate(154.170606 81.227457)scale(0.1 -0.1)">
     <use xlink:href="#DejaVuSans-32"/>
    </g>
   </g>
   <g id="text_30">
    <!-- Israel -->
    <g transform="translate(165.428177 76.950528)scale(0.12 -0.12)">
     <defs>
      <path d="M 9.1875 72.90625 
L 27.984375 72.90625 
L 27.984375 0 
L 9.1875 0 
z
" id="DejaVuSans-Bold-73"/>
      <path d="M 51.125 52.984375 
L 51.125 39.703125 
Q 45.515625 42.046875 40.28125 43.21875 
Q 35.0625 44.390625 30.421875 44.390625 
Q 25.4375 44.390625 23.015625 43.140625 
Q 20.609375 41.890625 20.609375 39.3125 
Q 20.609375 37.203125 22.4375 36.078125 
Q 24.265625 34.96875 29 34.421875 
L 32.078125 33.984375 
Q 45.515625 32.28125 50.140625 28.375 
Q 54.78125 24.46875 54.78125 16.109375 
Q 54.78125 7.375 48.328125 2.96875 
Q 41.890625 -1.421875 29.109375 -1.421875 
Q 23.6875 -1.421875 17.890625 -0.5625 
Q 12.109375 0.296875 6 2 
L 6 15.28125 
Q 11.234375 12.75 16.71875 11.46875 
Q 22.21875 10.203125 27.875 10.203125 
Q 33.015625 10.203125 35.59375 11.609375 
Q 38.1875 13.03125 38.1875 15.828125 
Q 38.1875 18.171875 36.40625 19.3125 
Q 34.625 20.453125 29.296875 21.09375 
L 26.21875 21.484375 
Q 14.546875 22.953125 9.859375 26.90625 
Q 5.171875 30.859375 5.171875 38.921875 
Q 5.171875 47.609375 11.125 51.796875 
Q 17.09375 56 29.390625 56 
Q 34.234375 56 39.546875 55.265625 
Q 44.875 54.546875 51.125 52.984375 
z
" id="DejaVuSans-Bold-115"/>
     </defs>
     <use xlink:href="#DejaVuSans-Bold-73"/>
     <use x="37.207031" xlink:href="#DejaVuSans-Bold-115"/>
     <use x="96.728516" xlink:href="#DejaVuSans-Bold-114"/>
     <use x="146.044922" xlink:href="#DejaVuSans-Bold-97"/>
     <use x="213.525391" xlink:href="#DejaVuSans-Bold-101"/>
     <use x="281.347656" xlink:href="#DejaVuSans-Bold-108"/>
    </g>
   </g>
   <g id="patch_12">
    <path d="M 99.392265 82.441149 
Q 99.392265 82.976722 99.392265 82.39426 
" style="fill:none;stroke:#000000;stroke-linecap:round;"/>
    <path d="M 101.392265 78.39426 
L 99.392265 82.39426 
L 97.392265 78.39426 
" style="fill:none;stroke:#000000;stroke-linecap:round;"/>
   </g>
   <g id="text_31">
    <!--   -->
    <g transform="translate(97.803203 76.362527)scale(0.1 -0.1)">
     <use xlink:href="#DejaVuSans-32"/>
    </g>
   </g>
   <g id="text_32">
    <!-- Australia -->
    <g transform="translate(109.060773 72.085598)scale(0.12 -0.12)">
     <use xlink:href="#DejaVuSans-Bold-65"/>
     <use x="77.392578" xlink:href="#DejaVuSans-Bold-117"/>
     <use x="148.583984" xlink:href="#DejaVuSans-Bold-115"/>
     <use x="208.105469" xlink:href="#DejaVuSans-Bold-116"/>
     <use x="255.908203" xlink:href="#DejaVuSans-Bold-114"/>
     <use x="305.224609" xlink:href="#DejaVuSans-Bold-97"/>
     <use x="372.705078" xlink:href="#DejaVuSans-Bold-108"/>
     <use x="406.982422" xlink:href="#DejaVuSans-Bold-105"/>
     <use x="441.259766" xlink:href="#DejaVuSans-Bold-97"/>
    </g>
   </g>
   <g id="patch_13">
    <path d="M 92.237569 72.563131 
Q 92.237569 75.87287 92.237569 78.064575 
" style="fill:none;stroke:#000000;stroke-linecap:round;"/>
    <path d="M 94.237569 74.064575 
L 92.237569 78.064575 
L 90.237569 74.064575 
" style="fill:none;stroke:#000000;stroke-linecap:round;"/>
   </g>
   <g id="text_33">
    <!--   -->
    <g transform="translate(90.648507 66.483476)scale(0.1 -0.1)">
     <use xlink:href="#DejaVuSans-32"/>
    </g>
   </g>
   <g id="text_34">
    <!-- Bermuda -->
    <g transform="translate(101.906077 62.206546)scale(0.12 -0.12)">
     <defs>
      <path d="M 38.375 44.671875 
Q 42.828125 44.671875 45.109375 46.625 
Q 47.40625 48.578125 47.40625 52.390625 
Q 47.40625 56.15625 45.109375 58.125 
Q 42.828125 60.109375 38.375 60.109375 
L 27.984375 60.109375 
L 27.984375 44.671875 
z
M 39.015625 12.796875 
Q 44.671875 12.796875 47.53125 15.1875 
Q 50.390625 17.578125 50.390625 22.40625 
Q 50.390625 27.15625 47.5625 29.515625 
Q 44.734375 31.890625 39.015625 31.890625 
L 27.984375 31.890625 
L 27.984375 12.796875 
z
M 56.5 39.015625 
Q 62.546875 37.25 65.859375 32.515625 
Q 69.1875 27.78125 69.1875 20.90625 
Q 69.1875 10.359375 62.0625 5.171875 
Q 54.9375 0 40.375 0 
L 9.1875 0 
L 9.1875 72.90625 
L 37.40625 72.90625 
Q 52.59375 72.90625 59.40625 68.3125 
Q 66.21875 63.71875 66.21875 53.609375 
Q 66.21875 48.296875 63.71875 44.5625 
Q 61.234375 40.828125 56.5 39.015625 
z
" id="DejaVuSans-Bold-66"/>
      <path d="M 59.078125 45.609375 
Q 62.40625 50.6875 66.96875 53.34375 
Q 71.53125 56 77 56 
Q 86.421875 56 91.359375 50.1875 
Q 96.296875 44.390625 96.296875 33.296875 
L 96.296875 0 
L 78.71875 0 
L 78.71875 28.515625 
Q 78.765625 29.15625 78.78125 29.828125 
Q 78.8125 30.515625 78.8125 31.78125 
Q 78.8125 37.59375 77.09375 40.203125 
Q 75.390625 42.828125 71.578125 42.828125 
Q 66.609375 42.828125 63.890625 38.71875 
Q 61.1875 34.625 61.078125 26.859375 
L 61.078125 0 
L 43.5 0 
L 43.5 28.515625 
Q 43.5 37.59375 41.9375 40.203125 
Q 40.375 42.828125 36.375 42.828125 
Q 31.34375 42.828125 28.609375 38.703125 
Q 25.875 34.578125 25.875 26.90625 
L 25.875 0 
L 8.296875 0 
L 8.296875 54.6875 
L 25.875 54.6875 
L 25.875 46.6875 
Q 29.109375 51.3125 33.28125 53.65625 
Q 37.453125 56 42.484375 56 
Q 48.140625 56 52.484375 53.265625 
Q 56.84375 50.53125 59.078125 45.609375 
z
" id="DejaVuSans-Bold-109"/>
      <path d="M 45.609375 46.6875 
L 45.609375 75.984375 
L 63.1875 75.984375 
L 63.1875 0 
L 45.609375 0 
L 45.609375 7.90625 
Q 42 3.078125 37.640625 0.828125 
Q 33.296875 -1.421875 27.59375 -1.421875 
Q 17.484375 -1.421875 10.984375 6.609375 
Q 4.5 14.65625 4.5 27.296875 
Q 4.5 39.9375 10.984375 47.96875 
Q 17.484375 56 27.59375 56 
Q 33.25 56 37.625 53.734375 
Q 42 51.46875 45.609375 46.6875 
z
M 34.078125 11.28125 
Q 39.703125 11.28125 42.65625 15.375 
Q 45.609375 19.484375 45.609375 27.296875 
Q 45.609375 35.109375 42.65625 39.203125 
Q 39.703125 43.3125 34.078125 43.3125 
Q 28.515625 43.3125 25.5625 39.203125 
Q 22.609375 35.109375 22.609375 27.296875 
Q 22.609375 19.484375 25.5625 15.375 
Q 28.515625 11.28125 34.078125 11.28125 
z
" id="DejaVuSans-Bold-100"/>
     </defs>
     <use xlink:href="#DejaVuSans-Bold-66"/>
     <use x="76.220703" xlink:href="#DejaVuSans-Bold-101"/>
     <use x="144.042969" xlink:href="#DejaVuSans-Bold-114"/>
     <use x="193.359375" xlink:href="#DejaVuSans-Bold-109"/>
     <use x="297.558594" xlink:href="#DejaVuSans-Bold-117"/>
     <use x="368.75" xlink:href="#DejaVuSans-Bold-100"/>
     <use x="440.332031" xlink:href="#DejaVuSans-Bold-97"/>
    </g>
   </g>
   <g id="text_35">
    <!-- Log of Phones vs Birth Rate -->
    <g transform="translate(137.2525 42.671199)scale(0.16 -0.16)">
     <defs>
      <path d="M 9.1875 72.90625 
L 27.984375 72.90625 
L 27.984375 14.203125 
L 60.984375 14.203125 
L 60.984375 0 
L 9.1875 0 
z
" id="DejaVuSans-Bold-76"/>
      <path id="DejaVuSans-Bold-32"/>
      <path d="M 44.390625 75.984375 
L 44.390625 64.5 
L 34.71875 64.5 
Q 31 64.5 29.53125 63.15625 
Q 28.078125 61.8125 28.078125 58.5 
L 28.078125 54.6875 
L 43.015625 54.6875 
L 43.015625 42.1875 
L 28.078125 42.1875 
L 28.078125 0 
L 10.59375 0 
L 10.59375 42.1875 
L 1.90625 42.1875 
L 1.90625 54.6875 
L 10.59375 54.6875 
L 10.59375 58.5 
Q 10.59375 67.4375 15.578125 71.703125 
Q 20.5625 75.984375 31 75.984375 
z
" id="DejaVuSans-Bold-102"/>
      <path d="M 9.1875 72.90625 
L 40.375 72.90625 
Q 54.296875 72.90625 61.734375 66.71875 
Q 69.1875 60.546875 69.1875 49.125 
Q 69.1875 37.640625 61.734375 31.46875 
Q 54.296875 25.296875 40.375 25.296875 
L 27.984375 25.296875 
L 27.984375 0 
L 9.1875 0 
z
M 27.984375 59.28125 
L 27.984375 38.921875 
L 38.375 38.921875 
Q 43.84375 38.921875 46.828125 41.578125 
Q 49.8125 44.234375 49.8125 49.125 
Q 49.8125 54 46.828125 56.640625 
Q 43.84375 59.28125 38.375 59.28125 
z
" id="DejaVuSans-Bold-80"/>
      <path d="M 63.375 33.296875 
L 63.375 0 
L 45.796875 0 
L 45.796875 5.421875 
L 45.796875 25.390625 
Q 45.796875 32.5625 45.484375 35.25 
Q 45.171875 37.9375 44.390625 39.203125 
Q 43.359375 40.921875 41.59375 41.875 
Q 39.84375 42.828125 37.59375 42.828125 
Q 32.125 42.828125 29 38.59375 
Q 25.875 34.375 25.875 26.90625 
L 25.875 0 
L 8.40625 0 
L 8.40625 75.984375 
L 25.875 75.984375 
L 25.875 46.6875 
Q 29.828125 51.46875 34.265625 53.734375 
Q 38.71875 56 44.09375 56 
Q 53.5625 56 58.46875 50.1875 
Q 63.375 44.390625 63.375 33.296875 
z
" id="DejaVuSans-Bold-104"/>
      <path d="M 1.515625 54.6875 
L 19 54.6875 
L 32.625 16.890625 
L 46.1875 54.6875 
L 63.71875 54.6875 
L 42.1875 0 
L 23 0 
z
" id="DejaVuSans-Bold-118"/>
      <path d="M 35.890625 40.578125 
Q 41.796875 40.578125 44.359375 42.765625 
Q 46.921875 44.96875 46.921875 50 
Q 46.921875 54.984375 44.359375 57.125 
Q 41.796875 59.28125 35.890625 59.28125 
L 27.984375 59.28125 
L 27.984375 40.578125 
z
M 27.984375 27.59375 
L 27.984375 0 
L 9.1875 0 
L 9.1875 72.90625 
L 37.890625 72.90625 
Q 52.296875 72.90625 59 68.0625 
Q 65.71875 63.234375 65.71875 52.78125 
Q 65.71875 45.5625 62.21875 40.921875 
Q 58.734375 36.28125 51.703125 34.078125 
Q 55.5625 33.203125 58.609375 30.09375 
Q 61.671875 27 64.796875 20.703125 
L 75 0 
L 54.984375 0 
L 46.09375 18.109375 
Q 43.40625 23.578125 40.640625 25.578125 
Q 37.890625 27.59375 33.296875 27.59375 
z
" id="DejaVuSans-Bold-82"/>
     </defs>
     <use xlink:href="#DejaVuSans-Bold-76"/>
     <use x="63.720703" xlink:href="#DejaVuSans-Bold-111"/>
     <use x="132.421875" xlink:href="#DejaVuSans-Bold-103"/>
     <use x="204.003906" xlink:href="#DejaVuSans-Bold-32"/>
     <use x="238.818359" xlink:href="#DejaVuSans-Bold-111"/>
     <use x="307.519531" xlink:href="#DejaVuSans-Bold-102"/>
     <use x="351.025391" xlink:href="#DejaVuSans-Bold-32"/>
     <use x="385.839844" xlink:href="#DejaVuSans-Bold-80"/>
     <use x="459.130859" xlink:href="#DejaVuSans-Bold-104"/>
     <use x="530.322266" xlink:href="#DejaVuSans-Bold-111"/>
     <use x="599.023438" xlink:href="#DejaVuSans-Bold-110"/>
     <use x="670.214844" xlink:href="#DejaVuSans-Bold-101"/>
     <use x="738.037109" xlink:href="#DejaVuSans-Bold-115"/>
     <use x="797.558594" xlink:href="#DejaVuSans-Bold-32"/>
     <use x="832.373047" xlink:href="#DejaVuSans-Bold-118"/>
     <use x="897.558594" xlink:href="#DejaVuSans-Bold-115"/>
     <use x="957.080078" xlink:href="#DejaVuSans-Bold-32"/>
     <use x="991.894531" xlink:href="#DejaVuSans-Bold-66"/>
     <use x="1068.115234" xlink:href="#DejaVuSans-Bold-105"/>
     <use x="1102.392578" xlink:href="#DejaVuSans-Bold-114"/>
     <use x="1151.708984" xlink:href="#DejaVuSans-Bold-116"/>
     <use x="1199.511719" xlink:href="#DejaVuSans-Bold-104"/>
     <use x="1270.703125" xlink:href="#DejaVuSans-Bold-32"/>
     <use x="1305.517578" xlink:href="#DejaVuSans-Bold-82"/>
     <use x="1382.519531" xlink:href="#DejaVuSans-Bold-97"/>
     <use x="1450" xlink:href="#DejaVuSans-Bold-116"/>
     <use x="1497.802734" xlink:href="#DejaVuSans-Bold-101"/>
    </g>
   </g>
  </g>
 </g>
 <defs>
  <clipPath id="p86a9a61698">
   <rect height="227.132262" width="420" x="52.5" y="48.671199"/>
  </clipPath>
 </defs>
</svg>
