<?xml version="1.0" encoding="utf-8" standalone="no"?>
<!DOCTYPE svg PUBLIC "-//W3C//DTD SVG 1.1//EN"
  "http://www.w3.org/Graphics/SVG/1.1/DTD/svg11.dtd">
<!-- Created with matplotlib (https://matplotlib.org/) -->
<svg height="324.47466pt" version="1.1" viewBox="0 0 525 324.47466" width="525pt" xmlns="http://www.w3.org/2000/svg" xmlns:xlink="http://www.w3.org/1999/xlink">
 <metadata>
  <rdf:RDF xmlns:cc="http://creativecommons.org/ns#" xmlns:dc="http://purl.org/dc/elements/1.1/" xmlns:rdf="http://www.w3.org/1999/02/22-rdf-syntax-ns#">
   <cc:Work>
    <dc:type rdf:resource="http://purl.org/dc/dcmitype/StillImage"/>
    <dc:date>2021-04-13T12:06:22.735024</dc:date>
    <dc:format>image/svg+xml</dc:format>
    <dc:creator>
     <cc:Agent>
      <dc:title>Matplotlib v3.3.4, https://matplotlib.org/</dc:title>
     </cc:Agent>
    </dc:creator>
   </cc:Work>
  </rdf:RDF>
 </metadata>
 <defs>
  <style type="text/css">*{stroke-linecap:butt;stroke-linejoin:round;}</style>
 </defs>
 <g id="figure_1">
  <g id="patch_1">
   <path d="M 0 324.47466 
L 525 324.47466 
L 525 0 
L 0 0 
z
" style="fill:#ffffff;"/>
  </g>
  <g id="axes_1">
   <g id="patch_2">
    <path d="M 86.260417 286.564077 
L 488.257466 286.564077 
L 488.257466 25.52534 
L 86.260417 25.52534 
z
" style="fill:#ffffff;"/>
   </g>
   <g id="PathCollection_1">
    <defs>
     <path d="M 0 3 
C 0.795609 3 1.55874 2.683901 2.12132 2.12132 
C 2.683901 1.55874 3 0.795609 3 0 
C 3 -0.795609 2.683901 -1.55874 2.12132 -2.12132 
C 1.55874 -2.683901 0.795609 -3 0 -3 
C -0.795609 -3 -1.55874 -2.683901 -2.12132 -2.12132 
C -2.683901 -1.55874 -3 -0.795609 -3 0 
C -3 0.795609 -2.683901 1.55874 -2.12132 2.12132 
C -1.55874 2.683901 -0.795609 3 0 3 
z
" id="m7308c4f646" style="stroke:#add8e6;stroke-opacity:0.8;"/>
    </defs>
    <g clip-path="url(#p4e04036022)">
     <use style="fill:#add8e6;fill-opacity:0.8;stroke:#add8e6;stroke-opacity:0.8;" x="450.038133" xlink:href="#m7308c4f646" y="237.982093"/>
     <use style="fill:#add8e6;fill-opacity:0.8;stroke:#add8e6;stroke-opacity:0.8;" x="158.627289" xlink:href="#m7308c4f646" y="224.769954"/>
     <use style="fill:#add8e6;fill-opacity:0.8;stroke:#add8e6;stroke-opacity:0.8;" x="177.413063" xlink:href="#m7308c4f646" y="223.42931"/>
     <use style="fill:#add8e6;fill-opacity:0.8;stroke:#add8e6;stroke-opacity:0.8;" x="226.644745" xlink:href="#m7308c4f646" y="188.183987"/>
     <use style="fill:#add8e6;fill-opacity:0.8;stroke:#add8e6;stroke-opacity:0.8;" x="99.401204" xlink:href="#m7308c4f646" y="141.99979"/>
     <use style="fill:#add8e6;fill-opacity:0.8;stroke:#add8e6;stroke-opacity:0.8;" x="436.24956" xlink:href="#m7308c4f646" y="237.08833"/>
     <use style="fill:#add8e6;fill-opacity:0.8;stroke:#add8e6;stroke-opacity:0.8;" x="149.928458" xlink:href="#m7308c4f646" y="149.227607"/>
     <use style="fill:#add8e6;fill-opacity:0.8;stroke:#add8e6;stroke-opacity:0.8;" x="175.469707" xlink:href="#m7308c4f646" y="131.760382"/>
     <use style="fill:#add8e6;fill-opacity:0.8;stroke:#add8e6;stroke-opacity:0.8;" x="173.618891" xlink:href="#m7308c4f646" y="195.780967"/>
     <use style="fill:#add8e6;fill-opacity:0.8;stroke:#add8e6;stroke-opacity:0.8;" x="130.494899" xlink:href="#m7308c4f646" y="200.580082"/>
     <use style="fill:#add8e6;fill-opacity:0.8;stroke:#add8e6;stroke-opacity:0.8;" x="120.87066" xlink:href="#m7308c4f646" y="138.327592"/>
     <use style="fill:#add8e6;fill-opacity:0.8;stroke:#add8e6;stroke-opacity:0.8;" x="131.142684" xlink:href="#m7308c4f646" y="128.729362"/>
     <use style="fill:#add8e6;fill-opacity:0.8;stroke:#add8e6;stroke-opacity:0.8;" x="99.678826" xlink:href="#m7308c4f646" y="150.743117"/>
     <use style="fill:#add8e6;fill-opacity:0.8;stroke:#add8e6;stroke-opacity:0.8;" x="210.727735" xlink:href="#m7308c4f646" y="211.965837"/>
     <use style="fill:#add8e6;fill-opacity:0.8;stroke:#add8e6;stroke-opacity:0.8;" x="181.392315" xlink:href="#m7308c4f646" y="149.111029"/>
     <use style="fill:#add8e6;fill-opacity:0.8;stroke:#add8e6;stroke-opacity:0.8;" x="183.520752" xlink:href="#m7308c4f646" y="183.94833"/>
     <use style="fill:#add8e6;fill-opacity:0.8;stroke:#add8e6;stroke-opacity:0.8;" x="294.569661" xlink:href="#m7308c4f646" y="237.185478"/>
     <use style="fill:#add8e6;fill-opacity:0.8;stroke:#add8e6;stroke-opacity:0.8;" x="136.417507" xlink:href="#m7308c4f646" y="144.972521"/>
     <use style="fill:#add8e6;fill-opacity:0.8;stroke:#add8e6;stroke-opacity:0.8;" x="122.07369" xlink:href="#m7308c4f646" y="176.603936"/>
     <use style="fill:#add8e6;fill-opacity:0.8;stroke:#add8e6;stroke-opacity:0.8;" x="114.855511" xlink:href="#m7308c4f646" y="148.722437"/>
     <use style="fill:#add8e6;fill-opacity:0.8;stroke:#add8e6;stroke-opacity:0.8;" x="285.685748" xlink:href="#m7308c4f646" y="216.123775"/>
     <use style="fill:#add8e6;fill-opacity:0.8;stroke:#add8e6;stroke-opacity:0.8;" x="378.319046" xlink:href="#m7308c4f646" y="236.719168"/>
     <use style="fill:#add8e6;fill-opacity:0.8;stroke:#add8e6;stroke-opacity:0.8;" x="124.294668" xlink:href="#m7308c4f646" y="73.18009"/>
     <use style="fill:#add8e6;fill-opacity:0.8;stroke:#add8e6;stroke-opacity:0.8;" x="330.197853" xlink:href="#m7308c4f646" y="235.825405"/>
     <use style="fill:#add8e6;fill-opacity:0.8;stroke:#add8e6;stroke-opacity:0.8;" x="234.418169" xlink:href="#m7308c4f646" y="224.633946"/>
     <use style="fill:#add8e6;fill-opacity:0.8;stroke:#add8e6;stroke-opacity:0.8;" x="99.956449" xlink:href="#m7308c4f646" y="196.752447"/>
     <use style="fill:#add8e6;fill-opacity:0.8;stroke:#add8e6;stroke-opacity:0.8;" x="232.382272" xlink:href="#m7308c4f646" y="222.962999"/>
     <use style="fill:#add8e6;fill-opacity:0.8;stroke:#add8e6;stroke-opacity:0.8;" x="172.045699" xlink:href="#m7308c4f646" y="194.828915"/>
     <use style="fill:#add8e6;fill-opacity:0.8;stroke:#add8e6;stroke-opacity:0.8;" x="156.591392" xlink:href="#m7308c4f646" y="140.192835"/>
     <use style="fill:#add8e6;fill-opacity:0.8;stroke:#add8e6;stroke-opacity:0.8;" x="192.682287" xlink:href="#m7308c4f646" y="192.516791"/>
     <use style="fill:#add8e6;fill-opacity:0.8;stroke:#add8e6;stroke-opacity:0.8;" x="108.100035" xlink:href="#m7308c4f646" y="173.262042"/>
     <use style="fill:#add8e6;fill-opacity:0.8;stroke:#add8e6;stroke-opacity:0.8;" x="440.969139" xlink:href="#m7308c4f646" y="237.243767"/>
     <use style="fill:#add8e6;fill-opacity:0.8;stroke:#add8e6;stroke-opacity:0.8;" x="184.538701" xlink:href="#m7308c4f646" y="236.641449"/>
     <use style="fill:#add8e6;fill-opacity:0.8;stroke:#add8e6;stroke-opacity:0.8;" x="409.505282" xlink:href="#m7308c4f646" y="237.943233"/>
     <use style="fill:#add8e6;fill-opacity:0.8;stroke:#add8e6;stroke-opacity:0.8;" x="267.732842" xlink:href="#m7308c4f646" y="238.09867"/>
     <use style="fill:#add8e6;fill-opacity:0.8;stroke:#add8e6;stroke-opacity:0.8;" x="332.418831" xlink:href="#m7308c4f646" y="237.496352"/>
     <use style="fill:#add8e6;fill-opacity:0.8;stroke:#add8e6;stroke-opacity:0.8;" x="118.557141" xlink:href="#m7308c4f646" y="131.313501"/>
     <use style="fill:#add8e6;fill-opacity:0.8;stroke:#add8e6;stroke-opacity:0.8;" x="248.947068" xlink:href="#m7308c4f646" y="205.651212"/>
     <use style="fill:#add8e6;fill-opacity:0.8;stroke:#add8e6;stroke-opacity:0.8;" x="136.695129" xlink:href="#m7308c4f646" y="76.113962"/>
     <use style="fill:#add8e6;fill-opacity:0.8;stroke:#add8e6;stroke-opacity:0.8;" x="332.603912" xlink:href="#m7308c4f646" y="238.156959"/>
     <use style="fill:#add8e6;fill-opacity:0.8;stroke:#add8e6;stroke-opacity:0.8;" x="441.987087" xlink:href="#m7308c4f646" y="238.351255"/>
     <use style="fill:#add8e6;fill-opacity:0.8;stroke:#add8e6;stroke-opacity:0.8;" x="159.737778" xlink:href="#m7308c4f646" y="197.218758"/>
     <use style="fill:#add8e6;fill-opacity:0.8;stroke:#add8e6;stroke-opacity:0.8;" x="141.414708" xlink:href="#m7308c4f646" y="186.785054"/>
     <use style="fill:#add8e6;fill-opacity:0.8;stroke:#add8e6;stroke-opacity:0.8;" x="208.321675" xlink:href="#m7308c4f646" y="204.368857"/>
     <use style="fill:#add8e6;fill-opacity:0.8;stroke:#add8e6;stroke-opacity:0.8;" x="360.551221" xlink:href="#m7308c4f646" y="233.843584"/>
     <use style="fill:#add8e6;fill-opacity:0.8;stroke:#add8e6;stroke-opacity:0.8;" x="423.108773" xlink:href="#m7308c4f646" y="238.564981"/>
     <use style="fill:#add8e6;fill-opacity:0.8;stroke:#add8e6;stroke-opacity:0.8;" x="412.744208" xlink:href="#m7308c4f646" y="237.884944"/>
     <use style="fill:#add8e6;fill-opacity:0.8;stroke:#add8e6;stroke-opacity:0.8;" x="213.133795" xlink:href="#m7308c4f646" y="182.277384"/>
     <use style="fill:#add8e6;fill-opacity:0.8;stroke:#add8e6;stroke-opacity:0.8;" x="188.332872" xlink:href="#m7308c4f646" y="172.407139"/>
     <use style="fill:#add8e6;fill-opacity:0.8;stroke:#add8e6;stroke-opacity:0.8;" x="343.708803" xlink:href="#m7308c4f646" y="235.767116"/>
     <use style="fill:#add8e6;fill-opacity:0.8;stroke:#add8e6;stroke-opacity:0.8;" x="107.729872" xlink:href="#m7308c4f646" y="156.921735"/>
     <use style="fill:#add8e6;fill-opacity:0.8;stroke:#add8e6;stroke-opacity:0.8;" x="128.829165" xlink:href="#m7308c4f646" y="224.089917"/>
     <use style="fill:#add8e6;fill-opacity:0.8;stroke:#add8e6;stroke-opacity:0.8;" x="102.269968" xlink:href="#m7308c4f646" y="177.536557"/>
     <use style="fill:#add8e6;fill-opacity:0.8;stroke:#add8e6;stroke-opacity:0.8;" x="121.796067" xlink:href="#m7308c4f646" y="119.18942"/>
     <use style="fill:#add8e6;fill-opacity:0.8;stroke:#add8e6;stroke-opacity:0.8;" x="384.611818" xlink:href="#m7308c4f646" y="234.173888"/>
     <use style="fill:#add8e6;fill-opacity:0.8;stroke:#add8e6;stroke-opacity:0.8;" x="160.107941" xlink:href="#m7308c4f646" y="179.382371"/>
     <use style="fill:#add8e6;fill-opacity:0.8;stroke:#add8e6;stroke-opacity:0.8;" x="233.677843" xlink:href="#m7308c4f646" y="219.679394"/>
     <use style="fill:#add8e6;fill-opacity:0.8;stroke:#add8e6;stroke-opacity:0.8;" x="225.071552" xlink:href="#m7308c4f646" y="214.200243"/>
     <use style="fill:#add8e6;fill-opacity:0.8;stroke:#add8e6;stroke-opacity:0.8;" x="231.086702" xlink:href="#m7308c4f646" y="212.995606"/>
     <use style="fill:#add8e6;fill-opacity:0.8;stroke:#add8e6;stroke-opacity:0.8;" x="265.04916" xlink:href="#m7308c4f646" y="210.936067"/>
     <use style="fill:#add8e6;fill-opacity:0.8;stroke:#add8e6;stroke-opacity:0.8;" x="348.15076" xlink:href="#m7308c4f646" y="235.009361"/>
     <use style="fill:#add8e6;fill-opacity:0.8;stroke:#add8e6;stroke-opacity:0.8;" x="336.490624" xlink:href="#m7308c4f646" y="237.068901"/>
     <use style="fill:#add8e6;fill-opacity:0.8;stroke:#add8e6;stroke-opacity:0.8;" x="111.709125" xlink:href="#m7308c4f646" y="173.747782"/>
     <use style="fill:#add8e6;fill-opacity:0.8;stroke:#add8e6;stroke-opacity:0.8;" x="370.268001" xlink:href="#m7308c4f646" y="237.010612"/>
     <use style="fill:#add8e6;fill-opacity:0.8;stroke:#add8e6;stroke-opacity:0.8;" x="148.817969" xlink:href="#m7308c4f646" y="140.717435"/>
     <use style="fill:#add8e6;fill-opacity:0.8;stroke:#add8e6;stroke-opacity:0.8;" x="227.477612" xlink:href="#m7308c4f646" y="216.726093"/>
     <use style="fill:#add8e6;fill-opacity:0.8;stroke:#add8e6;stroke-opacity:0.8;" x="115.503296" xlink:href="#m7308c4f646" y="159.855607"/>
     <use style="fill:#add8e6;fill-opacity:0.8;stroke:#add8e6;stroke-opacity:0.8;" x="129.754573" xlink:href="#m7308c4f646" y="124.668572"/>
     <use style="fill:#add8e6;fill-opacity:0.8;stroke:#add8e6;stroke-opacity:0.8;" x="208.136594" xlink:href="#m7308c4f646" y="188.941742"/>
     <use style="fill:#add8e6;fill-opacity:0.8;stroke:#add8e6;stroke-opacity:0.8;" x="173.156188" xlink:href="#m7308c4f646" y="200.813237"/>
     <use style="fill:#add8e6;fill-opacity:0.8;stroke:#add8e6;stroke-opacity:0.8;" x="353.425583" xlink:href="#m7308c4f646" y="233.280125"/>
     <use style="fill:#add8e6;fill-opacity:0.8;stroke:#add8e6;stroke-opacity:0.8;" x="383.131166" xlink:href="#m7308c4f646" y="233.396703"/>
     <use style="fill:#add8e6;fill-opacity:0.8;stroke:#add8e6;stroke-opacity:0.8;" x="383.871492" xlink:href="#m7308c4f646" y="191.137288"/>
     <use style="fill:#add8e6;fill-opacity:0.8;stroke:#add8e6;stroke-opacity:0.8;" x="115.133133" xlink:href="#m7308c4f646" y="210.120023"/>
     <use style="fill:#add8e6;fill-opacity:0.8;stroke:#add8e6;stroke-opacity:0.8;" x="95.144329" xlink:href="#m7308c4f646" y="108.833435"/>
     <use style="fill:#add8e6;fill-opacity:0.8;stroke:#add8e6;stroke-opacity:0.8;" x="301.232596" xlink:href="#m7308c4f646" y="235.805976"/>
     <use style="fill:#add8e6;fill-opacity:0.8;stroke:#add8e6;stroke-opacity:0.8;" x="118.186978" xlink:href="#m7308c4f646" y="68.070101"/>
     <use style="fill:#add8e6;fill-opacity:0.8;stroke:#add8e6;stroke-opacity:0.8;" x="108.377658" xlink:href="#m7308c4f646" y="124.027395"/>
     <use style="fill:#add8e6;fill-opacity:0.8;stroke:#add8e6;stroke-opacity:0.8;" x="166.215631" xlink:href="#m7308c4f646" y="151.384294"/>
     <use style="fill:#add8e6;fill-opacity:0.8;stroke:#add8e6;stroke-opacity:0.8;" x="223.128197" xlink:href="#m7308c4f646" y="167.78289"/>
     <use style="fill:#add8e6;fill-opacity:0.8;stroke:#add8e6;stroke-opacity:0.8;" x="158.072044" xlink:href="#m7308c4f646" y="148.489281"/>
     <use style="fill:#add8e6;fill-opacity:0.8;stroke:#add8e6;stroke-opacity:0.8;" x="192.682287" xlink:href="#m7308c4f646" y="143.01013"/>
     <use style="fill:#add8e6;fill-opacity:0.8;stroke:#add8e6;stroke-opacity:0.8;" x="295.309987" xlink:href="#m7308c4f646" y="220.709164"/>
     <use style="fill:#add8e6;fill-opacity:0.8;stroke:#add8e6;stroke-opacity:0.8;" x="100.326612" xlink:href="#m7308c4f646" y="74.928755"/>
     <use style="fill:#add8e6;fill-opacity:0.8;stroke:#add8e6;stroke-opacity:0.8;" x="405.248407" xlink:href="#m7308c4f646" y="238.079241"/>
     <use style="fill:#add8e6;fill-opacity:0.8;stroke:#add8e6;stroke-opacity:0.8;" x="363.234903" xlink:href="#m7308c4f646" y="237.166049"/>
     <use style="fill:#add8e6;fill-opacity:0.8;stroke:#add8e6;stroke-opacity:0.8;" x="187.962709" xlink:href="#m7308c4f646" y="210.722341"/>
     <use style="fill:#add8e6;fill-opacity:0.8;stroke:#add8e6;stroke-opacity:0.8;" x="356.016724" xlink:href="#m7308c4f646" y="235.320235"/>
     <use style="fill:#add8e6;fill-opacity:0.8;stroke:#add8e6;stroke-opacity:0.8;" x="280.133303" xlink:href="#m7308c4f646" y="225.488849"/>
     <use style="fill:#add8e6;fill-opacity:0.8;stroke:#add8e6;stroke-opacity:0.8;" x="86.260417" xlink:href="#m7308c4f646" y="132.38213"/>
     <use style="fill:#add8e6;fill-opacity:0.8;stroke:#add8e6;stroke-opacity:0.8;" x="108.747821" xlink:href="#m7308c4f646" y="173.281471"/>
     <use style="fill:#add8e6;fill-opacity:0.8;stroke:#add8e6;stroke-opacity:0.8;" x="145.023797" xlink:href="#m7308c4f646" y="112.758218"/>
     <use style="fill:#add8e6;fill-opacity:0.8;stroke:#add8e6;stroke-opacity:0.8;" x="222.480411" xlink:href="#m7308c4f646" y="229.782795"/>
     <use style="fill:#add8e6;fill-opacity:0.8;stroke:#add8e6;stroke-opacity:0.8;" x="207.026105" xlink:href="#m7308c4f646" y="228.50044"/>
     <use style="fill:#add8e6;fill-opacity:0.8;stroke:#add8e6;stroke-opacity:0.8;" x="176.117492" xlink:href="#m7308c4f646" y="184.900382"/>
     <use style="fill:#add8e6;fill-opacity:0.8;stroke:#add8e6;stroke-opacity:0.8;" x="314.743546" xlink:href="#m7308c4f646" y="231.104009"/>
     <use style="fill:#add8e6;fill-opacity:0.8;stroke:#add8e6;stroke-opacity:0.8;" x="152.519599" xlink:href="#m7308c4f646" y="141.358612"/>
     <use style="fill:#add8e6;fill-opacity:0.8;stroke:#add8e6;stroke-opacity:0.8;" x="121.055741" xlink:href="#m7308c4f646" y="107.259636"/>
     <use style="fill:#add8e6;fill-opacity:0.8;stroke:#add8e6;stroke-opacity:0.8;" x="185.093945" xlink:href="#m7308c4f646" y="148.780726"/>
     <use style="fill:#add8e6;fill-opacity:0.8;stroke:#add8e6;stroke-opacity:0.8;" x="99.493745" xlink:href="#m7308c4f646" y="154.881625"/>
     <use style="fill:#add8e6;fill-opacity:0.8;stroke:#add8e6;stroke-opacity:0.8;" x="211.468061" xlink:href="#m7308c4f646" y="214.511116"/>
     <use style="fill:#add8e6;fill-opacity:0.8;stroke:#add8e6;stroke-opacity:0.8;" x="105.508894" xlink:href="#m7308c4f646" y="148.994451"/>
     <use style="fill:#add8e6;fill-opacity:0.8;stroke:#add8e6;stroke-opacity:0.8;" x="104.861109" xlink:href="#m7308c4f646" y="80.971366"/>
     <use style="fill:#add8e6;fill-opacity:0.8;stroke:#add8e6;stroke-opacity:0.8;" x="215.447314" xlink:href="#m7308c4f646" y="218.299892"/>
     <use style="fill:#add8e6;fill-opacity:0.8;stroke:#add8e6;stroke-opacity:0.8;" x="166.863416" xlink:href="#m7308c4f646" y="206.71984"/>
     <use style="fill:#add8e6;fill-opacity:0.8;stroke:#add8e6;stroke-opacity:0.8;" x="386.370092" xlink:href="#m7308c4f646" y="237.030041"/>
     <use style="fill:#add8e6;fill-opacity:0.8;stroke:#add8e6;stroke-opacity:0.8;" x="302.435625" xlink:href="#m7308c4f646" y="230.307394"/>
     <use style="fill:#add8e6;fill-opacity:0.8;stroke:#add8e6;stroke-opacity:0.8;" x="162.606541" xlink:href="#m7308c4f646" y="230.365683"/>
     <use style="fill:#add8e6;fill-opacity:0.8;stroke:#add8e6;stroke-opacity:0.8;" x="111.338962" xlink:href="#m7308c4f646" y="144.156477"/>
     <use style="fill:#add8e6;fill-opacity:0.8;stroke:#add8e6;stroke-opacity:0.8;" x="221.832626" xlink:href="#m7308c4f646" y="197.607351"/>
     <use style="fill:#add8e6;fill-opacity:0.8;stroke:#add8e6;stroke-opacity:0.8;" x="229.791131" xlink:href="#m7308c4f646" y="222.282963"/>
     <use style="fill:#add8e6;fill-opacity:0.8;stroke:#add8e6;stroke-opacity:0.8;" x="347.225352" xlink:href="#m7308c4f646" y="235.864264"/>
     <use style="fill:#add8e6;fill-opacity:0.8;stroke:#add8e6;stroke-opacity:0.8;" x="104.305864" xlink:href="#m7308c4f646" y="176.157054"/>
     <use style="fill:#add8e6;fill-opacity:0.8;stroke:#add8e6;stroke-opacity:0.8;" x="190.183687" xlink:href="#m7308c4f646" y="188.941742"/>
     <use style="fill:#add8e6;fill-opacity:0.8;stroke:#add8e6;stroke-opacity:0.8;" x="247.836579" xlink:href="#m7308c4f646" y="233.999021"/>
     <use style="fill:#add8e6;fill-opacity:0.8;stroke:#add8e6;stroke-opacity:0.8;" x="433.103175" xlink:href="#m7308c4f646" y="238.156959"/>
     <use style="fill:#add8e6;fill-opacity:0.8;stroke:#add8e6;stroke-opacity:0.8;" x="263.93867" xlink:href="#m7308c4f646" y="213.908798"/>
     <use style="fill:#add8e6;fill-opacity:0.8;stroke:#add8e6;stroke-opacity:0.8;" x="113.282318" xlink:href="#m7308c4f646" y="124.843439"/>
     <use style="fill:#add8e6;fill-opacity:0.8;stroke:#add8e6;stroke-opacity:0.8;" x="99.771367" xlink:href="#m7308c4f646" y="195.198078"/>
     <use style="fill:#add8e6;fill-opacity:0.8;stroke:#add8e6;stroke-opacity:0.8;" x="129.291869" xlink:href="#m7308c4f646" y="138.463599"/>
     <use style="fill:#add8e6;fill-opacity:0.8;stroke:#add8e6;stroke-opacity:0.8;" x="97.272767" xlink:href="#m7308c4f646" y="163.819248"/>
     <use style="fill:#add8e6;fill-opacity:0.8;stroke:#add8e6;stroke-opacity:0.8;" x="130.032195" xlink:href="#m7308c4f646" y="188.086839"/>
     <use style="fill:#add8e6;fill-opacity:0.8;stroke:#add8e6;stroke-opacity:0.8;" x="402.00948" xlink:href="#m7308c4f646" y="237.904374"/>
     <use style="fill:#add8e6;fill-opacity:0.8;stroke:#add8e6;stroke-opacity:0.8;" x="417.92649" xlink:href="#m7308c4f646" y="237.068901"/>
     <use style="fill:#add8e6;fill-opacity:0.8;stroke:#add8e6;stroke-opacity:0.8;" x="230.346376" xlink:href="#m7308c4f646" y="203.824828"/>
     <use style="fill:#add8e6;fill-opacity:0.8;stroke:#add8e6;stroke-opacity:0.8;" x="340.93258" xlink:href="#m7308c4f646" y="221.117186"/>
     <use style="fill:#add8e6;fill-opacity:0.8;stroke:#add8e6;stroke-opacity:0.8;" x="479.836257" xlink:href="#m7308c4f646" y="237.360345"/>
     <use style="fill:#add8e6;fill-opacity:0.8;stroke:#add8e6;stroke-opacity:0.8;" x="113.374859" xlink:href="#m7308c4f646" y="140.48428"/>
     <use style="fill:#add8e6;fill-opacity:0.8;stroke:#add8e6;stroke-opacity:0.8;" x="324.645407" xlink:href="#m7308c4f646" y="220.88403"/>
     <use style="fill:#add8e6;fill-opacity:0.8;stroke:#add8e6;stroke-opacity:0.8;" x="145.949205" xlink:href="#m7308c4f646" y="161.973435"/>
     <use style="fill:#add8e6;fill-opacity:0.8;stroke:#add8e6;stroke-opacity:0.8;" x="398.122768" xlink:href="#m7308c4f646" y="236.09742"/>
     <use style="fill:#add8e6;fill-opacity:0.8;stroke:#add8e6;stroke-opacity:0.8;" x="161.588593" xlink:href="#m7308c4f646" y="182.393961"/>
     <use style="fill:#add8e6;fill-opacity:0.8;stroke:#add8e6;stroke-opacity:0.8;" x="397.752605" xlink:href="#m7308c4f646" y="228.947321"/>
     <use style="fill:#add8e6;fill-opacity:0.8;stroke:#add8e6;stroke-opacity:0.8;" x="210.265031" xlink:href="#m7308c4f646" y="203.319658"/>
     <use style="fill:#add8e6;fill-opacity:0.8;stroke:#add8e6;stroke-opacity:0.8;" x="247.188793" xlink:href="#m7308c4f646" y="216.298641"/>
     <use style="fill:#add8e6;fill-opacity:0.8;stroke:#add8e6;stroke-opacity:0.8;" x="164.087193" xlink:href="#m7308c4f646" y="198.170809"/>
     <use style="fill:#add8e6;fill-opacity:0.8;stroke:#add8e6;stroke-opacity:0.8;" x="103.843161" xlink:href="#m7308c4f646" y="37.390737"/>
     <use style="fill:#add8e6;fill-opacity:0.8;stroke:#add8e6;stroke-opacity:0.8;" x="218.593699" xlink:href="#m7308c4f646" y="227.898122"/>
     <use style="fill:#add8e6;fill-opacity:0.8;stroke:#add8e6;stroke-opacity:0.8;" x="222.202789" xlink:href="#m7308c4f646" y="230.754275"/>
     <use style="fill:#add8e6;fill-opacity:0.8;stroke:#add8e6;stroke-opacity:0.8;" x="344.356589" xlink:href="#m7308c4f646" y="237.923804"/>
     <use style="fill:#add8e6;fill-opacity:0.8;stroke:#add8e6;stroke-opacity:0.8;" x="243.857326" xlink:href="#m7308c4f646" y="226.440901"/>
     <use style="fill:#add8e6;fill-opacity:0.8;stroke:#add8e6;stroke-opacity:0.8;" x="247.92912" xlink:href="#m7308c4f646" y="210.819489"/>
     <use style="fill:#add8e6;fill-opacity:0.8;stroke:#add8e6;stroke-opacity:0.8;" x="305.48947" xlink:href="#m7308c4f646" y="235.514531"/>
     <use style="fill:#add8e6;fill-opacity:0.8;stroke:#add8e6;stroke-opacity:0.8;" x="119.66763" xlink:href="#m7308c4f646" y="149.07217"/>
     <use style="fill:#add8e6;fill-opacity:0.8;stroke:#add8e6;stroke-opacity:0.8;" x="155.573444" xlink:href="#m7308c4f646" y="167.627453"/>
     <use style="fill:#add8e6;fill-opacity:0.8;stroke:#add8e6;stroke-opacity:0.8;" x="186.389516" xlink:href="#m7308c4f646" y="189.602349"/>
     <use style="fill:#add8e6;fill-opacity:0.8;stroke:#add8e6;stroke-opacity:0.8;" x="146.134287" xlink:href="#m7308c4f646" y="152.783226"/>
     <use style="fill:#add8e6;fill-opacity:0.8;stroke:#add8e6;stroke-opacity:0.8;" x="245.615601" xlink:href="#m7308c4f646" y="230.890283"/>
     <use style="fill:#add8e6;fill-opacity:0.8;stroke:#add8e6;stroke-opacity:0.8;" x="488.257466" xlink:href="#m7308c4f646" y="238.234678"/>
     <use style="fill:#add8e6;fill-opacity:0.8;stroke:#add8e6;stroke-opacity:0.8;" x="392.940486" xlink:href="#m7308c4f646" y="236.796886"/>
     <use style="fill:#add8e6;fill-opacity:0.8;stroke:#add8e6;stroke-opacity:0.8;" x="198.604896" xlink:href="#m7308c4f646" y="189.116608"/>
     <use style="fill:#add8e6;fill-opacity:0.8;stroke:#add8e6;stroke-opacity:0.8;" x="124.849912" xlink:href="#m7308c4f646" y="148.897303"/>
     <use style="fill:#add8e6;fill-opacity:0.8;stroke:#add8e6;stroke-opacity:0.8;" x="354.165909" xlink:href="#m7308c4f646" y="221.991519"/>
     <use style="fill:#add8e6;fill-opacity:0.8;stroke:#add8e6;stroke-opacity:0.8;" x="294.014417" xlink:href="#m7308c4f646" y="232.425222"/>
     <use style="fill:#add8e6;fill-opacity:0.8;stroke:#add8e6;stroke-opacity:0.8;" x="185.64919" xlink:href="#m7308c4f646" y="175.341011"/>
     <use style="fill:#add8e6;fill-opacity:0.8;stroke:#add8e6;stroke-opacity:0.8;" x="219.981811" xlink:href="#m7308c4f646" y="211.8104"/>
     <use style="fill:#add8e6;fill-opacity:0.8;stroke:#add8e6;stroke-opacity:0.8;" x="290.497868" xlink:href="#m7308c4f646" y="236.486012"/>
     <use style="fill:#add8e6;fill-opacity:0.8;stroke:#add8e6;stroke-opacity:0.8;" x="288.091808" xlink:href="#m7308c4f646" y="229.044469"/>
     <use style="fill:#add8e6;fill-opacity:0.8;stroke:#add8e6;stroke-opacity:0.8;" x="208.321675" xlink:href="#m7308c4f646" y="223.157296"/>
     <use style="fill:#add8e6;fill-opacity:0.8;stroke:#add8e6;stroke-opacity:0.8;" x="249.132149" xlink:href="#m7308c4f646" y="231.142868"/>
     <use style="fill:#add8e6;fill-opacity:0.8;stroke:#add8e6;stroke-opacity:0.8;" x="109.950851" xlink:href="#m7308c4f646" y="179.090927"/>
     <use style="fill:#add8e6;fill-opacity:0.8;stroke:#add8e6;stroke-opacity:0.8;" x="118.001896" xlink:href="#m7308c4f646" y="161.040813"/>
     <use style="fill:#add8e6;fill-opacity:0.8;stroke:#add8e6;stroke-opacity:0.8;" x="136.972752" xlink:href="#m7308c4f646" y="183.598597"/>
     <use style="fill:#add8e6;fill-opacity:0.8;stroke:#add8e6;stroke-opacity:0.8;" x="162.791623" xlink:href="#m7308c4f646" y="193.527131"/>
     <use style="fill:#add8e6;fill-opacity:0.8;stroke:#add8e6;stroke-opacity:0.8;" x="193.700236" xlink:href="#m7308c4f646" y="164.596433"/>
     <use style="fill:#add8e6;fill-opacity:0.8;stroke:#add8e6;stroke-opacity:0.8;" x="117.816815" xlink:href="#m7308c4f646" y="200.346926"/>
     <use style="fill:#add8e6;fill-opacity:0.8;stroke:#add8e6;stroke-opacity:0.8;" x="110.876258" xlink:href="#m7308c4f646" y="184.084338"/>
     <use style="fill:#add8e6;fill-opacity:0.8;stroke:#add8e6;stroke-opacity:0.8;" x="392.385241" xlink:href="#m7308c4f646" y="238.079241"/>
     <use style="fill:#add8e6;fill-opacity:0.8;stroke:#add8e6;stroke-opacity:0.8;" x="131.050143" xlink:href="#m7308c4f646" y="181.616777"/>
     <use style="fill:#add8e6;fill-opacity:0.8;stroke:#add8e6;stroke-opacity:0.8;" x="185.556649" xlink:href="#m7308c4f646" y="114.468024"/>
     <use style="fill:#add8e6;fill-opacity:0.8;stroke:#add8e6;stroke-opacity:0.8;" x="200.918415" xlink:href="#m7308c4f646" y="179.673815"/>
     <use style="fill:#add8e6;fill-opacity:0.8;stroke:#add8e6;stroke-opacity:0.8;" x="143.913308" xlink:href="#m7308c4f646" y="105.860704"/>
     <use style="fill:#add8e6;fill-opacity:0.8;stroke:#add8e6;stroke-opacity:0.8;" x="168.52915" xlink:href="#m7308c4f646" y="201.512703"/>
     <use style="fill:#add8e6;fill-opacity:0.8;stroke:#add8e6;stroke-opacity:0.8;" x="170.842669" xlink:href="#m7308c4f646" y="223.992769"/>
     <use style="fill:#add8e6;fill-opacity:0.8;stroke:#add8e6;stroke-opacity:0.8;" x="111.524043" xlink:href="#m7308c4f646" y="101.761055"/>
     <use style="fill:#add8e6;fill-opacity:0.8;stroke:#add8e6;stroke-opacity:0.8;" x="391.274752" xlink:href="#m7308c4f646" y="231.570319"/>
     <use style="fill:#add8e6;fill-opacity:0.8;stroke:#add8e6;stroke-opacity:0.8;" x="290.312786" xlink:href="#m7308c4f646" y="211.2858"/>
     <use style="fill:#add8e6;fill-opacity:0.8;stroke:#add8e6;stroke-opacity:0.8;" x="322.146807" xlink:href="#m7308c4f646" y="234.290466"/>
     <use style="fill:#add8e6;fill-opacity:0.8;stroke:#add8e6;stroke-opacity:0.8;" x="167.141038" xlink:href="#m7308c4f646" y="187.620528"/>
     <use style="fill:#add8e6;fill-opacity:0.8;stroke:#add8e6;stroke-opacity:0.8;" x="442.26471" xlink:href="#m7308c4f646" y="237.826656"/>
     <use style="fill:#add8e6;fill-opacity:0.8;stroke:#add8e6;stroke-opacity:0.8;" x="105.231272" xlink:href="#m7308c4f646" y="158.6704"/>
     <use style="fill:#add8e6;fill-opacity:0.8;stroke:#add8e6;stroke-opacity:0.8;" x="117.354111" xlink:href="#m7308c4f646" y="195.839255"/>
     <use style="fill:#add8e6;fill-opacity:0.8;stroke:#add8e6;stroke-opacity:0.8;" x="101.899805" xlink:href="#m7308c4f646" y="159.70017"/>
     <use style="fill:#add8e6;fill-opacity:0.8;stroke:#add8e6;stroke-opacity:0.8;" x="296.513017" xlink:href="#m7308c4f646" y="236.000272"/>
     <use style="fill:#add8e6;fill-opacity:0.8;stroke:#add8e6;stroke-opacity:0.8;" x="436.434642" xlink:href="#m7308c4f646" y="236.408294"/>
     <use style="fill:#add8e6;fill-opacity:0.8;stroke:#add8e6;stroke-opacity:0.8;" x="187.222383" xlink:href="#m7308c4f646" y="217.814151"/>
     <use style="fill:#add8e6;fill-opacity:0.8;stroke:#add8e6;stroke-opacity:0.8;" x="111.894206" xlink:href="#m7308c4f646" y="150.490532"/>
     <use style="fill:#add8e6;fill-opacity:0.8;stroke:#add8e6;stroke-opacity:0.8;" x="162.328919" xlink:href="#m7308c4f646" y="226.654626"/>
     <use style="fill:#add8e6;fill-opacity:0.8;stroke:#add8e6;stroke-opacity:0.8;" x="338.341439" xlink:href="#m7308c4f646" y="235.436813"/>
     <use style="fill:#add8e6;fill-opacity:0.8;stroke:#add8e6;stroke-opacity:0.8;" x="185.556649" xlink:href="#m7308c4f646" y="202.71734"/>
     <use style="fill:#add8e6;fill-opacity:0.8;stroke:#add8e6;stroke-opacity:0.8;" x="272.45242" xlink:href="#m7308c4f646" y="232.619519"/>
     <use style="fill:#add8e6;fill-opacity:0.8;stroke:#add8e6;stroke-opacity:0.8;" x="113.837562" xlink:href="#m7308c4f646" y="99.682086"/>
     <use style="fill:#add8e6;fill-opacity:0.8;stroke:#add8e6;stroke-opacity:0.8;" x="108.65528" xlink:href="#m7308c4f646" y="106.307585"/>
     <use style="fill:#add8e6;fill-opacity:0.8;stroke:#add8e6;stroke-opacity:0.8;" x="275.691347" xlink:href="#m7308c4f646" y="208.721091"/>
     <use style="fill:#add8e6;fill-opacity:0.8;stroke:#add8e6;stroke-opacity:0.8;" x="135.029396" xlink:href="#m7308c4f646" y="123.77481"/>
     <use style="fill:#add8e6;fill-opacity:0.8;stroke:#add8e6;stroke-opacity:0.8;" x="320.943777" xlink:href="#m7308c4f646" y="232.094919"/>
     <use style="fill:#add8e6;fill-opacity:0.8;stroke:#add8e6;stroke-opacity:0.8;" x="367.7694" xlink:href="#m7308c4f646" y="237.826656"/>
     <use style="fill:#add8e6;fill-opacity:0.8;stroke:#add8e6;stroke-opacity:0.8;" x="147.152235" xlink:href="#m7308c4f646" y="217.444988"/>
     <use style="fill:#add8e6;fill-opacity:0.8;stroke:#add8e6;stroke-opacity:0.8;" x="361.291547" xlink:href="#m7308c4f646" y="236.544301"/>
     <use style="fill:#add8e6;fill-opacity:0.8;stroke:#add8e6;stroke-opacity:0.8;" x="253.574106" xlink:href="#m7308c4f646" y="219.621105"/>
     <use style="fill:#add8e6;fill-opacity:0.8;stroke:#add8e6;stroke-opacity:0.8;" x="138.175781" xlink:href="#m7308c4f646" y="179.634956"/>
     <use style="fill:#add8e6;fill-opacity:0.8;stroke:#add8e6;stroke-opacity:0.8;" x="162.42146" xlink:href="#m7308c4f646" y="214.588835"/>
     <use style="fill:#add8e6;fill-opacity:0.8;stroke:#add8e6;stroke-opacity:0.8;" x="172.600943" xlink:href="#m7308c4f646" y="186.241025"/>
     <use style="fill:#add8e6;fill-opacity:0.8;stroke:#add8e6;stroke-opacity:0.8;" x="274.303235" xlink:href="#m7308c4f646" y="224.109347"/>
     <use style="fill:#add8e6;fill-opacity:0.8;stroke:#add8e6;stroke-opacity:0.8;" x="220.907218" xlink:href="#m7308c4f646" y="186.241025"/>
     <use style="fill:#add8e6;fill-opacity:0.8;stroke:#add8e6;stroke-opacity:0.8;" x="224.053604" xlink:href="#m7308c4f646" y="227.082078"/>
     <use style="fill:#add8e6;fill-opacity:0.8;stroke:#add8e6;stroke-opacity:0.8;" x="456.97869" xlink:href="#m7308c4f646" y="237.904374"/>
     <use style="fill:#add8e6;fill-opacity:0.8;stroke:#add8e6;stroke-opacity:0.8;" x="100.419153" xlink:href="#m7308c4f646" y="188.106268"/>
     <use style="fill:#add8e6;fill-opacity:0.8;stroke:#add8e6;stroke-opacity:0.8;" x="194.25548" xlink:href="#m7308c4f646" y="146.254875"/>
     <use style="fill:#add8e6;fill-opacity:0.8;stroke:#add8e6;stroke-opacity:0.8;" x="117.909356" xlink:href="#m7308c4f646" y="133.003877"/>
     <use style="fill:#add8e6;fill-opacity:0.8;stroke:#add8e6;stroke-opacity:0.8;" x="149.650835" xlink:href="#m7308c4f646" y="64.125889"/>
     <use style="fill:#add8e6;fill-opacity:0.8;stroke:#add8e6;stroke-opacity:0.8;" x="147.522398" xlink:href="#m7308c4f646" y="181.985939"/>
     <use style="fill:#add8e6;fill-opacity:0.8;stroke:#add8e6;stroke-opacity:0.8;" x="262.735641" xlink:href="#m7308c4f646" y="226.382612"/>
     <use style="fill:#add8e6;fill-opacity:0.8;stroke:#add8e6;stroke-opacity:0.8;" x="229.050805" xlink:href="#m7308c4f646" y="232.269785"/>
     <use style="fill:#add8e6;fill-opacity:0.8;stroke:#add8e6;stroke-opacity:0.8;" x="191.941961" xlink:href="#m7308c4f646" y="211.382948"/>
     <use style="fill:#add8e6;fill-opacity:0.8;stroke:#add8e6;stroke-opacity:0.8;" x="174.821921" xlink:href="#m7308c4f646" y="202.134451"/>
     <use style="fill:#add8e6;fill-opacity:0.8;stroke:#add8e6;stroke-opacity:0.8;" x="147.985102" xlink:href="#m7308c4f646" y="111.767307"/>
     <use style="fill:#add8e6;fill-opacity:0.8;stroke:#add8e6;stroke-opacity:0.8;" x="311.874783" xlink:href="#m7308c4f646" y="210.392038"/>
     <use style="fill:#add8e6;fill-opacity:0.8;stroke:#add8e6;stroke-opacity:0.8;" x="415.705512" xlink:href="#m7308c4f646" y="231.376023"/>
     <use style="fill:#add8e6;fill-opacity:0.8;stroke:#add8e6;stroke-opacity:0.8;" x="398.215309" xlink:href="#m7308c4f646" y="237.010612"/>
     <use style="fill:#add8e6;fill-opacity:0.8;stroke:#add8e6;stroke-opacity:0.8;" x="278.004866" xlink:href="#m7308c4f646" y="233.396703"/>
    </g>
   </g>
   <g id="PathCollection_2">
    <defs>
     <path d="M 0 5.700877 
C 1.51189 5.700877 2.962061 5.100197 4.031129 4.031129 
C 5.100197 2.962061 5.700877 1.51189 5.700877 -0 
C 5.700877 -1.51189 5.100197 -2.962061 4.031129 -4.031129 
C 2.962061 -5.100197 1.51189 -5.700877 0 -5.700877 
C -1.51189 -5.700877 -2.962061 -5.100197 -4.031129 -4.031129 
C -5.100197 -2.962061 -5.700877 -1.51189 -5.700877 0 
C -5.700877 1.51189 -5.100197 2.962061 -4.031129 4.031129 
C -2.962061 5.100197 -1.51189 5.700877 0 5.700877 
z
" id="C0_0_19d76e51b6"/>
    </defs>
    <g clip-path="url(#p4e04036022)">
     <use style="fill:none;stroke:#000000;" x="436.24956" xlink:href="#C0_0_19d76e51b6" y="237.08833"/>
    </g>
    <g clip-path="url(#p4e04036022)">
     <use style="fill:none;stroke:#000000;" x="305.48947" xlink:href="#C0_0_19d76e51b6" y="235.514531"/>
    </g>
    <g clip-path="url(#p4e04036022)">
     <use style="fill:none;stroke:#000000;" x="397.752605" xlink:href="#C0_0_19d76e51b6" y="228.947321"/>
    </g>
    <g clip-path="url(#p4e04036022)">
     <use style="fill:none;stroke:#000000;" x="128.829165" xlink:href="#C0_0_19d76e51b6" y="224.089917"/>
    </g>
    <g clip-path="url(#p4e04036022)">
     <use style="fill:none;stroke:#000000;" x="177.413063" xlink:href="#C0_0_19d76e51b6" y="223.42931"/>
    </g>
    <g clip-path="url(#p4e04036022)">
     <use style="fill:none;stroke:#000000;" x="227.477612" xlink:href="#C0_0_19d76e51b6" y="216.726093"/>
    </g>
    <g clip-path="url(#p4e04036022)">
     <use style="fill:none;stroke:#000000;" x="185.093945" xlink:href="#C0_0_19d76e51b6" y="148.780726"/>
    </g>
    <g clip-path="url(#p4e04036022)">
     <use style="fill:none;stroke:#000000;" x="131.142684" xlink:href="#C0_0_19d76e51b6" y="128.729362"/>
    </g>
    <g clip-path="url(#p4e04036022)">
     <use style="fill:none;stroke:#000000;" x="124.294668" xlink:href="#C0_0_19d76e51b6" y="73.18009"/>
    </g>
   </g>
   <g id="matplotlib.axis_1">
    <g id="xtick_1">
     <g id="line2d_1">
      <defs>
       <path d="M 0 0 
L 0 3.5 
" id="m47ea8730e5" style="stroke:#000000;stroke-width:0.8;"/>
      </defs>
      <g>
       <use style="stroke:#000000;stroke-width:0.8;" x="111.338962" xlink:href="#m47ea8730e5" y="286.564077"/>
      </g>
     </g>
     <g id="text_1">
      <!-- 10 -->
      <g transform="translate(104.976462 301.162515)scale(0.1 -0.1)">
       <defs>
        <path d="M 12.40625 8.296875 
L 28.515625 8.296875 
L 28.515625 63.921875 
L 10.984375 60.40625 
L 10.984375 69.390625 
L 28.421875 72.90625 
L 38.28125 72.90625 
L 38.28125 8.296875 
L 54.390625 8.296875 
L 54.390625 0 
L 12.40625 0 
z
" id="DejaVuSans-49"/>
        <path d="M 31.78125 66.40625 
Q 24.171875 66.40625 20.328125 58.90625 
Q 16.5 51.421875 16.5 36.375 
Q 16.5 21.390625 20.328125 13.890625 
Q 24.171875 6.390625 31.78125 6.390625 
Q 39.453125 6.390625 43.28125 13.890625 
Q 47.125 21.390625 47.125 36.375 
Q 47.125 51.421875 43.28125 58.90625 
Q 39.453125 66.40625 31.78125 66.40625 
z
M 31.78125 74.21875 
Q 44.046875 74.21875 50.515625 64.515625 
Q 56.984375 54.828125 56.984375 36.375 
Q 56.984375 17.96875 50.515625 8.265625 
Q 44.046875 -1.421875 31.78125 -1.421875 
Q 19.53125 -1.421875 13.0625 8.265625 
Q 6.59375 17.96875 6.59375 36.375 
Q 6.59375 54.828125 13.0625 64.515625 
Q 19.53125 74.21875 31.78125 74.21875 
z
" id="DejaVuSans-48"/>
       </defs>
       <use xlink:href="#DejaVuSans-49"/>
       <use x="63.623047" xlink:href="#DejaVuSans-48"/>
      </g>
     </g>
    </g>
    <g id="xtick_2">
     <g id="line2d_2">
      <g>
       <use style="stroke:#000000;stroke-width:0.8;" x="157.60934" xlink:href="#m47ea8730e5" y="286.564077"/>
      </g>
     </g>
     <g id="text_2">
      <!-- 15 -->
      <g transform="translate(151.24684 301.162515)scale(0.1 -0.1)">
       <defs>
        <path d="M 10.796875 72.90625 
L 49.515625 72.90625 
L 49.515625 64.59375 
L 19.828125 64.59375 
L 19.828125 46.734375 
Q 21.96875 47.46875 24.109375 47.828125 
Q 26.265625 48.1875 28.421875 48.1875 
Q 40.625 48.1875 47.75 41.5 
Q 54.890625 34.8125 54.890625 23.390625 
Q 54.890625 11.625 47.5625 5.09375 
Q 40.234375 -1.421875 26.90625 -1.421875 
Q 22.3125 -1.421875 17.546875 -0.640625 
Q 12.796875 0.140625 7.71875 1.703125 
L 7.71875 11.625 
Q 12.109375 9.234375 16.796875 8.0625 
Q 21.484375 6.890625 26.703125 6.890625 
Q 35.15625 6.890625 40.078125 11.328125 
Q 45.015625 15.765625 45.015625 23.390625 
Q 45.015625 31 40.078125 35.4375 
Q 35.15625 39.890625 26.703125 39.890625 
Q 22.75 39.890625 18.8125 39.015625 
Q 14.890625 38.140625 10.796875 36.28125 
z
" id="DejaVuSans-53"/>
       </defs>
       <use xlink:href="#DejaVuSans-49"/>
       <use x="63.623047" xlink:href="#DejaVuSans-53"/>
      </g>
     </g>
    </g>
    <g id="xtick_3">
     <g id="line2d_3">
      <g>
       <use style="stroke:#000000;stroke-width:0.8;" x="203.879719" xlink:href="#m47ea8730e5" y="286.564077"/>
      </g>
     </g>
     <g id="text_3">
      <!-- 20 -->
      <g transform="translate(197.517219 301.162515)scale(0.1 -0.1)">
       <defs>
        <path d="M 19.1875 8.296875 
L 53.609375 8.296875 
L 53.609375 0 
L 7.328125 0 
L 7.328125 8.296875 
Q 12.9375 14.109375 22.625 23.890625 
Q 32.328125 33.6875 34.8125 36.53125 
Q 39.546875 41.84375 41.421875 45.53125 
Q 43.3125 49.21875 43.3125 52.78125 
Q 43.3125 58.59375 39.234375 62.25 
Q 35.15625 65.921875 28.609375 65.921875 
Q 23.96875 65.921875 18.8125 64.3125 
Q 13.671875 62.703125 7.8125 59.421875 
L 7.8125 69.390625 
Q 13.765625 71.78125 18.9375 73 
Q 24.125 74.21875 28.421875 74.21875 
Q 39.75 74.21875 46.484375 68.546875 
Q 53.21875 62.890625 53.21875 53.421875 
Q 53.21875 48.921875 51.53125 44.890625 
Q 49.859375 40.875 45.40625 35.40625 
Q 44.1875 33.984375 37.640625 27.21875 
Q 31.109375 20.453125 19.1875 8.296875 
z
" id="DejaVuSans-50"/>
       </defs>
       <use xlink:href="#DejaVuSans-50"/>
       <use x="63.623047" xlink:href="#DejaVuSans-48"/>
      </g>
     </g>
    </g>
    <g id="xtick_4">
     <g id="line2d_4">
      <g>
       <use style="stroke:#000000;stroke-width:0.8;" x="250.150098" xlink:href="#m47ea8730e5" y="286.564077"/>
      </g>
     </g>
     <g id="text_4">
      <!-- 25 -->
      <g transform="translate(243.787598 301.162515)scale(0.1 -0.1)">
       <use xlink:href="#DejaVuSans-50"/>
       <use x="63.623047" xlink:href="#DejaVuSans-53"/>
      </g>
     </g>
    </g>
    <g id="xtick_5">
     <g id="line2d_5">
      <g>
       <use style="stroke:#000000;stroke-width:0.8;" x="296.420476" xlink:href="#m47ea8730e5" y="286.564077"/>
      </g>
     </g>
     <g id="text_5">
      <!-- 30 -->
      <g transform="translate(290.057976 301.162515)scale(0.1 -0.1)">
       <defs>
        <path d="M 40.578125 39.3125 
Q 47.65625 37.796875 51.625 33 
Q 55.609375 28.21875 55.609375 21.1875 
Q 55.609375 10.40625 48.1875 4.484375 
Q 40.765625 -1.421875 27.09375 -1.421875 
Q 22.515625 -1.421875 17.65625 -0.515625 
Q 12.796875 0.390625 7.625 2.203125 
L 7.625 11.71875 
Q 11.71875 9.328125 16.59375 8.109375 
Q 21.484375 6.890625 26.8125 6.890625 
Q 36.078125 6.890625 40.9375 10.546875 
Q 45.796875 14.203125 45.796875 21.1875 
Q 45.796875 27.640625 41.28125 31.265625 
Q 36.765625 34.90625 28.71875 34.90625 
L 20.21875 34.90625 
L 20.21875 43.015625 
L 29.109375 43.015625 
Q 36.375 43.015625 40.234375 45.921875 
Q 44.09375 48.828125 44.09375 54.296875 
Q 44.09375 59.90625 40.109375 62.90625 
Q 36.140625 65.921875 28.71875 65.921875 
Q 24.65625 65.921875 20.015625 65.03125 
Q 15.375 64.15625 9.8125 62.3125 
L 9.8125 71.09375 
Q 15.4375 72.65625 20.34375 73.4375 
Q 25.25 74.21875 29.59375 74.21875 
Q 40.828125 74.21875 47.359375 69.109375 
Q 53.90625 64.015625 53.90625 55.328125 
Q 53.90625 49.265625 50.4375 45.09375 
Q 46.96875 40.921875 40.578125 39.3125 
z
" id="DejaVuSans-51"/>
       </defs>
       <use xlink:href="#DejaVuSans-51"/>
       <use x="63.623047" xlink:href="#DejaVuSans-48"/>
      </g>
     </g>
    </g>
    <g id="xtick_6">
     <g id="line2d_6">
      <g>
       <use style="stroke:#000000;stroke-width:0.8;" x="342.690855" xlink:href="#m47ea8730e5" y="286.564077"/>
      </g>
     </g>
     <g id="text_6">
      <!-- 35 -->
      <g transform="translate(336.328355 301.162515)scale(0.1 -0.1)">
       <use xlink:href="#DejaVuSans-51"/>
       <use x="63.623047" xlink:href="#DejaVuSans-53"/>
      </g>
     </g>
    </g>
    <g id="xtick_7">
     <g id="line2d_7">
      <g>
       <use style="stroke:#000000;stroke-width:0.8;" x="388.961233" xlink:href="#m47ea8730e5" y="286.564077"/>
      </g>
     </g>
     <g id="text_7">
      <!-- 40 -->
      <g transform="translate(382.598733 301.162515)scale(0.1 -0.1)">
       <defs>
        <path d="M 37.796875 64.3125 
L 12.890625 25.390625 
L 37.796875 25.390625 
z
M 35.203125 72.90625 
L 47.609375 72.90625 
L 47.609375 25.390625 
L 58.015625 25.390625 
L 58.015625 17.1875 
L 47.609375 17.1875 
L 47.609375 0 
L 37.796875 0 
L 37.796875 17.1875 
L 4.890625 17.1875 
L 4.890625 26.703125 
z
" id="DejaVuSans-52"/>
       </defs>
       <use xlink:href="#DejaVuSans-52"/>
       <use x="63.623047" xlink:href="#DejaVuSans-48"/>
      </g>
     </g>
    </g>
    <g id="xtick_8">
     <g id="line2d_8">
      <g>
       <use style="stroke:#000000;stroke-width:0.8;" x="435.231612" xlink:href="#m47ea8730e5" y="286.564077"/>
      </g>
     </g>
     <g id="text_8">
      <!-- 45 -->
      <g transform="translate(428.869112 301.162515)scale(0.1 -0.1)">
       <use xlink:href="#DejaVuSans-52"/>
       <use x="63.623047" xlink:href="#DejaVuSans-53"/>
      </g>
     </g>
    </g>
    <g id="xtick_9">
     <g id="line2d_9">
      <g>
       <use style="stroke:#000000;stroke-width:0.8;" x="481.501991" xlink:href="#m47ea8730e5" y="286.564077"/>
      </g>
     </g>
     <g id="text_9">
      <!-- 50 -->
      <g transform="translate(475.139491 301.162515)scale(0.1 -0.1)">
       <use xlink:href="#DejaVuSans-53"/>
       <use x="63.623047" xlink:href="#DejaVuSans-48"/>
      </g>
     </g>
    </g>
    <g id="text_10">
     <!-- birth_rate -->
     <g transform="translate(262.855035 314.84064)scale(0.1 -0.1)">
      <defs>
       <path d="M 48.6875 27.296875 
Q 48.6875 37.203125 44.609375 42.84375 
Q 40.53125 48.484375 33.40625 48.484375 
Q 26.265625 48.484375 22.1875 42.84375 
Q 18.109375 37.203125 18.109375 27.296875 
Q 18.109375 17.390625 22.1875 11.75 
Q 26.265625 6.109375 33.40625 6.109375 
Q 40.53125 6.109375 44.609375 11.75 
Q 48.6875 17.390625 48.6875 27.296875 
z
M 18.109375 46.390625 
Q 20.953125 51.265625 25.265625 53.625 
Q 29.59375 56 35.59375 56 
Q 45.5625 56 51.78125 48.09375 
Q 58.015625 40.1875 58.015625 27.296875 
Q 58.015625 14.40625 51.78125 6.484375 
Q 45.5625 -1.421875 35.59375 -1.421875 
Q 29.59375 -1.421875 25.265625 0.953125 
Q 20.953125 3.328125 18.109375 8.203125 
L 18.109375 0 
L 9.078125 0 
L 9.078125 75.984375 
L 18.109375 75.984375 
z
" id="DejaVuSans-98"/>
       <path d="M 9.421875 54.6875 
L 18.40625 54.6875 
L 18.40625 0 
L 9.421875 0 
z
M 9.421875 75.984375 
L 18.40625 75.984375 
L 18.40625 64.59375 
L 9.421875 64.59375 
z
" id="DejaVuSans-105"/>
       <path d="M 41.109375 46.296875 
Q 39.59375 47.171875 37.8125 47.578125 
Q 36.03125 48 33.890625 48 
Q 26.265625 48 22.1875 43.046875 
Q 18.109375 38.09375 18.109375 28.8125 
L 18.109375 0 
L 9.078125 0 
L 9.078125 54.6875 
L 18.109375 54.6875 
L 18.109375 46.1875 
Q 20.953125 51.171875 25.484375 53.578125 
Q 30.03125 56 36.53125 56 
Q 37.453125 56 38.578125 55.875 
Q 39.703125 55.765625 41.0625 55.515625 
z
" id="DejaVuSans-114"/>
       <path d="M 18.3125 70.21875 
L 18.3125 54.6875 
L 36.8125 54.6875 
L 36.8125 47.703125 
L 18.3125 47.703125 
L 18.3125 18.015625 
Q 18.3125 11.328125 20.140625 9.421875 
Q 21.96875 7.515625 27.59375 7.515625 
L 36.8125 7.515625 
L 36.8125 0 
L 27.59375 0 
Q 17.1875 0 13.234375 3.875 
Q 9.28125 7.765625 9.28125 18.015625 
L 9.28125 47.703125 
L 2.6875 47.703125 
L 2.6875 54.6875 
L 9.28125 54.6875 
L 9.28125 70.21875 
z
" id="DejaVuSans-116"/>
       <path d="M 54.890625 33.015625 
L 54.890625 0 
L 45.90625 0 
L 45.90625 32.71875 
Q 45.90625 40.484375 42.875 44.328125 
Q 39.84375 48.1875 33.796875 48.1875 
Q 26.515625 48.1875 22.3125 43.546875 
Q 18.109375 38.921875 18.109375 30.90625 
L 18.109375 0 
L 9.078125 0 
L 9.078125 75.984375 
L 18.109375 75.984375 
L 18.109375 46.1875 
Q 21.34375 51.125 25.703125 53.5625 
Q 30.078125 56 35.796875 56 
Q 45.21875 56 50.046875 50.171875 
Q 54.890625 44.34375 54.890625 33.015625 
z
" id="DejaVuSans-104"/>
       <path d="M 50.984375 -16.609375 
L 50.984375 -23.578125 
L -0.984375 -23.578125 
L -0.984375 -16.609375 
z
" id="DejaVuSans-95"/>
       <path d="M 34.28125 27.484375 
Q 23.390625 27.484375 19.1875 25 
Q 14.984375 22.515625 14.984375 16.5 
Q 14.984375 11.71875 18.140625 8.90625 
Q 21.296875 6.109375 26.703125 6.109375 
Q 34.1875 6.109375 38.703125 11.40625 
Q 43.21875 16.703125 43.21875 25.484375 
L 43.21875 27.484375 
z
M 52.203125 31.203125 
L 52.203125 0 
L 43.21875 0 
L 43.21875 8.296875 
Q 40.140625 3.328125 35.546875 0.953125 
Q 30.953125 -1.421875 24.3125 -1.421875 
Q 15.921875 -1.421875 10.953125 3.296875 
Q 6 8.015625 6 15.921875 
Q 6 25.140625 12.171875 29.828125 
Q 18.359375 34.515625 30.609375 34.515625 
L 43.21875 34.515625 
L 43.21875 35.40625 
Q 43.21875 41.609375 39.140625 45 
Q 35.0625 48.390625 27.6875 48.390625 
Q 23 48.390625 18.546875 47.265625 
Q 14.109375 46.140625 10.015625 43.890625 
L 10.015625 52.203125 
Q 14.9375 54.109375 19.578125 55.046875 
Q 24.21875 56 28.609375 56 
Q 40.484375 56 46.34375 49.84375 
Q 52.203125 43.703125 52.203125 31.203125 
z
" id="DejaVuSans-97"/>
       <path d="M 56.203125 29.59375 
L 56.203125 25.203125 
L 14.890625 25.203125 
Q 15.484375 15.921875 20.484375 11.0625 
Q 25.484375 6.203125 34.421875 6.203125 
Q 39.59375 6.203125 44.453125 7.46875 
Q 49.3125 8.734375 54.109375 11.28125 
L 54.109375 2.78125 
Q 49.265625 0.734375 44.1875 -0.34375 
Q 39.109375 -1.421875 33.890625 -1.421875 
Q 20.796875 -1.421875 13.15625 6.1875 
Q 5.515625 13.8125 5.515625 26.8125 
Q 5.515625 40.234375 12.765625 48.109375 
Q 20.015625 56 32.328125 56 
Q 43.359375 56 49.78125 48.890625 
Q 56.203125 41.796875 56.203125 29.59375 
z
M 47.21875 32.234375 
Q 47.125 39.59375 43.09375 43.984375 
Q 39.0625 48.390625 32.421875 48.390625 
Q 24.90625 48.390625 20.390625 44.140625 
Q 15.875 39.890625 15.1875 32.171875 
z
" id="DejaVuSans-101"/>
      </defs>
      <use xlink:href="#DejaVuSans-98"/>
      <use x="63.476562" xlink:href="#DejaVuSans-105"/>
      <use x="91.259766" xlink:href="#DejaVuSans-114"/>
      <use x="132.373047" xlink:href="#DejaVuSans-116"/>
      <use x="171.582031" xlink:href="#DejaVuSans-104"/>
      <use x="234.960938" xlink:href="#DejaVuSans-95"/>
      <use x="284.960938" xlink:href="#DejaVuSans-114"/>
      <use x="326.074219" xlink:href="#DejaVuSans-97"/>
      <use x="387.353516" xlink:href="#DejaVuSans-116"/>
      <use x="426.5625" xlink:href="#DejaVuSans-101"/>
     </g>
    </g>
   </g>
   <g id="matplotlib.axis_2">
    <g id="ytick_1">
     <g id="line2d_10">
      <defs>
       <path d="M 0 0 
L -3.5 0 
" id="m2d58f696d0" style="stroke:#000000;stroke-width:0.8;"/>
      </defs>
      <g>
       <use style="stroke:#000000;stroke-width:0.8;" x="86.260417" xlink:href="#m2d58f696d0" y="277.463072"/>
      </g>
     </g>
     <g id="text_11">
      <!-- −200 -->
      <g transform="translate(51.793229 281.262291)scale(0.1 -0.1)">
       <defs>
        <path d="M 10.59375 35.5 
L 73.1875 35.5 
L 73.1875 27.203125 
L 10.59375 27.203125 
z
" id="DejaVuSans-8722"/>
       </defs>
       <use xlink:href="#DejaVuSans-8722"/>
       <use x="83.789062" xlink:href="#DejaVuSans-50"/>
       <use x="147.412109" xlink:href="#DejaVuSans-48"/>
       <use x="211.035156" xlink:href="#DejaVuSans-48"/>
      </g>
     </g>
    </g>
    <g id="ytick_2">
     <g id="line2d_11">
      <g>
       <use style="stroke:#000000;stroke-width:0.8;" x="86.260417" xlink:href="#m2d58f696d0" y="238.60384"/>
      </g>
     </g>
     <g id="text_12">
      <!-- 0 -->
      <g transform="translate(72.897917 242.403059)scale(0.1 -0.1)">
       <use xlink:href="#DejaVuSans-48"/>
      </g>
     </g>
    </g>
    <g id="ytick_3">
     <g id="line2d_12">
      <g>
       <use style="stroke:#000000;stroke-width:0.8;" x="86.260417" xlink:href="#m2d58f696d0" y="199.744608"/>
      </g>
     </g>
     <g id="text_13">
      <!-- 200 -->
      <g transform="translate(60.172917 203.543827)scale(0.1 -0.1)">
       <use xlink:href="#DejaVuSans-50"/>
       <use x="63.623047" xlink:href="#DejaVuSans-48"/>
       <use x="127.246094" xlink:href="#DejaVuSans-48"/>
      </g>
     </g>
    </g>
    <g id="ytick_4">
     <g id="line2d_13">
      <g>
       <use style="stroke:#000000;stroke-width:0.8;" x="86.260417" xlink:href="#m2d58f696d0" y="160.885376"/>
      </g>
     </g>
     <g id="text_14">
      <!-- 400 -->
      <g transform="translate(60.172917 164.684595)scale(0.1 -0.1)">
       <use xlink:href="#DejaVuSans-52"/>
       <use x="63.623047" xlink:href="#DejaVuSans-48"/>
       <use x="127.246094" xlink:href="#DejaVuSans-48"/>
      </g>
     </g>
    </g>
    <g id="ytick_5">
     <g id="line2d_14">
      <g>
       <use style="stroke:#000000;stroke-width:0.8;" x="86.260417" xlink:href="#m2d58f696d0" y="122.026144"/>
      </g>
     </g>
     <g id="text_15">
      <!-- 600 -->
      <g transform="translate(60.172917 125.825363)scale(0.1 -0.1)">
       <defs>
        <path d="M 33.015625 40.375 
Q 26.375 40.375 22.484375 35.828125 
Q 18.609375 31.296875 18.609375 23.390625 
Q 18.609375 15.53125 22.484375 10.953125 
Q 26.375 6.390625 33.015625 6.390625 
Q 39.65625 6.390625 43.53125 10.953125 
Q 47.40625 15.53125 47.40625 23.390625 
Q 47.40625 31.296875 43.53125 35.828125 
Q 39.65625 40.375 33.015625 40.375 
z
M 52.59375 71.296875 
L 52.59375 62.3125 
Q 48.875 64.0625 45.09375 64.984375 
Q 41.3125 65.921875 37.59375 65.921875 
Q 27.828125 65.921875 22.671875 59.328125 
Q 17.53125 52.734375 16.796875 39.40625 
Q 19.671875 43.65625 24.015625 45.921875 
Q 28.375 48.1875 33.59375 48.1875 
Q 44.578125 48.1875 50.953125 41.515625 
Q 57.328125 34.859375 57.328125 23.390625 
Q 57.328125 12.15625 50.6875 5.359375 
Q 44.046875 -1.421875 33.015625 -1.421875 
Q 20.359375 -1.421875 13.671875 8.265625 
Q 6.984375 17.96875 6.984375 36.375 
Q 6.984375 53.65625 15.1875 63.9375 
Q 23.390625 74.21875 37.203125 74.21875 
Q 40.921875 74.21875 44.703125 73.484375 
Q 48.484375 72.75 52.59375 71.296875 
z
" id="DejaVuSans-54"/>
       </defs>
       <use xlink:href="#DejaVuSans-54"/>
       <use x="63.623047" xlink:href="#DejaVuSans-48"/>
       <use x="127.246094" xlink:href="#DejaVuSans-48"/>
      </g>
     </g>
    </g>
    <g id="ytick_6">
     <g id="line2d_15">
      <g>
       <use style="stroke:#000000;stroke-width:0.8;" x="86.260417" xlink:href="#m2d58f696d0" y="83.166912"/>
      </g>
     </g>
     <g id="text_16">
      <!-- 800 -->
      <g transform="translate(60.172917 86.966131)scale(0.1 -0.1)">
       <defs>
        <path d="M 31.78125 34.625 
Q 24.75 34.625 20.71875 30.859375 
Q 16.703125 27.09375 16.703125 20.515625 
Q 16.703125 13.921875 20.71875 10.15625 
Q 24.75 6.390625 31.78125 6.390625 
Q 38.8125 6.390625 42.859375 10.171875 
Q 46.921875 13.96875 46.921875 20.515625 
Q 46.921875 27.09375 42.890625 30.859375 
Q 38.875 34.625 31.78125 34.625 
z
M 21.921875 38.8125 
Q 15.578125 40.375 12.03125 44.71875 
Q 8.5 49.078125 8.5 55.328125 
Q 8.5 64.0625 14.71875 69.140625 
Q 20.953125 74.21875 31.78125 74.21875 
Q 42.671875 74.21875 48.875 69.140625 
Q 55.078125 64.0625 55.078125 55.328125 
Q 55.078125 49.078125 51.53125 44.71875 
Q 48 40.375 41.703125 38.8125 
Q 48.828125 37.15625 52.796875 32.3125 
Q 56.78125 27.484375 56.78125 20.515625 
Q 56.78125 9.90625 50.3125 4.234375 
Q 43.84375 -1.421875 31.78125 -1.421875 
Q 19.734375 -1.421875 13.25 4.234375 
Q 6.78125 9.90625 6.78125 20.515625 
Q 6.78125 27.484375 10.78125 32.3125 
Q 14.796875 37.15625 21.921875 38.8125 
z
M 18.3125 54.390625 
Q 18.3125 48.734375 21.84375 45.5625 
Q 25.390625 42.390625 31.78125 42.390625 
Q 38.140625 42.390625 41.71875 45.5625 
Q 45.3125 48.734375 45.3125 54.390625 
Q 45.3125 60.0625 41.71875 63.234375 
Q 38.140625 66.40625 31.78125 66.40625 
Q 25.390625 66.40625 21.84375 63.234375 
Q 18.3125 60.0625 18.3125 54.390625 
z
" id="DejaVuSans-56"/>
       </defs>
       <use xlink:href="#DejaVuSans-56"/>
       <use x="63.623047" xlink:href="#DejaVuSans-48"/>
       <use x="127.246094" xlink:href="#DejaVuSans-48"/>
      </g>
     </g>
    </g>
    <g id="ytick_7">
     <g id="line2d_16">
      <g>
       <use style="stroke:#000000;stroke-width:0.8;" x="86.260417" xlink:href="#m2d58f696d0" y="44.30768"/>
      </g>
     </g>
     <g id="text_17">
      <!-- 1000 -->
      <g transform="translate(53.810417 48.106899)scale(0.1 -0.1)">
       <use xlink:href="#DejaVuSans-49"/>
       <use x="63.623047" xlink:href="#DejaVuSans-48"/>
       <use x="127.246094" xlink:href="#DejaVuSans-48"/>
       <use x="190.869141" xlink:href="#DejaVuSans-48"/>
      </g>
     </g>
    </g>
    <g id="text_18">
     <!-- phones -->
     <g transform="translate(45.713542 174.297052)rotate(-90)scale(0.1 -0.1)">
      <defs>
       <path d="M 18.109375 8.203125 
L 18.109375 -20.796875 
L 9.078125 -20.796875 
L 9.078125 54.6875 
L 18.109375 54.6875 
L 18.109375 46.390625 
Q 20.953125 51.265625 25.265625 53.625 
Q 29.59375 56 35.59375 56 
Q 45.5625 56 51.78125 48.09375 
Q 58.015625 40.1875 58.015625 27.296875 
Q 58.015625 14.40625 51.78125 6.484375 
Q 45.5625 -1.421875 35.59375 -1.421875 
Q 29.59375 -1.421875 25.265625 0.953125 
Q 20.953125 3.328125 18.109375 8.203125 
z
M 48.6875 27.296875 
Q 48.6875 37.203125 44.609375 42.84375 
Q 40.53125 48.484375 33.40625 48.484375 
Q 26.265625 48.484375 22.1875 42.84375 
Q 18.109375 37.203125 18.109375 27.296875 
Q 18.109375 17.390625 22.1875 11.75 
Q 26.265625 6.109375 33.40625 6.109375 
Q 40.53125 6.109375 44.609375 11.75 
Q 48.6875 17.390625 48.6875 27.296875 
z
" id="DejaVuSans-112"/>
       <path d="M 30.609375 48.390625 
Q 23.390625 48.390625 19.1875 42.75 
Q 14.984375 37.109375 14.984375 27.296875 
Q 14.984375 17.484375 19.15625 11.84375 
Q 23.34375 6.203125 30.609375 6.203125 
Q 37.796875 6.203125 41.984375 11.859375 
Q 46.1875 17.53125 46.1875 27.296875 
Q 46.1875 37.015625 41.984375 42.703125 
Q 37.796875 48.390625 30.609375 48.390625 
z
M 30.609375 56 
Q 42.328125 56 49.015625 48.375 
Q 55.71875 40.765625 55.71875 27.296875 
Q 55.71875 13.875 49.015625 6.21875 
Q 42.328125 -1.421875 30.609375 -1.421875 
Q 18.84375 -1.421875 12.171875 6.21875 
Q 5.515625 13.875 5.515625 27.296875 
Q 5.515625 40.765625 12.171875 48.375 
Q 18.84375 56 30.609375 56 
z
" id="DejaVuSans-111"/>
       <path d="M 54.890625 33.015625 
L 54.890625 0 
L 45.90625 0 
L 45.90625 32.71875 
Q 45.90625 40.484375 42.875 44.328125 
Q 39.84375 48.1875 33.796875 48.1875 
Q 26.515625 48.1875 22.3125 43.546875 
Q 18.109375 38.921875 18.109375 30.90625 
L 18.109375 0 
L 9.078125 0 
L 9.078125 54.6875 
L 18.109375 54.6875 
L 18.109375 46.1875 
Q 21.34375 51.125 25.703125 53.5625 
Q 30.078125 56 35.796875 56 
Q 45.21875 56 50.046875 50.171875 
Q 54.890625 44.34375 54.890625 33.015625 
z
" id="DejaVuSans-110"/>
       <path d="M 44.28125 53.078125 
L 44.28125 44.578125 
Q 40.484375 46.53125 36.375 47.5 
Q 32.28125 48.484375 27.875 48.484375 
Q 21.1875 48.484375 17.84375 46.4375 
Q 14.5 44.390625 14.5 40.28125 
Q 14.5 37.15625 16.890625 35.375 
Q 19.28125 33.59375 26.515625 31.984375 
L 29.59375 31.296875 
Q 39.15625 29.25 43.1875 25.515625 
Q 47.21875 21.78125 47.21875 15.09375 
Q 47.21875 7.46875 41.1875 3.015625 
Q 35.15625 -1.421875 24.609375 -1.421875 
Q 20.21875 -1.421875 15.453125 -0.5625 
Q 10.6875 0.296875 5.421875 2 
L 5.421875 11.28125 
Q 10.40625 8.6875 15.234375 7.390625 
Q 20.0625 6.109375 24.8125 6.109375 
Q 31.15625 6.109375 34.5625 8.28125 
Q 37.984375 10.453125 37.984375 14.40625 
Q 37.984375 18.0625 35.515625 20.015625 
Q 33.0625 21.96875 24.703125 23.78125 
L 21.578125 24.515625 
Q 13.234375 26.265625 9.515625 29.90625 
Q 5.8125 33.546875 5.8125 39.890625 
Q 5.8125 47.609375 11.28125 51.796875 
Q 16.75 56 26.8125 56 
Q 31.78125 56 36.171875 55.265625 
Q 40.578125 54.546875 44.28125 53.078125 
z
" id="DejaVuSans-115"/>
      </defs>
      <use xlink:href="#DejaVuSans-112"/>
      <use x="63.476562" xlink:href="#DejaVuSans-104"/>
      <use x="126.855469" xlink:href="#DejaVuSans-111"/>
      <use x="188.037109" xlink:href="#DejaVuSans-110"/>
      <use x="251.416016" xlink:href="#DejaVuSans-101"/>
      <use x="312.939453" xlink:href="#DejaVuSans-115"/>
     </g>
    </g>
   </g>
   <g id="line2d_17">
    <path clip-path="url(#p4e04036022)" d="M 86.260417 150.004717 
L 90.320993 151.264252 
L 94.381569 152.523787 
L 98.442145 153.783321 
L 102.502722 155.042856 
L 106.563298 156.302391 
L 110.623874 157.561926 
L 114.68445 158.821461 
L 118.745027 160.080996 
L 122.805603 161.340531 
L 126.866179 162.600066 
L 130.926755 163.859601 
L 134.987332 165.119136 
L 139.047908 166.378671 
L 143.108484 167.638206 
L 147.16906 168.897741 
L 151.229637 170.157276 
L 155.290213 171.416811 
L 159.350789 172.676346 
L 163.411366 173.935881 
L 167.471942 175.195416 
L 171.532518 176.454951 
L 175.593094 177.714486 
L 179.653671 178.974021 
L 183.714247 180.233556 
L 187.774823 181.493091 
L 191.835399 182.752626 
L 195.895976 184.012161 
L 199.956552 185.271696 
L 204.017128 186.531231 
L 208.077704 187.790766 
L 212.138281 189.050301 
L 216.198857 190.309836 
L 220.259433 191.569371 
L 224.320009 192.828906 
L 228.380586 194.088441 
L 232.441162 195.347976 
L 236.501738 196.607511 
L 240.562314 197.867046 
L 244.622891 199.126581 
L 248.683467 200.386116 
L 252.744043 201.645651 
L 256.804619 202.905186 
L 260.865196 204.164721 
L 264.925772 205.424256 
L 268.986348 206.683791 
L 273.046924 207.943326 
L 277.107501 209.202861 
L 281.168077 210.462396 
L 285.228653 211.721931 
L 289.289229 212.981466 
L 293.349806 214.241001 
L 297.410382 215.500536 
L 301.470958 216.760071 
L 305.531534 218.019606 
L 309.592111 219.279141 
L 313.652687 220.538676 
L 317.713263 221.798211 
L 321.773839 223.057746 
L 325.834416 224.317281 
L 329.894992 225.576816 
L 333.955568 226.836351 
L 338.016145 228.095886 
L 342.076721 229.355421 
L 346.137297 230.614956 
L 350.197873 231.874491 
L 354.25845 233.134026 
L 358.319026 234.393561 
L 362.379602 235.653096 
L 366.440178 236.912631 
L 370.500755 238.172166 
L 374.561331 239.431701 
L 378.621907 240.691236 
L 382.682483 241.950771 
L 386.74306 243.210306 
L 390.803636 244.46984 
L 394.864212 245.729375 
L 398.924788 246.98891 
L 402.985365 248.248445 
L 407.045941 249.50798 
L 411.106517 250.767515 
L 415.167093 252.02705 
L 419.22767 253.286585 
L 423.288246 254.54612 
L 427.348822 255.805655 
L 431.409398 257.06519 
L 435.469975 258.324725 
L 439.530551 259.58426 
L 443.591127 260.843795 
L 447.651703 262.10333 
L 451.71228 263.362865 
L 455.772856 264.6224 
L 459.833432 265.881935 
L 463.894008 267.14147 
L 467.954585 268.401005 
L 472.015161 269.66054 
L 476.075737 270.920075 
L 480.136313 272.17961 
L 484.19689 273.439145 
L 488.257466 274.69868 
" style="fill:none;stroke:#1f77b4;stroke-linecap:square;stroke-width:3;"/>
   </g>
   <g id="patch_3">
    <path d="M 86.260417 286.564077 
L 86.260417 25.52534 
" style="fill:none;stroke:#000000;stroke-linecap:square;stroke-linejoin:miter;stroke-width:0.8;"/>
   </g>
   <g id="patch_4">
    <path d="M 86.260417 286.564077 
L 488.257466 286.564077 
" style="fill:none;stroke:#000000;stroke-linecap:square;stroke-linejoin:miter;stroke-width:0.8;"/>
   </g>
   <g id="patch_5">
    <path d="M 436.24956 245.92643 
Q 436.24956 251.245091 436.24956 255.445717 
" style="fill:none;stroke:#000000;stroke-linecap:round;"/>
    <path d="M 438.24956 251.445717 
L 436.24956 255.445717 
L 434.24956 251.445717 
" style="fill:none;stroke:#000000;stroke-linecap:round;"/>
   </g>
   <g id="text_19">
    <!--   -->
    <g transform="translate(434.660498 239.847705)scale(0.1 -0.1)">
     <defs>
      <path id="DejaVuSans-32"/>
     </defs>
     <use xlink:href="#DejaVuSans-32"/>
    </g>
   </g>
   <g id="text_20">
    <!-- Angola -->
    <g transform="translate(445.503636 240.352705)scale(0.12 -0.12)">
     <defs>
      <path d="M 53.421875 13.28125 
L 24.03125 13.28125 
L 19.390625 0 
L 0.484375 0 
L 27.484375 72.90625 
L 49.90625 72.90625 
L 76.90625 0 
L 58.015625 0 
z
M 28.71875 26.8125 
L 48.6875 26.8125 
L 38.71875 55.8125 
z
" id="DejaVuSans-Bold-65"/>
      <path d="M 63.375 33.296875 
L 63.375 0 
L 45.796875 0 
L 45.796875 5.421875 
L 45.796875 25.484375 
Q 45.796875 32.5625 45.484375 35.25 
Q 45.171875 37.9375 44.390625 39.203125 
Q 43.359375 40.921875 41.59375 41.875 
Q 39.84375 42.828125 37.59375 42.828125 
Q 32.125 42.828125 29 38.59375 
Q 25.875 34.375 25.875 26.90625 
L 25.875 0 
L 8.40625 0 
L 8.40625 54.6875 
L 25.875 54.6875 
L 25.875 46.6875 
Q 29.828125 51.46875 34.265625 53.734375 
Q 38.71875 56 44.09375 56 
Q 53.5625 56 58.46875 50.1875 
Q 63.375 44.390625 63.375 33.296875 
z
" id="DejaVuSans-Bold-110"/>
      <path d="M 45.609375 9.28125 
Q 42 4.5 37.640625 2.25 
Q 33.296875 0 27.59375 0 
Q 17.578125 0 11.03125 7.875 
Q 4.5 15.765625 4.5 27.984375 
Q 4.5 40.234375 11.03125 48.0625 
Q 17.578125 55.90625 27.59375 55.90625 
Q 33.296875 55.90625 37.640625 53.65625 
Q 42 51.421875 45.609375 46.578125 
L 45.609375 54.6875 
L 63.1875 54.6875 
L 63.1875 5.515625 
Q 63.1875 -7.671875 54.859375 -14.625 
Q 46.53125 -21.578125 30.71875 -21.578125 
Q 25.59375 -21.578125 20.796875 -20.796875 
Q 16.015625 -20.015625 11.1875 -18.40625 
L 11.1875 -4.78125 
Q 15.765625 -7.421875 20.15625 -8.71875 
Q 24.5625 -10.015625 29 -10.015625 
Q 37.59375 -10.015625 41.59375 -6.25 
Q 45.609375 -2.484375 45.609375 5.515625 
z
M 34.078125 43.3125 
Q 28.65625 43.3125 25.625 39.296875 
Q 22.609375 35.296875 22.609375 27.984375 
Q 22.609375 20.453125 25.53125 16.578125 
Q 28.46875 12.703125 34.078125 12.703125 
Q 39.546875 12.703125 42.578125 16.703125 
Q 45.609375 20.703125 45.609375 27.984375 
Q 45.609375 35.296875 42.578125 39.296875 
Q 39.546875 43.3125 34.078125 43.3125 
z
" id="DejaVuSans-Bold-103"/>
      <path d="M 34.421875 43.5 
Q 28.609375 43.5 25.5625 39.328125 
Q 22.515625 35.15625 22.515625 27.296875 
Q 22.515625 19.4375 25.5625 15.25 
Q 28.609375 11.078125 34.421875 11.078125 
Q 40.140625 11.078125 43.15625 15.25 
Q 46.1875 19.4375 46.1875 27.296875 
Q 46.1875 35.15625 43.15625 39.328125 
Q 40.140625 43.5 34.421875 43.5 
z
M 34.421875 56 
Q 48.53125 56 56.46875 48.375 
Q 64.40625 40.765625 64.40625 27.296875 
Q 64.40625 13.8125 56.46875 6.1875 
Q 48.53125 -1.421875 34.421875 -1.421875 
Q 20.265625 -1.421875 12.28125 6.1875 
Q 4.296875 13.8125 4.296875 27.296875 
Q 4.296875 40.765625 12.28125 48.375 
Q 20.265625 56 34.421875 56 
z
" id="DejaVuSans-Bold-111"/>
      <path d="M 8.40625 75.984375 
L 25.875 75.984375 
L 25.875 0 
L 8.40625 0 
z
" id="DejaVuSans-Bold-108"/>
      <path d="M 32.90625 24.609375 
Q 27.4375 24.609375 24.671875 22.75 
Q 21.921875 20.90625 21.921875 17.28125 
Q 21.921875 13.96875 24.140625 12.078125 
Q 26.375 10.203125 30.328125 10.203125 
Q 35.25 10.203125 38.625 13.734375 
Q 42 17.28125 42 22.609375 
L 42 24.609375 
z
M 59.625 31.203125 
L 59.625 0 
L 42 0 
L 42 8.109375 
Q 38.484375 3.125 34.078125 0.84375 
Q 29.6875 -1.421875 23.390625 -1.421875 
Q 14.890625 -1.421875 9.59375 3.53125 
Q 4.296875 8.5 4.296875 16.40625 
Q 4.296875 26.03125 10.90625 30.515625 
Q 17.53125 35.015625 31.6875 35.015625 
L 42 35.015625 
L 42 36.375 
Q 42 40.53125 38.71875 42.453125 
Q 35.453125 44.390625 28.515625 44.390625 
Q 22.90625 44.390625 18.0625 43.265625 
Q 13.234375 42.140625 9.078125 39.890625 
L 9.078125 53.21875 
Q 14.703125 54.59375 20.359375 55.296875 
Q 26.03125 56 31.6875 56 
Q 46.484375 56 53.046875 50.171875 
Q 59.625 44.34375 59.625 31.203125 
z
" id="DejaVuSans-Bold-97"/>
     </defs>
     <use xlink:href="#DejaVuSans-Bold-65"/>
     <use x="77.392578" xlink:href="#DejaVuSans-Bold-110"/>
     <use x="148.583984" xlink:href="#DejaVuSans-Bold-103"/>
     <use x="220.166016" xlink:href="#DejaVuSans-Bold-111"/>
     <use x="288.867188" xlink:href="#DejaVuSans-Bold-108"/>
     <use x="323.144531" xlink:href="#DejaVuSans-Bold-97"/>
    </g>
   </g>
   <g id="patch_6">
    <path d="M 305.48947 226.66898 
Q 305.48947 223.338093 305.48947 221.125239 
" style="fill:none;stroke:#000000;stroke-linecap:round;"/>
    <path d="M 303.48947 225.125239 
L 305.48947 221.125239 
L 307.48947 225.125239 
" style="fill:none;stroke:#000000;stroke-linecap:round;"/>
   </g>
   <g id="text_21">
    <!--   -->
    <g transform="translate(303.900408 238.273906)scale(0.1 -0.1)">
     <use xlink:href="#DejaVuSans-32"/>
    </g>
   </g>
   <g id="text_22">
    <!-- Nepal -->
    <g transform="translate(314.743546 238.825781)scale(0.12 -0.12)">
     <defs>
      <path d="M 9.1875 72.90625 
L 30.171875 72.90625 
L 56.6875 22.90625 
L 56.6875 72.90625 
L 74.515625 72.90625 
L 74.515625 0 
L 53.515625 0 
L 27 50 
L 27 0 
L 9.1875 0 
z
" id="DejaVuSans-Bold-78"/>
      <path d="M 62.984375 27.484375 
L 62.984375 22.515625 
L 22.125 22.515625 
Q 22.75 16.359375 26.5625 13.28125 
Q 30.375 10.203125 37.203125 10.203125 
Q 42.71875 10.203125 48.5 11.84375 
Q 54.296875 13.484375 60.40625 16.796875 
L 60.40625 3.328125 
Q 54.203125 0.984375 48 -0.21875 
Q 41.796875 -1.421875 35.59375 -1.421875 
Q 20.75 -1.421875 12.515625 6.125 
Q 4.296875 13.671875 4.296875 27.296875 
Q 4.296875 40.671875 12.375 48.328125 
Q 20.453125 56 34.625 56 
Q 47.515625 56 55.25 48.234375 
Q 62.984375 40.484375 62.984375 27.484375 
z
M 45.015625 33.296875 
Q 45.015625 38.28125 42.109375 41.328125 
Q 39.203125 44.390625 34.515625 44.390625 
Q 29.4375 44.390625 26.265625 41.53125 
Q 23.09375 38.671875 22.3125 33.296875 
z
" id="DejaVuSans-Bold-101"/>
      <path d="M 25.875 7.90625 
L 25.875 -20.796875 
L 8.40625 -20.796875 
L 8.40625 54.6875 
L 25.875 54.6875 
L 25.875 46.6875 
Q 29.5 51.46875 33.890625 53.734375 
Q 38.28125 56 44 56 
Q 54.109375 56 60.59375 47.96875 
Q 67.09375 39.9375 67.09375 27.296875 
Q 67.09375 14.65625 60.59375 6.609375 
Q 54.109375 -1.421875 44 -1.421875 
Q 38.28125 -1.421875 33.890625 0.84375 
Q 29.5 3.125 25.875 7.90625 
z
M 37.5 43.3125 
Q 31.890625 43.3125 28.875 39.1875 
Q 25.875 35.0625 25.875 27.296875 
Q 25.875 19.53125 28.875 15.40625 
Q 31.890625 11.28125 37.5 11.28125 
Q 43.109375 11.28125 46.0625 15.375 
Q 49.03125 19.484375 49.03125 27.296875 
Q 49.03125 35.109375 46.0625 39.203125 
Q 43.109375 43.3125 37.5 43.3125 
z
" id="DejaVuSans-Bold-112"/>
     </defs>
     <use xlink:href="#DejaVuSans-Bold-78"/>
     <use x="83.691406" xlink:href="#DejaVuSans-Bold-101"/>
     <use x="151.513672" xlink:href="#DejaVuSans-Bold-112"/>
     <use x="223.095703" xlink:href="#DejaVuSans-Bold-97"/>
     <use x="290.576172" xlink:href="#DejaVuSans-Bold-108"/>
    </g>
   </g>
   <g id="patch_7">
    <path d="M 397.752605 237.785641 
Q 397.752605 241.206267 397.752605 243.508859 
" style="fill:none;stroke:#000000;stroke-linecap:round;"/>
    <path d="M 399.752605 239.508859 
L 397.752605 243.508859 
L 395.752605 239.508859 
" style="fill:none;stroke:#000000;stroke-linecap:round;"/>
   </g>
   <g id="text_23">
    <!--   -->
    <g transform="translate(396.163543 231.706696)scale(0.1 -0.1)">
     <use xlink:href="#DejaVuSans-32"/>
    </g>
   </g>
   <g id="text_24">
    <!-- Mayotte -->
    <g transform="translate(407.006681 232.164821)scale(0.12 -0.12)">
     <defs>
      <path d="M 9.1875 72.90625 
L 33.109375 72.90625 
L 49.703125 33.890625 
L 66.40625 72.90625 
L 90.28125 72.90625 
L 90.28125 0 
L 72.515625 0 
L 72.515625 53.328125 
L 55.71875 14.015625 
L 43.796875 14.015625 
L 27 53.328125 
L 27 0 
L 9.1875 0 
z
" id="DejaVuSans-Bold-77"/>
      <path d="M 1.21875 54.6875 
L 18.703125 54.6875 
L 33.40625 17.578125 
L 45.90625 54.6875 
L 63.375 54.6875 
L 40.375 -5.171875 
Q 36.921875 -14.3125 32.296875 -17.9375 
Q 27.6875 -21.578125 20.125 -21.578125 
L 10.015625 -21.578125 
L 10.015625 -10.109375 
L 15.484375 -10.109375 
Q 19.921875 -10.109375 21.9375 -8.6875 
Q 23.96875 -7.28125 25.09375 -3.609375 
L 25.59375 -2.09375 
z
" id="DejaVuSans-Bold-121"/>
      <path d="M 27.484375 70.21875 
L 27.484375 54.6875 
L 45.515625 54.6875 
L 45.515625 42.1875 
L 27.484375 42.1875 
L 27.484375 19 
Q 27.484375 15.1875 29 13.84375 
Q 30.515625 12.5 35.015625 12.5 
L 44 12.5 
L 44 0 
L 29 0 
Q 18.65625 0 14.328125 4.3125 
Q 10.015625 8.640625 10.015625 19 
L 10.015625 42.1875 
L 1.3125 42.1875 
L 1.3125 54.6875 
L 10.015625 54.6875 
L 10.015625 70.21875 
z
" id="DejaVuSans-Bold-116"/>
     </defs>
     <use xlink:href="#DejaVuSans-Bold-77"/>
     <use x="99.511719" xlink:href="#DejaVuSans-Bold-97"/>
     <use x="163.867188" xlink:href="#DejaVuSans-Bold-121"/>
     <use x="229.052734" xlink:href="#DejaVuSans-Bold-111"/>
     <use x="297.753906" xlink:href="#DejaVuSans-Bold-116"/>
     <use x="345.556641" xlink:href="#DejaVuSans-Bold-116"/>
     <use x="393.359375" xlink:href="#DejaVuSans-Bold-101"/>
    </g>
   </g>
   <g id="patch_8">
    <path d="M 128.829165 215.246891 
Q 128.829165 190.226821 128.829165 166.324786 
" style="fill:none;stroke:#000000;stroke-linecap:round;"/>
    <path d="M 126.829165 170.324786 
L 128.829165 166.324786 
L 130.829165 170.324786 
" style="fill:none;stroke:#000000;stroke-linecap:round;"/>
   </g>
   <g id="text_25">
    <!--   -->
    <g transform="translate(127.240102 226.849292)scale(0.1 -0.1)">
     <use xlink:href="#DejaVuSans-32"/>
    </g>
   </g>
   <g id="text_26">
    <!-- Cuba -->
    <g transform="translate(138.083241 227.401167)scale(0.12 -0.12)">
     <defs>
      <path d="M 67 4 
Q 61.8125 1.3125 56.203125 -0.046875 
Q 50.59375 -1.421875 44.484375 -1.421875 
Q 26.265625 -1.421875 15.625 8.765625 
Q 4.984375 18.953125 4.984375 36.375 
Q 4.984375 53.859375 15.625 64.03125 
Q 26.265625 74.21875 44.484375 74.21875 
Q 50.59375 74.21875 56.203125 72.84375 
Q 61.8125 71.484375 67 68.796875 
L 67 53.71875 
Q 61.765625 57.28125 56.6875 58.9375 
Q 51.609375 60.59375 46 60.59375 
Q 35.9375 60.59375 30.171875 54.140625 
Q 24.421875 47.703125 24.421875 36.375 
Q 24.421875 25.09375 30.171875 18.640625 
Q 35.9375 12.203125 46 12.203125 
Q 51.609375 12.203125 56.6875 13.859375 
Q 61.765625 15.53125 67 19.09375 
z
" id="DejaVuSans-Bold-67"/>
      <path d="M 7.8125 21.296875 
L 7.8125 54.6875 
L 25.390625 54.6875 
L 25.390625 49.21875 
Q 25.390625 44.78125 25.34375 38.0625 
Q 25.296875 31.34375 25.296875 29.109375 
Q 25.296875 22.515625 25.640625 19.609375 
Q 25.984375 16.703125 26.8125 15.375 
Q 27.875 13.671875 29.609375 12.734375 
Q 31.34375 11.8125 33.59375 11.8125 
Q 39.0625 11.8125 42.1875 16.015625 
Q 45.3125 20.21875 45.3125 27.6875 
L 45.3125 54.6875 
L 62.796875 54.6875 
L 62.796875 0 
L 45.3125 0 
L 45.3125 7.90625 
Q 41.359375 3.125 36.9375 0.84375 
Q 32.515625 -1.421875 27.203125 -1.421875 
Q 17.71875 -1.421875 12.765625 4.390625 
Q 7.8125 10.203125 7.8125 21.296875 
z
" id="DejaVuSans-Bold-117"/>
      <path d="M 37.5 11.28125 
Q 43.109375 11.28125 46.0625 15.375 
Q 49.03125 19.484375 49.03125 27.296875 
Q 49.03125 35.109375 46.0625 39.203125 
Q 43.109375 43.3125 37.5 43.3125 
Q 31.890625 43.3125 28.875 39.1875 
Q 25.875 35.0625 25.875 27.296875 
Q 25.875 19.53125 28.875 15.40625 
Q 31.890625 11.28125 37.5 11.28125 
z
M 25.875 46.6875 
Q 29.5 51.46875 33.890625 53.734375 
Q 38.28125 56 44 56 
Q 54.109375 56 60.59375 47.96875 
Q 67.09375 39.9375 67.09375 27.296875 
Q 67.09375 14.65625 60.59375 6.609375 
Q 54.109375 -1.421875 44 -1.421875 
Q 38.28125 -1.421875 33.890625 0.84375 
Q 29.5 3.125 25.875 7.90625 
L 25.875 0 
L 8.40625 0 
L 8.40625 75.984375 
L 25.875 75.984375 
z
" id="DejaVuSans-Bold-98"/>
     </defs>
     <use xlink:href="#DejaVuSans-Bold-67"/>
     <use x="73.388672" xlink:href="#DejaVuSans-Bold-117"/>
     <use x="144.580078" xlink:href="#DejaVuSans-Bold-98"/>
     <use x="216.162109" xlink:href="#DejaVuSans-Bold-97"/>
    </g>
   </g>
   <g id="patch_9">
    <path d="M 177.413063 214.59524 
Q 177.413063 197.436799 177.413063 181.396392 
" style="fill:none;stroke:#000000;stroke-linecap:round;"/>
    <path d="M 175.413063 185.396392 
L 177.413063 181.396392 
L 179.413063 185.396392 
" style="fill:none;stroke:#000000;stroke-linecap:round;"/>
   </g>
   <g id="text_27">
    <!--   -->
    <g transform="translate(175.824 226.188685)scale(0.1 -0.1)">
     <use xlink:href="#DejaVuSans-32"/>
    </g>
   </g>
   <g id="text_28">
    <!-- Algeria -->
    <g transform="translate(186.667138 226.693685)scale(0.12 -0.12)">
     <defs>
      <path d="M 49.03125 39.796875 
Q 46.734375 40.875 44.453125 41.375 
Q 42.1875 41.890625 39.890625 41.890625 
Q 33.15625 41.890625 29.515625 37.5625 
Q 25.875 33.25 25.875 25.203125 
L 25.875 0 
L 8.40625 0 
L 8.40625 54.6875 
L 25.875 54.6875 
L 25.875 45.703125 
Q 29.25 51.078125 33.609375 53.53125 
Q 37.984375 56 44.09375 56 
Q 44.96875 56 45.984375 55.921875 
Q 47.015625 55.859375 48.96875 55.609375 
z
" id="DejaVuSans-Bold-114"/>
      <path d="M 8.40625 54.6875 
L 25.875 54.6875 
L 25.875 0 
L 8.40625 0 
z
M 8.40625 75.984375 
L 25.875 75.984375 
L 25.875 61.71875 
L 8.40625 61.71875 
z
" id="DejaVuSans-Bold-105"/>
     </defs>
     <use xlink:href="#DejaVuSans-Bold-65"/>
     <use x="77.392578" xlink:href="#DejaVuSans-Bold-108"/>
     <use x="111.669922" xlink:href="#DejaVuSans-Bold-103"/>
     <use x="183.251953" xlink:href="#DejaVuSans-Bold-101"/>
     <use x="251.074219" xlink:href="#DejaVuSans-Bold-114"/>
     <use x="300.390625" xlink:href="#DejaVuSans-Bold-105"/>
     <use x="334.667969" xlink:href="#DejaVuSans-Bold-97"/>
    </g>
   </g>
   <g id="patch_10">
    <path d="M 227.477612 207.888087 
Q 227.477612 201.846794 227.477612 196.923535 
" style="fill:none;stroke:#000000;stroke-linecap:round;"/>
    <path d="M 225.477612 200.923535 
L 227.477612 196.923535 
L 229.477612 200.923535 
" style="fill:none;stroke:#000000;stroke-linecap:round;"/>
   </g>
   <g id="text_29">
    <!--   -->
    <g transform="translate(225.88855 219.485468)scale(0.1 -0.1)">
     <use xlink:href="#DejaVuSans-32"/>
    </g>
   </g>
   <g id="text_30">
    <!-- Fiji -->
    <g transform="translate(236.731688 219.990468)scale(0.12 -0.12)">
     <defs>
      <path d="M 9.1875 72.90625 
L 59.90625 72.90625 
L 59.90625 58.6875 
L 27.984375 58.6875 
L 27.984375 45.125 
L 58.015625 45.125 
L 58.015625 30.90625 
L 27.984375 30.90625 
L 27.984375 0 
L 9.1875 0 
z
" id="DejaVuSans-Bold-70"/>
      <path d="M 8.40625 54.6875 
L 25.875 54.6875 
L 25.875 0.984375 
Q 25.875 -10.015625 20.59375 -15.796875 
Q 15.328125 -21.578125 5.328125 -21.578125 
L -3.328125 -21.578125 
L -3.328125 -10.109375 
L -0.296875 -10.109375 
Q 4.6875 -10.109375 6.546875 -7.859375 
Q 8.40625 -5.609375 8.40625 0.984375 
z
M 8.40625 75.984375 
L 25.875 75.984375 
L 25.875 61.71875 
L 8.40625 61.71875 
z
" id="DejaVuSans-Bold-106"/>
     </defs>
     <use xlink:href="#DejaVuSans-Bold-70"/>
     <use x="68.310547" xlink:href="#DejaVuSans-Bold-105"/>
     <use x="102.587891" xlink:href="#DejaVuSans-Bold-106"/>
     <use x="136.865234" xlink:href="#DejaVuSans-Bold-105"/>
    </g>
   </g>
   <g id="patch_11">
    <path d="M 185.093945 157.620786 
Q 185.093945 168.141277 185.093945 177.543735 
" style="fill:none;stroke:#000000;stroke-linecap:round;"/>
    <path d="M 187.093945 173.543735 
L 185.093945 177.543735 
L 183.093945 173.543735 
" style="fill:none;stroke:#000000;stroke-linecap:round;"/>
   </g>
   <g id="text_31">
    <!--   -->
    <g transform="translate(183.504883 151.540101)scale(0.1 -0.1)">
     <use xlink:href="#DejaVuSans-32"/>
    </g>
   </g>
   <g id="text_32">
    <!-- Israel -->
    <g transform="translate(194.348021 152.091976)scale(0.12 -0.12)">
     <defs>
      <path d="M 9.1875 72.90625 
L 27.984375 72.90625 
L 27.984375 0 
L 9.1875 0 
z
" id="DejaVuSans-Bold-73"/>
      <path d="M 51.125 52.984375 
L 51.125 39.703125 
Q 45.515625 42.046875 40.28125 43.21875 
Q 35.0625 44.390625 30.421875 44.390625 
Q 25.4375 44.390625 23.015625 43.140625 
Q 20.609375 41.890625 20.609375 39.3125 
Q 20.609375 37.203125 22.4375 36.078125 
Q 24.265625 34.96875 29 34.421875 
L 32.078125 33.984375 
Q 45.515625 32.28125 50.140625 28.375 
Q 54.78125 24.46875 54.78125 16.109375 
Q 54.78125 7.375 48.328125 2.96875 
Q 41.890625 -1.421875 29.109375 -1.421875 
Q 23.6875 -1.421875 17.890625 -0.5625 
Q 12.109375 0.296875 6 2 
L 6 15.28125 
Q 11.234375 12.75 16.71875 11.46875 
Q 22.21875 10.203125 27.875 10.203125 
Q 33.015625 10.203125 35.59375 11.609375 
Q 38.1875 13.03125 38.1875 15.828125 
Q 38.1875 18.171875 36.40625 19.3125 
Q 34.625 20.453125 29.296875 21.09375 
L 26.21875 21.484375 
Q 14.546875 22.953125 9.859375 26.90625 
Q 5.171875 30.859375 5.171875 38.921875 
Q 5.171875 47.609375 11.125 51.796875 
Q 17.09375 56 29.390625 56 
Q 34.234375 56 39.546875 55.265625 
Q 44.875 54.546875 51.125 52.984375 
z
" id="DejaVuSans-Bold-115"/>
     </defs>
     <use xlink:href="#DejaVuSans-Bold-73"/>
     <use x="37.207031" xlink:href="#DejaVuSans-Bold-115"/>
     <use x="96.728516" xlink:href="#DejaVuSans-Bold-114"/>
     <use x="146.044922" xlink:href="#DejaVuSans-Bold-97"/>
     <use x="213.525391" xlink:href="#DejaVuSans-Bold-101"/>
     <use x="281.347656" xlink:href="#DejaVuSans-Bold-108"/>
    </g>
   </g>
   <g id="patch_12">
    <path d="M 131.142684 137.562775 
Q 131.142684 149.745414 131.142684 160.81002 
" style="fill:none;stroke:#000000;stroke-linecap:round;"/>
    <path d="M 133.142684 156.81002 
L 131.142684 160.81002 
L 129.142684 156.81002 
" style="fill:none;stroke:#000000;stroke-linecap:round;"/>
   </g>
   <g id="text_33">
    <!--   -->
    <g transform="translate(129.553621 131.488737)scale(0.1 -0.1)">
     <use xlink:href="#DejaVuSans-32"/>
    </g>
   </g>
   <g id="text_34">
    <!-- Australia -->
    <g transform="translate(140.39676 132.040612)scale(0.12 -0.12)">
     <use xlink:href="#DejaVuSans-Bold-65"/>
     <use x="77.392578" xlink:href="#DejaVuSans-Bold-117"/>
     <use x="148.583984" xlink:href="#DejaVuSans-Bold-115"/>
     <use x="208.105469" xlink:href="#DejaVuSans-Bold-116"/>
     <use x="255.908203" xlink:href="#DejaVuSans-Bold-114"/>
     <use x="305.224609" xlink:href="#DejaVuSans-Bold-97"/>
     <use x="372.705078" xlink:href="#DejaVuSans-Bold-108"/>
     <use x="406.982422" xlink:href="#DejaVuSans-Bold-105"/>
     <use x="441.259766" xlink:href="#DejaVuSans-Bold-97"/>
    </g>
   </g>
   <g id="patch_13">
    <path d="M 124.294668 82.021504 
Q 124.294668 120.911292 124.294668 158.683045 
" style="fill:none;stroke:#000000;stroke-linecap:round;"/>
    <path d="M 126.294668 154.683045 
L 124.294668 158.683045 
L 122.294668 154.683045 
" style="fill:none;stroke:#000000;stroke-linecap:round;"/>
   </g>
   <g id="text_35">
    <!--   -->
    <g transform="translate(122.705605 75.939465)scale(0.1 -0.1)">
     <use xlink:href="#DejaVuSans-32"/>
    </g>
   </g>
   <g id="text_36">
    <!-- Bermuda -->
    <g transform="translate(133.548744 76.49134)scale(0.12 -0.12)">
     <defs>
      <path d="M 38.375 44.671875 
Q 42.828125 44.671875 45.109375 46.625 
Q 47.40625 48.578125 47.40625 52.390625 
Q 47.40625 56.15625 45.109375 58.125 
Q 42.828125 60.109375 38.375 60.109375 
L 27.984375 60.109375 
L 27.984375 44.671875 
z
M 39.015625 12.796875 
Q 44.671875 12.796875 47.53125 15.1875 
Q 50.390625 17.578125 50.390625 22.40625 
Q 50.390625 27.15625 47.5625 29.515625 
Q 44.734375 31.890625 39.015625 31.890625 
L 27.984375 31.890625 
L 27.984375 12.796875 
z
M 56.5 39.015625 
Q 62.546875 37.25 65.859375 32.515625 
Q 69.1875 27.78125 69.1875 20.90625 
Q 69.1875 10.359375 62.0625 5.171875 
Q 54.9375 0 40.375 0 
L 9.1875 0 
L 9.1875 72.90625 
L 37.40625 72.90625 
Q 52.59375 72.90625 59.40625 68.3125 
Q 66.21875 63.71875 66.21875 53.609375 
Q 66.21875 48.296875 63.71875 44.5625 
Q 61.234375 40.828125 56.5 39.015625 
z
" id="DejaVuSans-Bold-66"/>
      <path d="M 59.078125 45.609375 
Q 62.40625 50.6875 66.96875 53.34375 
Q 71.53125 56 77 56 
Q 86.421875 56 91.359375 50.1875 
Q 96.296875 44.390625 96.296875 33.296875 
L 96.296875 0 
L 78.71875 0 
L 78.71875 28.515625 
Q 78.765625 29.15625 78.78125 29.828125 
Q 78.8125 30.515625 78.8125 31.78125 
Q 78.8125 37.59375 77.09375 40.203125 
Q 75.390625 42.828125 71.578125 42.828125 
Q 66.609375 42.828125 63.890625 38.71875 
Q 61.1875 34.625 61.078125 26.859375 
L 61.078125 0 
L 43.5 0 
L 43.5 28.515625 
Q 43.5 37.59375 41.9375 40.203125 
Q 40.375 42.828125 36.375 42.828125 
Q 31.34375 42.828125 28.609375 38.703125 
Q 25.875 34.578125 25.875 26.90625 
L 25.875 0 
L 8.296875 0 
L 8.296875 54.6875 
L 25.875 54.6875 
L 25.875 46.6875 
Q 29.109375 51.3125 33.28125 53.65625 
Q 37.453125 56 42.484375 56 
Q 48.140625 56 52.484375 53.265625 
Q 56.84375 50.53125 59.078125 45.609375 
z
" id="DejaVuSans-Bold-109"/>
      <path d="M 45.609375 46.6875 
L 45.609375 75.984375 
L 63.1875 75.984375 
L 63.1875 0 
L 45.609375 0 
L 45.609375 7.90625 
Q 42 3.078125 37.640625 0.828125 
Q 33.296875 -1.421875 27.59375 -1.421875 
Q 17.484375 -1.421875 10.984375 6.609375 
Q 4.5 14.65625 4.5 27.296875 
Q 4.5 39.9375 10.984375 47.96875 
Q 17.484375 56 27.59375 56 
Q 33.25 56 37.625 53.734375 
Q 42 51.46875 45.609375 46.6875 
z
M 34.078125 11.28125 
Q 39.703125 11.28125 42.65625 15.375 
Q 45.609375 19.484375 45.609375 27.296875 
Q 45.609375 35.109375 42.65625 39.203125 
Q 39.703125 43.3125 34.078125 43.3125 
Q 28.515625 43.3125 25.5625 39.203125 
Q 22.609375 35.109375 22.609375 27.296875 
Q 22.609375 19.484375 25.5625 15.375 
Q 28.515625 11.28125 34.078125 11.28125 
z
" id="DejaVuSans-Bold-100"/>
     </defs>
     <use xlink:href="#DejaVuSans-Bold-66"/>
     <use x="76.220703" xlink:href="#DejaVuSans-Bold-101"/>
     <use x="144.042969" xlink:href="#DejaVuSans-Bold-114"/>
     <use x="193.359375" xlink:href="#DejaVuSans-Bold-109"/>
     <use x="297.558594" xlink:href="#DejaVuSans-Bold-117"/>
     <use x="368.75" xlink:href="#DejaVuSans-Bold-100"/>
     <use x="440.332031" xlink:href="#DejaVuSans-Bold-97"/>
    </g>
   </g>
   <g id="text_37">
    <!-- Number of Phones vs Birth Rate -->
    <g transform="translate(142.507691 19.52534)scale(0.16 -0.16)">
     <defs>
      <path id="DejaVuSans-Bold-32"/>
      <path d="M 44.390625 75.984375 
L 44.390625 64.5 
L 34.71875 64.5 
Q 31 64.5 29.53125 63.15625 
Q 28.078125 61.8125 28.078125 58.5 
L 28.078125 54.6875 
L 43.015625 54.6875 
L 43.015625 42.1875 
L 28.078125 42.1875 
L 28.078125 0 
L 10.59375 0 
L 10.59375 42.1875 
L 1.90625 42.1875 
L 1.90625 54.6875 
L 10.59375 54.6875 
L 10.59375 58.5 
Q 10.59375 67.4375 15.578125 71.703125 
Q 20.5625 75.984375 31 75.984375 
z
" id="DejaVuSans-Bold-102"/>
      <path d="M 9.1875 72.90625 
L 40.375 72.90625 
Q 54.296875 72.90625 61.734375 66.71875 
Q 69.1875 60.546875 69.1875 49.125 
Q 69.1875 37.640625 61.734375 31.46875 
Q 54.296875 25.296875 40.375 25.296875 
L 27.984375 25.296875 
L 27.984375 0 
L 9.1875 0 
z
M 27.984375 59.28125 
L 27.984375 38.921875 
L 38.375 38.921875 
Q 43.84375 38.921875 46.828125 41.578125 
Q 49.8125 44.234375 49.8125 49.125 
Q 49.8125 54 46.828125 56.640625 
Q 43.84375 59.28125 38.375 59.28125 
z
" id="DejaVuSans-Bold-80"/>
      <path d="M 63.375 33.296875 
L 63.375 0 
L 45.796875 0 
L 45.796875 5.421875 
L 45.796875 25.390625 
Q 45.796875 32.5625 45.484375 35.25 
Q 45.171875 37.9375 44.390625 39.203125 
Q 43.359375 40.921875 41.59375 41.875 
Q 39.84375 42.828125 37.59375 42.828125 
Q 32.125 42.828125 29 38.59375 
Q 25.875 34.375 25.875 26.90625 
L 25.875 0 
L 8.40625 0 
L 8.40625 75.984375 
L 25.875 75.984375 
L 25.875 46.6875 
Q 29.828125 51.46875 34.265625 53.734375 
Q 38.71875 56 44.09375 56 
Q 53.5625 56 58.46875 50.1875 
Q 63.375 44.390625 63.375 33.296875 
z
" id="DejaVuSans-Bold-104"/>
      <path d="M 1.515625 54.6875 
L 19 54.6875 
L 32.625 16.890625 
L 46.1875 54.6875 
L 63.71875 54.6875 
L 42.1875 0 
L 23 0 
z
" id="DejaVuSans-Bold-118"/>
      <path d="M 35.890625 40.578125 
Q 41.796875 40.578125 44.359375 42.765625 
Q 46.921875 44.96875 46.921875 50 
Q 46.921875 54.984375 44.359375 57.125 
Q 41.796875 59.28125 35.890625 59.28125 
L 27.984375 59.28125 
L 27.984375 40.578125 
z
M 27.984375 27.59375 
L 27.984375 0 
L 9.1875 0 
L 9.1875 72.90625 
L 37.890625 72.90625 
Q 52.296875 72.90625 59 68.0625 
Q 65.71875 63.234375 65.71875 52.78125 
Q 65.71875 45.5625 62.21875 40.921875 
Q 58.734375 36.28125 51.703125 34.078125 
Q 55.5625 33.203125 58.609375 30.09375 
Q 61.671875 27 64.796875 20.703125 
L 75 0 
L 54.984375 0 
L 46.09375 18.109375 
Q 43.40625 23.578125 40.640625 25.578125 
Q 37.890625 27.59375 33.296875 27.59375 
z
" id="DejaVuSans-Bold-82"/>
     </defs>
     <use xlink:href="#DejaVuSans-Bold-78"/>
     <use x="83.691406" xlink:href="#DejaVuSans-Bold-117"/>
     <use x="154.882812" xlink:href="#DejaVuSans-Bold-109"/>
     <use x="259.082031" xlink:href="#DejaVuSans-Bold-98"/>
     <use x="330.664062" xlink:href="#DejaVuSans-Bold-101"/>
     <use x="398.486328" xlink:href="#DejaVuSans-Bold-114"/>
     <use x="447.802734" xlink:href="#DejaVuSans-Bold-32"/>
     <use x="482.617188" xlink:href="#DejaVuSans-Bold-111"/>
     <use x="551.318359" xlink:href="#DejaVuSans-Bold-102"/>
     <use x="594.824219" xlink:href="#DejaVuSans-Bold-32"/>
     <use x="629.638672" xlink:href="#DejaVuSans-Bold-80"/>
     <use x="702.929688" xlink:href="#DejaVuSans-Bold-104"/>
     <use x="774.121094" xlink:href="#DejaVuSans-Bold-111"/>
     <use x="842.822266" xlink:href="#DejaVuSans-Bold-110"/>
     <use x="914.013672" xlink:href="#DejaVuSans-Bold-101"/>
     <use x="981.835938" xlink:href="#DejaVuSans-Bold-115"/>
     <use x="1041.357422" xlink:href="#DejaVuSans-Bold-32"/>
     <use x="1076.171875" xlink:href="#DejaVuSans-Bold-118"/>
     <use x="1141.357422" xlink:href="#DejaVuSans-Bold-115"/>
     <use x="1200.878906" xlink:href="#DejaVuSans-Bold-32"/>
     <use x="1235.693359" xlink:href="#DejaVuSans-Bold-66"/>
     <use x="1311.914062" xlink:href="#DejaVuSans-Bold-105"/>
     <use x="1346.191406" xlink:href="#DejaVuSans-Bold-114"/>
     <use x="1395.507812" xlink:href="#DejaVuSans-Bold-116"/>
     <use x="1443.310547" xlink:href="#DejaVuSans-Bold-104"/>
     <use x="1514.501953" xlink:href="#DejaVuSans-Bold-32"/>
     <use x="1549.316406" xlink:href="#DejaVuSans-Bold-82"/>
     <use x="1626.318359" xlink:href="#DejaVuSans-Bold-97"/>
     <use x="1693.798828" xlink:href="#DejaVuSans-Bold-116"/>
     <use x="1741.601562" xlink:href="#DejaVuSans-Bold-101"/>
    </g>
   </g>
  </g>
 </g>
 <defs>
  <clipPath id="p4e04036022">
   <rect height="261.038737" width="401.997049" x="86.260417" y="25.52534"/>
  </clipPath>
 </defs>
</svg>
