<?xml version="1.0" encoding="UTF-8"?>
<svg width="425px" height="267px" viewBox="0 0 425 267" version="1.1" xmlns="http://www.w3.org/2000/svg" xmlns:xlink="http://www.w3.org/1999/xlink">
    <title>Complement Venn Diagram </title>
    <g id="Complement-Venn-Diagram-" stroke="none" stroke-width="1" fill="none" fill-rule="evenodd">
        <rect fill="#FFFFFF" x="0" y="0" width="425" height="267"></rect>
        <polygon id="Rectangle-Copy-12" fill="#66C4FF" fill-rule="nonzero" points="10 10 415 10 415 257 11.2695925 257"></polygon>
        <path d="M415,10 L415,257 L11.2695925,257 L10,10 L415,10 Z M414.151,10.965235 L10.853,10.965235 L12.112,256.033627 L414.151,256.033627 L414.151,10.965235 Z" id="Rectangle-Copy-11" fill="#10162F" fill-rule="nonzero"></path>
        <circle id="Oval-Copy" fill="#FFFFFF" cx="212.5" cy="148.5" r="84.5"></circle>
        <path d="M212.5,63.5 C165.555796,63.5 127.5,101.555796 127.5,148.5 C127.5,195.444204 165.555796,233.5 212.5,233.5 C259.444204,233.5 297.5,195.444204 297.5,148.5 C297.5,101.555796 259.444204,63.5 212.5,63.5 Z M212.5,64.5 C258.891919,64.5 296.5,102.108081 296.5,148.5 C296.5,194.891919 258.891919,232.5 212.5,232.5 C166.108081,232.5 128.5,194.891919 128.5,148.5 C128.5,102.108081 166.108081,64.5 212.5,64.5 Z" id="Oval" fill="#10162F" fill-rule="nonzero"></path>
        <path d="M206.6858,47 L208.546,42.677 L217.5326,42.677 L219.3928,47 L222.7464,47 L214.3886,28.529 L211.6376,28.529 L203.2798,47 L206.6858,47 Z M216.406,40.057 L209.6464,40.057 L213.0262,32.197 L216.406,40.057 Z" id="A" fill="#10162F" fill-rule="nonzero"></path>
        <path d="M395.8952,43.2358 C397.397333,43.2358 398.702967,43.0131 399.8121,42.5677 C400.921233,42.1223 401.768367,41.4847667 402.3535,40.6551 C402.938633,39.8254333 403.2312,38.8604 403.2312,37.76 C403.2312,36.7469333 402.973567,35.9085333 402.4583,35.2448 C401.943033,34.5810667 401.2007,34.0352333 400.2313,33.6073 C399.2619,33.1793667 397.999933,32.7907333 396.4454,32.4414 C394.9782,32.1095333 393.938933,31.7514667 393.3276,31.3672 C392.716267,30.9829333 392.4106,30.4327333 392.4106,29.7166 C392.4106,28.8607333 392.755567,28.1926333 393.4455,27.7123 C394.135433,27.2319667 395.074267,26.9918 396.262,26.9918 C398.2532,26.9918 400.069733,27.6468 401.7116,28.9568 L401.7116,28.9568 L402.8382,26.494 C402.087133,25.8128 401.126467,25.2757 399.9562,24.8827 C398.785933,24.4897 397.554533,24.2932 396.262,24.2932 C394.8472,24.2932 393.598333,24.5333667 392.5154,25.0137 C391.432467,25.4940333 390.594067,26.1621333 390.0002,27.018 C389.406333,27.8738667 389.1094,28.8432667 389.1094,29.9262 C389.1094,30.9742 389.353933,31.8388 389.843,32.52 C390.332067,33.2012 391.056933,33.7601333 392.0176,34.1968 C392.978267,34.6334667 394.227133,35.0177333 395.7642,35.3496 C397.248867,35.6814667 398.309967,36.0308 398.9475,36.3976 C399.585033,36.7644 399.9038,37.2971333 399.9038,37.9958 C399.9038,38.7992667 399.558833,39.4237 398.8689,39.8691 C398.178967,40.3145 397.196467,40.5372 395.9214,40.5372 C394.7686,40.5372 393.698767,40.38 392.7119,40.0656 C391.725033,39.7512 390.7862,39.2534 389.8954,38.5722 L389.8954,38.5722 L388.7688,41.035 C389.624667,41.7336667 390.672667,42.2751333 391.9128,42.6594 C393.152933,43.0436667 394.4804,43.2358 395.8952,43.2358 Z" id="S" fill="#10162F" fill-rule="nonzero"></path>
    </g>
</svg>