<svg height="285" viewBox="0 0 425 285" width="425" xmlns="http://www.w3.org/2000/svg" xmlns:xlink="http://www.w3.org/1999/xlink"><linearGradient id="a" x1="50%" x2="50%" y1="0%" y2="100%"><stop offset="0" stop-color="#5da9ff"/><stop offset="1" stop-color="#1557ff"/></linearGradient><linearGradient id="b" x1="50%" x2="50%" y1="0%" y2="100%"><stop offset="0" stop-color="#ff796a"/><stop offset="1" stop-color="#e91c11"/></linearGradient><g fill="none" fill-rule="evenodd"><path d="m0 0h425v285h-425z" fill="#fff"/><g transform="translate(39 17)"><g transform="translate(0 80)"><g transform="translate(11 14)"><circle cx="14" cy="20" fill="url(#a)" r="14"/><circle cx="18" cy="51" fill="url(#a)" r="14"/><g fill="url(#b)"><circle cx="52" cy="48" r="14"/><circle cx="47" cy="14" r="14"/><circle cx="76" cy="27" r="14"/></g></g><path d="m66-.5h-20c-25.6812409 0-46.5 20.8187591-46.5 46.5s20.8187591 46.5 46.5 46.5h20c25.6812409 0 46.5-20.8187591 46.5-46.5s-20.8187591-46.5-46.5-46.5zm-20 1h20c25.1289561 0 45.5 20.3710439 45.5 45.5s-20.3710439 45.5-45.5 45.5h-20c-25.1289561 0-45.5-20.3710439-45.5-45.5s20.3710439-45.5 45.5-45.5z" fill="#10162f" fill-rule="nonzero"/></g><g transform="translate(235 23)"><g transform="translate(11 20)"><circle cx="14" cy="14" fill="url(#a)" r="14"/><circle cx="18" cy="45" fill="url(#a)" r="14"/><g fill="url(#b)"><circle cx="52" cy="42" r="14"/><circle cx="76" cy="21" r="14"/></g></g><path d="m66-.5h-20c-25.6812409 0-46.5 20.8187591-46.5 46.5s20.8187591 46.5 46.5 46.5h20c25.6812409 0 46.5-20.8187591 46.5-46.5s-20.8187591-46.5-46.5-46.5zm-20 1h20c25.1289561 0 45.5 20.3710439 45.5 45.5s-20.3710439 45.5-45.5 45.5h-20c-25.1289561 0-45.5-20.3710439-45.5-45.5s20.3710439-45.5 45.5-45.5z" fill="#10162f" fill-rule="nonzero"/></g><g transform="translate(234 159)"><g transform="translate(16 15)"><circle cx="14" cy="51" fill="url(#a)" r="14"/><g fill="url(#b)"><circle cx="48" cy="48" r="14"/><circle cx="72" cy="27" r="14"/><circle cx="43" cy="14" r="14"/></g></g><path d="m67 .5h-20c-25.6812409 0-46.5 20.8187591-46.5 46.5s20.8187591 46.5 46.5 46.5h20c25.6812409 0 46.5-20.8187591 46.5-46.5s-20.8187591-46.5-46.5-46.5zm-20 1h20c25.1289561 0 45.5 20.3710439 45.5 45.5s-20.3710439 45.5-45.5 45.5h-20c-25.1289561 0-45.5-20.3710439-45.5-45.5s20.3710439-45.5 45.5-45.5z" fill="#10162f" fill-rule="nonzero"/></g><circle cx="167" cy="155" fill="url(#a)" r="11"/><circle cx="167" cy="73" fill="url(#b)" r="11"/><g fill-rule="nonzero"><path d="m44.096 69v-1.664h-5.008l2.768-2.944c.6613333-.704 1.1306667-1.3413333 1.408-1.912s.416-1.1813333.416-1.832c0-.9386667-.3306667-1.6853333-.992-2.24s-1.5573333-.832-2.688-.832c-.704 0-1.4053333.12-2.104.36s-1.272.5573333-1.72.952l.688 1.504c1.024-.7786667 2.0426667-1.168 3.056-1.168.5653333 0 .9946667.1306667 1.288.392s.44.648.44 1.16c0 .4053333-.104.8133333-.312 1.224s-.536.8613333-.984 1.352l-3.84 4.128v1.52zm8.336-9.488v-1.968h-2.208v1.968zm-.096 9.488v-7.824h-2v7.824zm4.064 0v-4.432c0-.608.1733333-1.0933333.52-1.456s.808-.544 1.384-.544c.4906667 0 .8506667.1386667 1.08.416s.344.72.344 1.328v4.688h2v-4.8c0-1.0773333-.2293333-1.8826667-.688-2.416s-1.1573333-.8-2.096-.8c-.5653333 0-1.072.1173333-1.52.352s-.8053333.5706667-1.072 1.008v-1.168h-1.952v7.824zm15.456.128c.8426667 0 1.576-.1546667 2.2-.464s1.1066667-.7466667 1.448-1.312.512-1.2213333.512-1.968c0-.704-.1466667-1.328-.44-1.872s-.7093333-.968-1.248-1.272-1.16-.456-1.864-.456c-.8 0-1.472.192-2.016.576v-3.04h5.056v-1.6h-7.072v6.64h1.232c.3093333-.3093333.6586667-.5466667 1.048-.712s.8026667-.248 1.24-.248c.6506667 0 1.1653333.184 1.544.552s.568.8666667.568 1.496c0 .6506667-.1866667 1.152-.56 1.504s-.912.528-1.616.528c-1.0666667 0-2.112-.3893333-3.136-1.168l-.688 1.504c.448.3946667 1.016.712 1.704.952s1.384.36 2.088.36z" fill="#1557ff"/><path d="m279.096 12v-1.664h-5.008l2.768-2.944c.661333-.704 1.130667-1.34133333 1.408-1.912s.416-1.18133333.416-1.832c0-.93866667-.330667-1.68533333-.992-2.24s-1.557333-.832-2.688-.832c-.704 0-1.405333.12-2.104.36s-1.272.55733333-1.72.952l.688 1.504c1.024-.77866667 2.042667-1.168 3.056-1.168.565333 0 .994667.13066667 1.288.392s.44.648.44 1.16c0 .40533333-.104.81333333-.312 1.224s-.536.86133333-.984 1.352l-3.84 4.128v1.52zm8.336-9.488v-1.968h-2.208v1.968zm-.096 9.488v-7.824h-2v7.824zm4.064 0v-4.432c0-.608.173333-1.09333333.52-1.456s.808-.544 1.384-.544c.490667 0 .850667.13866667 1.08.416s.344.72.344 1.328v4.688h2v-4.8c0-1.07733333-.229333-1.88266667-.688-2.416s-1.157333-.8-2.096-.8c-.565333 0-1.072.11733333-1.52.352s-.805333.57066667-1.072 1.008v-1.168h-1.952v7.824zm18.24 0v-2.208h1.584v-1.6h-1.584v-7.472h-1.664l-5.248 7.552v1.52h4.896v2.208zm-2.016-3.808h-2.976l2.976-4.304z" fill="#1557ff"/><path d="m279.136 149v-1.664h-2.448v-9.616h-1.472l-3.344 2.016.816 1.504 1.936-1.168v7.264h-2.448v1.664zm8.288-9.488v-1.968h-2.208v1.968zm-.096 9.488v-7.824h-2v7.824zm4.064 0v-4.432c0-.608.173333-1.093333.52-1.456s.808-.544 1.384-.544c.490667 0 .850667.138667 1.08.416s.344.72.344 1.328v4.688h2v-4.8c0-1.077333-.229333-1.882667-.688-2.416s-1.157333-.8-2.096-.8c-.565333 0-1.072.117333-1.52.352s-.805333.570667-1.072 1.008v-1.168h-1.952v7.824zm18.24 0v-2.208h1.584v-1.6h-1.584v-7.472h-1.664l-5.248 7.552v1.52h4.896v2.208zm-2.016-3.808h-2.976l2.976-4.304z" fill="#1557ff"/><path d="m205.997711 73.3368899 15.502289 2.1631101-11.031861 11.1039649-1.916139-5.6869649-78.732684 26.530648-.947648.319316-.638632-1.895296.947648-.319316 78.732316-26.530352z" fill="#ea1f14"/><path d="m205.997711 160.33689 15.502289 2.16311-11.031861 11.103965-1.916139-5.686965-78.732684 26.530648-.947648.319316-.638632-1.895296.947648-.319316 78.732316-26.530352z" fill="#1759ff" transform="matrix(1 0 0 -1 0 355.103854)"/></g></g></g></svg>