<?xml version="1.0" encoding="UTF-8"?>
<svg width="425px" height="285px" viewBox="0 0 425 285" version="1.1" xmlns="http://www.w3.org/2000/svg" xmlns:xlink="http://www.w3.org/1999/xlink">
    <title>Marble diagram 2</title>
    <defs>
        <linearGradient x1="50%" y1="0%" x2="50%" y2="100%" id="linearGradient-1">
            <stop stop-color="#5DA9FF" offset="0%"></stop>
            <stop stop-color="#1557FF" offset="100%"></stop>
        </linearGradient>
        <linearGradient x1="50%" y1="0%" x2="50%" y2="100%" id="linearGradient-2">
            <stop stop-color="#FF796A" offset="0%"></stop>
            <stop stop-color="#E91C11" offset="100%"></stop>
        </linearGradient>
    </defs>
    <g id="Marble-diagram-2" stroke="none" stroke-width="1" fill="none" fill-rule="evenodd">
        <rect fill="#FFFFFF" x="0" y="0" width="425" height="285"></rect>
        <g id="Group" transform="translate(39.000000, 97.000000)">
            <circle id="Oval" fill="url(#linearGradient-1)" cx="25" cy="34" r="14"></circle>
            <circle id="Oval-Copy-2" fill="url(#linearGradient-1)" cx="29" cy="65" r="14"></circle>
            <circle id="Oval-Copy-3" fill="url(#linearGradient-2)" cx="63" cy="62" r="14"></circle>
            <circle id="Oval-Copy-4" fill="url(#linearGradient-2)" cx="58" cy="28" r="14"></circle>
            <circle id="Oval-Copy-5" fill="url(#linearGradient-2)" cx="87" cy="41" r="14"></circle>
            <path d="M66,-0.5 L46,-0.5 C20.3187591,-0.5 -0.5,20.3187591 -0.5,46 C-0.5,71.6812409 20.3187591,92.5 46,92.5 L66,92.5 C91.6812409,92.5 112.5,71.6812409 112.5,46 C112.5,20.3187591 91.6812409,-0.5 66,-0.5 Z M46,0.5 L66,0.5 C91.1289561,0.5 111.5,20.8710439 111.5,46 C111.5,71.1289561 91.1289561,91.5 66,91.5 L46,91.5 C20.8710439,91.5 0.5,71.1289561 0.5,46 C0.5,20.8710439 20.8710439,0.5 46,0.5 Z" id="Rectangle" fill="#10162F" fill-rule="nonzero"></path>
        </g>
        <circle id="Oval-Copy-13" fill="url(#linearGradient-1)" cx="206" cy="172" r="11"></circle>
        <circle id="Oval-Copy-8" fill="url(#linearGradient-2)" cx="206" cy="90" r="11"></circle>
        <path d="M83.096,86 L83.096,84.336 L78.088,84.336 L80.856,81.392 C81.5173333,80.688 81.9866667,80.0506667 82.264,79.48 C82.5413333,78.9093333 82.68,78.2986667 82.68,77.648 C82.68,76.7093333 82.3493333,75.9626667 81.688,75.408 C81.0266667,74.8533333 80.1306667,74.576 79,74.576 C78.296,74.576 77.5946667,74.696 76.896,74.936 C76.1973333,75.176 75.624,75.4933333 75.176,75.888 L75.176,75.888 L75.864,77.392 C76.888,76.6133333 77.9066667,76.224 78.92,76.224 C79.4853333,76.224 79.9146667,76.3546667 80.208,76.616 C80.5013333,76.8773333 80.648,77.264 80.648,77.776 C80.648,78.1813333 80.544,78.5893333 80.336,79 C80.128,79.4106667 79.8,79.8613333 79.352,80.352 L79.352,80.352 L75.512,84.48 L75.512,86 L83.096,86 Z M91.432,76.512 L91.432,74.544 L89.224,74.544 L89.224,76.512 L91.432,76.512 Z M91.336,86 L91.336,78.176 L89.336,78.176 L89.336,86 L91.336,86 Z M95.4,86 L95.4,81.568 C95.4,80.96 95.5733333,80.4746667 95.92,80.112 C96.2666667,79.7493333 96.728,79.568 97.304,79.568 C97.7946667,79.568 98.1546667,79.7066667 98.384,79.984 C98.6133333,80.2613333 98.728,80.704 98.728,81.312 L98.728,81.312 L98.728,86 L100.728,86 L100.728,81.2 C100.728,80.1226667 100.498667,79.3173333 100.04,78.784 C99.5813333,78.2506667 98.8826667,77.984 97.944,77.984 C97.3786667,77.984 96.872,78.1013333 96.424,78.336 C95.976,78.5706667 95.6186667,78.9066667 95.352,79.344 L95.352,79.344 L95.352,78.176 L93.4,78.176 L93.4,86 L95.4,86 Z M110.856,86.128 C111.698667,86.128 112.432,85.9733333 113.056,85.664 C113.68,85.3546667 114.162667,84.9173333 114.504,84.352 C114.845333,83.7866667 115.016,83.1306667 115.016,82.384 C115.016,81.68 114.869333,81.056 114.576,80.512 C114.282667,79.968 113.866667,79.544 113.328,79.24 C112.789333,78.936 112.168,78.784 111.464,78.784 C110.664,78.784 109.992,78.976 109.448,79.36 L109.448,79.36 L109.448,76.32 L114.504,76.32 L114.504,74.72 L107.432,74.72 L107.432,81.36 L108.664,81.36 C108.973333,81.0506667 109.322667,80.8133333 109.712,80.648 C110.101333,80.4826667 110.514667,80.4 110.952,80.4 C111.602667,80.4 112.117333,80.584 112.496,80.952 C112.874667,81.32 113.064,81.8186667 113.064,82.448 C113.064,83.0986667 112.877333,83.6 112.504,83.952 C112.130667,84.304 111.592,84.48 110.888,84.48 C109.821333,84.48 108.776,84.0906667 107.752,83.312 L107.752,83.312 L107.064,84.816 C107.512,85.2106667 108.08,85.528 108.768,85.768 C109.456,86.008 110.152,86.128 110.856,86.128 Z" id="2in5" fill="#1557FF" fill-rule="nonzero"></path>
        <polygon id="Line" fill="#EA1F14" fill-rule="nonzero" points="244.997711 90.3368899 260.5 92.5 249.468139 103.603965 247.552 97.917 168.819316 124.447648 167.871668 124.766964 167.233036 122.871668 168.180684 122.552352 246.913 96.022"></polygon>
        <polygon id="Line-Copy" fill="#1759FF" fill-rule="nonzero" transform="translate(213.866518, 194.551927) scale(1, -1) translate(-213.866518, -194.551927) " points="244.997711 177.33689 260.5 179.5 249.468139 190.603965 247.552 184.917 168.819316 211.447648 167.871668 211.766964 167.233036 209.871668 168.180684 209.552352 246.913 183.022"></polygon>
        <g id="Group-Copy" transform="translate(274.000000, 40.000000)">
            <circle id="Oval" fill="url(#linearGradient-1)" cx="25" cy="34" r="14"></circle>
            <circle id="Oval-Copy-2" fill="url(#linearGradient-1)" cx="29" cy="65" r="14"></circle>
            <circle id="Oval-Copy-3" fill="url(#linearGradient-2)" cx="63" cy="62" r="14"></circle>
            <circle id="Oval-Copy-4" fill="url(#linearGradient-2)" cx="58" cy="28" r="14"></circle>
            <circle id="Oval-Copy-5" fill="url(#linearGradient-2)" cx="87" cy="41" r="14"></circle>
            <path d="M66,-0.5 L46,-0.5 C20.3187591,-0.5 -0.5,20.3187591 -0.5,46 C-0.5,71.6812409 20.3187591,92.5 46,92.5 L66,92.5 C91.6812409,92.5 112.5,71.6812409 112.5,46 C112.5,20.3187591 91.6812409,-0.5 66,-0.5 Z M46,0.5 L66,0.5 C91.1289561,0.5 111.5,20.8710439 111.5,46 C111.5,71.1289561 91.1289561,91.5 66,91.5 L46,91.5 C20.8710439,91.5 0.5,71.1289561 0.5,46 C0.5,20.8710439 20.8710439,0.5 46,0.5 Z" id="Rectangle" fill="#10162F" fill-rule="nonzero"></path>
        </g>
        <path d="M318.096,29 L318.096,27.336 L313.088,27.336 L315.856,24.392 C316.517333,23.688 316.986667,23.0506667 317.264,22.48 C317.541333,21.9093333 317.68,21.2986667 317.68,20.648 C317.68,19.7093333 317.349333,18.9626667 316.688,18.408 C316.026667,17.8533333 315.130667,17.576 314,17.576 C313.296,17.576 312.594667,17.696 311.896,17.936 C311.197333,18.176 310.624,18.4933333 310.176,18.888 L310.176,18.888 L310.864,20.392 C311.888,19.6133333 312.906667,19.224 313.92,19.224 C314.485333,19.224 314.914667,19.3546667 315.208,19.616 C315.501333,19.8773333 315.648,20.264 315.648,20.776 C315.648,21.1813333 315.544,21.5893333 315.336,22 C315.128,22.4106667 314.8,22.8613333 314.352,23.352 L314.352,23.352 L310.512,27.48 L310.512,29 L318.096,29 Z M326.432,19.512 L326.432,17.544 L324.224,17.544 L324.224,19.512 L326.432,19.512 Z M326.336,29 L326.336,21.176 L324.336,21.176 L324.336,29 L326.336,29 Z M330.4,29 L330.4,24.568 C330.4,23.96 330.573333,23.4746667 330.92,23.112 C331.266667,22.7493333 331.728,22.568 332.304,22.568 C332.794667,22.568 333.154667,22.7066667 333.384,22.984 C333.613333,23.2613333 333.728,23.704 333.728,24.312 L333.728,24.312 L333.728,29 L335.728,29 L335.728,24.2 C335.728,23.1226667 335.498667,22.3173333 335.04,21.784 C334.581333,21.2506667 333.882667,20.984 332.944,20.984 C332.378667,20.984 331.872,21.1013333 331.424,21.336 C330.976,21.5706667 330.618667,21.9066667 330.352,22.344 L330.352,22.344 L330.352,21.176 L328.4,21.176 L328.4,29 L330.4,29 Z M345.856,29.128 C346.698667,29.128 347.432,28.9733333 348.056,28.664 C348.68,28.3546667 349.162667,27.9173333 349.504,27.352 C349.845333,26.7866667 350.016,26.1306667 350.016,25.384 C350.016,24.68 349.869333,24.056 349.576,23.512 C349.282667,22.968 348.866667,22.544 348.328,22.24 C347.789333,21.936 347.168,21.784 346.464,21.784 C345.664,21.784 344.992,21.976 344.448,22.36 L344.448,22.36 L344.448,19.32 L349.504,19.32 L349.504,17.72 L342.432,17.72 L342.432,24.36 L343.664,24.36 C343.973333,24.0506667 344.322667,23.8133333 344.712,23.648 C345.101333,23.4826667 345.514667,23.4 345.952,23.4 C346.602667,23.4 347.117333,23.584 347.496,23.952 C347.874667,24.32 348.064,24.8186667 348.064,25.448 C348.064,26.0986667 347.877333,26.6 347.504,26.952 C347.130667,27.304 346.592,27.48 345.888,27.48 C344.821333,27.48 343.776,27.0906667 342.752,26.312 L342.752,26.312 L342.064,27.816 C342.512,28.2106667 343.08,28.528 343.768,28.768 C344.456,29.008 345.152,29.128 345.856,29.128 Z" id="2in5" fill="#1557FF" fill-rule="nonzero"></path>
        <path d="M318.096,166 L318.096,164.336 L313.088,164.336 L315.856,161.392 C316.517333,160.688 316.986667,160.050667 317.264,159.48 C317.541333,158.909333 317.68,158.298667 317.68,157.648 C317.68,156.709333 317.349333,155.962667 316.688,155.408 C316.026667,154.853333 315.130667,154.576 314,154.576 C313.296,154.576 312.594667,154.696 311.896,154.936 C311.197333,155.176 310.624,155.493333 310.176,155.888 L310.176,155.888 L310.864,157.392 C311.888,156.613333 312.906667,156.224 313.92,156.224 C314.485333,156.224 314.914667,156.354667 315.208,156.616 C315.501333,156.877333 315.648,157.264 315.648,157.776 C315.648,158.181333 315.544,158.589333 315.336,159 C315.128,159.410667 314.8,159.861333 314.352,160.352 L314.352,160.352 L310.512,164.48 L310.512,166 L318.096,166 Z M326.432,156.512 L326.432,154.544 L324.224,154.544 L324.224,156.512 L326.432,156.512 Z M326.336,166 L326.336,158.176 L324.336,158.176 L324.336,166 L326.336,166 Z M330.4,166 L330.4,161.568 C330.4,160.96 330.573333,160.474667 330.92,160.112 C331.266667,159.749333 331.728,159.568 332.304,159.568 C332.794667,159.568 333.154667,159.706667 333.384,159.984 C333.613333,160.261333 333.728,160.704 333.728,161.312 L333.728,161.312 L333.728,166 L335.728,166 L335.728,161.2 C335.728,160.122667 335.498667,159.317333 335.04,158.784 C334.581333,158.250667 333.882667,157.984 332.944,157.984 C332.378667,157.984 331.872,158.101333 331.424,158.336 C330.976,158.570667 330.618667,158.906667 330.352,159.344 L330.352,159.344 L330.352,158.176 L328.4,158.176 L328.4,166 L330.4,166 Z M345.856,166.128 C346.698667,166.128 347.432,165.973333 348.056,165.664 C348.68,165.354667 349.162667,164.917333 349.504,164.352 C349.845333,163.786667 350.016,163.130667 350.016,162.384 C350.016,161.68 349.869333,161.056 349.576,160.512 C349.282667,159.968 348.866667,159.544 348.328,159.24 C347.789333,158.936 347.168,158.784 346.464,158.784 C345.664,158.784 344.992,158.976 344.448,159.36 L344.448,159.36 L344.448,156.32 L349.504,156.32 L349.504,154.72 L342.432,154.72 L342.432,161.36 L343.664,161.36 C343.973333,161.050667 344.322667,160.813333 344.712,160.648 C345.101333,160.482667 345.514667,160.4 345.952,160.4 C346.602667,160.4 347.117333,160.584 347.496,160.952 C347.874667,161.32 348.064,161.818667 348.064,162.448 C348.064,163.098667 347.877333,163.6 347.504,163.952 C347.130667,164.304 346.592,164.48 345.888,164.48 C344.821333,164.48 343.776,164.090667 342.752,163.312 L342.752,163.312 L342.064,164.816 C342.512,165.210667 343.08,165.528 343.768,165.768 C344.456,166.008 345.152,166.128 345.856,166.128 Z" id="2in5" fill="#1557FF" fill-rule="nonzero"></path>
        <g id="Group-Copy-2" transform="translate(273.000000, 176.000000)">
            <circle id="Oval" fill="url(#linearGradient-1)" cx="26" cy="35" r="14"></circle>
            <circle id="Oval-Copy-2" fill="url(#linearGradient-1)" cx="30" cy="66" r="14"></circle>
            <circle id="Oval-Copy-3" fill="url(#linearGradient-2)" cx="64" cy="63" r="14"></circle>
            <circle id="Oval-Copy-4" fill="url(#linearGradient-2)" cx="59" cy="29" r="14"></circle>
            <circle id="Oval-Copy-5" fill="url(#linearGradient-2)" cx="88" cy="42" r="14"></circle>
            <path d="M67,0.5 L47,0.5 C21.3187591,0.5 0.5,21.3187591 0.5,47 C0.5,72.6812409 21.3187591,93.5 47,93.5 L67,93.5 C92.6812409,93.5 113.5,72.6812409 113.5,47 C113.5,21.3187591 92.6812409,0.5 67,0.5 Z M47,1.5 L67,1.5 C92.1289561,1.5 112.5,21.8710439 112.5,47 C112.5,72.1289561 92.1289561,92.5 67,92.5 L47,92.5 C21.8710439,92.5 1.5,72.1289561 1.5,47 C1.5,21.8710439 21.8710439,1.5 47,1.5 Z" id="Rectangle" fill="#10162F" fill-rule="nonzero"></path>
        </g>
    </g>
</svg>