<?xml version="1.0" encoding="UTF-8"?>
<svg width="425px" height="267px" viewBox="0 0 425 267" version="1.1" xmlns="http://www.w3.org/2000/svg" xmlns:xlink="http://www.w3.org/1999/xlink">
    <title>Mutually Exclusive Venn Diagram</title>
    <g id="Mutually-Exclusive-Venn-Diagram" stroke="none" stroke-width="1" fill="none" fill-rule="evenodd">
        <rect fill="#FFFFFF" x="0" y="0" width="425" height="267"></rect>
        <path d="M118.5,63.5 C71.5557963,63.5 33.5,101.555796 33.5,148.5 C33.5,195.444204 71.5557963,233.5 118.5,233.5 C165.444204,233.5 203.5,195.444204 203.5,148.5 C203.5,101.555796 165.444204,63.5 118.5,63.5 Z M118.5,64.5 C164.891919,64.5 202.5,102.108081 202.5,148.5 C202.5,194.891919 164.891919,232.5 118.5,232.5 C72.108081,232.5 34.5,194.891919 34.5,148.5 C34.5,102.108081 72.108081,64.5 118.5,64.5 Z" id="Oval" fill="#10162F" fill-rule="nonzero"></path>
        <path d="M307.5,63.5 C260.555796,63.5 222.5,101.555796 222.5,148.5 C222.5,195.444204 260.555796,233.5 307.5,233.5 C354.444204,233.5 392.5,195.444204 392.5,148.5 C392.5,101.555796 354.444204,63.5 307.5,63.5 Z M307.5,64.5 C353.891919,64.5 391.5,102.108081 391.5,148.5 C391.5,194.891919 353.891919,232.5 307.5,232.5 C261.108081,232.5 223.5,194.891919 223.5,148.5 C223.5,102.108081 261.108081,64.5 307.5,64.5 Z" id="Oval-Copy" fill="#10162F" fill-rule="nonzero"></path>
        <path d="M415,10 L415,257 L11.2695925,257 L10,10 L415,10 Z M414.151,10.965235 L10.853,10.965235 L12.112,256.033627 L414.151,256.033627 L414.151,10.965235 Z" id="Rectangle-Copy-11" fill="#10162F" fill-rule="nonzero"></path>
        <path d="M112.6858,47 L114.546,42.677 L123.5326,42.677 L125.3928,47 L128.7464,47 L120.3886,28.529 L117.6376,28.529 L109.2798,47 L112.6858,47 Z M122.406,40.057 L115.6464,40.057 L119.0262,32.197 L122.406,40.057 Z" id="A" fill="#10162F" fill-rule="nonzero"></path>
        <path d="M308.4279,47 C310.401633,47 311.9518,46.5546 313.0784,45.6638 C314.205,44.773 314.7683,43.5416 314.7683,41.9696 C314.7683,40.8342667 314.475733,39.8736 313.8906,39.0876 C313.305467,38.3016 312.480167,37.7601333 311.4147,37.4632 C312.322967,37.1313333 313.034733,36.6073333 313.55,35.8912 C314.065267,35.1750667 314.3229,34.3279333 314.3229,33.3498 C314.3229,31.8302 313.777067,30.6468333 312.6854,29.7997 C311.593733,28.9525667 310.087233,28.529 308.1659,28.529 L308.1659,28.529 L300.0439,28.529 L300.0439,47 L308.4279,47 Z M307.6157,36.3104 L303.3451,36.3104 L303.3451,31.149 L307.6157,31.149 C308.785967,31.149 309.6593,31.3586 310.2357,31.7778 C310.8121,32.197 311.1003,32.8432667 311.1003,33.7166 C311.1003,35.4458 309.938767,36.3104 307.6157,36.3104 L307.6157,36.3104 Z M308.0611,44.38 L303.3451,44.38 L303.3451,38.9304 L308.0611,38.9304 C309.2663,38.9304 310.152733,39.1574667 310.7204,39.6116 C311.288067,40.0657333 311.5719,40.7556667 311.5719,41.6814 C311.5719,42.6071333 311.292433,43.2883333 310.7335,43.725 C310.174567,44.1616667 309.283767,44.38 308.0611,44.38 L308.0611,44.38 Z" id="B" fill="#10162F" fill-rule="nonzero"></path>
        <path d="M395.8952,43.2358 C397.397333,43.2358 398.702967,43.0131 399.8121,42.5677 C400.921233,42.1223 401.768367,41.4847667 402.3535,40.6551 C402.938633,39.8254333 403.2312,38.8604 403.2312,37.76 C403.2312,36.7469333 402.973567,35.9085333 402.4583,35.2448 C401.943033,34.5810667 401.2007,34.0352333 400.2313,33.6073 C399.2619,33.1793667 397.999933,32.7907333 396.4454,32.4414 C394.9782,32.1095333 393.938933,31.7514667 393.3276,31.3672 C392.716267,30.9829333 392.4106,30.4327333 392.4106,29.7166 C392.4106,28.8607333 392.755567,28.1926333 393.4455,27.7123 C394.135433,27.2319667 395.074267,26.9918 396.262,26.9918 C398.2532,26.9918 400.069733,27.6468 401.7116,28.9568 L401.7116,28.9568 L402.8382,26.494 C402.087133,25.8128 401.126467,25.2757 399.9562,24.8827 C398.785933,24.4897 397.554533,24.2932 396.262,24.2932 C394.8472,24.2932 393.598333,24.5333667 392.5154,25.0137 C391.432467,25.4940333 390.594067,26.1621333 390.0002,27.018 C389.406333,27.8738667 389.1094,28.8432667 389.1094,29.9262 C389.1094,30.9742 389.353933,31.8388 389.843,32.52 C390.332067,33.2012 391.056933,33.7601333 392.0176,34.1968 C392.978267,34.6334667 394.227133,35.0177333 395.7642,35.3496 C397.248867,35.6814667 398.309967,36.0308 398.9475,36.3976 C399.585033,36.7644 399.9038,37.2971333 399.9038,37.9958 C399.9038,38.7992667 399.558833,39.4237 398.8689,39.8691 C398.178967,40.3145 397.196467,40.5372 395.9214,40.5372 C394.7686,40.5372 393.698767,40.38 392.7119,40.0656 C391.725033,39.7512 390.7862,39.2534 389.8954,38.5722 L389.8954,38.5722 L388.7688,41.035 C389.624667,41.7336667 390.672667,42.2751333 391.9128,42.6594 C393.152933,43.0436667 394.4804,43.2358 395.8952,43.2358 Z" id="S" fill="#10162F" fill-rule="nonzero"></path>
    </g>
</svg>