<?xml version="1.0" encoding="UTF-8"?>
<svg width="425px" height="267px" viewBox="0 0 425 267" version="1.1" xmlns="http://www.w3.org/2000/svg" xmlns:xlink="http://www.w3.org/1999/xlink">
    <title>Union Venn Diagram</title>
    <g id="Union-Venn-Diagram" stroke="none" stroke-width="1" fill="none" fill-rule="evenodd">
        <rect fill="#FFFFFF" x="0" y="0" width="425" height="267"></rect>
        <path d="M255.5,64 C302.168061,64 340,101.831939 340,148.5 C340,195.168061 302.168061,233 255.5,233 C240.005374,233 225.484805,228.829566 212.999547,221.549951 C200.515972,228.829342 185.995041,233 170.5,233 C123.831939,233 86,195.168061 86,148.5 C86,101.831939 123.831939,64 170.5,64 C185.995041,64 200.515972,68.1706575 213.001456,75.4506333 C225.484805,68.1704342 240.005374,64 255.5,64 Z" id="Combined-Shape" fill="#66C4FF"></path>
        <path d="M170.5,63.5 C123.555796,63.5 85.5,101.555796 85.5,148.5 C85.5,195.444204 123.555796,233.5 170.5,233.5 C217.444204,233.5 255.5,195.444204 255.5,148.5 C255.5,101.555796 217.444204,63.5 170.5,63.5 Z M170.5,64.5 C216.891919,64.5 254.5,102.108081 254.5,148.5 C254.5,194.891919 216.891919,232.5 170.5,232.5 C124.108081,232.5 86.5,194.891919 86.5,148.5 C86.5,102.108081 124.108081,64.5 170.5,64.5 Z" id="Oval" fill="#10162F" fill-rule="nonzero"></path>
        <path d="M255.5,63.5 C208.555796,63.5 170.5,101.555796 170.5,148.5 C170.5,195.444204 208.555796,233.5 255.5,233.5 C302.444204,233.5 340.5,195.444204 340.5,148.5 C340.5,101.555796 302.444204,63.5 255.5,63.5 Z M255.5,64.5 C301.891919,64.5 339.5,102.108081 339.5,148.5 C339.5,194.891919 301.891919,232.5 255.5,232.5 C209.108081,232.5 171.5,194.891919 171.5,148.5 C171.5,102.108081 209.108081,64.5 255.5,64.5 Z" id="Oval-Copy" fill="#10162F" fill-rule="nonzero"></path>
        <path d="M213.253308,75.0186953 L213.000081,74.871045 L211.848698,75.5497263 C186.401128,90.810921 170.5,118.279625 170.5,148.5 C170.5,178.788166 186.474638,206.296927 211.974014,221.523673 L213.001474,222.128143 L213.253308,221.981305 C239.201958,206.85129 255.5,179.093134 255.5,148.5 C255.5,117.906866 239.201958,90.1487102 213.253308,75.0186953 Z M212.359753,76.4092657 L213.001,76.031 L212.749603,75.8825712 C238.393999,90.8351831 254.5,118.266262 254.5,148.5 L254.495175,149.406162 C254.180141,178.979344 238.459979,205.767927 213.516067,220.665117 L213.001,220.968 L213.25328,221.117413 C187.606925,206.165864 171.5,178.734691 171.5,148.5 C171.5,118.634612 187.213726,91.4896382 212.359753,76.4092657 Z" id="Combined-Shape" fill="#10162F" fill-rule="nonzero"></path>
        <path d="M415,10 L415,257 L11.2695925,257 L10,10 L415,10 Z M414.151,10.965235 L10.853,10.965235 L12.112,256.033627 L414.151,256.033627 L414.151,10.965235 Z" id="Rectangle-Copy-11" fill="#10162F" fill-rule="nonzero"></path>
        <path d="M161.6858,47 L163.546,42.677 L172.5326,42.677 L174.3928,47 L177.7464,47 L169.3886,28.529 L166.6376,28.529 L158.2798,47 L161.6858,47 Z M171.406,40.057 L164.6464,40.057 L168.0262,32.197 L171.406,40.057 Z" id="A" fill="#10162F" fill-rule="nonzero"></path>
        <path d="M259.4279,47 C261.401633,47 262.9518,46.5546 264.0784,45.6638 C265.205,44.773 265.7683,43.5416 265.7683,41.9696 C265.7683,40.8342667 265.475733,39.8736 264.8906,39.0876 C264.305467,38.3016 263.480167,37.7601333 262.4147,37.4632 C263.322967,37.1313333 264.034733,36.6073333 264.55,35.8912 C265.065267,35.1750667 265.3229,34.3279333 265.3229,33.3498 C265.3229,31.8302 264.777067,30.6468333 263.6854,29.7997 C262.593733,28.9525667 261.087233,28.529 259.1659,28.529 L259.1659,28.529 L251.0439,28.529 L251.0439,47 L259.4279,47 Z M258.6157,36.3104 L254.3451,36.3104 L254.3451,31.149 L258.6157,31.149 C259.785967,31.149 260.6593,31.3586 261.2357,31.7778 C261.8121,32.197 262.1003,32.8432667 262.1003,33.7166 C262.1003,35.4458 260.938767,36.3104 258.6157,36.3104 L258.6157,36.3104 Z M259.0611,44.38 L254.3451,44.38 L254.3451,38.9304 L259.0611,38.9304 C260.2663,38.9304 261.152733,39.1574667 261.7204,39.6116 C262.288067,40.0657333 262.5719,40.7556667 262.5719,41.6814 C262.5719,42.6071333 262.292433,43.2883333 261.7335,43.725 C261.174567,44.1616667 260.283767,44.38 259.0611,44.38 L259.0611,44.38 Z" id="B" fill="#10162F" fill-rule="nonzero"></path>
        <path d="M395.8952,43.2358 C397.397333,43.2358 398.702967,43.0131 399.8121,42.5677 C400.921233,42.1223 401.768367,41.4847667 402.3535,40.6551 C402.938633,39.8254333 403.2312,38.8604 403.2312,37.76 C403.2312,36.7469333 402.973567,35.9085333 402.4583,35.2448 C401.943033,34.5810667 401.2007,34.0352333 400.2313,33.6073 C399.2619,33.1793667 397.999933,32.7907333 396.4454,32.4414 C394.9782,32.1095333 393.938933,31.7514667 393.3276,31.3672 C392.716267,30.9829333 392.4106,30.4327333 392.4106,29.7166 C392.4106,28.8607333 392.755567,28.1926333 393.4455,27.7123 C394.135433,27.2319667 395.074267,26.9918 396.262,26.9918 C398.2532,26.9918 400.069733,27.6468 401.7116,28.9568 L401.7116,28.9568 L402.8382,26.494 C402.087133,25.8128 401.126467,25.2757 399.9562,24.8827 C398.785933,24.4897 397.554533,24.2932 396.262,24.2932 C394.8472,24.2932 393.598333,24.5333667 392.5154,25.0137 C391.432467,25.4940333 390.594067,26.1621333 390.0002,27.018 C389.406333,27.8738667 389.1094,28.8432667 389.1094,29.9262 C389.1094,30.9742 389.353933,31.8388 389.843,32.52 C390.332067,33.2012 391.056933,33.7601333 392.0176,34.1968 C392.978267,34.6334667 394.227133,35.0177333 395.7642,35.3496 C397.248867,35.6814667 398.309967,36.0308 398.9475,36.3976 C399.585033,36.7644 399.9038,37.2971333 399.9038,37.9958 C399.9038,38.7992667 399.558833,39.4237 398.8689,39.8691 C398.178967,40.3145 397.196467,40.5372 395.9214,40.5372 C394.7686,40.5372 393.698767,40.38 392.7119,40.0656 C391.725033,39.7512 390.7862,39.2534 389.8954,38.5722 L389.8954,38.5722 L388.7688,41.035 C389.624667,41.7336667 390.672667,42.2751333 391.9128,42.6594 C393.152933,43.0436667 394.4804,43.2358 395.8952,43.2358 Z" id="S" fill="#10162F" fill-rule="nonzero"></path>
    </g>
</svg>