<svg height="288pt" stroke-linejoin="round" viewBox="0 0 432 288" width="432pt" xmlns="http://www.w3.org/2000/svg" xmlns:xlink="http://www.w3.org/1999/xlink"><defs stroke-linejoin="round"><clipPath id="a" stroke-linejoin="round"><path d="m54 34.56h334.8v217.44h-334.8z"/></clipPath><path id="b" d="m0 0v3.5" stroke="#000" stroke-linejoin="round" stroke-width=".8"/><path id="c" d="m31.78125 66.40625q-7.609375 0-11.453125-7.5-3.828125-7.484375-3.828125-22.53125 0-14.984375 3.828125-22.484375 3.84375-7.5 11.453125-7.5 7.671875 0 11.5 7.5 3.84375 7.5 3.84375 22.484375 0 15.046875-3.84375 22.53125-3.828125 7.5-11.5 7.5zm0 7.8125q12.265625 0 18.734375-9.703125 6.46875-9.6875 6.46875-28.140625 0-18.40625-6.46875-28.109375-6.46875-9.6875-18.734375-9.6875-12.25 0-18.71875 9.6875-6.46875 9.703125-6.46875 28.109375 0 18.453125 6.46875 28.140625 6.46875 9.703125 18.71875 9.703125z" stroke-linejoin="round"/><path id="d" d="m19.1875 8.296875h34.421875v-8.296875h-46.28125v8.296875q5.609375 5.8125 15.296875 15.59375 9.703125 9.796875 12.1875 12.640625 4.734375 5.3125 6.609375 9 1.890625 3.6875 1.890625 7.25 0 5.8125-4.078125 9.46875-4.078125 3.671875-10.625 3.671875-4.640625 0-9.796875-1.609375-5.140625-1.609375-11-4.890625v9.96875q5.953125 2.390625 11.125 3.609375 5.1875 1.21875 9.484375 1.21875 11.328125 0 18.0625-5.671875 6.734375-5.65625 6.734375-15.125 0-4.5-1.6875-8.53125-1.671875-4.015625-6.125-9.484375-1.21875-1.421875-7.765625-8.1875-6.53125-6.765625-18.453125-18.921875z" stroke-linejoin="round"/><path id="e" d="m12.40625 8.296875h16.109375v55.625l-17.53125-3.515625v8.984375l17.4375 3.515625h9.859375v-64.609375h16.109375v-8.296875h-41.984375z" stroke-linejoin="round"/><path id="f" d="m0 0h-3.5" stroke="#000" stroke-linejoin="round" stroke-width=".8"/><path id="g" d="m10.6875 12.40625h10.3125v-12.40625h-10.3125z" stroke-linejoin="round"/><path id="h" d="m10.796875 72.90625h38.71875v-8.3125h-29.6875v-17.859375q2.140625.734375 4.28125 1.09375 2.15625.359375 4.3125.359375 12.203125 0 19.328125-6.6875 7.140625-6.6875 7.140625-18.109375 0-11.765625-7.328125-18.296875-7.328125-6.515625-20.65625-6.515625-4.59375 0-9.359375.78125-4.75.78125-9.828125 2.34375v9.921875q4.390625-2.390625 9.078125-3.5625 4.6875-1.171875 9.90625-1.171875 8.453125 0 13.375 4.4375 4.9375 4.4375 4.9375 12.0625 0 7.609375-4.9375 12.046875-4.921875 4.453125-13.375 4.453125-3.953125 0-7.890625-.875-3.921875-.875-8.015625-2.734375z" stroke-linejoin="round"/></defs><g stroke-linejoin="round"><path d="m0 288h432v-288h-432z" fill="none"/><g><g stroke-linejoin="round"><path d="m54 252h334.8v-217.44h-334.8z" fill="#fff"/><path clip-path="url(#a)" d="m69.218182 252h22.545454v-.821769h-22.545454z" fill="#1f77b4"/><path clip-path="url(#a)" d="m97.4 252h22.545455v-8.217687h-22.545455z" fill="#1f77b4"/><path clip-path="url(#a)" d="m125.581818 252h22.545455v-36.979592h-22.545455z" fill="#1f77b4"/><path clip-path="url(#a)" d="m153.763636 252h22.545455v-98.612245h-22.545455z" fill="#1f77b4"/><path clip-path="url(#a)" d="m181.945455 252h22.545454v-172.571429h-22.545454z" fill="#1f77b4"/><path clip-path="url(#a)" d="m210.127273 252h22.545454v-207.085714h-22.545454z" fill="#1f77b4"/><path clip-path="url(#a)" d="m238.309091 252h22.545454v-172.571429h-22.545454z" fill="#1f77b4"/><path clip-path="url(#a)" d="m266.490909 252h22.545455v-98.612245h-22.545455z" fill="#1f77b4"/><path clip-path="url(#a)" d="m294.672727 252h22.545455v-36.979592h-22.545455z" fill="#1f77b4"/><path clip-path="url(#a)" d="m322.854545 252h22.545455v-8.217687h-22.545455z" fill="#1f77b4"/><path clip-path="url(#a)" d="m351.036364 252h22.545454v-.821769h-22.545454z" fill="#1f77b4"/><g><g><use stroke="#000" stroke-width=".8" x="80.490909" xlink:href="#b" y="252"/><use transform="matrix(.1 0 0 -.1 77.309659 266.598437)" xlink:href="#c"/></g><g><use stroke="#000" stroke-width=".8" x="136.854545" xlink:href="#b" y="252"/><use transform="matrix(.1 0 0 -.1 133.673295 266.598437)" xlink:href="#d"/></g><g><use stroke="#000" stroke-width=".8" x="193.218182" xlink:href="#b" y="252"/><path d="m37.796875 64.3125-24.90625-38.921875h24.90625zm-2.59375 8.59375h12.40625v-47.515625h10.40625v-8.203125h-10.40625v-17.1875h-9.8125v17.1875h-32.90625v9.515625z" transform="matrix(.1 0 0 -.1 190.036932 266.598437)"/></g><g><use stroke="#000" stroke-width=".8" x="249.581818" xlink:href="#b" y="252"/><path d="m33.015625 40.375q-6.640625 0-10.53125-4.546875-3.875-4.53125-3.875-12.4375 0-7.859375 3.875-12.4375 3.890625-4.5625 10.53125-4.5625 6.640625 0 10.515625 4.5625 3.875 4.578125 3.875 12.4375 0 7.90625-3.875 12.4375-3.875 4.546875-10.515625 4.546875zm19.578125 30.921875v-8.984375q-3.71875 1.75-7.5 2.671875-3.78125.9375-7.5.9375-9.765625 0-14.921875-6.59375-5.140625-6.59375-5.875-19.921875 2.875 4.25 7.21875 6.515625 4.359375 2.265625 9.578125 2.265625 10.984375 0 17.359375-6.671875 6.375-6.65625 6.375-18.125 0-11.234375-6.640625-18.03125-6.640625-6.78125-17.671875-6.78125-12.65625 0-19.34375 9.6875-6.6875 9.703125-6.6875 28.109375 0 17.28125 8.203125 27.5625 8.203125 10.28125 22.015625 10.28125 3.71875 0 7.5-.734375 3.78125-.734375 7.890625-2.1875z" transform="matrix(.1 0 0 -.1 246.400568 266.598437)"/></g><g><use stroke="#000" stroke-width=".8" x="305.945455" xlink:href="#b" y="252"/><path d="m31.78125 34.625q-7.03125 0-11.0625-3.765625-4.015625-3.765625-4.015625-10.34375 0-6.59375 4.015625-10.359375 4.03125-3.765625 11.0625-3.765625 7.03125 0 11.078125 3.78125 4.0625 3.796875 4.0625 10.34375 0 6.578125-4.03125 10.34375-4.015625 3.765625-11.109375 3.765625zm-9.859375 4.1875q-6.34375 1.5625-9.890625 5.90625-3.53125 4.359375-3.53125 10.609375 0 8.734375 6.21875 13.8125 6.234375 5.078125 17.0625 5.078125 10.890625 0 17.09375-5.078125 6.203125-5.078125 6.203125-13.8125 0-6.25-3.546875-10.609375-3.53125-4.34375-9.828125-5.90625 7.125-1.65625 11.09375-6.5 3.984375-4.828125 3.984375-11.796875 0-10.609375-6.46875-16.28125-6.46875-5.65625-18.53125-5.65625-12.046875 0-18.53125 5.65625-6.46875 5.671875-6.46875 16.28125 0 6.96875 4 11.796875 4.015625 4.84375 11.140625 6.5zm-3.609375 15.578125q0-5.65625 3.53125-8.828125 3.546875-3.171875 9.9375-3.171875 6.359375 0 9.9375 3.171875 3.59375 3.171875 3.59375 8.828125 0 5.671875-3.59375 8.84375-3.578125 3.171875-9.9375 3.171875-6.390625 0-9.9375-3.171875-3.53125-3.171875-3.53125-8.84375z" transform="matrix(.1 0 0 -.1 302.764205 266.598437)"/></g><g><use stroke="#000" stroke-width=".8" x="362.309091" xlink:href="#b" y="252"/><g transform="matrix(.1 0 0 -.1 355.946591 266.598437)"><use xlink:href="#e"/><use x="63.623047" xlink:href="#c"/></g></g></g><g><g><use stroke="#000" stroke-width=".8" x="54" xlink:href="#f" y="252"/><g transform="matrix(.1 0 0 -.1 24.734375 255.799219)"><use xlink:href="#c"/><use x="63.623047" xlink:href="#g"/><use x="95.410156" xlink:href="#c"/><use x="159.033203" xlink:href="#c"/></g></g><g><use stroke="#000" stroke-width=".8" x="54" xlink:href="#f" y="209.925442"/><g transform="matrix(.1 0 0 -.1 24.734375 213.724661)"><use xlink:href="#c"/><use x="63.623047" xlink:href="#g"/><use x="95.410156" xlink:href="#c"/><use x="159.033203" xlink:href="#h"/></g></g><g><use stroke="#000" stroke-width=".8" x="54" xlink:href="#f" y="167.850884"/><g transform="matrix(.1 0 0 -.1 24.734375 171.650103)"><use xlink:href="#c"/><use x="63.623047" xlink:href="#g"/><use x="95.410156" xlink:href="#e"/><use x="159.033203" xlink:href="#c"/></g></g><g><use stroke="#000" stroke-width=".8" x="54" xlink:href="#f" y="125.776327"/><g transform="matrix(.1 0 0 -.1 24.734375 129.575545)"><use xlink:href="#c"/><use x="63.623047" xlink:href="#g"/><use x="95.410156" xlink:href="#e"/><use x="159.033203" xlink:href="#h"/></g></g><g><use stroke="#000" stroke-width=".8" x="54" xlink:href="#f" y="83.701769"/><g transform="matrix(.1 0 0 -.1 24.734375 87.500987)"><use xlink:href="#c"/><use x="63.623047" xlink:href="#g"/><use x="95.410156" xlink:href="#d"/><use x="159.033203" xlink:href="#c"/></g></g><g><use stroke="#000" stroke-width=".8" x="54" xlink:href="#f" y="41.627211"/><g transform="matrix(.1 0 0 -.1 24.734375 45.42643)"><use xlink:href="#c"/><use x="63.623047" xlink:href="#g"/><use x="95.410156" xlink:href="#d"/><use x="159.033203" xlink:href="#h"/></g></g></g></g><path d="m54 252v-217.44" fill="none" stroke="#000" stroke-linecap="square" stroke-linejoin="miter" stroke-width=".8"/><path d="m388.8 252v-217.44" fill="none" stroke="#000" stroke-linecap="square" stroke-linejoin="miter" stroke-width=".8"/><path d="m54 252h334.8" fill="none" stroke="#000" stroke-linecap="square" stroke-linejoin="miter" stroke-width=".8"/><path d="m54 34.56h334.8" fill="none" stroke="#000" stroke-linecap="square" stroke-linejoin="miter" stroke-width=".8"/></g></g></svg>