<?xml version="1.0" encoding="UTF-8"?>
<svg width="1214px" height="941px" viewBox="0 0 1214 941" version="1.1" xmlns="http://www.w3.org/2000/svg" xmlns:xlink="http://www.w3.org/1999/xlink">
    <title>Binomial PMF vs CDF Range 4</title>
    <g id="Binomial-PMF-vs-CDF-Range-4" stroke="none" stroke-width="1" fill="none" fill-rule="evenodd">
        <g id="Group-6" transform="translate(477.000000, 673.000000)" fill-rule="nonzero">
            <path d="M134.629,19 L134.629,14.068 L137.851,14.068 C139.207,14.068 140.263,13.726 141.019,13.042 C141.775,12.358 142.153,11.404 142.153,10.18 C142.153,8.956 141.775,8.005 141.019,7.327 C140.263,6.649 139.207,6.31 137.851,6.31 L137.851,6.31 L132.307,6.31 L132.307,19 L134.629,19 Z M137.563,12.286 L134.629,12.286 L134.629,8.11 L137.563,8.11 C138.367,8.11 138.967,8.281 139.363,8.623 C139.759,8.965 139.957,9.49 139.957,10.198 C139.957,11.59 139.159,12.286 137.563,12.286 L137.563,12.286 Z M147.031,22.51 L148.525,21.898 C147.937,20.446 147.526,19.126 147.292,17.938 C147.058,16.75 146.941,15.526 146.941,14.266 C146.941,13.006 147.058,11.782 147.292,10.594 C147.526,9.406 147.937,8.086 148.525,6.634 L148.525,6.634 L147.031,6.022 C146.155,7.51 145.537,8.902 145.177,10.198 C144.817,11.494 144.637,12.85 144.637,14.266 C144.637,15.682 144.817,17.038 145.177,18.334 C145.537,19.63 146.155,21.022 147.031,22.51 L147.031,22.51 Z M151.675,19 L155.131,14.248 L158.569,19 L161.269,19 L156.445,12.556 L161.125,6.31 L158.425,6.31 L155.131,10.864 L151.855,6.31 L149.155,6.31 L153.817,12.538 L148.975,19 L151.675,19 Z M170.899,16.75 L170.899,15.076 L164.401,13.006 L170.899,10.954 L170.899,9.28 L162.115,12.16 L162.115,13.87 L170.899,16.75 Z M170.899,19 L170.899,17.416 L162.115,17.416 L162.115,19 L170.899,19 Z M181.753,19 L181.753,17.128 L176.119,17.128 L179.233,13.816 C179.977,13.024 180.505,12.307 180.817,11.665 C181.129,11.023 181.285,10.336 181.285,9.604 C181.285,8.548 180.913,7.708 180.169,7.084 C179.425,6.46 178.417,6.148 177.145,6.148 C176.353,6.148 175.564,6.283 174.778,6.553 C173.992,6.823 173.347,7.18 172.843,7.624 L172.843,7.624 L173.617,9.316 C174.769,8.44 175.915,8.002 177.055,8.002 C177.691,8.002 178.174,8.149 178.504,8.443 C178.834,8.737 178.999,9.172 178.999,9.748 C178.999,10.204 178.882,10.663 178.648,11.125 C178.414,11.587 178.045,12.094 177.541,12.646 L177.541,12.646 L173.221,17.29 L173.221,19 L181.753,19 Z M184.849,22.51 C185.725,21.022 186.343,19.63 186.703,18.334 C187.063,17.038 187.243,15.682 187.243,14.266 C187.243,12.85 187.063,11.494 186.703,10.198 C186.343,8.902 185.725,7.51 184.849,6.022 L184.849,6.022 L183.355,6.634 C183.943,8.086 184.354,9.406 184.588,10.594 C184.822,11.782 184.939,13.006 184.939,14.266 C184.939,15.526 184.822,16.75 184.588,17.938 C184.354,19.126 183.943,20.446 183.355,21.898 L183.355,21.898 L184.849,22.51 Z" id="P(X≤2)" fill="#F966FF"></path>
            <polygon id="-" fill="#F966FF" points="102.682 15.076 102.682 13.294 97.318 13.294 97.318 15.076"></polygon>
            <path d="M225.392,12.844 L225.392,11.26 L216.608,11.26 L216.608,12.844 L225.392,12.844 Z M225.392,16.444 L225.392,14.86 L216.608,14.86 L216.608,16.444 L225.392,16.444 Z" id="=" fill="#FF8C00"></path>
            <path d="M28.586,19 L28.586,14.068 L31.808,14.068 C33.164,14.068 34.22,13.726 34.976,13.042 C35.732,12.358 36.11,11.404 36.11,10.18 C36.11,8.956 35.732,8.005 34.976,7.327 C34.22,6.649 33.164,6.31 31.808,6.31 L31.808,6.31 L26.264,6.31 L26.264,19 L28.586,19 Z M31.52,12.286 L28.586,12.286 L28.586,8.11 L31.52,8.11 C32.324,8.11 32.924,8.281 33.32,8.623 C33.716,8.965 33.914,9.49 33.914,10.198 C33.914,11.59 33.116,12.286 31.52,12.286 L31.52,12.286 Z M40.988,22.51 L42.482,21.898 C41.894,20.446 41.483,19.126 41.249,17.938 C41.015,16.75 40.898,15.526 40.898,14.266 C40.898,13.006 41.015,11.782 41.249,10.594 C41.483,9.406 41.894,8.086 42.482,6.634 L42.482,6.634 L40.988,6.022 C40.112,7.51 39.494,8.902 39.134,10.198 C38.774,11.494 38.594,12.85 38.594,14.266 C38.594,15.682 38.774,17.038 39.134,18.334 C39.494,19.63 40.112,21.022 40.988,22.51 L40.988,22.51 Z M45.632,19 L49.088,14.248 L52.526,19 L55.226,19 L50.402,12.556 L55.082,6.31 L52.382,6.31 L49.088,10.864 L45.812,6.31 L43.112,6.31 L47.774,12.538 L42.932,19 L45.632,19 Z M64.856,16.75 L64.856,15.076 L58.358,13.006 L64.856,10.954 L64.856,9.28 L56.072,12.16 L56.072,13.87 L64.856,16.75 Z M64.856,19 L64.856,17.416 L56.072,17.416 L56.072,19 L64.856,19 Z M71.678,19.162 C72.494,19.162 73.226,18.982 73.874,18.622 C74.522,18.262 75.026,17.761 75.386,17.119 C75.746,16.477 75.926,15.748 75.926,14.932 C75.926,14.14 75.761,13.435 75.431,12.817 C75.101,12.199 74.642,11.719 74.054,11.377 C73.466,11.035 72.8,10.864 72.056,10.864 C71.372,10.864 70.754,11.017 70.202,11.323 C69.65,11.629 69.236,12.052 68.96,12.592 C68.984,11.104 69.254,9.967 69.77,9.181 C70.286,8.395 71.006,8.002 71.93,8.002 C72.962,8.002 74.036,8.44 75.152,9.316 L75.152,9.316 L75.926,7.624 C75.398,7.156 74.774,6.793 74.054,6.535 C73.334,6.277 72.596,6.148 71.84,6.148 C70.772,6.148 69.848,6.415 69.068,6.949 C68.288,7.483 67.691,8.257 67.277,9.271 C66.863,10.285 66.656,11.488 66.656,12.88 C66.656,14.896 67.091,16.447 67.961,17.533 C68.831,18.619 70.07,19.162 71.678,19.162 Z M71.57,17.326 C70.898,17.326 70.355,17.113 69.941,16.687 C69.527,16.261 69.32,15.7 69.32,15.004 C69.32,14.32 69.527,13.765 69.941,13.339 C70.355,12.913 70.892,12.7 71.552,12.7 C72.212,12.7 72.74,12.91 73.136,13.33 C73.532,13.75 73.73,14.308 73.73,15.004 C73.73,15.712 73.535,16.276 73.145,16.696 C72.755,17.116 72.23,17.326 71.57,17.326 Z M78.788,22.51 C79.664,21.022 80.282,19.63 80.642,18.334 C81.002,17.038 81.182,15.682 81.182,14.266 C81.182,12.85 81.002,11.494 80.642,10.198 C80.282,8.902 79.664,7.51 78.788,6.022 L78.788,6.022 L77.294,6.634 C77.882,8.086 78.293,9.406 78.527,10.594 C78.761,11.782 78.878,13.006 78.878,14.266 C78.878,15.526 78.761,16.75 78.527,17.938 C78.293,19.126 77.882,20.446 77.294,21.898 L77.294,21.898 L78.788,22.51 Z" id="P(X≤6)" fill="#FF8C00"></path>
            <path d="M246.69,19 L246.69,14.068 L249.912,14.068 C251.268,14.068 252.324,13.726 253.08,13.042 C253.836,12.358 254.214,11.404 254.214,10.18 C254.214,8.956 253.836,8.005 253.08,7.327 C252.324,6.649 251.268,6.31 249.912,6.31 L249.912,6.31 L244.368,6.31 L244.368,19 L246.69,19 Z M249.624,12.286 L246.69,12.286 L246.69,8.11 L249.624,8.11 C250.428,8.11 251.028,8.281 251.424,8.623 C251.82,8.965 252.018,9.49 252.018,10.198 C252.018,11.59 251.22,12.286 249.624,12.286 L249.624,12.286 Z M259.092,22.51 L260.586,21.898 C259.998,20.446 259.587,19.126 259.353,17.938 C259.119,16.75 259.002,15.526 259.002,14.266 C259.002,13.006 259.119,11.782 259.353,10.594 C259.587,9.406 259.998,8.086 260.586,6.634 L260.586,6.634 L259.092,6.022 C258.216,7.51 257.598,8.902 257.238,10.198 C256.878,11.494 256.698,12.85 256.698,14.266 C256.698,15.682 256.878,17.038 257.238,18.334 C257.598,19.63 258.216,21.022 259.092,22.51 L259.092,22.51 Z M266.382,19.144 C267.774,19.144 268.875,18.823 269.685,18.181 C270.495,17.539 270.9,16.666 270.9,15.562 C270.9,14.77 270.699,14.107 270.297,13.573 C269.895,13.039 269.322,12.676 268.578,12.484 C269.202,12.256 269.691,11.881 270.045,11.359 C270.399,10.837 270.582,10.222 270.594,9.514 C270.594,8.482 270.222,7.663 269.478,7.057 C268.734,6.451 267.738,6.148 266.49,6.148 C265.674,6.148 264.873,6.28 264.087,6.544 C263.301,6.808 262.656,7.168 262.152,7.624 L262.152,7.624 L262.926,9.316 C263.478,8.884 264.045,8.557 264.627,8.335 C265.209,8.113 265.782,8.002 266.346,8.002 C266.994,8.002 267.495,8.158 267.849,8.47 C268.203,8.782 268.38,9.226 268.38,9.802 C268.38,11.038 267.558,11.656 265.914,11.656 L265.914,11.656 L264.546,11.656 L264.546,13.492 L266.22,13.492 C267.06,13.492 267.681,13.645 268.083,13.951 C268.485,14.257 268.686,14.728 268.686,15.364 C268.686,16.012 268.488,16.495 268.092,16.813 C267.696,17.131 267.096,17.29 266.292,17.29 C265.032,17.29 263.85,16.852 262.746,15.976 L262.746,15.976 L261.972,17.668 C262.488,18.124 263.139,18.484 263.925,18.748 C264.711,19.012 265.53,19.144 266.382,19.144 Z M281.808,16.75 L281.808,15.076 L275.31,13.006 L281.808,10.954 L281.808,9.28 L273.024,12.16 L273.024,13.87 L281.808,16.75 Z M281.808,19 L281.808,17.416 L273.024,17.416 L273.024,19 L281.808,19 Z M285.336,19 L288.792,14.248 L292.23,19 L294.93,19 L290.106,12.556 L294.786,6.31 L292.086,6.31 L288.792,10.864 L285.516,6.31 L282.816,6.31 L287.478,12.538 L282.636,19 L285.336,19 Z M304.56,16.75 L304.56,15.076 L298.062,13.006 L304.56,10.954 L304.56,9.28 L295.776,12.16 L295.776,13.87 L304.56,16.75 Z M304.56,19 L304.56,17.416 L295.776,17.416 L295.776,19 L304.56,19 Z M311.382,19.162 C312.198,19.162 312.93,18.982 313.578,18.622 C314.226,18.262 314.73,17.761 315.09,17.119 C315.45,16.477 315.63,15.748 315.63,14.932 C315.63,14.14 315.465,13.435 315.135,12.817 C314.805,12.199 314.346,11.719 313.758,11.377 C313.17,11.035 312.504,10.864 311.76,10.864 C311.076,10.864 310.458,11.017 309.906,11.323 C309.354,11.629 308.94,12.052 308.664,12.592 C308.688,11.104 308.958,9.967 309.474,9.181 C309.99,8.395 310.71,8.002 311.634,8.002 C312.666,8.002 313.74,8.44 314.856,9.316 L314.856,9.316 L315.63,7.624 C315.102,7.156 314.478,6.793 313.758,6.535 C313.038,6.277 312.3,6.148 311.544,6.148 C310.476,6.148 309.552,6.415 308.772,6.949 C307.992,7.483 307.395,8.257 306.981,9.271 C306.567,10.285 306.36,11.488 306.36,12.88 C306.36,14.896 306.795,16.447 307.665,17.533 C308.535,18.619 309.774,19.162 311.382,19.162 Z M311.274,17.326 C310.602,17.326 310.059,17.113 309.645,16.687 C309.231,16.261 309.024,15.7 309.024,15.004 C309.024,14.32 309.231,13.765 309.645,13.339 C310.059,12.913 310.596,12.7 311.256,12.7 C311.916,12.7 312.444,12.91 312.84,13.33 C313.236,13.75 313.434,14.308 313.434,15.004 C313.434,15.712 313.239,16.276 312.849,16.696 C312.459,17.116 311.934,17.326 311.274,17.326 Z M318.492,22.51 C319.368,21.022 319.986,19.63 320.346,18.334 C320.706,17.038 320.886,15.682 320.886,14.266 C320.886,12.85 320.706,11.494 320.346,10.198 C319.986,8.902 319.368,7.51 318.492,6.022 L318.492,6.022 L316.998,6.634 C317.586,8.086 317.997,9.406 318.231,10.594 C318.465,11.782 318.582,13.006 318.582,14.266 C318.582,15.526 318.465,16.75 318.231,17.938 C317.997,19.126 317.586,20.446 316.998,21.898 L316.998,21.898 L318.492,22.51 Z" id="P(3≤X≤6)" fill="#FF8C00"></path>
            <path d="M126.025,61.162 C126.877,61.162 127.681,61.03 128.437,60.766 C129.193,60.502 129.829,60.13 130.345,59.65 L130.345,59.65 L129.571,57.958 C128.995,58.414 128.425,58.747 127.861,58.957 C127.297,59.167 126.697,59.272 126.061,59.272 C124.837,59.272 123.892,58.876 123.226,58.084 C122.56,57.292 122.227,56.146 122.227,54.646 C122.227,53.158 122.56,52.018 123.226,51.226 C123.892,50.434 124.837,50.038 126.061,50.038 C126.697,50.038 127.297,50.143 127.861,50.353 C128.425,50.563 128.995,50.896 129.571,51.352 L129.571,51.352 L130.345,49.66 C129.829,49.18 129.193,48.808 128.437,48.544 C127.681,48.28 126.877,48.148 126.025,48.148 C124.777,48.148 123.688,48.415 122.758,48.949 C121.828,49.483 121.114,50.239 120.616,51.217 C120.118,52.195 119.869,53.338 119.869,54.646 C119.869,55.954 120.118,57.1 120.616,58.084 C121.114,59.068 121.828,59.827 122.758,60.361 C123.688,60.895 124.777,61.162 126.025,61.162 Z M137.149,61 C139.225,61 140.836,60.442 141.982,59.326 C143.128,58.21 143.701,56.65 143.701,54.646 C143.701,52.642 143.128,51.085 141.982,49.975 C140.836,48.865 139.225,48.31 137.149,48.31 L137.149,48.31 L132.469,48.31 L132.469,61 L137.149,61 Z M137.005,59.11 L134.791,59.11 L134.791,50.2 L137.005,50.2 C139.921,50.2 141.379,51.682 141.379,54.646 C141.379,57.622 139.921,59.11 137.005,59.11 L137.005,59.11 Z M148.327,61 L148.327,55.474 L153.997,55.474 L153.997,53.62 L148.327,53.62 L148.327,50.164 L154.357,50.164 L154.357,48.31 L146.041,48.31 L146.041,61 L148.327,61 Z M159.073,64.51 L160.567,63.898 C159.979,62.446 159.568,61.126 159.334,59.938 C159.1,58.75 158.983,57.526 158.983,56.266 C158.983,55.006 159.1,53.782 159.334,52.594 C159.568,51.406 159.979,50.086 160.567,48.634 L160.567,48.634 L159.073,48.022 C158.197,49.51 157.579,50.902 157.219,52.198 C156.859,53.494 156.679,54.85 156.679,56.266 C156.679,57.682 156.859,59.038 157.219,60.334 C157.579,61.63 158.197,63.022 159.073,64.51 L159.073,64.51 Z M163.717,61 L167.173,56.248 L170.611,61 L173.311,61 L168.487,54.556 L173.167,48.31 L170.467,48.31 L167.173,52.864 L163.897,48.31 L161.197,48.31 L165.859,54.538 L161.017,61 L163.717,61 Z M182.941,54.844 L182.941,53.26 L174.157,53.26 L174.157,54.844 L182.941,54.844 Z M182.941,58.444 L182.941,56.86 L174.157,56.86 L174.157,58.444 L182.941,58.444 Z M193.795,61 L193.795,59.128 L188.161,59.128 L191.275,55.816 C192.019,55.024 192.547,54.307 192.859,53.665 C193.171,53.023 193.327,52.336 193.327,51.604 C193.327,50.548 192.955,49.708 192.211,49.084 C191.467,48.46 190.459,48.148 189.187,48.148 C188.395,48.148 187.606,48.283 186.82,48.553 C186.034,48.823 185.389,49.18 184.885,49.624 L184.885,49.624 L185.659,51.316 C186.811,50.44 187.957,50.002 189.097,50.002 C189.733,50.002 190.216,50.149 190.546,50.443 C190.876,50.737 191.041,51.172 191.041,51.748 C191.041,52.204 190.924,52.663 190.69,53.125 C190.456,53.587 190.087,54.094 189.583,54.646 L189.583,54.646 L185.263,59.29 L185.263,61 L193.795,61 Z M196.891,64.51 C197.767,63.022 198.385,61.63 198.745,60.334 C199.105,59.038 199.285,57.682 199.285,56.266 C199.285,54.85 199.105,53.494 198.745,52.198 C198.385,50.902 197.767,49.51 196.891,48.022 L196.891,48.022 L195.397,48.634 C195.985,50.086 196.396,51.406 196.63,52.594 C196.864,53.782 196.981,55.006 196.981,56.266 C196.981,57.526 196.864,58.75 196.63,59.938 C196.396,61.126 195.985,62.446 195.397,63.898 L195.397,63.898 L196.891,64.51 Z" id="CDF(X=2)" fill="#F966FF"></path>
            <path d="M146.968,104.162 C148.468,104.162 149.614,103.604 150.406,102.488 C151.198,101.372 151.594,99.758 151.594,97.646 C151.594,95.546 151.198,93.944 150.406,92.84 C149.614,91.736 148.468,91.184 146.968,91.184 C145.468,91.184 144.322,91.736 143.53,92.84 C142.738,93.944 142.342,95.546 142.342,97.646 C142.342,99.77 142.738,101.387 143.53,102.497 C144.322,103.607 145.468,104.162 146.968,104.162 Z M146.968,102.344 C146.152,102.344 145.558,101.969 145.186,101.219 C144.814,100.469 144.628,99.278 144.628,97.646 C144.628,96.026 144.814,94.847 145.186,94.109 C145.558,93.371 146.152,93.002 146.968,93.002 C147.784,93.002 148.378,93.371 148.75,94.109 C149.122,94.847 149.308,96.026 149.308,97.646 C149.308,99.278 149.122,100.469 148.75,101.219 C148.378,101.969 147.784,102.344 146.968,102.344 Z M155.86,104 L155.86,101.516 L153.34,101.516 L153.34,104 L155.86,104 Z M162.232,104.162 C163.732,104.162 164.878,103.604 165.67,102.488 C166.462,101.372 166.858,99.758 166.858,97.646 C166.858,95.546 166.462,93.944 165.67,92.84 C164.878,91.736 163.732,91.184 162.232,91.184 C160.732,91.184 159.586,91.736 158.794,92.84 C158.002,93.944 157.606,95.546 157.606,97.646 C157.606,99.77 158.002,101.387 158.794,102.497 C159.586,103.607 160.732,104.162 162.232,104.162 Z M162.232,102.344 C161.416,102.344 160.822,101.969 160.45,101.219 C160.078,100.469 159.892,99.278 159.892,97.646 C159.892,96.026 160.078,94.847 160.45,94.109 C160.822,93.371 161.416,93.002 162.232,93.002 C163.048,93.002 163.642,93.371 164.014,94.109 C164.386,94.847 164.572,96.026 164.572,97.646 C164.572,99.278 164.386,100.469 164.014,101.219 C163.642,101.969 163.048,102.344 162.232,102.344 Z M173.032,104.144 C173.98,104.144 174.805,103.97 175.507,103.622 C176.209,103.274 176.752,102.782 177.136,102.146 C177.52,101.51 177.712,100.772 177.712,99.932 C177.712,99.14 177.547,98.438 177.217,97.826 C176.887,97.214 176.419,96.737 175.813,96.395 C175.207,96.053 174.508,95.882 173.716,95.882 C172.816,95.882 172.06,96.098 171.448,96.53 L171.448,96.53 L171.448,93.11 L177.136,93.11 L177.136,91.31 L169.18,91.31 L169.18,98.78 L170.566,98.78 C170.914,98.432 171.307,98.165 171.745,97.979 C172.183,97.793 172.648,97.7 173.14,97.7 C173.872,97.7 174.451,97.907 174.877,98.321 C175.303,98.735 175.516,99.296 175.516,100.004 C175.516,100.736 175.306,101.3 174.886,101.696 C174.466,102.092 173.86,102.29 173.068,102.29 C171.868,102.29 170.692,101.852 169.54,100.976 L169.54,100.976 L168.766,102.668 C169.27,103.112 169.909,103.469 170.683,103.739 C171.457,104.009 172.24,104.144 173.032,104.144 Z" id="0.05" fill="#F966FF"></path>
            <polygon id="-" fill="#F966FF" points="102.682 57.076 102.682 55.294 97.318 55.294 97.318 57.076"></polygon>
            <polygon id="-" fill="#F966FF" points="102.682 100.076 102.682 98.294 97.318 98.294 97.318 100.076"></polygon>
            <path d="M225.392,54.844 L225.392,53.26 L216.608,53.26 L216.608,54.844 L225.392,54.844 Z M225.392,58.444 L225.392,56.86 L216.608,56.86 L216.608,58.444 L225.392,58.444 Z" id="=" fill="#FF8C00"></path>
            <path d="M225.392,97.844 L225.392,96.26 L216.608,96.26 L216.608,97.844 L225.392,97.844 Z M225.392,101.444 L225.392,99.86 L216.608,99.86 L216.608,101.444 L225.392,101.444 Z" id="=" fill="#FF8C00"></path>
            <path d="M7.94,61.162 C8.792,61.162 9.596,61.03 10.352,60.766 C11.108,60.502 11.744,60.13 12.26,59.65 L12.26,59.65 L11.486,57.958 C10.91,58.414 10.34,58.747 9.776,58.957 C9.212,59.167 8.612,59.272 7.976,59.272 C6.752,59.272 5.807,58.876 5.141,58.084 C4.475,57.292 4.142,56.146 4.142,54.646 C4.142,53.158 4.475,52.018 5.141,51.226 C5.807,50.434 6.752,50.038 7.976,50.038 C8.612,50.038 9.212,50.143 9.776,50.353 C10.34,50.563 10.91,50.896 11.486,51.352 L11.486,51.352 L12.26,49.66 C11.744,49.18 11.108,48.808 10.352,48.544 C9.596,48.28 8.792,48.148 7.94,48.148 C6.692,48.148 5.603,48.415 4.673,48.949 C3.743,49.483 3.029,50.239 2.531,51.217 C2.033,52.195 1.784,53.338 1.784,54.646 C1.784,55.954 2.033,57.1 2.531,58.084 C3.029,59.068 3.743,59.827 4.673,60.361 C5.603,60.895 6.692,61.162 7.94,61.162 Z M19.064,61 C21.14,61 22.751,60.442 23.897,59.326 C25.043,58.21 25.616,56.65 25.616,54.646 C25.616,52.642 25.043,51.085 23.897,49.975 C22.751,48.865 21.14,48.31 19.064,48.31 L19.064,48.31 L14.384,48.31 L14.384,61 L19.064,61 Z M18.92,59.11 L16.706,59.11 L16.706,50.2 L18.92,50.2 C21.836,50.2 23.294,51.682 23.294,54.646 C23.294,57.622 21.836,59.11 18.92,59.11 L18.92,59.11 Z M30.242,61 L30.242,55.474 L35.912,55.474 L35.912,53.62 L30.242,53.62 L30.242,50.164 L36.272,50.164 L36.272,48.31 L27.956,48.31 L27.956,61 L30.242,61 Z M40.988,64.51 L42.482,63.898 C41.894,62.446 41.483,61.126 41.249,59.938 C41.015,58.75 40.898,57.526 40.898,56.266 C40.898,55.006 41.015,53.782 41.249,52.594 C41.483,51.406 41.894,50.086 42.482,48.634 L42.482,48.634 L40.988,48.022 C40.112,49.51 39.494,50.902 39.134,52.198 C38.774,53.494 38.594,54.85 38.594,56.266 C38.594,57.682 38.774,59.038 39.134,60.334 C39.494,61.63 40.112,63.022 40.988,64.51 L40.988,64.51 Z M45.632,61 L49.088,56.248 L52.526,61 L55.226,61 L50.402,54.556 L55.082,48.31 L52.382,48.31 L49.088,52.864 L45.812,48.31 L43.112,48.31 L47.774,54.538 L42.932,61 L45.632,61 Z M64.856,54.844 L64.856,53.26 L56.072,53.26 L56.072,54.844 L64.856,54.844 Z M64.856,58.444 L64.856,56.86 L56.072,56.86 L56.072,58.444 L64.856,58.444 Z M71.678,61.162 C72.494,61.162 73.226,60.982 73.874,60.622 C74.522,60.262 75.026,59.761 75.386,59.119 C75.746,58.477 75.926,57.748 75.926,56.932 C75.926,56.14 75.761,55.435 75.431,54.817 C75.101,54.199 74.642,53.719 74.054,53.377 C73.466,53.035 72.8,52.864 72.056,52.864 C71.372,52.864 70.754,53.017 70.202,53.323 C69.65,53.629 69.236,54.052 68.96,54.592 C68.984,53.104 69.254,51.967 69.77,51.181 C70.286,50.395 71.006,50.002 71.93,50.002 C72.962,50.002 74.036,50.44 75.152,51.316 L75.152,51.316 L75.926,49.624 C75.398,49.156 74.774,48.793 74.054,48.535 C73.334,48.277 72.596,48.148 71.84,48.148 C70.772,48.148 69.848,48.415 69.068,48.949 C68.288,49.483 67.691,50.257 67.277,51.271 C66.863,52.285 66.656,53.488 66.656,54.88 C66.656,56.896 67.091,58.447 67.961,59.533 C68.831,60.619 70.07,61.162 71.678,61.162 Z M71.57,59.326 C70.898,59.326 70.355,59.113 69.941,58.687 C69.527,58.261 69.32,57.7 69.32,57.004 C69.32,56.32 69.527,55.765 69.941,55.339 C70.355,54.913 70.892,54.7 71.552,54.7 C72.212,54.7 72.74,54.91 73.136,55.33 C73.532,55.75 73.73,56.308 73.73,57.004 C73.73,57.712 73.535,58.276 73.145,58.696 C72.755,59.116 72.23,59.326 71.57,59.326 Z M78.788,64.51 C79.664,63.022 80.282,61.63 80.642,60.334 C81.002,59.038 81.182,57.682 81.182,56.266 C81.182,54.85 81.002,53.494 80.642,52.198 C80.282,50.902 79.664,49.51 78.788,48.022 L78.788,48.022 L77.294,48.634 C77.882,50.086 78.293,51.406 78.527,52.594 C78.761,53.782 78.878,55.006 78.878,56.266 C78.878,57.526 78.761,58.75 78.527,59.938 C78.293,61.126 77.882,62.446 77.294,63.898 L77.294,63.898 L78.788,64.51 Z" id="CDF(X=6)" fill="#FF8C00"></path>
            <path d="M51.536,104.162 C53.036,104.162 54.182,103.604 54.974,102.488 C55.766,101.372 56.162,99.758 56.162,97.646 C56.162,95.546 55.766,93.944 54.974,92.84 C54.182,91.736 53.036,91.184 51.536,91.184 C50.036,91.184 48.89,91.736 48.098,92.84 C47.306,93.944 46.91,95.546 46.91,97.646 C46.91,99.77 47.306,101.387 48.098,102.497 C48.89,103.607 50.036,104.162 51.536,104.162 Z M51.536,102.344 C50.72,102.344 50.126,101.969 49.754,101.219 C49.382,100.469 49.196,99.278 49.196,97.646 C49.196,96.026 49.382,94.847 49.754,94.109 C50.126,93.371 50.72,93.002 51.536,93.002 C52.352,93.002 52.946,93.371 53.318,94.109 C53.69,94.847 53.876,96.026 53.876,97.646 C53.876,99.278 53.69,100.469 53.318,101.219 C52.946,101.969 52.352,102.344 51.536,102.344 Z M60.428,104 L60.428,101.516 L57.908,101.516 L57.908,104 L60.428,104 Z M66.8,104.144 C68.288,104.144 69.452,103.829 70.292,103.199 C71.132,102.569 71.552,101.696 71.552,100.58 C71.552,99.8 71.351,99.14 70.949,98.6 C70.547,98.06 69.974,97.688 69.23,97.484 C69.854,97.268 70.346,96.902 70.706,96.386 C71.066,95.87 71.246,95.264 71.246,94.568 C71.246,93.512 70.85,92.678 70.058,92.066 C69.266,91.454 68.18,91.148 66.8,91.148 C65.42,91.148 64.334,91.454 63.542,92.066 C62.75,92.678 62.354,93.512 62.354,94.568 C62.354,95.252 62.534,95.849 62.894,96.359 C63.254,96.869 63.752,97.244 64.388,97.484 C63.644,97.676 63.068,98.045 62.66,98.591 C62.252,99.137 62.048,99.8 62.048,100.58 C62.048,101.696 62.468,102.569 63.308,103.199 C64.148,103.829 65.312,104.144 66.8,104.144 Z M66.8,96.674 C66.056,96.674 65.495,96.515 65.117,96.197 C64.739,95.879 64.55,95.414 64.55,94.802 C64.55,93.578 65.3,92.966 66.8,92.966 C68.3,92.966 69.05,93.578 69.05,94.802 C69.05,95.414 68.861,95.879 68.483,96.197 C68.105,96.515 67.544,96.674 66.8,96.674 Z M66.8,102.326 C65.084,102.326 64.226,101.684 64.226,100.4 C64.226,99.116 65.084,98.474 66.8,98.474 C68.516,98.474 69.374,99.116 69.374,100.4 C69.374,101.684 68.516,102.326 66.8,102.326 Z M77.366,104.144 C78.758,104.144 79.859,103.823 80.669,103.181 C81.479,102.539 81.884,101.666 81.884,100.562 C81.884,99.77 81.683,99.107 81.281,98.573 C80.879,98.039 80.306,97.676 79.562,97.484 C80.186,97.256 80.675,96.881 81.029,96.359 C81.383,95.837 81.566,95.222 81.578,94.514 C81.578,93.482 81.206,92.663 80.462,92.057 C79.718,91.451 78.722,91.148 77.474,91.148 C76.658,91.148 75.857,91.28 75.071,91.544 C74.285,91.808 73.64,92.168 73.136,92.624 L73.136,92.624 L73.91,94.316 C74.462,93.884 75.029,93.557 75.611,93.335 C76.193,93.113 76.766,93.002 77.33,93.002 C77.978,93.002 78.479,93.158 78.833,93.47 C79.187,93.782 79.364,94.226 79.364,94.802 C79.364,96.038 78.542,96.656 76.898,96.656 L76.898,96.656 L75.53,96.656 L75.53,98.492 L77.204,98.492 C78.044,98.492 78.665,98.645 79.067,98.951 C79.469,99.257 79.67,99.728 79.67,100.364 C79.67,101.012 79.472,101.495 79.076,101.813 C78.68,102.131 78.08,102.29 77.276,102.29 C76.016,102.29 74.834,101.852 73.73,100.976 L73.73,100.976 L72.956,102.668 C73.472,103.124 74.123,103.484 74.909,103.748 C75.695,104.012 76.514,104.144 77.366,104.144 Z" id="0.83" fill="#FF8C00"></path>
            <path d="M246.69,61 L246.69,56.068 L249.912,56.068 C251.268,56.068 252.324,55.726 253.08,55.042 C253.836,54.358 254.214,53.404 254.214,52.18 C254.214,50.956 253.836,50.005 253.08,49.327 C252.324,48.649 251.268,48.31 249.912,48.31 L249.912,48.31 L244.368,48.31 L244.368,61 L246.69,61 Z M249.624,54.286 L246.69,54.286 L246.69,50.11 L249.624,50.11 C250.428,50.11 251.028,50.281 251.424,50.623 C251.82,50.965 252.018,51.49 252.018,52.198 C252.018,53.59 251.22,54.286 249.624,54.286 L249.624,54.286 Z M259.092,64.51 L260.586,63.898 C259.998,62.446 259.587,61.126 259.353,59.938 C259.119,58.75 259.002,57.526 259.002,56.266 C259.002,55.006 259.119,53.782 259.353,52.594 C259.587,51.406 259.998,50.086 260.586,48.634 L260.586,48.634 L259.092,48.022 C258.216,49.51 257.598,50.902 257.238,52.198 C256.878,53.494 256.698,54.85 256.698,56.266 C256.698,57.682 256.878,59.038 257.238,60.334 C257.598,61.63 258.216,63.022 259.092,64.51 L259.092,64.51 Z M266.382,61.144 C267.774,61.144 268.875,60.823 269.685,60.181 C270.495,59.539 270.9,58.666 270.9,57.562 C270.9,56.77 270.699,56.107 270.297,55.573 C269.895,55.039 269.322,54.676 268.578,54.484 C269.202,54.256 269.691,53.881 270.045,53.359 C270.399,52.837 270.582,52.222 270.594,51.514 C270.594,50.482 270.222,49.663 269.478,49.057 C268.734,48.451 267.738,48.148 266.49,48.148 C265.674,48.148 264.873,48.28 264.087,48.544 C263.301,48.808 262.656,49.168 262.152,49.624 L262.152,49.624 L262.926,51.316 C263.478,50.884 264.045,50.557 264.627,50.335 C265.209,50.113 265.782,50.002 266.346,50.002 C266.994,50.002 267.495,50.158 267.849,50.47 C268.203,50.782 268.38,51.226 268.38,51.802 C268.38,53.038 267.558,53.656 265.914,53.656 L265.914,53.656 L264.546,53.656 L264.546,55.492 L266.22,55.492 C267.06,55.492 267.681,55.645 268.083,55.951 C268.485,56.257 268.686,56.728 268.686,57.364 C268.686,58.012 268.488,58.495 268.092,58.813 C267.696,59.131 267.096,59.29 266.292,59.29 C265.032,59.29 263.85,58.852 262.746,57.976 L262.746,57.976 L261.972,59.668 C262.488,60.124 263.139,60.484 263.925,60.748 C264.711,61.012 265.53,61.144 266.382,61.144 Z M281.808,58.75 L281.808,57.076 L275.31,55.006 L281.808,52.954 L281.808,51.28 L273.024,54.16 L273.024,55.87 L281.808,58.75 Z M281.808,61 L281.808,59.416 L273.024,59.416 L273.024,61 L281.808,61 Z M285.336,61 L288.792,56.248 L292.23,61 L294.93,61 L290.106,54.556 L294.786,48.31 L292.086,48.31 L288.792,52.864 L285.516,48.31 L282.816,48.31 L287.478,54.538 L282.636,61 L285.336,61 Z M304.56,58.75 L304.56,57.076 L298.062,55.006 L304.56,52.954 L304.56,51.28 L295.776,54.16 L295.776,55.87 L304.56,58.75 Z M304.56,61 L304.56,59.416 L295.776,59.416 L295.776,61 L304.56,61 Z M311.382,61.162 C312.198,61.162 312.93,60.982 313.578,60.622 C314.226,60.262 314.73,59.761 315.09,59.119 C315.45,58.477 315.63,57.748 315.63,56.932 C315.63,56.14 315.465,55.435 315.135,54.817 C314.805,54.199 314.346,53.719 313.758,53.377 C313.17,53.035 312.504,52.864 311.76,52.864 C311.076,52.864 310.458,53.017 309.906,53.323 C309.354,53.629 308.94,54.052 308.664,54.592 C308.688,53.104 308.958,51.967 309.474,51.181 C309.99,50.395 310.71,50.002 311.634,50.002 C312.666,50.002 313.74,50.44 314.856,51.316 L314.856,51.316 L315.63,49.624 C315.102,49.156 314.478,48.793 313.758,48.535 C313.038,48.277 312.3,48.148 311.544,48.148 C310.476,48.148 309.552,48.415 308.772,48.949 C307.992,49.483 307.395,50.257 306.981,51.271 C306.567,52.285 306.36,53.488 306.36,54.88 C306.36,56.896 306.795,58.447 307.665,59.533 C308.535,60.619 309.774,61.162 311.382,61.162 Z M311.274,59.326 C310.602,59.326 310.059,59.113 309.645,58.687 C309.231,58.261 309.024,57.7 309.024,57.004 C309.024,56.32 309.231,55.765 309.645,55.339 C310.059,54.913 310.596,54.7 311.256,54.7 C311.916,54.7 312.444,54.91 312.84,55.33 C313.236,55.75 313.434,56.308 313.434,57.004 C313.434,57.712 313.239,58.276 312.849,58.696 C312.459,59.116 311.934,59.326 311.274,59.326 Z M318.492,64.51 C319.368,63.022 319.986,61.63 320.346,60.334 C320.706,59.038 320.886,57.682 320.886,56.266 C320.886,54.85 320.706,53.494 320.346,52.198 C319.986,50.902 319.368,49.51 318.492,48.022 L318.492,48.022 L316.998,48.634 C317.586,50.086 317.997,51.406 318.231,52.594 C318.465,53.782 318.582,55.006 318.582,56.266 C318.582,57.526 318.465,58.75 318.231,59.938 C317.997,61.126 317.586,62.446 316.998,63.898 L316.998,63.898 L318.492,64.51 Z" id="P(3≤X≤6)" fill="#FF8C00"></path>
            <path d="M248.4,104.162 C249.9,104.162 251.046,103.604 251.838,102.488 C252.63,101.372 253.026,99.758 253.026,97.646 C253.026,95.546 252.63,93.944 251.838,92.84 C251.046,91.736 249.9,91.184 248.4,91.184 C246.9,91.184 245.754,91.736 244.962,92.84 C244.17,93.944 243.774,95.546 243.774,97.646 C243.774,99.77 244.17,101.387 244.962,102.497 C245.754,103.607 246.9,104.162 248.4,104.162 Z M248.4,102.344 C247.584,102.344 246.99,101.969 246.618,101.219 C246.246,100.469 246.06,99.278 246.06,97.646 C246.06,96.026 246.246,94.847 246.618,94.109 C246.99,93.371 247.584,93.002 248.4,93.002 C249.216,93.002 249.81,93.371 250.182,94.109 C250.554,94.847 250.74,96.026 250.74,97.646 C250.74,99.278 250.554,100.469 250.182,101.219 C249.81,101.969 249.216,102.344 248.4,102.344 Z M257.292,104 L257.292,101.516 L254.772,101.516 L254.772,104 L257.292,104 Z M262.332,104 L268.092,93.038 L268.092,91.31 L259.254,91.31 L259.254,93.182 L265.608,93.182 L259.866,104 L262.332,104 Z M274.464,104.144 C275.952,104.144 277.116,103.829 277.956,103.199 C278.796,102.569 279.216,101.696 279.216,100.58 C279.216,99.8 279.015,99.14 278.613,98.6 C278.211,98.06 277.638,97.688 276.894,97.484 C277.518,97.268 278.01,96.902 278.37,96.386 C278.73,95.87 278.91,95.264 278.91,94.568 C278.91,93.512 278.514,92.678 277.722,92.066 C276.93,91.454 275.844,91.148 274.464,91.148 C273.084,91.148 271.998,91.454 271.206,92.066 C270.414,92.678 270.018,93.512 270.018,94.568 C270.018,95.252 270.198,95.849 270.558,96.359 C270.918,96.869 271.416,97.244 272.052,97.484 C271.308,97.676 270.732,98.045 270.324,98.591 C269.916,99.137 269.712,99.8 269.712,100.58 C269.712,101.696 270.132,102.569 270.972,103.199 C271.812,103.829 272.976,104.144 274.464,104.144 Z M274.464,96.674 C273.72,96.674 273.159,96.515 272.781,96.197 C272.403,95.879 272.214,95.414 272.214,94.802 C272.214,93.578 272.964,92.966 274.464,92.966 C275.964,92.966 276.714,93.578 276.714,94.802 C276.714,95.414 276.525,95.879 276.147,96.197 C275.769,96.515 275.208,96.674 274.464,96.674 Z M274.464,102.326 C272.748,102.326 271.89,101.684 271.89,100.4 C271.89,99.116 272.748,98.474 274.464,98.474 C276.18,98.474 277.038,99.116 277.038,100.4 C277.038,101.684 276.18,102.326 274.464,102.326 Z" id="0.78" fill="#FF8C00"></path>
        </g>
        <g id="Group-3" transform="translate(290.693000, 213.166000)">
            <g id="Grid" transform="translate(73.348305, 0.834000)"></g>
            <g id="Group-5" transform="translate(82.861000, 404.834000)" fill="#FFFFFF" fill-rule="nonzero">
                <path d="M4.446,34.144 C5.898,34.144 7.002,33.592 7.758,32.488 C8.514,31.384 8.892,29.77 8.892,27.646 C8.892,25.522 8.514,23.911 7.758,22.813 C7.002,21.715 5.898,21.166 4.446,21.166 C2.994,21.166 1.89,21.718 1.134,22.822 C0.378,23.926 0,25.54 0,27.664 C0,29.776 0.378,31.384 1.134,32.488 C1.89,33.592 2.994,34.144 4.446,34.144 Z M4.446,32.902 C3.438,32.902 2.694,32.476 2.214,31.624 C1.734,30.772 1.494,29.446 1.494,27.646 C1.494,25.846 1.734,24.526 2.214,23.686 C2.694,22.846 3.438,22.426 4.446,22.426 C5.466,22.426 6.213,22.843 6.687,23.677 C7.161,24.511 7.398,25.834 7.398,27.646 C7.398,29.446 7.158,30.772 6.678,31.624 C6.198,32.476 5.454,32.902 4.446,32.902 Z" id="0"></path>
                <path d="M8.48730458,2 C9.59187408,2 10.4873046,2.8954305 10.4873046,4 C10.4873046,5.0543618 9.67142679,5.91816512 8.63656693,5.99451426 L8.48730458,6 L0.487304581,6 C-0.617264918,6 -1.51269542,5.1045695 -1.51269542,4 C-1.51269542,2.9456382 -0.696817628,2.08183488 0.338042236,2.00548574 L0.487304581,2 L8.48730458,2 Z" id="1" transform="translate(4.487305, 4.000000) rotate(-90.000000) translate(-4.487305, -4.000000) "></path>
            </g>
            <g id="Group-6-Copy-2" fill="#FFFFFF" fill-rule="nonzero">
                <path d="M4.446,12.978 C5.898,12.978 7.002,12.426 7.758,11.322 C8.514,10.218 8.892,8.604 8.892,6.48 C8.892,4.356 8.514,2.745 7.758,1.647 C7.002,0.549 5.898,0 4.446,0 C2.994,0 1.89,0.552 1.134,1.656 C0.378,2.76 0,4.374 0,6.498 C0,8.61 0.378,10.218 1.134,11.322 C1.89,12.426 2.994,12.978 4.446,12.978 Z M4.446,11.736 C3.438,11.736 2.694,11.31 2.214,10.458 C1.734,9.606 1.494,8.28 1.494,6.48 C1.494,4.68 1.734,3.36 2.214,2.52 C2.694,1.68 3.438,1.26 4.446,1.26 C5.466,1.26 6.213,1.677 6.687,2.511 C7.161,3.345 7.398,4.668 7.398,6.48 C7.398,8.28 7.158,9.606 6.678,10.458 C6.198,11.31 5.454,11.736 4.446,11.736 Z M12.816,12.834 L12.816,10.998 L10.98,10.998 L10.98,12.834 L12.816,12.834 Z M23.67,12.834 L23.67,11.592 L17.406,11.592 L21.006,7.686 C21.762,6.858 22.305,6.108 22.635,5.436 C22.965,4.764 23.13,4.062 23.13,3.33 C23.13,2.31 22.791,1.5 22.113,0.9 C21.435,0.3 20.514,0 19.35,0 C18.582,0 17.817,0.141 17.055,0.423 C16.293,0.705 15.66,1.086 15.156,1.566 L15.156,1.566 L15.714,2.7 C16.89,1.728 18.09,1.242 19.314,1.242 C20.058,1.242 20.634,1.428 21.042,1.8 C21.45,2.172 21.654,2.706 21.654,3.402 C21.654,3.942 21.519,4.479 21.249,5.013 C20.979,5.547 20.544,6.15 19.944,6.822 L19.944,6.822 L15.498,11.718 L15.498,12.834 L23.67,12.834 Z M30.366,12.96 C31.23,12.96 31.986,12.789 32.634,12.447 C33.282,12.105 33.783,11.628 34.137,11.016 C34.491,10.404 34.668,9.696 34.668,8.892 C34.668,8.1 34.506,7.401 34.182,6.795 C33.858,6.189 33.399,5.718 32.805,5.382 C32.211,5.046 31.512,4.878 30.708,4.878 C30.168,4.878 29.667,4.965 29.205,5.139 C28.743,5.313 28.344,5.562 28.008,5.886 L28.008,5.886 L28.008,1.368 L34.164,1.368 L34.164,0.144 L26.55,0.144 L26.55,7.578 L27.576,7.578 C28.296,6.594 29.262,6.102 30.474,6.102 C31.302,6.102 31.965,6.36 32.463,6.876 C32.961,7.392 33.21,8.07 33.21,8.91 C33.21,9.774 32.958,10.458 32.454,10.962 C31.95,11.466 31.254,11.718 30.366,11.718 C29.13,11.718 27.924,11.232 26.748,10.26 L26.748,10.26 L26.19,11.394 C26.706,11.874 27.339,12.255 28.089,12.537 C28.839,12.819 29.598,12.96 30.366,12.96 Z" id="0.25"></path>
                <path d="M53.3483046,4.834 C54.4528741,4.834 55.3483046,5.7294305 55.3483046,6.834 C55.3483046,7.8883618 54.5324268,8.75216512 53.4975669,8.82851426 L53.3483046,8.834 L45.3483046,8.834 C44.2437351,8.834 43.3483046,7.9385695 43.3483046,6.834 C43.3483046,5.7796382 44.1641824,4.91583488 45.1990422,4.83948574 L45.3483046,4.834 L53.3483046,4.834 Z" id="1"></path>
            </g>
            <g id="Group-6-Copy-3" transform="translate(0.000000, 78.000000)" fill="#FFFFFF" fill-rule="nonzero">
                <path d="M4.446,12.978 C5.898,12.978 7.002,12.426 7.758,11.322 C8.514,10.218 8.892,8.604 8.892,6.48 C8.892,4.356 8.514,2.745 7.758,1.647 C7.002,0.549 5.898,0 4.446,0 C2.994,0 1.89,0.552 1.134,1.656 C0.378,2.76 0,4.374 0,6.498 C0,8.61 0.378,10.218 1.134,11.322 C1.89,12.426 2.994,12.978 4.446,12.978 Z M4.446,11.736 C3.438,11.736 2.694,11.31 2.214,10.458 C1.734,9.606 1.494,8.28 1.494,6.48 C1.494,4.68 1.734,3.36 2.214,2.52 C2.694,1.68 3.438,1.26 4.446,1.26 C5.466,1.26 6.213,1.677 6.687,2.511 C7.161,3.345 7.398,4.668 7.398,6.48 C7.398,8.28 7.158,9.606 6.678,10.458 C6.198,11.31 5.454,11.736 4.446,11.736 Z M12.816,12.834 L12.816,10.998 L10.98,10.998 L10.98,12.834 L12.816,12.834 Z M23.67,12.834 L23.67,11.592 L17.406,11.592 L21.006,7.686 C21.762,6.858 22.305,6.108 22.635,5.436 C22.965,4.764 23.13,4.062 23.13,3.33 C23.13,2.31 22.791,1.5 22.113,0.9 C21.435,0.3 20.514,0 19.35,0 C18.582,0 17.817,0.141 17.055,0.423 C16.293,0.705 15.66,1.086 15.156,1.566 L15.156,1.566 L15.714,2.7 C16.89,1.728 18.09,1.242 19.314,1.242 C20.058,1.242 20.634,1.428 21.042,1.8 C21.45,2.172 21.654,2.706 21.654,3.402 C21.654,3.942 21.519,4.479 21.249,5.013 C20.979,5.547 20.544,6.15 19.944,6.822 L19.944,6.822 L15.498,11.718 L15.498,12.834 L23.67,12.834 Z M30.168,12.978 C31.62,12.978 32.724,12.426 33.48,11.322 C34.236,10.218 34.614,8.604 34.614,6.48 C34.614,4.356 34.236,2.745 33.48,1.647 C32.724,0.549 31.62,0 30.168,0 C28.716,0 27.612,0.552 26.856,1.656 C26.1,2.76 25.722,4.374 25.722,6.498 C25.722,8.61 26.1,10.218 26.856,11.322 C27.612,12.426 28.716,12.978 30.168,12.978 Z M30.168,11.736 C29.16,11.736 28.416,11.31 27.936,10.458 C27.456,9.606 27.216,8.28 27.216,6.48 C27.216,4.68 27.456,3.36 27.936,2.52 C28.416,1.68 29.16,1.26 30.168,1.26 C31.188,1.26 31.935,1.677 32.409,2.511 C32.883,3.345 33.12,4.668 33.12,6.48 C33.12,8.28 32.88,9.606 32.4,10.458 C31.92,11.31 31.176,11.736 30.168,11.736 Z" id="0.20"></path>
                <path d="M53.3483046,4.834 C54.4528741,4.834 55.3483046,5.7294305 55.3483046,6.834 C55.3483046,7.8883618 54.5324268,8.75216512 53.4975669,8.82851426 L53.3483046,8.834 L45.3483046,8.834 C44.2437351,8.834 43.3483046,7.9385695 43.3483046,6.834 C43.3483046,5.7796382 44.1641824,4.91583488 45.1990422,4.83948574 L45.3483046,4.834 L53.3483046,4.834 Z" id="1"></path>
            </g>
            <g id="Group-6-Copy-8" transform="translate(0.000000, 156.000000)" fill="#FFFFFF" fill-rule="nonzero">
                <path d="M4.446,12.978 C5.898,12.978 7.002,12.426 7.758,11.322 C8.514,10.218 8.892,8.604 8.892,6.48 C8.892,4.356 8.514,2.745 7.758,1.647 C7.002,0.549 5.898,0 4.446,0 C2.994,0 1.89,0.552 1.134,1.656 C0.378,2.76 0,4.374 0,6.498 C0,8.61 0.378,10.218 1.134,11.322 C1.89,12.426 2.994,12.978 4.446,12.978 Z M4.446,11.736 C3.438,11.736 2.694,11.31 2.214,10.458 C1.734,9.606 1.494,8.28 1.494,6.48 C1.494,4.68 1.734,3.36 2.214,2.52 C2.694,1.68 3.438,1.26 4.446,1.26 C5.466,1.26 6.213,1.677 6.687,2.511 C7.161,3.345 7.398,4.668 7.398,6.48 C7.398,8.28 7.158,9.606 6.678,10.458 C6.198,11.31 5.454,11.736 4.446,11.736 Z M12.816,12.834 L12.816,10.998 L10.98,10.998 L10.98,12.834 L12.816,12.834 Z M23.364,12.834 L23.364,11.592 L20.574,11.592 L20.574,0.144 L19.512,0.144 L16.182,2.25 L16.866,3.384 L19.098,1.98 L19.098,11.592 L16.308,11.592 L16.308,12.834 L23.364,12.834 Z M30.366,12.96 C31.23,12.96 31.986,12.789 32.634,12.447 C33.282,12.105 33.783,11.628 34.137,11.016 C34.491,10.404 34.668,9.696 34.668,8.892 C34.668,8.1 34.506,7.401 34.182,6.795 C33.858,6.189 33.399,5.718 32.805,5.382 C32.211,5.046 31.512,4.878 30.708,4.878 C30.168,4.878 29.667,4.965 29.205,5.139 C28.743,5.313 28.344,5.562 28.008,5.886 L28.008,5.886 L28.008,1.368 L34.164,1.368 L34.164,0.144 L26.55,0.144 L26.55,7.578 L27.576,7.578 C28.296,6.594 29.262,6.102 30.474,6.102 C31.302,6.102 31.965,6.36 32.463,6.876 C32.961,7.392 33.21,8.07 33.21,8.91 C33.21,9.774 32.958,10.458 32.454,10.962 C31.95,11.466 31.254,11.718 30.366,11.718 C29.13,11.718 27.924,11.232 26.748,10.26 L26.748,10.26 L26.19,11.394 C26.706,11.874 27.339,12.255 28.089,12.537 C28.839,12.819 29.598,12.96 30.366,12.96 Z" id="0.15"></path>
                <path d="M53.3483046,4.834 C54.4528741,4.834 55.3483046,5.7294305 55.3483046,6.834 C55.3483046,7.8883618 54.5324268,8.75216512 53.4975669,8.82851426 L53.3483046,8.834 L45.3483046,8.834 C44.2437351,8.834 43.3483046,7.9385695 43.3483046,6.834 C43.3483046,5.7796382 44.1641824,4.91583488 45.1990422,4.83948574 L45.3483046,4.834 L53.3483046,4.834 Z" id="1"></path>
            </g>
            <g id="Group-6-Copy-4" transform="translate(0.000000, 236.000000)" fill="#FFFFFF" fill-rule="nonzero">
                <path d="M4.446,12.978 C5.898,12.978 7.002,12.426 7.758,11.322 C8.514,10.218 8.892,8.604 8.892,6.48 C8.892,4.356 8.514,2.745 7.758,1.647 C7.002,0.549 5.898,0 4.446,0 C2.994,0 1.89,0.552 1.134,1.656 C0.378,2.76 0,4.374 0,6.498 C0,8.61 0.378,10.218 1.134,11.322 C1.89,12.426 2.994,12.978 4.446,12.978 Z M4.446,11.736 C3.438,11.736 2.694,11.31 2.214,10.458 C1.734,9.606 1.494,8.28 1.494,6.48 C1.494,4.68 1.734,3.36 2.214,2.52 C2.694,1.68 3.438,1.26 4.446,1.26 C5.466,1.26 6.213,1.677 6.687,2.511 C7.161,3.345 7.398,4.668 7.398,6.48 C7.398,8.28 7.158,9.606 6.678,10.458 C6.198,11.31 5.454,11.736 4.446,11.736 Z M12.816,12.834 L12.816,10.998 L10.98,10.998 L10.98,12.834 L12.816,12.834 Z M23.364,12.834 L23.364,11.592 L20.574,11.592 L20.574,0.144 L19.512,0.144 L16.182,2.25 L16.866,3.384 L19.098,1.98 L19.098,11.592 L16.308,11.592 L16.308,12.834 L23.364,12.834 Z M30.168,12.978 C31.62,12.978 32.724,12.426 33.48,11.322 C34.236,10.218 34.614,8.604 34.614,6.48 C34.614,4.356 34.236,2.745 33.48,1.647 C32.724,0.549 31.62,0 30.168,0 C28.716,0 27.612,0.552 26.856,1.656 C26.1,2.76 25.722,4.374 25.722,6.498 C25.722,8.61 26.1,10.218 26.856,11.322 C27.612,12.426 28.716,12.978 30.168,12.978 Z M30.168,11.736 C29.16,11.736 28.416,11.31 27.936,10.458 C27.456,9.606 27.216,8.28 27.216,6.48 C27.216,4.68 27.456,3.36 27.936,2.52 C28.416,1.68 29.16,1.26 30.168,1.26 C31.188,1.26 31.935,1.677 32.409,2.511 C32.883,3.345 33.12,4.668 33.12,6.48 C33.12,8.28 32.88,9.606 32.4,10.458 C31.92,11.31 31.176,11.736 30.168,11.736 Z" id="0.10"></path>
                <path d="M53.3483046,4.834 C54.4528741,4.834 55.3483046,5.7294305 55.3483046,6.834 C55.3483046,7.8883618 54.5324268,8.75216512 53.4975669,8.82851426 L53.3483046,8.834 L45.3483046,8.834 C44.2437351,8.834 43.3483046,7.9385695 43.3483046,6.834 C43.3483046,5.7796382 44.1641824,4.91583488 45.1990422,4.83948574 L45.3483046,4.834 L53.3483046,4.834 Z" id="1"></path>
            </g>
            <g id="Group-6-Copy-7" transform="translate(0.000000, 314.000000)" fill="#FFFFFF" fill-rule="nonzero">
                <path d="M4.446,12.978 C5.898,12.978 7.002,12.426 7.758,11.322 C8.514,10.218 8.892,8.604 8.892,6.48 C8.892,4.356 8.514,2.745 7.758,1.647 C7.002,0.549 5.898,0 4.446,0 C2.994,0 1.89,0.552 1.134,1.656 C0.378,2.76 0,4.374 0,6.498 C0,8.61 0.378,10.218 1.134,11.322 C1.89,12.426 2.994,12.978 4.446,12.978 Z M4.446,11.736 C3.438,11.736 2.694,11.31 2.214,10.458 C1.734,9.606 1.494,8.28 1.494,6.48 C1.494,4.68 1.734,3.36 2.214,2.52 C2.694,1.68 3.438,1.26 4.446,1.26 C5.466,1.26 6.213,1.677 6.687,2.511 C7.161,3.345 7.398,4.668 7.398,6.48 C7.398,8.28 7.158,9.606 6.678,10.458 C6.198,11.31 5.454,11.736 4.446,11.736 Z M12.816,12.834 L12.816,10.998 L10.98,10.998 L10.98,12.834 L12.816,12.834 Z M19.368,12.978 C20.82,12.978 21.924,12.426 22.68,11.322 C23.436,10.218 23.814,8.604 23.814,6.48 C23.814,4.356 23.436,2.745 22.68,1.647 C21.924,0.549 20.82,0 19.368,0 C17.916,0 16.812,0.552 16.056,1.656 C15.3,2.76 14.922,4.374 14.922,6.498 C14.922,8.61 15.3,10.218 16.056,11.322 C16.812,12.426 17.916,12.978 19.368,12.978 Z M19.368,11.736 C18.36,11.736 17.616,11.31 17.136,10.458 C16.656,9.606 16.416,8.28 16.416,6.48 C16.416,4.68 16.656,3.36 17.136,2.52 C17.616,1.68 18.36,1.26 19.368,1.26 C20.388,1.26 21.135,1.677 21.609,2.511 C22.083,3.345 22.32,4.668 22.32,6.48 C22.32,8.28 22.08,9.606 21.6,10.458 C21.12,11.31 20.376,11.736 19.368,11.736 Z M30.366,12.96 C31.23,12.96 31.986,12.789 32.634,12.447 C33.282,12.105 33.783,11.628 34.137,11.016 C34.491,10.404 34.668,9.696 34.668,8.892 C34.668,8.1 34.506,7.401 34.182,6.795 C33.858,6.189 33.399,5.718 32.805,5.382 C32.211,5.046 31.512,4.878 30.708,4.878 C30.168,4.878 29.667,4.965 29.205,5.139 C28.743,5.313 28.344,5.562 28.008,5.886 L28.008,5.886 L28.008,1.368 L34.164,1.368 L34.164,0.144 L26.55,0.144 L26.55,7.578 L27.576,7.578 C28.296,6.594 29.262,6.102 30.474,6.102 C31.302,6.102 31.965,6.36 32.463,6.876 C32.961,7.392 33.21,8.07 33.21,8.91 C33.21,9.774 32.958,10.458 32.454,10.962 C31.95,11.466 31.254,11.718 30.366,11.718 C29.13,11.718 27.924,11.232 26.748,10.26 L26.748,10.26 L26.19,11.394 C26.706,11.874 27.339,12.255 28.089,12.537 C28.839,12.819 29.598,12.96 30.366,12.96 Z" id="0.05"></path>
                <path d="M53.3483046,4.834 C54.4528741,4.834 55.3483046,5.7294305 55.3483046,6.834 C55.3483046,7.8883618 54.5324268,8.75216512 53.4975669,8.82851426 L53.3483046,8.834 L45.3483046,8.834 C44.2437351,8.834 43.3483046,7.9385695 43.3483046,6.834 C43.3483046,5.7796382 44.1641824,4.91583488 45.1990422,4.83948574 L45.3483046,4.834 L53.3483046,4.834 Z" id="1"></path>
            </g>
            <g id="Group-6-Copy-5" transform="translate(0.000000, 392.000000)" fill="#FFFFFF" fill-rule="nonzero">
                <path d="M4.446,12.978 C5.898,12.978 7.002,12.426 7.758,11.322 C8.514,10.218 8.892,8.604 8.892,6.48 C8.892,4.356 8.514,2.745 7.758,1.647 C7.002,0.549 5.898,0 4.446,0 C2.994,0 1.89,0.552 1.134,1.656 C0.378,2.76 0,4.374 0,6.498 C0,8.61 0.378,10.218 1.134,11.322 C1.89,12.426 2.994,12.978 4.446,12.978 Z M4.446,11.736 C3.438,11.736 2.694,11.31 2.214,10.458 C1.734,9.606 1.494,8.28 1.494,6.48 C1.494,4.68 1.734,3.36 2.214,2.52 C2.694,1.68 3.438,1.26 4.446,1.26 C5.466,1.26 6.213,1.677 6.687,2.511 C7.161,3.345 7.398,4.668 7.398,6.48 C7.398,8.28 7.158,9.606 6.678,10.458 C6.198,11.31 5.454,11.736 4.446,11.736 Z M12.816,12.834 L12.816,10.998 L10.98,10.998 L10.98,12.834 L12.816,12.834 Z M19.368,12.978 C20.82,12.978 21.924,12.426 22.68,11.322 C23.436,10.218 23.814,8.604 23.814,6.48 C23.814,4.356 23.436,2.745 22.68,1.647 C21.924,0.549 20.82,0 19.368,0 C17.916,0 16.812,0.552 16.056,1.656 C15.3,2.76 14.922,4.374 14.922,6.498 C14.922,8.61 15.3,10.218 16.056,11.322 C16.812,12.426 17.916,12.978 19.368,12.978 Z M19.368,11.736 C18.36,11.736 17.616,11.31 17.136,10.458 C16.656,9.606 16.416,8.28 16.416,6.48 C16.416,4.68 16.656,3.36 17.136,2.52 C17.616,1.68 18.36,1.26 19.368,1.26 C20.388,1.26 21.135,1.677 21.609,2.511 C22.083,3.345 22.32,4.668 22.32,6.48 C22.32,8.28 22.08,9.606 21.6,10.458 C21.12,11.31 20.376,11.736 19.368,11.736 Z M30.168,12.978 C31.62,12.978 32.724,12.426 33.48,11.322 C34.236,10.218 34.614,8.604 34.614,6.48 C34.614,4.356 34.236,2.745 33.48,1.647 C32.724,0.549 31.62,0 30.168,0 C28.716,0 27.612,0.552 26.856,1.656 C26.1,2.76 25.722,4.374 25.722,6.498 C25.722,8.61 26.1,10.218 26.856,11.322 C27.612,12.426 28.716,12.978 30.168,12.978 Z M30.168,11.736 C29.16,11.736 28.416,11.31 27.936,10.458 C27.456,9.606 27.216,8.28 27.216,6.48 C27.216,4.68 27.456,3.36 27.936,2.52 C28.416,1.68 29.16,1.26 30.168,1.26 C31.188,1.26 31.935,1.677 32.409,2.511 C32.883,3.345 33.12,4.668 33.12,6.48 C33.12,8.28 32.88,9.606 32.4,10.458 C31.92,11.31 31.176,11.736 30.168,11.736 Z" id="0.00"></path>
                <path d="M53.3483046,4.834 C54.4528741,4.834 55.3483046,5.7294305 55.3483046,6.834 C55.3483046,7.8883618 54.5324268,8.75216512 53.4975669,8.82851426 L53.3483046,8.834 L45.3483046,8.834 C44.2437351,8.834 43.3483046,7.9385695 43.3483046,6.834 C43.3483046,5.7796382 44.1641824,4.91583488 45.1990422,4.83948574 L45.3483046,4.834 L53.3483046,4.834 Z" id="1"></path>
            </g>
            <g id="Group-4" transform="translate(134.121000, 404.834000)" fill="#FFFFFF" fill-rule="nonzero">
                <polygon id="1" points="7.182 34 7.182 32.758 4.392 32.758 4.392 21.31 3.33 21.31 0 23.416 0.684 24.55 2.916 23.146 2.916 32.758 0.126 32.758 0.126 34"></polygon>
                <path d="M7.22730458,2 C8.33187408,2 9.22730458,2.8954305 9.22730458,4 C9.22730458,5.0543618 8.41142679,5.91816512 7.37656693,5.99451426 L7.22730458,6 L-0.772695419,6 C-1.87726492,6 -2.77269542,5.1045695 -2.77269542,4 C-2.77269542,2.9456382 -1.95681763,2.08183488 -0.921957764,2.00548574 L-0.772695419,2 L7.22730458,2 Z" id="4" transform="translate(3.227305, 4.000000) rotate(-90.000000) translate(-3.227305, -4.000000) "></path>
            </g>
            <g id="Group-4-Copy-2" transform="translate(392.924000, 404.834000)" fill="#FFFFFF" fill-rule="nonzero">
                <path d="M4.806,34.144 C5.586,34.144 6.288,33.97 6.912,33.622 C7.536,33.274 8.022,32.788 8.37,32.164 C8.718,31.54 8.892,30.838 8.892,30.058 C8.892,29.266 8.724,28.564 8.388,27.952 C8.052,27.34 7.584,26.866 6.984,26.53 C6.384,26.194 5.7,26.026 4.932,26.026 C4.128,26.026 3.42,26.224 2.808,26.62 C2.196,27.016 1.752,27.55 1.476,28.222 L1.476,28.222 L1.476,27.952 C1.476,26.188 1.779,24.823 2.385,23.857 C2.991,22.891 3.84,22.408 4.932,22.408 C5.496,22.408 6.051,22.525 6.597,22.759 C7.143,22.993 7.716,23.362 8.316,23.866 L8.316,23.866 L8.874,22.732 C8.346,22.228 7.734,21.841 7.038,21.571 C6.342,21.301 5.628,21.166 4.896,21.166 C3.876,21.166 3,21.433 2.268,21.967 C1.536,22.501 0.975,23.278 0.585,24.298 C0.195,25.318 4.54747351e-13,26.542 4.54747351e-13,27.97 C4.54747351e-13,29.95 0.417,31.474 1.251,32.542 C2.085,33.61 3.27,34.144 4.806,34.144 Z M4.734,32.902 C3.894,32.902 3.213,32.641 2.691,32.119 C2.169,31.597 1.908,30.916 1.908,30.076 C1.908,29.248 2.169,28.573 2.691,28.051 C3.213,27.529 3.888,27.268 4.716,27.268 C5.532,27.268 6.189,27.526 6.687,28.042 C7.185,28.558 7.434,29.236 7.434,30.076 C7.434,30.928 7.188,31.612 6.696,32.128 C6.204,32.644 5.55,32.902 4.734,32.902 Z" id="6"></path>
                <path d="M8.42430458,2 C9.52887408,2 10.4243046,2.8954305 10.4243046,4 C10.4243046,5.0543618 9.60842679,5.91816512 8.57356693,5.99451426 L8.42430458,6 L0.424304581,6 C-0.680264918,6 -1.57569542,5.1045695 -1.57569542,4 C-1.57569542,2.9456382 -0.759817628,2.08183488 0.275042236,2.00548574 L0.424304581,2 L8.42430458,2 Z" id="4" transform="translate(4.424305, 4.000000) rotate(-90.000000) translate(-4.424305, -4.000000) "></path>
            </g>
            <g id="Group-4-Copy" transform="translate(183.095000, 404.834000)" fill="#FFFFFF" fill-rule="nonzero">
                <path d="M8.514,34 L8.514,32.758 L2.25,32.758 L5.85,28.852 C6.606,28.024 7.149,27.274 7.479,26.602 C7.809,25.93 7.974,25.228 7.974,24.496 C7.974,23.476 7.635,22.666 6.957,22.066 C6.279,21.466 5.358,21.166 4.194,21.166 C3.426,21.166 2.661,21.307 1.899,21.589 C1.137,21.871 0.504,22.252 0,22.732 L0,22.732 L0.558,23.866 C1.734,22.894 2.934,22.408 4.158,22.408 C4.902,22.408 5.478,22.594 5.886,22.966 C6.294,23.338 6.498,23.872 6.498,24.568 C6.498,25.108 6.363,25.645 6.093,26.179 C5.823,26.713 5.388,27.316 4.788,27.988 L4.788,27.988 L0.342,32.884 L0.342,34 L8.514,34 Z" id="2"></path>
                <path d="M8.25330458,2 C9.35787408,2 10.2533046,2.8954305 10.2533046,4 C10.2533046,5.0543618 9.43742679,5.91816512 8.40256693,5.99451426 L8.25330458,6 L0.253304581,6 C-0.851264918,6 -1.74669542,5.1045695 -1.74669542,4 C-1.74669542,2.9456382 -0.930817628,2.08183488 0.104042236,2.00548574 L0.253304581,2 L8.25330458,2 Z" id="4" transform="translate(4.253305, 4.000000) rotate(-90.000000) translate(-4.253305, -4.000000) "></path>
            </g>
            <g id="Group-4-Copy-3" transform="translate(443.113000, 404.834000)" fill="#FFFFFF" fill-rule="nonzero">
                <polygon id="7" points="2.448 34 8.388 22.408 8.388 21.31 0 21.31 0 22.552 6.768 22.552 0.846 34"></polygon>
                <path d="M8.23530458,2 C9.33987408,2 10.2353046,2.8954305 10.2353046,4 C10.2353046,5.0543618 9.41942679,5.91816512 8.38456693,5.99451426 L8.23530458,6 L0.235304581,6 C-0.869264918,6 -1.76469542,5.1045695 -1.76469542,4 C-1.76469542,2.9456382 -0.948817628,2.08183488 0.0860422364,2.00548574 L0.235304581,2 L8.23530458,2 Z" id="4" transform="translate(4.235305, 4.000000) rotate(-90.000000) translate(-4.235305, -4.000000) "></path>
            </g>
            <g id="Group" transform="translate(234.915000, 404.834000)" fill="#FFFFFF" fill-rule="nonzero">
                <path d="M4.266,34.126 C5.55,34.126 6.567,33.808 7.317,33.172 C8.067,32.536 8.442,31.666 8.442,30.562 C8.442,29.77 8.244,29.113 7.848,28.591 C7.452,28.069 6.882,27.7 6.138,27.484 C6.774,27.244 7.269,26.851 7.623,26.305 C7.977,25.759 8.154,25.12 8.154,24.388 C8.154,23.404 7.815,22.621 7.137,22.039 C6.459,21.457 5.544,21.166 4.392,21.166 C3.588,21.166 2.814,21.304 2.07,21.58 C1.326,21.856 0.696,22.24 0.18,22.732 L0.18,22.732 L0.738,23.866 C1.914,22.894 3.114,22.408 4.338,22.408 C5.094,22.408 5.676,22.591 6.084,22.957 C6.492,23.323 6.696,23.848 6.696,24.532 C6.696,25.312 6.444,25.909 5.94,26.323 C5.436,26.737 4.716,26.944 3.78,26.944 L3.78,26.944 L2.61,26.944 L2.61,28.186 L4.068,28.186 C6.012,28.186 6.984,28.96 6.984,30.508 C6.984,31.288 6.75,31.879 6.282,32.281 C5.814,32.683 5.13,32.884 4.23,32.884 C2.934,32.884 1.71,32.398 0.558,31.426 L0.558,31.426 L0,32.56 C0.516,33.052 1.152,33.436 1.908,33.712 C2.664,33.988 3.45,34.126 4.266,34.126 Z" id="3"></path>
                <path d="M8.392,2 C9.4965695,2 10.392,2.8954305 10.392,4 C10.392,5.0543618 9.57612221,5.91816512 8.54126234,5.99451426 L8.392,6 L0.392,6 C-0.7125695,6 -1.608,5.1045695 -1.608,4 C-1.608,2.9456382 -0.792122209,2.08183488 0.242737655,2.00548574 L0.392,2 L8.392,2 Z" id="5" transform="translate(4.392000, 4.000000) rotate(-90.000000) translate(-4.392000, -4.000000) "></path>
            </g>
            <g id="Group-Copy" transform="translate(494.753000, 404.834000)" fill="#FFFFFF" fill-rule="nonzero">
                <path d="M4.554,34.126 C6.006,34.126 7.128,33.817 7.92,33.199 C8.712,32.581 9.108,31.726 9.108,30.634 C9.108,29.866 8.901,29.206 8.487,28.654 C8.073,28.102 7.494,27.712 6.75,27.484 C7.374,27.256 7.872,26.881 8.244,26.359 C8.616,25.837 8.802,25.228 8.802,24.532 C8.802,23.5 8.427,22.681 7.677,22.075 C6.927,21.469 5.886,21.166 4.554,21.166 C3.222,21.166 2.181,21.469 1.431,22.075 C0.681,22.681 0.306,23.5 0.306,24.532 C0.306,25.228 0.492,25.834 0.864,26.35 C1.236,26.866 1.74,27.244 2.376,27.484 C1.632,27.7 1.05,28.084 0.63,28.636 C0.21,29.188 0,29.854 0,30.634 C0,31.726 0.396,32.581 1.188,33.199 C1.98,33.817 3.102,34.126 4.554,34.126 Z M4.554,26.944 C3.642,26.944 2.949,26.746 2.475,26.35 C2.001,25.954 1.764,25.384 1.764,24.64 C1.764,23.932 2.001,23.38 2.475,22.984 C2.949,22.588 3.642,22.39 4.554,22.39 C5.466,22.39 6.159,22.588 6.633,22.984 C7.107,23.38 7.344,23.932 7.344,24.64 C7.344,25.384 7.107,25.954 6.633,26.35 C6.159,26.746 5.466,26.944 4.554,26.944 Z M4.554,32.902 C2.49,32.902 1.458,32.116 1.458,30.544 C1.458,28.972 2.49,28.186 4.554,28.186 C6.618,28.186 7.65,28.972 7.65,30.544 C7.65,32.116 6.618,32.902 4.554,32.902 Z" id="8"></path>
                <path d="M8.554,2 C9.6585695,2 10.554,2.8954305 10.554,4 C10.554,5.0543618 9.73812221,5.91816512 8.70326234,5.99451426 L8.554,6 L0.554,6 C-0.5505695,6 -1.446,5.1045695 -1.446,4 C-1.446,2.9456382 -0.630122209,2.08183488 0.404737655,2.00548574 L0.554,2 L8.554,2 Z" id="5" transform="translate(4.554000, 4.000000) rotate(-90.000000) translate(-4.554000, -4.000000) "></path>
            </g>
            <g id="Group-2" transform="translate(341.329000, 404.834000)" fill="#FFFFFF" fill-rule="nonzero">
                <path d="M4.176,34.126 C5.04,34.126 5.796,33.955 6.444,33.613 C7.092,33.271 7.593,32.794 7.947,32.182 C8.301,31.57 8.478,30.862 8.478,30.058 C8.478,29.266 8.316,28.567 7.992,27.961 C7.668,27.355 7.209,26.884 6.615,26.548 C6.021,26.212 5.322,26.044 4.518,26.044 C3.978,26.044 3.477,26.131 3.015,26.305 C2.553,26.479 2.154,26.728 1.818,27.052 L1.818,27.052 L1.818,22.534 L7.974,22.534 L7.974,21.31 L0.36,21.31 L0.36,28.744 L1.386,28.744 C2.106,27.76 3.072,27.268 4.284,27.268 C5.112,27.268 5.775,27.526 6.273,28.042 C6.771,28.558 7.02,29.236 7.02,30.076 C7.02,30.94 6.768,31.624 6.264,32.128 C5.76,32.632 5.064,32.884 4.176,32.884 C2.94,32.884 1.734,32.398 0.558,31.426 L0.558,31.426 L0,32.56 C0.516,33.04 1.149,33.421 1.899,33.703 C2.649,33.985 3.408,34.126 4.176,34.126 Z" id="5"></path>
                <path d="M8.01930458,2 C9.12387408,2 10.0193046,2.8954305 10.0193046,4 C10.0193046,5.0543618 9.20342679,5.91816512 8.16856693,5.99451426 L8.01930458,6 L0.0193045813,6 C-1.08526492,6 -1.98069542,5.1045695 -1.98069542,4 C-1.98069542,2.9456382 -1.16481763,2.08183488 -0.129957764,2.00548574 L0.0193045813,2 L8.01930458,2 Z" id="6" transform="translate(4.019305, 4.000000) rotate(-90.000000) translate(-4.019305, -4.000000) "></path>
            </g>
            <g id="Group-2-Copy-2" transform="translate(598.721000, 404.834000)" fill="#FFFFFF" fill-rule="nonzero">
                <path d="M7.182,34 L7.182,32.758 L4.392,32.758 L4.392,21.31 L3.33,21.31 L0,23.416 L0.684,24.55 L2.916,23.146 L2.916,32.758 L0.126,32.758 L0.126,34 L7.182,34 Z M13.986,34.144 C15.438,34.144 16.542,33.592 17.298,32.488 C18.054,31.384 18.432,29.77 18.432,27.646 C18.432,25.522 18.054,23.911 17.298,22.813 C16.542,21.715 15.438,21.166 13.986,21.166 C12.534,21.166 11.43,21.718 10.674,22.822 C9.918,23.926 9.54,25.54 9.54,27.664 C9.54,29.776 9.918,31.384 10.674,32.488 C11.43,33.592 12.534,34.144 13.986,34.144 Z M13.986,32.902 C12.978,32.902 12.234,32.476 11.754,31.624 C11.274,30.772 11.034,29.446 11.034,27.646 C11.034,25.846 11.274,24.526 11.754,23.686 C12.234,22.846 12.978,22.426 13.986,22.426 C15.006,22.426 15.753,22.843 16.227,23.677 C16.701,24.511 16.938,25.834 16.938,27.646 C16.938,29.446 16.698,30.772 16.218,31.624 C15.738,32.476 14.994,32.902 13.986,32.902 Z" id="10"></path>
                <path d="M12.6273046,2 C13.7318741,2 14.6273046,2.8954305 14.6273046,4 C14.6273046,5.0543618 13.8114268,5.91816512 12.7765669,5.99451426 L12.6273046,6 L4.62730458,6 C3.52273508,6 2.62730458,5.1045695 2.62730458,4 C2.62730458,2.9456382 3.44318237,2.08183488 4.47804224,2.00548574 L4.62730458,2 L12.6273046,2 Z" id="6" transform="translate(8.627305, 4.000000) rotate(-90.000000) translate(-8.627305, -4.000000) "></path>
            </g>
            <g id="Group-2-Copy" transform="translate(288.825000, 404.834000)" fill="#FFFFFF" fill-rule="nonzero">
                <path d="M7.326,34 L7.326,31.246 L9.234,31.246 L9.234,30.022 L7.326,30.022 L7.326,21.31 L6.12,21.31 L0,30.13 L0,31.246 L5.868,31.246 L5.868,34 L7.326,34 Z M5.868,30.022 L1.53,30.022 L5.868,23.776 L5.868,30.022 Z" id="4"></path>
                <path d="M8.52330458,2 C9.62787408,2 10.5233046,2.8954305 10.5233046,4 C10.5233046,5.0543618 9.70742679,5.91816512 8.67256693,5.99451426 L8.52330458,6 L0.523304581,6 C-0.581264918,6 -1.47669542,5.1045695 -1.47669542,4 C-1.47669542,2.9456382 -0.660817628,2.08183488 0.374042236,2.00548574 L0.523304581,2 L8.52330458,2 Z" id="6" transform="translate(4.523305, 4.000000) rotate(-90.000000) translate(-4.523305, -4.000000) "></path>
            </g>
            <g id="Group-2-Copy-3" transform="translate(548.825000, 404.834000)" fill="#FFFFFF" fill-rule="nonzero">
                <path d="M4.176,28.042 C3.36,28.042 2.703,27.787 2.205,27.277 C1.707,26.767 1.458,26.086 1.458,25.234 C1.458,24.382 1.704,23.698 2.196,23.182 C2.688,22.666 3.342,22.408 4.158,22.408 C4.998,22.408 5.679,22.669 6.201,23.191 C6.723,23.713 6.984,24.394 6.984,25.234 C6.984,26.062 6.723,26.737 6.201,27.259 C5.679,27.781 5.004,28.042 4.176,28.042 Z M7.397,27.125 L7.398,27.358 C7.398,29.122 7.098,30.487 6.498,31.453 C5.898,32.419 5.052,32.902 3.96,32.902 C3.396,32.902 2.841,32.785 2.295,32.551 C1.749,32.317 1.176,31.948 0.576,31.444 L0.576,31.444 L0.018,32.578 C0.546,33.082 1.158,33.469 1.854,33.739 C2.55,34.009 3.258,34.144 3.978,34.144 C5.526,34.144 6.732,33.547 7.596,32.353 C8.46,31.159 8.892,29.488 8.892,27.34 C8.892,25.36 8.475,23.836 7.641,22.768 C6.807,21.7 5.622,21.166 4.086,21.166 C3.306,21.166 2.604,21.34 1.98,21.688 C1.356,22.036 0.87,22.522 0.522,23.146 C0.174,23.77 0,24.472 0,25.252 C0,26.044 0.168,26.746 0.504,27.358 C0.84,27.97 1.308,28.444 1.908,28.78 C2.508,29.116 3.192,29.284 3.96,29.284 C4.74,29.284 5.439,29.092 6.057,28.708 C6.675,28.324 7.122,27.796 7.398,27.124 L7.397,27.125 Z" id="9"></path>
                <path d="M8.52330458,2 C9.62787408,2 10.5233046,2.8954305 10.5233046,4 C10.5233046,5.0543618 9.70742679,5.91816512 8.67256693,5.99451426 L8.52330458,6 L0.523304581,6 C-0.581264918,6 -1.47669542,5.1045695 -1.47669542,4 C-1.47669542,2.9456382 -0.660817628,2.08183488 0.374042236,2.00548574 L0.523304581,2 L8.52330458,2 Z" id="6" transform="translate(4.523305, 4.000000) rotate(-90.000000) translate(-4.523305, -4.000000) "></path>
            </g>
            <path d="M635.307,0.834 C638.620708,0.834 641.307,3.5202915 641.307,6.834 L641.307,398.834 C641.307,402.147708 638.620708,404.834 635.307,404.834 L59.307,404.834 C55.9932915,404.834 53.307,402.147708 53.307,398.834 L53.307,6.834 C53.307,3.5202915 55.9932915,0.834 59.307,0.834 L635.307,0.834 Z M635.307,2.834 L59.307,2.834 C57.1648046,2.834 55.4159211,4.51796847 55.307,6.63435966 L55.307,6.834 L55.307,398.834 C55.307,400.976195 56.9909685,402.725079 59.1073597,402.829105 L59.307,402.834 L635.307,402.834 C637.449195,402.834 639.198079,401.150032 639.307,399.03364 L639.307,398.834 L639.307,6.834 C639.307,4.69180461 637.623032,2.94292112 635.50664,2.83889531 L635.307,2.834 Z" id="Rectangle" fill="#FFFFFF" fill-rule="nonzero"></path>
            <path d="M247.307,200.834 L231.307,200.834 C228.545576,200.834 226.307,203.072576 226.307,205.834 L226.307,402.834 L252.307,402.834 L252.307,205.834 C252.307,203.072576 250.068424,200.834 247.307,200.834 Z M247.307,202.834 L247.483273,202.839093 C249.05808,202.930339 250.307,204.236319 250.307,205.834 L250.307,400.833 L228.307,400.833 L228.307,205.834 C228.307,204.177146 229.650146,202.834 231.307,202.834 L247.307,202.834 Z" id="Rectangle-Copy-9" fill="#FF8C00" fill-rule="nonzero"></path>
            <path d="M301.307,70.834 L285.307,70.834 C282.545576,70.834 280.307,73.0725763 280.307,75.834 L280.307,402.834 L306.307,402.834 L306.307,75.834 C306.307,73.0725763 304.068424,70.834 301.307,70.834 Z M301.307,72.834 L301.483273,72.8390927 C303.05808,72.9303391 304.307,74.2363191 304.307,75.834 L304.307,400.833 L282.307,400.833 L282.307,75.834 C282.307,74.1771458 283.650146,72.834 285.307,72.834 L301.307,72.834 Z" id="Rectangle-Copy-11" fill="#FF8C00" fill-rule="nonzero"></path>
            <path d="M353.307,16.834 L337.307,16.834 C334.545576,16.834 332.307,19.0725763 332.307,21.834 L332.307,402.834 L358.307,402.834 L358.307,21.834 C358.307,19.0725763 356.068424,16.834 353.307,16.834 Z M353.307,18.834 L353.483273,18.8390927 C355.05808,18.9303391 356.307,20.2363191 356.307,21.834 L356.306,400.833 L334.306,400.833 L334.307,21.834 C334.307,20.1771458 335.650146,18.834 337.307,18.834 L353.307,18.834 Z" id="Rectangle-Copy-13" fill="#FF8C00" fill-rule="nonzero"></path>
            <path d="M405.307,70.834 L389.307,70.834 C386.545576,70.834 384.307,73.0725763 384.307,75.834 L384.307,402.834 L410.307,402.834 L410.307,75.834 C410.307,73.0725763 408.068424,70.834 405.307,70.834 Z M405.307,72.834 L405.483273,72.8390927 C407.05808,72.9303391 408.307,74.2363191 408.307,75.834 L408.306,400.833 L386.306,400.833 L386.307,75.834 C386.307,74.1771458 387.650146,72.834 389.307,72.834 L405.307,72.834 Z" id="Rectangle-Copy-15" fill="#FF8C00" fill-rule="nonzero"></path>
            <path d="M231.307,201.834 L247.307,201.834 C249.516139,201.834 251.307,203.624861 251.307,205.834 L251.307,401.834 L251.307,401.834 L227.307,401.834 L227.307,205.834 C227.307,203.624861 229.097861,201.834 231.307,201.834 Z" id="Rectangle-Copy-9" fill="#222F4F"></path>
            <path d="M285.307,71.834 L301.307,71.834 C303.516139,71.834 305.307,73.624861 305.307,75.834 L305.307,401.834 L305.307,401.834 L281.307,401.834 L281.307,75.834 C281.307,73.624861 283.097861,71.834 285.307,71.834 Z" id="Rectangle-Copy-11" fill="#222F4F"></path>
            <path d="M337.307,17.834 L353.307,17.834 C355.516139,17.834 357.307,19.624861 357.307,21.834 L357.307,401.834 L357.307,401.834 L333.307,401.834 L333.307,21.834 C333.307,19.624861 335.097861,17.834 337.307,17.834 Z" id="Rectangle-Copy-13" fill="#222F4F"></path>
            <path d="M389.307,71.834 L405.307,71.834 C407.516139,71.834 409.307,73.624861 409.307,75.834 L409.307,401.834 L409.307,401.834 L385.307,401.834 L385.307,75.834 C385.307,73.624861 387.097861,71.834 389.307,71.834 Z" id="Rectangle-Copy-15" fill="#222F4F"></path>
        </g>
    </g>
</svg>