<svg height="288pt" stroke-linejoin="round" viewBox="0 0 432 288" width="432pt" xmlns="http://www.w3.org/2000/svg" xmlns:xlink="http://www.w3.org/1999/xlink"><defs stroke-linejoin="round"><clipPath id="a" stroke-linejoin="round"><path d="m54 34.56h334.8v217.44h-334.8z"/></clipPath><path id="b" d="m0 0v3.5" stroke="#000" stroke-linejoin="round" stroke-width=".8"/><path id="c" d="m12.40625 8.296875h16.109375v55.625l-17.53125-3.515625v8.984375l17.4375 3.515625h9.859375v-64.609375h16.109375v-8.296875h-41.984375z" stroke-linejoin="round"/><path id="d" d="m10.796875 72.90625h38.71875v-8.3125h-29.6875v-17.859375q2.140625.734375 4.28125 1.09375 2.15625.359375 4.3125.359375 12.203125 0 19.328125-6.6875 7.140625-6.6875 7.140625-18.109375 0-11.765625-7.328125-18.296875-7.328125-6.515625-20.65625-6.515625-4.59375 0-9.359375.78125-4.75.78125-9.828125 2.34375v9.921875q4.390625-2.390625 9.078125-3.5625 4.6875-1.171875 9.90625-1.171875 8.453125 0 13.375 4.4375 4.9375 4.4375 4.9375 12.0625 0 7.609375-4.9375 12.046875-4.921875 4.453125-13.375 4.453125-3.953125 0-7.890625-.875-3.921875-.875-8.015625-2.734375z" stroke-linejoin="round"/><path id="e" d="m31.78125 66.40625q-7.609375 0-11.453125-7.5-3.828125-7.484375-3.828125-22.53125 0-14.984375 3.828125-22.484375 3.84375-7.5 11.453125-7.5 7.671875 0 11.5 7.5 3.84375 7.5 3.84375 22.484375 0 15.046875-3.84375 22.53125-3.828125 7.5-11.5 7.5zm0 7.8125q12.265625 0 18.734375-9.703125 6.46875-9.6875 6.46875-28.140625 0-18.40625-6.46875-28.109375-6.46875-9.6875-18.734375-9.6875-12.25 0-18.71875 9.6875-6.46875 9.703125-6.46875 28.109375 0 18.453125 6.46875 28.140625 6.46875 9.703125 18.71875 9.703125z" stroke-linejoin="round"/><path id="f" d="m56.203125 29.59375v-4.390625h-41.3125q.59375-9.28125 5.59375-14.140625 5-4.859375 13.9375-4.859375 5.171875 0 10.03125 1.265625 4.859375 1.265625 9.65625 3.8125v-8.5q-4.84375-2.046875-9.921875-3.125-5.078125-1.078125-10.296875-1.078125-13.09375 0-20.734375 7.609375-7.640625 7.625-7.640625 20.625 0 13.421875 7.25 21.296875 7.25 7.890625 19.5625 7.890625 11.03125 0 17.453125-7.109375 6.421875-7.09375 6.421875-19.296875zm-8.984375 2.640625q-.09375 7.359375-4.125 11.75-4.03125 4.40625-10.671875 4.40625-7.515625 0-12.03125-4.25-4.515625-4.25-5.203125-11.96875z" stroke-linejoin="round"/><path id="g" d="m9.421875 54.6875h8.984375v-54.6875h-8.984375zm0 21.296875h8.984375v-11.390625h-8.984375z" stroke-linejoin="round"/><path id="h" d="m18.3125 70.21875v-15.53125h18.5v-6.984375h-18.5v-29.6875q0-6.6875 1.828125-8.59375 1.828125-1.90625 7.453125-1.90625h9.21875v-7.515625h-9.21875q-10.40625 0-14.359375 3.875-3.953125 3.890625-3.953125 14.140625v29.6875h-6.59375v6.984375h6.59375v15.53125z" stroke-linejoin="round"/><path id="i" d="m44.28125 53.078125v-8.5q-3.796875 1.953125-7.90625 2.921875-4.09375.984375-8.5.984375-6.6875 0-10.03125-2.046875-3.34375-2.046875-3.34375-6.15625 0-3.125 2.390625-4.90625 2.390625-1.78125 9.625-3.390625l3.078125-.6875q9.5625-2.046875 13.59375-5.78125 4.03125-3.734375 4.03125-10.421875 0-7.625-6.03125-12.078125-6.03125-4.4375-16.578125-4.4375-4.390625 0-9.15625.859375-4.765625.859375-10.03125 2.5625v9.28125q4.984375-2.59375 9.8125-3.890625 4.828125-1.28125 9.578125-1.28125 6.34375 0 9.75 2.171875 3.421875 2.171875 3.421875 6.125 0 3.65625-2.46875 5.609375-2.453125 1.953125-10.8125 3.765625l-3.125.734375q-8.34375 1.75-12.0625 5.390625-3.703125 3.640625-3.703125 9.984375 0 7.71875 5.46875 11.90625 5.46875 4.203125 15.53125 4.203125 4.96875 0 9.359375-.734375 4.40625-.71875 8.109375-2.1875z" stroke-linejoin="round"/><path id="j" d="m54.890625 33.015625v-33.015625h-8.984375v32.71875q0 7.765625-3.03125 11.609375-3.03125 3.859375-9.078125 3.859375-7.28125 0-11.484375-4.640625-4.203125-4.625-4.203125-12.640625v-30.90625h-9.03125v54.6875h9.03125v-8.5q3.234375 4.9375 7.59375 7.375 4.375 2.4375 10.09375 2.4375 9.421875 0 14.25-5.828125 4.84375-5.828125 4.84375-17.15625z" stroke-linejoin="round"/><path id="k" d="m0 0h-3.5" stroke="#000" stroke-linejoin="round" stroke-width=".8"/><path id="l" d="m10.6875 12.40625h10.3125v-12.40625h-10.3125z" stroke-linejoin="round"/><path id="m" d="m48.6875 27.296875q0 9.90625-4.078125 15.546875-4.078125 5.640625-11.203125 5.640625-7.140625 0-11.21875-5.640625-4.078125-5.640625-4.078125-15.546875 0-9.90625 4.078125-15.546875 4.078125-5.640625 11.21875-5.640625 7.125 0 11.203125 5.640625 4.078125 5.640625 4.078125 15.546875zm-30.578125 19.09375q2.84375 4.875 7.15625 7.234375 4.328125 2.375 10.328125 2.375 9.96875 0 16.1875-7.90625 6.234375-7.90625 6.234375-20.796875 0-12.890625-6.234375-20.8125-6.21875-7.90625-16.1875-7.90625-6 0-10.328125 2.375-4.3125 2.375-7.15625 7.25v-8.203125h-9.03125v75.984375h9.03125z" stroke-linejoin="round"/><path id="n" d="m32.171875-5.078125q-3.796875-9.765625-7.421875-12.734375-3.609375-2.984375-9.65625-2.984375h-7.1875v7.515625h5.28125q3.703125 0 5.75 1.765625 2.0625 1.75 4.546875 8.296875l1.609375 4.09375-22.109375 53.8125h9.515625l17.09375-42.765625 17.09375 42.765625h9.515625z" stroke-linejoin="round"/></defs><g stroke-linejoin="round"><path d="m0 288h432v-288h-432z" fill="none"/><g><g stroke-linejoin="round"><path d="m54 252h334.8v-217.44h-334.8z" fill="#fff"/><path clip-path="url(#a)" d="m69.218182 242.116364v-2.195946l.063422-.008249.063422-.008276.063423-.008303.063422-.008332.063422-.008359.063423-.008387.063422-.008415.063422-.008442.063423-.008471.063422-.008499.063422-.008528.063422-.008555.063423-.008584.063422-.008613.063422-.008641.063423-.008669.063422-.008699.063422-.008727.063423-.008756.063422-.008785.063422-.008814.063423-.008843.063422-.008872.063422-.008902.063422-.00893.063423-.008961.063422-.00899.063422-.009019.063423-.009049.063422-.009079.063422-.009109.063423-.009138.063422-.009169.063422-.009199.063422-.009228.063423-.009259.063422-.00929.063422-.00932.063423-.00935.063422-.009381.063422-.009412.063423-.009442.063422-.009473.063422-.009504.063422-.009535.063423-.009567.063422-.009597.063422-.009629.063423-.00966.063422-.009691.063422-.009723.063423-.009754.063422-.009787.063422-.009818.063423-.009849.063422-.009882.063422-.009914.063422-.009946.063423-.009978.063422-.01001.063422-.010043.063423-.010075.063422-.010108.063422-.010141.063423-.010173.063422-.010206.063422-.010239.063422-.010271.063423-.010305.063422-.010338.063422-.010372.063423-.010404.063422-.010438.063422-.010472.063423-.010505.063422-.010539.063422-.010573.063423-.010607.063422-.01064.063422-.010675.063422-.010709.063423-.010743.063422-.010777.063422-.010812.063423-.010846.063422-.010881.063422-.010916.063423-.01095.063422-.010985.063422-.01102.063422-.011056.063423-.01109.063422-.011126.063422-.011161.063423-.011196.063422-.011232.063422-.011268.063423-.011303.063422-.011339.063422-.011375.063423-.011411.063422-.011447.063422-.011483.063422-.01152.063423-.011556.063422-.011592.063422-.011629.063423-.011666.063422-.011702.063422-.011739.063423-.011776.063422-.011813.063422-.01185.063422-.011888.063423-.011925.063422-.011962.063422-.011999.063423-.012038.063422-.012075.063422-.012113.063423-.01215.063422-.012189.063422-.012227.063423-.012265.063422-.012303.063422-.012342.063422-.01238.063423-.012419.063422-.012457.063422-.012496.063423-.012535.063422-.012574.063422-.012613.063423-.012653.063422-.012691.063422-.012731.063422-.012771.063423-.01281.063422-.012849.063422-.01289.063423-.012929.063422-.012969.063422-.01301.063423-.013049.063422-.01309.063422-.01313.063422-.013171.063423-.013211.063422-.013252.063422-.013293.063423-.013333.063422-.013375.063422-.013416.063423-.013457.063422-.013498.063422-.013539.063423-.013581.063422-.013623.063422-.013664.063422-.013707.063423-.013748.063422-.01379.063422-.013832.063423-.013875.063422-.013917.063422-.013959.063423-.014002.063422-.014044.063422-.014087.063422-.01413.063423-.014173.063422-.014217.063422-.014259.063423-.014302.063422-.014346.063422-.01439.063423-.014433.063422-.014477.063422-.01452.063423-.014565.063422-.014608.063422-.014653.063422-.014697.063423-.014741.063422-.014786.063422-.01483.063423-.014875.063422-.014919.063422-.014965.063423-.01501.063422-.015054.063422-.0151.063422-.015145.063423-.015191.063422-.015236.063422-.015282.063423-.015328.063422-.015373.063422-.01542.063423-.015465.063422-.015512.063422-.015558.063423-.015605.063422-.015651.063422-.015697.063422-.015745.063423-.015791.063422-.015838.063422-.015886.063423-.015932.063422-.01598.063422-.016027.063423-.016075.063422-.016123.063422-.01617.063422-.016218.063423-.016266.063422-.016315.063422-.016362.063423-.016411.063422-.016459.063422-.016508.063423-.016556.063422-.016606.063422-.016654.063422-.016703.063423-.016752.063422-.016802.063422-.016851.063423-.0169.063422-.01695.063422-.016999.063423-.01705.063422-.017099.063422-.01715.063423-.017199.063422-.01725.063422-.0173.063422-.017351.063423-.017402.063422-.017452.063422-.017503.063423-.017554.063422-.017605.063422-.017656.063423-.017708.063422-.017759.063422-.017811.063422-.017862.063423-.017914.063422-.017966.063422-.018019.063423-.01807.063422-.018123.063422-.018175.063423-.018227.063422-.01828.063422-.018333.063423-.018386.063422-.018439.063422-.018491.063422-.018546.063423-.018598.063422-.018652.063422-.018705.063423-.01876.063422-.018813.063422-.018867.063423-.018921.063422-.018975.063422-.01903.063422-.019084.063423-.019139.063422-.019193.063422-.019248.063423-.019303.063422-.019358.063422-.019414.063423-.019468.063422-.019524.063422-.01958.063423-.019635.063422-.019691.063422-.019747.063422-.019803.063423-.019859.063422-.019916.063422-.019971.063423-.020029.063422-.020085.063422-.020142.063423-.020198.063422-.020256.063422-.020313.063422-.02037.063423-.020427.063422-.020486.063422-.020542.063423-.020601.063422-.020658.063422-.020717.063423-.020774.063422-.020833.063422-.020891.063423-.02095.063422-.021009.063422-.021067.063422-.021126.063423-.021185.063422-.021245.063422-.021303.063423-.021363.063422-.021423.063422-.021482.063423-.021542.063422-.021603.063422-.021662.063422-.021722.063423-.021783.063422-.021843.063422-.021903.063423-.021965.063422-.022025.063422-.022086.063423-.022147.063422-.022208.063422-.02227.063422-.022331.063423-.022393.063422-.022455.063422-.022516.063423-.022579.063422-.02264.063422-.022703.063423-.022765.063422-.022828.063422-.02289.063423-.022954.063422-.023016.063422-.023079.063422-.023142.063423-.023206.063422-.023269.063422-.023332.063423-.023396.063422-.02346.063422-.023524.063423-.023589.063422-.023652.063422-.023717.063422-.023781.063423-.023845.063422-.023911.063422-.023975.063423-.024041.063422-.024105.063422-.024171.063423-.024237.063422-.024301.063422-.024368.063423-.024433.063422-.0245.063422-.024565.063422-.024632.063423-.024698.063422-.024764.063422-.024831.063423-.024898.063422-.024964.063422-.025032.063423-.025099.063422-.025166.063422-.025234.063422-.025301.063423-.025369.063422-.025436.063422-.025505.063423-.025573.063422-.025641.063422-.025709.063423-.025778.063422-.025846.063422-.025916.063423-.025984.063422-.026053.063422-.026122.063422-.026192.063423-.026261.063422-.026331.063422-.026401.063423-.02647.063422-.026541.063422-.02661.063423-.026681.063422-.026751.063422-.026822.063422-.026893.063423-.026963.063422-.027034.063422-.027106.063423-.027177.063422-.027248.063422-.027319.063423-.027391.063422-.027464.063422-.027534.063423-.027608.063422-.027679.063422-.027751.063422-.027825.063423-.027896.063422-.02797.063422-.028042.063423-.028116.063422-.028188.063422-.028262.063423-.028336.063422-.028409.063422-.028482.063422-.028557.063423-.028631.063422-.028705.063422-.028779.063423-.028853.063422-.028929.063422-.029002.063423-.029078.063422-.029153.063422-.029228.063422-.029303.063423-.029378.063422-.029455.063422-.029529.063423-.029606.063422-.029682.063422-.029758.063423-.029834.063422-.02991.063422-.029987.063423-.030064.063422-.03014.063422-.030218.063422-.030294.063423-.030372.063422-.030449.063422-.030527.063423-.030605.063422-.030682.063422-.03076.063423-.030839.063422-.030916.063422-.030995.063422-.031074.063423-.031152.063422-.031231.063422-.03131.063423-.031389.063422-.031468.063422-.031548.063423-.031627.063422-.031707.063422-.031787.063423-.031866.063422-.031947.063422-.032027.063422-.032107.063423-.032188.063422-.032269.063422-.032349.063423-.03243.063422-.032512.063422-.032592.063423-.032674.063422-.032756.063422-.032837.063422-.032919.063423-.033001.063422-.033083.063422-.033165.063423-.033248.063422-.03333.063422-.033413.063423-.033496.063422-.033579.063422-.033661.063423-.033745.063422-.033829.063422-.033912.063422-.033995.063423-.03408.063422-.034163.063422-.034248.063423-.034331.063422-.034417.063422-.0345.063423-.034586.063422-.03467.063422-.034755.063422-.034841.063423-.034925.063422-.035011.063422-.035097.063423-.035182.063422-.035268.063422-.035354.063423-.03544.063422-.035527.063422-.035613.063422-.035699.063423-.035786.063422-.035873.063422-.03596.063423-.036048.063422-.036134.063422-.036222.063423-.036309.063422-.036398.063422-.036485.063423-.036573.063422-.036661.063422-.036749.063422-.036838.063423-.036927.063422-.037015.063422-.037104.063423-.037193.063422-.037283.063422-.037371.063423-.037461.063422-.037551.063422-.03764.063422-.037731.063423-.03782.063422-.037911.063422-.038.063423-.038092.063422-.038182.063422-.038272.063423-.038364.063422-.038455.063422-.038545.063423-.038638.063422-.038728.063422-.038821.063422-.038912.063423-.039004.063422-.039096.063422-.039188.063423-.03928.063422-.039374.063422-.039465.063423-.039559.063422-.039651.063422-.039745.063422-.039837.063423-.039931.063422-.040025.063422-.040118.063423-.040212.063422-.040306.063422-.0404.063423-.040495.063422-.040588.063422-.040683.063423-.040778.063422-.040873.063422-.040968.063422-.041062.063423-.041158.063422-.041253.063422-.041349.063423-.041445.063422-.04154.063422-.041636.063423-.041733.063422-.041828.063422-.041925.063422-.042022.063423-.042118.063422-.042215.063422-.042312.063423-.042409.063422-.042507.063422-.042603.063423-.042702.063422-.042799.063422-.042897.063423-.042994.063422-.043093.063422-.043191.063422-.04329.063423-.043388.063422-.043487.063422-.043585.063423-.043685.063422-.043784.063422-.043883.063423-.043982.063422-.044082.063422-.044181.063422-.044282.063423-.044381.063422-.044482.063422-.044581.063423-.044683.063422-.044782.063422-.044884.063423-.044984.063422-.045085.063422-.045186.063422-.045288.063423-.045389.063422-.04549.063422-.045592.063423-.045694.063422-.045796.063422-.045898.063423-.046.063422-.046103.063422-.046205.063423-.046308.063422-.04641.063422-.046514.063422-.046617.063423-.046719.063422-.046824.063422-.046926.063423-.047031.063422-.047134.063422-.047238.063423-.047342.063422-.047447.063422-.04755.063422-.047656.063423-.047759.063422-.047865.063422-.04797.063423-.048074.063422-.04818.063422-.048285.063423-.048391.063422-.048496.063422-.048602.063423-.048707.063422-.048814.063422-.04892.063422-.049026.063423-.049133.063422-.049239.063422-.049346.063423-.049453.063422-.04956.063422-.049667.063423-.049774.063422-.049882.063422-.049989.063422-.050096.063423-.050205.063422-.050313.063422-.05042.063423-.050529.063422-.050637.063422-.050746.063423-.050854.063422-.050963.063422-.051072.063423-.051181.063422-.051291.063422-.051399.063422-.051509.063423-.051619.063422-.051728.063422-.051838.063423-.051948.063422-.052058.063422-.052169.063423-.052278.063422-.05239.063422-.0525.063422-.05261.063423-.052722.063422-.052833.063422-.052944.063423-.053055.063422-.053167.063422-.053278.063423-.05339.063422-.053502.063422-.053614.063423-.053726.063422-.053838.063422-.053951.063422-.054063.063423-.054175.063422-.054289.063422-.054401.063423-.054515.063422-.054627.063422-.054741.063423-.054855.063422-.054968.063422-.055081.063422-.055196.063423-.055309.063422-.055423.063422-.055538.063423-.055652.063422-.055766.063422-.055882.063423-.055995.063422-.056111.063422-.056225.063422-.056341.063423-.056456.063422-.056571.063422-.056687.063423-.056802.063422-.056918.063422-.057034.063423-.05715.063422-.057266.063422-.057383.063423-.057498.063422-.057616.063422-.057731.063422-.057849.063423-.057965.063422-.058083.063422-.058199.063423-.058317.063422-.058434.063422-.058552.063423-.058669.063422-.058787.063422-.058905.063422-.059023.063423-.059141.063422-.059259.063422-.059378.063423-.059496.063422-.059614.063422-.059734.063423-.059852.063422-.059971.063422-.06009.063423-.060209.063422-.060329.063422-.060448.063422-.060568.063423-.060687.063422-.060807.063422-.060928.063423-.061047.063422-.061167.063422-.061288.063423-.061408.063422-.061528.063422-.061649.063422-.06177.063423-.061891.063422-.062011.063422-.062133.063423-.062254.063422-.062375.063422-.062497.063423-.062618.063422-.06274.063422-.062862.063423-.062983.063422-.063106.063422-.063228.063422-.06335.063423-.063472.063422-.063595.063422-.063717.063423-.06384.063422-.063963.063422-.064086.063423-.064209.063422-.064332.063422-.064455.063422-.064579.063423-.064702.063422-.064825.063422-.064949.063423-.065074.063422-.065197.063422-.065321.063423-.065445.063422-.065569.063422-.065694.063422-.065818.063423-.065943.063422-.066067.063422-.066192.063423-.066317.063422-.066442.063422-.066567.063423-.066692.063422-.066818.063422-.066943.063423-.067068.063422-.067194.063422-.06732.063422-.067446.063423-.067571.063422-.067698.063422-.067823.063423-.06795.063422-.068077.063422-.068202.063423-.068329.063422-.068456.063422-.068583.063422-.068709.063423-.068836.063422-.068964.063422-.06909.063423-.069218.063422-.069345.063422-.069472.063423-.0696.063422-.069728.063422-.069855.063423-.069983.063422-.070111.063422-.070239.063422-.070367.063423-.070496.063422-.070623.063422-.070752.063423-.070881.063422-.071009.063422-.071137.063423-.071267.063422-.071395.063422-.071524.063422-.071653.063423-.071783.063422-.071911.063422-.072041.063423-.07217.063422-.0723.063422-.07243.063423-.072559.063422-.072688.063422-.072819.063423-.072948.063422-.073079.063422-.073208.063422-.073339.063423-.073469.063422-.0736.063422-.07373.063423-.07386.063422-.073991.063422-.074122.063423-.074252.063422-.074384.063422-.074514.063422-.074645.063423-.074777.063422-.074907.063422-.075039.063423-.075171.063422-.075301.063422-.075433.063423-.075565.063422-.075697.063422-.075828.063423-.07596.063422-.076092.063422-.076224.063422-.076356.063423-.076488.063422-.076621.063422-.076752.063423-.076885.063422-.077018.063422-.07715.063423-.077282.063422-.077416.063422-.077548.063422-.07768.063423-.077814.063422-.077947.063422-.078079.063423-.078213.063422-.078346.063422-.078479.063423-.078612.063422-.078746.063422-.078879.063422-.079013.063423-.079146.063422-.07928.063422-.079414.063423-.079548.063422-.079681.063422-.079815.063423-.079949.063422-.080083.063422-.080218.063423-.080351.063422-.080486.063422-.08062.063422-.080754.063423-.080889.063422-.081023.063422-.081158.063423-.081292.063422-.081427.063422-.081561.063423-.081697.063422-.081831.063422-.081966.063422-.082101.063423-.082236.063422-.082371.063422-.082506.063423-.082642.063422-.082776.063422-.082912.063423-.083047.063422-.083183.063422-.083318.063423-.083453.063422-.083589.063422-.083725.063422-.08386.063423-.083996.063422-.084131.063422-.084268.063423-.084403.063422-.084539.063422-.084675.063423-.084811.063422-.084947.063422-.085083.063422-.085219.063423-.085355.063422-.085491.063422-.085628.063423-.085764.063422-.0859.063422-.086037.063423-.086173.063422-.086309.063422-.086446.063423-.086583.063422-.086719.063422-.086855.063422-.086992.063423-.087129.063422-.087266.063422-.087402.063423-.087539.063422-.087676.063422-.087813.063423-.08795.063422-.088087.063422-.088223.063422-.088361.063423-.088497.063422-.088635.063422-.088771.063423-.088909.063422-.089046.063422-.089183.063423-.089321.063422-.089457.063422-.089595.063423-.089732.063422-.089869.063422-.090007.063422-.090144.063423-.090281.063422-.090419.063422-.090556.063423-.090693.063422-.090832.063422-.090968.063423-.091106.063422-.091244.063422-.091381.063422-.091518.063423-.091657.063422-.091794.063422-.091931.063423-.092069.063422-.092207.063422-.092344.063423-.092482.063422-.09262.063422-.092757.063422-.092896.063423-.093033.063422-.09317.063422-.093309.063423-.093446.063422-.093584.063422-.093721.063423-.09386.063422-.093997.063422-.094135.063423-.094273.063422-.094411.063422-.094548.063422-.094686.063423-.094825.063422-.094962.063422-.095099.063423-.095238.063422-.095375.063422-.095514.063423-.095651.063422-.095789.063422-.095927.063422-.096064.063423-.096203.063422-.09634.063422-.096478.063423-.096616.063422-.096754.063422-.096891.063423-.09703.063422-.097167.063422-.097304.063423-.097443.063422-.097581.063422-.097718.063422-.097856.063423-.097993.063422-.098132.063422-.098269.063423-.098407.063422-.098544.063422-.098682.063423-.09882.063422-.098957.063422-.099095.063422-.099233.063423-.09937.063422-.099508.063422-.099645.063423-.099783.063422-.09992.063422-.100058.063423-.100195.063422-.100333.063422-.10047.063423-.100608.063422-.100745.063422-.100882.063422-.101019.063423-.101157.063422-.101294.063422-.101432.063423-.101568.063422-.101706.063422-.101842.063423-.10198.063422-.102117.063422-.102254.063422-.102391.063423-.102528.063422-.102665.063422-.102802.063423-.102939.063422-.103076.063422-.103212.063423-.103349.063422-.103486.063422-.103622.063422-.103759.063423-.103896.063422-.104032.063422-.104169.063423-.104306.063422-.104441.063422-.104578.063423-.104715.063422-.10485.063422-.104987.063423-.105123.063422-.10526.063422-.105395.063422-.105531.063423-.105668.063422-.105803.063422-.105939.063423-.106075.063422-.106211.063422-.106347.063423-.106482.063422-.106618.063422-.106753.063422-.106889.063423-.107024.063422-.10716.063422-.107295.063423-.10743.063422-.107566.063422-.1077.063423-.107836.063422-.107971.063422-.108106.063423-.10824.063422-.108375.063422-.108511.063422-.108644.063423-.10878.063422-.108914.063422-.109048.063423-.109183.063422-.109317.063422-.109452.063423-.109585.063422-.10972.063422-.109854.063422-.109988.063423-.110121.063422-.110256.063422-.110389.063423-.110523.063422-.110656.063422-.11079.063423-.110923.063422-.111057.063422-.11119.063423-.111323.063422-.111456.063422-.11159.063422-.111722.063423-.111855.063422-.111987.063422-.112121.063423-.112253.063422-.112385.063422-.112518.063423-.11265.063422-.112782.063422-.112914.063422-.113047.063423-.113178.063422-.11331.063422-.113442.063423-.113574.063422-.113705.063422-.113836.063423-.113968.063422-.114099.063422-.114231.063423-.114361.063422-.114492.063422-.114623.063422-.114754.063423-.114884.063422-.115015.063422-.115146.063423-.115275.063422-.115406.063422-.115536.063423-.115666.063422-.115796.063422-.115926.063422-.116055.063423-.116185.063422-.116314.063422-.116443.063423-.116573.063422-.116702.063422-.116831.063423-.116959.063422-.117088.063422-.117217.063422-.117346.063423-.117473.063422-.117602.063422-.11773.063423-.117859.063422-.117986.063422-.118113.063423-.118242.063422-.118368.063422-.118496.063423-.118624.063422-.11875.063422-.118878.063422-.119004.063423-.119131.063422-.119258.063422-.119384.063423-.11951.063422-.119637.063422-.119762.063423-.119889.063422-.120014.063422-.12014.063422-.120265.063423-.120391.063422-.120516.063422-.12064.063423-.120766.063422-.120891.063422-.121015.063423-.12114.063422-.121264.063422-.121388.063423-.121512.063422-.121636.063422-.12176.063422-.121884.063423-.122007.063422-.12213.063422-.122253.063423-.122377.063422-.122499.063422-.122622.063423-.122744.063422-.122866.063422-.122989.063422-.123111.063423-.123233.063422-.123354.063422-.123476.063423-.123598.063422-.123718.063422-.12384.063423-.123961.063422-.124081.063422-.124202.063423-.124322.063422-.124442.063422-.124563.063422-.124682.063423-.124802.063422-.124922.063422-.125041.063423-.12516.063422-.125279.063422-.125398.063423-.125517.063422-.125635.063422-.125754.063422-.125871.063423-.12599.063422-.126107.063422-.126225.063423-.126342.063422-.12646.063422-.126576.063423-.126694.063422-.12681.063422-.126926.063423-.127043.063422-.127159.063422-.127275.063422-.12739.063423-.127506.063422-.127621.063422-.127737.063423-.127851.063422-.127966.063422-.128081.063423-.128195.063422-.128309.063422-.128423.063422-.128537.063423-.12865.063422-.128764.063422-.128877.063423-.12899.063422-.129102.063422-.129216.063423-.129327.063422-.12944.063422-.129551.063422-.129663.063423-.129775.063422-.129886.063422-.129997.063423-.130108.063422-.130218.063422-.130329.063423-.130439.063422-.13055.063422-.130659.063423-.130768.063422-.130878.063422-.130987.063422-.131096.063423-.131204.063422-.131314.063422-.131421.063423-.131529.063422-.131637.063422-.131745.063423-.131852.063422-.131959.063422-.132066.063422-.132173.063423-.132279.063422-.132385.063422-.132492.063423-.132597.063422-.132702.063422-.132808.063423-.132913.063422-.133017.063422-.133122.063423-.133227.063422-.13333.063422-.133435.063422-.133537.063423-.133642.063422-.133744.063422-.133847.063423-.13395.063422-.134053.063422-.134154.063423-.134256.063422-.134358.063422-.134459.063422-.134561.063423-.134661.063422-.134762.063422-.134862.063423-.134963.063422-.135062.063422-.135162.063423-.135262.063422-.13536.063422-.135459.063423-.135558.063422-.135656.063422-.135754.063422-.135852.063423-.13595.063422-.136047.063422-.136144.063423-.13624.063422-.136338.063422-.136433.063423-.136529.063422-.136625.063422-.136721.063422-.136815.063423-.136911.063422-.137005.063422-.137099.063423-.137193.063422-.137287.063422-.137381.063423-.137474.063422-.137567.063422-.137659.063422-.137752.063423-.137844.063422-.137936.063422-.138027.063423-.138119.063422-.138209.063422-.138301.063423-.13839.063422-.138481.063422-.138571.063423-.13866.063422-.13875.063422-.138838.063422-.138927.063423-.139016.063422-.139103.063422-.139192.063423-.139279.063422-.139366.063422-.139453.063423-.139539.063422-.139626.063422-.139712.063422-.139798.063423-.139883.063422-.139968.063422-.140053.063423-.140138.063422-.140222.063422-.140305.063423-.140389.063422-.140473.063422-.140556.063423-.140638.063422-.14072.063422-.140803.063422-.140884.063423-.140966.063422-.141047.063422-.141128.063423-.141208.063422-.141288.063422-.141369.063423-.141447.063422-.141527.063422-.141606.063422-.141685.063423-.141763.063422-.14184.063422-.141919.063423-.141995.063422-.142073.063422-.142149.063423-.142226.063422-.142301.063422-.142378.063423-.142452.063422-.142528.063422-.142602.063422-.142677.063423-.14275.063422-.142825.063422-.142897.063423-.142971.063422-.143043.063422-.143116.063423-.143188.063422-.143259.063422-.143331.063422-.143402.063423-.143472.063422-.143543.063422-.143612.063423-.143683.063422-.143751.063422-.143821.063423-.143889.063422-.143957.063422-.144025v95.640873h-.063422-.063422-.063423-.063422-.063422-.063423-.063422-.063422-.063423-.063422-.063422-.063422-.063423-.063422-.063422-.063423-.063422-.063422-.063423-.063422-.063422-.063422-.063423-.063422-.063422-.063423-.063422-.063422-.063423-.063422-.063422-.063423-.063422-.063422-.063422-.063423-.063422-.063422-.063423-.063422-.063422-.063423-.063422-.063422-.063422-.063423-.063422-.063422-.063423-.063422-.063422-.063423-.063422-.063422-.063423-.063422-.063422-.063422-.063423-.063422-.063422-.063423-.063422-.063422-.063423-.063422-.063422-.063422-.063423-.063422-.063422-.063423-.063422-.063422-.063423-.063422-.063422-.063423-.063422-.063422-.063422-.063423-.063422-.063422-.063423-.063422-.063422-.063423-.063422-.063422-.063422-.063423-.063422-.063422-.063423-.063422-.063422-.063423-.063422-.063422-.063422-.063423-.063422-.063422-.063423-.063422-.063422-.063423-.063422-.063422-.063423-.063422-.063422-.063422-.063423-.063422-.063422-.063423-.063422-.063422-.063423-.063422-.063422-.063422-.063423-.063422-.063422-.063423-.063422-.063422-.063423-.063422-.063422-.063423-.063422-.063422-.063422-.063423-.063422-.063422-.063423-.063422-.063422-.063423-.063422-.063422-.063422-.063423-.063422-.063422-.063423-.063422-.063422-.063423-.063422-.063422-.063423-.063422-.063422-.063422-.063423-.063422-.063422-.063423-.063422-.063422-.063423-.063422-.063422-.063422-.063423-.063422-.063422-.063423-.063422-.063422-.063423-.063422-.063422-.063422-.063423-.063422-.063422-.063423-.063422-.063422-.063423-.063422-.063422-.063423-.063422-.063422-.063422-.063423-.063422-.063422-.063423-.063422-.063422-.063423-.063422-.063422-.063422-.063423-.063422-.063422-.063423-.063422-.063422-.063423-.063422-.063422-.063423-.063422-.063422-.063422-.063423-.063422-.063422-.063423-.063422-.063422-.063423-.063422-.063422-.063422-.063423-.063422-.063422-.063423-.063422-.063422-.063423-.063422-.063422-.063423-.063422-.063422-.063422-.063423-.063422-.063422-.063423-.063422-.063422-.063423-.063422-.063422-.063422-.063423-.063422-.063422-.063423-.063422-.063422-.063423-.063422-.063422-.063423-.063422-.063422-.063422-.063423-.063422-.063422-.063423-.063422-.063422-.063423-.063422-.063422-.063422-.063423-.063422-.063422-.063423-.063422-.063422-.063423-.063422-.063422-.063422-.063423-.063422-.063422-.063423-.063422-.063422-.063423-.063422-.063422-.063423-.063422-.063422-.063422-.063423-.063422-.063422-.063423-.063422-.063422-.063423-.063422-.063422-.063422-.063423-.063422-.063422-.063423-.063422-.063422-.063423-.063422-.063422-.063423-.063422-.063422-.063422-.063423-.063422-.063422-.063423-.063422-.063422-.063423-.063422-.063422-.063422-.063423-.063422-.063422-.063423-.063422-.063422-.063423-.063422-.063422-.063423-.063422-.063422-.063422-.063423-.063422-.063422-.063423-.063422-.063422-.063423-.063422-.063422-.063422-.063423-.063422-.063422-.063423-.063422-.063422-.063423-.063422-.063422-.063423-.063422-.063422-.063422-.063423-.063422-.063422-.063423-.063422-.063422-.063423-.063422-.063422-.063422-.063423-.063422-.063422-.063423-.063422-.063422-.063423-.063422-.063422-.063422-.063423-.063422-.063422-.063423-.063422-.063422-.063423-.063422-.063422-.063423-.063422-.063422-.063422-.063423-.063422-.063422-.063423-.063422-.063422-.063423-.063422-.063422-.063422-.063423-.063422-.063422-.063423-.063422-.063422-.063423-.063422-.063422-.063423-.063422-.063422-.063422-.063423-.063422-.063422-.063423-.063422-.063422-.063423-.063422-.063422-.063422-.063423-.063422-.063422-.063423-.063422-.063422-.063423-.063422-.063422-.063423-.063422-.063422-.063422-.063423-.063422-.063422-.063423-.063422-.063422-.063423-.063422-.063422-.063422-.063423-.063422-.063422-.063423-.063422-.063422-.063423-.063422-.063422-.063422-.063423-.063422-.063422-.063423-.063422-.063422-.063423-.063422-.063422-.063423-.063422-.063422-.063422-.063423-.063422-.063422-.063423-.063422-.063422-.063423-.063422-.063422-.063422-.063423-.063422-.063422-.063423-.063422-.063422-.063423-.063422-.063422-.063423-.063422-.063422-.063422-.063423-.063422-.063422-.063423-.063422-.063422-.063423-.063422-.063422-.063422-.063423-.063422-.063422-.063423-.063422-.063422-.063423-.063422-.063422-.063423-.063422-.063422-.063422-.063423-.063422-.063422-.063423-.063422-.063422-.063423-.063422-.063422-.063422-.063423-.063422-.063422-.063423-.063422-.063422-.063423-.063422-.063422-.063423-.063422-.063422-.063422-.063423-.063422-.063422-.063423-.063422-.063422-.063423-.063422-.063422-.063422-.063423-.063422-.063422-.063423-.063422-.063422-.063423-.063422-.063422-.063422-.063423-.063422-.063422-.063423-.063422-.063422-.063423-.063422-.063422-.063423-.063422-.063422-.063422-.063423-.063422-.063422-.063423-.063422-.063422-.063423-.063422-.063422-.063422-.063423-.063422-.063422-.063423-.063422-.063422-.063423-.063422-.063422-.063423-.063422-.063422-.063422-.063423-.063422-.063422-.063423-.063422-.063422-.063423-.063422-.063422-.063422-.063423-.063422-.063422-.063423-.063422-.063422-.063423-.063422-.063422-.063423-.063422-.063422-.063422-.063423-.063422-.063422-.063423-.063422-.063422-.063423-.063422-.063422-.063422-.063423-.063422-.063422-.063423-.063422-.063422-.063423-.063422-.063422-.063423-.063422-.063422-.063422-.063423-.063422-.063422-.063423-.063422-.063422-.063423-.063422-.063422-.063422-.063423-.063422-.063422-.063423-.063422-.063422-.063423-.063422-.063422-.063422-.063423-.063422-.063422-.063423-.063422-.063422-.063423-.063422-.063422-.063423-.063422-.063422-.063422-.063423-.063422-.063422-.063423-.063422-.063422-.063423-.063422-.063422-.063422-.063423-.063422-.063422-.063423-.063422-.063422-.063423-.063422-.063422-.063423-.063422-.063422-.063422-.063423-.063422-.063422-.063423-.063422-.063422-.063423-.063422-.063422-.063422-.063423-.063422-.063422-.063423-.063422-.063422-.063423-.063422-.063422-.063423-.063422-.063422-.063422-.063423-.063422-.063422-.063423-.063422-.063422-.063423-.063422-.063422-.063422-.063423-.063422-.063422-.063423-.063422-.063422-.063423-.063422-.063422-.063422-.063423-.063422-.063422-.063423-.063422-.063422-.063423-.063422-.063422-.063423-.063422-.063422-.063422-.063423-.063422-.063422-.063423-.063422-.063422-.063423-.063422-.063422-.063422-.063423-.063422-.063422-.063423-.063422-.063422-.063423-.063422-.063422-.063423-.063422-.063422-.063422-.063423-.063422-.063422-.063423-.063422-.063422-.063423-.063422-.063422-.063422-.063423-.063422-.063422-.063423-.063422-.063422-.063423-.063422-.063422-.063423-.063422-.063422-.063422-.063423-.063422-.063422-.063423-.063422-.063422-.063423-.063422-.063422-.063422-.063423-.063422-.063422-.063423-.063422-.063422-.063423-.063422-.063422-.063423-.063422-.063422-.063422-.063423-.063422-.063422-.063423-.063422-.063422-.063423-.063422-.063422-.063422-.063423-.063422-.063422-.063423-.063422-.063422-.063423-.063422-.063422-.063422-.063423-.063422-.063422-.063423-.063422-.063422-.063423-.063422-.063422-.063423-.063422-.063422-.063422-.063423-.063422-.063422-.063423-.063422-.063422-.063423-.063422-.063422-.063422-.063423-.063422-.063422-.063423-.063422-.063422-.063423-.063422-.063422-.063423-.063422-.063422-.063422-.063423-.063422-.063422-.063423-.063422-.063422-.063423-.063422-.063422-.063422-.063423-.063422-.063422-.063423-.063422-.063422-.063423-.063422-.063422-.063423-.063422-.063422-.063422-.063423-.063422-.063422-.063423-.063422-.063422-.063423-.063422-.063422-.063422-.063423-.063422-.063422-.063423-.063422-.063422-.063423-.063422-.063422-.063423-.063422-.063422-.063422-.063423-.063422-.063422-.063423-.063422-.063422-.063423-.063422-.063422-.063422-.063423-.063422-.063422-.063423-.063422-.063422-.063423-.063422-.063422-.063422-.063423-.063422-.063422-.063423-.063422-.063422-.063423-.063422-.063422-.063423-.063422-.063422-.063422-.063423-.063422-.063422-.063423-.063422-.063422-.063423-.063422-.063422-.063422-.063423-.063422-.063422-.063423-.063422-.063422-.063423-.063422-.063422-.063423-.063422-.063422-.063422-.063423-.063422-.063422-.063423-.063422-.063422-.063423-.063422-.063422-.063422-.063423-.063422-.063422-.063423-.063422-.063422-.063423-.063422-.063422-.063423-.063422-.063422-.063422-.063423-.063422-.063422-.063423-.063422-.063422-.063423-.063422-.063422-.063422-.063423-.063422-.063422-.063423-.063422-.063422-.063423-.063422-.063422-.063422-.063423-.063422-.063422-.063423-.063422-.063422-.063423-.063422-.063422-.063423-.063422-.063422-.063422-.063423-.063422-.063422-.063423-.063422-.063422-.063423-.063422-.063422-.063422-.063423-.063422-.063422-.063423-.063422-.063422-.063423-.063422-.063422-.063423-.063422-.063422-.063422-.063423-.063422-.063422-.063423-.063422-.063422-.063423-.063422-.063422-.063422-.063423-.063422-.063422-.063423-.063422-.063422-.063423-.063422-.063422-.063423-.063422-.063422-.063422-.063423-.063422-.063422-.063423-.063422-.063422-.063423-.063422-.063422-.063422-.063423-.063422-.063422-.063423-.063422-.063422-.063423-.063422-.063422-.063423-.063422-.063422-.063422-.063423-.063422-.063422-.063423-.063422-.063422-.063423-.063422-.063422-.063422-.063423-.063422-.063422-.063423-.063422-.063422-.063423-.063422-.063422-.063422-.063423-.063422-.063422-.063423-.063422-.063422-.063423-.063422-.063422-.063423-.063422-.063422-.063422-.063423-.063422-.063422-.063423-.063422-.063422-.063423-.063422-.063422-.063422-.063423-.063422-.063422-.063423-.063422-.063422-.063423-.063422-.063422-.063423-.063422-.063422-.063422-.063423-.063422-.063422-.063423-.063422-.063422-.063423-.063422-.063422-.063422-.063423-.063422-.063422-.063423-.063422-.063422-.063423-.063422-.063422-.063423-.063422-.063422-.063422-.063423-.063422-.063422-.063423-.063422-.063422-.063423-.063422-.063422-.063422-.063423-.063422-.063422-.063423-.063422-.063422-.063423-.063422-.063422-.063423-.063422-.063422-.063422-.063423-.063422-.063422-.063423-.063422-.063422-.063423-.063422-.063422-.063422-.063423-.063422-.063422-.063423-.063422-.063422-.063423-.063422-.063422-.063422-.063423-.063422-.063422-.063423-.063422-.063422-.063423-.063422-.063422-.063423-.063422-.063422-.063422-.063423-.063422-.063422-.063423-.063422-.063422-.063423-.063422-.063422-.063422-.063423-.063422-.063422-.063423-.063422-.063422-.063423-.063422-.063422-.063423-.063422-.063422-.063422-.063423-.063422-.063422-.063423-.063422-.063422-.063423-.063422-.063422-.063422-.063423-.063422-.063422-.063423-.063422-.063422-.063423-.063422-.063422-.063423-.063422-.063422-.063422-.063423-.063422-.063422-.063423-.063422-.063422-.063423-.063422-.063422-.063422-.063423-.063422-.063422-.063423-.063422-.063422-.063423-.063422-.063422-.063422-.063423-.063422-.063422-.063423-.063422-.063422-.063423-.063422-.063422-.063423-.063422-.063422-.063422-.063423-.063422-.063422-.063423-.063422-.063422-.063423-.063422-.063422-.063422-.063423-.063422-.063422-.063423-.063422-.063422-.063423-.063422-.063422-.063423-.063422-.063422-.063422-.063423-.063422-.063422-.063423-.063422-.063422-.063423-.063422-.063422-.063422-.063423-.063422-.063422-.063423-.063422-.063422-.063423-.063422-.063422-.063423-.063422-.063422-.063422-.063423-.063422-.063422-.063423-.063422-.063422-.063423-.063422-.063422-.063422-.063423-.063422-.063422-.063423-.063422-.063422-.063423-.063422-.063422-.063423-.063422-.063422-.063422-.063423-.063422-.063422-.063423-.063422-.063422-.063423-.063422-.063422-.063422-.063423-.063422-.063422-.063423-.063422-.063422-.063423-.063422-.063422-.063422-.063423-.063422-.063422-.063423-.063422-.063422-.063423-.063422-.063422-.063423-.063422-.063422-.063422-.063423-.063422-.063422-.063423-.063422-.063422-.063423-.063422z" fill="#1f77b4"/><g><g><use stroke="#000" stroke-width=".8" x="109.554767" xlink:href="#b" y="252"/><g transform="matrix(.1 0 0 -.1 100.011017 266.598437)"><use xlink:href="#c"/><use x="63.623047" xlink:href="#d"/><use x="127.246094" xlink:href="#e"/></g></g><g><use stroke="#000" stroke-width=".8" x="172.977071" xlink:href="#b" y="252"/><g transform="matrix(.1 0 0 -.1 163.433321 266.598437)"><use xlink:href="#c"/><path d="m33.015625 40.375q-6.640625 0-10.53125-4.546875-3.875-4.53125-3.875-12.4375 0-7.859375 3.875-12.4375 3.890625-4.5625 10.53125-4.5625 6.640625 0 10.515625 4.5625 3.875 4.578125 3.875 12.4375 0 7.90625-3.875 12.4375-3.875 4.546875-10.515625 4.546875zm19.578125 30.921875v-8.984375q-3.71875 1.75-7.5 2.671875-3.78125.9375-7.5.9375-9.765625 0-14.921875-6.59375-5.140625-6.59375-5.875-19.921875 2.875 4.25 7.21875 6.515625 4.359375 2.265625 9.578125 2.265625 10.984375 0 17.359375-6.671875 6.375-6.65625 6.375-18.125 0-11.234375-6.640625-18.03125-6.640625-6.78125-17.671875-6.78125-12.65625 0-19.34375 9.6875-6.6875 9.703125-6.6875 28.109375 0 17.28125 8.203125 27.5625 8.203125 10.28125 22.015625 10.28125 3.71875 0 7.5-.734375 3.78125-.734375 7.890625-2.1875z" transform="translate(63.623047)"/><use x="127.246094" xlink:href="#e"/></g></g><g><use stroke="#000" stroke-width=".8" x="236.399375" xlink:href="#b" y="252"/><g transform="matrix(.1 0 0 -.1 226.855625 266.598437)"><use xlink:href="#c"/><path d="m8.203125 72.90625h46.875v-4.203125l-26.46875-68.703125h-10.296875l24.90625 64.59375h-35.015625z" transform="translate(63.623047)"/><use x="127.246094" xlink:href="#e"/></g></g><g><use stroke="#000" stroke-width=".8" x="299.821679" xlink:href="#b" y="252"/><g transform="matrix(.1 0 0 -.1 290.277929 266.598437)"><use xlink:href="#c"/><path d="m31.78125 34.625q-7.03125 0-11.0625-3.765625-4.015625-3.765625-4.015625-10.34375 0-6.59375 4.015625-10.359375 4.03125-3.765625 11.0625-3.765625 7.03125 0 11.078125 3.78125 4.0625 3.796875 4.0625 10.34375 0 6.578125-4.03125 10.34375-4.015625 3.765625-11.109375 3.765625zm-9.859375 4.1875q-6.34375 1.5625-9.890625 5.90625-3.53125 4.359375-3.53125 10.609375 0 8.734375 6.21875 13.8125 6.234375 5.078125 17.0625 5.078125 10.890625 0 17.09375-5.078125 6.203125-5.078125 6.203125-13.8125 0-6.25-3.546875-10.609375-3.53125-4.34375-9.828125-5.90625 7.125-1.65625 11.09375-6.5 3.984375-4.828125 3.984375-11.796875 0-10.609375-6.46875-16.28125-6.46875-5.65625-18.53125-5.65625-12.046875 0-18.53125 5.65625-6.46875 5.671875-6.46875 16.28125 0 6.96875 4 11.796875 4.015625 4.84375 11.140625 6.5zm-3.609375 15.578125q0-5.65625 3.53125-8.828125 3.546875-3.171875 9.9375-3.171875 6.359375 0 9.9375 3.171875 3.59375 3.171875 3.59375 8.828125 0 5.671875-3.59375 8.84375-3.578125 3.171875-9.9375 3.171875-6.390625 0-9.9375-3.171875-3.53125-3.171875-3.53125-8.84375z" transform="translate(63.623047)"/><use x="127.246094" xlink:href="#e"/></g></g><g><use stroke="#000" stroke-width=".8" x="363.243983" xlink:href="#b" y="252"/><g transform="matrix(.1 0 0 -.1 353.700233 266.598437)"><use xlink:href="#c"/><path d="m10.984375 1.515625v8.984375q3.71875-1.765625 7.515625-2.6875 3.8125-.921875 7.484375-.921875 9.765625 0 14.90625 6.5625 5.15625 6.5625 5.890625 19.953125-2.828125-4.203125-7.1875-6.453125-4.34375-2.25-9.609375-2.25-10.9375 0-17.3125 6.609375-6.375 6.625-6.375 18.109375 0 11.21875 6.640625 18 6.640625 6.796875 17.671875 6.796875 12.65625 0 19.3125-9.703125 6.671875-9.6875 6.671875-28.140625 0-17.234375-8.1875-27.515625-8.171875-10.28125-21.984375-10.28125-3.71875 0-7.53125.734375-3.796875.734375-7.90625 2.203125zm19.625 30.90625q6.640625 0 10.515625 4.53125 3.890625 4.546875 3.890625 12.46875 0 7.859375-3.890625 12.421875-3.875 4.5625-10.515625 4.5625-6.640625 0-10.515625-4.5625-3.875-4.5625-3.875-12.421875 0-7.921875 3.875-12.46875 3.875-4.53125 10.515625-4.53125z" transform="translate(63.623047)"/><use x="127.246094" xlink:href="#e"/></g></g><g transform="matrix(.1 0 0 -.1 186.910937 280.276563)"><path d="m9.8125 72.90625h9.859375v-29.890625h35.84375v29.890625h9.859375v-72.90625h-9.859375v34.71875h-35.84375v-34.71875h-9.859375z"/><use x="75.195312" xlink:href="#f"/><use x="136.71875" xlink:href="#g"/><path d="m45.40625 27.984375q0 9.765625-4.03125 15.125-4.015625 5.375-11.296875 5.375-7.21875 0-11.25-5.375-4.03125-5.359375-4.03125-15.125 0-9.71875 4.03125-15.09375 4.03125-5.375 11.25-5.375 7.28125 0 11.296875 5.375 4.03125 5.375 4.03125 15.09375zm8.984375-21.203125q0-13.953125-6.203125-20.765625-6.1875-6.8125-18.984375-6.8125-4.734375 0-8.9375.703125-4.203125.703125-8.15625 2.171875v8.734375q3.953125-2.140625 7.8125-3.15625 3.859375-1.03125 7.859375-1.03125 8.84375 0 13.234375 4.609375 4.390625 4.609375 4.390625 13.9375v4.453125q-2.78125-4.84375-7.125-7.234375-4.34375-2.390625-10.40625-2.390625-10.046875 0-16.203125 7.65625-6.15625 7.671875-6.15625 20.328125 0 12.6875 6.15625 20.34375 6.15625 7.671875 16.203125 7.671875 6.0625 0 10.40625-2.390625 4.34375-2.390625 7.125-7.21875v8.296875h8.984375z" transform="translate(164.501953)"/><path d="m54.890625 33.015625v-33.015625h-8.984375v32.71875q0 7.765625-3.03125 11.609375-3.03125 3.859375-9.078125 3.859375-7.28125 0-11.484375-4.640625-4.203125-4.625-4.203125-12.640625v-30.90625h-9.03125v75.984375h9.03125v-29.796875q3.234375 4.9375 7.59375 7.375 4.375 2.4375 10.09375 2.4375 9.421875 0 14.25-5.828125 4.84375-5.828125 4.84375-17.15625z" transform="translate(227.978516)"/><use x="291.357422" xlink:href="#h"/><use x="330.566406" xlink:href="#i"/><use x="414.453125" xlink:href="#g"/><use x="442.236328" xlink:href="#j"/><path d="m48.78125 52.59375v-8.40625q-3.8125 2.109375-7.640625 3.15625-3.828125 1.046875-7.734375 1.046875-8.75 0-13.59375-5.546875-4.828125-5.53125-4.828125-15.546875 0-10.015625 4.828125-15.5625 4.84375-5.53125 13.59375-5.53125 3.90625 0 7.734375 1.046875 3.828125 1.046875 7.640625 3.15625v-8.3125q-3.765625-1.75-7.796875-2.625-4.015625-.890625-8.5625-.890625-12.359375 0-19.640625 7.765625-7.265625 7.765625-7.265625 20.953125 0 13.375 7.34375 21.03125 7.359375 7.671875 20.15625 7.671875 4.140625 0 8.09375-.859375 3.953125-.84375 7.671875-2.546875z" transform="translate(537.402344)"/><path d="m52 44.1875q3.375 6.0625 8.0625 8.9375 4.6875 2.875 11.03125 2.875 8.546875 0 13.1875-5.984375 4.640625-5.96875 4.640625-17v-33.015625h-9.03125v32.71875q0 7.859375-2.796875 11.65625-2.78125 3.8125-8.484375 3.8125-6.984375 0-11.046875-4.640625-4.046875-4.625-4.046875-12.640625v-30.90625h-9.03125v32.71875q0 7.90625-2.78125 11.6875-2.78125 3.78125-8.59375 3.78125-6.890625 0-10.953125-4.65625-4.046875-4.65625-4.046875-12.625v-30.90625h-9.03125v54.6875h9.03125v-8.5q3.078125 5.03125 7.375 7.421875 4.296875 2.390625 10.203125 2.390625 5.96875 0 10.140625-3.03125 4.171875-3.015625 6.171875-8.78125z" transform="translate(592.382812)"/></g></g><g><g><use stroke="#000" stroke-width=".8" x="54" xlink:href="#k" y="242.116364"/><g transform="matrix(.1 0 0 -.1 24.734375 245.915582)"><use xlink:href="#e"/><use x="63.623047" xlink:href="#l"/><use x="95.410156" xlink:href="#e"/><use x="159.033203" xlink:href="#e"/></g></g><g><use stroke="#000" stroke-width=".8" x="54" xlink:href="#k" y="202.477"/><g transform="matrix(.1 0 0 -.1 24.734375 206.276219)"><use xlink:href="#e"/><use x="63.623047" xlink:href="#l"/><use x="95.410156" xlink:href="#e"/><use x="159.033203" xlink:href="#c"/></g></g><g><use stroke="#000" stroke-width=".8" x="54" xlink:href="#k" y="162.837636"/><g transform="matrix(.1 0 0 -.1 24.734375 166.636855)"><use xlink:href="#e"/><use x="63.623047" xlink:href="#l"/><use x="95.410156" xlink:href="#e"/><path d="m19.1875 8.296875h34.421875v-8.296875h-46.28125v8.296875q5.609375 5.8125 15.296875 15.59375 9.703125 9.796875 12.1875 12.640625 4.734375 5.3125 6.609375 9 1.890625 3.6875 1.890625 7.25 0 5.8125-4.078125 9.46875-4.078125 3.671875-10.625 3.671875-4.640625 0-9.796875-1.609375-5.140625-1.609375-11-4.890625v9.96875q5.953125 2.390625 11.125 3.609375 5.1875 1.21875 9.484375 1.21875 11.328125 0 18.0625-5.671875 6.734375-5.65625 6.734375-15.125 0-4.5-1.6875-8.53125-1.671875-4.015625-6.125-9.484375-1.21875-1.421875-7.765625-8.1875-6.53125-6.765625-18.453125-18.921875z" transform="translate(159.033203)"/></g></g><g><use stroke="#000" stroke-width=".8" x="54" xlink:href="#k" y="123.198272"/><g transform="matrix(.1 0 0 -.1 24.734375 126.997491)"><use xlink:href="#e"/><use x="63.623047" xlink:href="#l"/><use x="95.410156" xlink:href="#e"/><path d="m40.578125 39.3125q7.078125-1.515625 11.046875-6.3125 3.984375-4.78125 3.984375-11.8125 0-10.78125-7.421875-16.703125-7.421875-5.90625-21.09375-5.90625-4.578125 0-9.4375.90625-4.859375.90625-10.03125 2.71875v9.515625q4.09375-2.390625 8.96875-3.609375 4.890625-1.21875 10.21875-1.21875 9.265625 0 14.125 3.65625 4.859375 3.65625 4.859375 10.640625 0 6.453125-4.515625 10.078125-4.515625 3.640625-12.5625 3.640625h-8.5v8.109375h8.890625q7.265625 0 11.125 2.90625 3.859375 2.90625 3.859375 8.375 0 5.609375-3.984375 8.609375-3.96875 3.015625-11.390625 3.015625-4.0625 0-8.703125-.890625-4.640625-.875-10.203125-2.71875v8.78125q5.625 1.5625 10.53125 2.34375 4.90625.78125 9.25.78125 11.234375 0 17.765625-5.109375 6.546875-5.09375 6.546875-13.78125 0-6.0625-3.46875-10.234375-3.46875-4.171875-9.859375-5.78125z" transform="translate(159.033203)"/></g></g><g><use stroke="#000" stroke-width=".8" x="54" xlink:href="#k" y="83.558908"/><g transform="matrix(.1 0 0 -.1 24.734375 87.358127)"><use xlink:href="#e"/><use x="63.623047" xlink:href="#l"/><use x="95.410156" xlink:href="#e"/><path d="m37.796875 64.3125-24.90625-38.921875h24.90625zm-2.59375 8.59375h12.40625v-47.515625h10.40625v-8.203125h-10.40625v-17.1875h-9.8125v17.1875h-32.90625v9.515625z" transform="translate(159.033203)"/></g></g><g><use stroke="#000" stroke-width=".8" x="54" xlink:href="#k" y="43.919545"/><g transform="matrix(.1 0 0 -.1 24.734375 47.718763)"><use xlink:href="#e"/><use x="63.623047" xlink:href="#l"/><use x="95.410156" xlink:href="#e"/><use x="159.033203" xlink:href="#d"/></g></g><g transform="matrix(0 -.1 -.1 0 18.654687 189.877656)"><path d="m18.109375 8.203125v-29h-9.03125v75.484375h9.03125v-8.296875q2.84375 4.875 7.15625 7.234375 4.328125 2.375 10.328125 2.375 9.96875 0 16.1875-7.90625 6.234375-7.90625 6.234375-20.796875 0-12.890625-6.234375-20.8125-6.21875-7.90625-16.1875-7.90625-6 0-10.328125 2.375-4.3125 2.375-7.15625 7.25zm30.578125 19.09375q0 9.90625-4.078125 15.546875-4.078125 5.640625-11.203125 5.640625-7.140625 0-11.21875-5.640625-4.078125-5.640625-4.078125-15.546875 0-9.90625 4.078125-15.546875 4.078125-5.640625 11.21875-5.640625 7.125 0 11.203125 5.640625 4.078125 5.640625 4.078125 15.546875z"/><path d="m41.109375 46.296875q-1.515625.875-3.296875 1.28125-1.78125.421875-3.921875.421875-7.625 0-11.703125-4.953125-4.078125-4.953125-4.078125-14.234375v-28.8125h-9.03125v54.6875h9.03125v-8.5q2.84375 4.984375 7.375 7.390625 4.546875 2.421875 11.046875 2.421875.921875 0 2.046875-.125 1.125-.109375 2.484375-.359375z" transform="translate(63.476562)"/><path d="m30.609375 48.390625q-7.21875 0-11.421875-5.640625-4.203125-5.640625-4.203125-15.453125 0-9.8125 4.171875-15.453125 4.1875-5.640625 11.453125-5.640625 7.1875 0 11.375 5.65625 4.203125 5.671875 4.203125 15.4375 0 9.71875-4.203125 15.40625-4.1875 5.6875-11.375 5.6875zm0 7.609375q11.71875 0 18.40625-7.625 6.703125-7.609375 6.703125-21.078125 0-13.421875-6.703125-21.078125-6.6875-7.640625-18.40625-7.640625-11.765625 0-18.4375 7.640625-6.65625 7.65625-6.65625 21.078125 0 13.46875 6.65625 21.078125 6.671875 7.625 18.4375 7.625z" transform="translate(102.339844)"/><use x="163.521484" xlink:href="#m"/><path d="m34.28125 27.484375q-10.890625 0-15.09375-2.484375-4.203125-2.484375-4.203125-8.5 0-4.78125 3.15625-7.59375 3.15625-2.796875 8.5625-2.796875 7.484375 0 12 5.296875 4.515625 5.296875 4.515625 14.078125v2zm17.921875 3.71875v-31.203125h-8.984375v8.296875q-3.078125-4.96875-7.671875-7.34375-4.59375-2.375-11.234375-2.375-8.390625 0-13.359375 4.71875-4.953125 4.71875-4.953125 12.625 0 9.21875 6.171875 13.90625 6.1875 4.6875 18.4375 4.6875h12.609375v.890625q0 6.203125-4.078125 9.59375-4.078125 3.390625-11.453125 3.390625-4.6875 0-9.140625-1.125-4.4375-1.125-8.53125-3.375v8.3125q4.921875 1.90625 9.5625 2.84375 4.640625.953125 9.03125.953125 11.875 0 17.734375-6.15625 5.859375-6.140625 5.859375-18.640625z" transform="translate(226.998047)"/><use x="288.277344" xlink:href="#m"/><use x="351.753906" xlink:href="#g"/><path d="m9.421875 75.984375h8.984375v-75.984375h-8.984375z" transform="translate(379.537109)"/><use x="407.320312" xlink:href="#g"/><use x="435.103516" xlink:href="#h"/><use x="474.3125" xlink:href="#n"/><path d="m45.40625 46.390625v29.59375h8.984375v-75.984375h-8.984375v8.203125q-2.828125-4.875-7.15625-7.25-4.3125-2.375-10.375-2.375-9.90625 0-16.140625 7.90625-6.21875 7.921875-6.21875 20.8125 0 12.890625 6.21875 20.796875 6.234375 7.90625 16.140625 7.90625 6.0625 0 10.375-2.375 4.328125-2.359375 7.15625-7.234375zm-30.609375-19.09375q0-9.90625 4.078125-15.546875 4.078125-5.640625 11.203125-5.640625 7.125 0 11.21875 5.640625 4.109375 5.640625 4.109375 15.546875 0 9.90625-4.109375 15.546875-4.09375 5.640625-11.21875 5.640625-7.125 0-11.203125-5.640625-4.078125-5.640625-4.078125-15.546875z" transform="translate(565.279297)"/><use x="628.755859" xlink:href="#f"/><use x="690.279297" xlink:href="#j"/><use x="753.658203" xlink:href="#i"/><use x="805.757812" xlink:href="#g"/><use x="833.541016" xlink:href="#h"/><use x="872.75" xlink:href="#n"/></g></g><path clip-path="url(#a)" d="m69.218182 239.920418 5.51774-.829171 4.94694-.966089 4.502984-1.102982 4.185872-1.252034 3.932182-1.406937 3.741916-1.575344 3.551649-1.734561 3.424805-1.917047 3.361382-2.137112 3.29796-2.363691 3.234537-2.594322 3.171115-2.826341 3.171116-3.122399 3.171115-3.432816 3.234537-3.834127 3.234538-4.180585 3.29796-4.626991 3.361382-5.098709 3.488226-5.698956 3.615072-6.337185 3.805338-7.127663 4.059027-8.087644 4.376139-9.22503 4.94694-10.960453 6.151964-14.201047 16.80691-39.112985 4.439561-9.586138 3.805339-7.699586 3.361382-6.309226 3.04427-5.250783 2.790582-4.380417 2.600314-3.675416 2.410048-3.03187 2.283203-2.521466 2.156358-2.054266 2.029514-1.633155 1.966091-1.296987 1.839247-.954072 1.775824-.67978 1.775825-.440094 1.712402-.195862 1.712402.029183 1.712403.254128 1.712402.478206 1.775824.730847 1.839247 1.00628 1.902669 1.303798 1.966092 1.622311 2.092936 2.026161 2.156358 2.399759 2.283203 2.872378 2.47347 3.477319 2.663737 4.143612 2.854003 4.862905 3.107693 5.744571 3.424804 6.805688 3.932183 8.326058 4.693251 10.485632 6.405652 14.905271 13.445529 31.405431 5.327473 11.788616 4.566406 9.577334 4.185872 8.270235 3.868761 7.164744 3.678494 6.359254 3.551649 5.706805 3.424804 5.09449 3.361382 4.610819 3.29796 4.154249 3.29796 3.797212 3.234537 3.389124 3.234538 3.071343 3.234537 2.769438 3.29796 2.530862 3.29796 2.254456 3.424804 2.070128 3.488227 1.847822 3.615071 1.662788 3.741916 1.478021 3.995605 1.335991 4.249295 1.181013 4.566406 1.032995 4.946939.887699 3.741916.538114" fill="none" stroke="#000" stroke-linecap="square" stroke-width="1.5"/></g><path d="m54 252v-217.44" fill="none" stroke="#000" stroke-linecap="square" stroke-linejoin="miter" stroke-width=".8"/><path d="m388.8 252v-217.44" fill="none" stroke="#000" stroke-linecap="square" stroke-linejoin="miter" stroke-width=".8"/><path d="m54 252h334.8" fill="none" stroke="#000" stroke-linecap="square" stroke-linejoin="miter" stroke-width=".8"/><path d="m54 34.56h334.8" fill="none" stroke="#000" stroke-linecap="square" stroke-linejoin="miter" stroke-width=".8"/></g></g></svg>