<svg height="941" viewBox="0 0 1214 941" width="1214" xmlns="http://www.w3.org/2000/svg"><g fill="none" fill-rule="evenodd"><path d="m0 0h1214v941h-1214z" fill="#0f1931"/><path d="m494.5 799.442652h45v10h-45z" fill="#ff8c00"/><path d="m494.5 778.331183h45v19h-45z" fill="#f966ff"/><path d="m494.5 746.882078h45v29h-45z" fill="#aee938"/><g transform="translate(282 65)"><g fill-rule="nonzero"><g fill="#fff" transform="translate(91.554 266)"><path d="m4.446 24.344c1.452 0 2.556-.552 3.312-1.656s1.134-2.718 1.134-4.842-.378-3.735-1.134-4.833-1.86-1.647-3.312-1.647-2.556.552-3.312 1.656-1.134 2.718-1.134 4.842c0 2.112.378 3.72 1.134 4.824s1.86 1.656 3.312 1.656zm0-1.242c-1.008 0-1.752-.426-2.232-1.278s-.72-2.178-.72-3.978.24-3.12.72-3.96 1.224-1.26 2.232-1.26c1.02 0 1.767.417 2.241 1.251s.711 2.157.711 3.969c0 1.8-.24 3.126-.72 3.978s-1.224 1.278-2.232 1.278z"/><path d="m7.08730458.6c1.1045695 0 2 .8954305 2 2 0 1.0543618-.81587779 1.91816512-1.85073765 1.99451426l-.14926235.00548574h-5.2c-1.1045695 0-2-.8954305-2-2 0-1.0543618.81587779-1.91816512 1.85073766-1.99451426l.14926234-.00548574z" transform="matrix(0 -1 1 0 1.887305 7.087305)"/></g><g fill="#fff" transform="translate(8.67569 1.166)"><path d="m4.446 12.978c1.452 0 2.556-.552 3.312-1.656s1.134-2.718 1.134-4.842-.378-3.735-1.134-4.833-1.86-1.647-3.312-1.647-2.556.552-3.312 1.656-1.134 2.718-1.134 4.842c0 2.112.378 3.72 1.134 4.824s1.86 1.656 3.312 1.656zm0-1.242c-1.008 0-1.752-.426-2.232-1.278s-.72-2.178-.72-3.978.24-3.12.72-3.96 1.224-1.26 2.232-1.26c1.02 0 1.767.417 2.241 1.251s.711 2.157.711 3.969c0 1.8-.24 3.126-.72 3.978s-1.224 1.278-2.232 1.278zm8.37 1.098v-1.836h-1.836v1.836zm10.854 0v-1.242h-6.264l3.6-3.906c.756-.828 1.299-1.578 1.629-2.25s.495-1.374.495-2.106c0-1.02-.339-1.83-1.017-2.43s-1.599-.9-2.763-.9c-.768 0-1.533.141-2.295.423s-1.395.663-1.899 1.143l.558 1.134c1.176-.972 2.376-1.458 3.6-1.458.744 0 1.32.186 1.728.558s.612.906.612 1.602c0 .54-.135 1.077-.405 1.611s-.705 1.137-1.305 1.809l-4.446 4.896v1.116zm6.696.126c.864 0 1.62-.171 2.268-.513s1.149-.819 1.503-1.431.531-1.32.531-2.124c0-.792-.162-1.491-.486-2.097s-.783-1.077-1.377-1.413-1.293-.504-2.097-.504c-.54 0-1.041.087-1.503.261s-.861.423-1.197.747v-4.518h6.156v-1.224h-7.614v7.434h1.026c.72-.984 1.686-1.476 2.898-1.476.828 0 1.491.258 1.989.774s.747 1.194.747 2.034c0 .864-.252 1.548-.756 2.052s-1.2.756-2.088.756c-1.236 0-2.442-.486-3.618-1.458l-.558 1.134c.516.48 1.149.861 1.899 1.143s1.509.423 2.277.423z"/><path d="m53.3243097 4.834c1.1045695 0 2 .8954305 2 2 0 1.0543618-.8158777 1.91816512-1.8507376 1.99451426l-.1492624.00548574h-7.9946739c-1.1045695 0-2-.8954305-2-2 0-1.0543618.8158778-1.91816512 1.8507377-1.99451426l.1492623-.00548574z"/></g><g fill="#fff" transform="translate(8.67569 52.166)"><path d="m4.446 12.978c1.452 0 2.556-.552 3.312-1.656s1.134-2.718 1.134-4.842-.378-3.735-1.134-4.833-1.86-1.647-3.312-1.647-2.556.552-3.312 1.656-1.134 2.718-1.134 4.842c0 2.112.378 3.72 1.134 4.824s1.86 1.656 3.312 1.656zm0-1.242c-1.008 0-1.752-.426-2.232-1.278s-.72-2.178-.72-3.978.24-3.12.72-3.96 1.224-1.26 2.232-1.26c1.02 0 1.767.417 2.241 1.251s.711 2.157.711 3.969c0 1.8-.24 3.126-.72 3.978s-1.224 1.278-2.232 1.278zm8.37 1.098v-1.836h-1.836v1.836zm10.854 0v-1.242h-6.264l3.6-3.906c.756-.828 1.299-1.578 1.629-2.25s.495-1.374.495-2.106c0-1.02-.339-1.83-1.017-2.43s-1.599-.9-2.763-.9c-.768 0-1.533.141-2.295.423s-1.395.663-1.899 1.143l.558 1.134c1.176-.972 2.376-1.458 3.6-1.458.744 0 1.32.186 1.728.558s.612.906.612 1.602c0 .54-.135 1.077-.405 1.611s-.705 1.137-1.305 1.809l-4.446 4.896v1.116zm6.498.144c1.452 0 2.556-.552 3.312-1.656s1.134-2.718 1.134-4.842-.378-3.735-1.134-4.833-1.86-1.647-3.312-1.647-2.556.552-3.312 1.656-1.134 2.718-1.134 4.842c0 2.112.378 3.72 1.134 4.824s1.86 1.656 3.312 1.656zm0-1.242c-1.008 0-1.752-.426-2.232-1.278s-.72-2.178-.72-3.978.24-3.12.72-3.96 1.224-1.26 2.232-1.26c1.02 0 1.767.417 2.241 1.251s.711 2.157.711 3.969c0 1.8-.24 3.126-.72 3.978s-1.224 1.278-2.232 1.278z"/><path d="m53.3243097 4.834c1.1045695 0 2 .8954305 2 2 0 1.0543618-.8158777 1.91816512-1.8507376 1.99451426l-.1492624.00548574h-7.9946739c-1.1045695 0-2-.8954305-2-2 0-1.0543618.8158778-1.91816512 1.8507377-1.99451426l.1492623-.00548574z"/></g><g fill="#fff" transform="translate(8.67569 104.166)"><path d="m4.446 12.978c1.452 0 2.556-.552 3.312-1.656s1.134-2.718 1.134-4.842-.378-3.735-1.134-4.833-1.86-1.647-3.312-1.647-2.556.552-3.312 1.656-1.134 2.718-1.134 4.842c0 2.112.378 3.72 1.134 4.824s1.86 1.656 3.312 1.656zm0-1.242c-1.008 0-1.752-.426-2.232-1.278s-.72-2.178-.72-3.978.24-3.12.72-3.96 1.224-1.26 2.232-1.26c1.02 0 1.767.417 2.241 1.251s.711 2.157.711 3.969c0 1.8-.24 3.126-.72 3.978s-1.224 1.278-2.232 1.278zm8.37 1.098v-1.836h-1.836v1.836zm10.548 0v-1.242h-2.79v-11.448h-1.062l-3.33 2.106.684 1.134 2.232-1.404v9.612h-2.79v1.242zm7.002.126c.864 0 1.62-.171 2.268-.513s1.149-.819 1.503-1.431.531-1.32.531-2.124c0-.792-.162-1.491-.486-2.097s-.783-1.077-1.377-1.413-1.293-.504-2.097-.504c-.54 0-1.041.087-1.503.261s-.861.423-1.197.747v-4.518h6.156v-1.224h-7.614v7.434h1.026c.72-.984 1.686-1.476 2.898-1.476.828 0 1.491.258 1.989.774s.747 1.194.747 2.034c0 .864-.252 1.548-.756 2.052s-1.2.756-2.088.756c-1.236 0-2.442-.486-3.618-1.458l-.558 1.134c.516.48 1.149.861 1.899 1.143s1.509.423 2.277.423z"/><path d="m53.3243097 4.834c1.1045695 0 2 .8954305 2 2 0 1.0543618-.8158777 1.91816512-1.8507376 1.99451426l-.1492624.00548574h-7.9946739c-1.1045695 0-2-.8954305-2-2 0-1.0543618.8158778-1.91816512 1.8507377-1.99451426l.1492623-.00548574z"/></g><g fill="#fff" transform="translate(8.67569 156.166)"><path d="m4.446 12.978c1.452 0 2.556-.552 3.312-1.656s1.134-2.718 1.134-4.842-.378-3.735-1.134-4.833-1.86-1.647-3.312-1.647-2.556.552-3.312 1.656-1.134 2.718-1.134 4.842c0 2.112.378 3.72 1.134 4.824s1.86 1.656 3.312 1.656zm0-1.242c-1.008 0-1.752-.426-2.232-1.278s-.72-2.178-.72-3.978.24-3.12.72-3.96 1.224-1.26 2.232-1.26c1.02 0 1.767.417 2.241 1.251s.711 2.157.711 3.969c0 1.8-.24 3.126-.72 3.978s-1.224 1.278-2.232 1.278zm8.37 1.098v-1.836h-1.836v1.836zm10.548 0v-1.242h-2.79v-11.448h-1.062l-3.33 2.106.684 1.134 2.232-1.404v9.612h-2.79v1.242zm6.804.144c1.452 0 2.556-.552 3.312-1.656s1.134-2.718 1.134-4.842-.378-3.735-1.134-4.833-1.86-1.647-3.312-1.647-2.556.552-3.312 1.656-1.134 2.718-1.134 4.842c0 2.112.378 3.72 1.134 4.824s1.86 1.656 3.312 1.656zm0-1.242c-1.008 0-1.752-.426-2.232-1.278s-.72-2.178-.72-3.978.24-3.12.72-3.96 1.224-1.26 2.232-1.26c1.02 0 1.767.417 2.241 1.251s.711 2.157.711 3.969c0 1.8-.24 3.126-.72 3.978s-1.224 1.278-2.232 1.278z"/><path d="m53.3243097 4.834c1.1045695 0 2 .8954305 2 2 0 1.0543618-.8158777 1.91816512-1.8507376 1.99451426l-.1492624.00548574h-7.9946739c-1.1045695 0-2-.8954305-2-2 0-1.0543618.8158778-1.91816512 1.8507377-1.99451426l.1492623-.00548574z"/></g><g fill="#fff" transform="translate(8.67569 208.166)"><path d="m4.446 12.978c1.452 0 2.556-.552 3.312-1.656s1.134-2.718 1.134-4.842-.378-3.735-1.134-4.833-1.86-1.647-3.312-1.647-2.556.552-3.312 1.656-1.134 2.718-1.134 4.842c0 2.112.378 3.72 1.134 4.824s1.86 1.656 3.312 1.656zm0-1.242c-1.008 0-1.752-.426-2.232-1.278s-.72-2.178-.72-3.978.24-3.12.72-3.96 1.224-1.26 2.232-1.26c1.02 0 1.767.417 2.241 1.251s.711 2.157.711 3.969c0 1.8-.24 3.126-.72 3.978s-1.224 1.278-2.232 1.278zm8.37 1.098v-1.836h-1.836v1.836zm6.552.144c1.452 0 2.556-.552 3.312-1.656s1.134-2.718 1.134-4.842-.378-3.735-1.134-4.833-1.86-1.647-3.312-1.647-2.556.552-3.312 1.656-1.134 2.718-1.134 4.842c0 2.112.378 3.72 1.134 4.824s1.86 1.656 3.312 1.656zm0-1.242c-1.008 0-1.752-.426-2.232-1.278s-.72-2.178-.72-3.978.24-3.12.72-3.96 1.224-1.26 2.232-1.26c1.02 0 1.767.417 2.241 1.251s.711 2.157.711 3.969c0 1.8-.24 3.126-.72 3.978s-1.224 1.278-2.232 1.278zm10.998 1.224c.864 0 1.62-.171 2.268-.513s1.149-.819 1.503-1.431.531-1.32.531-2.124c0-.792-.162-1.491-.486-2.097s-.783-1.077-1.377-1.413-1.293-.504-2.097-.504c-.54 0-1.041.087-1.503.261s-.861.423-1.197.747v-4.518h6.156v-1.224h-7.614v7.434h1.026c.72-.984 1.686-1.476 2.898-1.476.828 0 1.491.258 1.989.774s.747 1.194.747 2.034c0 .864-.252 1.548-.756 2.052s-1.2.756-2.088.756c-1.236 0-2.442-.486-3.618-1.458l-.558 1.134c.516.48 1.149.861 1.899 1.143s1.509.423 2.277.423z"/><path d="m53.3243097 4.834c1.1045695 0 2 .8954305 2 2 0 1.0543618-.8158777 1.91816512-1.8507376 1.99451426l-.1492624.00548574h-7.9946739c-1.1045695 0-2-.8954305-2-2 0-1.0543618.8158778-1.91816512 1.8507377-1.99451426l.1492623-.00548574z"/></g><g transform="translate(0 248)"><path d="m13.1216903 18.144c1.452 0 2.556-.552 3.312-1.656s1.134-2.718 1.134-4.842-.378-3.735-1.134-4.833-1.86-1.647-3.312-1.647-2.556.552-3.31200004 1.656c-.756 1.104-1.134 2.718-1.134 4.842 0 2.112.378 3.72 1.134 4.824.75600004 1.104 1.86000004 1.656 3.31200004 1.656zm0-1.242c-1.008 0-1.752-.426-2.232-1.278s-.72-2.178-.72-3.978.24-3.12.72-3.96 1.224-1.26 2.232-1.26c1.02 0 1.767.417 2.241 1.251s.711 2.157.711 3.969c0 1.8-.24 3.126-.72 3.978s-1.224 1.278-2.232 1.278zm8.37 1.098v-1.836h-1.836v1.836zm6.552.144c1.452 0 2.556-.552 3.312-1.656s1.134-2.718 1.134-4.842-.378-3.735-1.134-4.833-1.86-1.647-3.312-1.647-2.556.552-3.312 1.656-1.134 2.718-1.134 4.842c0 2.112.378 3.72 1.134 4.824s1.86 1.656 3.312 1.656zm0-1.242c-1.008 0-1.752-.426-2.232-1.278s-.72-2.178-.72-3.978.24-3.12.72-3.96 1.224-1.26 2.232-1.26c1.02 0 1.767.417 2.241 1.251s.711 2.157.711 3.969c0 1.8-.24 3.126-.72 3.978s-1.224 1.278-2.232 1.278zm10.8 1.242c1.452 0 2.556-.552 3.312-1.656s1.134-2.718 1.134-4.842-.378-3.735-1.134-4.833-1.86-1.647-3.312-1.647-2.556.552-3.312 1.656-1.134 2.718-1.134 4.842c0 2.112.378 3.72 1.134 4.824s1.86 1.656 3.312 1.656zm0-1.242c-1.008 0-1.752-.426-2.232-1.278s-.72-2.178-.72-3.978.24-3.12.72-3.96 1.224-1.26 2.232-1.26c1.02 0 1.767.417 2.241 1.251s.711 2.157.711 3.969c0 1.8-.24 3.126-.72 3.978s-1.224 1.278-2.232 1.278z" fill="#fff"/><path d="m62 12h-7.994674" stroke="#fff" stroke-linecap="round" stroke-width="4"/></g><g fill="#fff" transform="translate(142.814 266)"><path d="m7.182 24.2v-1.242h-2.79v-11.448h-1.062l-3.33 2.106.684 1.134 2.232-1.404v9.612h-2.79v1.242z"/><path d="m5.82730458.6c1.1045695 0 2 .8954305 2 2 0 1.0543618-.81587779 1.91816512-1.85073765 1.99451426l-.14926235.00548574h-5.2c-1.1045695 0-2-.8954305-2-2 0-1.0543618.81587779-1.91816512 1.85073766-1.99451426l.14926234-.00548574z" transform="matrix(0 -1 1 0 .627305 5.827305)"/></g><g fill="#fff" transform="translate(401.617 266)"><path d="m4.806 24.344c.78 0 1.482-.174 2.106-.522s1.11-.834 1.458-1.458.522-1.326.522-2.106c0-.792-.168-1.494-.504-2.106s-.804-1.086-1.404-1.422-1.284-.504-2.052-.504c-.804 0-1.512.198-2.124.594s-1.056.93-1.332 1.602v-.27c0-1.764.303-3.129.909-4.095s1.455-1.449 2.547-1.449c.564 0 1.119.117 1.665.351s1.119.603 1.719 1.107l.558-1.134c-.528-.504-1.14-.891-1.836-1.161s-1.41-.405-2.142-.405c-1.02 0-1.896.267-2.628.801s-1.293 1.311-1.683 2.331-.585 2.244-.585 3.672c0 1.98.417 3.504 1.251 4.572s2.019 1.602 3.555 1.602zm-.072-1.242c-.84 0-1.521-.261-2.043-.783s-.783-1.203-.783-2.043c0-.828.261-1.503.783-2.025s1.197-.783 2.025-.783c.816 0 1.473.258 1.971.774s.747 1.194.747 2.034c0 .852-.246 1.536-.738 2.052s-1.146.774-1.962.774z"/><path d="m7.02430458.6c1.1045695 0 2 .8954305 2 2 0 1.0543618-.81587779 1.91816512-1.85073765 1.99451426l-.14926235.00548574h-5.2c-1.1045695 0-2-.8954305-2-2 0-1.0543618.81587779-1.91816512 1.85073766-1.99451426l.14926234-.00548574z" transform="matrix(0 -1 1 0 1.824305 7.024305)"/></g><g fill="#fff" transform="translate(191.788 266)"><path d="m8.514 24.2v-1.242h-6.264l3.6-3.906c.756-.828 1.299-1.578 1.629-2.25s.495-1.374.495-2.106c0-1.02-.339-1.83-1.017-2.43s-1.599-.9-2.763-.9c-.768 0-1.533.141-2.295.423s-1.395.663-1.899 1.143l.558 1.134c1.176-.972 2.376-1.458 3.6-1.458.744 0 1.32.186 1.728.558s.612.906.612 1.602c0 .54-.135 1.077-.405 1.611s-.705 1.137-1.305 1.809l-4.446 4.896v1.116z"/><path d="m6.85330458.6c1.1045695 0 2 .8954305 2 2 0 1.0543618-.81587779 1.91816512-1.85073765 1.99451426l-.14926235.00548574h-5.2c-1.1045695 0-2-.8954305-2-2 0-1.0543618.81587779-1.91816512 1.85073766-1.99451426l.14926234-.00548574z" transform="matrix(0 -1 1 0 1.653305 6.853305)"/></g><g fill="#fff" transform="translate(451.806 266)"><path d="m2.448 24.2 5.94-11.592v-1.098h-8.388v1.242h6.768l-5.922 11.448z"/><path d="m6.83530458.6c1.1045695 0 2 .8954305 2 2 0 1.0543618-.81587779 1.91816512-1.85073765 1.99451426l-.14926235.00548574h-5.2c-1.1045695 0-2-.8954305-2-2 0-1.0543618.81587779-1.91816512 1.85073766-1.99451426l.14926234-.00548574z" transform="matrix(0 -1 1 0 1.635305 6.835305)"/></g><g fill="#fff" transform="translate(243.608 266)"><path d="m4.266 24.326c1.284 0 2.301-.318 3.051-.954s1.125-1.506 1.125-2.61c0-.792-.198-1.449-.594-1.971s-.966-.891-1.71-1.107c.636-.24 1.131-.633 1.485-1.179s.531-1.185.531-1.917c0-.984-.339-1.767-1.017-2.349s-1.593-.873-2.745-.873c-.804 0-1.578.138-2.322.414s-1.374.66-1.89 1.152l.558 1.134c1.176-.972 2.376-1.458 3.6-1.458.756 0 1.338.183 1.746.549s.612.891.612 1.575c0 .78-.252 1.377-.756 1.791s-1.224.621-2.16.621h-1.17v1.242h1.458c1.944 0 2.916.774 2.916 2.322 0 .78-.234 1.371-.702 1.773s-1.152.603-2.052.603c-1.296 0-2.52-.486-3.672-1.458l-.558 1.134c.516.492 1.152.876 1.908 1.152s1.542.414 2.358.414z"/><path d="m6.992.6c1.1045695 0 2 .8954305 2 2 0 1.0543618-.81587779 1.91816512-1.85073766 1.99451426l-.14926234.00548574h-5.2c-1.1045695 0-2-.8954305-2-2 0-1.0543618.81587779-1.91816512 1.85073766-1.99451426l.14926234-.00548574z" transform="matrix(0 -1 1 0 1.792 6.992)"/></g><g fill="#fff" transform="translate(503.446 266)"><path d="m4.554 24.326c1.452 0 2.574-.309 3.366-.927s1.188-1.473 1.188-2.565c0-.768-.207-1.428-.621-1.98s-.993-.942-1.737-1.17c.624-.228 1.122-.603 1.494-1.125s.558-1.131.558-1.827c0-1.032-.375-1.851-1.125-2.457s-1.791-.909-3.123-.909-2.373.303-3.123.909-1.125 1.425-1.125 2.457c0 .696.186 1.302.558 1.818s.876.894 1.512 1.134c-.744.216-1.326.6-1.746 1.152s-.63 1.218-.63 1.998c0 1.092.396 1.947 1.188 2.565s1.914.927 3.366.927zm0-7.182c-.912 0-1.605-.198-2.079-.594s-.711-.966-.711-1.71c0-.708.237-1.26.711-1.656s1.167-.594 2.079-.594 1.605.198 2.079.594.711.948.711 1.656c0 .744-.237 1.314-.711 1.71s-1.167.594-2.079.594zm0 5.958c-2.064 0-3.096-.786-3.096-2.358s1.032-2.358 3.096-2.358 3.096.786 3.096 2.358-1.032 2.358-3.096 2.358z"/><path d="m7.154.6c1.1045695 0 2 .8954305 2 2 0 1.0543618-.81587779 1.91816512-1.85073766 1.99451426l-.14926234.00548574h-5.2c-1.1045695 0-2-.8954305-2-2 0-1.0543618.81587779-1.91816512 1.85073766-1.99451426l.14926234-.00548574z" transform="matrix(0 -1 1 0 1.954 7.154)"/></g><g fill="#fff" transform="translate(350.022 266)"><path d="m4.176 24.326c.864 0 1.62-.171 2.268-.513s1.149-.819 1.503-1.431.531-1.32.531-2.124c0-.792-.162-1.491-.486-2.097s-.783-1.077-1.377-1.413-1.293-.504-2.097-.504c-.54 0-1.041.087-1.503.261s-.861.423-1.197.747v-4.518h6.156v-1.224h-7.614v7.434h1.026c.72-.984 1.686-1.476 2.898-1.476.828 0 1.491.258 1.989.774s.747 1.194.747 2.034c0 .864-.252 1.548-.756 2.052s-1.2.756-2.088.756c-1.236 0-2.442-.486-3.618-1.458l-.558 1.134c.516.48 1.149.861 1.899 1.143s1.509.423 2.277.423z"/><path d="m6.61930458.6c1.1045695 0 2 .8954305 2 2 0 1.0543618-.81587779 1.91816512-1.85073765 1.99451426l-.14926235.00548574h-5.2c-1.1045695 0-2-.8954305-2-2 0-1.0543618.81587779-1.91816512 1.85073766-1.99451426l.14926234-.00548574z" transform="matrix(0 -1 1 0 1.419305 6.619305)"/></g><g fill="#fff" transform="translate(607.414 266)"><path d="m7.182 24.2v-1.242h-2.79v-11.448h-1.062l-3.33 2.106.684 1.134 2.232-1.404v9.612h-2.79v1.242zm6.804.144c1.452 0 2.556-.552 3.312-1.656s1.134-2.718 1.134-4.842-.378-3.735-1.134-4.833-1.86-1.647-3.312-1.647-2.556.552-3.312 1.656-1.134 2.718-1.134 4.842c0 2.112.378 3.72 1.134 4.824s1.86 1.656 3.312 1.656zm0-1.242c-1.008 0-1.752-.426-2.232-1.278s-.72-2.178-.72-3.978.24-3.12.72-3.96 1.224-1.26 2.232-1.26c1.02 0 1.767.417 2.241 1.251s.711 2.157.711 3.969c0 1.8-.24 3.126-.72 3.978s-1.224 1.278-2.232 1.278z"/><path d="m11.2273046.6c1.1045695 0 2 .8954305 2 2 0 1.0543618-.8158778 1.91816512-1.8507377 1.99451426l-.1492623.00548574h-5.20000002c-1.1045695 0-2-.8954305-2-2 0-1.0543618.81587779-1.91816512 1.85073766-1.99451426l.14926234-.00548574z" transform="matrix(0 -1 1 0 6.027305 11.227305)"/></g><g fill="#fff" transform="translate(297.518 266)"><path d="m7.326 24.2v-2.754h1.908v-1.224h-1.908v-8.712h-1.206l-6.12 8.82v1.116h5.868v2.754zm-1.458-3.978h-4.338l4.338-6.246z"/><path d="m7.12330458.6c1.1045695 0 2 .8954305 2 2 0 1.0543618-.81587779 1.91816512-1.85073765 1.99451426l-.14926235.00548574h-5.2c-1.1045695 0-2-.8954305-2-2 0-1.0543618.81587779-1.91816512 1.85073766-1.99451426l.14926234-.00548574z" transform="matrix(0 -1 1 0 1.923305 7.123305)"/></g><g fill="#fff" transform="translate(557.518 266)"><path d="m4.176 18.242c-.816 0-1.473-.255-1.971-.765s-.747-1.191-.747-2.043.246-1.536.738-2.052 1.146-.774 1.962-.774c.84 0 1.521.261 2.043.783s.783 1.203.783 2.043c0 .828-.261 1.503-.783 2.025s-1.197.783-2.025.783zm3.222-.917v.233c0 1.764-.3 3.129-.9 4.095s-1.446 1.449-2.538 1.449c-.564 0-1.119-.117-1.665-.351s-1.119-.603-1.719-1.107l-.558 1.134c.528.504 1.14.891 1.836 1.161s1.404.405 2.124.405c1.548 0 2.754-.597 3.618-1.791s1.296-2.865 1.296-5.013c0-1.98-.417-3.504-1.251-4.572s-2.019-1.602-3.555-1.602c-.78 0-1.482.174-2.106.522s-1.11.834-1.458 1.458-.522 1.326-.522 2.106c0 .792.168 1.494.504 2.106s.804 1.086 1.404 1.422 1.284.504 2.052.504c.78 0 1.479-.192 2.097-.576s1.065-.912 1.341-1.584z"/><path d="m7.12330458.6c1.1045695 0 2 .8954305 2 2 0 1.0543618-.81587779 1.91816512-1.85073765 1.99451426l-.14926235.00548574h-5.2c-1.1045695 0-2-.8954305-2-2 0-1.0543618.81587779-1.91816512 1.85073766-1.99451426l.14926234-.00548574z" transform="matrix(0 -1 1 0 1.923305 7.123305)"/></g><path d="m644 0c3.313708 0 6 2.6862915 6 6v254c0 3.313708-2.686292 6-6 6h-576c-3.3137085 0-6-2.686292-6-6v-254c0-3.3137085 2.6862915-6 6-6zm0 2h-576c-2.1421954 0-3.8910789 1.68396847-4 3.80035966v.19964034 254c0 2.142195 1.6839685 3.891079 3.8003597 3.995105l.1996403.004895h576c2.142195 0 3.891079-1.683968 4-3.80036v-.19964-254c0-2.14219539-1.683968-3.89107888-3.80036-3.99510469z" fill="#fff"/></g><path d="m240 132h16c2.209139 0 4 1.790861 4 4v128h-24v-128c0-2.209139 1.790861-4 4-4z" fill="#222f4f"/><path d="m294 47h16c2.209139 0 4 1.790861 4 4v213h-24v-213c0-2.209139 1.790861-4 4-4z" fill="#222f4f"/><path d="m346 11h16c2.209139 0 4 1.790861 4 4v249h-24v-249c0-2.209139 1.790861-4 4-4z" fill="#222f4f"/><path d="m398 47h16c2.209139 0 4 1.790861 4 4v213h-24v-213c0-2.209139 1.790861-4 4-4z" fill="#222f4f"/><path d="m449 132h16c2.209139 0 4 1.790861 4 4v128h-24v-128c0-2.209139 1.790861-4 4-4z" fill="#222f4f"/><path d="m499 210h16c2.209139 0 4 1.790861 4 4v50h-24v-50c0-2.209139 1.790861-4 4-4z" fill="#222f4f"/><path d="m555 236h16c2.209139 0 4 1.790861 4 4v24h-24v-24c0-2.209139 1.790861-4 4-4z" fill="#222f4f"/><path d="m607 250h16c2.209139 0 4 1.790861 4 4v10h-24v-10c0-2.209139 1.790861-4 4-4z" fill="#222f4f"/></g><path d="m370 315h16c2.209139 0 4 1.790861 4 4v10h-24v-10c0-2.209139 1.790861-4 4-4z" fill="#ff8c00"/><path d="m420 301h16c2.209139 0 4 1.790861 4 4v24h-24v-24c0-2.209139 1.790861-4 4-4z" fill="#f966ff"/><path d="m470 275h16c2.209139 0 4 1.790861 4 4v50h-24v-50c0-2.209139 1.790861-4 4-4z" fill="#aee938"/><g fill="#fff" fill-rule="nonzero"><path d="m396.494521 781.740448.010989-1.99997 46.990641.258191-.010989 1.99997z"/><path d="m444.946013 764.740448.010989-1.99997 46.990642.258191-.010989 1.99997z"/><path d="m493.397506 745.740448.010989-1.99997 46.990641.258191-.010989 1.99997z"/><path d="m541.848998 703.740448.010989-1.99997 46.990642.258191-.010989 1.99997z"/><path d="m590.300491 655.740448.010989-1.99997 46.990641.258191-.010989 1.99997z"/><path d="m637.751983 580.740448.010989-1.99997 46.990642.258191-.010989 1.99997z"/><path d="m878.009446 421.740448.010989-1.99997 46.990641.258191-.010989 1.99997z"/><path d="m878.009446 421.740448.010989-1.99997 46.990641.258191-.010989 1.99997z"/><g transform="translate(393.554 813)"><path d="m4.446 34.144c1.452 0 2.556-.552 3.312-1.656s1.134-2.718 1.134-4.842-.378-3.735-1.134-4.833-1.86-1.647-3.312-1.647-2.556.552-3.312 1.656-1.134 2.718-1.134 4.842c0 2.112.378 3.72 1.134 4.824s1.86 1.656 3.312 1.656zm0-1.242c-1.008 0-1.752-.426-2.232-1.278s-.72-2.178-.72-3.978.24-3.12.72-3.96 1.224-1.26 2.232-1.26c1.02 0 1.767.417 2.241 1.251s.711 2.157.711 3.969c0 1.8-.24 3.126-.72 3.978s-1.224 1.278-2.232 1.278z"/><path d="m8.48730458 2c1.1045695 0 2.00000002.8954305 2.00000002 2 0 1.0543618-.81587781 1.91816512-1.85073767 1.99451426l-.14926235.00548574h-8c-1.1045695 0-2-.8954305-2-2 0-1.0543618.81587779-1.91816512 1.85073766-1.99451426l.14926234-.00548574z" transform="matrix(0 -1 1 0 .487305 8.487305)"/></g><g transform="translate(680.617 813)"><path d="m4.806 34.144c.78 0 1.482-.174 2.106-.522s1.11-.834 1.458-1.458.522-1.326.522-2.106c0-.792-.168-1.494-.504-2.106s-.804-1.086-1.404-1.422-1.284-.504-2.052-.504c-.804 0-1.512.198-2.124.594s-1.056.93-1.332 1.602v-.27c0-1.764.303-3.129.909-4.095s1.455-1.449 2.547-1.449c.564 0 1.119.117 1.665.351s1.119.603 1.719 1.107l.558-1.134c-.528-.504-1.14-.891-1.836-1.161s-1.41-.405-2.142-.405c-1.02 0-1.896.267-2.628.801s-1.293 1.311-1.683 2.331-.585 2.244-.585 3.672c0 1.98.417 3.504 1.251 4.572s2.019 1.602 3.555 1.602zm-.072-1.242c-.84 0-1.521-.261-2.043-.783s-.783-1.203-.783-2.043c0-.828.261-1.503.783-2.025s1.197-.783 2.025-.783c.816 0 1.473.258 1.971.774s.747 1.194.747 2.034c0 .852-.246 1.536-.738 2.052s-1.146.774-1.962.774z"/><path d="m8.42430458 2c1.1045695 0 2.00000002.8954305 2.00000002 2 0 1.0543618-.81587781 1.91816512-1.85073767 1.99451426l-.14926235.00548574h-8c-1.1045695 0-2-.8954305-2-2 0-1.0543618.81587779-1.91816512 1.85073766-1.99451426l.14926234-.00548574z" transform="matrix(0 -1 1 0 .424305 8.424305)"/></g><g transform="translate(489.788 813)"><path d="m8.514 34v-1.242h-6.264l3.6-3.906c.756-.828 1.299-1.578 1.629-2.25s.495-1.374.495-2.106c0-1.02-.339-1.83-1.017-2.43s-1.599-.9-2.763-.9c-.768 0-1.533.141-2.295.423s-1.395.663-1.899 1.143l.558 1.134c1.176-.972 2.376-1.458 3.6-1.458.744 0 1.32.186 1.728.558s.612.906.612 1.602c0 .54-.135 1.077-.405 1.611s-.705 1.137-1.305 1.809l-4.446 4.896v1.116z"/><path d="m8.25330458 2c1.1045695 0 2.00000002.8954305 2.00000002 2 0 1.0543618-.81587781 1.91816512-1.85073767 1.99451426l-.14926235.00548574h-8c-1.1045695 0-2-.8954305-2-2 0-1.0543618.81587779-1.91816512 1.85073766-1.99451426l.14926234-.00548574z" transform="matrix(0 -1 1 0 .253305 8.253305)"/></g><g transform="translate(775.446 813)"><path d="m4.554 34.126c1.452 0 2.574-.309 3.366-.927s1.188-1.473 1.188-2.565c0-.768-.207-1.428-.621-1.98s-.993-.942-1.737-1.17c.624-.228 1.122-.603 1.494-1.125s.558-1.131.558-1.827c0-1.032-.375-1.851-1.125-2.457s-1.791-.909-3.123-.909-2.373.303-3.123.909-1.125 1.425-1.125 2.457c0 .696.186 1.302.558 1.818s.876.894 1.512 1.134c-.744.216-1.326.6-1.746 1.152s-.63 1.218-.63 1.998c0 1.092.396 1.947 1.188 2.565s1.914.927 3.366.927zm0-7.182c-.912 0-1.605-.198-2.079-.594s-.711-.966-.711-1.71c0-.708.237-1.26.711-1.656s1.167-.594 2.079-.594 1.605.198 2.079.594.711.948.711 1.656c0 .744-.237 1.314-.711 1.71s-1.167.594-2.079.594zm0 5.958c-2.064 0-3.096-.786-3.096-2.358s1.032-2.358 3.096-2.358 3.096.786 3.096 2.358-1.032 2.358-3.096 2.358z"/><path d="m8.554 2c1.1045695 0 2 .8954305 2 2 0 1.0543618-.81587779 1.91816512-1.85073766 1.99451426l-.14926234.00548574h-8c-1.1045695 0-2-.8954305-2-2 0-1.0543618.81587779-1.91816512 1.85073766-1.99451426l.14926234-.00548574z" transform="matrix(0 -1 1 0 .554 8.554)"/></g><g transform="translate(869.414 813)"><path d="m7.182 34v-1.242h-2.79v-11.448h-1.062l-3.33 2.106.684 1.134 2.232-1.404v9.612h-2.79v1.242zm6.804.144c1.452 0 2.556-.552 3.312-1.656s1.134-2.718 1.134-4.842-.378-3.735-1.134-4.833-1.86-1.647-3.312-1.647-2.556.552-3.312 1.656-1.134 2.718-1.134 4.842c0 2.112.378 3.72 1.134 4.824s1.86 1.656 3.312 1.656zm0-1.242c-1.008 0-1.752-.426-2.232-1.278s-.72-2.178-.72-3.978.24-3.12.72-3.96 1.224-1.26 2.232-1.26c1.02 0 1.767.417 2.241 1.251s.711 2.157.711 3.969c0 1.8-.24 3.126-.72 3.978s-1.224 1.278-2.232 1.278z"/><path d="m12.6273046 2c1.1045695 0 2 .8954305 2 2 0 1.0543618-.8158778 1.91816512-1.8507377 1.99451426l-.1492623.00548574h-8.00000002c-1.1045695 0-2-.8954305-2-2 0-1.0543618.81587779-1.91816512 1.85073766-1.99451426l.14926234-.00548574z" transform="matrix(0 -1 1 0 4.627305 12.627305)"/></g><g transform="translate(584.518 813)"><path d="m7.326 34v-2.754h1.908v-1.224h-1.908v-8.712h-1.206l-6.12 8.82v1.116h5.868v2.754zm-1.458-3.978h-4.338l4.338-6.246z"/><path d="m8.52330458 2c1.1045695 0 2.00000002.8954305 2.00000002 2 0 1.0543618-.81587781 1.91816512-1.85073767 1.99451426l-.14926235.00548574h-8c-1.1045695 0-2-.8954305-2-2 0-1.0543618.81587779-1.91816512 1.85073766-1.99451426l.14926234-.00548574z" transform="matrix(0 -1 1 0 .523305 8.523305)"/></g><path d="m926 409c3.313708 0 6 2.686292 6 6v392c0 3.313708-2.686292 6-6 6h-576c-3.313708 0-6-2.686292-6-6v-392c0-3.313708 2.686292-6 6-6zm0 2h-576c-2.142195 0-3.891079 1.683968-4 3.80036v.19964 392c0 2.142195 1.683968 3.891079 3.80036 3.995105l.19964.004895h576c2.142195 0 3.891079-1.683968 4-3.80036v-.19964-392c0-2.142195-1.683968-3.891079-3.80036-3.995105z"/><path d="m685.203476 519.740448.010989-1.99997 46.990641.258191-.010989 1.99997z"/><path d="m735.654968 494.740448.010989-1.99997 46.990642.258191-.010989 1.99997z"/><path d="m784.106461 461.740448.010989-1.99997 46.990641.258191-.010989 1.99997z"/><path d="m830.557954 443.740448.010988-1.99997 46.990642.258191-.010989 1.99997z"/></g><g transform="translate(282 403)"><text fill="#fff" font-family="NunitoSans-Regular, Nunito Sans" font-size="18"><tspan x="13.139" y="18">1.0</tspan></text><path d="m62.041305 12h-8" fill-rule="nonzero" stroke="#fff" stroke-linecap="round" stroke-width="4"/></g><g transform="translate(282 481)"><text fill="#fff" font-family="NunitoSans-Regular, Nunito Sans" font-size="18"><tspan x="7.739" y="18">0.80</tspan></text><path d="m62.041305 12h-8" fill-rule="nonzero" stroke="#fff" stroke-linecap="round" stroke-width="4"/></g><g transform="translate(282 559)"><text fill="#fff" font-family="NunitoSans-Regular, Nunito Sans" font-size="18"><tspan x="7.748" y="18">0.60</tspan></text><path d="m62.041305 12h-8" fill-rule="nonzero" stroke="#fff" stroke-linecap="round" stroke-width="4"/></g><g transform="translate(282 639)"><text fill="#fff" font-family="NunitoSans-Regular, Nunito Sans" font-size="18"><tspan x="7.739" y="18">0.40</tspan></text><path d="m62.041305 12h-8" fill-rule="nonzero" stroke="#fff" stroke-linecap="round" stroke-width="4"/></g><g transform="translate(282 717)"><text fill="#fff" font-family="NunitoSans-Regular, Nunito Sans" font-size="18"><tspan x="7.739" y="18">0.20</tspan></text><path d="m62.041305 12h-8" fill-rule="nonzero" stroke="#fff" stroke-linecap="round" stroke-width="4"/></g><g transform="translate(282 795)"><text fill="#fff" font-family="NunitoSans-Regular, Nunito Sans" font-size="18"><tspan x="13.139" y="18">0.0</tspan></text><path d="m62.041305 12h-8" fill-rule="nonzero" stroke="#fff" stroke-linecap="round" stroke-width="4"/></g></g></svg>