<?xml version="1.0" encoding="UTF-8" standalone="no"?>
<svg
   xmlns:dc="http://purl.org/dc/elements/1.1/"
   xmlns:cc="http://creativecommons.org/ns#"
   xmlns:rdf="http://www.w3.org/1999/02/22-rdf-syntax-ns#"
   xmlns:svg="http://www.w3.org/2000/svg"
   xmlns="http://www.w3.org/2000/svg"
   xmlns:sodipodi="http://sodipodi.sourceforge.net/DTD/sodipodi-0.dtd"
   xmlns:inkscape="http://www.inkscape.org/namespaces/inkscape"
   width="1214px"
   height="866px"
   viewBox="0 0 1214 866"
   version="1.1"
   id="svg91"
   sodipodi:docname="merge_ex_1.svg"
   inkscape:version="0.92.3 (2405546, 2018-03-11)">
  <metadata
     id="metadata95">
    <rdf:RDF>
      <cc:Work
         rdf:about="">
        <dc:format>image/svg+xml</dc:format>
        <dc:type
           rdf:resource="http://purl.org/dc/dcmitype/StillImage" />
        <dc:title>merge sort ex 1</dc:title>
      </cc:Work>
    </rdf:RDF>
  </metadata>
  <sodipodi:namedview
     pagecolor="#ffffff"
     bordercolor="#666666"
     borderopacity="1"
     objecttolerance="10"
     gridtolerance="10"
     guidetolerance="10"
     inkscape:pageopacity="0"
     inkscape:pageshadow="2"
     inkscape:window-width="1021"
     inkscape:window-height="581"
     id="namedview93"
     showgrid="false"
     inkscape:zoom="0.23640857"
     inkscape:cx="140.45323"
     inkscape:cy="755.60804"
     inkscape:window-x="0"
     inkscape:window-y="0"
     inkscape:window-maximized="0"
     inkscape:current-layer="merge-sort-ex-1" />
  <!-- Generator: Sketch 51.3 (57544) - http://www.bohemiancoding.com/sketch -->
  <title
     id="title2">merge sort ex 1</title>
  <desc
     id="desc4">Created with Sketch.</desc>
  <defs
     id="defs6" />
  <g
     id="merge-sort-ex-1"
     style="fill:none;fill-rule:evenodd;stroke:none;stroke-width:1">
    <rect
       style="opacity:1;fill:#450000;fill-opacity:1;fill-rule:nonzero;stroke:#03f3f4;stroke-width:0.75590551;stroke-linecap:round;stroke-linejoin:miter;stroke-miterlimit:4;stroke-dasharray:none;stroke-dashoffset:0;stroke-opacity:1;paint-order:stroke fill markers"
       id="rect4605"
       width="1226.6899"
       height="884.06274"
       x="8.4599304"
       y="-1.1428572"
       rx="14.8194" />
    <g
       id="Group-6"
       transform="matrix(1.4097292,0,0,1.6952677,180.26564,290.1614)">
      <rect
         id="Rectangle-Copy-7"
         x="1"
         y="1"
         width="58"
         height="58"
         style="fill:#415c6f;fill-rule:nonzero;stroke:#ffffff;stroke-width:2" />
      <rect
         id="Rectangle-Copy-8"
         x="59"
         y="1"
         width="58"
         height="58"
         style="fill:#415c6f;fill-rule:nonzero;stroke:#ffffff;stroke-width:2" />
      <rect
         id="Rectangle-Copy-9"
         x="117"
         y="1"
         width="58"
         height="58"
         style="fill:#415c6f;fill-rule:nonzero;stroke:#ffffff;stroke-width:2" />
      <rect
         id="Rectangle-Copy-10"
         x="175"
         y="1"
         width="58"
         height="58"
         style="fill:#415c6f;fill-rule:nonzero;stroke:#ffffff;stroke-width:2" />
      <path
         d="m 21.874783,32.992187 c -0.992192,0 -1.904293,-0.216794 -2.736328,-0.65039 -0.832036,-0.433596 -1.501951,-1.060543 -2.009766,-1.88086 -0.507815,-0.820316 -0.761718,-1.753901 -0.761718,-2.800781 0,-1.593758 0.546869,-2.914057 1.640625,-3.960937 1.093755,-1.046881 2.523428,-1.570313 4.289062,-1.570313 0.914067,0 1.744137,0.146483 2.490234,0.439453 0.746098,0.292971 1.359373,0.69531 1.839844,1.207032 0.480471,0.511721 0.851561,1.109371 1.113281,1.792968 0.26172,0.683597 0.392579,1.423824 0.392579,2.220703 0,1.117194 -0.191405,2.128902 -0.574219,3.035157 -0.382815,0.906254 -1.042964,1.996087 -1.980469,3.269531 -0.335939,0.445315 -0.89648,1.160151 -1.681641,2.144531 -0.78516,0.98438 -1.486325,1.855465 -2.103515,2.613281 L 20.866971,40 h -2.578125 l 6.222656,-7.710938 c -0.882817,0.468753 -1.761715,0.703125 -2.636719,0.703125 z m 4.042969,-5.425781 c 0,-1.070318 -0.302732,-1.947262 -0.908203,-2.630859 -0.605472,-0.683597 -1.486323,-1.025391 -2.642578,-1.025391 -1.164069,0 -2.085935,0.357419 -2.765625,1.072266 -0.679691,0.714847 -1.019532,1.595698 -1.019532,2.642578 0,1.093755 0.328122,1.968747 0.984375,2.625 0.656254,0.656253 1.566401,0.984375 2.730469,0.984375 1.234381,0 2.146481,-0.33984 2.736328,-1.019531 0.589847,-0.679691 0.884766,-1.562495 0.884766,-2.648438 z m 10.943576,12.703125 c -1.062505,0 -2.02148,-0.177732 -2.876953,-0.533203 -0.855473,-0.35547 -1.548826,-0.900387 -2.080078,-1.634766 -0.531253,-0.734378 -0.796875,-1.605463 -0.796875,-2.613281 0,-1.117193 0.320309,-2.089839 0.960937,-2.917969 0.640629,-0.828129 1.535151,-1.429685 2.683594,-1.804687 -2.187511,-0.773441 -3.28125,-2.179677 -3.28125,-4.21875 0,-1.382819 0.499995,-2.46484 1.5,-3.246094 1.000005,-0.781254 2.296867,-1.171875 3.890625,-1.171875 1.585946,0 2.871089,0.390621 3.855469,1.171875 0.98438,0.781254 1.476562,1.863275 1.476562,3.246094 0,1.031255 -0.265622,1.898434 -0.796875,2.601562 -0.531252,0.703129 -1.273432,1.242186 -2.226562,1.617188 1.054693,0.375002 1.882809,0.976558 2.484375,1.804687 0.601565,0.82813 0.902344,1.800776 0.902344,2.917969 0,1.500008 -0.541011,2.671871 -1.623047,3.515625 -1.082037,0.843755 -2.439445,1.265625 -4.072266,1.265625 z m 0,-8.507812 c -1.117193,0.257813 -2.011715,0.68945 -2.683594,1.294922 -0.671878,0.605471 -1.007812,1.369136 -1.007812,2.291015 0,0.960943 0.347653,1.724607 1.042969,2.291016 0.695316,0.566409 1.578119,0.849609 2.648437,0.849609 1.070318,0 1.943356,-0.2832 2.619141,-0.849609 0.675784,-0.566409 1.013672,-1.330073 1.013672,-2.291016 0,-0.929692 -0.328122,-1.697262 -0.984375,-2.302734 -0.656254,-0.605472 -1.539057,-1.033202 -2.648438,-1.283203 z m 0,-7.851563 c -0.92188,0 -1.705075,0.230467 -2.349609,0.691406 -0.644535,0.46094 -0.966797,1.093746 -0.966797,1.898438 0,1.843759 1.105458,3.011716 3.316406,3.503906 2.179698,-0.49219 3.269531,-1.660147 3.269531,-3.503906 0,-0.804692 -0.316403,-1.437498 -0.949218,-1.898438 -0.632816,-0.460939 -1.406246,-0.691406 -2.320313,-0.691406 z"
         id="98"
         inkscape:connector-curvature="0"
         style="fill:#ffffff" />
      <path
         d="m 81.519314,22.46875 h 1.863282 V 40 H 81.308377 V 24.636719 c -0.789067,0.515627 -1.753901,0.957029 -2.894531,1.324218 v -1.957031 c 0.125,-0.05469 0.378904,-0.164061 0.761718,-0.328125 0.382815,-0.164063 0.669921,-0.289062 0.861328,-0.375 0.191408,-0.08594 0.43164,-0.20703 0.720704,-0.363281 0.289064,-0.156251 0.542967,-0.312499 0.761718,-0.46875 z m 10.498264,17.800781 c -1.04688,0 -1.978511,-0.136717 -2.794922,-0.410156 -0.81641,-0.273439 -1.412107,-0.589842 -1.787109,-0.949219 l 0.65625,-1.722656 c 1.101568,0.867192 2.414055,1.300781 3.9375,1.300781 1.171881,0 2.103512,-0.291013 2.794922,-0.873047 0.69141,-0.582034 1.037109,-1.396479 1.037109,-2.443359 0,-0.570315 -0.08789,-1.068357 -0.263672,-1.494141 -0.175782,-0.425783 -0.410155,-0.76953 -0.703125,-1.03125 -0.29297,-0.26172 -0.667966,-0.472655 -1.125,-0.632812 -0.457033,-0.160157 -0.925779,-0.273437 -1.40625,-0.339844 -0.480471,-0.06641 -1.037106,-0.107422 -1.669922,-0.123047 -0.07813,0 -0.195311,-0.002 -0.351562,-0.0059 -0.156251,-0.0039 -0.273437,-0.0059 -0.351563,-0.0059 v -1.746093 h 0.585938 c 0.546878,-0.0078 1.029295,-0.03711 1.447265,-0.08789 0.417971,-0.05078 0.835936,-0.142577 1.253907,-0.275391 0.417971,-0.132813 0.76367,-0.308592 1.037109,-0.527343 0.273439,-0.218751 0.496093,-0.511717 0.667969,-0.878907 0.171876,-0.367189 0.257812,-0.800778 0.257812,-1.300781 0,-1.875009 -1.074208,-2.8125 -3.222656,-2.8125 -0.773441,0 -1.499996,0.11328 -2.179687,0.339844 -0.679691,0.226564 -1.261717,0.531248 -1.746094,0.914062 l -0.65625,-1.710937 c 1.164068,-0.882817 2.839833,-1.324219 5.027344,-1.324219 0.882817,0 1.699215,0.162108 2.449218,0.486328 0.750004,0.324221 1.367186,0.82031 1.851563,1.488282 0.484377,0.667972 0.726562,1.451167 0.726562,2.349609 0,1.093755 -0.269528,1.992184 -0.808593,2.695312 -0.539066,0.703129 -1.29687,1.20703 -2.273438,1.511719 1.093756,0.234376 1.951169,0.74609 2.572266,1.535156 0.621097,0.789067 0.93164,1.789057 0.93164,3 0,1.539071 -0.550775,2.769527 -1.652343,3.691407 -1.101568,0.921879 -2.515617,1.382812 -4.242188,1.382812 z"
         id="13"
         inkscape:connector-curvature="0"
         style="fill:#ffffff" />
      <path
         d="m 126.19889,40.4531 -0.27636,-1.970602 6.2122,-6.897106 c 0.41655,-0.464616 0.81908,-1.065403 1.20759,-1.80238 0.38852,-0.736977 0.67089,-1.361795 0.84712,-1.874475 l 0.27637,-0.756999 c 0,-0.993317 -0.27637,-1.764327 -0.8291,-2.313054 -0.55273,-0.548728 -1.33776,-0.823087 -2.35511,-0.823087 -1.69825,0 -3.036,0.492645 -4.0133,1.477951 l -0.69692,-1.802379 c 1.10547,-1.041381 2.72359,-1.562063 4.85441,-1.562063 1.63417,0 2.93587,0.44258 3.90516,1.327753 0.96928,0.885173 1.45392,2.068724 1.45392,3.550688 -0.032,0.112149 -0.0801,0.262346 -0.14419,0.450595 -0.0641,0.18825 -0.20227,0.55473 -0.41455,1.099452 -0.21228,0.544722 -0.43457,1.061399 -0.66688,1.550046 -0.23231,0.488648 -0.52669,1.025351 -0.88317,1.610126 -0.35647,0.584775 -0.71894,1.073416 -1.08743,1.465936 l -5.0707,5.419155 h 8.327 l -0.13218,1.850443 z m 16.09948,0 6.17615,-16.113275 h -8.11071 l 0.13218,-1.862459 h 10.41775 v 1.634158 L 144.48526,40.4531 Z m 23.89777,-4.457886 h -2.04269 V 40.4531 h -2.01867 v -4.457886 h -8.12272 v -1.838427 l 7.89442,-11.679421 h 2.24697 v 11.775548 h 2.21092 z m -4.06136,-10.790246 -6.00793,9.047946 h 6.00793 z"
         id="274"
         inkscape:connector-curvature="0"
         style="fill:#ffffff" />
      <polygon
         id="7"
         points="198.69227,22.46875 208.85243,22.46875 208.85243,24.0625 202.5829,40 200.45009,40 206.47352,24.285156 198.56337,24.285156 "
         style="fill:#ffffff" />
    </g>
    <g
       id="Group-12"
       transform="matrix(1.4097292,0,0,1.6952677,116.82783,486.81245)">
      <g
         id="Group-7">
        <rect
           id="Rectangle-Copy-14"
           x="1"
           y="1"
           width="58"
           height="58"
           style="fill:#415c6f;fill-rule:nonzero;stroke:#ffffff;stroke-width:2" />
        <rect
           id="Rectangle-Copy-15"
           x="59"
           y="1"
           width="58"
           height="58"
           style="fill:#415c6f;fill-rule:nonzero;stroke:#ffffff;stroke-width:2" />
        <path
           d="m 21.874783,32.992187 c -0.992192,0 -1.904293,-0.216794 -2.736328,-0.65039 -0.832036,-0.433596 -1.501951,-1.060543 -2.009766,-1.88086 -0.507815,-0.820316 -0.761718,-1.753901 -0.761718,-2.800781 0,-1.593758 0.546869,-2.914057 1.640625,-3.960937 1.093755,-1.046881 2.523428,-1.570313 4.289062,-1.570313 0.914067,0 1.744137,0.146483 2.490234,0.439453 0.746098,0.292971 1.359373,0.69531 1.839844,1.207032 0.480471,0.511721 0.851561,1.109371 1.113281,1.792968 0.26172,0.683597 0.392579,1.423824 0.392579,2.220703 0,1.117194 -0.191405,2.128902 -0.574219,3.035157 -0.382815,0.906254 -1.042964,1.996087 -1.980469,3.269531 -0.335939,0.445315 -0.89648,1.160151 -1.681641,2.144531 -0.78516,0.98438 -1.486325,1.855465 -2.103515,2.613281 L 20.866971,40 h -2.578125 l 6.222656,-7.710938 c -0.882817,0.468753 -1.761715,0.703125 -2.636719,0.703125 z m 4.042969,-5.425781 c 0,-1.070318 -0.302732,-1.947262 -0.908203,-2.630859 -0.605472,-0.683597 -1.486323,-1.025391 -2.642578,-1.025391 -1.164069,0 -2.085935,0.357419 -2.765625,1.072266 -0.679691,0.714847 -1.019532,1.595698 -1.019532,2.642578 0,1.093755 0.328122,1.968747 0.984375,2.625 0.656254,0.656253 1.566401,0.984375 2.730469,0.984375 1.234381,0 2.146481,-0.33984 2.736328,-1.019531 0.589847,-0.679691 0.884766,-1.562495 0.884766,-2.648438 z m 10.943576,12.703125 c -1.062505,0 -2.02148,-0.177732 -2.876953,-0.533203 -0.855473,-0.35547 -1.548826,-0.900387 -2.080078,-1.634766 -0.531253,-0.734378 -0.796875,-1.605463 -0.796875,-2.613281 0,-1.117193 0.320309,-2.089839 0.960937,-2.917969 0.640629,-0.828129 1.535151,-1.429685 2.683594,-1.804687 -2.187511,-0.773441 -3.28125,-2.179677 -3.28125,-4.21875 0,-1.382819 0.499995,-2.46484 1.5,-3.246094 1.000005,-0.781254 2.296867,-1.171875 3.890625,-1.171875 1.585946,0 2.871089,0.390621 3.855469,1.171875 0.98438,0.781254 1.476562,1.863275 1.476562,3.246094 0,1.031255 -0.265622,1.898434 -0.796875,2.601562 -0.531252,0.703129 -1.273432,1.242186 -2.226562,1.617188 1.054693,0.375002 1.882809,0.976558 2.484375,1.804687 0.601565,0.82813 0.902344,1.800776 0.902344,2.917969 0,1.500008 -0.541011,2.671871 -1.623047,3.515625 -1.082037,0.843755 -2.439445,1.265625 -4.072266,1.265625 z m 0,-8.507812 c -1.117193,0.257813 -2.011715,0.68945 -2.683594,1.294922 -0.671878,0.605471 -1.007812,1.369136 -1.007812,2.291015 0,0.960943 0.347653,1.724607 1.042969,2.291016 0.695316,0.566409 1.578119,0.849609 2.648437,0.849609 1.070318,0 1.943356,-0.2832 2.619141,-0.849609 0.675784,-0.566409 1.013672,-1.330073 1.013672,-2.291016 0,-0.929692 -0.328122,-1.697262 -0.984375,-2.302734 -0.656254,-0.605472 -1.539057,-1.033202 -2.648438,-1.283203 z m 0,-7.851563 c -0.92188,0 -1.705075,0.230467 -2.349609,0.691406 -0.644535,0.46094 -0.966797,1.093746 -0.966797,1.898438 0,1.843759 1.105458,3.011716 3.316406,3.503906 2.179698,-0.49219 3.269531,-1.660147 3.269531,-3.503906 0,-0.804692 -0.316403,-1.437498 -0.949218,-1.898438 -0.632816,-0.460939 -1.406246,-0.691406 -2.320313,-0.691406 z"
           id="98-copy"
           inkscape:connector-curvature="0"
           style="fill:#ffffff" />
        <path
           d="m 81.519314,22.46875 h 1.863282 V 40 H 81.308377 V 24.636719 c -0.789067,0.515627 -1.753901,0.957029 -2.894531,1.324218 v -1.957031 c 0.125,-0.05469 0.378904,-0.164061 0.761718,-0.328125 0.382815,-0.164063 0.669921,-0.289062 0.861328,-0.375 0.191408,-0.08594 0.43164,-0.20703 0.720704,-0.363281 0.289064,-0.156251 0.542967,-0.312499 0.761718,-0.46875 z m 10.498264,17.800781 c -1.04688,0 -1.978511,-0.136717 -2.794922,-0.410156 -0.81641,-0.273439 -1.412107,-0.589842 -1.787109,-0.949219 l 0.65625,-1.722656 c 1.101568,0.867192 2.414055,1.300781 3.9375,1.300781 1.171881,0 2.103512,-0.291013 2.794922,-0.873047 0.69141,-0.582034 1.037109,-1.396479 1.037109,-2.443359 0,-0.570315 -0.08789,-1.068357 -0.263672,-1.494141 -0.175782,-0.425783 -0.410155,-0.76953 -0.703125,-1.03125 -0.29297,-0.26172 -0.667966,-0.472655 -1.125,-0.632812 -0.457033,-0.160157 -0.925779,-0.273437 -1.40625,-0.339844 -0.480471,-0.06641 -1.037106,-0.107422 -1.669922,-0.123047 -0.07813,0 -0.195311,-0.002 -0.351562,-0.0059 -0.156251,-0.0039 -0.273437,-0.0059 -0.351563,-0.0059 v -1.746093 h 0.585938 c 0.546878,-0.0078 1.029295,-0.03711 1.447265,-0.08789 0.417971,-0.05078 0.835936,-0.142577 1.253907,-0.275391 0.417971,-0.132813 0.76367,-0.308592 1.037109,-0.527343 0.273439,-0.218751 0.496093,-0.511717 0.667969,-0.878907 0.171876,-0.367189 0.257812,-0.800778 0.257812,-1.300781 0,-1.875009 -1.074208,-2.8125 -3.222656,-2.8125 -0.773441,0 -1.499996,0.11328 -2.179687,0.339844 -0.679691,0.226564 -1.261717,0.531248 -1.746094,0.914062 l -0.65625,-1.710937 c 1.164068,-0.882817 2.839833,-1.324219 5.027344,-1.324219 0.882817,0 1.699215,0.162108 2.449218,0.486328 0.750004,0.324221 1.367186,0.82031 1.851563,1.488282 0.484377,0.667972 0.726562,1.451167 0.726562,2.349609 0,1.093755 -0.269528,1.992184 -0.808593,2.695312 -0.539066,0.703129 -1.29687,1.20703 -2.273438,1.511719 1.093756,0.234376 1.951169,0.74609 2.572266,1.535156 0.621097,0.789067 0.93164,1.789057 0.93164,3 0,1.539071 -0.550775,2.769527 -1.652343,3.691407 -1.101568,0.921879 -2.515617,1.382812 -4.242188,1.382812 z"
           id="13-copy"
           inkscape:connector-curvature="0"
           style="fill:#ffffff" />
      </g>
      <g
         id="Group-8"
         transform="translate(206)">
        <rect
           id="Rectangle-Copy-16"
           x="1"
           y="1"
           width="58"
           height="58"
           style="fill:#415c6f;fill-rule:nonzero;stroke:#ffffff;stroke-width:2" />
        <rect
           id="Rectangle-Copy-17"
           x="59"
           y="1"
           width="58"
           height="58"
           style="fill:#415c6f;fill-rule:nonzero;stroke:#ffffff;stroke-width:2" />
        <path
           d="m 11.192057,40 -0.269531,-1.921875 6.058594,-6.726563 c 0.406252,-0.453127 0.798826,-1.039058 1.177734,-1.757812 0.378908,-0.718754 0.654296,-1.328123 0.826172,-1.828125 l 0.269531,-0.738281 c 0,-0.968755 -0.269528,-1.720701 -0.808593,-2.25586 -0.539066,-0.535159 -1.304683,-0.802734 -2.296875,-0.802734 -1.656259,0 -2.960933,0.480464 -3.914063,1.441406 l -0.679687,-1.757812 c 1.07813,-1.01563 2.656239,-1.523438 4.734375,-1.523438 1.593758,0 2.863276,0.431637 3.808593,1.294922 0.945318,0.863286 1.417969,2.017571 1.417969,3.462891 -0.03125,0.109375 -0.07813,0.255858 -0.140625,0.439453 -0.0625,0.183595 -0.197264,0.541013 -0.404297,1.072265 -0.207032,0.531253 -0.423827,1.035154 -0.65039,1.511719 -0.226564,0.476565 -0.513671,0.999997 -0.861329,1.570313 -0.347657,0.570315 -0.70117,1.046873 -1.060546,1.429687 l -4.945313,5.285156 H 21.57487 L 21.445964,40 Z m 15.701389,0 6.023438,-15.714844 H 25.006727 L 25.135634,22.46875 H 35.29579 V 24.0625 L 29.026259,40 Z M 50.200304,35.652344 H 48.208116 V 40 h -1.96875 V 35.652344 H 38.317491 V 33.859375 L 46.01671,22.46875 h 2.191406 v 11.484375 h 2.15625 z m -3.960938,-10.523438 -5.859375,8.824219 h 5.859375 z"
           id="274-copy"
           inkscape:connector-curvature="0"
           style="fill:#ffffff" />
        <polygon
           id="7-copy"
           points="82.692274,22.46875 92.852431,22.46875 92.852431,24.0625 86.582899,40 84.450087,40 90.473524,24.285156 82.563368,24.285156 "
           style="fill:#ffffff" />
      </g>
    </g>
    <g
       id="Group-9"
       transform="matrix(1.4097292,0,0,1.6952677,74.53595,683.4635)">
      <rect
         id="Rectangle-Copy-21"
         x="1"
         y="1"
         width="58"
         height="58"
         style="fill:#415c6f;fill-rule:nonzero;stroke:#ffffff;stroke-width:2" />
      <rect
         id="Rectangle-Copy-22"
         x="109"
         y="1"
         width="58"
         height="58"
         style="fill:#415c6f;fill-rule:nonzero;stroke:#ffffff;stroke-width:2" />
      <rect
         id="Rectangle-Copy-23"
         x="217"
         y="1"
         width="58"
         height="58"
         style="fill:#415c6f;fill-rule:nonzero;stroke:#ffffff;stroke-width:2" />
      <rect
         id="Rectangle-Copy-24"
         x="325"
         y="1"
         width="58"
         height="58"
         style="fill:#415c6f;fill-rule:nonzero;stroke:#ffffff;stroke-width:2" />
      <path
         d="m 21.874783,32.992187 c -0.992192,0 -1.904293,-0.216794 -2.736328,-0.65039 -0.832036,-0.433596 -1.501951,-1.060543 -2.009766,-1.88086 -0.507815,-0.820316 -0.761718,-1.753901 -0.761718,-2.800781 0,-1.593758 0.546869,-2.914057 1.640625,-3.960937 1.093755,-1.046881 2.523428,-1.570313 4.289062,-1.570313 0.914067,0 1.744137,0.146483 2.490234,0.439453 0.746098,0.292971 1.359373,0.69531 1.839844,1.207032 0.480471,0.511721 0.851561,1.109371 1.113281,1.792968 0.26172,0.683597 0.392579,1.423824 0.392579,2.220703 0,1.117194 -0.191405,2.128902 -0.574219,3.035157 -0.382815,0.906254 -1.042964,1.996087 -1.980469,3.269531 -0.335939,0.445315 -0.89648,1.160151 -1.681641,2.144531 -0.78516,0.98438 -1.486325,1.855465 -2.103515,2.613281 L 20.866971,40 h -2.578125 l 6.222656,-7.710938 c -0.882817,0.468753 -1.761715,0.703125 -2.636719,0.703125 z m 4.042969,-5.425781 c 0,-1.070318 -0.302732,-1.947262 -0.908203,-2.630859 -0.605472,-0.683597 -1.486323,-1.025391 -2.642578,-1.025391 -1.164069,0 -2.085935,0.357419 -2.765625,1.072266 -0.679691,0.714847 -1.019532,1.595698 -1.019532,2.642578 0,1.093755 0.328122,1.968747 0.984375,2.625 0.656254,0.656253 1.566401,0.984375 2.730469,0.984375 1.234381,0 2.146481,-0.33984 2.736328,-1.019531 0.589847,-0.679691 0.884766,-1.562495 0.884766,-2.648438 z m 10.943576,12.703125 c -1.062505,0 -2.02148,-0.177732 -2.876953,-0.533203 -0.855473,-0.35547 -1.548826,-0.900387 -2.080078,-1.634766 -0.531253,-0.734378 -0.796875,-1.605463 -0.796875,-2.613281 0,-1.117193 0.320309,-2.089839 0.960937,-2.917969 0.640629,-0.828129 1.535151,-1.429685 2.683594,-1.804687 -2.187511,-0.773441 -3.28125,-2.179677 -3.28125,-4.21875 0,-1.382819 0.499995,-2.46484 1.5,-3.246094 1.000005,-0.781254 2.296867,-1.171875 3.890625,-1.171875 1.585946,0 2.871089,0.390621 3.855469,1.171875 0.98438,0.781254 1.476562,1.863275 1.476562,3.246094 0,1.031255 -0.265622,1.898434 -0.796875,2.601562 -0.531252,0.703129 -1.273432,1.242186 -2.226562,1.617188 1.054693,0.375002 1.882809,0.976558 2.484375,1.804687 0.601565,0.82813 0.902344,1.800776 0.902344,2.917969 0,1.500008 -0.541011,2.671871 -1.623047,3.515625 -1.082037,0.843755 -2.439445,1.265625 -4.072266,1.265625 z m 0,-8.507812 c -1.117193,0.257813 -2.011715,0.68945 -2.683594,1.294922 -0.671878,0.605471 -1.007812,1.369136 -1.007812,2.291015 0,0.960943 0.347653,1.724607 1.042969,2.291016 0.695316,0.566409 1.578119,0.849609 2.648437,0.849609 1.070318,0 1.943356,-0.2832 2.619141,-0.849609 0.675784,-0.566409 1.013672,-1.330073 1.013672,-2.291016 0,-0.929692 -0.328122,-1.697262 -0.984375,-2.302734 -0.656254,-0.605472 -1.539057,-1.033202 -2.648438,-1.283203 z m 0,-7.851563 c -0.92188,0 -1.705075,0.230467 -2.349609,0.691406 -0.644535,0.46094 -0.966797,1.093746 -0.966797,1.898438 0,1.843759 1.105458,3.011716 3.316406,3.503906 2.179698,-0.49219 3.269531,-1.660147 3.269531,-3.503906 0,-0.804692 -0.316403,-1.437498 -0.949218,-1.898438 -0.632816,-0.460939 -1.406246,-0.691406 -2.320313,-0.691406 z"
         id="98-copy-2"
         inkscape:connector-curvature="0"
         style="fill:#ffffff" />
      <path
         d="m 131.51931,22.46875 h 1.86329 V 40 h -2.07422 V 24.636719 c -0.78907,0.515627 -1.7539,0.957029 -2.89453,1.324218 v -1.957031 c 0.125,-0.05469 0.3789,-0.164061 0.76171,-0.328125 0.38282,-0.164063 0.66992,-0.289062 0.86133,-0.375 0.19141,-0.08594 0.43164,-0.20703 0.72071,-0.363281 0.28906,-0.156251 0.54296,-0.312499 0.76171,-0.46875 z m 10.49827,17.800781 c -1.04688,0 -1.97851,-0.136717 -2.79492,-0.410156 -0.81641,-0.273439 -1.41211,-0.589842 -1.78711,-0.949219 L 138.0918,37.1875 c 1.10156,0.867192 2.41405,1.300781 3.9375,1.300781 1.17188,0 2.10351,-0.291013 2.79492,-0.873047 0.69141,-0.582034 1.03711,-1.396479 1.03711,-2.443359 0,-0.570315 -0.0879,-1.068357 -0.26367,-1.494141 -0.17579,-0.425783 -0.41016,-0.76953 -0.70313,-1.03125 -0.29297,-0.26172 -0.66797,-0.472655 -1.125,-0.632812 -0.45703,-0.160157 -0.92578,-0.273437 -1.40625,-0.339844 -0.48047,-0.06641 -1.03711,-0.107422 -1.66992,-0.123047 -0.0781,0 -0.19531,-0.002 -0.35156,-0.0059 -0.15625,-0.0039 -0.27344,-0.0059 -0.35157,-0.0059 v -1.746093 h 0.58594 c 0.54688,-0.0078 1.0293,-0.03711 1.44727,-0.08789 0.41797,-0.05078 0.83593,-0.142577 1.2539,-0.275391 0.41797,-0.132813 0.76367,-0.308592 1.03711,-0.527343 0.27344,-0.218751 0.4961,-0.511717 0.66797,-0.878907 0.17188,-0.367189 0.25781,-0.800778 0.25781,-1.300781 0,-1.875009 -1.0742,-2.8125 -3.22265,-2.8125 -0.77344,0 -1.5,0.11328 -2.17969,0.339844 -0.67969,0.226564 -1.26172,0.531248 -1.74609,0.914062 l -0.65625,-1.710937 c 1.16406,-0.882817 2.83983,-1.324219 5.02734,-1.324219 0.88282,0 1.69922,0.162108 2.44922,0.486328 0.75,0.324221 1.36718,0.82031 1.85156,1.488282 0.48438,0.667972 0.72656,1.451167 0.72656,2.349609 0,1.093755 -0.26952,1.992184 -0.80859,2.695312 -0.53907,0.703129 -1.29687,1.20703 -2.27344,1.511719 1.09376,0.234376 1.95117,0.74609 2.57227,1.535156 0.6211,0.789067 0.93164,1.789057 0.93164,3 0,1.539071 -0.55078,2.769527 -1.65234,3.691407 -1.10157,0.921879 -2.51562,1.382812 -4.24219,1.382812 z"
         id="13-copy-2"
         inkscape:connector-curvature="0"
         style="fill:#ffffff" />
      <path
         d="m 227.19206,40 -0.26953,-1.921875 6.05859,-6.726563 c 0.40625,-0.453127 0.79883,-1.039058 1.17773,-1.757812 0.37891,-0.718754 0.6543,-1.328123 0.82618,-1.828125 l 0.26953,-0.738281 c 0,-0.968755 -0.26953,-1.720701 -0.8086,-2.25586 -0.53906,-0.535159 -1.30468,-0.802734 -2.29687,-0.802734 -1.65626,0 -2.96093,0.480464 -3.91406,1.441406 l -0.67969,-1.757812 c 1.07813,-1.01563 2.65624,-1.523438 4.73437,-1.523438 1.59376,0 2.86328,0.431637 3.8086,1.294922 0.94531,0.863286 1.41797,2.017571 1.41797,3.462891 -0.0312,0.109375 -0.0781,0.255858 -0.14063,0.439453 -0.0625,0.183595 -0.19726,0.541013 -0.4043,1.072265 -0.20703,0.531253 -0.42382,1.035154 -0.65039,1.511719 -0.22656,0.476565 -0.51367,0.999997 -0.86132,1.570313 -0.34766,0.570315 -0.70118,1.046873 -1.06055,1.429687 l -4.94531,5.285156 h 8.12109 L 237.44596,40 Z m 15.70139,0 6.02343,-15.714844 h -7.91015 l 0.1289,-1.816406 h 10.16016 V 24.0625 L 245.02626,40 Z m 23.30685,-4.347656 h -1.99218 V 40 h -1.96875 v -4.347656 h -7.92188 v -1.792969 l 7.69922,-11.390625 h 2.19141 v 11.484375 h 2.15625 z m -3.96093,-10.523438 -5.85938,8.824219 h 5.85938 z"
         id="274-copy-2"
         inkscape:connector-curvature="0"
         style="fill:#ffffff" />
      <polygon
         id="7-copy-2"
         points="348.69227,22.46875 358.85243,22.46875 358.85243,24.0625 352.5829,40 350.45009,40 356.47352,24.285156 348.56337,24.285156 "
         style="fill:#ffffff" />
    </g>
    <g
       id="Group-5"
       transform="matrix(1.4097292,0,0,1.6952677,832.97029,290.1614)">
      <rect
         id="Rectangle-Copy-11"
         x="1"
         y="1"
         width="58"
         height="58"
         style="fill:#415c6f;fill-rule:nonzero;stroke:#ffffff;stroke-width:2" />
      <rect
         id="Rectangle-Copy-12"
         x="59"
         y="1"
         width="58"
         height="58"
         style="fill:#415c6f;fill-rule:nonzero;stroke:#ffffff;stroke-width:2" />
      <rect
         id="Rectangle-Copy-13"
         x="117"
         y="1"
         width="58"
         height="58"
         style="fill:#415c6f;fill-rule:nonzero;stroke:#ffffff;stroke-width:2" />
      <path
         d="m 22.443142,22.46875 h 1.863282 V 40 H 22.232205 V 24.636719 c -0.789067,0.515627 -1.753901,0.957029 -2.894531,1.324218 v -1.957031 c 0.125,-0.05469 0.378904,-0.164061 0.761718,-0.328125 0.382815,-0.164063 0.669921,-0.289062 0.861329,-0.375 0.191407,-0.08594 0.431639,-0.20703 0.720703,-0.363281 0.289064,-0.156251 0.542967,-0.312499 0.761718,-0.46875 z M 28.453125,40 28.183594,38.078125 34.242187,31.351562 c 0.406253,-0.453127 0.798827,-1.039058 1.177735,-1.757812 0.378908,-0.718754 0.654296,-1.328123 0.826172,-1.828125 l 0.269531,-0.738281 c 0,-0.968755 -0.269529,-1.720701 -0.808594,-2.25586 -0.539065,-0.535159 -1.304682,-0.802734 -2.296875,-0.802734 -1.656258,0 -2.960933,0.480464 -3.914062,1.441406 l -0.679688,-1.757812 c 1.078131,-1.01563 2.65624,-1.523438 4.734375,-1.523438 1.593758,0 2.863277,0.431637 3.808594,1.294922 0.945317,0.863286 1.417969,2.017571 1.417969,3.462891 -0.03125,0.109375 -0.07813,0.255858 -0.140625,0.439453 -0.0625,0.183595 -0.197265,0.541013 -0.404297,1.072265 -0.207032,0.531253 -0.423827,1.035154 -0.650391,1.511719 -0.226563,0.476565 -0.51367,0.999997 -0.861328,1.570313 -0.347658,0.570315 -0.70117,1.046873 -1.060547,1.429687 l -4.945312,5.285156 h 8.121093 L 38.707031,40 Z"
         id="12-copy"
         inkscape:connector-curvature="0"
         style="fill:#ffffff" />
      <path
         d="m 75.76237,32.992187 c -0.992192,0 -1.904293,-0.216794 -2.736328,-0.65039 -0.832036,-0.433596 -1.501951,-1.060543 -2.009766,-1.88086 -0.507815,-0.820316 -0.761719,-1.753901 -0.761719,-2.800781 0,-1.593758 0.54687,-2.914057 1.640625,-3.960937 1.093756,-1.046881 2.523429,-1.570313 4.289063,-1.570313 0.914067,0 1.744137,0.146483 2.490234,0.439453 0.746098,0.292971 1.359373,0.69531 1.839844,1.207032 0.480471,0.511721 0.851561,1.109371 1.113281,1.792968 0.26172,0.683597 0.392578,1.423824 0.392578,2.220703 0,1.117194 -0.191404,2.128902 -0.574218,3.035157 -0.382815,0.906254 -1.042964,1.996087 -1.980469,3.269531 -0.335939,0.445315 -0.896481,1.160151 -1.681641,2.144531 -0.78516,0.98438 -1.486325,1.855465 -2.103515,2.613281 L 74.754557,40 h -2.578125 l 6.222657,-7.710938 c -0.882817,0.468753 -1.761715,0.703125 -2.636719,0.703125 z m 4.042969,-5.425781 c 0,-1.070318 -0.302732,-1.947262 -0.908203,-2.630859 -0.605472,-0.683597 -1.486323,-1.025391 -2.642579,-1.025391 -1.164068,0 -2.085934,0.357419 -2.765625,1.072266 -0.679691,0.714847 -1.019531,1.595698 -1.019531,2.642578 0,1.093755 0.328122,1.968747 0.984375,2.625 0.656253,0.656253 1.566401,0.984375 2.730469,0.984375 1.234381,0 2.146481,-0.33984 2.736328,-1.019531 0.589847,-0.679691 0.884766,-1.562495 0.884766,-2.648438 z m 10.943576,12.703125 c -1.062505,0 -2.02148,-0.177732 -2.876953,-0.533203 -0.855473,-0.35547 -1.548826,-0.900387 -2.080078,-1.634766 -0.531253,-0.734378 -0.796875,-1.605463 -0.796875,-2.613281 0,-1.117193 0.320309,-2.089839 0.960937,-2.917969 0.640628,-0.828129 1.535151,-1.429685 2.683594,-1.804687 -2.187511,-0.773441 -3.28125,-2.179677 -3.28125,-4.21875 0,-1.382819 0.499995,-2.46484 1.5,-3.246094 1.000005,-0.781254 2.296867,-1.171875 3.890625,-1.171875 1.585945,0 2.871089,0.390621 3.855469,1.171875 0.98438,0.781254 1.476562,1.863275 1.476562,3.246094 0,1.031255 -0.265622,1.898434 -0.796875,2.601562 -0.531252,0.703129 -1.273433,1.242186 -2.226562,1.617188 1.054692,0.375002 1.882809,0.976558 2.484375,1.804687 0.601565,0.82813 0.902343,1.800776 0.902343,2.917969 0,1.500008 -0.54101,2.671871 -1.623046,3.515625 -1.082037,0.843755 -2.439445,1.265625 -4.072266,1.265625 z m 0,-8.507812 c -1.117193,0.257813 -2.011715,0.68945 -2.683594,1.294922 -0.671878,0.605471 -1.007812,1.369136 -1.007812,2.291015 0,0.960943 0.347653,1.724607 1.042968,2.291016 0.695317,0.566409 1.57812,0.849609 2.648438,0.849609 1.070318,0 1.943356,-0.2832 2.619141,-0.849609 0.675784,-0.566409 1.013671,-1.330073 1.013671,-2.291016 0,-0.929692 -0.328121,-1.697262 -0.984375,-2.302734 -0.656253,-0.605472 -1.539057,-1.033202 -2.648437,-1.283203 z m 0,-7.851563 c -0.92188,0 -1.705075,0.230467 -2.349609,0.691406 -0.644535,0.46094 -0.966797,1.093746 -0.966797,1.898438 0,1.843759 1.105457,3.011716 3.316406,3.503906 2.179698,-0.49219 3.269531,-1.660147 3.269531,-3.503906 0,-0.804692 -0.316403,-1.437498 -0.949219,-1.898438 -0.632815,-0.460939 -1.406245,-0.691406 -2.320312,-0.691406 z M 102.06749,22.46875 h 1.86328 V 40 h -2.07422 V 24.636719 c -0.78906,0.515627 -1.7539,0.957029 -2.894527,1.324218 v -1.957031 c 0.125,-0.05469 0.378904,-0.164061 0.761718,-0.328125 0.382819,-0.164063 0.669919,-0.289062 0.861329,-0.375 0.19141,-0.08594 0.43164,-0.20703 0.7207,-0.363281 0.28907,-0.156251 0.54297,-0.312499 0.76172,-0.46875 z"
         id="981-copy"
         inkscape:connector-curvature="0"
         style="fill:#ffffff" />
      <path
         d="m 151.4247,22.46875 -0.16407,1.921875 h -7.16015 c -0.0781,2.273449 -0.13672,4.113274 -0.17578,5.519531 0.88281,-0.562503 1.83983,-0.84375 2.87109,-0.84375 0.86719,0 1.64257,0.138671 2.32617,0.416016 0.6836,0.277345 1.24219,0.658201 1.67578,1.142578 0.4336,0.484377 0.76367,1.048825 0.99024,1.693359 0.22656,0.644535 0.33984,1.341794 0.33984,2.091797 0,1.773447 -0.56835,3.193354 -1.70508,4.259766 -1.13672,1.066411 -2.68163,1.599609 -4.63476,1.599609 -1.96095,0 -3.53125,-0.535151 -4.71094,-1.605469 l 0.76172,-1.652343 c 1.15625,0.906254 2.49608,1.359375 4.01953,1.359375 1.28126,0 2.29296,-0.363278 3.03516,-1.089844 0.74219,-0.726566 1.11328,-1.675775 1.11328,-2.847656 0,-1.046881 -0.3125,-1.896481 -0.9375,-2.548828 -0.62501,-0.652347 -1.51562,-0.978516 -2.67188,-0.978516 -1.15625,0 -2.08593,0.386715 -2.78906,1.160156 l -1.62891,-0.222656 0.45703,-9.375 z"
         id="5-copy"
         inkscape:connector-curvature="0"
         style="fill:#ffffff" />
    </g>
    <g
       id="Group"
       transform="matrix(1.4097292,0,0,1.6952677,769.53248,486.81245)">
      <rect
         id="Rectangle-Copy-18"
         x="1"
         y="1"
         width="58"
         height="58"
         style="fill:#415c6f;fill-rule:nonzero;stroke:#ffffff;stroke-width:2" />
      <rect
         id="Rectangle-Copy-19"
         x="59"
         y="1"
         width="58"
         height="58"
         style="fill:#415c6f;fill-rule:nonzero;stroke:#ffffff;stroke-width:2" />
      <rect
         id="Rectangle-Copy-20"
         x="207"
         y="1"
         width="58"
         height="58"
         style="fill:#415c6f;fill-rule:nonzero;stroke:#ffffff;stroke-width:2" />
      <path
         d="m 22.443142,22.46875 h 1.863282 V 40 H 22.232205 V 24.636719 c -0.789067,0.515627 -1.753901,0.957029 -2.894531,1.324218 v -1.957031 c 0.125,-0.05469 0.378904,-0.164061 0.761718,-0.328125 0.382815,-0.164063 0.669921,-0.289062 0.861329,-0.375 0.191407,-0.08594 0.431639,-0.20703 0.720703,-0.363281 0.289064,-0.156251 0.542967,-0.312499 0.761718,-0.46875 z M 28.453125,40 28.183594,38.078125 34.242187,31.351562 c 0.406253,-0.453127 0.798827,-1.039058 1.177735,-1.757812 0.378908,-0.718754 0.654296,-1.328123 0.826172,-1.828125 l 0.269531,-0.738281 c 0,-0.968755 -0.269529,-1.720701 -0.808594,-2.25586 -0.539065,-0.535159 -1.304682,-0.802734 -2.296875,-0.802734 -1.656258,0 -2.960933,0.480464 -3.914062,1.441406 l -0.679688,-1.757812 c 1.078131,-1.01563 2.65624,-1.523438 4.734375,-1.523438 1.593758,0 2.863277,0.431637 3.808594,1.294922 0.945317,0.863286 1.417969,2.017571 1.417969,3.462891 -0.03125,0.109375 -0.07813,0.255858 -0.140625,0.439453 -0.0625,0.183595 -0.197265,0.541013 -0.404297,1.072265 -0.207032,0.531253 -0.423827,1.035154 -0.650391,1.511719 -0.226563,0.476565 -0.51367,0.999997 -0.861328,1.570313 -0.347658,0.570315 -0.70117,1.046873 -1.060547,1.429687 l -4.945312,5.285156 h 8.121093 L 38.707031,40 Z"
         id="12-copy-2"
         inkscape:connector-curvature="0"
         style="fill:#ffffff" />
      <path
         d="m 75.76237,32.992187 c -0.992192,0 -1.904293,-0.216794 -2.736328,-0.65039 -0.832036,-0.433596 -1.501951,-1.060543 -2.009766,-1.88086 -0.507815,-0.820316 -0.761719,-1.753901 -0.761719,-2.800781 0,-1.593758 0.54687,-2.914057 1.640625,-3.960937 1.093756,-1.046881 2.523429,-1.570313 4.289063,-1.570313 0.914067,0 1.744137,0.146483 2.490234,0.439453 0.746098,0.292971 1.359373,0.69531 1.839844,1.207032 0.480471,0.511721 0.851561,1.109371 1.113281,1.792968 0.26172,0.683597 0.392578,1.423824 0.392578,2.220703 0,1.117194 -0.191404,2.128902 -0.574218,3.035157 -0.382815,0.906254 -1.042964,1.996087 -1.980469,3.269531 -0.335939,0.445315 -0.896481,1.160151 -1.681641,2.144531 -0.78516,0.98438 -1.486325,1.855465 -2.103515,2.613281 L 74.754557,40 h -2.578125 l 6.222657,-7.710938 c -0.882817,0.468753 -1.761715,0.703125 -2.636719,0.703125 z m 4.042969,-5.425781 c 0,-1.070318 -0.302732,-1.947262 -0.908203,-2.630859 -0.605472,-0.683597 -1.486323,-1.025391 -2.642579,-1.025391 -1.164068,0 -2.085934,0.357419 -2.765625,1.072266 -0.679691,0.714847 -1.019531,1.595698 -1.019531,2.642578 0,1.093755 0.328122,1.968747 0.984375,2.625 0.656253,0.656253 1.566401,0.984375 2.730469,0.984375 1.234381,0 2.146481,-0.33984 2.736328,-1.019531 0.589847,-0.679691 0.884766,-1.562495 0.884766,-2.648438 z m 10.943576,12.703125 c -1.062505,0 -2.02148,-0.177732 -2.876953,-0.533203 -0.855473,-0.35547 -1.548826,-0.900387 -2.080078,-1.634766 -0.531253,-0.734378 -0.796875,-1.605463 -0.796875,-2.613281 0,-1.117193 0.320309,-2.089839 0.960937,-2.917969 0.640628,-0.828129 1.535151,-1.429685 2.683594,-1.804687 -2.187511,-0.773441 -3.28125,-2.179677 -3.28125,-4.21875 0,-1.382819 0.499995,-2.46484 1.5,-3.246094 1.000005,-0.781254 2.296867,-1.171875 3.890625,-1.171875 1.585945,0 2.871089,0.390621 3.855469,1.171875 0.98438,0.781254 1.476562,1.863275 1.476562,3.246094 0,1.031255 -0.265622,1.898434 -0.796875,2.601562 -0.531252,0.703129 -1.273433,1.242186 -2.226562,1.617188 1.054692,0.375002 1.882809,0.976558 2.484375,1.804687 0.601565,0.82813 0.902343,1.800776 0.902343,2.917969 0,1.500008 -0.54101,2.671871 -1.623046,3.515625 -1.082037,0.843755 -2.439445,1.265625 -4.072266,1.265625 z m 0,-8.507812 c -1.117193,0.257813 -2.011715,0.68945 -2.683594,1.294922 -0.671878,0.605471 -1.007812,1.369136 -1.007812,2.291015 0,0.960943 0.347653,1.724607 1.042968,2.291016 0.695317,0.566409 1.57812,0.849609 2.648438,0.849609 1.070318,0 1.943356,-0.2832 2.619141,-0.849609 0.675784,-0.566409 1.013671,-1.330073 1.013671,-2.291016 0,-0.929692 -0.328121,-1.697262 -0.984375,-2.302734 -0.656253,-0.605472 -1.539057,-1.033202 -2.648437,-1.283203 z m 0,-7.851563 c -0.92188,0 -1.705075,0.230467 -2.349609,0.691406 -0.644535,0.46094 -0.966797,1.093746 -0.966797,1.898438 0,1.843759 1.105457,3.011716 3.316406,3.503906 2.179698,-0.49219 3.269531,-1.660147 3.269531,-3.503906 0,-0.804692 -0.316403,-1.437498 -0.949219,-1.898438 -0.632815,-0.460939 -1.406245,-0.691406 -2.320312,-0.691406 z M 102.06749,22.46875 h 1.86328 V 40 h -2.07422 V 24.636719 c -0.78906,0.515627 -1.7539,0.957029 -2.894527,1.324218 v -1.957031 c 0.125,-0.05469 0.378904,-0.164061 0.761718,-0.328125 0.382819,-0.164063 0.669919,-0.289062 0.861329,-0.375 0.19141,-0.08594 0.43164,-0.20703 0.7207,-0.363281 0.28907,-0.156251 0.54297,-0.312499 0.76172,-0.46875 z"
         id="981-copy-2"
         inkscape:connector-curvature="0"
         style="fill:#ffffff" />
      <path
         d="m 241.4247,22.46875 -0.16407,1.921875 h -7.16015 c -0.0781,2.273449 -0.13672,4.113274 -0.17578,5.519531 0.88281,-0.562503 1.83983,-0.84375 2.87109,-0.84375 0.86719,0 1.64257,0.138671 2.32617,0.416016 0.6836,0.277345 1.24219,0.658201 1.67578,1.142578 0.4336,0.484377 0.76367,1.048825 0.99024,1.693359 0.22656,0.644535 0.33984,1.341794 0.33984,2.091797 0,1.773447 -0.56835,3.193354 -1.70508,4.259766 -1.13672,1.066411 -2.68163,1.599609 -4.63476,1.599609 -1.96095,0 -3.53125,-0.535151 -4.71094,-1.605469 l 0.76172,-1.652343 c 1.15625,0.906254 2.49608,1.359375 4.01953,1.359375 1.28126,0 2.29296,-0.363278 3.03516,-1.089844 0.74219,-0.726566 1.11328,-1.675775 1.11328,-2.847656 0,-1.046881 -0.3125,-1.896481 -0.9375,-2.548828 -0.62501,-0.652347 -1.51562,-0.978516 -2.67188,-0.978516 -1.15625,0 -2.08593,0.386715 -2.78906,1.160156 l -1.62891,-0.222656 0.45703,-9.375 z"
         id="5-copy-2"
         inkscape:connector-curvature="0"
         style="fill:#ffffff" />
    </g>
    <g
       id="Group-2"
       transform="matrix(1.4097292,0,0,1.6952677,734.28924,683.4635)">
      <rect
         id="Rectangle-Copy-25"
         x="1"
         y="1"
         width="58"
         height="58"
         style="fill:#415c6f;fill-rule:nonzero;stroke:#ffffff;stroke-width:2" />
      <rect
         id="Rectangle-Copy-26"
         x="109"
         y="1"
         width="58"
         height="58"
         style="fill:#415c6f;fill-rule:nonzero;stroke:#ffffff;stroke-width:2" />
      <rect
         id="Rectangle-Copy-27"
         x="257"
         y="1"
         width="58"
         height="58"
         style="fill:#415c6f;fill-rule:nonzero;stroke:#ffffff;stroke-width:2" />
      <path
         d="m 22.443142,22.46875 h 1.863282 V 40 H 22.232205 V 24.636719 c -0.789067,0.515627 -1.753901,0.957029 -2.894531,1.324218 v -1.957031 c 0.125,-0.05469 0.378904,-0.164061 0.761718,-0.328125 0.382815,-0.164063 0.669921,-0.289062 0.861329,-0.375 0.191407,-0.08594 0.431639,-0.20703 0.720703,-0.363281 0.289064,-0.156251 0.542967,-0.312499 0.761718,-0.46875 z M 28.453125,40 28.183594,38.078125 34.242187,31.351562 c 0.406253,-0.453127 0.798827,-1.039058 1.177735,-1.757812 0.378908,-0.718754 0.654296,-1.328123 0.826172,-1.828125 l 0.269531,-0.738281 c 0,-0.968755 -0.269529,-1.720701 -0.808594,-2.25586 -0.539065,-0.535159 -1.304682,-0.802734 -2.296875,-0.802734 -1.656258,0 -2.960933,0.480464 -3.914062,1.441406 l -0.679688,-1.757812 c 1.078131,-1.01563 2.65624,-1.523438 4.734375,-1.523438 1.593758,0 2.863277,0.431637 3.808594,1.294922 0.945317,0.863286 1.417969,2.017571 1.417969,3.462891 -0.03125,0.109375 -0.07813,0.255858 -0.140625,0.439453 -0.0625,0.183595 -0.197265,0.541013 -0.404297,1.072265 -0.207032,0.531253 -0.423827,1.035154 -0.650391,1.511719 -0.226563,0.476565 -0.51367,0.999997 -0.861328,1.570313 -0.347658,0.570315 -0.70117,1.046873 -1.060547,1.429687 l -4.945312,5.285156 h 8.121093 L 38.707031,40 Z"
         id="12-copy-3"
         inkscape:connector-curvature="0"
         style="fill:#ffffff" />
      <path
         d="m 125.76237,32.992187 c -0.99219,0 -1.90429,-0.216794 -2.73633,-0.65039 -0.83203,-0.433596 -1.50195,-1.060543 -2.00976,-1.88086 -0.50782,-0.820316 -0.76172,-1.753901 -0.76172,-2.800781 0,-1.593758 0.54687,-2.914057 1.64062,-3.960937 1.09376,-1.046881 2.52343,-1.570313 4.28907,-1.570313 0.91406,0 1.74413,0.146483 2.49023,0.439453 0.7461,0.292971 1.35937,0.69531 1.83984,1.207032 0.48047,0.511721 0.85156,1.109371 1.11328,1.792968 0.26172,0.683597 0.39258,1.423824 0.39258,2.220703 0,1.117194 -0.1914,2.128902 -0.57422,3.035157 -0.38281,0.906254 -1.04296,1.996087 -1.98047,3.269531 -0.33593,0.445315 -0.89648,1.160151 -1.68164,2.144531 -0.78516,0.98438 -1.48632,1.855465 -2.10351,2.613281 L 124.75456,40 h -2.57813 l 6.22266,-7.710938 c -0.88282,0.468753 -1.76172,0.703125 -2.63672,0.703125 z m 4.04297,-5.425781 c 0,-1.070318 -0.30273,-1.947262 -0.9082,-2.630859 -0.60548,-0.683597 -1.48633,-1.025391 -2.64258,-1.025391 -1.16407,0 -2.08594,0.357419 -2.76563,1.072266 -0.67969,0.714847 -1.01953,1.595698 -1.01953,2.642578 0,1.093755 0.32812,1.968747 0.98438,2.625 0.65625,0.656253 1.5664,0.984375 2.73047,0.984375 1.23438,0 2.14648,-0.33984 2.73632,-1.019531 0.58985,-0.679691 0.88477,-1.562495 0.88477,-2.648438 z m 10.94357,12.703125 c -1.0625,0 -2.02147,-0.177732 -2.87695,-0.533203 -0.85547,-0.35547 -1.54882,-0.900387 -2.08008,-1.634766 -0.53125,-0.734378 -0.79687,-1.605463 -0.79687,-2.613281 0,-1.117193 0.32031,-2.089839 0.96094,-2.917969 0.64062,-0.828129 1.53515,-1.429685 2.68359,-1.804687 -2.18751,-0.773441 -3.28125,-2.179677 -3.28125,-4.21875 0,-1.382819 0.49999,-2.46484 1.5,-3.246094 1,-0.781254 2.29687,-1.171875 3.89062,-1.171875 1.58595,0 2.87109,0.390621 3.85547,1.171875 0.98438,0.781254 1.47657,1.863275 1.47657,3.246094 0,1.031255 -0.26563,1.898434 -0.79688,2.601562 -0.53125,0.703129 -1.27343,1.242186 -2.22656,1.617188 1.05469,0.375002 1.88281,0.976558 2.48437,1.804687 0.60157,0.82813 0.90235,1.800776 0.90235,2.917969 0,1.500008 -0.54101,2.671871 -1.62305,3.515625 -1.08204,0.843755 -2.43944,1.265625 -4.07227,1.265625 z m 0,-8.507812 c -1.11719,0.257813 -2.01171,0.68945 -2.68359,1.294922 -0.67188,0.605471 -1.00781,1.369136 -1.00781,2.291015 0,0.960943 0.34765,1.724607 1.04297,2.291016 0.69531,0.566409 1.57812,0.849609 2.64843,0.849609 1.07032,0 1.94336,-0.2832 2.61915,-0.849609 0.67578,-0.566409 1.01367,-1.330073 1.01367,-2.291016 0,-0.929692 -0.32812,-1.697262 -0.98438,-2.302734 -0.65625,-0.605472 -1.53905,-1.033202 -2.64844,-1.283203 z m 0,-7.851563 c -0.92188,0 -1.70507,0.230467 -2.3496,0.691406 -0.64454,0.46094 -0.9668,1.093746 -0.9668,1.898438 0,1.843759 1.10546,3.011716 3.3164,3.503906 2.1797,-0.49219 3.26954,-1.660147 3.26954,-3.503906 0,-0.804692 -0.31641,-1.437498 -0.94922,-1.898438 -0.63282,-0.460939 -1.40625,-0.691406 -2.32032,-0.691406 z m 11.31858,-1.441406 h 1.86328 V 40 h -2.07422 V 24.636719 c -0.78906,0.515627 -1.7539,0.957029 -2.89453,1.324218 v -1.957031 c 0.125,-0.05469 0.37891,-0.164061 0.76172,-0.328125 0.38282,-0.164063 0.66992,-0.289062 0.86133,-0.375 0.19141,-0.08594 0.43164,-0.20703 0.7207,-0.363281 0.28907,-0.156251 0.54297,-0.312499 0.76172,-0.46875 z"
         id="981-copy-3"
         inkscape:connector-curvature="0"
         style="fill:#ffffff" />
      <path
         d="m 291.4247,22.46875 -0.16407,1.921875 h -7.16015 c -0.0781,2.273449 -0.13672,4.113274 -0.17578,5.519531 0.88281,-0.562503 1.83984,-0.84375 2.87109,-0.84375 0.86719,0 1.64257,0.138671 2.32617,0.416016 0.6836,0.277345 1.24219,0.658201 1.67578,1.142578 0.4336,0.484377 0.76367,1.048825 0.99024,1.693359 0.22656,0.644535 0.33984,1.341794 0.33984,2.091797 0,1.773447 -0.56835,3.193354 -1.70508,4.259766 -1.13672,1.066411 -2.68163,1.599609 -4.63476,1.599609 -1.96095,0 -3.53125,-0.535151 -4.71094,-1.605469 l 0.76172,-1.652343 c 1.15626,0.906254 2.49608,1.359375 4.01953,1.359375 1.28126,0 2.29296,-0.363278 3.03516,-1.089844 0.74219,-0.726566 1.11328,-1.675775 1.11328,-2.847656 0,-1.046881 -0.3125,-1.896481 -0.9375,-2.548828 -0.62501,-0.652347 -1.51562,-0.978516 -2.67188,-0.978516 -1.15625,0 -2.08593,0.386715 -2.78906,1.160156 l -1.62891,-0.222656 0.45703,-9.375 z"
         id="5-copy-3"
         inkscape:connector-curvature="0"
         style="fill:#ffffff" />
    </g>
    <path
       d="m 374.26853,254.78353 -15.53435,13.9935 2.2483,1.19278 -1.87778,-23.23123 -0.13632,-1.68731 -2.80623,0.32801 0.13646,1.68731 1.87778,23.23124 0.24245,2.99968 2.00583,-1.80687 15.53435,-13.99349 1.12827,-1.01636 -1.69035,-2.71363 z m 5.59374,-44.13636 -14.79753,40.3348 -5.77938,15.75328 -0.56902,1.55103 2.57958,1.36855 0.56901,-1.55103 5.77938,-15.75328 14.79754,-40.33479 0.56903,-1.55103 -2.57958,-1.36855 z"
       id="Line-4-Copy"
       inkscape:connector-curvature="0"
       style="fill:#ffffff;fill-rule:nonzero;stroke-width:1.54592001" />
    <path
       d="m 220.60804,451.43458 -15.53435,13.9935 2.2483,1.19278 -1.87778,-23.23123 -0.13632,-1.68732 -2.80623,0.32802 0.13646,1.68731 1.87778,23.23124 0.24245,2.99968 2.00583,-1.80687 15.53435,-13.99349 1.12827,-1.01636 -1.69035,-2.71363 z m 5.59374,-44.13636 -14.79753,40.3348 -5.77938,15.75327 -0.56902,1.55104 2.57958,1.36855 0.56901,-1.55104 5.77938,-15.75326 14.79754,-40.3348 0.56903,-1.55103 -2.57958,-1.36855 z"
       id="Line-4-Copy-3"
       inkscape:connector-curvature="0"
       style="fill:#ffffff;fill-rule:nonzero;stroke-width:1.54592001" />
    <path
       d="m 152.94103,648.08562 -15.53434,13.99351 2.2483,1.19278 -1.87778,-23.23123 -0.13632,-1.68732 -2.80623,0.32801 0.13645,1.68732 1.87778,23.23124 0.24245,2.99968 2.00584,-1.80687 15.53434,-13.99349 1.12828,-1.01636 -1.69035,-2.71364 z m 5.59375,-44.13634 -14.79754,40.33479 -5.77938,15.75327 -0.56902,1.55104 2.57958,1.36855 0.56903,-1.55104 5.77936,-15.75326 14.79755,-40.3348 0.56902,-1.55103 -2.57957,-1.36855 z"
       id="Line-4-Copy-7"
       inkscape:connector-curvature="0"
       style="fill:#ffffff;fill-rule:nonzero;stroke-width:1.54592001" />
    <path
       d="m 849.34729,451.43458 -15.53435,13.9935 2.2483,1.19278 -1.87778,-23.23123 -0.13646,-1.68732 -2.80623,0.32802 0.13646,1.68731 1.87778,23.23124 0.24245,2.99968 2.00583,-1.80687 15.53435,-13.99349 1.12827,-1.01636 -1.69035,-2.71363 z m 5.59374,-44.13636 -14.79753,40.3348 -5.77937,15.75327 -0.56903,1.55104 2.57958,1.36855 0.56901,-1.55104 5.77938,-15.75326 14.79754,-40.3348 0.56903,-1.55103 -2.57958,-1.36855 z"
       id="Line-4-Copy-5"
       inkscape:connector-curvature="0"
       style="fill:#ffffff;fill-rule:nonzero;stroke-width:1.54592001" />
    <path
       d="m 805.64568,648.08562 -15.53434,13.99351 2.24829,1.19278 -1.87777,-23.23123 -0.13647,-1.68732 -2.80623,0.32801 0.13647,1.68732 1.87776,23.23124 0.24246,2.99968 2.00584,-1.80687 15.53434,-13.99349 1.12828,-1.01636 -1.69035,-2.71364 z m 5.59375,-44.13634 -14.79753,40.33479 -5.77939,15.75327 -0.56901,1.55104 2.57956,1.36855 0.56903,-1.55104 5.77937,-15.75326 14.79755,-40.3348 0.56903,-1.55103 -2.57958,-1.36855 z"
       id="Line-4-Copy-8"
       inkscape:connector-curvature="0"
       style="fill:#ffffff;fill-rule:nonzero;stroke-width:1.54592001" />
    <path
       d="m 441.93553,648.08562 -15.53434,13.99351 2.2483,1.19278 -1.87778,-23.23123 -0.13632,-1.68732 -2.80623,0.32801 0.13646,1.68732 1.87776,23.23124 0.24246,2.99968 2.00584,-1.80687 15.53434,-13.99349 1.12828,-1.01636 -1.69035,-2.71364 z m 5.59375,-44.13634 -14.79753,40.33479 -5.77939,15.75327 -0.56902,1.55104 2.57958,1.36855 0.56902,-1.55104 5.77937,-15.75326 14.79755,-40.3348 0.56903,-1.55103 -2.57958,-1.36855 z"
       id="Line-4-Copy-13"
       inkscape:connector-curvature="0"
       style="fill:#ffffff;fill-rule:nonzero;stroke-width:1.54592001" />
    <path
       d="m 895.19494,246.73858 -1.87778,23.23123 2.2483,-1.19278 -15.53434,-13.9935 -1.12829,-1.01637 -1.69034,2.71363 1.12828,1.01636 15.53434,13.99349 2.00584,1.80687 0.24245,-2.99968 1.87777,-23.23124 0.13646,-1.68731 -2.80623,-0.32801 z m -23.33715,-34.72285 14.79755,40.33479 5.77936,15.75328 0.56903,1.55103 2.57957,-1.36855 -0.56902,-1.55103 -5.77939,-15.75328 -14.79752,-40.3348 -0.56903,-1.55102 -2.57958,1.36855 z"
       id="Line-4-Copy-2"
       inkscape:connector-curvature="0"
       style="fill:#ffffff;fill-rule:nonzero;stroke-width:1.54592001" />
    <path
       d="m 1084.0986,443.38963 -1.8777,23.23123 2.2483,-1.19278 -15.5344,-13.9935 -1.1283,-1.01637 -1.6903,2.71363 1.1283,1.01636 15.5343,13.99349 2.0058,1.80687 0.2425,-2.99968 1.8778,-23.23124 0.1364,-1.68731 -2.8062,-0.32802 z m -23.3371,-34.72285 14.7975,40.3348 5.7794,15.75326 0.569,1.55104 2.5796,-1.36855 -0.569,-1.55104 -5.7794,-15.75327 -14.7975,-40.3348 -0.5691,-1.55102 -2.5795,1.36855 z"
       id="Line-4-Copy-4"
       inkscape:connector-curvature="0"
       style="fill:#ffffff;fill-rule:nonzero;stroke-width:1.54592001" />
    <path
       d="m 1127.8002,640.04068 -1.8777,23.23123 2.2483,-1.19278 -15.5344,-13.99351 -1.1283,-1.01637 -1.6903,2.71364 1.1283,1.01636 15.5343,13.99349 2.0058,1.80687 0.2425,-2.99968 1.8778,-23.23124 0.1364,-1.68732 -2.8062,-0.32801 z m -23.3371,-34.72285 14.7975,40.3348 5.7794,15.75326 0.569,1.55104 2.5796,-1.36855 -0.569,-1.55104 -5.7794,-15.75327 -14.7975,-40.33479 -0.5691,-1.55103 -2.5795,1.36855 z"
       id="Line-4-Copy-9"
       inkscape:connector-curvature="0"
       style="fill:#ffffff;fill-rule:nonzero;stroke-width:1.54592001" />
    <path
       d="m 917.75061,640.04068 -1.87778,23.23123 2.2483,-1.19278 -15.53434,-13.99351 -1.12829,-1.01637 -1.69034,2.71364 1.12828,1.01636 15.53434,13.99349 2.00583,1.80687 0.24246,-2.99968 1.87777,-23.23124 0.13646,-1.68732 -2.80623,-0.32801 z m -23.33715,-34.72285 14.79755,40.3348 5.77936,15.75326 0.56902,1.55104 2.57958,-1.36855 -0.56902,-1.55104 -5.77938,-15.75327 -14.79753,-40.33479 -0.56903,-1.55103 -2.57958,1.36855 z"
       id="Line-4-Copy-11"
       inkscape:connector-curvature="0"
       style="fill:#ffffff;fill-rule:nonzero;stroke-width:1.54592001" />
    <path
       d="m 490.60264,443.38963 -1.87778,23.23123 2.2483,-1.19278 -15.53434,-13.9935 -1.12827,-1.01637 -1.69036,2.71363 1.12828,1.01636 15.53434,13.99349 2.00584,1.80687 0.24245,-2.99968 1.87778,-23.23124 0.13646,-1.68731 -2.80624,-0.32802 z m -23.33715,-34.72285 14.79755,40.3348 5.77936,15.75326 0.56903,1.55104 2.57958,-1.36855 -0.56902,-1.55104 -5.77938,-15.75327 -14.79754,-40.3348 -0.56903,-1.55102 -2.57957,1.36855 z"
       id="Line-4-Copy-6"
       inkscape:connector-curvature="0"
       style="fill:#ffffff;fill-rule:nonzero;stroke-width:1.54592001" />
    <path
       d="m 554.04046,640.04068 -1.87778,23.23123 2.2483,-1.19278 -15.53434,-13.99351 -1.12828,-1.01637 -1.69035,2.71364 1.12827,1.01636 15.53435,13.99349 2.00583,1.80687 0.24246,-2.99968 1.87777,-23.23124 0.13646,-1.68732 -2.80623,-0.32801 z m -23.33715,-34.72285 14.79755,40.3348 5.77937,15.75326 0.56901,1.55104 2.57958,-1.36855 -0.56901,-1.55104 -5.77939,-15.75327 -14.79753,-40.33479 -0.56903,-1.55103 -2.57958,1.36855 z"
       id="Line-4-Copy-10"
       inkscape:connector-curvature="0"
       style="fill:#ffffff;fill-rule:nonzero;stroke-width:1.54592001" />
    <path
       d="m 266.45569,640.04068 -1.87778,23.23123 2.2483,-1.19278 -15.53434,-13.99351 -1.12829,-1.01637 -1.69034,2.71364 1.12828,1.01636 15.53434,13.99349 2.00584,1.80687 0.24245,-2.99968 1.87777,-23.23124 0.13646,-1.68732 -2.80623,-0.32801 z m -23.33715,-34.72285 14.79755,40.3348 5.77936,15.75326 0.56903,1.55104 2.57957,-1.36855 -0.56902,-1.55104 -5.77939,-15.75327 -14.79752,-40.33479 -0.56903,-1.55103 -2.57958,1.36855 z"
       id="Line-4-Copy-12"
       inkscape:connector-curvature="0"
       style="fill:#ffffff;fill-rule:nonzero;stroke-width:1.54592001" />
    <g
       id="Group-14"
       transform="matrix(1.4097292,0,0,1.6952677,339.56505,93.510344)">
      <rect
         id="Rectangle"
         x="1"
         y="1"
         width="58"
         height="58"
         style="fill:#415c6f;fill-rule:nonzero;stroke:#ffffff;stroke-width:2" />
      <rect
         id="Rectangle-Copy"
         x="59"
         y="1"
         width="58"
         height="58"
         style="fill:#415c6f;fill-rule:nonzero;stroke:#ffffff;stroke-width:2" />
      <rect
         id="Rectangle-Copy-2"
         x="117"
         y="1"
         width="58"
         height="58"
         style="fill:#415c6f;fill-rule:nonzero;stroke:#ffffff;stroke-width:2" />
      <rect
         id="Rectangle-Copy-3"
         x="175"
         y="1"
         width="58"
         height="58"
         style="fill:#415c6f;fill-rule:nonzero;stroke:#ffffff;stroke-width:2" />
      <rect
         id="Rectangle-Copy-4"
         x="233"
         y="1"
         width="58"
         height="58"
         style="fill:#415c6f;fill-rule:nonzero;stroke:#ffffff;stroke-width:2" />
      <rect
         id="Rectangle-Copy-5"
         x="291"
         y="1"
         width="58"
         height="58"
         style="fill:#415c6f;fill-rule:nonzero;stroke:#ffffff;stroke-width:2" />
      <rect
         id="Rectangle-Copy-6"
         x="349"
         y="1"
         width="58"
         height="58"
         style="fill:#415c6f;fill-rule:nonzero;stroke:#ffffff;stroke-width:2" />
      <path
         d="m 21.874783,32.992187 c -0.992192,0 -1.904293,-0.216794 -2.736328,-0.65039 -0.832036,-0.433596 -1.501951,-1.060543 -2.009766,-1.88086 -0.507815,-0.820316 -0.761718,-1.753901 -0.761718,-2.800781 0,-1.593758 0.546869,-2.914057 1.640625,-3.960937 1.093755,-1.046881 2.523428,-1.570313 4.289062,-1.570313 0.914067,0 1.744137,0.146483 2.490234,0.439453 0.746098,0.292971 1.359373,0.69531 1.839844,1.207032 0.480471,0.511721 0.851561,1.109371 1.113281,1.792968 0.26172,0.683597 0.392579,1.423824 0.392579,2.220703 0,1.117194 -0.191405,2.128902 -0.574219,3.035157 -0.382815,0.906254 -1.042964,1.996087 -1.980469,3.269531 -0.335939,0.445315 -0.89648,1.160151 -1.681641,2.144531 -0.78516,0.98438 -1.486325,1.855465 -2.103515,2.613281 L 20.866971,40 h -2.578125 l 6.222656,-7.710938 c -0.882817,0.468753 -1.761715,0.703125 -2.636719,0.703125 z m 4.042969,-5.425781 c 0,-1.070318 -0.302732,-1.947262 -0.908203,-2.630859 -0.605472,-0.683597 -1.486323,-1.025391 -2.642578,-1.025391 -1.164069,0 -2.085935,0.357419 -2.765625,1.072266 -0.679691,0.714847 -1.019532,1.595698 -1.019532,2.642578 0,1.093755 0.328122,1.968747 0.984375,2.625 0.656254,0.656253 1.566401,0.984375 2.730469,0.984375 1.234381,0 2.146481,-0.33984 2.736328,-1.019531 0.589847,-0.679691 0.884766,-1.562495 0.884766,-2.648438 z m 10.943576,12.703125 c -1.062505,0 -2.02148,-0.177732 -2.876953,-0.533203 -0.855473,-0.35547 -1.548826,-0.900387 -2.080078,-1.634766 -0.531253,-0.734378 -0.796875,-1.605463 -0.796875,-2.613281 0,-1.117193 0.320309,-2.089839 0.960937,-2.917969 0.640629,-0.828129 1.535151,-1.429685 2.683594,-1.804687 -2.187511,-0.773441 -3.28125,-2.179677 -3.28125,-4.21875 0,-1.382819 0.499995,-2.46484 1.5,-3.246094 1.000005,-0.781254 2.296867,-1.171875 3.890625,-1.171875 1.585946,0 2.871089,0.390621 3.855469,1.171875 0.98438,0.781254 1.476562,1.863275 1.476562,3.246094 0,1.031255 -0.265622,1.898434 -0.796875,2.601562 -0.531252,0.703129 -1.273432,1.242186 -2.226562,1.617188 1.054693,0.375002 1.882809,0.976558 2.484375,1.804687 0.601565,0.82813 0.902344,1.800776 0.902344,2.917969 0,1.500008 -0.541011,2.671871 -1.623047,3.515625 -1.082037,0.843755 -2.439445,1.265625 -4.072266,1.265625 z m 0,-8.507812 c -1.117193,0.257813 -2.011715,0.68945 -2.683594,1.294922 -0.671878,0.605471 -1.007812,1.369136 -1.007812,2.291015 0,0.960943 0.347653,1.724607 1.042969,2.291016 0.695316,0.566409 1.578119,0.849609 2.648437,0.849609 1.070318,0 1.943356,-0.2832 2.619141,-0.849609 0.675784,-0.566409 1.013672,-1.330073 1.013672,-2.291016 0,-0.929692 -0.328122,-1.697262 -0.984375,-2.302734 -0.656254,-0.605472 -1.539057,-1.033202 -2.648438,-1.283203 z m 0,-7.851563 c -0.92188,0 -1.705075,0.230467 -2.349609,0.691406 -0.644535,0.46094 -0.966797,1.093746 -0.966797,1.898438 0,1.843759 1.105458,3.011716 3.316406,3.503906 2.179698,-0.49219 3.269531,-1.660147 3.269531,-3.503906 0,-0.804692 -0.316403,-1.437498 -0.949218,-1.898438 -0.632816,-0.460939 -1.406246,-0.691406 -2.320313,-0.691406 z"
         id="path78"
         inkscape:connector-curvature="0"
         style="fill:#ffffff" />
      <path
         d="m 81.519314,22.46875 h 1.863282 V 40 H 81.308377 V 24.636719 c -0.789067,0.515627 -1.753901,0.957029 -2.894531,1.324218 v -1.957031 c 0.125,-0.05469 0.378904,-0.164061 0.761718,-0.328125 0.382815,-0.164063 0.669921,-0.289062 0.861328,-0.375 0.191408,-0.08594 0.43164,-0.20703 0.720704,-0.363281 0.289064,-0.156251 0.542967,-0.312499 0.761718,-0.46875 z m 10.498264,17.800781 c -1.04688,0 -1.978511,-0.136717 -2.794922,-0.410156 -0.81641,-0.273439 -1.412107,-0.589842 -1.787109,-0.949219 l 0.65625,-1.722656 c 1.101568,0.867192 2.414055,1.300781 3.9375,1.300781 1.171881,0 2.103512,-0.291013 2.794922,-0.873047 0.69141,-0.582034 1.037109,-1.396479 1.037109,-2.443359 0,-0.570315 -0.08789,-1.068357 -0.263672,-1.494141 -0.175782,-0.425783 -0.410155,-0.76953 -0.703125,-1.03125 -0.29297,-0.26172 -0.667966,-0.472655 -1.125,-0.632812 -0.457033,-0.160157 -0.925779,-0.273437 -1.40625,-0.339844 -0.480471,-0.06641 -1.037106,-0.107422 -1.669922,-0.123047 -0.07813,0 -0.195311,-0.002 -0.351562,-0.0059 -0.156251,-0.0039 -0.273437,-0.0059 -0.351563,-0.0059 v -1.746093 h 0.585938 c 0.546878,-0.0078 1.029295,-0.03711 1.447265,-0.08789 0.417971,-0.05078 0.835936,-0.142577 1.253907,-0.275391 0.417971,-0.132813 0.76367,-0.308592 1.037109,-0.527343 0.273439,-0.218751 0.496093,-0.511717 0.667969,-0.878907 0.171876,-0.367189 0.257812,-0.800778 0.257812,-1.300781 0,-1.875009 -1.074208,-2.8125 -3.222656,-2.8125 -0.773441,0 -1.499996,0.11328 -2.179687,0.339844 -0.679691,0.226564 -1.261717,0.531248 -1.746094,0.914062 l -0.65625,-1.710937 c 1.164068,-0.882817 2.839833,-1.324219 5.027344,-1.324219 0.882817,0 1.699215,0.162108 2.449218,0.486328 0.750004,0.324221 1.367186,0.82031 1.851563,1.488282 0.484377,0.667972 0.726562,1.451167 0.726562,2.349609 0,1.093755 -0.269528,1.992184 -0.808593,2.695312 -0.539066,0.703129 -1.29687,1.20703 -2.273438,1.511719 1.093756,0.234376 1.951169,0.74609 2.572266,1.535156 0.621097,0.789067 0.93164,1.789057 0.93164,3 0,1.539071 -0.550775,2.769527 -1.652343,3.691407 -1.101568,0.921879 -2.515617,1.382812 -4.242188,1.382812 z"
         id="path80"
         inkscape:connector-curvature="0"
         style="fill:#ffffff" />
      <path
         d="m 125.19206,40 -0.26953,-1.921875 6.05859,-6.726563 c 0.40625,-0.453127 0.79883,-1.039058 1.17773,-1.757812 0.37891,-0.718754 0.6543,-1.328123 0.82618,-1.828125 l 0.26953,-0.738281 c 0,-0.968755 -0.26953,-1.720701 -0.8086,-2.25586 -0.53906,-0.535159 -1.30468,-0.802734 -2.29687,-0.802734 -1.65626,0 -2.96093,0.480464 -3.91406,1.441406 l -0.67969,-1.757812 c 1.07813,-1.01563 2.65624,-1.523438 4.73437,-1.523438 1.59376,0 2.86328,0.431637 3.8086,1.294922 0.94531,0.863286 1.41797,2.017571 1.41797,3.462891 -0.0312,0.109375 -0.0781,0.255858 -0.14063,0.439453 -0.0625,0.183595 -0.19726,0.541013 -0.4043,1.072265 -0.20703,0.531253 -0.42382,1.035154 -0.65039,1.511719 -0.22656,0.476565 -0.51367,0.999997 -0.86132,1.570313 -0.34766,0.570315 -0.70118,1.046873 -1.06055,1.429687 l -4.94531,5.285156 h 8.12109 L 135.44596,40 Z m 15.70139,0 6.02343,-15.714844 h -7.91015 l 0.1289,-1.816406 h 10.16016 V 24.0625 L 143.02626,40 Z m 23.30685,-4.347656 h -1.99218 V 40 h -1.96875 v -4.347656 h -7.92188 v -1.792969 l 7.69922,-11.390625 h 2.19141 v 11.484375 h 2.15625 z m -3.96093,-10.523438 -5.85938,8.824219 h 5.85938 z"
         id="path82"
         inkscape:connector-curvature="0"
         style="fill:#ffffff" />
      <polygon
         id="polygon84"
         points="198.69227,22.46875 208.85243,22.46875 208.85243,24.0625 202.5829,40 200.45009,40 206.47352,24.285156 198.56337,24.285156 "
         style="fill:#ffffff" />
      <path
         d="m 254.44314,22.46875 h 1.86328 V 40 H 254.2322 V 24.636719 c -0.78906,0.515627 -1.7539,0.957029 -2.89453,1.324218 v -1.957031 c 0.125,-0.05469 0.37891,-0.164061 0.76172,-0.328125 0.38282,-0.164063 0.66992,-0.289062 0.86133,-0.375 0.19141,-0.08594 0.43164,-0.20703 0.7207,-0.363281 0.28907,-0.156251 0.54297,-0.312499 0.76172,-0.46875 z M 260.45312,40 l -0.26953,-1.921875 6.0586,-6.726563 c 0.40625,-0.453127 0.79882,-1.039058 1.17773,-1.757812 0.37891,-0.718754 0.6543,-1.328123 0.82617,-1.828125 l 0.26953,-0.738281 c 0,-0.968755 -0.26952,-1.720701 -0.80859,-2.25586 -0.53906,-0.535159 -1.30468,-0.802734 -2.29687,-0.802734 -1.65626,0 -2.96094,0.480464 -3.91407,1.441406 l -0.67968,-1.757812 c 1.07813,-1.01563 2.65624,-1.523438 4.73437,-1.523438 1.59376,0 2.86328,0.431637 3.80859,1.294922 0.94532,0.863286 1.41797,2.017571 1.41797,3.462891 -0.0312,0.109375 -0.0781,0.255858 -0.14062,0.439453 -0.0625,0.183595 -0.19727,0.541013 -0.4043,1.072265 -0.20703,0.531253 -0.42382,1.035154 -0.65039,1.511719 -0.22656,0.476565 -0.51367,0.999997 -0.86133,1.570313 -0.34766,0.570315 -0.70117,1.046873 -1.06054,1.429687 l -4.94532,5.285156 h 8.1211 L 270.70703,40 Z"
         id="12"
         inkscape:connector-curvature="0"
         style="fill:#ffffff" />
      <path
         d="m 307.76237,32.992187 c -0.99219,0 -1.90429,-0.216794 -2.73633,-0.65039 -0.83203,-0.433596 -1.50195,-1.060543 -2.00976,-1.88086 -0.50782,-0.820316 -0.76172,-1.753901 -0.76172,-2.800781 0,-1.593758 0.54687,-2.914057 1.64062,-3.960937 1.09376,-1.046881 2.52343,-1.570313 4.28906,-1.570313 0.91407,0 1.74414,0.146483 2.49024,0.439453 0.7461,0.292971 1.35937,0.69531 1.83984,1.207032 0.48047,0.511721 0.85156,1.109371 1.11328,1.792968 0.26172,0.683597 0.39258,1.423824 0.39258,2.220703 0,1.117194 -0.1914,2.128902 -0.57422,3.035157 -0.38281,0.906254 -1.04296,1.996087 -1.98047,3.269531 -0.33593,0.445315 -0.89648,1.160151 -1.68164,2.144531 -0.78516,0.98438 -1.48632,1.855465 -2.10351,2.613281 L 306.75456,40 h -2.57813 l 6.22266,-7.710938 c -0.88282,0.468753 -1.76172,0.703125 -2.63672,0.703125 z m 4.04297,-5.425781 c 0,-1.070318 -0.30273,-1.947262 -0.9082,-2.630859 -0.60548,-0.683597 -1.48633,-1.025391 -2.64258,-1.025391 -1.16407,0 -2.08594,0.357419 -2.76563,1.072266 -0.67969,0.714847 -1.01953,1.595698 -1.01953,2.642578 0,1.093755 0.32812,1.968747 0.98438,2.625 0.65625,0.656253 1.5664,0.984375 2.73046,0.984375 1.23439,0 2.14649,-0.33984 2.73633,-1.019531 0.58985,-0.679691 0.88477,-1.562495 0.88477,-2.648438 z m 10.94357,12.703125 c -1.0625,0 -2.02147,-0.177732 -2.87695,-0.533203 -0.85547,-0.35547 -1.54882,-0.900387 -2.08008,-1.634766 -0.53125,-0.734378 -0.79687,-1.605463 -0.79687,-2.613281 0,-1.117193 0.32031,-2.089839 0.96094,-2.917969 0.64062,-0.828129 1.53515,-1.429685 2.68359,-1.804687 -2.18751,-0.773441 -3.28125,-2.179677 -3.28125,-4.21875 0,-1.382819 0.5,-2.46484 1.5,-3.246094 1,-0.781254 2.29687,-1.171875 3.89062,-1.171875 1.58595,0 2.87109,0.390621 3.85547,1.171875 0.98438,0.781254 1.47657,1.863275 1.47657,3.246094 0,1.031255 -0.26563,1.898434 -0.79688,2.601562 -0.53125,0.703129 -1.27343,1.242186 -2.22656,1.617188 1.05469,0.375002 1.88281,0.976558 2.48437,1.804687 0.60157,0.82813 0.90235,1.800776 0.90235,2.917969 0,1.500008 -0.54101,2.671871 -1.62305,3.515625 -1.08204,0.843755 -2.43944,1.265625 -4.07227,1.265625 z m 0,-8.507812 c -1.11719,0.257813 -2.01171,0.68945 -2.68359,1.294922 -0.67188,0.605471 -1.00781,1.369136 -1.00781,2.291015 0,0.960943 0.34765,1.724607 1.04297,2.291016 0.69531,0.566409 1.57812,0.849609 2.64843,0.849609 1.07032,0 1.94336,-0.2832 2.61915,-0.849609 0.67578,-0.566409 1.01367,-1.330073 1.01367,-2.291016 0,-0.929692 -0.32812,-1.697262 -0.98438,-2.302734 -0.65625,-0.605472 -1.53905,-1.033202 -2.64844,-1.283203 z m 0,-7.851563 c -0.92187,0 -1.70507,0.230467 -2.3496,0.691406 -0.64454,0.46094 -0.9668,1.093746 -0.9668,1.898438 0,1.843759 1.10546,3.011716 3.3164,3.503906 2.1797,-0.49219 3.26954,-1.660147 3.26954,-3.503906 0,-0.804692 -0.31641,-1.437498 -0.94922,-1.898438 -0.63282,-0.460939 -1.40625,-0.691406 -2.32032,-0.691406 z m 11.31858,-1.441406 h 1.86328 V 40 h -2.07422 V 24.636719 c -0.78906,0.515627 -1.7539,0.957029 -2.89453,1.324218 v -1.957031 c 0.125,-0.05469 0.37891,-0.164061 0.76172,-0.328125 0.38282,-0.164063 0.66992,-0.289062 0.86133,-0.375 0.19141,-0.08594 0.43164,-0.20703 0.7207,-0.363281 0.28907,-0.156251 0.54297,-0.312499 0.76172,-0.46875 z"
         id="981"
         inkscape:connector-curvature="0"
         style="fill:#ffffff" />
      <path
         d="m 383.4247,22.46875 -0.16407,1.921875 h -7.16015 c -0.0781,2.273449 -0.13672,4.113274 -0.17578,5.519531 0.88281,-0.562503 1.83984,-0.84375 2.87109,-0.84375 0.86719,0 1.64257,0.138671 2.32617,0.416016 0.6836,0.277345 1.24219,0.658201 1.67578,1.142578 0.4336,0.484377 0.76367,1.048825 0.99024,1.693359 0.22656,0.644535 0.33984,1.341794 0.33984,2.091797 0,1.773447 -0.56835,3.193354 -1.70508,4.259766 -1.13672,1.066411 -2.68163,1.599609 -4.63476,1.599609 -1.96095,0 -3.53125,-0.535151 -4.71094,-1.605469 l 0.76172,-1.652343 c 1.15626,0.906254 2.49608,1.359375 4.01953,1.359375 1.28126,0 2.29296,-0.363278 3.03516,-1.089844 0.74219,-0.726566 1.11328,-1.675775 1.11328,-2.847656 0,-1.046881 -0.3125,-1.896481 -0.9375,-2.548828 -0.62501,-0.652347 -1.51562,-0.978516 -2.67188,-0.978516 -1.15625,0 -2.08593,0.386715 -2.78906,1.160156 l -1.62891,-0.222656 0.45703,-9.375 z"
         id="5"
         inkscape:connector-curvature="0"
         style="fill:#ffffff" />
    </g>
  </g>
</svg>
