<?xml version="1.0" encoding="UTF-8" standalone="no"?>
<svg
   xmlns:dc="http://purl.org/dc/elements/1.1/"
   xmlns:cc="http://creativecommons.org/ns#"
   xmlns:rdf="http://www.w3.org/1999/02/22-rdf-syntax-ns#"
   xmlns:svg="http://www.w3.org/2000/svg"
   xmlns="http://www.w3.org/2000/svg"
   xmlns:sodipodi="http://sodipodi.sourceforge.net/DTD/sodipodi-0.dtd"
   xmlns:inkscape="http://www.inkscape.org/namespaces/inkscape"
   width="1214px"
   height="866px"
   viewBox="0 0 1214 866"
   version="1.1"
   id="svg96"
   sodipodi:docname="merge_ex_2.svg"
   inkscape:version="0.92.3 (2405546, 2018-03-11)">
  <metadata
     id="metadata100">
    <rdf:RDF>
      <cc:Work
         rdf:about="">
        <dc:format>image/svg+xml</dc:format>
        <dc:type
           rdf:resource="http://purl.org/dc/dcmitype/StillImage" />
        <dc:title>merge sort ex 2</dc:title>
      </cc:Work>
    </rdf:RDF>
  </metadata>
  <sodipodi:namedview
     pagecolor="#ffffff"
     bordercolor="#666666"
     borderopacity="1"
     objecttolerance="10"
     gridtolerance="10"
     guidetolerance="10"
     inkscape:pageopacity="0"
     inkscape:pageshadow="2"
     inkscape:window-width="1280"
     inkscape:window-height="657"
     id="namedview98"
     showgrid="false"
     inkscape:zoom="0.23640857"
     inkscape:cx="80.369338"
     inkscape:cy="433"
     inkscape:window-x="-8"
     inkscape:window-y="-8"
     inkscape:window-maximized="1"
     inkscape:current-layer="merge-sort-ex-2" />
  <!-- Generator: Sketch 51.3 (57544) - http://www.bohemiancoding.com/sketch -->
  <title
     id="title2">merge sort ex 2</title>
  <desc
     id="desc4">Created with Sketch.</desc>
  <defs
     id="defs6" />
  <rect
     style="opacity:1;fill:#450000;fill-opacity:1;fill-rule:nonzero;stroke:#03f3f4;stroke-width:0.75590551;stroke-linecap:round;stroke-linejoin:miter;stroke-miterlimit:4;stroke-dasharray:none;stroke-dashoffset:0;stroke-opacity:1;paint-order:stroke fill markers"
     id="rect907"
     width="1214"
     height="884.06274"
     x="-4.2299652"
     y="3.0871079"
     rx="14.8194" />
  <g
     id="merge-sort-ex-2"
     style="fill:none;fill-rule:evenodd;stroke:none;stroke-width:1"
     transform="translate(-21.149829,59.219515)">
    <g
       id="Group-11"
       transform="matrix(1.3558245,0,0,1.6330393,197.35346,417.3906)">
      <rect
         id="Rectangle-Copy-35"
         x="1"
         y="1"
         width="58"
         height="58"
         style="fill:#415c6f;fill-rule:nonzero;stroke:#ffffff;stroke-width:2" />
      <rect
         id="Rectangle-Copy-36"
         x="59"
         y="1"
         width="58"
         height="58"
         style="fill:#415c6f;fill-rule:nonzero;stroke:#ffffff;stroke-width:2" />
      <rect
         id="Rectangle-Copy-37"
         x="117"
         y="1"
         width="58"
         height="58"
         style="fill:#415c6f;fill-rule:nonzero;stroke:#ffffff;stroke-width:2" />
      <rect
         id="Rectangle-Copy-38"
         x="175"
         y="1"
         width="58"
         height="58"
         style="fill:#415c6f;fill-rule:nonzero;stroke:#ffffff;stroke-width:2" />
      <polygon
         id="7"
         points="34.852431,24.0625 28.582899,40 26.450087,40 32.473524,24.285156 24.563368,24.285156 24.692274,22.46875 34.852431,22.46875 "
         style="fill:#ffffff" />
      <path
         d="m 81.519314,22.46875 h 1.863282 V 40 H 81.308377 V 24.636719 c -0.789067,0.515627 -1.753901,0.957029 -2.894531,1.324218 v -1.957031 c 0.125,-0.05469 0.378904,-0.164061 0.761718,-0.328125 0.382815,-0.164063 0.669921,-0.289062 0.861328,-0.375 0.191408,-0.08594 0.43164,-0.20703 0.720704,-0.363281 0.289064,-0.156251 0.542967,-0.312499 0.761718,-0.46875 z m 10.498264,17.800781 c -1.04688,0 -1.978511,-0.136717 -2.794922,-0.410156 -0.81641,-0.273439 -1.412107,-0.589842 -1.787109,-0.949219 l 0.65625,-1.722656 c 1.101568,0.867192 2.414055,1.300781 3.9375,1.300781 1.171881,0 2.103512,-0.291013 2.794922,-0.873047 0.69141,-0.582034 1.037109,-1.396479 1.037109,-2.443359 0,-0.570315 -0.08789,-1.068357 -0.263672,-1.494141 -0.175782,-0.425783 -0.410155,-0.76953 -0.703125,-1.03125 -0.29297,-0.26172 -0.667966,-0.472655 -1.125,-0.632812 -0.457033,-0.160157 -0.925779,-0.273437 -1.40625,-0.339844 -0.480471,-0.06641 -1.037106,-0.107422 -1.669922,-0.123047 -0.07813,0 -0.195311,-0.002 -0.351562,-0.0059 -0.156251,-0.0039 -0.273437,-0.0059 -0.351563,-0.0059 v -1.746093 h 0.585938 c 0.546878,-0.0078 1.029295,-0.03711 1.447265,-0.08789 0.417971,-0.05078 0.835936,-0.142577 1.253907,-0.275391 0.417971,-0.132813 0.76367,-0.308592 1.037109,-0.527343 0.273439,-0.218751 0.496093,-0.511717 0.667969,-0.878907 0.171876,-0.367189 0.257812,-0.800778 0.257812,-1.300781 0,-1.875009 -1.074208,-2.8125 -3.222656,-2.8125 -0.773441,0 -1.499996,0.11328 -2.179687,0.339844 -0.679691,0.226564 -1.261717,0.531248 -1.746094,0.914062 l -0.65625,-1.710937 c 1.164068,-0.882817 2.839833,-1.324219 5.027344,-1.324219 0.882817,0 1.699215,0.162108 2.449218,0.486328 0.750004,0.324221 1.367186,0.82031 1.851563,1.488282 0.484377,0.667972 0.726562,1.451167 0.726562,2.349609 0,1.093755 -0.269528,1.992184 -0.808593,2.695312 -0.539066,0.703129 -1.29687,1.20703 -2.273438,1.511719 1.093756,0.234376 1.951169,0.74609 2.572266,1.535156 0.621097,0.789067 0.93164,1.789057 0.93164,3 0,1.539071 -0.550775,2.769527 -1.652343,3.691407 -1.101568,0.921879 -2.515617,1.382812 -4.242188,1.382812 z"
         id="13"
         inkscape:connector-curvature="0"
         style="fill:#ffffff" />
      <path
         d="m 136.87478,32.992187 c -0.99219,0 -1.90429,-0.216794 -2.73633,-0.65039 -0.83203,-0.433596 -1.50195,-1.060543 -2.00976,-1.88086 -0.50782,-0.820316 -0.76172,-1.753901 -0.76172,-2.800781 0,-1.593758 0.54687,-2.914057 1.64063,-3.960937 1.09375,-1.046881 2.52342,-1.570313 4.28906,-1.570313 0.91406,0 1.74413,0.146483 2.49023,0.439453 0.7461,0.292971 1.35937,0.69531 1.83985,1.207032 0.48047,0.511721 0.85156,1.109371 1.11328,1.792968 0.26172,0.683597 0.39258,1.423824 0.39258,2.220703 0,1.117194 -0.19141,2.128902 -0.57422,3.035157 -0.38282,0.906254 -1.04297,1.996087 -1.98047,3.269531 -0.33594,0.445315 -0.89648,1.160151 -1.68164,2.144531 -0.78516,0.98438 -1.48633,1.855465 -2.10352,2.613281 L 135.86697,40 h -2.57812 l 6.22265,-7.710938 c -0.88282,0.468753 -1.76171,0.703125 -2.63672,0.703125 z m 4.04297,-5.425781 c 0,-1.070318 -0.30273,-1.947262 -0.9082,-2.630859 -0.60547,-0.683597 -1.48632,-1.025391 -2.64258,-1.025391 -1.16407,0 -2.08593,0.357419 -2.76562,1.072266 -0.6797,0.714847 -1.01954,1.595698 -1.01954,2.642578 0,1.093755 0.32813,1.968747 0.98438,2.625 0.65625,0.656253 1.5664,0.984375 2.73047,0.984375 1.23438,0 2.14648,-0.33984 2.73633,-1.019531 0.58984,-0.679691 0.88476,-1.562495 0.88476,-2.648438 z m 10.94358,12.703125 c -1.06251,0 -2.02148,-0.177732 -2.87696,-0.533203 -0.85547,-0.35547 -1.54882,-0.900387 -2.08007,-1.634766 -0.53126,-0.734378 -0.79688,-1.605463 -0.79688,-2.613281 0,-1.117193 0.32031,-2.089839 0.96094,-2.917969 0.64063,-0.828129 1.53515,-1.429685 2.68359,-1.804687 -2.18751,-0.773441 -3.28125,-2.179677 -3.28125,-4.21875 0,-1.382819 0.5,-2.46484 1.5,-3.246094 1.00001,-0.781254 2.29687,-1.171875 3.89063,-1.171875 1.58594,0 2.87109,0.390621 3.85547,1.171875 0.98438,0.781254 1.47656,1.863275 1.47656,3.246094 0,1.031255 -0.26562,1.898434 -0.79688,2.601562 -0.53125,0.703129 -1.27343,1.242186 -2.22656,1.617188 1.05469,0.375002 1.88281,0.976558 2.48438,1.804687 0.60156,0.82813 0.90234,1.800776 0.90234,2.917969 0,1.500008 -0.54101,2.671871 -1.62305,3.515625 -1.08203,0.843755 -2.43944,1.265625 -4.07226,1.265625 z m 0,-8.507812 c -1.1172,0.257813 -2.01172,0.68945 -2.6836,1.294922 -0.67187,0.605471 -1.00781,1.369136 -1.00781,2.291015 0,0.960943 0.34765,1.724607 1.04297,2.291016 0.69532,0.566409 1.57812,0.849609 2.64844,0.849609 1.07032,0 1.94335,-0.2832 2.61914,-0.849609 0.67578,-0.566409 1.01367,-1.330073 1.01367,-2.291016 0,-0.929692 -0.32812,-1.697262 -0.98437,-2.302734 -0.65626,-0.605472 -1.53906,-1.033202 -2.64844,-1.283203 z m 0,-7.851563 c -0.92188,0 -1.70508,0.230467 -2.34961,0.691406 -0.64454,0.46094 -0.9668,1.093746 -0.9668,1.898438 0,1.843759 1.10546,3.011716 3.31641,3.503906 2.1797,-0.49219 3.26953,-1.660147 3.26953,-3.503906 0,-0.804692 -0.3164,-1.437498 -0.94922,-1.898438 -0.63282,-0.460939 -1.40625,-0.691406 -2.32031,-0.691406 z"
         id="98"
         inkscape:connector-curvature="0"
         style="fill:#ffffff" />
      <path
         d="m 184.19206,40 -0.26953,-1.921875 6.05859,-6.726563 c 0.40625,-0.453127 0.79883,-1.039058 1.17773,-1.757812 0.37891,-0.718754 0.6543,-1.328123 0.82618,-1.828125 l 0.26953,-0.738281 c 0,-0.968755 -0.26953,-1.720701 -0.8086,-2.25586 -0.53906,-0.535159 -1.30468,-0.802734 -2.29687,-0.802734 -1.65626,0 -2.96093,0.480464 -3.91406,1.441406 l -0.67969,-1.757812 c 1.07813,-1.01563 2.65624,-1.523438 4.73437,-1.523438 1.59376,0 2.86328,0.431637 3.8086,1.294922 0.94531,0.863286 1.41797,2.017571 1.41797,3.462891 -0.0312,0.109375 -0.0781,0.255858 -0.14063,0.439453 -0.0625,0.183595 -0.19726,0.541013 -0.4043,1.072265 -0.20703,0.531253 -0.42382,1.035154 -0.65039,1.511719 -0.22656,0.476565 -0.51367,0.999997 -0.86132,1.570313 -0.34766,0.570315 -0.70118,1.046873 -1.06055,1.429687 l -4.94531,5.285156 h 8.12109 L 194.44596,40 Z m 15.70139,0 6.02343,-15.714844 h -7.91015 l 0.1289,-1.816406 h 10.16016 V 24.0625 L 202.02626,40 Z m 23.30685,-4.347656 h -1.99218 V 40 h -1.96875 v -4.347656 h -7.92188 v -1.792969 l 7.69922,-11.390625 h 2.19141 v 11.484375 h 2.15625 z m -3.96093,-10.523438 -5.85938,8.824219 h 5.85938 z"
         id="274"
         inkscape:connector-curvature="0"
         style="fill:#ffffff" />
    </g>
    <g
       id="Group-10"
       transform="matrix(1.3558245,0,0,1.6330393,136.34136,227.95804)">
      <rect
         id="Rectangle-Copy-28"
         x="1"
         y="1"
         width="58"
         height="58"
         style="fill:#415c6f;fill-rule:nonzero;stroke:#ffffff;stroke-width:2" />
      <rect
         id="Rectangle-Copy-29"
         x="59"
         y="1"
         width="58"
         height="58"
         style="fill:#415c6f;fill-rule:nonzero;stroke:#ffffff;stroke-width:2" />
      <rect
         id="Rectangle-Copy-30"
         x="207"
         y="1"
         width="58"
         height="58"
         style="fill:#415c6f;fill-rule:nonzero;stroke:#ffffff;stroke-width:2" />
      <rect
         id="Rectangle-Copy-31"
         x="265"
         y="1"
         width="58"
         height="58"
         style="fill:#415c6f;fill-rule:nonzero;stroke:#ffffff;stroke-width:2" />
      <path
         d="m 22.519314,22.46875 h 1.863282 V 40 H 22.308377 V 24.636719 c -0.789067,0.515627 -1.753901,0.957029 -2.894531,1.324218 v -1.957031 c 0.125,-0.05469 0.378904,-0.164061 0.761718,-0.328125 0.382815,-0.164063 0.669921,-0.289062 0.861328,-0.375 0.191408,-0.08594 0.43164,-0.20703 0.720704,-0.363281 0.289063,-0.156251 0.542967,-0.312499 0.761718,-0.46875 z m 10.498264,17.800781 c -1.04688,0 -1.978511,-0.136717 -2.794922,-0.410156 -0.81641,-0.273439 -1.412107,-0.589842 -1.787109,-0.949219 l 0.65625,-1.722656 c 1.101568,0.867192 2.414055,1.300781 3.9375,1.300781 1.171881,0 2.103512,-0.291013 2.794922,-0.873047 0.691409,-0.582034 1.037109,-1.396479 1.037109,-2.443359 0,-0.570315 -0.08789,-1.068357 -0.263672,-1.494141 -0.175782,-0.425783 -0.410154,-0.76953 -0.703125,-1.03125 -0.29297,-0.26172 -0.667966,-0.472655 -1.125,-0.632812 -0.457033,-0.160157 -0.925779,-0.273437 -1.40625,-0.339844 -0.480471,-0.06641 -1.037106,-0.107422 -1.669922,-0.123047 -0.07813,0 -0.195311,-0.002 -0.351562,-0.0059 -0.156251,-0.0039 -0.273437,-0.0059 -0.351563,-0.0059 v -1.746093 h 0.585938 c 0.546878,-0.0078 1.029295,-0.03711 1.447265,-0.08789 0.417971,-0.05078 0.835936,-0.142577 1.253907,-0.275391 0.417971,-0.132813 0.76367,-0.308592 1.037109,-0.527343 0.273439,-0.218751 0.496093,-0.511717 0.667969,-0.878907 0.171876,-0.367189 0.257812,-0.800778 0.257812,-1.300781 0,-1.875009 -1.074208,-2.8125 -3.222656,-2.8125 -0.773441,0 -1.499997,0.11328 -2.179687,0.339844 -0.679691,0.226564 -1.261717,0.531248 -1.746094,0.914062 l -0.65625,-1.710937 c 1.164068,-0.882817 2.839833,-1.324219 5.027344,-1.324219 0.882817,0 1.699215,0.162108 2.449218,0.486328 0.750004,0.324221 1.367185,0.82031 1.851563,1.488282 0.484377,0.667972 0.726562,1.451167 0.726562,2.349609 0,1.093755 -0.269528,1.992184 -0.808593,2.695312 -0.539066,0.703129 -1.29687,1.20703 -2.273438,1.511719 1.093756,0.234376 1.951169,0.74609 2.572266,1.535156 0.621097,0.789067 0.93164,1.789057 0.93164,3 0,1.539071 -0.550775,2.769527 -1.652343,3.691407 -1.101568,0.921879 -2.515617,1.382812 -4.242188,1.382812 z"
         id="path21"
         inkscape:connector-curvature="0"
         style="fill:#ffffff" />
      <path
         d="m 80.874783,32.992187 c -0.992192,0 -1.904293,-0.216794 -2.736328,-0.65039 -0.832035,-0.433596 -1.501951,-1.060543 -2.009766,-1.88086 -0.507815,-0.820316 -0.761718,-1.753901 -0.761718,-2.800781 0,-1.593758 0.546869,-2.914057 1.640625,-3.960937 1.093755,-1.046881 2.523428,-1.570313 4.289062,-1.570313 0.914067,0 1.744137,0.146483 2.490234,0.439453 0.746098,0.292971 1.359373,0.69531 1.839844,1.207032 0.480471,0.511721 0.851561,1.109371 1.113281,1.792968 0.261721,0.683597 0.392579,1.423824 0.392579,2.220703 0,1.117194 -0.191405,2.128902 -0.574219,3.035157 -0.382815,0.906254 -1.042964,1.996087 -1.980469,3.269531 -0.335939,0.445315 -0.89648,1.160151 -1.681641,2.144531 -0.78516,0.98438 -1.486325,1.855465 -2.103515,2.613281 L 79.866971,40 h -2.578125 l 6.222656,-7.710938 c -0.882817,0.468753 -1.761715,0.703125 -2.636719,0.703125 z m 4.042969,-5.425781 c 0,-1.070318 -0.302732,-1.947262 -0.908203,-2.630859 -0.605472,-0.683597 -1.486323,-1.025391 -2.642578,-1.025391 -1.164069,0 -2.085935,0.357419 -2.765625,1.072266 -0.679691,0.714847 -1.019532,1.595698 -1.019532,2.642578 0,1.093755 0.328122,1.968747 0.984375,2.625 0.656254,0.656253 1.566401,0.984375 2.730469,0.984375 1.234381,0 2.146481,-0.33984 2.736328,-1.019531 0.589847,-0.679691 0.884766,-1.562495 0.884766,-2.648438 z m 10.943576,12.703125 c -1.062505,0 -2.02148,-0.177732 -2.876953,-0.533203 -0.855473,-0.35547 -1.548826,-0.900387 -2.080078,-1.634766 -0.531253,-0.734378 -0.796875,-1.605463 -0.796875,-2.613281 0,-1.117193 0.320309,-2.089839 0.960937,-2.917969 0.640629,-0.828129 1.535151,-1.429685 2.683594,-1.804687 -2.187511,-0.773441 -3.28125,-2.179677 -3.28125,-4.21875 0,-1.382819 0.499995,-2.46484 1.5,-3.246094 1.000005,-0.781254 2.296867,-1.171875 3.890625,-1.171875 1.585946,0 2.871089,0.390621 3.855469,1.171875 0.984383,0.781254 1.476563,1.863275 1.476563,3.246094 0,1.031255 -0.26562,1.898434 -0.79688,2.601562 -0.531248,0.703129 -1.273428,1.242186 -2.226558,1.617188 1.054693,0.375002 1.882808,0.976558 2.484378,1.804687 0.60156,0.82813 0.90234,1.800776 0.90234,2.917969 0,1.500008 -0.54101,2.671871 -1.623046,3.515625 -1.082037,0.843755 -2.439445,1.265625 -4.072266,1.265625 z m 0,-8.507812 c -1.117193,0.257813 -2.011715,0.68945 -2.683594,1.294922 -0.671878,0.605471 -1.007812,1.369136 -1.007812,2.291015 0,0.960943 0.347653,1.724607 1.042969,2.291016 0.695316,0.566409 1.578119,0.849609 2.648437,0.849609 1.070318,0 1.943356,-0.2832 2.619141,-0.849609 0.675784,-0.566409 1.013672,-1.330073 1.013672,-2.291016 0,-0.929692 -0.328122,-1.697262 -0.984375,-2.302734 -0.656254,-0.605472 -1.539057,-1.033202 -2.648438,-1.283203 z m 0,-7.851563 c -0.92188,0 -1.705075,0.230467 -2.349609,0.691406 -0.644535,0.46094 -0.966797,1.093746 -0.966797,1.898438 0,1.843759 1.105458,3.011716 3.316406,3.503906 2.179698,-0.49219 3.269531,-1.660147 3.269531,-3.503906 0,-0.804692 -0.316403,-1.437498 -0.949218,-1.898438 -0.632816,-0.460939 -1.406246,-0.691406 -2.320313,-0.691406 z"
         id="path23"
         inkscape:connector-curvature="0"
         style="fill:#ffffff" />
      <polygon
         id="polygon25"
         points="239.85243,24.0625 233.5829,40 231.45009,40 237.47352,24.285156 229.56337,24.285156 229.69227,22.46875 239.85243,22.46875 "
         style="fill:#ffffff" />
      <path
         d="m 275.19206,40 -0.26953,-1.921875 6.05859,-6.726563 c 0.40625,-0.453127 0.79883,-1.039058 1.17773,-1.757812 0.37891,-0.718754 0.6543,-1.328123 0.82618,-1.828125 l 0.26953,-0.738281 c 0,-0.968755 -0.26953,-1.720701 -0.8086,-2.25586 -0.53906,-0.535159 -1.30468,-0.802734 -2.29687,-0.802734 -1.65626,0 -2.96093,0.480464 -3.91406,1.441406 l -0.67969,-1.757812 c 1.07813,-1.01563 2.65624,-1.523438 4.73437,-1.523438 1.59376,0 2.86328,0.431637 3.8086,1.294922 0.94532,0.863286 1.41797,2.017571 1.41797,3.462891 -0.0312,0.109375 -0.0781,0.255858 -0.14063,0.439453 -0.0625,0.183595 -0.19726,0.541013 -0.4043,1.072265 -0.20703,0.531253 -0.42382,1.035154 -0.65039,1.511719 -0.22656,0.476565 -0.51367,0.999997 -0.86132,1.570313 -0.34766,0.570315 -0.70118,1.046873 -1.06055,1.429687 l -4.94531,5.285156 h 8.12109 L 285.44596,40 Z m 15.70139,0 6.02343,-15.714844 h -7.91015 l 0.1289,-1.816406 h 10.16016 V 24.0625 L 293.02626,40 Z m 23.30685,-4.347656 h -1.99218 V 40 h -1.96875 v -4.347656 h -7.92188 v -1.792969 l 7.69922,-11.390625 h 2.19141 v 11.484375 h 2.15625 z m -3.96093,-10.523438 -5.85938,8.824219 h 5.85938 z"
         id="path27"
         inkscape:connector-curvature="0"
         style="fill:#ffffff" />
    </g>
    <g
       id="Group-9"
       transform="matrix(1.3558245,0,0,1.6330393,95.666628,38.525481)">
      <rect
         id="Rectangle-Copy-21"
         x="1"
         y="1"
         width="58"
         height="58"
         style="fill:#415c6f;fill-rule:nonzero;stroke:#ffffff;stroke-width:2" />
      <rect
         id="Rectangle-Copy-22"
         x="109"
         y="1"
         width="58"
         height="58"
         style="fill:#415c6f;fill-rule:nonzero;stroke:#ffffff;stroke-width:2" />
      <rect
         id="Rectangle-Copy-23"
         x="217"
         y="1"
         width="58"
         height="58"
         style="fill:#415c6f;fill-rule:nonzero;stroke:#ffffff;stroke-width:2" />
      <rect
         id="Rectangle-Copy-24"
         x="325"
         y="1"
         width="58"
         height="58"
         style="fill:#415c6f;fill-rule:nonzero;stroke:#ffffff;stroke-width:2" />
      <path
         d="m 21.874783,32.992187 c -0.992192,0 -1.904293,-0.216794 -2.736328,-0.65039 -0.832036,-0.433596 -1.501951,-1.060543 -2.009766,-1.88086 -0.507815,-0.820316 -0.761718,-1.753901 -0.761718,-2.800781 0,-1.593758 0.546869,-2.914057 1.640625,-3.960937 1.093755,-1.046881 2.523428,-1.570313 4.289062,-1.570313 0.914067,0 1.744137,0.146483 2.490234,0.439453 0.746098,0.292971 1.359373,0.69531 1.839844,1.207032 0.480471,0.511721 0.851561,1.109371 1.113281,1.792968 0.26172,0.683597 0.392579,1.423824 0.392579,2.220703 0,1.117194 -0.191405,2.128902 -0.574219,3.035157 -0.382815,0.906254 -1.042964,1.996087 -1.980469,3.269531 -0.335939,0.445315 -0.89648,1.160151 -1.681641,2.144531 -0.78516,0.98438 -1.486325,1.855465 -2.103515,2.613281 L 20.866971,40 h -2.578125 l 6.222656,-7.710938 c -0.882817,0.468753 -1.761715,0.703125 -2.636719,0.703125 z m 4.042969,-5.425781 c 0,-1.070318 -0.302732,-1.947262 -0.908203,-2.630859 -0.605472,-0.683597 -1.486323,-1.025391 -2.642578,-1.025391 -1.164069,0 -2.085935,0.357419 -2.765625,1.072266 -0.679691,0.714847 -1.019532,1.595698 -1.019532,2.642578 0,1.093755 0.328122,1.968747 0.984375,2.625 0.656254,0.656253 1.566401,0.984375 2.730469,0.984375 1.234381,0 2.146481,-0.33984 2.736328,-1.019531 0.589847,-0.679691 0.884766,-1.562495 0.884766,-2.648438 z m 10.943576,12.703125 c -1.062505,0 -2.02148,-0.177732 -2.876953,-0.533203 -0.855473,-0.35547 -1.548826,-0.900387 -2.080078,-1.634766 -0.531253,-0.734378 -0.796875,-1.605463 -0.796875,-2.613281 0,-1.117193 0.320309,-2.089839 0.960937,-2.917969 0.640629,-0.828129 1.535151,-1.429685 2.683594,-1.804687 -2.187511,-0.773441 -3.28125,-2.179677 -3.28125,-4.21875 0,-1.382819 0.499995,-2.46484 1.5,-3.246094 1.000005,-0.781254 2.296867,-1.171875 3.890625,-1.171875 1.585946,0 2.871089,0.390621 3.855469,1.171875 0.98438,0.781254 1.476562,1.863275 1.476562,3.246094 0,1.031255 -0.265622,1.898434 -0.796875,2.601562 -0.531252,0.703129 -1.273432,1.242186 -2.226562,1.617188 1.054693,0.375002 1.882809,0.976558 2.484375,1.804687 0.601565,0.82813 0.902344,1.800776 0.902344,2.917969 0,1.500008 -0.541011,2.671871 -1.623047,3.515625 -1.082037,0.843755 -2.439445,1.265625 -4.072266,1.265625 z m 0,-8.507812 c -1.117193,0.257813 -2.011715,0.68945 -2.683594,1.294922 -0.671878,0.605471 -1.007812,1.369136 -1.007812,2.291015 0,0.960943 0.347653,1.724607 1.042969,2.291016 0.695316,0.566409 1.578119,0.849609 2.648437,0.849609 1.070318,0 1.943356,-0.2832 2.619141,-0.849609 0.675784,-0.566409 1.013672,-1.330073 1.013672,-2.291016 0,-0.929692 -0.328122,-1.697262 -0.984375,-2.302734 -0.656254,-0.605472 -1.539057,-1.033202 -2.648438,-1.283203 z m 0,-7.851563 c -0.92188,0 -1.705075,0.230467 -2.349609,0.691406 -0.644535,0.46094 -0.966797,1.093746 -0.966797,1.898438 0,1.843759 1.105458,3.011716 3.316406,3.503906 2.179698,-0.49219 3.269531,-1.660147 3.269531,-3.503906 0,-0.804692 -0.316403,-1.437498 -0.949218,-1.898438 -0.632816,-0.460939 -1.406246,-0.691406 -2.320313,-0.691406 z"
         id="98-copy-2"
         inkscape:connector-curvature="0"
         style="fill:#ffffff" />
      <path
         d="m 131.51931,22.46875 h 1.86329 V 40 h -2.07422 V 24.636719 c -0.78907,0.515627 -1.7539,0.957029 -2.89453,1.324218 v -1.957031 c 0.125,-0.05469 0.3789,-0.164061 0.76171,-0.328125 0.38282,-0.164063 0.66992,-0.289062 0.86133,-0.375 0.19141,-0.08594 0.43164,-0.20703 0.72071,-0.363281 0.28906,-0.156251 0.54296,-0.312499 0.76171,-0.46875 z m 10.49827,17.800781 c -1.04688,0 -1.97851,-0.136717 -2.79492,-0.410156 -0.81641,-0.273439 -1.41211,-0.589842 -1.78711,-0.949219 L 138.0918,37.1875 c 1.10156,0.867192 2.41405,1.300781 3.9375,1.300781 1.17188,0 2.10351,-0.291013 2.79492,-0.873047 0.69141,-0.582034 1.03711,-1.396479 1.03711,-2.443359 0,-0.570315 -0.0879,-1.068357 -0.26367,-1.494141 -0.17579,-0.425783 -0.41016,-0.76953 -0.70313,-1.03125 -0.29297,-0.26172 -0.66797,-0.472655 -1.125,-0.632812 -0.45703,-0.160157 -0.92578,-0.273437 -1.40625,-0.339844 -0.48047,-0.06641 -1.03711,-0.107422 -1.66992,-0.123047 -0.0781,0 -0.19531,-0.002 -0.35156,-0.0059 -0.15625,-0.0039 -0.27344,-0.0059 -0.35157,-0.0059 v -1.746093 h 0.58594 c 0.54688,-0.0078 1.0293,-0.03711 1.44727,-0.08789 0.41797,-0.05078 0.83593,-0.142577 1.2539,-0.275391 0.41797,-0.132813 0.76367,-0.308592 1.03711,-0.527343 0.27344,-0.218751 0.4961,-0.511717 0.66797,-0.878907 0.17188,-0.367189 0.25781,-0.800778 0.25781,-1.300781 0,-1.875009 -1.0742,-2.8125 -3.22265,-2.8125 -0.77344,0 -1.5,0.11328 -2.17969,0.339844 -0.67969,0.226564 -1.26172,0.531248 -1.74609,0.914062 l -0.65625,-1.710937 c 1.16406,-0.882817 2.83983,-1.324219 5.02734,-1.324219 0.88282,0 1.69922,0.162108 2.44922,0.486328 0.75,0.324221 1.36718,0.82031 1.85156,1.488282 0.48438,0.667972 0.72656,1.451167 0.72656,2.349609 0,1.093755 -0.26952,1.992184 -0.80859,2.695312 -0.53907,0.703129 -1.29687,1.20703 -2.27344,1.511719 1.09376,0.234376 1.95117,0.74609 2.57227,1.535156 0.6211,0.789067 0.93164,1.789057 0.93164,3 0,1.539071 -0.55078,2.769527 -1.65234,3.691407 -1.10157,0.921879 -2.51562,1.382812 -4.24219,1.382812 z"
         id="13-copy-2"
         inkscape:connector-curvature="0"
         style="fill:#ffffff" />
      <path
         d="m 227.19206,40 -0.26953,-1.921875 6.05859,-6.726563 c 0.40625,-0.453127 0.79883,-1.039058 1.17773,-1.757812 0.37891,-0.718754 0.6543,-1.328123 0.82618,-1.828125 l 0.26953,-0.738281 c 0,-0.968755 -0.26953,-1.720701 -0.8086,-2.25586 -0.53906,-0.535159 -1.30468,-0.802734 -2.29687,-0.802734 -1.65626,0 -2.96093,0.480464 -3.91406,1.441406 l -0.67969,-1.757812 c 1.07813,-1.01563 2.65624,-1.523438 4.73437,-1.523438 1.59376,0 2.86328,0.431637 3.8086,1.294922 0.94531,0.863286 1.41797,2.017571 1.41797,3.462891 -0.0312,0.109375 -0.0781,0.255858 -0.14063,0.439453 -0.0625,0.183595 -0.19726,0.541013 -0.4043,1.072265 -0.20703,0.531253 -0.42382,1.035154 -0.65039,1.511719 -0.22656,0.476565 -0.51367,0.999997 -0.86132,1.570313 -0.34766,0.570315 -0.70118,1.046873 -1.06055,1.429687 l -4.94531,5.285156 h 8.12109 L 237.44596,40 Z m 15.70139,0 6.02343,-15.714844 h -7.91015 l 0.1289,-1.816406 h 10.16016 V 24.0625 L 245.02626,40 Z m 23.30685,-4.347656 h -1.99218 V 40 h -1.96875 v -4.347656 h -7.92188 v -1.792969 l 7.69922,-11.390625 h 2.19141 v 11.484375 h 2.15625 z m -3.96093,-10.523438 -5.85938,8.824219 h 5.85938 z"
         id="274-copy-2"
         inkscape:connector-curvature="0"
         style="fill:#ffffff" />
      <polygon
         id="7-copy-2"
         points="358.85243,24.0625 352.5829,40 350.45009,40 356.47352,24.285156 348.56337,24.285156 348.69227,22.46875 358.85243,22.46875 "
         style="fill:#ffffff" />
    </g>
    <g
       id="Group-4"
       transform="matrix(1.3558245,0,0,1.6330393,825.1002,417.3906)">
      <rect
         id="Rectangle-Copy-39"
         x="1"
         y="1"
         width="58"
         height="58"
         style="fill:#415c6f;fill-rule:nonzero;stroke:#ffffff;stroke-width:2" />
      <rect
         id="Rectangle-Copy-40"
         x="59"
         y="1"
         width="58"
         height="58"
         style="fill:#415c6f;fill-rule:nonzero;stroke:#ffffff;stroke-width:2" />
      <rect
         id="Rectangle-Copy-41"
         x="117"
         y="1"
         width="58"
         height="58"
         style="fill:#415c6f;fill-rule:nonzero;stroke:#ffffff;stroke-width:2" />
      <path
         d="m 34.424696,22.46875 -0.164062,1.921875 h -7.160157 c -0.07813,2.273449 -0.136718,4.113274 -0.175781,5.519531 0.882817,-0.562503 1.839839,-0.84375 2.871094,-0.84375 0.867192,0 1.642575,0.138671 2.326172,0.416016 0.683597,0.277345 1.242185,0.658201 1.675781,1.142578 0.433596,0.484377 0.763671,1.048825 0.990234,1.693359 0.226564,0.644535 0.339844,1.341794 0.339844,2.091797 0,1.773447 -0.568354,3.193354 -1.705078,4.259766 -1.136724,1.066411 -2.681631,1.599609 -4.634766,1.599609 -1.960947,0 -3.531244,-0.535151 -4.710937,-1.605469 l 0.761719,-1.652343 c 1.156255,0.906254 2.496086,1.359375 4.019531,1.359375 1.281256,0 2.292965,-0.363278 3.035156,-1.089844 0.742191,-0.726566 1.113281,-1.675775 1.113281,-2.847656 0,-1.046881 -0.312496,-1.896481 -0.9375,-2.548828 -0.625003,-0.652347 -1.515619,-0.978516 -2.671875,-0.978516 -1.156255,0 -2.085934,0.386715 -2.789062,1.160156 l -1.628906,-0.222656 0.457031,-9.375 z"
         id="5"
         inkscape:connector-curvature="0"
         style="fill:#ffffff" />
      <path
         d="m 80.443142,22.46875 h 1.863282 V 40 H 80.232205 V 24.636719 c -0.789066,0.515627 -1.753901,0.957029 -2.894531,1.324218 v -1.957031 c 0.125,-0.05469 0.378904,-0.164061 0.761718,-0.328125 0.382815,-0.164063 0.669921,-0.289062 0.861329,-0.375 0.191407,-0.08594 0.431639,-0.20703 0.720703,-0.363281 0.289064,-0.156251 0.542967,-0.312499 0.761718,-0.46875 z M 86.453125,40 86.183594,38.078125 92.242187,31.351562 c 0.406252,-0.453127 0.798827,-1.039058 1.177735,-1.757812 0.378908,-0.718754 0.654296,-1.328123 0.826172,-1.828125 l 0.269531,-0.738281 c 0,-0.968755 -0.269529,-1.720701 -0.808594,-2.25586 -0.539065,-0.535159 -1.304682,-0.802734 -2.296875,-0.802734 -1.656258,0 -2.960932,0.480464 -3.914062,1.441406 l -0.679688,-1.757812 c 1.078131,-1.01563 2.65624,-1.523438 4.734375,-1.523438 1.593758,0 2.863277,0.431637 3.808594,1.294922 0.945317,0.863286 1.417969,2.017571 1.417969,3.462891 -0.03125,0.109375 -0.07813,0.255858 -0.140625,0.439453 -0.0625,0.183595 -0.197265,0.541013 -0.404297,1.072265 -0.207032,0.531253 -0.423827,1.035154 -0.650391,1.511719 -0.226563,0.476565 -0.51367,0.999997 -0.861328,1.570313 -0.347658,0.570315 -0.70117,1.046873 -1.060547,1.429687 l -4.945312,5.285156 h 8.121093 L 96.707031,40 Z"
         id="12"
         inkscape:connector-curvature="0"
         style="fill:#ffffff" />
      <path
         d="m 134.76237,32.992187 c -0.99219,0 -1.90429,-0.216794 -2.73633,-0.65039 -0.83203,-0.433596 -1.50195,-1.060543 -2.00976,-1.88086 -0.50782,-0.820316 -0.76172,-1.753901 -0.76172,-2.800781 0,-1.593758 0.54687,-2.914057 1.64062,-3.960937 1.09376,-1.046881 2.52343,-1.570313 4.28906,-1.570313 0.91407,0 1.74414,0.146483 2.49024,0.439453 0.7461,0.292971 1.35937,0.69531 1.83984,1.207032 0.48047,0.511721 0.85156,1.109371 1.11328,1.792968 0.26172,0.683597 0.39258,1.423824 0.39258,2.220703 0,1.117194 -0.1914,2.128902 -0.57422,3.035157 -0.38281,0.906254 -1.04296,1.996087 -1.98047,3.269531 -0.33593,0.445315 -0.89648,1.160151 -1.68164,2.144531 -0.78516,0.98438 -1.48632,1.855465 -2.10351,2.613281 L 133.75456,40 h -2.57813 l 6.22266,-7.710938 c -0.88282,0.468753 -1.76172,0.703125 -2.63672,0.703125 z m 4.04297,-5.425781 c 0,-1.070318 -0.30273,-1.947262 -0.9082,-2.630859 -0.60548,-0.683597 -1.48633,-1.025391 -2.64258,-1.025391 -1.16407,0 -2.08594,0.357419 -2.76563,1.072266 -0.67969,0.714847 -1.01953,1.595698 -1.01953,2.642578 0,1.093755 0.32812,1.968747 0.98438,2.625 0.65625,0.656253 1.5664,0.984375 2.73046,0.984375 1.23439,0 2.14649,-0.33984 2.73633,-1.019531 0.58985,-0.679691 0.88477,-1.562495 0.88477,-2.648438 z m 10.94357,12.703125 c -1.0625,0 -2.02147,-0.177732 -2.87695,-0.533203 -0.85547,-0.35547 -1.54882,-0.900387 -2.08008,-1.634766 -0.53125,-0.734378 -0.79687,-1.605463 -0.79687,-2.613281 0,-1.117193 0.32031,-2.089839 0.96094,-2.917969 0.64062,-0.828129 1.53515,-1.429685 2.68359,-1.804687 -2.18751,-0.773441 -3.28125,-2.179677 -3.28125,-4.21875 0,-1.382819 0.49999,-2.46484 1.5,-3.246094 1,-0.781254 2.29687,-1.171875 3.89062,-1.171875 1.58595,0 2.87109,0.390621 3.85547,1.171875 0.98438,0.781254 1.47657,1.863275 1.47657,3.246094 0,1.031255 -0.26563,1.898434 -0.79688,2.601562 -0.53125,0.703129 -1.27343,1.242186 -2.22656,1.617188 1.05469,0.375002 1.88281,0.976558 2.48437,1.804687 0.60157,0.82813 0.90235,1.800776 0.90235,2.917969 0,1.500008 -0.54101,2.671871 -1.62305,3.515625 -1.08204,0.843755 -2.43944,1.265625 -4.07227,1.265625 z m 0,-8.507812 c -1.11719,0.257813 -2.01171,0.68945 -2.68359,1.294922 -0.67188,0.605471 -1.00781,1.369136 -1.00781,2.291015 0,0.960943 0.34765,1.724607 1.04297,2.291016 0.69531,0.566409 1.57812,0.849609 2.64843,0.849609 1.07032,0 1.94336,-0.2832 2.61915,-0.849609 0.67578,-0.566409 1.01367,-1.330073 1.01367,-2.291016 0,-0.929692 -0.32812,-1.697262 -0.98438,-2.302734 -0.65625,-0.605472 -1.53905,-1.033202 -2.64844,-1.283203 z m 0,-7.851563 c -0.92188,0 -1.70507,0.230467 -2.3496,0.691406 -0.64454,0.46094 -0.9668,1.093746 -0.9668,1.898438 0,1.843759 1.10546,3.011716 3.3164,3.503906 2.1797,-0.49219 3.26954,-1.660147 3.26954,-3.503906 0,-0.804692 -0.31641,-1.437498 -0.94922,-1.898438 -0.63282,-0.460939 -1.40625,-0.691406 -2.32032,-0.691406 z m 11.31858,-1.441406 h 1.86328 V 40 h -2.07422 V 24.636719 c -0.78906,0.515627 -1.7539,0.957029 -2.89453,1.324218 v -1.957031 c 0.125,-0.05469 0.37891,-0.164061 0.76172,-0.328125 0.38282,-0.164063 0.66992,-0.289062 0.86133,-0.375 0.19141,-0.08594 0.43164,-0.20703 0.7207,-0.363281 0.28907,-0.156251 0.54297,-0.312499 0.76172,-0.46875 z"
         id="981"
         inkscape:connector-curvature="0"
         style="fill:#ffffff" />
    </g>
    <g
       id="Group-3"
       transform="matrix(1.3558245,0,0,1.6330393,764.0881,227.95804)">
      <rect
         id="Rectangle-Copy-32"
         x="1"
         y="1"
         width="58"
         height="58"
         style="fill:#415c6f;fill-rule:nonzero;stroke:#ffffff;stroke-width:2" />
      <rect
         id="Rectangle-Copy-33"
         x="59"
         y="1"
         width="58"
         height="58"
         style="fill:#415c6f;fill-rule:nonzero;stroke:#ffffff;stroke-width:2" />
      <rect
         id="Rectangle-Copy-34"
         x="207"
         y="1"
         width="58"
         height="58"
         style="fill:#415c6f;fill-rule:nonzero;stroke:#ffffff;stroke-width:2" />
      <path
         d="m 22.443142,22.46875 h 1.863282 V 40 H 22.232205 V 24.636719 c -0.789067,0.515627 -1.753901,0.957029 -2.894531,1.324218 v -1.957031 c 0.125,-0.05469 0.378904,-0.164061 0.761718,-0.328125 0.382815,-0.164063 0.669921,-0.289062 0.861329,-0.375 0.191407,-0.08594 0.431639,-0.20703 0.720703,-0.363281 0.289064,-0.156251 0.542967,-0.312499 0.761718,-0.46875 z M 28.453125,40 28.183594,38.078125 34.242187,31.351562 c 0.406253,-0.453127 0.798827,-1.039058 1.177735,-1.757812 0.378908,-0.718754 0.654296,-1.328123 0.826172,-1.828125 l 0.269531,-0.738281 c 0,-0.968755 -0.269529,-1.720701 -0.808594,-2.25586 -0.539065,-0.535159 -1.304682,-0.802734 -2.296875,-0.802734 -1.656258,0 -2.960933,0.480464 -3.914062,1.441406 l -0.679688,-1.757812 c 1.078131,-1.01563 2.65624,-1.523438 4.734375,-1.523438 1.593758,0 2.863277,0.431637 3.808594,1.294922 0.945317,0.863286 1.417969,2.017571 1.417969,3.462891 -0.03125,0.109375 -0.07813,0.255858 -0.140625,0.439453 -0.0625,0.183595 -0.197265,0.541013 -0.404297,1.072265 -0.207032,0.531253 -0.423827,1.035154 -0.650391,1.511719 -0.226563,0.476565 -0.51367,0.999997 -0.861328,1.570313 -0.347658,0.570315 -0.70117,1.046873 -1.060547,1.429687 l -4.945312,5.285156 h 8.121093 L 38.707031,40 Z"
         id="12-copy-4"
         inkscape:connector-curvature="0"
         style="fill:#ffffff" />
      <path
         d="m 75.76237,32.992187 c -0.992192,0 -1.904293,-0.216794 -2.736328,-0.65039 -0.832036,-0.433596 -1.501951,-1.060543 -2.009766,-1.88086 -0.507815,-0.820316 -0.761719,-1.753901 -0.761719,-2.800781 0,-1.593758 0.54687,-2.914057 1.640625,-3.960937 1.093756,-1.046881 2.523429,-1.570313 4.289063,-1.570313 0.914067,0 1.744137,0.146483 2.490234,0.439453 0.746098,0.292971 1.359373,0.69531 1.839844,1.207032 0.480471,0.511721 0.851561,1.109371 1.113281,1.792968 0.26172,0.683597 0.392578,1.423824 0.392578,2.220703 0,1.117194 -0.191404,2.128902 -0.574218,3.035157 -0.382815,0.906254 -1.042964,1.996087 -1.980469,3.269531 -0.335939,0.445315 -0.896481,1.160151 -1.681641,2.144531 -0.78516,0.98438 -1.486325,1.855465 -2.103515,2.613281 L 74.754557,40 h -2.578125 l 6.222657,-7.710938 c -0.882817,0.468753 -1.761715,0.703125 -2.636719,0.703125 z m 4.042969,-5.425781 c 0,-1.070318 -0.302732,-1.947262 -0.908203,-2.630859 -0.605472,-0.683597 -1.486323,-1.025391 -2.642579,-1.025391 -1.164068,0 -2.085934,0.357419 -2.765625,1.072266 -0.679691,0.714847 -1.019531,1.595698 -1.019531,2.642578 0,1.093755 0.328122,1.968747 0.984375,2.625 0.656253,0.656253 1.566401,0.984375 2.730469,0.984375 1.234381,0 2.146481,-0.33984 2.736328,-1.019531 0.589847,-0.679691 0.884766,-1.562495 0.884766,-2.648438 z m 10.943576,12.703125 c -1.062505,0 -2.02148,-0.177732 -2.876953,-0.533203 -0.855473,-0.35547 -1.548826,-0.900387 -2.080078,-1.634766 -0.531253,-0.734378 -0.796875,-1.605463 -0.796875,-2.613281 0,-1.117193 0.320309,-2.089839 0.960937,-2.917969 0.640628,-0.828129 1.535151,-1.429685 2.683594,-1.804687 -2.187511,-0.773441 -3.28125,-2.179677 -3.28125,-4.21875 0,-1.382819 0.499995,-2.46484 1.5,-3.246094 1.000005,-0.781254 2.296867,-1.171875 3.890625,-1.171875 1.585945,0 2.871089,0.390621 3.855469,1.171875 0.98438,0.781254 1.476562,1.863275 1.476562,3.246094 0,1.031255 -0.265622,1.898434 -0.796875,2.601562 -0.531252,0.703129 -1.273433,1.242186 -2.226562,1.617188 1.054692,0.375002 1.882809,0.976558 2.484375,1.804687 0.601565,0.82813 0.902343,1.800776 0.902343,2.917969 0,1.500008 -0.54101,2.671871 -1.623046,3.515625 -1.082037,0.843755 -2.439445,1.265625 -4.072266,1.265625 z m 0,-8.507812 c -1.117193,0.257813 -2.011715,0.68945 -2.683594,1.294922 -0.671878,0.605471 -1.007812,1.369136 -1.007812,2.291015 0,0.960943 0.347653,1.724607 1.042968,2.291016 0.695317,0.566409 1.57812,0.849609 2.648438,0.849609 1.070318,0 1.943356,-0.2832 2.619141,-0.849609 0.675784,-0.566409 1.013671,-1.330073 1.013671,-2.291016 0,-0.929692 -0.328121,-1.697262 -0.984375,-2.302734 -0.656253,-0.605472 -1.539057,-1.033202 -2.648437,-1.283203 z m 0,-7.851563 c -0.92188,0 -1.705075,0.230467 -2.349609,0.691406 -0.644535,0.46094 -0.966797,1.093746 -0.966797,1.898438 0,1.843759 1.105457,3.011716 3.316406,3.503906 2.179698,-0.49219 3.269531,-1.660147 3.269531,-3.503906 0,-0.804692 -0.316403,-1.437498 -0.949219,-1.898438 -0.632815,-0.460939 -1.406245,-0.691406 -2.320312,-0.691406 z M 102.06749,22.46875 h 1.86328 V 40 h -2.07422 V 24.636719 c -0.78906,0.515627 -1.7539,0.957029 -2.894527,1.324218 v -1.957031 c 0.125,-0.05469 0.378904,-0.164061 0.761718,-0.328125 0.382819,-0.164063 0.669919,-0.289062 0.861329,-0.375 0.19141,-0.08594 0.43164,-0.20703 0.7207,-0.363281 0.28907,-0.156251 0.54297,-0.312499 0.76172,-0.46875 z"
         id="981-copy-4"
         inkscape:connector-curvature="0"
         style="fill:#ffffff" />
      <path
         d="m 241.4247,22.46875 -0.16407,1.921875 h -7.16015 c -0.0781,2.273449 -0.13672,4.113274 -0.17578,5.519531 0.88281,-0.562503 1.83983,-0.84375 2.87109,-0.84375 0.86719,0 1.64257,0.138671 2.32617,0.416016 0.6836,0.277345 1.24219,0.658201 1.67578,1.142578 0.4336,0.484377 0.76367,1.048825 0.99024,1.693359 0.22656,0.644535 0.33984,1.341794 0.33984,2.091797 0,1.773447 -0.56835,3.193354 -1.70508,4.259766 -1.13672,1.066411 -2.68163,1.599609 -4.63476,1.599609 -1.96095,0 -3.53125,-0.535151 -4.71094,-1.605469 l 0.76172,-1.652343 c 1.15625,0.906254 2.49608,1.359375 4.01953,1.359375 1.28126,0 2.29296,-0.363278 3.03516,-1.089844 0.74219,-0.726566 1.11328,-1.675775 1.11328,-2.847656 0,-1.046881 -0.3125,-1.896481 -0.9375,-2.548828 -0.62501,-0.652347 -1.51562,-0.978516 -2.67188,-0.978516 -1.15625,0 -2.08593,0.386715 -2.78906,1.160156 l -1.62891,-0.222656 0.45703,-9.375 z"
         id="5-copy-4"
         inkscape:connector-curvature="0"
         style="fill:#ffffff" />
    </g>
    <g
       id="Group-2"
       transform="matrix(1.3558245,0,0,1.6330393,730.19249,38.525481)">
      <rect
         id="Rectangle-Copy-25"
         x="1"
         y="1"
         width="58"
         height="58"
         style="fill:#415c6f;fill-rule:nonzero;stroke:#ffffff;stroke-width:2" />
      <rect
         id="Rectangle-Copy-26"
         x="109"
         y="1"
         width="58"
         height="58"
         style="fill:#415c6f;fill-rule:nonzero;stroke:#ffffff;stroke-width:2" />
      <rect
         id="Rectangle-Copy-27"
         x="257"
         y="1"
         width="58"
         height="58"
         style="fill:#415c6f;fill-rule:nonzero;stroke:#ffffff;stroke-width:2" />
      <path
         d="m 22.443142,22.46875 h 1.863282 V 40 H 22.232205 V 24.636719 c -0.789067,0.515627 -1.753901,0.957029 -2.894531,1.324218 v -1.957031 c 0.125,-0.05469 0.378904,-0.164061 0.761718,-0.328125 0.382815,-0.164063 0.669921,-0.289062 0.861329,-0.375 0.191407,-0.08594 0.431639,-0.20703 0.720703,-0.363281 0.289064,-0.156251 0.542967,-0.312499 0.761718,-0.46875 z M 28.453125,40 28.183594,38.078125 34.242187,31.351562 c 0.406253,-0.453127 0.798827,-1.039058 1.177735,-1.757812 0.378908,-0.718754 0.654296,-1.328123 0.826172,-1.828125 l 0.269531,-0.738281 c 0,-0.968755 -0.269529,-1.720701 -0.808594,-2.25586 -0.539065,-0.535159 -1.304682,-0.802734 -2.296875,-0.802734 -1.656258,0 -2.960933,0.480464 -3.914062,1.441406 l -0.679688,-1.757812 c 1.078131,-1.01563 2.65624,-1.523438 4.734375,-1.523438 1.593758,0 2.863277,0.431637 3.808594,1.294922 0.945317,0.863286 1.417969,2.017571 1.417969,3.462891 -0.03125,0.109375 -0.07813,0.255858 -0.140625,0.439453 -0.0625,0.183595 -0.197265,0.541013 -0.404297,1.072265 -0.207032,0.531253 -0.423827,1.035154 -0.650391,1.511719 -0.226563,0.476565 -0.51367,0.999997 -0.861328,1.570313 -0.347658,0.570315 -0.70117,1.046873 -1.060547,1.429687 l -4.945312,5.285156 h 8.121093 L 38.707031,40 Z"
         id="12-copy-3"
         inkscape:connector-curvature="0"
         style="fill:#ffffff" />
      <path
         d="m 125.76237,32.992187 c -0.99219,0 -1.90429,-0.216794 -2.73633,-0.65039 -0.83203,-0.433596 -1.50195,-1.060543 -2.00976,-1.88086 -0.50782,-0.820316 -0.76172,-1.753901 -0.76172,-2.800781 0,-1.593758 0.54687,-2.914057 1.64062,-3.960937 1.09376,-1.046881 2.52343,-1.570313 4.28907,-1.570313 0.91406,0 1.74413,0.146483 2.49023,0.439453 0.7461,0.292971 1.35937,0.69531 1.83984,1.207032 0.48047,0.511721 0.85156,1.109371 1.11328,1.792968 0.26172,0.683597 0.39258,1.423824 0.39258,2.220703 0,1.117194 -0.1914,2.128902 -0.57422,3.035157 -0.38281,0.906254 -1.04296,1.996087 -1.98047,3.269531 -0.33593,0.445315 -0.89648,1.160151 -1.68164,2.144531 -0.78516,0.98438 -1.48632,1.855465 -2.10351,2.613281 L 124.75456,40 h -2.57813 l 6.22266,-7.710938 c -0.88282,0.468753 -1.76172,0.703125 -2.63672,0.703125 z m 4.04297,-5.425781 c 0,-1.070318 -0.30273,-1.947262 -0.9082,-2.630859 -0.60548,-0.683597 -1.48633,-1.025391 -2.64258,-1.025391 -1.16407,0 -2.08594,0.357419 -2.76563,1.072266 -0.67969,0.714847 -1.01953,1.595698 -1.01953,2.642578 0,1.093755 0.32812,1.968747 0.98438,2.625 0.65625,0.656253 1.5664,0.984375 2.73047,0.984375 1.23438,0 2.14648,-0.33984 2.73632,-1.019531 0.58985,-0.679691 0.88477,-1.562495 0.88477,-2.648438 z m 10.94357,12.703125 c -1.0625,0 -2.02147,-0.177732 -2.87695,-0.533203 -0.85547,-0.35547 -1.54882,-0.900387 -2.08008,-1.634766 -0.53125,-0.734378 -0.79687,-1.605463 -0.79687,-2.613281 0,-1.117193 0.32031,-2.089839 0.96094,-2.917969 0.64062,-0.828129 1.53515,-1.429685 2.68359,-1.804687 -2.18751,-0.773441 -3.28125,-2.179677 -3.28125,-4.21875 0,-1.382819 0.49999,-2.46484 1.5,-3.246094 1,-0.781254 2.29687,-1.171875 3.89062,-1.171875 1.58595,0 2.87109,0.390621 3.85547,1.171875 0.98438,0.781254 1.47657,1.863275 1.47657,3.246094 0,1.031255 -0.26563,1.898434 -0.79688,2.601562 -0.53125,0.703129 -1.27343,1.242186 -2.22656,1.617188 1.05469,0.375002 1.88281,0.976558 2.48437,1.804687 0.60157,0.82813 0.90235,1.800776 0.90235,2.917969 0,1.500008 -0.54101,2.671871 -1.62305,3.515625 -1.08204,0.843755 -2.43944,1.265625 -4.07227,1.265625 z m 0,-8.507812 c -1.11719,0.257813 -2.01171,0.68945 -2.68359,1.294922 -0.67188,0.605471 -1.00781,1.369136 -1.00781,2.291015 0,0.960943 0.34765,1.724607 1.04297,2.291016 0.69531,0.566409 1.57812,0.849609 2.64843,0.849609 1.07032,0 1.94336,-0.2832 2.61915,-0.849609 0.67578,-0.566409 1.01367,-1.330073 1.01367,-2.291016 0,-0.929692 -0.32812,-1.697262 -0.98438,-2.302734 -0.65625,-0.605472 -1.53905,-1.033202 -2.64844,-1.283203 z m 0,-7.851563 c -0.92188,0 -1.70507,0.230467 -2.3496,0.691406 -0.64454,0.46094 -0.9668,1.093746 -0.9668,1.898438 0,1.843759 1.10546,3.011716 3.3164,3.503906 2.1797,-0.49219 3.26954,-1.660147 3.26954,-3.503906 0,-0.804692 -0.31641,-1.437498 -0.94922,-1.898438 -0.63282,-0.460939 -1.40625,-0.691406 -2.32032,-0.691406 z m 11.31858,-1.441406 h 1.86328 V 40 h -2.07422 V 24.636719 c -0.78906,0.515627 -1.7539,0.957029 -2.89453,1.324218 v -1.957031 c 0.125,-0.05469 0.37891,-0.164061 0.76172,-0.328125 0.38282,-0.164063 0.66992,-0.289062 0.86133,-0.375 0.19141,-0.08594 0.43164,-0.20703 0.7207,-0.363281 0.28907,-0.156251 0.54297,-0.312499 0.76172,-0.46875 z"
         id="981-copy-3"
         inkscape:connector-curvature="0"
         style="fill:#ffffff" />
      <path
         d="m 291.4247,22.46875 -0.16407,1.921875 h -7.16015 c -0.0781,2.273449 -0.13672,4.113274 -0.17578,5.519531 0.88281,-0.562503 1.83984,-0.84375 2.87109,-0.84375 0.86719,0 1.64257,0.138671 2.32617,0.416016 0.6836,0.277345 1.24219,0.658201 1.67578,1.142578 0.4336,0.484377 0.76367,1.048825 0.99024,1.693359 0.22656,0.644535 0.33984,1.341794 0.33984,2.091797 0,1.773447 -0.56835,3.193354 -1.70508,4.259766 -1.13672,1.066411 -2.68163,1.599609 -4.63476,1.599609 -1.96095,0 -3.53125,-0.535151 -4.71094,-1.605469 l 0.76172,-1.652343 c 1.15626,0.906254 2.49608,1.359375 4.01953,1.359375 1.28126,0 2.29296,-0.363278 3.03516,-1.089844 0.74219,-0.726566 1.11328,-1.675775 1.11328,-2.847656 0,-1.046881 -0.3125,-1.896481 -0.9375,-2.548828 -0.62501,-0.652347 -1.51562,-0.978516 -2.67188,-0.978516 -1.15625,0 -2.08593,0.386715 -2.78906,1.160156 l -1.62891,-0.222656 0.45703,-9.375 z"
         id="5-copy-3"
         inkscape:connector-curvature="0"
         style="fill:#ffffff" />
    </g>
    <path
       d="m 275.47217,193.87878 -14.94035,13.47984 2.16233,1.14901 -1.80597,-22.37848 -0.13112,-1.62539 -2.69892,0.31599 0.13123,1.62538 1.80597,22.37848 0.23319,2.88956 1.92914,-1.74054 14.94035,-13.47982 1.08514,-0.97906 -1.62572,-2.61402 z m 5.37985,-42.51623 -14.23171,38.85422 -5.55838,15.17502 -0.54728,1.4941 2.48095,1.31832 0.54727,-1.4941 5.55837,-15.17501 14.23172,-38.85423 0.54727,-1.4941 -2.48094,-1.31832 z"
       id="Line-4-Copy-15"
       inkscape:connector-curvature="0"
       style="fill:#ffffff;fill-rule:nonzero;stroke-width:1.48799014" />
    <path
       d="m 908.64219,193.87878 -14.94033,13.47984 2.16231,1.14901 -1.80597,-22.37848 -0.13124,-1.62539 -2.69893,0.31599 0.13124,1.62538 1.80597,22.37848 0.23319,2.88956 1.92914,-1.74054 14.94034,-13.47982 1.08514,-0.97906 -1.62572,-2.61402 z m 5.37987,-42.51623 -14.23171,38.85422 -5.5584,15.17502 -0.54726,1.4941 2.48094,1.31832 0.54726,-1.4941 5.55839,-15.17501 14.23172,-38.85423 0.54726,-1.4941 -2.48094,-1.31832 z"
       id="Line-4-Copy-18"
       inkscape:connector-curvature="0"
       style="fill:#ffffff;fill-rule:nonzero;stroke-width:1.48799014" />
    <path
       d="m 564.26279,193.87878 -14.94035,13.47984 2.16231,1.14901 -1.80597,-22.37848 -0.13123,-1.62539 -2.69894,0.31599 0.13124,1.62538 1.80598,22.37848 0.23318,2.88956 1.92914,-1.74054 14.94034,-13.47982 1.08514,-0.97906 -1.62572,-2.61402 z m 5.37985,-42.51623 -14.23171,38.85422 -5.5584,15.17502 -0.54726,1.4941 2.48094,1.31832 0.54726,-1.4941 5.55839,-15.17501 14.23172,-38.85423 0.54727,-1.4941 -2.48094,-1.31832 z"
       id="Line-4-Copy-16"
       inkscape:connector-curvature="0"
       style="fill:#ffffff;fill-rule:nonzero;stroke-width:1.48799014" />
    <path
       d="m 485.62496,383.31135 -14.94035,13.47983 2.16233,1.14901 -1.80597,-22.37848 -0.13111,-1.62538 -2.69893,0.31598 0.13124,1.62538 1.80598,22.37848 0.23318,2.88956 1.92913,-1.74054 14.94035,-13.47982 1.08514,-0.97906 -1.62572,-2.61402 z m 5.37985,-42.51623 -14.2317,38.85422 -5.55839,15.17501 -0.54727,1.4941 2.48094,1.31833 0.54727,-1.4941 5.55837,-15.17502 14.23172,-38.85423 0.54728,-1.4941 -2.48095,-1.31831 z"
       id="Line-4-Copy-23"
       inkscape:connector-curvature="0"
       style="fill:#ffffff;fill-rule:nonzero;stroke-width:1.48799014" />
    <path
       d="m 1112.0159,193.87878 -14.9404,13.47984 2.1623,1.14901 -1.8059,-22.37848 -0.1313,-1.62539 -2.6989,0.31599 0.1312,1.62538 1.806,22.37848 0.2332,2.88956 1.9291,-1.74054 14.9404,-13.47982 1.0851,-0.97906 -1.6257,-2.61402 z m 5.3798,-42.51623 -14.2317,38.85422 -5.5584,15.17502 -0.5472,1.4941 2.4809,1.31832 0.5473,-1.4941 5.5584,-15.17501 14.2317,-38.85423 0.5472,-1.4941 -2.4809,-1.31832 z"
       id="Line-4-Copy-19"
       inkscape:connector-curvature="0"
       style="fill:#ffffff;fill-rule:nonzero;stroke-width:1.48799014" />
    <path
       d="m 1057.7829,383.31135 -14.9404,13.47983 2.1624,1.14901 -1.806,-22.37848 -0.1312,-1.62538 -2.699,0.31598 0.1313,1.62538 1.8059,22.37848 0.2332,2.88956 1.9292,-1.74054 14.9403,-13.47982 1.0851,-0.97906 -1.6257,-2.61402 z m 5.3799,-42.51623 -14.2318,38.85422 -5.5584,15.17501 -0.5472,1.4941 2.4809,1.31833 0.5473,-1.4941 5.5584,-15.17502 14.2317,-38.85423 0.5473,-1.4941 -2.481,-1.31831 z"
       id="Line-4-Copy-24"
       inkscape:connector-curvature="0"
       style="fill:#ffffff;fill-rule:nonzero;stroke-width:1.48799014" />
    <path
       d="m 878.81406,572.74391 -14.94034,13.47984 2.16232,1.149 -1.80598,-22.37848 -0.13123,-1.62538 -2.69894,0.31598 0.13125,1.62538 1.80597,22.37848 0.23318,2.88957 1.92915,-1.74054 14.94033,-13.47983 1.08514,-0.97906 -1.62572,-2.61402 z m 5.37986,-42.51623 -14.23172,38.85422 -5.55838,15.17501 -0.54727,1.4941 2.48094,1.31833 0.54727,-1.4941 5.55837,-15.17502 14.23173,-38.85422 0.54727,-1.4941 -2.48094,-1.31832 z"
       id="Line-4-Copy-27"
       inkscape:connector-curvature="0"
       style="fill:#ffffff;fill-rule:nonzero;stroke-width:1.48799014" />
    <path
       d="m 160.93525,186.12915 -1.80597,22.37848 2.16232,-1.14901 -14.94034,-13.47984 -1.08514,-0.97905 -1.62572,2.61402 1.08514,0.97906 14.94034,13.47982 1.92914,1.74054 0.23319,-2.88956 1.80597,-22.37848 0.13124,-1.62538 -2.69893,-0.31599 z m -22.4448,-33.44828 14.23172,38.85423 5.55839,15.17501 0.54726,1.4941 2.48094,-1.31832 -0.54726,-1.4941 -5.5584,-15.17502 -14.23171,-38.85422 -0.54726,-1.4941 -2.48094,1.31832 z"
       id="Line-4-Copy-14"
       inkscape:connector-curvature="0"
       style="fill:#ffffff;fill-rule:nonzero;stroke-width:1.48799014" />
    <path
       d="m 240.9289,375.56171 -1.80599,22.37848 2.16233,-1.14901 -14.94035,-13.47983 -1.08512,-0.97906 -1.62572,2.61402 1.08514,0.97906 14.94033,13.47982 1.92914,1.74054 0.23319,-2.88956 1.80597,-22.37848 0.13124,-1.62538 -2.69893,-0.31598 z m -22.4448,-33.44828 14.23172,38.85423 5.55837,15.17502 0.54728,1.4941 2.48094,-1.31833 -0.54727,-1.4941 -5.55839,-15.17501 -14.23171,-38.85422 -0.54727,-1.4941 -2.48094,1.31831 z"
       id="Line-4-Copy-25"
       inkscape:connector-curvature="0"
       style="fill:#ffffff;fill-rule:nonzero;stroke-width:1.48799014" />
    <path
       d="m 391.42541,564.99427 -1.80597,22.37848 2.16232,-1.149 -14.94035,-13.47984 -1.08513,-0.97906 -1.62571,2.61402 1.08513,0.97906 14.94034,13.47983 1.92914,1.74054 0.23319,-2.88957 1.80597,-22.37848 0.13125,-1.62538 -2.69894,-0.31598 z m -22.4448,-33.44827 14.23172,38.85422 5.55839,15.17502 0.54727,1.4941 2.48094,-1.31833 -0.54727,-1.4941 -5.5584,-15.17501 -14.23171,-38.85422 -0.54726,-1.4941 -2.48094,1.31832 z"
       id="Line-4-Copy-28"
       inkscape:connector-curvature="0"
       style="fill:#ffffff;fill-rule:nonzero;stroke-width:1.48799014" />
    <path
       d="m 794.10527,186.12915 -1.80597,22.37848 2.16233,-1.14901 -14.94035,-13.47984 -1.08513,-0.97905 -1.62571,2.61402 1.08512,0.97906 14.94035,13.47982 1.92914,1.74054 0.23319,-2.88956 1.80597,-22.37848 0.13124,-1.62538 -2.69893,-0.31599 z m -22.44478,-33.44828 14.23172,38.85423 5.55837,15.17501 0.54727,1.4941 2.48095,-1.31832 -0.54727,-1.4941 -5.55839,-15.17502 -14.23171,-38.85422 -0.54727,-1.4941 -2.48094,1.31832 z"
       id="Line-4-Copy-20"
       inkscape:connector-curvature="0"
       style="fill:#ffffff;fill-rule:nonzero;stroke-width:1.48799014" />
    <path
       d="m 889.01299,375.56171 -1.80597,22.37848 2.16233,-1.14901 -14.94035,-13.47983 -1.08514,-0.97906 -1.62572,2.61402 1.08514,0.97906 14.94035,13.47982 1.92914,1.74054 0.23319,-2.88956 1.80597,-22.37848 0.13123,-1.62538 -2.69892,-0.31598 z m -22.44479,-33.44828 14.23172,38.85423 5.55838,15.17502 0.54726,1.4941 2.48094,-1.31833 -0.54725,-1.4941 -5.5584,-15.17501 -14.23171,-38.85422 -0.54726,-1.4941 -2.48094,1.31831 z"
       id="Line-4-Copy-26"
       inkscape:connector-curvature="0"
       style="fill:#ffffff;fill-rule:nonzero;stroke-width:1.48799014" />
    <path
       d="m 449.72587,186.12915 -1.80599,22.37848 2.16233,-1.14901 -14.94035,-13.47984 -1.08512,-0.97905 -1.62572,2.61402 1.08514,0.97906 14.94033,13.47982 1.92915,1.74054 0.23318,-2.88956 1.80597,-22.37848 0.13124,-1.62538 -2.69893,-0.31599 z m -22.4448,-33.44828 14.23172,38.85423 5.55837,15.17501 0.54727,1.4941 2.48095,-1.31832 -0.54727,-1.4941 -5.55839,-15.17502 -14.23171,-38.85422 -0.54727,-1.4941 -2.48094,1.31832 z"
       id="Line-4-Copy-17"
       inkscape:connector-curvature="0"
       style="fill:#ffffff;fill-rule:nonzero;stroke-width:1.48799014" />
    <g
       id="Group-15"
       transform="matrix(1.3558245,0,0,1.6330393,350.56163,606.82316)">
      <rect
         id="Rectangle-Copy-42"
         x="1"
         y="1"
         width="58"
         height="58"
         style="fill:#415c6f;fill-rule:nonzero;stroke:#ffffff;stroke-width:2" />
      <rect
         id="Rectangle-Copy-43"
         x="59"
         y="1"
         width="58"
         height="58"
         style="fill:#415c6f;fill-rule:nonzero;stroke:#ffffff;stroke-width:2" />
      <rect
         id="Rectangle-Copy-44"
         x="117"
         y="1"
         width="58"
         height="58"
         style="fill:#415c6f;fill-rule:nonzero;stroke:#ffffff;stroke-width:2" />
      <rect
         id="Rectangle-Copy-45"
         x="175"
         y="1"
         width="58"
         height="58"
         style="fill:#415c6f;fill-rule:nonzero;stroke:#ffffff;stroke-width:2" />
      <rect
         id="Rectangle-Copy-46"
         x="233"
         y="1"
         width="58"
         height="58"
         style="fill:#415c6f;fill-rule:nonzero;stroke:#ffffff;stroke-width:2" />
      <rect
         id="Rectangle-Copy-47"
         x="291"
         y="1"
         width="58"
         height="58"
         style="fill:#415c6f;fill-rule:nonzero;stroke:#ffffff;stroke-width:2" />
      <rect
         id="Rectangle-Copy-48"
         x="349"
         y="1"
         width="58"
         height="58"
         style="fill:#415c6f;fill-rule:nonzero;stroke:#ffffff;stroke-width:2" />
      <path
         d="m 34.424696,22.46875 -0.164062,1.921875 h -7.160157 c -0.07813,2.273449 -0.136718,4.113274 -0.175781,5.519531 0.882817,-0.562503 1.839839,-0.84375 2.871094,-0.84375 0.867192,0 1.642575,0.138671 2.326172,0.416016 0.683597,0.277345 1.242185,0.658201 1.675781,1.142578 0.433596,0.484377 0.763671,1.048825 0.990234,1.693359 0.226564,0.644535 0.339844,1.341794 0.339844,2.091797 0,1.773447 -0.568354,3.193354 -1.705078,4.259766 -1.136724,1.066411 -2.681631,1.599609 -4.634766,1.599609 -1.960947,0 -3.531244,-0.535151 -4.710937,-1.605469 l 0.761719,-1.652343 c 1.156255,0.906254 2.496086,1.359375 4.019531,1.359375 1.281256,0 2.292965,-0.363278 3.035156,-1.089844 0.742191,-0.726566 1.113281,-1.675775 1.113281,-2.847656 0,-1.046881 -0.312496,-1.896481 -0.9375,-2.548828 -0.625003,-0.652347 -1.515619,-0.978516 -2.671875,-0.978516 -1.156255,0 -2.085934,0.386715 -2.789062,1.160156 l -1.628906,-0.222656 0.457031,-9.375 z"
         id="path80"
         inkscape:connector-curvature="0"
         style="fill:#ffffff" />
      <polygon
         id="polygon82"
         points="93.852431,24.0625 87.582899,40 85.450087,40 91.473524,24.285156 83.563368,24.285156 83.692274,22.46875 93.852431,22.46875 "
         style="fill:#ffffff" />
      <path
         d="m 137.44314,22.46875 h 1.86328 V 40 H 137.2322 V 24.636719 c -0.78906,0.515627 -1.7539,0.957029 -2.89453,1.324218 v -1.957031 c 0.125,-0.05469 0.37891,-0.164061 0.76172,-0.328125 0.38282,-0.164063 0.66992,-0.289062 0.86133,-0.375 0.19141,-0.08594 0.43164,-0.20703 0.7207,-0.363281 0.28907,-0.156251 0.54297,-0.312499 0.76172,-0.46875 z M 143.45312,40 l -0.26953,-1.921875 6.0586,-6.726563 c 0.40625,-0.453127 0.79882,-1.039058 1.17773,-1.757812 0.37891,-0.718754 0.6543,-1.328123 0.82617,-1.828125 l 0.26953,-0.738281 c 0,-0.968755 -0.26952,-1.720701 -0.80859,-2.25586 -0.53906,-0.535159 -1.30468,-0.802734 -2.29687,-0.802734 -1.65626,0 -2.96094,0.480464 -3.91407,1.441406 l -0.67968,-1.757812 c 1.07813,-1.01563 2.65624,-1.523438 4.73437,-1.523438 1.59376,0 2.86328,0.431637 3.80859,1.294922 0.94532,0.863286 1.41797,2.017571 1.41797,3.462891 -0.0312,0.109375 -0.0781,0.255858 -0.14062,0.439453 -0.0625,0.183595 -0.19727,0.541013 -0.4043,1.072265 -0.20703,0.531253 -0.42383,1.035154 -0.65039,1.511719 -0.22656,0.476565 -0.51367,0.999997 -0.86133,1.570313 -0.34766,0.570315 -0.70117,1.046873 -1.06054,1.429687 l -4.94532,5.285156 h 8.1211 L 153.70703,40 Z"
         id="path84"
         inkscape:connector-curvature="0"
         style="fill:#ffffff" />
      <path
         d="m 196.51931,22.46875 h 1.86329 V 40 h -2.07422 V 24.636719 c -0.78907,0.515627 -1.7539,0.957029 -2.89453,1.324218 v -1.957031 c 0.125,-0.05469 0.3789,-0.164061 0.76171,-0.328125 0.38282,-0.164063 0.66992,-0.289062 0.86133,-0.375 0.19141,-0.08594 0.43164,-0.20703 0.72071,-0.363281 0.28906,-0.156251 0.54296,-0.312499 0.76171,-0.46875 z m 10.49827,17.800781 c -1.04688,0 -1.97851,-0.136717 -2.79492,-0.410156 -0.81641,-0.273439 -1.41211,-0.589842 -1.78711,-0.949219 L 203.0918,37.1875 c 1.10156,0.867192 2.41405,1.300781 3.9375,1.300781 1.17188,0 2.10351,-0.291013 2.79492,-0.873047 0.69141,-0.582034 1.03711,-1.396479 1.03711,-2.443359 0,-0.570315 -0.0879,-1.068357 -0.26367,-1.494141 -0.17579,-0.425783 -0.41016,-0.76953 -0.70313,-1.03125 -0.29297,-0.26172 -0.66797,-0.472655 -1.125,-0.632812 -0.45703,-0.160157 -0.92578,-0.273437 -1.40625,-0.339844 -0.48047,-0.06641 -1.03711,-0.107422 -1.66992,-0.123047 -0.0781,0 -0.19531,-0.002 -0.35156,-0.0059 -0.15625,-0.0039 -0.27344,-0.0059 -0.35157,-0.0059 v -1.746093 h 0.58594 c 0.54688,-0.0078 1.0293,-0.03711 1.44727,-0.08789 0.41797,-0.05078 0.83593,-0.142577 1.2539,-0.275391 0.41797,-0.132813 0.76367,-0.308592 1.03711,-0.527343 0.27344,-0.218751 0.4961,-0.511717 0.66797,-0.878907 0.17188,-0.367189 0.25781,-0.800778 0.25781,-1.300781 0,-1.875009 -1.0742,-2.8125 -3.22265,-2.8125 -0.77344,0 -1.5,0.11328 -2.17969,0.339844 -0.67969,0.226564 -1.26172,0.531248 -1.74609,0.914062 l -0.65625,-1.710937 c 1.16406,-0.882817 2.83983,-1.324219 5.02734,-1.324219 0.88282,0 1.69922,0.162108 2.44922,0.486328 0.75,0.324221 1.36718,0.82031 1.85156,1.488282 0.48438,0.667972 0.72656,1.451167 0.72656,2.349609 0,1.093755 -0.26952,1.992184 -0.80859,2.695312 -0.53907,0.703129 -1.29687,1.20703 -2.27344,1.511719 1.09376,0.234376 1.95117,0.74609 2.57227,1.535156 0.6211,0.789067 0.93164,1.789057 0.93164,3 0,1.539071 -0.55078,2.769527 -1.65234,3.691407 -1.10157,0.921879 -2.51562,1.382812 -4.24219,1.382812 z"
         id="path86"
         inkscape:connector-curvature="0"
         style="fill:#ffffff" />
      <path
         d="m 253.87478,32.992187 c -0.99219,0 -1.90429,-0.216794 -2.73633,-0.65039 -0.83203,-0.433596 -1.50195,-1.060543 -2.00976,-1.88086 -0.50782,-0.820316 -0.76172,-1.753901 -0.76172,-2.800781 0,-1.593758 0.54687,-2.914057 1.64063,-3.960937 1.09375,-1.046881 2.52342,-1.570313 4.28906,-1.570313 0.91406,0 1.74413,0.146483 2.49023,0.439453 0.7461,0.292971 1.35938,0.69531 1.83985,1.207032 0.48047,0.511721 0.85156,1.109371 1.11328,1.792968 0.26172,0.683597 0.39258,1.423824 0.39258,2.220703 0,1.117194 -0.19141,2.128902 -0.57422,3.035157 -0.38282,0.906254 -1.04297,1.996087 -1.98047,3.269531 -0.33594,0.445315 -0.89648,1.160151 -1.68164,2.144531 -0.78516,0.98438 -1.48633,1.855465 -2.10352,2.613281 L 252.86697,40 h -2.57812 l 6.22265,-7.710938 c -0.88282,0.468753 -1.76171,0.703125 -2.63672,0.703125 z m 4.04297,-5.425781 c 0,-1.070318 -0.30273,-1.947262 -0.9082,-2.630859 -0.60547,-0.683597 -1.48632,-1.025391 -2.64258,-1.025391 -1.16407,0 -2.08593,0.357419 -2.76562,1.072266 -0.6797,0.714847 -1.01954,1.595698 -1.01954,2.642578 0,1.093755 0.32813,1.968747 0.98438,2.625 0.65625,0.656253 1.5664,0.984375 2.73047,0.984375 1.23438,0 2.14648,-0.33984 2.73633,-1.019531 0.58984,-0.679691 0.88476,-1.562495 0.88476,-2.648438 z m 10.94358,12.703125 c -1.06251,0 -2.02148,-0.177732 -2.87696,-0.533203 -0.85547,-0.35547 -1.54882,-0.900387 -2.08007,-1.634766 -0.53126,-0.734378 -0.79688,-1.605463 -0.79688,-2.613281 0,-1.117193 0.32031,-2.089839 0.96094,-2.917969 0.64063,-0.828129 1.53515,-1.429685 2.68359,-1.804687 -2.18751,-0.773441 -3.28125,-2.179677 -3.28125,-4.21875 0,-1.382819 0.5,-2.46484 1.5,-3.246094 1.00001,-0.781254 2.29687,-1.171875 3.89063,-1.171875 1.58594,0 2.87109,0.390621 3.85547,1.171875 0.98438,0.781254 1.47656,1.863275 1.47656,3.246094 0,1.031255 -0.26562,1.898434 -0.79688,2.601562 -0.53125,0.703129 -1.27343,1.242186 -2.22656,1.617188 1.05469,0.375002 1.88281,0.976558 2.48438,1.804687 0.60156,0.82813 0.90234,1.800776 0.90234,2.917969 0,1.500008 -0.54101,2.671871 -1.62305,3.515625 -1.08203,0.843755 -2.43944,1.265625 -4.07226,1.265625 z m 0,-8.507812 c -1.11719,0.257813 -2.01172,0.68945 -2.6836,1.294922 -0.67187,0.605471 -1.00781,1.369136 -1.00781,2.291015 0,0.960943 0.34766,1.724607 1.04297,2.291016 0.69532,0.566409 1.57812,0.849609 2.64844,0.849609 1.07032,0 1.94335,-0.2832 2.61914,-0.849609 0.67578,-0.566409 1.01367,-1.330073 1.01367,-2.291016 0,-0.929692 -0.32812,-1.697262 -0.98437,-2.302734 -0.65626,-0.605472 -1.53906,-1.033202 -2.64844,-1.283203 z m 0,-7.851563 c -0.92188,0 -1.70508,0.230467 -2.34961,0.691406 -0.64454,0.46094 -0.9668,1.093746 -0.9668,1.898438 0,1.843759 1.10546,3.011716 3.31641,3.503906 2.1797,-0.49219 3.26953,-1.660147 3.26953,-3.503906 0,-0.804692 -0.3164,-1.437498 -0.94922,-1.898438 -0.63281,-0.460939 -1.40625,-0.691406 -2.32031,-0.691406 z"
         id="path88"
         inkscape:connector-curvature="0"
         style="fill:#ffffff" />
      <path
         d="m 301.19206,40 -0.26953,-1.921875 6.05859,-6.726563 c 0.40625,-0.453127 0.79883,-1.039058 1.17773,-1.757812 0.37891,-0.718754 0.6543,-1.328123 0.82618,-1.828125 l 0.26953,-0.738281 c 0,-0.968755 -0.26953,-1.720701 -0.8086,-2.25586 -0.53906,-0.535159 -1.30468,-0.802734 -2.29687,-0.802734 -1.65626,0 -2.96093,0.480464 -3.91406,1.441406 l -0.67969,-1.757812 c 1.07813,-1.01563 2.65624,-1.523438 4.73437,-1.523438 1.59376,0 2.86328,0.431637 3.8086,1.294922 0.94532,0.863286 1.41797,2.017571 1.41797,3.462891 -0.0312,0.109375 -0.0781,0.255858 -0.14063,0.439453 -0.0625,0.183595 -0.19726,0.541013 -0.4043,1.072265 -0.20703,0.531253 -0.42382,1.035154 -0.65039,1.511719 -0.22656,0.476565 -0.51367,0.999997 -0.86132,1.570313 -0.34766,0.570315 -0.70118,1.046873 -1.06055,1.429687 l -4.94531,5.285156 h 8.12109 L 311.44596,40 Z m 15.70139,0 6.02343,-15.714844 h -7.91015 l 0.1289,-1.816406 h 10.16016 V 24.0625 L 319.02626,40 Z m 23.30685,-4.347656 h -1.99218 V 40 h -1.96875 v -4.347656 h -7.92188 v -1.792969 l 7.69922,-11.390625 h 2.19141 v 11.484375 h 2.15625 z m -3.96093,-10.523438 -5.85938,8.824219 h 5.85938 z"
         id="path90"
         inkscape:connector-curvature="0"
         style="fill:#ffffff" />
      <path
         d="m 366.76237,32.992187 c -0.99219,0 -1.90429,-0.216794 -2.73633,-0.65039 -0.83203,-0.433596 -1.50195,-1.060543 -2.00976,-1.88086 -0.50782,-0.820316 -0.76172,-1.753901 -0.76172,-2.800781 0,-1.593758 0.54687,-2.914057 1.64062,-3.960937 1.09376,-1.046881 2.52343,-1.570313 4.28906,-1.570313 0.91407,0 1.74414,0.146483 2.49024,0.439453 0.7461,0.292971 1.35937,0.69531 1.83984,1.207032 0.48047,0.511721 0.85156,1.109371 1.11328,1.792968 0.26172,0.683597 0.39258,1.423824 0.39258,2.220703 0,1.117194 -0.1914,2.128902 -0.57422,3.035157 -0.38281,0.906254 -1.04296,1.996087 -1.98047,3.269531 -0.33593,0.445315 -0.89648,1.160151 -1.68164,2.144531 -0.78516,0.98438 -1.48632,1.855465 -2.10351,2.613281 L 365.75456,40 h -2.57813 l 6.22266,-7.710938 c -0.88282,0.468753 -1.76172,0.703125 -2.63672,0.703125 z m 4.04297,-5.425781 c 0,-1.070318 -0.30273,-1.947262 -0.9082,-2.630859 -0.60548,-0.683597 -1.48633,-1.025391 -2.64258,-1.025391 -1.16407,0 -2.08594,0.357419 -2.76563,1.072266 -0.67969,0.714847 -1.01953,1.595698 -1.01953,2.642578 0,1.093755 0.32812,1.968747 0.98438,2.625 0.65625,0.656253 1.5664,0.984375 2.73046,0.984375 1.23439,0 2.14649,-0.33984 2.73633,-1.019531 0.58985,-0.679691 0.88477,-1.562495 0.88477,-2.648438 z m 10.94357,12.703125 c -1.0625,0 -2.02147,-0.177732 -2.87695,-0.533203 -0.85547,-0.35547 -1.54882,-0.900387 -2.08008,-1.634766 -0.53125,-0.734378 -0.79687,-1.605463 -0.79687,-2.613281 0,-1.117193 0.32031,-2.089839 0.96094,-2.917969 0.64062,-0.828129 1.53515,-1.429685 2.68359,-1.804687 -2.18751,-0.773441 -3.28125,-2.179677 -3.28125,-4.21875 0,-1.382819 0.5,-2.46484 1.5,-3.246094 1,-0.781254 2.29687,-1.171875 3.89062,-1.171875 1.58595,0 2.87109,0.390621 3.85547,1.171875 0.98438,0.781254 1.47657,1.863275 1.47657,3.246094 0,1.031255 -0.26563,1.898434 -0.79688,2.601562 -0.53125,0.703129 -1.27343,1.242186 -2.22656,1.617188 1.05469,0.375002 1.88281,0.976558 2.48437,1.804687 0.60157,0.82813 0.90235,1.800776 0.90235,2.917969 0,1.500008 -0.54101,2.671871 -1.62305,3.515625 -1.08204,0.843755 -2.43944,1.265625 -4.07227,1.265625 z m 0,-8.507812 c -1.11719,0.257813 -2.01171,0.68945 -2.68359,1.294922 -0.67188,0.605471 -1.00781,1.369136 -1.00781,2.291015 0,0.960943 0.34765,1.724607 1.04297,2.291016 0.69531,0.566409 1.57812,0.849609 2.64843,0.849609 1.07032,0 1.94336,-0.2832 2.61915,-0.849609 0.67578,-0.566409 1.01367,-1.330073 1.01367,-2.291016 0,-0.929692 -0.32812,-1.697262 -0.98438,-2.302734 -0.65625,-0.605472 -1.53905,-1.033202 -2.64844,-1.283203 z m 0,-7.851563 c -0.92187,0 -1.70507,0.230467 -2.3496,0.691406 -0.64454,0.46094 -0.9668,1.093746 -0.9668,1.898438 0,1.843759 1.10546,3.011716 3.3164,3.503906 2.1797,-0.49219 3.26954,-1.660147 3.26954,-3.503906 0,-0.804692 -0.31641,-1.437498 -0.94922,-1.898438 -0.63282,-0.460939 -1.40625,-0.691406 -2.32032,-0.691406 z m 11.31858,-1.441406 h 1.86328 V 40 h -2.07422 V 24.636719 c -0.78906,0.515627 -1.7539,0.957029 -2.89453,1.324218 v -1.957031 c 0.125,-0.05469 0.37891,-0.164061 0.76172,-0.328125 0.38282,-0.164063 0.66992,-0.289062 0.86133,-0.375 0.19141,-0.08594 0.43164,-0.20703 0.7207,-0.363281 0.28907,-0.156251 0.54297,-0.312499 0.76172,-0.46875 z"
         id="path92"
         inkscape:connector-curvature="0"
         style="fill:#ffffff" />
    </g>
  </g>
</svg>
