<?xml version="1.0" encoding="UTF-8"?>
<svg width="1214px" height="784px" viewBox="0 0 1214 784" version="1.1" xmlns="http://www.w3.org/2000/svg" xmlns:xlink="http://www.w3.org/1999/xlink">
    <!-- Generator: Sketch 50 (54983) - http://www.bohemiancoding.com/sketch -->
    <title>optimal</title>
    <desc>Created with Sketch.</desc>
    <defs></defs>
    <g id="optimal" stroke="none" stroke-width="1" fill="none" fill-rule="evenodd">
        <rect id="Rectangle-3" stroke="#000000" stroke-width="4" x="219" y="158" width="778" height="460"></rect>
        <path d="M198,597 L218,597" id="Line" stroke="#000000" stroke-width="3" stroke-linecap="square"></path>
        <path d="M198,528 L218,528" id="Line-Copy" stroke="#000000" stroke-width="3" stroke-linecap="square"></path>
        <path d="M198,457 L218,457" id="Line-Copy-2" stroke="#000000" stroke-width="3" stroke-linecap="square"></path>
        <path d="M198,386 L218,386" id="Line-Copy-3" stroke="#000000" stroke-width="3" stroke-linecap="square"></path>
        <path d="M198,315 L218,315" id="Line-Copy-4" stroke="#000000" stroke-width="3" stroke-linecap="square"></path>
        <path d="M198,244 L218,244" id="Line-Copy-5" stroke="#000000" stroke-width="3" stroke-linecap="square"></path>
        <path d="M198,173 L218,173" id="Line-Copy-6" stroke="#000000" stroke-width="3" stroke-linecap="square"></path>
        <path d="M931.5,629 L951.5,629" id="Line-Copy-7" stroke="#000000" stroke-width="3" stroke-linecap="square" transform="translate(941.500000, 629.500000) rotate(-90.000000) translate(-941.500000, -629.500000) "></path>
        <path d="M820.5,629 L840.5,629" id="Line-Copy-8" stroke="#000000" stroke-width="3" stroke-linecap="square" transform="translate(830.500000, 629.500000) rotate(-90.000000) translate(-830.500000, -629.500000) "></path>
        <path d="M709.5,629 L729.5,629" id="Line-Copy-9" stroke="#000000" stroke-width="3" stroke-linecap="square" transform="translate(719.500000, 629.500000) rotate(-90.000000) translate(-719.500000, -629.500000) "></path>
        <path d="M598.5,629 L618.5,629" id="Line-Copy-10" stroke="#000000" stroke-width="3" stroke-linecap="square" transform="translate(608.500000, 629.500000) rotate(-90.000000) translate(-608.500000, -629.500000) "></path>
        <path d="M487.5,629 L507.5,629" id="Line-Copy-11" stroke="#000000" stroke-width="3" stroke-linecap="square" transform="translate(497.500000, 629.500000) rotate(-90.000000) translate(-497.500000, -629.500000) "></path>
        <path d="M375.5,629 L395.5,629" id="Line-Copy-12" stroke="#000000" stroke-width="3" stroke-linecap="square" transform="translate(385.500000, 629.500000) rotate(-90.000000) translate(-385.500000, -629.500000) "></path>
        <path d="M265,629 L285,629" id="Line-Copy-13" stroke="#000000" stroke-width="3" stroke-linecap="square" transform="translate(275.000000, 629.500000) rotate(-90.000000) translate(-275.000000, -629.500000) "></path>
        <path d="M344.087402,77.8984375 C346.999526,77.8984375 349.197258,76.9516696 350.680664,75.0581055 C352.16407,73.1645413 352.905762,70.4882985 352.905762,67.0292969 C352.905762,63.5292794 352.16407,60.8154393 350.680664,58.8876953 C349.197258,56.9599513 347.006362,55.9960938 344.10791,55.9960938 C341.195786,55.9960938 338.991218,56.9633692 337.494141,58.8979492 C335.997063,60.8325292 335.248535,63.5429513 335.248535,67.0292969 C335.248535,70.4746266 335.993645,73.1474514 337.483887,75.0478516 C338.974129,76.9482517 341.175278,77.8984375 344.087402,77.8984375 Z M344.066895,82.4306641 C339.541481,82.4306641 335.96974,81.0600723 333.351562,78.3188477 C330.733385,75.577623 329.424316,71.7939694 329.424316,66.9677734 C329.424316,62.1142335 330.736803,58.327162 333.361816,55.6064453 C335.98683,52.8857286 339.561989,51.5253906 344.087402,51.5253906 C348.612816,51.5253906 352.181139,52.8891465 354.79248,55.6166992 C357.403822,58.3442519 358.709473,62.1347414 358.709473,66.9882812 C358.709473,71.7871334 357.396986,75.5605331 354.771973,78.3085938 C352.14696,81.0566544 348.578636,82.4306641 344.066895,82.4306641 Z M363.467285,91.3720703 L363.467285,59.4619141 L368.081543,59.4619141 L368.655762,62.6201172 C369.394047,61.4306581 370.374994,60.5112337 371.598633,59.8618164 C372.822272,59.2123991 374.186028,58.8876953 375.689941,58.8876953 C377.535654,58.8876953 379.159173,59.4003855 380.560547,60.4257812 C381.961921,61.451177 383.024899,62.8491122 383.749512,64.6196289 C384.474125,66.3901456 384.836426,68.3896373 384.836426,70.6181641 C384.836426,74.1045096 383.992196,76.9448132 382.303711,79.1391602 C380.615226,81.3335071 378.328628,82.4306641 375.443848,82.4306641 C374.021966,82.4306641 372.733404,82.1469755 371.578125,81.5795898 C370.422846,81.0122042 369.45557,80.2431689 368.67627,79.2724609 C368.785645,81.2412208 368.840332,82.3486316 368.840332,82.5947266 L368.840332,91.1054688 L363.467285,91.3720703 Z M374.29541,78.3291016 C375.895028,78.3291016 377.156245,77.6591864 378.079102,76.3193359 C379.001958,74.9794855 379.463379,73.0654421 379.463379,70.5771484 C379.463379,68.0478389 378.99854,66.1474673 378.068848,64.8759766 C377.139156,63.6044858 375.847176,62.96875 374.192871,62.96875 C370.638166,62.96875 368.840332,65.3886477 368.799316,70.2285156 C368.799316,73.0175921 369.260738,75.0649349 370.183594,76.3706055 C371.10645,77.6762761 372.477042,78.3291016 374.29541,78.3291016 Z M398.228027,82.3076172 C396.69677,82.3076172 395.42188,82.1264667 394.40332,81.7641602 C393.384761,81.4018537 392.588382,80.8310586 392.01416,80.0517578 C391.439939,79.272457 391.033204,78.3530326 390.793945,77.293457 C390.554686,76.2338814 390.435059,74.9248125 390.435059,73.3662109 L390.435059,62.7226562 L386.743652,62.7226562 L386.94873,59.8105469 L390.804199,59.4619141 L392.526855,53.3505859 L395.808105,53.3300781 L395.808105,59.4619141 L401.406738,59.4619141 L401.406738,62.7226562 L395.808105,62.7226562 L395.808105,73.46875 C395.808105,75.1777429 396.054197,76.3945276 396.546387,77.1191406 C397.038577,77.8437536 397.947747,78.2060547 399.273926,78.2060547 C400.053227,78.2060547 400.887203,78.137696 401.775879,78.0009766 L401.919434,81.8564453 C401.89209,81.8564453 401.724611,81.8872067 401.416992,81.9487305 C401.109373,82.0102542 400.815431,82.0649412 400.535156,82.112793 C400.254881,82.1606448 399.895998,82.2050779 399.458496,82.2460938 C399.020994,82.2871096 398.610842,82.3076172 398.228027,82.3076172 Z M405.815918,82 L405.815918,59.4619141 L411.188965,59.4619141 L411.188965,82 L405.815918,82 Z M405.815918,56.1806641 L405.815918,51.5869141 L411.209473,51.5869141 L411.209473,56.1806641 L405.815918,56.1806641 Z M416.787598,82 L416.787598,59.4619141 L421.135254,59.4619141 L421.750488,62.3330078 C422.023927,61.9912092 422.287108,61.6870131 422.540039,61.4204102 C422.79297,61.1538073 423.141599,60.853029 423.585938,60.5180664 C424.030276,60.1831038 424.501951,59.9062511 425.000977,59.6875 C425.500002,59.4687489 426.115231,59.2841804 426.84668,59.1337891 C427.578129,58.9833977 428.360836,58.9082031 429.194824,58.9082031 C430.985849,58.9082031 432.417963,59.2705042 433.491211,59.9951172 C434.564458,60.7197302 435.319822,61.567378 435.757324,62.5380859 C436.563969,61.3759708 437.609857,60.4804719 438.89502,59.8515625 C440.180182,59.2226531 441.608879,58.9082031 443.181152,58.9082031 C445.76515,58.9082031 447.662103,59.6396411 448.87207,61.1025391 C450.082037,62.565437 450.687012,64.7324075 450.687012,67.6035156 L450.687012,82 L445.293457,82 L445.293457,69.203125 C445.293457,67.0019421 445.050784,65.4126025 444.56543,64.4350586 C444.080076,63.4575146 443.153815,62.96875 441.786621,62.96875 C439.694814,62.96875 438.190923,63.9120999 437.274902,65.7988281 C436.892088,66.6328167 436.632325,67.6376894 436.495605,68.8134766 L436.495605,82 L431.122559,82 L431.122559,68.9570312 C431.122559,66.9472556 430.85596,65.4502002 430.322754,64.4658203 C429.789548,63.4814404 428.825691,62.9892578 427.431152,62.9892578 C426.296381,62.9892578 425.318852,63.2763643 424.498535,63.8505859 C423.678219,64.4248076 423.056154,65.1767532 422.632324,66.1064453 C422.31787,67.4873116 422.160645,69.1415919 422.160645,71.0693359 L422.160645,82 L416.787598,82 Z M461.925293,82.4306641 C459.833486,82.4306641 458.141608,81.8530331 456.849609,80.6977539 C455.557611,79.5424747 454.911621,77.8779406 454.911621,75.7041016 C454.911621,73.3661992 455.677238,71.6333064 457.208496,70.5053711 C458.739754,69.3774358 461.050278,68.6630874 464.140137,68.3623047 C464.563967,68.3076169 465.02197,68.25293 465.51416,68.1982422 C466.00635,68.1435544 466.560056,68.0888675 467.175293,68.0341797 C467.79053,67.9794919 468.275877,67.9316408 468.631348,67.890625 L468.631348,66.7011719 C468.631348,65.3339775 468.316898,64.3393586 467.687988,63.7172852 C467.059079,63.0952117 466.102057,62.7841797 464.816895,62.7841797 C462.984854,62.7841797 460.722181,63.2968699 458.028809,64.3222656 C458.015137,64.2812498 457.789553,63.6591857 457.352051,62.4560547 C456.914549,61.2529237 456.688965,60.6376954 456.675293,60.6103516 C459.32765,59.4755803 462.198715,58.9082031 465.288574,58.9082031 C468.323746,58.9082031 470.531731,59.5678645 471.912598,60.887207 C473.293464,62.2065496 473.983887,64.3427587 473.983887,67.2958984 L473.983887,82 L470.005371,82 C469.991699,81.9453122 469.84131,81.487309 469.554199,80.6259766 C469.267088,79.7646441 469.123535,79.3066409 469.123535,79.2519531 C468.002436,80.3457086 466.905279,81.1489232 465.832031,81.6616211 C464.758784,82.174319 463.456551,82.4306641 461.925293,82.4306641 Z M463.381348,78.6162109 C464.625495,78.6162109 465.70898,78.3188506 466.631836,77.7241211 C467.554692,77.1293916 468.214353,76.4082074 468.61084,75.5605469 L468.61084,71.2128906 C468.569824,71.2128906 468.210941,71.2402341 467.53418,71.2949219 C466.857418,71.3496096 466.491699,71.3769531 466.437012,71.3769531 C464.263173,71.5683603 462.670415,71.9785125 461.658691,72.6074219 C460.646968,73.2363313 460.141113,74.2480399 460.141113,75.6425781 C460.141113,76.5996142 460.421384,77.3344701 460.981934,77.847168 C461.542483,78.3598658 462.34228,78.6162109 463.381348,78.6162109 Z M487.293457,82.3076172 C485.748527,82.3076172 484.466802,82.1264667 483.448242,81.7641602 C482.429682,81.4018537 481.626468,80.8242227 481.038574,80.03125 C480.450681,79.2382773 480.040529,78.2949273 479.808105,77.2011719 C479.575682,76.1074164 479.459473,74.7470784 479.459473,73.1201172 L479.459473,51.15625 L484.83252,50.8076172 L484.83252,73.0175781 C484.83252,75.0410257 485.071775,76.4116175 485.550293,77.1293945 C486.028811,77.8471716 486.958489,78.2060547 488.339355,78.2060547 C489.022953,78.2060547 489.891108,78.1308601 490.943848,77.9804688 L491.087402,81.8154297 C491.07373,81.8154297 490.906252,81.849609 490.584961,81.9179688 C490.26367,81.9863285 489.956056,82.0444334 489.662109,82.0922852 C489.368163,82.140137 488.995608,82.187988 488.544434,82.2358398 C488.093259,82.2836916 487.676271,82.3076172 487.293457,82.3076172 Z M505.36084,82 L505.36084,51.9560547 L511.26709,51.9560547 C512.333501,53.6240318 514.500472,56.9872794 517.768066,62.0458984 C521.035661,67.1045175 523.024899,70.1806586 523.73584,71.2744141 C523.940919,71.5888688 524.292966,72.1186486 524.791992,72.8637695 C525.291018,73.6088904 525.643065,74.1386703 525.848145,74.453125 C525.752441,69.7636484 525.70459,67.330079 525.70459,67.1523438 L525.70459,51.9560547 L530.77002,51.9560547 L530.77002,82 L524.781738,82 L511.226074,60.8769531 L510.241699,59.2568359 C510.351075,62.866229 510.405762,65.4023364 510.405762,66.8652344 L510.405762,82 L505.36084,82 Z M545.904785,82.4306641 C542.978989,82.4306641 540.624032,81.6992261 538.839844,80.2363281 C537.055655,78.7734302 536.163574,76.6269673 536.163574,73.796875 L536.163574,59.4619141 L541.557129,59.4619141 L541.557129,73.5917969 C541.557129,75.2734459 541.909176,76.4902306 542.613281,77.2421875 C543.317386,77.9941444 544.435051,78.3701172 545.966309,78.3701172 C547.470222,78.3701172 548.567379,77.9975623 549.257812,77.2524414 C549.948246,76.5073205 550.293457,75.2871179 550.293457,73.5917969 L550.293457,59.4619141 L555.666504,59.4619141 L555.666504,73.796875 C555.666504,76.6132953 554.771005,78.7563403 552.97998,80.2260742 C551.188956,81.6958081 548.830581,82.4306641 545.904785,82.4306641 Z M560.567871,82 L560.567871,59.4619141 L564.915527,59.4619141 L565.530762,62.3330078 C565.804201,61.9912092 566.067382,61.6870131 566.320312,61.4204102 C566.573243,61.1538073 566.921873,60.853029 567.366211,60.5180664 C567.810549,60.1831038 568.282224,59.9062511 568.78125,59.6875 C569.280276,59.4687489 569.895504,59.2841804 570.626953,59.1337891 C571.358402,58.9833977 572.141109,58.9082031 572.975098,58.9082031 C574.766122,58.9082031 576.198237,59.2705042 577.271484,59.9951172 C578.344732,60.7197302 579.100095,61.567378 579.537598,62.5380859 C580.344242,61.3759708 581.39013,60.4804719 582.675293,59.8515625 C583.960456,59.2226531 585.389152,58.9082031 586.961426,58.9082031 C589.545423,58.9082031 591.442377,59.6396411 592.652344,61.1025391 C593.862311,62.565437 594.467285,64.7324075 594.467285,67.6035156 L594.467285,82 L589.07373,82 L589.07373,69.203125 C589.07373,67.0019421 588.831057,65.4126025 588.345703,64.4350586 C587.860349,63.4575146 586.934089,62.96875 585.566895,62.96875 C583.475087,62.96875 581.971196,63.9120999 581.055176,65.7988281 C580.672361,66.6328167 580.412598,67.6376894 580.275879,68.8134766 L580.275879,82 L574.902832,82 L574.902832,68.9570312 C574.902832,66.9472556 574.636233,65.4502002 574.103027,64.4658203 C573.569822,63.4814404 572.605964,62.9892578 571.211426,62.9892578 C570.076654,62.9892578 569.099125,63.2763643 568.278809,63.8505859 C567.458492,64.4248076 566.836428,65.1767532 566.412598,66.1064453 C566.098143,67.4873116 565.940918,69.1415919 565.940918,71.0693359 L565.940918,82 L560.567871,82 Z M611.837402,82.4306641 C610.306145,82.4306641 608.915045,82.0922885 607.664062,81.4155273 C606.41308,80.7387661 605.507327,79.9697309 604.946777,79.1083984 L604.413574,81.9794922 L599.758301,81.9794922 L599.758301,51.15625 L605.131348,50.8076172 L605.131348,57.7802734 C605.131348,59.1337958 605.090332,60.6718664 605.008301,62.3945312 C606.785653,60.0703009 609.103013,58.9082031 611.960449,58.9082031 C614.831557,58.9082031 617.083976,59.9745987 618.717773,62.1074219 C620.351571,64.240245 621.168457,67.0292796 621.168457,70.4746094 C621.168457,74.0566585 620.324227,76.9448132 618.635742,79.1391602 C616.947257,81.3335071 614.681167,82.4306641 611.837402,82.4306641 Z M610.54541,78.3496094 C612.145028,78.3496094 613.423335,77.6728583 614.380371,76.3193359 C615.337407,74.9658135 615.815918,73.0449343 615.815918,70.5566406 C615.815918,68.054675 615.347661,66.1611392 614.411133,64.8759766 C613.474605,63.5908139 612.206551,62.9482422 610.606934,62.9482422 C606.970197,62.9482422 605.131348,65.4023192 605.090332,70.3105469 C605.090332,73.0722794 605.548335,75.1025326 606.464355,76.4013672 C607.380376,77.7002018 608.740714,78.3496094 610.54541,78.3496094 Z M635.975098,82.4306641 C632.352033,82.4306641 629.532237,81.388194 627.515625,79.3032227 C625.499013,77.2182513 624.490723,74.3369325 624.490723,70.6591797 C624.490723,67.0771305 625.440908,64.2265731 627.341309,62.1074219 C629.241709,59.9882707 631.832503,58.9218751 635.11377,58.9082031 C638.217301,58.9082031 640.626945,59.8788965 642.342773,61.8203125 C644.058602,63.7617285 644.916504,66.3388511 644.916504,69.5517578 C644.916504,69.7841808 644.913086,70.1601537 644.90625,70.6796875 C644.899414,71.1992213 644.895996,71.58203 644.895996,71.828125 L629.904785,71.828125 C629.959473,73.9336043 630.537104,75.5639591 631.637695,76.7192383 C632.738287,77.8745175 634.252432,78.4521484 636.180176,78.4521484 C638.641126,78.4521484 641.006336,77.8095767 643.275879,76.5244141 L644.034668,80.3388672 C641.778797,81.7334054 639.092301,82.4306641 635.975098,82.4306641 Z M630.007324,68.4443359 L639.851074,68.4443359 C639.851074,66.6122955 639.434086,65.2041065 638.600098,64.2197266 C637.766109,63.2353466 636.610847,62.7431641 635.134277,62.7431641 C633.753411,62.7431641 632.587895,63.2216749 631.637695,64.1787109 C630.687495,65.135747 630.144044,66.5576078 630.007324,68.4443359 Z M649.305176,82 L649.305176,59.4619141 L653.816895,59.4619141 L654.51416,62.9072266 C655.99073,60.5419804 658.130357,59.359375 660.933105,59.359375 C661.520999,59.359375 661.99951,59.3867185 662.368652,59.4414062 L662.286621,63.9326172 C661.739743,63.8505855 661.172366,63.8095703 660.584473,63.8095703 C658.602041,63.8095703 657.122075,64.3359322 656.144531,65.3886719 C655.166987,66.4414115 654.678223,67.9042875 654.678223,69.7773438 L654.678223,82 L649.305176,82 Z M686.567871,78.3496094 C688.38624,78.3496094 689.753413,77.6865301 690.669434,76.3603516 C691.585454,75.0341731 692.043457,73.1338014 692.043457,70.6591797 C692.043457,68.1572141 691.585454,66.2500066 690.669434,64.9375 C689.753413,63.6249934 688.372568,62.96875 686.526855,62.96875 C684.708487,62.96875 683.337895,63.6284114 682.415039,64.9477539 C681.492183,66.2670964 681.030762,68.1777219 681.030762,70.6796875 C681.030762,73.1406373 681.495601,75.0341731 682.425293,76.3603516 C683.354985,77.6865301 684.735831,78.3496094 686.567871,78.3496094 Z M686.424316,82.4306641 C683.088362,82.4306641 680.463388,81.3505967 678.549316,79.1904297 C676.635244,77.0302626 675.678223,74.1865411 675.678223,70.6591797 C675.678223,67.0224428 676.635244,64.1547956 678.549316,62.0561523 C680.463388,59.957509 683.163557,58.9082031 686.649902,58.9082031 C690.0132,58.9082031 692.648428,59.9780166 694.555664,62.1176758 C696.4629,64.2573349 697.416504,67.1044744 697.416504,70.6591797 C697.416504,74.2549008 696.452646,77.115712 694.524902,79.2416992 C692.597158,81.3676864 689.89699,82.4306641 686.424316,82.4306641 Z M703.240723,82 L703.240723,63.0302734 L699.672363,63.0302734 L700.020996,59.8720703 L703.240723,59.4619141 L703.240723,58.2109375 C703.240723,56.8437432 703.367186,55.6748095 703.620117,54.7041016 C703.873048,53.7333936 704.286618,52.9028355 704.86084,52.2124023 C705.435061,51.5219692 706.204097,51.009279 707.167969,50.6743164 C708.131841,50.3393538 709.317864,50.171875 710.726074,50.171875 C712.093269,50.171875 713.487786,50.3017565 714.909668,50.5615234 L714.437988,54.5605469 C713.316889,54.4101555 712.435062,54.3349609 711.79248,54.3349609 C710.644037,54.3349609 709.827151,54.6118136 709.341797,55.1655273 C708.856443,55.719241 708.61377,56.6386654 708.61377,57.9238281 L708.61377,59.4619141 L713.904785,59.4619141 L713.904785,63.0302734 L708.61377,63.0302734 L708.61377,82 L703.240723,82 Z M742.103027,82.4306641 C737.714334,82.4306641 734.234876,81.0498185 731.664551,78.2880859 C729.094225,75.5263534 727.809082,71.7119384 727.809082,66.8447266 C727.809082,62.2236097 729.15233,58.5151507 731.838867,55.7192383 C734.525404,52.9233259 738.042459,51.5253906 742.390137,51.5253906 C745.903826,51.5253906 748.877429,52.3388591 751.311035,53.9658203 L749.567871,58.1699219 C747.229969,56.7343678 744.87843,56.0166016 742.513184,56.0166016 C739.751451,56.0166016 737.567391,57.0112205 735.960938,59.0004883 C734.354484,60.989756 733.55127,63.6591629 733.55127,67.0087891 C733.55127,70.4814627 734.327141,73.1679592 735.878906,75.0683594 C737.430672,76.9687595 739.642075,77.9189453 742.513184,77.9189453 C745.028821,77.9189453 747.523913,77.2900454 749.998535,76.0322266 L750.736816,80.3798828 C748.43993,81.7470771 745.562029,82.4306641 742.103027,82.4306641 Z M763.062012,82.3076172 C761.517082,82.3076172 760.235357,82.1264667 759.216797,81.7641602 C758.198237,81.4018537 757.395022,80.8242227 756.807129,80.03125 C756.219235,79.2382773 755.809083,78.2949273 755.57666,77.2011719 C755.344237,76.1074164 755.228027,74.7470784 755.228027,73.1201172 L755.228027,51.15625 L760.601074,50.8076172 L760.601074,73.0175781 C760.601074,75.0410257 760.84033,76.4116175 761.318848,77.1293945 C761.797366,77.8471716 762.727044,78.2060547 764.10791,78.2060547 C764.791507,78.2060547 765.659663,78.1308601 766.712402,77.9804688 L766.855957,81.8154297 C766.842285,81.8154297 766.674806,81.849609 766.353516,81.9179688 C766.032225,81.9863285 765.724611,82.0444334 765.430664,82.0922852 C765.136717,82.140137 764.764162,82.187988 764.312988,82.2358398 C763.861814,82.2836916 763.444826,82.3076172 763.062012,82.3076172 Z M778.709473,82.4306641 C775.783677,82.4306641 773.42872,81.6992261 771.644531,80.2363281 C769.860343,78.7734302 768.968262,76.6269673 768.968262,73.796875 L768.968262,59.4619141 L774.361816,59.4619141 L774.361816,73.5917969 C774.361816,75.2734459 774.713864,76.4902306 775.417969,77.2421875 C776.122074,77.9941444 777.239738,78.3701172 778.770996,78.3701172 C780.27491,78.3701172 781.372067,77.9975623 782.0625,77.2524414 C782.752933,76.5073205 783.098145,75.2871179 783.098145,73.5917969 L783.098145,59.4619141 L788.471191,59.4619141 L788.471191,73.796875 C788.471191,76.6132953 787.575693,78.7563403 785.784668,80.2260742 C783.993643,81.6958081 781.635269,82.4306641 778.709473,82.4306641 Z M800.570801,82.4101562 C797.248519,82.4101562 794.589365,81.8427791 792.593262,80.7080078 L793.146973,76.6679688 C794.049321,77.1601587 795.197747,77.6010723 796.592285,77.9907227 C797.986823,78.380373 799.258295,78.5751953 800.406738,78.5751953 C801.596197,78.5751953 802.522458,78.3530296 803.185547,77.9086914 C803.848636,77.4643532 804.187012,76.8115277 804.200684,75.9501953 C804.200684,75.1708945 803.889652,74.5556663 803.267578,74.1044922 C802.645505,73.6533181 801.459481,73.0927768 799.709473,72.4228516 C799.107907,72.2041005 798.718263,72.0605472 798.540527,71.9921875 C796.462392,71.1855428 794.965337,70.286626 794.049316,69.2954102 C793.133296,68.3041943 792.675293,66.960946 792.675293,65.265625 C792.675293,63.2148335 793.416985,61.6425836 794.900391,60.5488281 C796.383796,59.4550727 798.451647,58.9082031 801.104004,58.9082031 C803.975112,58.9082031 806.497548,59.4482368 808.671387,60.5283203 L807.338379,64.2402344 C805.191884,63.2421825 803.147959,62.7431641 801.206543,62.7431641 C800.126459,62.7431641 799.28223,62.9243146 798.673828,63.2866211 C798.065427,63.6489276 797.76123,64.1992151 797.76123,64.9375 C797.76123,65.6347691 798.055173,66.1782207 798.643066,66.5678711 C799.23096,66.9575215 800.379386,67.4667937 802.088379,68.0957031 C802.143067,68.1093751 802.320799,68.1708979 802.621582,68.2802734 C802.922365,68.389649 803.154784,68.4785153 803.318848,68.546875 C805.383311,69.2988319 806.900874,70.1977487 807.871582,71.2436523 C808.84229,72.289556 809.327637,73.6533119 809.327637,75.3349609 C809.313965,77.5908316 808.548347,79.3339782 807.030762,80.5644531 C805.513176,81.794928 803.359877,82.4101562 800.570801,82.4101562 Z M822.575684,82.3076172 C821.044426,82.3076172 819.769536,82.1264667 818.750977,81.7641602 C817.732417,81.4018537 816.936038,80.8310586 816.361816,80.0517578 C815.787595,79.272457 815.380861,78.3530326 815.141602,77.293457 C814.902343,76.2338814 814.782715,74.9248125 814.782715,73.3662109 L814.782715,62.7226562 L811.091309,62.7226562 L811.296387,59.8105469 L815.151855,59.4619141 L816.874512,53.3505859 L820.155762,53.3300781 L820.155762,59.4619141 L825.754395,59.4619141 L825.754395,62.7226562 L820.155762,62.7226562 L820.155762,73.46875 C820.155762,75.1777429 820.401853,76.3945276 820.894043,77.1191406 C821.386233,77.8437536 822.295404,78.2060547 823.621582,78.2060547 C824.400883,78.2060547 825.234859,78.137696 826.123535,78.0009766 L826.26709,81.8564453 C826.239746,81.8564453 826.072267,81.8872067 825.764648,81.9487305 C825.45703,82.0102542 825.163087,82.0649412 824.882812,82.112793 C824.602538,82.1606448 824.243655,82.2050779 823.806152,82.2460938 C823.36865,82.2871096 822.958498,82.3076172 822.575684,82.3076172 Z M840.458496,82.4306641 C836.835431,82.4306641 834.015635,81.388194 831.999023,79.3032227 C829.982412,77.2182513 828.974121,74.3369325 828.974121,70.6591797 C828.974121,67.0771305 829.924307,64.2265731 831.824707,62.1074219 C833.725107,59.9882707 836.315902,58.9218751 839.597168,58.9082031 C842.700699,58.9082031 845.110343,59.8788965 846.826172,61.8203125 C848.542001,63.7617285 849.399902,66.3388511 849.399902,69.5517578 C849.399902,69.7841808 849.396484,70.1601537 849.389648,70.6796875 C849.382812,71.1992213 849.379395,71.58203 849.379395,71.828125 L834.388184,71.828125 C834.442871,73.9336043 835.020502,75.5639591 836.121094,76.7192383 C837.221685,77.8745175 838.73583,78.4521484 840.663574,78.4521484 C843.124524,78.4521484 845.489735,77.8095767 847.759277,76.5244141 L848.518066,80.3388672 C846.262196,81.7334054 843.575699,82.4306641 840.458496,82.4306641 Z M834.490723,68.4443359 L844.334473,68.4443359 C844.334473,66.6122955 843.917485,65.2041065 843.083496,64.2197266 C842.249508,63.2353466 841.094246,62.7431641 839.617676,62.7431641 C838.23681,62.7431641 837.071294,63.2216749 836.121094,64.1787109 C835.170894,65.135747 834.627442,66.5576078 834.490723,68.4443359 Z M853.788574,82 L853.788574,59.4619141 L858.300293,59.4619141 L858.997559,62.9072266 C860.474128,60.5419804 862.613756,59.359375 865.416504,59.359375 C866.004397,59.359375 866.482908,59.3867185 866.852051,59.4414062 L866.77002,63.9326172 C866.223142,63.8505855 865.655765,63.8095703 865.067871,63.8095703 C863.085439,63.8095703 861.605474,64.3359322 860.62793,65.3886719 C859.650386,66.4414115 859.161621,67.9042875 859.161621,69.7773438 L859.161621,82 L853.788574,82 Z M877.331543,82.4101562 C874.009261,82.4101562 871.350108,81.8427791 869.354004,80.7080078 L869.907715,76.6679688 C870.810063,77.1601587 871.958489,77.6010723 873.353027,77.9907227 C874.747566,78.380373 876.019037,78.5751953 877.16748,78.5751953 C878.35694,78.5751953 879.2832,78.3530296 879.946289,77.9086914 C880.609378,77.4643532 880.947754,76.8115277 880.961426,75.9501953 C880.961426,75.1708945 880.650394,74.5556663 880.02832,74.1044922 C879.406247,73.6533181 878.220224,73.0927768 876.470215,72.4228516 C875.868649,72.2041005 875.479005,72.0605472 875.30127,71.9921875 C873.223134,71.1855428 871.726079,70.286626 870.810059,69.2954102 C869.894038,68.3041943 869.436035,66.960946 869.436035,65.265625 C869.436035,63.2148335 870.177727,61.6425836 871.661133,60.5488281 C873.144539,59.4550727 875.212389,58.9082031 877.864746,58.9082031 C880.735854,58.9082031 883.25829,59.4482368 885.432129,60.5283203 L884.099121,64.2402344 C881.952626,63.2421825 879.908701,62.7431641 877.967285,62.7431641 C876.887202,62.7431641 876.042972,62.9243146 875.43457,63.2866211 C874.826169,63.6489276 874.521973,64.1992151 874.521973,64.9375 C874.521973,65.6347691 874.815915,66.1782207 875.403809,66.5678711 C875.991702,66.9575215 877.140128,67.4667937 878.849121,68.0957031 C878.903809,68.1093751 879.081541,68.1708979 879.382324,68.2802734 C879.683107,68.389649 879.915527,68.4785153 880.07959,68.546875 C882.144053,69.2988319 883.661616,70.1977487 884.632324,71.2436523 C885.603032,72.289556 886.088379,73.6533119 886.088379,75.3349609 C886.074707,77.5908316 885.30909,79.3339782 883.791504,80.5644531 C882.273918,81.794928 880.120619,82.4101562 877.331543,82.4101562 Z" id="Optimal-Number-of-Cl" fill="#000000"></path>
        <path d="M45.4111328,404 L42.3701172,404 L42.3701172,378.001953 L45.4111328,378.001953 L45.4111328,404 Z M51.1767578,404 L51.1767578,384.716797 L53.6376953,384.716797 L54.0068359,387.476562 C54.7685585,386.527339 55.7206974,385.762698 56.8632812,385.182617 C58.0058651,384.602536 59.2392512,384.3125 60.5634766,384.3125 C62.7900502,384.3125 64.4365181,384.936517 65.5029297,386.18457 C66.5693413,387.432623 67.1025391,389.35155 67.1025391,391.941406 L67.1025391,404 L64.1669922,404 C64.1669922,396.265586 64.1611329,392.12305 64.1494141,391.572266 C64.1025388,389.931632 63.7714875,388.730473 63.15625,387.96875 C62.5410125,387.207027 61.5127025,386.826172 60.0712891,386.826172 C58.5595628,386.826172 57.2998097,387.189449 56.2919922,387.916016 C55.2841746,388.642582 54.6279312,389.585932 54.3232422,390.746094 C54.2060541,391.531254 54.1474609,392.433589 54.1474609,393.453125 L54.1474609,404 L51.1767578,404 Z M79.5654297,386.738281 C78.0654222,386.738281 76.8408251,387.268549 75.8916016,388.329102 C74.9423781,389.389654 74.385743,390.839835 74.2216797,392.679688 L84.3994141,392.679688 C84.3994141,390.769522 83.9687543,389.301763 83.1074219,388.276367 C82.2460894,387.250971 81.0654372,386.738281 79.5654297,386.738281 Z M80.1455078,404.404297 C77.3447126,404.404297 75.1386799,403.513681 73.5273438,401.732422 C71.9160076,399.951163 71.1103516,397.513687 71.1103516,394.419922 C71.1103516,391.431626 71.8896406,389.008798 73.4482422,387.151367 C75.0068437,385.293936 77.0576045,384.347656 79.6005859,384.3125 C81.9912229,384.3125 83.8867117,385.129875 85.2871094,386.764648 C86.687507,388.399422 87.3876953,390.582018 87.3876953,393.3125 C87.3876953,393.453126 87.3847657,393.710936 87.3789062,394.085938 C87.3730468,394.460939 87.3701172,394.730468 87.3701172,394.894531 L74.1337891,394.894531 C74.1689455,397.085948 74.7343695,398.793939 75.8300781,400.018555 C76.9257867,401.24317 78.3994048,401.855469 80.2509766,401.855469 C82.2900493,401.855469 84.3349507,401.316412 86.3857422,400.238281 L86.8427734,402.611328 C84.8857324,403.806647 82.6533329,404.404297 80.1455078,404.404297 Z M100.114258,384.541016 C100.641604,384.541016 101.122068,384.576172 101.555664,384.646484 L101.450195,387.353516 C100.91113,387.259765 100.442385,387.212891 100.043945,387.212891 C98.4033121,387.212891 97.0703176,387.784174 96.0449219,388.926758 C95.0195261,390.069342 94.5068359,391.484367 94.5068359,393.171875 L94.5068359,404 L91.5712891,404 C91.5595703,392.164003 91.5537109,385.736333 91.5537109,384.716797 L93.9970703,384.716797 L94.2783203,388.179688 C94.9462924,387.089838 95.7958933,386.210941 96.8271484,385.542969 C97.8584036,384.874997 98.9540958,384.541016 100.114258,384.541016 Z M110.731445,404.351562 C108.832998,404.351562 107.485356,403.888677 106.688477,402.962891 C105.891598,402.037105 105.469727,400.542979 105.422852,398.480469 L105.422852,386.896484 L102.557617,386.896484 L102.680664,384.962891 L105.405273,384.716797 L106.407227,380.304688 L108.34082,380.234375 L108.34082,384.716797 L113.702148,384.716797 L113.702148,386.896484 L108.34082,386.896484 L108.34082,397.953125 C108.34082,399.417976 108.563474,400.449216 109.008789,401.046875 C109.454104,401.644534 110.215815,401.943359 111.293945,401.943359 C111.680666,401.943359 112.518548,401.84961 113.807617,401.662109 L113.930664,403.982422 C112.536126,404.228517 111.46973,404.351562 110.731445,404.351562 Z M120.522461,384.716797 L120.522461,404 L117.569336,404 L117.569336,384.716797 L120.522461,384.716797 Z M120.522461,377.703125 L120.522461,381.183594 L117.569336,381.183594 L117.569336,377.703125 L120.522461,377.703125 Z M131.614258,402.03125 C133.008796,402.03125 134.236323,401.647465 135.296875,400.879883 C136.357427,400.112301 137.040038,399.078132 137.344727,397.777344 L137.344727,394.525391 C137.286133,394.525391 136.931644,394.554687 136.28125,394.613281 C135.630856,394.671875 135.206056,394.707031 135.006836,394.71875 C132.463854,394.941407 130.691411,395.357419 129.689453,395.966797 C128.687495,396.576175 128.186523,397.554681 128.186523,398.902344 C128.186523,399.933599 128.491208,400.712888 129.100586,401.240234 C129.709964,401.767581 130.547846,402.03125 131.614258,402.03125 Z M137.995117,404 C137.819335,403.249996 137.649415,402.441411 137.485352,401.574219 C136.41894,402.64063 135.416997,403.378904 134.479492,403.789062 C133.541988,404.199221 132.440436,404.404297 131.174805,404.404297 C129.370108,404.404297 127.919927,403.932622 126.824219,402.989258 C125.72851,402.045894 125.180664,400.689462 125.180664,398.919922 C125.180664,396.951162 125.927727,395.492192 127.421875,394.542969 C128.916023,393.593745 131.069322,393.001954 133.881836,392.767578 C134.268557,392.732422 134.851559,392.682618 135.630859,392.618164 C136.41016,392.553711 136.993162,392.503906 137.379883,392.46875 L137.379883,390.763672 C137.379883,389.40429 137.06348,388.396488 136.430664,387.740234 C135.797848,387.083981 134.801765,386.755859 133.442383,386.755859 C131.543936,386.755859 129.627939,387.224605 127.694336,388.162109 C127.635742,388.021484 127.4834,387.614261 127.237305,386.94043 C126.99121,386.266598 126.862305,385.917969 126.850586,385.894531 C127.706059,385.41406 128.72265,385.030275 129.900391,384.743164 C131.078131,384.456053 132.276361,384.3125 133.495117,384.3125 C135.897473,384.3125 137.628901,384.836909 138.689453,385.885742 C139.750005,386.934576 140.280273,388.718737 140.280273,391.238281 L140.280273,404 L137.995117,404 Z" id="Inertia" fill="#000000" transform="translate(91.325195, 391.053711) rotate(-90.000000) translate(-91.325195, -391.053711) "></path>
        <path d="M450.983398,728 L447.538086,728 L434.038086,707.539062 L433.15918,706.326172 C433.25293,708.787122 433.299805,710.984365 433.299805,712.917969 L433.299805,728 L430.452148,728 L430.452148,702.001953 L433.844727,702.001953 L447.379883,722.462891 L448.276367,723.675781 C448.194336,719.937481 448.15332,717.775394 448.15332,717.189453 L448.15332,702.001953 L450.983398,702.001953 L450.983398,728 Z M455.887695,721.566406 L455.887695,708.716797 L458.84082,708.716797 L458.84082,721.601562 C458.84082,722.445317 458.960936,723.160153 459.201172,723.746094 C459.441407,724.332034 459.787107,724.786131 460.238281,725.108398 C460.689455,725.430666 461.199216,725.662109 461.767578,725.802734 C462.33594,725.94336 462.989254,726.013672 463.727539,726.013672 C465.250984,726.013672 466.437496,725.679691 467.287109,725.011719 C468.136723,724.343747 468.561523,723.207039 468.561523,721.601562 L468.561523,708.716797 L471.514648,708.716797 L471.514648,721.566406 C471.514648,722.550786 471.374025,723.435543 471.092773,724.220703 C470.811522,725.005863 470.433596,725.659177 469.958984,726.180664 C469.484373,726.702151 468.913089,727.132811 468.245117,727.472656 C467.577145,727.812502 466.871097,728.058593 466.126953,728.210938 C465.382809,728.363282 464.583012,728.439453 463.727539,728.439453 C462.883785,728.439453 462.086918,728.363282 461.336914,728.210938 C460.58691,728.058593 459.875003,727.809572 459.201172,727.463867 C458.52734,727.118162 457.947268,726.684573 457.460938,726.163086 C456.974607,725.641599 456.590822,724.988285 456.30957,724.203125 C456.028319,723.417965 455.887695,722.539067 455.887695,721.566406 Z M500.37793,728 L500.37793,717.962891 C500.37793,717.025386 500.357422,716.240238 500.316406,715.607422 C500.27539,714.974606 500.181641,714.330081 500.035156,713.673828 C499.888671,713.017575 499.683595,712.499025 499.419922,712.118164 C499.156249,711.737303 498.790041,711.426759 498.321289,711.186523 C497.852537,710.946288 497.290042,710.826172 496.633789,710.826172 C495.34472,710.826172 494.246098,711.171872 493.337891,711.863281 C492.429683,712.554691 491.782228,713.527337 491.395508,714.78125 C491.290039,715.625004 491.237305,716.527339 491.237305,717.488281 L491.237305,728 L488.301758,728 L488.301758,717.646484 C488.301758,716.779293 488.272461,716.02637 488.213867,715.387695 C488.155273,714.74902 488.043946,714.127933 487.879883,713.524414 C487.715819,712.920895 487.496095,712.431642 487.220703,712.056641 C486.945311,711.681639 486.579104,711.382814 486.12207,711.160156 C485.665037,710.937499 485.12012,710.826172 484.487305,710.826172 C483.081048,710.826172 481.900395,711.18359 480.945312,711.898438 C479.99023,712.613285 479.348634,713.562494 479.020508,714.746094 C478.915039,715.648442 478.862305,716.626948 478.862305,717.681641 L478.862305,728 L475.926758,728 C475.90332,715.941346 475.891602,709.513676 475.891602,708.716797 L478.352539,708.716797 L478.72168,711.476562 C479.30762,710.585933 480.139643,709.835941 481.217773,709.226562 C482.295904,708.617184 483.520501,708.3125 484.891602,708.3125 C485.606449,708.3125 486.265622,708.385741 486.869141,708.532227 C487.472659,708.678712 487.97656,708.86328 488.380859,709.085938 C488.785158,709.308595 489.145506,709.575194 489.461914,709.885742 C489.778322,710.196291 490.024413,710.500975 490.200195,710.799805 C490.375977,711.098634 490.52246,711.412108 490.639648,711.740234 C492.045905,709.455067 494.196275,708.3125 497.09082,708.3125 C499.235362,708.3125 500.808589,708.924799 501.810547,710.149414 C502.812505,711.37403 503.313477,713.187488 503.313477,715.589844 L503.313477,728 L500.37793,728 Z M515.829102,710.755859 C513.965811,710.755859 512.539067,711.397455 511.548828,712.680664 C510.558589,713.963874 510.063477,715.847644 510.063477,718.332031 C510.063477,723.417994 511.979473,725.960938 515.811523,725.960938 C516.760747,725.960938 517.5957,725.76465 518.316406,725.37207 C519.037113,724.97949 519.605467,724.428714 520.021484,723.719727 C520.437502,723.010739 520.748046,722.210942 520.953125,721.320312 C521.158204,720.429683 521.260742,719.439459 521.260742,718.349609 C521.260742,716.873039 521.087892,715.58399 520.742188,714.482422 C520.396483,713.380854 519.807621,712.484378 518.975586,711.792969 C518.143551,711.101559 517.094733,710.755859 515.829102,710.755859 Z M516.12793,708.3125 C517.838876,708.3125 519.315423,708.746089 520.557617,709.613281 C521.799811,710.480473 522.731442,711.658196 523.352539,713.146484 C523.973636,714.634773 524.28418,716.339834 524.28418,718.261719 C524.28418,720.253916 523.976566,722.005852 523.361328,723.517578 C522.746091,725.029304 521.814459,726.221675 520.566406,727.094727 C519.318353,727.967778 517.827157,728.404297 516.092773,728.404297 C514.815423,728.404297 513.649419,728.128909 512.594727,727.578125 C511.540034,727.027341 510.661136,726.277348 509.958008,725.328125 L509.65918,728 L507.145508,728 L507.145508,701.228516 L510.081055,701.052734 L510.081055,707.433594 C510.081055,709.003914 510.057617,710.351557 510.010742,711.476562 C510.690433,710.503901 511.57226,709.733401 512.65625,709.165039 C513.74024,708.596677 514.897455,708.3125 516.12793,708.3125 Z M535.991211,710.738281 C534.491203,710.738281 533.266606,711.268549 532.317383,712.329102 C531.368159,713.389654 530.811524,714.839835 530.647461,716.679688 L540.825195,716.679688 C540.825195,714.769522 540.394536,713.301763 539.533203,712.276367 C538.671871,711.250971 537.491218,710.738281 535.991211,710.738281 Z M536.571289,728.404297 C533.770494,728.404297 531.564461,727.513681 529.953125,725.732422 C528.341789,723.951163 527.536133,721.513687 527.536133,718.419922 C527.536133,715.431626 528.315422,713.008798 529.874023,711.151367 C531.432625,709.293936 533.483386,708.347656 536.026367,708.3125 C538.417004,708.3125 540.312493,709.129875 541.712891,710.764648 C543.113288,712.399422 543.813477,714.582018 543.813477,717.3125 C543.813477,717.453126 543.810547,717.710936 543.804688,718.085938 C543.798828,718.460939 543.795898,718.730468 543.795898,718.894531 L530.55957,718.894531 C530.594727,721.085948 531.160151,722.793939 532.255859,724.018555 C533.351568,725.24317 534.825186,725.855469 536.676758,725.855469 C538.715831,725.855469 540.760732,725.316412 542.811523,724.238281 L543.268555,726.611328 C541.311514,727.806647 539.079114,728.404297 536.571289,728.404297 Z M556.540039,708.541016 C557.067385,708.541016 557.547849,708.576172 557.981445,708.646484 L557.875977,711.353516 C557.336911,711.259765 556.868166,711.212891 556.469727,711.212891 C554.829093,711.212891 553.496099,711.784174 552.470703,712.926758 C551.445307,714.069342 550.932617,715.484367 550.932617,717.171875 L550.932617,728 L547.99707,728 C547.985352,716.164003 547.979492,709.736333 547.979492,708.716797 L550.422852,708.716797 L550.704102,712.179688 C551.372074,711.089838 552.221675,710.210941 553.25293,709.542969 C554.284185,708.874997 555.379877,708.541016 556.540039,708.541016 Z M572.131836,718.402344 C572.131836,720.687511 572.638667,722.518548 573.652344,723.895508 C574.666021,725.272468 576.145498,725.960938 578.09082,725.960938 C580.012705,725.960938 581.462886,725.275397 582.441406,723.904297 C583.419927,722.533196 583.90918,720.687512 583.90918,718.367188 C583.90918,716.011707 583.425786,714.157233 582.458984,712.803711 C581.492183,711.450189 580.018565,710.773438 578.038086,710.773438 C576.116201,710.773438 574.651372,711.464837 573.643555,712.847656 C572.635737,714.230476 572.131836,716.08202 572.131836,718.402344 Z M586.950195,718.349609 C586.950195,721.337906 586.153328,723.760733 584.55957,725.618164 C582.965812,727.475595 580.762709,728.404297 577.950195,728.404297 C575.243151,728.404297 573.089852,727.466806 571.490234,725.591797 C569.890617,723.716788 569.09082,721.308608 569.09082,718.367188 C569.09082,715.367173 569.893547,712.941416 571.499023,711.089844 C573.1045,709.238272 575.307603,708.3125 578.108398,708.3125 C580.862318,708.3125 583.024406,709.241202 584.594727,711.098633 C586.165047,712.956064 586.950195,715.373032 586.950195,718.349609 Z M598.428711,703.109375 C597.209955,703.109375 596.375002,703.460934 595.923828,704.164062 C595.472654,704.867191 595.24707,706.085929 595.24707,707.820312 L595.24707,708.716797 L599.887695,708.716797 L599.887695,710.896484 L595.24707,710.896484 L595.24707,728 L592.311523,728 L592.311523,710.896484 L589.182617,710.896484 L589.428711,708.962891 L592.311523,708.716797 L592.311523,707.855469 C592.334961,705.371081 592.800777,703.569342 593.708984,702.450195 C594.617192,701.331049 596.084951,700.771484 598.112305,700.771484 C598.897465,700.771484 599.858393,700.859374 600.995117,701.035156 L600.801758,703.337891 C599.758784,703.185546 598.967776,703.109375 598.428711,703.109375 Z M623.793945,704.234375 C621.836904,704.234375 620.152351,704.70898 618.740234,705.658203 C617.328118,706.607427 616.276371,707.884758 615.584961,709.490234 C614.893551,711.095711 614.547852,712.941396 614.547852,715.027344 C614.547852,716.585945 614.73535,718.00683 615.110352,719.290039 C615.485353,720.573249 616.047848,721.698237 616.797852,722.665039 C617.547855,723.631841 618.523431,724.381833 619.724609,724.915039 C620.925787,725.448245 622.305656,725.714844 623.864258,725.714844 C625.868174,725.714844 627.942372,725.193365 630.086914,724.150391 L630.59668,726.734375 C628.850577,727.835943 626.489273,728.386719 623.512695,728.386719 C621.555654,728.386719 619.800789,728.061527 618.248047,727.411133 C616.695305,726.760739 615.412114,725.840826 614.398438,724.651367 C613.384761,723.461908 612.61426,722.043954 612.086914,720.397461 C611.559568,718.750968 611.295898,716.919932 611.295898,714.904297 C611.295898,712.958975 611.583005,711.166024 612.157227,709.525391 C612.731448,707.884757 613.542964,706.475592 614.591797,705.297852 C615.64063,704.120111 616.950187,703.203128 618.520508,702.546875 C620.090828,701.890622 621.836904,701.5625 623.758789,701.5625 C626.676772,701.5625 629.137685,702.207025 631.141602,703.496094 L629.946289,705.974609 C628.024404,704.814447 625.973644,704.234375 623.793945,704.234375 Z M639.702148,728.351562 C637.827139,728.351562 636.500004,727.847661 635.720703,726.839844 C634.941402,725.832026 634.551758,724.080091 634.551758,721.583984 L634.551758,701.228516 L637.469727,701.052734 L637.469727,720.423828 C637.469727,721.220707 637.478516,721.859373 637.496094,722.339844 C637.513672,722.820315 637.557617,723.29199 637.62793,723.754883 C637.698243,724.217776 637.791992,724.566405 637.90918,724.800781 C638.026368,725.035157 638.196288,725.249022 638.418945,725.442383 C638.641603,725.635743 638.908202,725.764648 639.21875,725.829102 C639.529298,725.893555 639.913084,725.925781 640.370117,725.925781 C640.745119,725.925781 641.483393,725.855469 642.584961,725.714844 L642.743164,728.052734 C641.536127,728.251954 640.522465,728.351562 639.702148,728.351562 Z M643.850586,721.566406 L643.850586,708.716797 L646.803711,708.716797 L646.803711,721.601562 C646.803711,722.445317 646.923827,723.160153 647.164062,723.746094 C647.404298,724.332034 647.749998,724.786131 648.201172,725.108398 C648.652346,725.430666 649.162107,725.662109 649.730469,725.802734 C650.298831,725.94336 650.952145,726.013672 651.69043,726.013672 C653.213875,726.013672 654.400386,725.679691 655.25,725.011719 C656.099614,724.343747 656.524414,723.207039 656.524414,721.601562 L656.524414,708.716797 L659.477539,708.716797 L659.477539,721.566406 C659.477539,722.550786 659.336915,723.435543 659.055664,724.220703 C658.774413,725.005863 658.396487,725.659177 657.921875,726.180664 C657.447263,726.702151 656.87598,727.132811 656.208008,727.472656 C655.540036,727.812502 654.833988,728.058593 654.089844,728.210938 C653.345699,728.363282 652.545903,728.439453 651.69043,728.439453 C650.846675,728.439453 650.049808,728.363282 649.299805,728.210938 C648.549801,728.058593 647.837894,727.809572 647.164062,727.463867 C646.490231,727.118162 645.910159,726.684573 645.423828,726.163086 C644.937498,725.641599 644.553712,724.988285 644.272461,724.203125 C643.99121,723.417965 643.850586,722.539067 643.850586,721.566406 Z M669.602539,728.404297 C668.290033,728.404297 667.080084,728.263673 665.972656,727.982422 C664.865229,727.70117 663.965824,727.337893 663.274414,726.892578 L663.643555,724.414062 C665.600596,725.457036 667.522452,725.978516 669.40918,725.978516 C672.268569,725.978516 673.739257,724.970713 673.821289,722.955078 C673.821289,722.099605 673.516605,721.425784 672.907227,720.933594 C672.297849,720.441404 671.102548,719.890628 669.321289,719.28125 L667.862305,718.771484 C666.174796,718.208982 664.970707,717.511723 664.25,716.679688 C663.529293,715.847652 663.163086,714.810553 663.151367,713.568359 C663.151367,712.056633 663.757806,710.802739 664.970703,709.806641 C666.1836,708.810542 667.844716,708.3125 669.954102,708.3125 C672.1338,708.3125 674.120108,708.734371 675.913086,709.578125 L675.051758,711.828125 C673.235342,711.078121 671.536141,710.703125 669.954102,710.703125 C668.723627,710.703125 667.759769,710.946287 667.0625,711.432617 C666.365231,711.918948 666.016602,712.601558 666.016602,713.480469 C666.016602,714.230473 666.268552,714.804686 666.772461,715.203125 C667.27637,715.601564 668.284172,716.058591 669.795898,716.574219 C670.182619,716.714844 670.668942,716.878905 671.254883,717.066406 C673.200205,717.699222 674.577144,718.446285 675.385742,719.307617 C676.19434,720.16895 676.598633,721.332024 676.598633,722.796875 C676.575195,724.578134 675.93653,725.958003 674.682617,726.936523 C673.428705,727.915044 671.735362,728.404297 669.602539,728.404297 Z M686.758789,728.351562 C684.860342,728.351562 683.512699,727.888677 682.71582,726.962891 C681.918941,726.037105 681.497071,724.542979 681.450195,722.480469 L681.450195,710.896484 L678.584961,710.896484 L678.708008,708.962891 L681.432617,708.716797 L682.43457,704.304688 L684.368164,704.234375 L684.368164,708.716797 L689.729492,708.716797 L689.729492,710.896484 L684.368164,710.896484 L684.368164,721.953125 C684.368164,723.417976 684.590818,724.449216 685.036133,725.046875 C685.481448,725.644534 686.243159,725.943359 687.321289,725.943359 C687.70801,725.943359 688.545892,725.84961 689.834961,725.662109 L689.958008,727.982422 C688.56347,728.228517 687.497074,728.351562 686.758789,728.351562 Z M700.663086,710.738281 C699.163078,710.738281 697.938481,711.268549 696.989258,712.329102 C696.040034,713.389654 695.483399,714.839835 695.319336,716.679688 L705.49707,716.679688 C705.49707,714.769522 705.066411,713.301763 704.205078,712.276367 C703.343746,711.250971 702.163093,710.738281 700.663086,710.738281 Z M701.243164,728.404297 C698.442369,728.404297 696.236336,727.513681 694.625,725.732422 C693.013664,723.951163 692.208008,721.513687 692.208008,718.419922 C692.208008,715.431626 692.987297,713.008798 694.545898,711.151367 C696.1045,709.293936 698.155261,708.347656 700.698242,708.3125 C703.088879,708.3125 704.984368,709.129875 706.384766,710.764648 C707.785163,712.399422 708.485352,714.582018 708.485352,717.3125 C708.485352,717.453126 708.482422,717.710936 708.476562,718.085938 C708.470703,718.460939 708.467773,718.730468 708.467773,718.894531 L695.231445,718.894531 C695.266602,721.085948 695.832026,722.793939 696.927734,724.018555 C698.023443,725.24317 699.497061,725.855469 701.348633,725.855469 C703.387706,725.855469 705.432607,725.316412 707.483398,724.238281 L707.94043,726.611328 C705.983389,727.806647 703.750989,728.404297 701.243164,728.404297 Z M721.211914,708.541016 C721.73926,708.541016 722.219724,708.576172 722.65332,708.646484 L722.547852,711.353516 C722.008786,711.259765 721.540041,711.212891 721.141602,711.212891 C719.500968,711.212891 718.167974,711.784174 717.142578,712.926758 C716.117182,714.069342 715.604492,715.484367 715.604492,717.171875 L715.604492,728 L712.668945,728 C712.657227,716.164003 712.651367,709.736333 712.651367,708.716797 L715.094727,708.716797 L715.375977,712.179688 C716.043949,711.089838 716.89355,710.210941 717.924805,709.542969 C718.95606,708.874997 720.051752,708.541016 721.211914,708.541016 Z M731.424805,728.404297 C730.112298,728.404297 728.902349,728.263673 727.794922,727.982422 C726.687494,727.70117 725.788089,727.337893 725.09668,726.892578 L725.46582,724.414062 C727.422861,725.457036 729.344717,725.978516 731.231445,725.978516 C734.090835,725.978516 735.561523,724.970713 735.643555,722.955078 C735.643555,722.099605 735.33887,721.425784 734.729492,720.933594 C734.120114,720.441404 732.924814,719.890628 731.143555,719.28125 L729.68457,718.771484 C727.997062,718.208982 726.792972,717.511723 726.072266,716.679688 C725.351559,715.847652 724.985352,714.810553 724.973633,713.568359 C724.973633,712.056633 725.580072,710.802739 726.792969,709.806641 C728.005865,708.810542 729.666982,708.3125 731.776367,708.3125 C733.956066,708.3125 735.942374,708.734371 737.735352,709.578125 L736.874023,711.828125 C735.057608,711.078121 733.358406,710.703125 731.776367,710.703125 C730.545892,710.703125 729.582035,710.946287 728.884766,711.432617 C728.187497,711.918948 727.838867,712.601558 727.838867,713.480469 C727.838867,714.230473 728.090818,714.804686 728.594727,715.203125 C729.098635,715.601564 730.106438,716.058591 731.618164,716.574219 C732.004885,716.714844 732.491208,716.878905 733.077148,717.066406 C735.022471,717.699222 736.39941,718.446285 737.208008,719.307617 C738.016606,720.16895 738.420898,721.332024 738.420898,722.796875 C738.397461,724.578134 737.758795,725.958003 736.504883,726.936523 C735.25097,727.915044 733.557628,728.404297 731.424805,728.404297 Z M750.708008,717.488281 C750.708008,711.746065 752.307601,706.542992 755.506836,701.878906 L758.231445,701.878906 C755.207993,706.589867 753.696289,711.769503 753.696289,717.417969 C753.696289,720.066419 754.094723,722.738268 754.891602,725.433594 C755.688481,728.12892 756.801751,730.572255 758.231445,732.763672 L755.541992,732.763672 C754.030266,730.666005 752.846684,728.301771 751.991211,725.670898 C751.135738,723.040026 750.708008,720.312514 750.708008,717.488281 Z M762.151367,728 L762.151367,701.228516 L765.069336,701.052734 L765.069336,717.523438 C765.139649,717.453125 765.245116,717.335938 765.385742,717.171875 C765.526368,717.007812 765.637695,716.884766 765.719727,716.802734 C766.739263,715.689448 769.375955,712.994162 773.629883,708.716797 L777.356445,708.716797 L769.34082,716.837891 L777.918945,728 L774.262695,728 L767.213867,718.507812 L765.069336,720.353516 L765.069336,728 L762.151367,728 Z M786.795898,717.488281 C786.795898,720.312514 786.368168,723.037096 785.512695,725.662109 C784.657222,728.287123 783.467781,730.654286 781.944336,732.763672 L779.272461,732.763672 C780.702156,730.572255 781.815426,728.12892 782.612305,725.433594 C783.409184,722.738268 783.807617,720.066419 783.807617,717.417969 C783.807617,711.792941 782.290054,706.613305 779.254883,701.878906 L781.979492,701.878906 C785.190446,706.613305 786.795898,711.816378 786.795898,717.488281 Z" id="Number-of-Clusters-(" fill="#000000"></path>
        <path d="M149.382812,587.546875 L151.556641,587.546875 L151.556641,608 L149.136719,608 L149.136719,590.076172 C148.216141,590.677737 147.090501,591.192706 145.759766,591.621094 L145.759766,589.337891 C145.9056,589.274088 146.201821,589.146485 146.648438,588.955078 C147.095054,588.763671 147.430012,588.617839 147.65332,588.517578 C147.876629,588.417317 148.156899,588.276043 148.494141,588.09375 C148.831382,587.911457 149.127603,587.729168 149.382812,587.546875 Z M162.316406,608.314453 C161.104161,608.314453 160.042322,608.047854 159.130859,607.514648 C158.219396,606.981443 157.487958,606.231776 156.936523,605.265625 C156.385088,604.299474 155.974936,603.187506 155.706055,601.929688 C155.437173,600.671869 155.302734,599.272794 155.302734,597.732422 C155.302734,596.465488 155.391601,595.294276 155.569336,594.21875 C155.747071,593.143224 156.022785,592.167973 156.396484,591.292969 C156.770184,590.417964 157.232745,589.675133 157.78418,589.064453 C158.335615,588.453773 158.994137,587.982098 159.759766,587.649414 C160.525394,587.31673 161.377599,587.150391 162.316406,587.150391 C163.483079,587.150391 164.515295,587.405596 165.413086,587.916016 C166.310877,588.426435 167.040036,589.153316 167.600586,590.09668 C168.161136,591.040044 168.582681,592.152012 168.865234,593.432617 C169.147788,594.713223 169.289062,596.146476 169.289062,597.732422 C169.289062,599.272794 169.156902,600.671869 168.892578,601.929688 C168.628254,603.187506 168.222659,604.299474 167.675781,605.265625 C167.128904,606.231776 166.402023,606.981443 165.495117,607.514648 C164.588212,608.047854 163.528652,608.314453 162.316406,608.314453 Z M162.316406,589.228516 C161.386714,589.228516 160.589196,589.595374 159.923828,590.329102 C159.25846,591.062829 158.759442,592.056309 158.426758,593.30957 C158.094074,594.562832 157.927734,596.009757 157.927734,597.650391 C157.927734,599.318368 158.094074,600.792637 158.426758,602.073242 C158.759442,603.353848 159.25846,604.367835 159.923828,605.115234 C160.589196,605.862634 161.386714,606.236328 162.316406,606.236328 C163.246098,606.236328 164.043616,605.862634 164.708984,605.115234 C165.374352,604.367835 165.873371,603.353848 166.206055,602.073242 C166.538739,600.792637 166.705078,599.318368 166.705078,597.650391 C166.705078,596.009757 166.538739,594.562832 166.206055,593.30957 C165.873371,592.056309 165.374352,591.062829 164.708984,590.329102 C164.043616,589.595374 163.246098,589.228516 162.316406,589.228516 Z M179.283203,608.314453 C178.070957,608.314453 177.009119,608.047854 176.097656,607.514648 C175.186193,606.981443 174.454755,606.231776 173.90332,605.265625 C173.351885,604.299474 172.941733,603.187506 172.672852,601.929688 C172.40397,600.671869 172.269531,599.272794 172.269531,597.732422 C172.269531,596.465488 172.358398,595.294276 172.536133,594.21875 C172.713868,593.143224 172.989581,592.167973 173.363281,591.292969 C173.736981,590.417964 174.199542,589.675133 174.750977,589.064453 C175.302412,588.453773 175.960934,587.982098 176.726562,587.649414 C177.492191,587.31673 178.344396,587.150391 179.283203,587.150391 C180.449876,587.150391 181.482092,587.405596 182.379883,587.916016 C183.277674,588.426435 184.006833,589.153316 184.567383,590.09668 C185.127932,591.040044 185.549478,592.152012 185.832031,593.432617 C186.114585,594.713223 186.255859,596.146476 186.255859,597.732422 C186.255859,599.272794 186.123699,600.671869 185.859375,601.929688 C185.595051,603.187506 185.189456,604.299474 184.642578,605.265625 C184.0957,606.231776 183.36882,606.981443 182.461914,607.514648 C181.555008,608.047854 180.495449,608.314453 179.283203,608.314453 Z M179.283203,589.228516 C178.353511,589.228516 177.555993,589.595374 176.890625,590.329102 C176.225257,591.062829 175.726239,592.056309 175.393555,593.30957 C175.060871,594.562832 174.894531,596.009757 174.894531,597.650391 C174.894531,599.318368 175.060871,600.792637 175.393555,602.073242 C175.726239,603.353848 176.225257,604.367835 176.890625,605.115234 C177.555993,605.862634 178.353511,606.236328 179.283203,606.236328 C180.212895,606.236328 181.010413,605.862634 181.675781,605.115234 C182.341149,604.367835 182.840168,603.353848 183.172852,602.073242 C183.505536,600.792637 183.671875,599.318368 183.671875,597.650391 C183.671875,596.009757 183.505536,594.562832 183.172852,593.30957 C182.840168,592.056309 182.341149,591.062829 181.675781,590.329102 C181.010413,589.595374 180.212895,589.228516 179.283203,589.228516 Z" id="100" fill="#000000"></path>
        <path d="M273.349609,651.546875 L275.523438,651.546875 L275.523438,672 L273.103516,672 L273.103516,654.076172 C272.182938,654.677737 271.057298,655.192706 269.726562,655.621094 L269.726562,653.337891 C269.872397,653.274088 270.168618,653.146485 270.615234,652.955078 C271.061851,652.763671 271.396809,652.617839 271.620117,652.517578 C271.843426,652.417317 272.123696,652.276043 272.460938,652.09375 C272.798179,651.911457 273.0944,651.729168 273.349609,651.546875 Z" id="1" fill="#000000"></path>
        <path d="M379.916016,672 L379.601562,669.757812 L386.669922,661.910156 C387.143883,661.381508 387.601886,660.697921 388.043945,659.859375 C388.486005,659.020829 388.807291,658.309899 389.007812,657.726562 L389.322266,656.865234 C389.322266,655.73502 389.007816,654.857751 388.378906,654.233398 C387.749997,653.609046 386.856777,653.296875 385.699219,653.296875 C383.766917,653.296875 382.244797,653.857416 381.132812,654.978516 L380.339844,652.927734 C381.597663,651.742833 383.43879,651.150391 385.863281,651.150391 C387.722666,651.150391 389.203771,651.653966 390.306641,652.661133 C391.409511,653.668299 391.960938,655.014966 391.960938,656.701172 C391.924479,656.828777 391.869792,656.999673 391.796875,657.213867 C391.723958,657.428061 391.566733,657.845049 391.325195,658.464844 C391.083658,659.084639 390.83073,659.672523 390.566406,660.228516 C390.302082,660.784508 389.967124,661.395179 389.561523,662.060547 C389.155922,662.725915 388.743492,663.281899 388.324219,663.728516 L382.554688,669.894531 L392.029297,669.894531 L391.878906,672 L379.916016,672 Z" id="2" fill="#000000"></path>
        <path d="M496.241211,672.314453 C495.019851,672.314453 493.932947,672.15495 492.980469,671.835938 C492.02799,671.516925 491.33301,671.147789 490.895508,670.728516 L491.661133,668.71875 C492.946295,669.730474 494.47753,670.236328 496.254883,670.236328 C497.622077,670.236328 498.70898,669.896813 499.515625,669.217773 C500.32227,668.538734 500.725586,667.588548 500.725586,666.367188 C500.725586,665.70182 500.623048,665.120771 500.417969,664.624023 C500.21289,664.127276 499.939455,663.726239 499.597656,663.420898 C499.255858,663.115558 498.818362,662.869467 498.285156,662.682617 C497.75195,662.495767 497.205081,662.363607 496.644531,662.286133 C496.083982,662.208658 495.434574,662.160807 494.696289,662.142578 C494.605143,662.142578 494.468425,662.1403 494.286133,662.135742 C494.10384,662.131185 493.967123,662.128906 493.875977,662.128906 L493.875977,660.091797 L494.55957,660.091797 C495.197594,660.082682 495.760414,660.048503 496.248047,659.989258 C496.73568,659.930013 497.223305,659.822917 497.710938,659.667969 C498.19857,659.51302 498.601886,659.307944 498.920898,659.052734 C499.23991,658.797525 499.499673,658.455731 499.700195,658.027344 C499.900717,657.598956 500.000977,657.093102 500.000977,656.509766 C500.000977,654.322255 498.747734,653.228516 496.241211,653.228516 C495.338863,653.228516 494.491215,653.360676 493.698242,653.625 C492.905269,653.889324 492.22624,654.244789 491.661133,654.691406 L490.895508,652.695312 C492.253588,651.665359 494.208646,651.150391 496.760742,651.150391 C497.790695,651.150391 498.74316,651.339516 499.618164,651.717773 C500.493168,652.096031 501.213213,652.674801 501.77832,653.454102 C502.343427,654.233402 502.625977,655.14713 502.625977,656.195312 C502.625977,657.471361 502.311527,658.519527 501.682617,659.339844 C501.053708,660.16016 500.169602,660.748045 499.030273,661.103516 C500.306321,661.376954 501.306637,661.973954 502.03125,662.894531 C502.755863,663.815109 503.118164,664.981764 503.118164,666.394531 C503.118164,668.190113 502.475592,669.625646 501.19043,670.701172 C499.905267,671.776698 498.255544,672.314453 496.241211,672.314453 Z" id="3" fill="#000000"></path>
        <path d="M614.561523,666.927734 L612.237305,666.927734 L612.237305,672 L609.94043,672 L609.94043,666.927734 L600.698242,666.927734 L600.698242,664.835938 L609.680664,651.546875 L612.237305,651.546875 L612.237305,664.945312 L614.75293,664.945312 L614.561523,666.927734 Z M609.94043,654.650391 L603.104492,664.945312 L609.94043,664.945312 L609.94043,654.650391 Z" id="4" fill="#000000"></path>
        <path d="M725.180664,651.546875 L724.989258,653.789062 L716.635742,653.789062 C716.544596,656.44142 716.476237,658.587882 716.430664,660.228516 C717.460617,659.572262 718.577142,659.244141 719.780273,659.244141 C720.791997,659.244141 721.696611,659.405923 722.494141,659.729492 C723.291671,660.053062 723.943357,660.497393 724.449219,661.0625 C724.955081,661.627607 725.340168,662.286129 725.604492,663.038086 C725.868816,663.790043 726.000977,664.603511 726.000977,665.478516 C726.000977,667.547536 725.337897,669.204095 724.011719,670.448242 C722.68554,671.692389 720.883149,672.314453 718.604492,672.314453 C716.31672,672.314453 714.484707,671.69011 713.108398,670.441406 L713.99707,668.513672 C715.346035,669.570969 716.909171,670.099609 718.686523,670.099609 C720.181323,670.099609 721.361649,669.675785 722.227539,668.828125 C723.093429,667.980465 723.526367,666.873054 723.526367,665.505859 C723.526367,664.284499 723.161787,663.293298 722.432617,662.532227 C721.703447,661.771155 720.664395,661.390625 719.31543,661.390625 C717.966465,661.390625 716.88184,661.841792 716.061523,662.744141 L714.161133,662.484375 L714.694336,651.546875 L725.180664,651.546875 Z" id="5" fill="#000000"></path>
        <path d="M831.012695,659.408203 C832.161139,659.408203 833.222977,659.679359 834.198242,660.22168 C835.173507,660.764 835.957354,661.534175 836.549805,662.532227 C837.142256,663.530278 837.438477,664.639968 837.438477,665.861328 C837.438477,667.720712 836.811855,669.261062 835.558594,670.482422 C834.305332,671.703782 832.653331,672.314453 830.602539,672.314453 C829.536127,672.314453 828.563155,672.134442 827.683594,671.774414 C826.804032,671.414386 826.07943,670.926761 825.509766,670.311523 C824.940101,669.696286 824.498048,668.980798 824.183594,668.165039 C823.869139,667.34928 823.711914,666.476567 823.711914,665.546875 C823.711914,664.06119 823.98307,662.732753 824.525391,661.561523 C825.067711,660.390294 826.049798,658.90691 827.47168,657.111328 C827.818036,656.673826 828.364905,655.999354 829.112305,655.087891 C829.859704,654.176428 830.525062,653.374352 831.108398,652.681641 L831.969727,651.642578 L835.12793,651.642578 L827.936523,660.228516 C828.966477,659.681638 829.991857,659.408203 831.012695,659.408203 Z M826.295898,665.806641 C826.295898,666.617843 826.448566,667.351559 826.753906,668.007812 C827.059246,668.664066 827.537757,669.199542 828.189453,669.614258 C828.841149,670.028973 829.61816,670.236328 830.520508,670.236328 C831.869473,670.236328 832.929033,669.821619 833.699219,668.992188 C834.469405,668.162756 834.854492,667.132819 834.854492,665.902344 C834.854492,664.608066 834.469405,663.543949 833.699219,662.709961 C832.929033,661.875972 831.869473,661.458984 830.520508,661.458984 C829.089511,661.458984 828.027673,661.864579 827.334961,662.675781 C826.642249,663.486983 826.295898,664.530593 826.295898,665.806641 Z" id="6" fill="#000000"></path>
        <polygon id="7" fill="#000000" opacity="0.699999988" points="937.876953 672 944.904297 653.666016 935.675781 653.666016 935.826172 651.546875 947.679688 651.546875 947.679688 653.40625 940.365234 672"></polygon>
        <path d="M156.594727,391.927734 L154.270508,391.927734 L154.270508,397 L151.973633,397 L151.973633,391.927734 L142.731445,391.927734 L142.731445,389.835938 L151.713867,376.546875 L154.270508,376.546875 L154.270508,389.945312 L156.786133,389.945312 L156.594727,391.927734 Z M151.973633,379.650391 L145.137695,389.945312 L151.973633,389.945312 L151.973633,379.650391 Z M166.31543,397.314453 C165.103184,397.314453 164.041346,397.047854 163.129883,396.514648 C162.21842,395.981443 161.486982,395.231776 160.935547,394.265625 C160.384112,393.299474 159.97396,392.187506 159.705078,390.929688 C159.436197,389.671869 159.301758,388.272794 159.301758,386.732422 C159.301758,385.465488 159.390624,384.294276 159.568359,383.21875 C159.746095,382.143224 160.021808,381.167973 160.395508,380.292969 C160.769208,379.417964 161.231768,378.675133 161.783203,378.064453 C162.334638,377.453773 162.99316,376.982098 163.758789,376.649414 C164.524418,376.31673 165.376623,376.150391 166.31543,376.150391 C167.482102,376.150391 168.514318,376.405596 169.412109,376.916016 C170.3099,377.426435 171.03906,378.153316 171.599609,379.09668 C172.160159,380.040044 172.581704,381.152012 172.864258,382.432617 C173.146811,383.713223 173.288086,385.146476 173.288086,386.732422 C173.288086,388.272794 173.155926,389.671869 172.891602,390.929688 C172.627277,392.187506 172.221682,393.299474 171.674805,394.265625 C171.127927,395.231776 170.401046,395.981443 169.494141,396.514648 C168.587235,397.047854 167.527675,397.314453 166.31543,397.314453 Z M166.31543,378.228516 C165.385738,378.228516 164.588219,378.595374 163.922852,379.329102 C163.257484,380.062829 162.758465,381.056309 162.425781,382.30957 C162.093097,383.562832 161.926758,385.009757 161.926758,386.650391 C161.926758,388.318368 162.093097,389.792637 162.425781,391.073242 C162.758465,392.353848 163.257484,393.367835 163.922852,394.115234 C164.588219,394.862634 165.385738,395.236328 166.31543,395.236328 C167.245122,395.236328 168.04264,394.862634 168.708008,394.115234 C169.373376,393.367835 169.872394,392.353848 170.205078,391.073242 C170.537762,389.792637 170.704102,388.318368 170.704102,386.650391 C170.704102,385.009757 170.537762,383.562832 170.205078,382.30957 C169.872394,381.056309 169.373376,380.062829 168.708008,379.329102 C168.04264,378.595374 167.245122,378.228516 166.31543,378.228516 Z M183.282227,397.314453 C182.069981,397.314453 181.008143,397.047854 180.09668,396.514648 C179.185217,395.981443 178.453779,395.231776 177.902344,394.265625 C177.350909,393.299474 176.940757,392.187506 176.671875,390.929688 C176.402993,389.671869 176.268555,388.272794 176.268555,386.732422 C176.268555,385.465488 176.357421,384.294276 176.535156,383.21875 C176.712892,382.143224 176.988605,381.167973 177.362305,380.292969 C177.736004,379.417964 178.198565,378.675133 178.75,378.064453 C179.301435,377.453773 179.959957,376.982098 180.725586,376.649414 C181.491215,376.31673 182.34342,376.150391 183.282227,376.150391 C184.448899,376.150391 185.481115,376.405596 186.378906,376.916016 C187.276697,377.426435 188.005857,378.153316 188.566406,379.09668 C189.126956,380.040044 189.548501,381.152012 189.831055,382.432617 C190.113608,383.713223 190.254883,385.146476 190.254883,386.732422 C190.254883,388.272794 190.122723,389.671869 189.858398,390.929688 C189.594074,392.187506 189.188479,393.299474 188.641602,394.265625 C188.094724,395.231776 187.367843,395.981443 186.460938,396.514648 C185.554032,397.047854 184.494472,397.314453 183.282227,397.314453 Z M183.282227,378.228516 C182.352534,378.228516 181.555016,378.595374 180.889648,379.329102 C180.224281,380.062829 179.725262,381.056309 179.392578,382.30957 C179.059894,383.562832 178.893555,385.009757 178.893555,386.650391 C178.893555,388.318368 179.059894,389.792637 179.392578,391.073242 C179.725262,392.353848 180.224281,393.367835 180.889648,394.115234 C181.555016,394.862634 182.352534,395.236328 183.282227,395.236328 C184.211919,395.236328 185.009437,394.862634 185.674805,394.115234 C186.340173,393.367835 186.839191,392.353848 187.171875,391.073242 C187.504559,389.792637 187.670898,388.318368 187.670898,386.650391 C187.670898,385.009757 187.504559,383.562832 187.171875,382.30957 C186.839191,381.056309 186.340173,380.062829 185.674805,379.329102 C185.009437,378.595374 184.211919,378.228516 183.282227,378.228516 Z" id="400" fill="#000000"></path>
        <path d="M142.449219,539 L142.134766,536.757812 L149.203125,528.910156 C149.677086,528.381508 150.135089,527.697921 150.577148,526.859375 C151.019208,526.020829 151.340494,525.309899 151.541016,524.726562 L151.855469,523.865234 C151.855469,522.73502 151.541019,521.857751 150.912109,521.233398 C150.2832,520.609046 149.38998,520.296875 148.232422,520.296875 C146.300121,520.296875 144.778,520.857416 143.666016,521.978516 L142.873047,519.927734 C144.130866,518.742833 145.971993,518.150391 148.396484,518.150391 C150.255869,518.150391 151.736974,518.653966 152.839844,519.661133 C153.942714,520.668299 154.494141,522.014966 154.494141,523.701172 C154.457682,523.828777 154.402995,523.999673 154.330078,524.213867 C154.257161,524.428061 154.099936,524.845049 153.858398,525.464844 C153.616861,526.084639 153.363934,526.672523 153.099609,527.228516 C152.835285,527.784508 152.500328,528.395179 152.094727,529.060547 C151.689126,529.725915 151.276695,530.281899 150.857422,530.728516 L145.087891,536.894531 L154.5625,536.894531 L154.412109,539 L142.449219,539 Z M164.666016,539.314453 C163.45377,539.314453 162.391932,539.047854 161.480469,538.514648 C160.569006,537.981443 159.837568,537.231776 159.286133,536.265625 C158.734698,535.299474 158.324546,534.187506 158.055664,532.929688 C157.786783,531.671869 157.652344,530.272794 157.652344,528.732422 C157.652344,527.465488 157.74121,526.294276 157.918945,525.21875 C158.096681,524.143224 158.372394,523.167973 158.746094,522.292969 C159.119794,521.417964 159.582354,520.675133 160.133789,520.064453 C160.685224,519.453773 161.343746,518.982098 162.109375,518.649414 C162.875004,518.31673 163.727209,518.150391 164.666016,518.150391 C165.832688,518.150391 166.864904,518.405596 167.762695,518.916016 C168.660486,519.426435 169.389646,520.153316 169.950195,521.09668 C170.510745,522.040044 170.93229,523.152012 171.214844,524.432617 C171.497397,525.713223 171.638672,527.146476 171.638672,528.732422 C171.638672,530.272794 171.506512,531.671869 171.242188,532.929688 C170.977863,534.187506 170.572268,535.299474 170.025391,536.265625 C169.478513,537.231776 168.751632,537.981443 167.844727,538.514648 C166.937821,539.047854 165.878261,539.314453 164.666016,539.314453 Z M164.666016,520.228516 C163.736323,520.228516 162.938805,520.595374 162.273438,521.329102 C161.60807,522.062829 161.109051,523.056309 160.776367,524.30957 C160.443683,525.562832 160.277344,527.009757 160.277344,528.650391 C160.277344,530.318368 160.443683,531.792637 160.776367,533.073242 C161.109051,534.353848 161.60807,535.367835 162.273438,536.115234 C162.938805,536.862634 163.736323,537.236328 164.666016,537.236328 C165.595708,537.236328 166.393226,536.862634 167.058594,536.115234 C167.723962,535.367835 168.22298,534.353848 168.555664,533.073242 C168.888348,531.792637 169.054688,530.318368 169.054688,528.650391 C169.054688,527.009757 168.888348,525.562832 168.555664,524.30957 C168.22298,523.056309 167.723962,522.062829 167.058594,521.329102 C166.393226,520.595374 165.595708,520.228516 164.666016,520.228516 Z M181.632812,539.314453 C180.420567,539.314453 179.358729,539.047854 178.447266,538.514648 C177.535803,537.981443 176.804365,537.231776 176.25293,536.265625 C175.701495,535.299474 175.291342,534.187506 175.022461,532.929688 C174.753579,531.671869 174.619141,530.272794 174.619141,528.732422 C174.619141,527.465488 174.708007,526.294276 174.885742,525.21875 C175.063477,524.143224 175.339191,523.167973 175.712891,522.292969 C176.08659,521.417964 176.549151,520.675133 177.100586,520.064453 C177.652021,519.453773 178.310543,518.982098 179.076172,518.649414 C179.841801,518.31673 180.694006,518.150391 181.632812,518.150391 C182.799485,518.150391 183.831701,518.405596 184.729492,518.916016 C185.627283,519.426435 186.356443,520.153316 186.916992,521.09668 C187.477542,522.040044 187.899087,523.152012 188.181641,524.432617 C188.464194,525.713223 188.605469,527.146476 188.605469,528.732422 C188.605469,530.272794 188.473309,531.671869 188.208984,532.929688 C187.94466,534.187506 187.539065,535.299474 186.992188,536.265625 C186.44531,537.231776 185.718429,537.981443 184.811523,538.514648 C183.904618,539.047854 182.845058,539.314453 181.632812,539.314453 Z M181.632812,520.228516 C180.70312,520.228516 179.905602,520.595374 179.240234,521.329102 C178.574866,522.062829 178.075848,523.056309 177.743164,524.30957 C177.41048,525.562832 177.244141,527.009757 177.244141,528.650391 C177.244141,530.318368 177.41048,531.792637 177.743164,533.073242 C178.075848,534.353848 178.574866,535.367835 179.240234,536.115234 C179.905602,536.862634 180.70312,537.236328 181.632812,537.236328 C182.562505,537.236328 183.360023,536.862634 184.025391,536.115234 C184.690759,535.367835 185.189777,534.353848 185.522461,533.073242 C185.855145,531.792637 186.021484,530.318368 186.021484,528.650391 C186.021484,527.009757 185.855145,525.562832 185.522461,524.30957 C185.189777,523.056309 184.690759,522.062829 184.025391,521.329102 C183.360023,520.595374 182.562505,520.228516 181.632812,520.228516 Z" id="200" fill="#000000"></path>
        <path d="M154.213867,305.546875 L154.022461,307.789062 L145.668945,307.789062 C145.577799,310.44142 145.50944,312.587882 145.463867,314.228516 C146.49382,313.572262 147.610346,313.244141 148.813477,313.244141 C149.8252,313.244141 150.729814,313.405923 151.527344,313.729492 C152.324874,314.053062 152.97656,314.497393 153.482422,315.0625 C153.988284,315.627607 154.373371,316.286129 154.637695,317.038086 C154.90202,317.790043 155.03418,318.603511 155.03418,319.478516 C155.03418,321.547536 154.3711,323.204095 153.044922,324.448242 C151.718743,325.692389 149.916353,326.314453 147.637695,326.314453 C145.349923,326.314453 143.517911,325.69011 142.141602,324.441406 L143.030273,322.513672 C144.379239,323.570969 145.942374,324.099609 147.719727,324.099609 C149.214526,324.099609 150.394852,323.675785 151.260742,322.828125 C152.126632,321.980465 152.55957,320.873054 152.55957,319.505859 C152.55957,318.284499 152.194991,317.293298 151.46582,316.532227 C150.73665,315.771155 149.697598,315.390625 148.348633,315.390625 C146.999668,315.390625 145.915043,315.841792 145.094727,316.744141 L143.194336,316.484375 L143.727539,305.546875 L154.213867,305.546875 Z M165.083008,326.314453 C163.870762,326.314453 162.808924,326.047854 161.897461,325.514648 C160.985998,324.981443 160.25456,324.231776 159.703125,323.265625 C159.15169,322.299474 158.741538,321.187506 158.472656,319.929688 C158.203775,318.671869 158.069336,317.272794 158.069336,315.732422 C158.069336,314.465488 158.158202,313.294276 158.335938,312.21875 C158.513673,311.143224 158.789386,310.167973 159.163086,309.292969 C159.536786,308.417964 159.999346,307.675133 160.550781,307.064453 C161.102216,306.453773 161.760738,305.982098 162.526367,305.649414 C163.291996,305.31673 164.144201,305.150391 165.083008,305.150391 C166.24968,305.150391 167.281897,305.405596 168.179688,305.916016 C169.077478,306.426435 169.806638,307.153316 170.367188,308.09668 C170.927737,309.040044 171.349282,310.152012 171.631836,311.432617 C171.914389,312.713223 172.055664,314.146476 172.055664,315.732422 C172.055664,317.272794 171.923504,318.671869 171.65918,319.929688 C171.394855,321.187506 170.989261,322.299474 170.442383,323.265625 C169.895505,324.231776 169.168624,324.981443 168.261719,325.514648 C167.354813,326.047854 166.295253,326.314453 165.083008,326.314453 Z M165.083008,307.228516 C164.153316,307.228516 163.355798,307.595374 162.69043,308.329102 C162.025062,309.062829 161.526043,310.056309 161.193359,311.30957 C160.860675,312.562832 160.694336,314.009757 160.694336,315.650391 C160.694336,317.318368 160.860675,318.792637 161.193359,320.073242 C161.526043,321.353848 162.025062,322.367835 162.69043,323.115234 C163.355798,323.862634 164.153316,324.236328 165.083008,324.236328 C166.0127,324.236328 166.810218,323.862634 167.475586,323.115234 C168.140954,322.367835 168.639972,321.353848 168.972656,320.073242 C169.30534,318.792637 169.47168,317.318368 169.47168,315.650391 C169.47168,314.009757 169.30534,312.562832 168.972656,311.30957 C168.639972,310.056309 168.140954,309.062829 167.475586,308.329102 C166.810218,307.595374 166.0127,307.228516 165.083008,307.228516 Z M182.049805,326.314453 C180.837559,326.314453 179.775721,326.047854 178.864258,325.514648 C177.952795,324.981443 177.221357,324.231776 176.669922,323.265625 C176.118487,322.299474 175.708335,321.187506 175.439453,319.929688 C175.170572,318.671869 175.036133,317.272794 175.036133,315.732422 C175.036133,314.465488 175.124999,313.294276 175.302734,312.21875 C175.48047,311.143224 175.756183,310.167973 176.129883,309.292969 C176.503583,308.417964 176.966143,307.675133 177.517578,307.064453 C178.069013,306.453773 178.727535,305.982098 179.493164,305.649414 C180.258793,305.31673 181.110998,305.150391 182.049805,305.150391 C183.216477,305.150391 184.248693,305.405596 185.146484,305.916016 C186.044275,306.426435 186.773435,307.153316 187.333984,308.09668 C187.894534,309.040044 188.316079,310.152012 188.598633,311.432617 C188.881186,312.713223 189.022461,314.146476 189.022461,315.732422 C189.022461,317.272794 188.890301,318.671869 188.625977,319.929688 C188.361652,321.187506 187.956057,322.299474 187.40918,323.265625 C186.862302,324.231776 186.135421,324.981443 185.228516,325.514648 C184.32161,326.047854 183.26205,326.314453 182.049805,326.314453 Z M182.049805,307.228516 C181.120113,307.228516 180.322594,307.595374 179.657227,308.329102 C178.991859,309.062829 178.49284,310.056309 178.160156,311.30957 C177.827472,312.562832 177.661133,314.009757 177.661133,315.650391 C177.661133,317.318368 177.827472,318.792637 178.160156,320.073242 C178.49284,321.353848 178.991859,322.367835 179.657227,323.115234 C180.322594,323.862634 181.120113,324.236328 182.049805,324.236328 C182.979497,324.236328 183.777015,323.862634 184.442383,323.115234 C185.107751,322.367835 185.606769,321.353848 185.939453,320.073242 C186.272137,318.792637 186.438477,317.318368 186.438477,315.650391 C186.438477,314.009757 186.272137,312.562832 185.939453,311.30957 C185.606769,310.056309 185.107751,309.062829 184.442383,308.329102 C183.777015,307.595374 182.979497,307.228516 182.049805,307.228516 Z" id="500" fill="#000000"></path>
        <path d="M147.774414,468.314453 C146.553054,468.314453 145.466151,468.15495 144.513672,467.835938 C143.561193,467.516925 142.866213,467.147789 142.428711,466.728516 L143.194336,464.71875 C144.479499,465.730474 146.010733,466.236328 147.788086,466.236328 C149.15528,466.236328 150.242183,465.896813 151.048828,465.217773 C151.855473,464.538734 152.258789,463.588548 152.258789,462.367188 C152.258789,461.70182 152.156251,461.120771 151.951172,460.624023 C151.746093,460.127276 151.472658,459.726239 151.130859,459.420898 C150.789061,459.115558 150.351565,458.869467 149.818359,458.682617 C149.285154,458.495767 148.738284,458.363607 148.177734,458.286133 C147.617185,458.208658 146.967777,458.160807 146.229492,458.142578 C146.138346,458.142578 146.001629,458.1403 145.819336,458.135742 C145.637043,458.131185 145.500326,458.128906 145.40918,458.128906 L145.40918,456.091797 L146.092773,456.091797 C146.730797,456.082682 147.293617,456.048503 147.78125,455.989258 C148.268883,455.930013 148.756508,455.822917 149.244141,455.667969 C149.731773,455.51302 150.13509,455.307944 150.454102,455.052734 C150.773114,454.797525 151.032877,454.455731 151.233398,454.027344 C151.43392,453.598956 151.53418,453.093102 151.53418,452.509766 C151.53418,450.322255 150.280937,449.228516 147.774414,449.228516 C146.872066,449.228516 146.024418,449.360676 145.231445,449.625 C144.438473,449.889324 143.759443,450.244789 143.194336,450.691406 L142.428711,448.695312 C143.786791,447.665359 145.741849,447.150391 148.293945,447.150391 C149.323898,447.150391 150.276363,447.339516 151.151367,447.717773 C152.026372,448.096031 152.746416,448.674801 153.311523,449.454102 C153.87663,450.233402 154.15918,451.14713 154.15918,452.195312 C154.15918,453.471361 153.84473,454.519527 153.21582,455.339844 C152.586911,456.16016 151.702805,456.748045 150.563477,457.103516 C151.839525,457.376954 152.83984,457.973954 153.564453,458.894531 C154.289066,459.815109 154.651367,460.981764 154.651367,462.394531 C154.651367,464.190113 154.008795,465.625646 152.723633,466.701172 C151.43847,467.776698 149.788747,468.314453 147.774414,468.314453 Z M164.577148,468.314453 C163.364903,468.314453 162.303064,468.047854 161.391602,467.514648 C160.480139,466.981443 159.748701,466.231776 159.197266,465.265625 C158.645831,464.299474 158.235678,463.187506 157.966797,461.929688 C157.697915,460.671869 157.563477,459.272794 157.563477,457.732422 C157.563477,456.465488 157.652343,455.294276 157.830078,454.21875 C158.007813,453.143224 158.283527,452.167973 158.657227,451.292969 C159.030926,450.417964 159.493487,449.675133 160.044922,449.064453 C160.596357,448.453773 161.254879,447.982098 162.020508,447.649414 C162.786137,447.31673 163.638342,447.150391 164.577148,447.150391 C165.743821,447.150391 166.776037,447.405596 167.673828,447.916016 C168.571619,448.426435 169.300778,449.153316 169.861328,450.09668 C170.421878,451.040044 170.843423,452.152012 171.125977,453.432617 C171.40853,454.713223 171.549805,456.146476 171.549805,457.732422 C171.549805,459.272794 171.417645,460.671869 171.15332,461.929688 C170.888996,463.187506 170.483401,464.299474 169.936523,465.265625 C169.389646,466.231776 168.662765,466.981443 167.755859,467.514648 C166.848954,468.047854 165.789394,468.314453 164.577148,468.314453 Z M164.577148,449.228516 C163.647456,449.228516 162.849938,449.595374 162.18457,450.329102 C161.519202,451.062829 161.020184,452.056309 160.6875,453.30957 C160.354816,454.562832 160.188477,456.009757 160.188477,457.650391 C160.188477,459.318368 160.354816,460.792637 160.6875,462.073242 C161.020184,463.353848 161.519202,464.367835 162.18457,465.115234 C162.849938,465.862634 163.647456,466.236328 164.577148,466.236328 C165.506841,466.236328 166.304359,465.862634 166.969727,465.115234 C167.635094,464.367835 168.134113,463.353848 168.466797,462.073242 C168.799481,460.792637 168.96582,459.318368 168.96582,457.650391 C168.96582,456.009757 168.799481,454.562832 168.466797,453.30957 C168.134113,452.056309 167.635094,451.062829 166.969727,450.329102 C166.304359,449.595374 165.506841,449.228516 164.577148,449.228516 Z M181.543945,468.314453 C180.3317,468.314453 179.269861,468.047854 178.358398,467.514648 C177.446936,466.981443 176.715498,466.231776 176.164062,465.265625 C175.612627,464.299474 175.202475,463.187506 174.933594,461.929688 C174.664712,460.671869 174.530273,459.272794 174.530273,457.732422 C174.530273,456.465488 174.61914,455.294276 174.796875,454.21875 C174.97461,453.143224 175.250324,452.167973 175.624023,451.292969 C175.997723,450.417964 176.460284,449.675133 177.011719,449.064453 C177.563154,448.453773 178.221676,447.982098 178.987305,447.649414 C179.752934,447.31673 180.605139,447.150391 181.543945,447.150391 C182.710618,447.150391 183.742834,447.405596 184.640625,447.916016 C185.538416,448.426435 186.267575,449.153316 186.828125,450.09668 C187.388675,451.040044 187.81022,452.152012 188.092773,453.432617 C188.375327,454.713223 188.516602,456.146476 188.516602,457.732422 C188.516602,459.272794 188.384441,460.671869 188.120117,461.929688 C187.855793,463.187506 187.450198,464.299474 186.90332,465.265625 C186.356443,466.231776 185.629562,466.981443 184.722656,467.514648 C183.815751,468.047854 182.756191,468.314453 181.543945,468.314453 Z M181.543945,449.228516 C180.614253,449.228516 179.816735,449.595374 179.151367,450.329102 C178.485999,451.062829 177.986981,452.056309 177.654297,453.30957 C177.321613,454.562832 177.155273,456.009757 177.155273,457.650391 C177.155273,459.318368 177.321613,460.792637 177.654297,462.073242 C177.986981,463.353848 178.485999,464.367835 179.151367,465.115234 C179.816735,465.862634 180.614253,466.236328 181.543945,466.236328 C182.473637,466.236328 183.271156,465.862634 183.936523,465.115234 C184.601891,464.367835 185.10091,463.353848 185.433594,462.073242 C185.766278,460.792637 185.932617,459.318368 185.932617,457.650391 C185.932617,456.009757 185.766278,454.562832 185.433594,453.30957 C185.10091,452.056309 184.601891,451.062829 183.936523,450.329102 C183.271156,449.595374 182.473637,449.228516 181.543945,449.228516 Z" id="300" fill="#000000"></path>
        <path d="M149.045898,242.408203 C150.194342,242.408203 151.25618,242.679359 152.231445,243.22168 C153.206711,243.764 153.990557,244.534175 154.583008,245.532227 C155.175459,246.530278 155.47168,247.639968 155.47168,248.861328 C155.47168,250.720712 154.845058,252.261062 153.591797,253.482422 C152.338535,254.703782 150.686534,255.314453 148.635742,255.314453 C147.569331,255.314453 146.596359,255.134442 145.716797,254.774414 C144.837235,254.414386 144.112633,253.926761 143.542969,253.311523 C142.973304,252.696286 142.531252,251.980798 142.216797,251.165039 C141.902342,250.34928 141.745117,249.476567 141.745117,248.546875 C141.745117,247.06119 142.016273,245.732753 142.558594,244.561523 C143.100914,243.390294 144.083001,241.90691 145.504883,240.111328 C145.851239,239.673826 146.398108,238.999354 147.145508,238.087891 C147.892907,237.176428 148.558265,236.374352 149.141602,235.681641 L150.00293,234.642578 L153.161133,234.642578 L145.969727,243.228516 C146.99968,242.681638 148.02506,242.408203 149.045898,242.408203 Z M144.329102,248.806641 C144.329102,249.617843 144.481769,250.351559 144.787109,251.007812 C145.092449,251.664066 145.57096,252.199542 146.222656,252.614258 C146.874352,253.028973 147.651363,253.236328 148.553711,253.236328 C149.902676,253.236328 150.962236,252.821619 151.732422,251.992188 C152.502608,251.162756 152.887695,250.132819 152.887695,248.902344 C152.887695,247.608066 152.502608,246.543949 151.732422,245.709961 C150.962236,244.875972 149.902676,244.458984 148.553711,244.458984 C147.122714,244.458984 146.060876,244.864579 145.368164,245.675781 C144.675452,246.486983 144.329102,247.530593 144.329102,248.806641 Z M165.233398,255.314453 C164.021153,255.314453 162.959314,255.047854 162.047852,254.514648 C161.136389,253.981443 160.404951,253.231776 159.853516,252.265625 C159.302081,251.299474 158.891928,250.187506 158.623047,248.929688 C158.354165,247.671869 158.219727,246.272794 158.219727,244.732422 C158.219727,243.465488 158.308593,242.294276 158.486328,241.21875 C158.664063,240.143224 158.939777,239.167973 159.313477,238.292969 C159.687176,237.417964 160.149737,236.675133 160.701172,236.064453 C161.252607,235.453773 161.911129,234.982098 162.676758,234.649414 C163.442387,234.31673 164.294592,234.150391 165.233398,234.150391 C166.400071,234.150391 167.432287,234.405596 168.330078,234.916016 C169.227869,235.426435 169.957028,236.153316 170.517578,237.09668 C171.078128,238.040044 171.499673,239.152012 171.782227,240.432617 C172.06478,241.713223 172.206055,243.146476 172.206055,244.732422 C172.206055,246.272794 172.073895,247.671869 171.80957,248.929688 C171.545246,250.187506 171.139651,251.299474 170.592773,252.265625 C170.045896,253.231776 169.319015,253.981443 168.412109,254.514648 C167.505204,255.047854 166.445644,255.314453 165.233398,255.314453 Z M165.233398,236.228516 C164.303706,236.228516 163.506188,236.595374 162.84082,237.329102 C162.175452,238.062829 161.676434,239.056309 161.34375,240.30957 C161.011066,241.562832 160.844727,243.009757 160.844727,244.650391 C160.844727,246.318368 161.011066,247.792637 161.34375,249.073242 C161.676434,250.353848 162.175452,251.367835 162.84082,252.115234 C163.506188,252.862634 164.303706,253.236328 165.233398,253.236328 C166.163091,253.236328 166.960609,252.862634 167.625977,252.115234 C168.291344,251.367835 168.790363,250.353848 169.123047,249.073242 C169.455731,247.792637 169.62207,246.318368 169.62207,244.650391 C169.62207,243.009757 169.455731,241.562832 169.123047,240.30957 C168.790363,239.056309 168.291344,238.062829 167.625977,237.329102 C166.960609,236.595374 166.163091,236.228516 165.233398,236.228516 Z M182.200195,255.314453 C180.98795,255.314453 179.926111,255.047854 179.014648,254.514648 C178.103186,253.981443 177.371748,253.231776 176.820312,252.265625 C176.268877,251.299474 175.858725,250.187506 175.589844,248.929688 C175.320962,247.671869 175.186523,246.272794 175.186523,244.732422 C175.186523,243.465488 175.27539,242.294276 175.453125,241.21875 C175.63086,240.143224 175.906574,239.167973 176.280273,238.292969 C176.653973,237.417964 177.116534,236.675133 177.667969,236.064453 C178.219404,235.453773 178.877926,234.982098 179.643555,234.649414 C180.409184,234.31673 181.261389,234.150391 182.200195,234.150391 C183.366868,234.150391 184.399084,234.405596 185.296875,234.916016 C186.194666,235.426435 186.923825,236.153316 187.484375,237.09668 C188.044925,238.040044 188.46647,239.152012 188.749023,240.432617 C189.031577,241.713223 189.172852,243.146476 189.172852,244.732422 C189.172852,246.272794 189.040691,247.671869 188.776367,248.929688 C188.512043,250.187506 188.106448,251.299474 187.55957,252.265625 C187.012693,253.231776 186.285812,253.981443 185.378906,254.514648 C184.472001,255.047854 183.412441,255.314453 182.200195,255.314453 Z M182.200195,236.228516 C181.270503,236.228516 180.472985,236.595374 179.807617,237.329102 C179.142249,238.062829 178.643231,239.056309 178.310547,240.30957 C177.977863,241.562832 177.811523,243.009757 177.811523,244.650391 C177.811523,246.318368 177.977863,247.792637 178.310547,249.073242 C178.643231,250.353848 179.142249,251.367835 179.807617,252.115234 C180.472985,252.862634 181.270503,253.236328 182.200195,253.236328 C183.129887,253.236328 183.927406,252.862634 184.592773,252.115234 C185.258141,251.367835 185.75716,250.353848 186.089844,249.073242 C186.422528,247.792637 186.588867,246.318368 186.588867,244.650391 C186.588867,243.009757 186.422528,241.562832 186.089844,240.30957 C185.75716,239.056309 185.258141,238.062829 184.592773,237.329102 C183.927406,236.595374 183.129887,236.228516 182.200195,236.228516 Z" id="600" fill="#000000"></path>
        <path d="M144.910156,185 L151.9375,166.666016 L142.708984,166.666016 L142.859375,164.546875 L154.712891,164.546875 L154.712891,166.40625 L147.398438,185 L144.910156,185 Z M164.228516,185.314453 C163.01627,185.314453 161.954432,185.047854 161.042969,184.514648 C160.131506,183.981443 159.400068,183.231776 158.848633,182.265625 C158.297198,181.299474 157.887046,180.187506 157.618164,178.929688 C157.349283,177.671869 157.214844,176.272794 157.214844,174.732422 C157.214844,173.465488 157.30371,172.294276 157.481445,171.21875 C157.659181,170.143224 157.934894,169.167973 158.308594,168.292969 C158.682294,167.417964 159.144854,166.675133 159.696289,166.064453 C160.247724,165.453773 160.906246,164.982098 161.671875,164.649414 C162.437504,164.31673 163.289709,164.150391 164.228516,164.150391 C165.395188,164.150391 166.427404,164.405596 167.325195,164.916016 C168.222986,165.426435 168.952146,166.153316 169.512695,167.09668 C170.073245,168.040044 170.49479,169.152012 170.777344,170.432617 C171.059897,171.713223 171.201172,173.146476 171.201172,174.732422 C171.201172,176.272794 171.069012,177.671869 170.804688,178.929688 C170.540363,180.187506 170.134768,181.299474 169.587891,182.265625 C169.041013,183.231776 168.314132,183.981443 167.407227,184.514648 C166.500321,185.047854 165.440761,185.314453 164.228516,185.314453 Z M164.228516,166.228516 C163.298823,166.228516 162.501305,166.595374 161.835938,167.329102 C161.17057,168.062829 160.671551,169.056309 160.338867,170.30957 C160.006183,171.562832 159.839844,173.009757 159.839844,174.650391 C159.839844,176.318368 160.006183,177.792637 160.338867,179.073242 C160.671551,180.353848 161.17057,181.367835 161.835938,182.115234 C162.501305,182.862634 163.298823,183.236328 164.228516,183.236328 C165.158208,183.236328 165.955726,182.862634 166.621094,182.115234 C167.286462,181.367835 167.78548,180.353848 168.118164,179.073242 C168.450848,177.792637 168.617188,176.318368 168.617188,174.650391 C168.617188,173.009757 168.450848,171.562832 168.118164,170.30957 C167.78548,169.056309 167.286462,168.062829 166.621094,167.329102 C165.955726,166.595374 165.158208,166.228516 164.228516,166.228516 Z M181.195312,185.314453 C179.983067,185.314453 178.921229,185.047854 178.009766,184.514648 C177.098303,183.981443 176.366865,183.231776 175.81543,182.265625 C175.263995,181.299474 174.853842,180.187506 174.584961,178.929688 C174.316079,177.671869 174.181641,176.272794 174.181641,174.732422 C174.181641,173.465488 174.270507,172.294276 174.448242,171.21875 C174.625977,170.143224 174.901691,169.167973 175.275391,168.292969 C175.64909,167.417964 176.111651,166.675133 176.663086,166.064453 C177.214521,165.453773 177.873043,164.982098 178.638672,164.649414 C179.404301,164.31673 180.256506,164.150391 181.195312,164.150391 C182.361985,164.150391 183.394201,164.405596 184.291992,164.916016 C185.189783,165.426435 185.918943,166.153316 186.479492,167.09668 C187.040042,168.040044 187.461587,169.152012 187.744141,170.432617 C188.026694,171.713223 188.167969,173.146476 188.167969,174.732422 C188.167969,176.272794 188.035809,177.671869 187.771484,178.929688 C187.50716,180.187506 187.101565,181.299474 186.554688,182.265625 C186.00781,183.231776 185.280929,183.981443 184.374023,184.514648 C183.467118,185.047854 182.407558,185.314453 181.195312,185.314453 Z M181.195312,166.228516 C180.26562,166.228516 179.468102,166.595374 178.802734,167.329102 C178.137366,168.062829 177.638348,169.056309 177.305664,170.30957 C176.97298,171.562832 176.806641,173.009757 176.806641,174.650391 C176.806641,176.318368 176.97298,177.792637 177.305664,179.073242 C177.638348,180.353848 178.137366,181.367835 178.802734,182.115234 C179.468102,182.862634 180.26562,183.236328 181.195312,183.236328 C182.125005,183.236328 182.922523,182.862634 183.587891,182.115234 C184.253259,181.367835 184.752277,180.353848 185.084961,179.073242 C185.417645,177.792637 185.583984,176.318368 185.583984,174.650391 C185.583984,173.009757 185.417645,171.562832 185.084961,170.30957 C184.752277,169.056309 184.253259,168.062829 183.587891,167.329102 C182.922523,166.595374 182.125005,166.228516 181.195312,166.228516 Z" id="700" fill="#000000"></path>
        <polyline id="Path-2" stroke="#4C7EF3" stroke-width="7" points="941.710938 576.625 830.804688 573.8125 718.960938 569.335938 606.21875 567.203125 497.515625 561.90625 388.40625 506.828125 272.609375 220.78125"></polyline>
        <circle id="Oval" fill="#4C7EF3" cx="940.5" cy="576.5" r="10.5"></circle>
        <circle id="Oval" fill="#4C7EF3" cx="831.5" cy="573.5" r="10.5"></circle>
        <circle id="Oval" fill="#4C7EF3" cx="721.5" cy="569.5" r="10.5"></circle>
        <circle id="Oval" fill="#4C7EF3" cx="610.5" cy="567.5" r="10.5"></circle>
        <circle id="Oval" fill="#4C7EF3" cx="500.5" cy="560.5" r="10.5"></circle>
        <circle id="Oval" fill="#4C7EF3" cx="387.5" cy="502.5" r="10.5"></circle>
        <circle id="Oval" fill="#4C7EF3" cx="273.5" cy="221.5" r="10.5"></circle>
    </g>
</svg>