<?xml version="1.0" encoding="UTF-8"?>
<svg width="330px" height="191px" viewBox="0 0 330 191" version="1.1" xmlns="http://www.w3.org/2000/svg" xmlns:xlink="http://www.w3.org/1999/xlink">
    <!-- Generator: Sketch 52.2 (67145) - http://www.bohemiancoding.com/sketch -->
    <title>histogram v2</title>
    <desc>Created with Sketch.</desc>
    <g id="histogram-v2" stroke="none" stroke-width="1" fill="none" fill-rule="evenodd">
        <rect fill="#FFFFFF" x="0" y="0" width="330" height="191"></rect>
        <g id="Group" transform="translate(43.000000, 11.000000)">
            <rect id="Rectangle" fill="#EF95EF" fill-rule="nonzero" x="31" y="7" width="27" height="133"></rect>
            <rect id="Rectangle-Copy" fill="#EF95EF" fill-rule="nonzero" x="59" y="74" width="27" height="66"></rect>
            <rect id="Rectangle-Copy-2" fill="#EF95EF" fill-rule="nonzero" x="87" y="107" width="27" height="33"></rect>
            <rect id="Rectangle-Copy-3" fill="#EF95EF" fill-rule="nonzero" x="115" y="42" width="27" height="98"></rect>
            <rect id="Rectangle-Copy-5" fill="#EF95EF" fill-rule="nonzero" x="171" y="107" width="27" height="33"></rect>
            <rect id="Rectangle-Copy-6" fill="#EF95EF" fill-rule="nonzero" x="199" y="74" width="27" height="66"></rect>
            <path d="M16,107.5 L30,107.5" id="Line-Copy" stroke="#000000" stroke-width="2" stroke-linecap="round" fill-rule="nonzero"></path>
            <path d="M16,74.5 L30,74.5" id="Line-Copy-2" stroke="#000000" stroke-width="2" stroke-linecap="round" fill-rule="nonzero"></path>
            <path d="M16,41.5 L30,41.5" id="Line-Copy-3" stroke="#000000" stroke-width="2" stroke-linecap="round" fill-rule="nonzero"></path>
            <path d="M16,8.5 L30,8.5" id="Line-Copy-4" stroke="#000000" stroke-width="2" stroke-linecap="round" fill-rule="nonzero"></path>
            <path d="M10.0263672,9.82617188 L9.03027344,9.82617188 L9.03027344,12 L8.04589844,12 L8.04589844,9.82617188 L4.08496094,9.82617188 L4.08496094,8.9296875 L7.93457031,3.234375 L9.03027344,3.234375 L9.03027344,8.9765625 L10.1083984,8.9765625 L10.0263672,9.82617188 Z M8.04589844,4.56445312 L5.11621094,8.9765625 L8.04589844,8.9765625 L8.04589844,4.56445312 Z" id="4" fill="#000000"></path>
            <path d="M6.67480469,45.1347656 C6.15136457,45.1347656 5.68554892,45.0664069 5.27734375,44.9296875 C4.86913858,44.7929681 4.57129,44.6347665 4.38378906,44.4550781 L4.71191406,43.59375 C5.26269807,44.0273459 5.9189415,44.2441406 6.68066406,44.2441406 C7.26660449,44.2441406 7.73242015,44.0986343 8.078125,43.8076172 C8.42382985,43.5166001 8.59667969,43.1093776 8.59667969,42.5859375 C8.59667969,42.3007798 8.55273481,42.0517589 8.46484375,41.8388672 C8.37695269,41.6259755 8.25976636,41.4541022 8.11328125,41.3232422 C7.96679614,41.1923822 7.77929802,41.0869145 7.55078125,41.0068359 C7.32226448,40.9267574 7.08789183,40.8701174 6.84765625,40.8369141 C6.60742067,40.8037108 6.32910314,40.7832032 6.01269531,40.7753906 C5.97363262,40.7753906 5.91503945,40.7744141 5.83691406,40.7724609 C5.75878867,40.7705078 5.70019551,40.7695312 5.66113281,40.7695312 L5.66113281,39.8964844 L5.95410156,39.8964844 C6.22754043,39.8925781 6.46874896,39.8779298 6.67773438,39.8525391 C6.88671979,39.8271483 7.09570208,39.7812503 7.3046875,39.7148438 C7.51367292,39.6484372 7.68652275,39.5605474 7.82324219,39.4511719 C7.95996162,39.3417963 8.07128863,39.1953134 8.15722656,39.0117188 C8.24316449,38.8281241 8.28613281,38.6113294 8.28613281,38.3613281 C8.28613281,37.4238234 7.74902881,36.9550781 6.67480469,36.9550781 C6.288084,36.9550781 5.92480639,37.0117182 5.58496094,37.125 C5.24511549,37.2382818 4.95410277,37.390624 4.71191406,37.5820312 L4.38378906,36.7265625 C4.96582322,36.285154 5.80370547,36.0644531 6.89746094,36.0644531 C7.33886939,36.0644531 7.74706844,36.145507 8.12207031,36.3076172 C8.49707219,36.4697274 8.80566285,36.7177718 9.04785156,37.0517578 C9.29004027,37.3857439 9.41113281,37.7773415 9.41113281,38.2265625 C9.41113281,38.7734402 9.27636854,39.2226545 9.00683594,39.5742188 C8.73730334,39.925783 8.35840088,40.1777336 7.87011719,40.3300781 C8.41699492,40.4472662 8.84570157,40.703123 9.15625,41.0976562 C9.46679843,41.4921895 9.62207031,41.9921845 9.62207031,42.5976562 C9.62207031,43.3671913 9.34668244,43.9824196 8.79589844,44.4433594 C8.24511443,44.9042992 7.53809025,45.1347656 6.67480469,45.1347656 Z" id="3" fill="#000000"></path>
            <path d="M4.39257812,78 L4.2578125,77.0390625 L7.28710938,73.6757812 C7.49023539,73.4492176 7.68652249,73.1562518 7.87597656,72.796875 C8.06543063,72.4374982 8.20312457,72.1328137 8.2890625,71.8828125 L8.42382812,71.5136719 C8.42382812,71.0292945 8.28906385,70.6533217 8.01953125,70.3857422 C7.74999865,70.1181627 7.36718998,69.984375 6.87109375,69.984375 C6.04296461,69.984375 5.39062738,70.224607 4.9140625,70.7050781 L4.57421875,69.8261719 C5.11328395,69.3183568 5.90233855,69.0644531 6.94140625,69.0644531 C7.73828523,69.0644531 8.37304451,69.2802713 8.84570312,69.7119141 C9.31836174,70.1435568 9.5546875,70.7206995 9.5546875,71.4433594 C9.53906242,71.4980471 9.51562516,71.5712886 9.484375,71.6630859 C9.45312484,71.7548833 9.38574271,71.9335924 9.28222656,72.1992188 C9.17871042,72.4648451 9.07031307,72.7167957 8.95703125,72.9550781 C8.84374943,73.1933606 8.70019618,73.4550767 8.52636719,73.7402344 C8.35253819,74.0253921 8.17578215,74.2636709 7.99609375,74.4550781 L5.5234375,77.0976562 L9.58398438,77.0976562 L9.51953125,78 L4.39257812,78 Z" id="2" fill="#000000"></path>
            <path d="M6.93554688,102.234375 L7.8671875,102.234375 L7.8671875,111 L6.83007812,111 L6.83007812,103.318359 C6.4355449,103.576173 5.95312785,103.796874 5.3828125,103.980469 L5.3828125,103.001953 C5.44531281,102.974609 5.57226467,102.919922 5.76367188,102.837891 C5.95507908,102.755859 6.09863233,102.69336 6.19433594,102.650391 C6.29003954,102.607422 6.41015553,102.546875 6.5546875,102.46875 C6.69921947,102.390625 6.82617133,102.3125 6.93554688,102.234375 Z" id="1" fill="#000000"></path>
            <path d="M8.36816406,142.794922 C7.98144338,143.021486 7.52832291,143.134766 7.00878906,143.134766 C6.48925521,143.134766 6.03418164,143.020509 5.64355469,142.791992 C5.25292773,142.563475 4.93945431,142.24219 4.703125,141.828125 C4.46679569,141.41406 4.2910162,140.937503 4.17578125,140.398438 C4.0605463,139.859372 4.00292969,139.259769 4.00292969,138.599609 C4.00292969,138.056638 4.04101524,137.55469 4.1171875,137.09375 C4.19335976,136.63281 4.31152264,136.214846 4.47167969,135.839844 C4.63183674,135.464842 4.83007694,135.146486 5.06640625,134.884766 C5.30273556,134.623046 5.5849593,134.420899 5.91308594,134.27832 C6.24121258,134.135741 6.6064433,134.064453 7.00878906,134.064453 C7.50879156,134.064453 7.95116995,134.173827 8.3359375,134.392578 C8.72070505,134.611329 9.03320192,134.92285 9.2734375,135.327148 C9.51367308,135.731447 9.69433533,136.208005 9.81542969,136.756836 C9.93652404,137.305667 9.99707031,137.919918 9.99707031,138.599609 C9.99707031,139.259769 9.94043025,139.859372 9.82714844,140.398438 C9.71386662,140.937503 9.54004023,141.41406 9.30566406,141.828125 C9.07128789,142.24219 8.75879102,142.564452 8.36816406,142.794922 Z M8.03417969,135.429688 C7.74902201,135.11328 7.40722855,134.955078 7.00878906,134.955078 C6.61034957,134.955078 6.26855611,135.112303 5.98339844,135.426758 C5.69824076,135.741213 5.48437571,136.16699 5.34179688,136.704102 C5.19921804,137.241214 5.12792969,137.861325 5.12792969,138.564453 C5.12792969,139.2793 5.19921804,139.91113 5.34179688,140.459961 C5.48437571,141.008792 5.69824076,141.443358 5.98339844,141.763672 C6.26855611,142.083986 6.61034957,142.244141 7.00878906,142.244141 C7.40722855,142.244141 7.74902201,142.083986 8.03417969,141.763672 C8.31933736,141.443358 8.53320241,141.008792 8.67578125,140.459961 C8.81836009,139.91113 8.88964844,139.2793 8.88964844,138.564453 C8.88964844,137.861325 8.81836009,137.241214 8.67578125,136.704102 C8.53320241,136.16699 8.31933736,135.742189 8.03417969,135.429688 Z" id="0" fill="#000000"></path>
        </g>
        <path d="M105.4375,53.9282625 L105.4375,53.9282625 C107.562105,55.1657604 110.187895,55.1657604 112.3125,53.9282625 L112.3125,53.9282625 C114.437105,52.6907645 117.062895,52.6907645 119.1875,53.9282625 L119.1875,53.9282625 C121.312105,55.1657604 123.937895,55.1657604 126.0625,53.9282625 L126.0625,53.9282625 C128.187105,52.6907645 130.812895,52.6907645 132.9375,53.9282625 L132.9375,53.9282625 C135.062105,55.1657604 137.687895,55.1657604 139.8125,53.9282625 L139.8125,53.9282625 C141.937105,52.6907645 144.562895,52.6907645 146.6875,53.9282625 L146.6875,53.9282625 C148.812105,55.1657604 151.437895,55.1657604 153.5625,53.9282625 L153.5625,53.9282625 C154.653753,53.2926511 156.053653,53.6620213 156.689264,54.753274 C156.892778,55.1026774 157,55.4997983 157,55.9041502 L157,119 L129.214844,119 L129,85.3066051 L102,85.3066051 L102,55.9041502 C102,54.6412828 103.023756,53.6175264 104.286624,53.6175264 C104.690976,53.6175264 105.088097,53.7247489 105.4375,53.9282625 Z" id="Rectangle" fill="#4C7EF3" fill-rule="nonzero"></path>
        <path d="M189.4375,86.9282625 L189.4375,86.9282625 C191.562105,88.1657604 194.187895,88.1657604 196.3125,86.9282625 L196.3125,86.9282625 C198.437105,85.6907645 201.062895,85.6907645 203.1875,86.9282625 L203.1875,86.9282625 C205.312105,88.1657604 207.937895,88.1657604 210.0625,86.9282625 L210.0625,86.9282625 C212.187105,85.6907645 214.812895,85.6907645 216.9375,86.9282625 L216.9375,86.9282625 C219.062105,88.1657604 221.687895,88.1657604 223.8125,86.9282625 L223.8125,86.9282625 C225.937105,85.6907645 228.562895,85.6907645 230.6875,86.9282625 L230.6875,86.9282625 C232.812105,88.1657604 235.437895,88.1657604 237.5625,86.9282625 L237.5625,86.9282625 C238.653753,86.2926511 240.053653,86.6620213 240.689264,87.753274 C240.892778,88.1026774 241,88.4997983 241,88.9041502 L241,152 L213.214844,152 L213,118.306605 L186,118.306605 L186,88.9041502 C186,87.6412828 187.023756,86.6175264 188.286624,86.6175264 C188.690976,86.6175264 189.088097,86.7247489 189.4375,86.9282625 Z" id="Rectangle-Copy-4" fill="#4C7EF3" fill-rule="nonzero" transform="translate(213.500000, 119.000000) scale(-1, 1) translate(-213.500000, -119.000000) "></path>
        <path d="M59,151.5 L283.617188,151.5" id="Line" stroke="#000000" stroke-width="2" stroke-linecap="round" fill-rule="nonzero"></path>
        <path d="M114.391562,74.9931641 L114.391562,66.6601562 C114.32776,66.7011721 114.032678,66.8321929 113.506308,67.0532227 C112.979938,67.2742524 112.682578,67.3938801 112.614218,67.4121094 L112.614218,66.0449219 C112.723594,65.9947914 113.069945,65.8227554 113.653281,65.5288086 C114.236617,65.2348618 114.557903,65.067383 114.617148,65.0263672 L116.121054,65.0263672 L116.121054,74.9931641 L114.391562,74.9931641 Z" id="1" fill="#FFFFFF"></path>
        <path d="M139.643515,90 L139.602499,88.5234375 L142.767539,84.9414062 C143.159468,84.5221333 143.445435,84.1359067 143.625449,83.7827148 C143.805463,83.429523 143.895468,83.0569681 143.895468,82.6650391 C143.895468,82.2320942 143.754194,81.8868828 143.47164,81.6293945 C143.189087,81.3719063 142.817671,81.2431641 142.357382,81.2431641 C141.933552,81.2431641 141.515425,81.3217766 141.102988,81.4790039 C140.690551,81.6362313 140.352175,81.8333321 140.087851,82.0703125 L139.575156,80.7167969 C140.258753,80.1152314 141.220332,79.8144531 142.459921,79.8144531 C143.444301,79.8144531 144.236123,80.0616837 144.83541,80.5561523 C145.434697,81.050621 145.734335,81.7490189 145.734335,82.6513672 C145.734335,83.2893912 145.564578,83.8977836 145.225058,84.4765625 C144.885538,85.0553414 144.421838,85.6500621 143.833945,86.2607422 L141.578085,88.6533203 L145.618124,88.6533203 L145.495078,90 L139.643515,90 Z" id="2" fill="#FFFFFF"></path>
        <path d="M196.643515,125 L196.602499,123.523438 L199.767539,119.941406 C200.159468,119.522133 200.445435,119.135907 200.625449,118.782715 C200.805463,118.429523 200.895468,118.056968 200.895468,117.665039 C200.895468,117.232094 200.754194,116.886883 200.47164,116.629395 C200.189087,116.371906 199.817671,116.243164 199.357382,116.243164 C198.933552,116.243164 198.515425,116.321777 198.102988,116.479004 C197.690551,116.636231 197.352175,116.833332 197.087851,117.070312 L196.575156,115.716797 C197.258753,115.115231 198.220332,114.814453 199.459921,114.814453 C200.444301,114.814453 201.236123,115.061684 201.83541,115.556152 C202.434697,116.050621 202.734335,116.749019 202.734335,117.651367 C202.734335,118.289391 202.564578,118.897784 202.225058,119.476562 C201.885538,120.055341 201.421838,120.650062 200.833945,121.260742 L198.578085,123.65332 L202.618124,123.65332 L202.495078,125 L196.643515,125 Z" id="2-copy" fill="#FFFFFF"></path>
        <path d="M227.391562,107.993164 L227.391562,99.6601562 C227.32776,99.7011721 227.032678,99.8321929 226.506308,100.053223 C225.979938,100.274252 225.682578,100.39388 225.614218,100.412109 L225.614218,99.0449219 C225.723594,98.9947914 226.069944,98.8227554 226.653281,98.5288086 C227.236617,98.2348618 227.557903,98.067383 227.617148,98.0263672 L229.121054,98.0263672 L229.121054,107.993164 L227.391562,107.993164 Z" id="1" fill="#FFFFFF"></path>
        <path d="M68.9956636,173.716797 L66.3413668,173.716797 L66.3413668,163.310547 L68.9956636,163.310547 L68.9956636,164.083984 L67.3550386,164.083984 L67.3550386,172.943359 L68.9956636,172.943359 L68.9956636,173.716797 Z M89.9527731,169.826172 L88.9566793,169.826172 L88.9566793,172 L87.9723043,172 L87.9723043,169.826172 L84.0113668,169.826172 L84.0113668,168.929688 L87.8609762,163.234375 L88.9566793,163.234375 L88.9566793,168.976562 L90.0348043,168.976562 L89.9527731,169.826172 Z M87.9723043,164.564453 L85.0426168,168.976562 L87.9723043,168.976562 L87.9723043,164.564453 Z M96.5729294,173.628906 C96.5846482,173.515624 96.6188275,173.215823 96.6754684,172.729492 C96.7321094,172.243162 96.7760542,171.833986 96.8073044,171.501953 C96.8385545,171.16992 96.8619918,170.878907 96.8776169,170.628906 L98.0319138,170.628906 L98.0319138,170.886719 C97.8405066,171.66016 97.5592594,172.574213 97.1881638,173.628906 L96.5729294,173.628906 Z M113.469492,172 L113.334726,171.039062 L116.364023,167.675781 C116.567149,167.449218 116.763436,167.156252 116.95289,166.796875 C117.142344,166.437498 117.280038,166.132814 117.365976,165.882812 L117.500742,165.513672 C117.500742,165.029294 117.365978,164.653322 117.096445,164.385742 C116.826912,164.118163 116.444104,163.984375 115.948008,163.984375 C115.119878,163.984375 114.467541,164.224607 113.990976,164.705078 L113.651133,163.826172 C114.190198,163.318357 114.979252,163.064453 116.01832,163.064453 C116.815199,163.064453 117.449958,163.280271 117.922617,163.711914 C118.395276,164.143557 118.631601,164.7207 118.631601,165.443359 C118.615976,165.498047 118.592539,165.571289 118.561289,165.663086 C118.530039,165.754883 118.462657,165.933592 118.35914,166.199219 C118.255624,166.464845 118.147227,166.716796 118.033945,166.955078 C117.920663,167.193361 117.77711,167.455077 117.603281,167.740234 C117.429452,168.025392 117.252696,168.263671 117.073008,168.455078 L114.600351,171.097656 L118.660898,171.097656 L118.596445,172 L113.469492,172 Z M125.445117,173.628906 C125.456836,173.515624 125.491015,173.215823 125.547656,172.729492 C125.604297,172.243162 125.648242,171.833986 125.679492,171.501953 C125.710742,171.16992 125.734179,170.878907 125.749804,170.628906 L126.904101,170.628906 L126.904101,170.886719 C126.712694,171.66016 126.431447,172.574213 126.060351,173.628906 L125.445117,173.628906 Z M143.449101,163.234375 L144.380742,163.234375 L144.380742,172 L143.343633,172 L143.343633,164.318359 C142.949099,164.576173 142.466682,164.796874 141.896367,164.980469 L141.896367,164.001953 C141.958867,163.974609 142.085819,163.919922 142.277226,163.837891 C142.468634,163.755859 142.612187,163.69336 142.707891,163.650391 C142.803594,163.607422 142.92371,163.546875 143.068242,163.46875 C143.212774,163.390625 143.339726,163.3125 143.449101,163.234375 Z M151.446211,173.628906 C151.45793,173.515624 151.492109,173.215823 151.54875,172.729492 C151.605391,172.243162 151.649336,171.833986 151.680586,171.501953 C151.711836,171.16992 151.735273,170.878907 151.750898,170.628906 L152.905195,170.628906 L152.905195,170.886719 C152.713788,171.66016 152.432541,172.574213 152.061445,173.628906 L151.446211,173.628906 Z M170.586914,172.134766 C170.063474,172.134766 169.597658,172.066407 169.189453,171.929688 C168.781248,171.792968 168.483399,171.634767 168.295898,171.455078 L168.624023,170.59375 C169.174807,171.027346 169.831051,171.244141 170.592773,171.244141 C171.178714,171.244141 171.64453,171.098634 171.990234,170.807617 C172.335939,170.5166 172.508789,170.109378 172.508789,169.585938 C172.508789,169.30078 172.464844,169.051759 172.376953,168.838867 C172.289062,168.625975 172.171876,168.454102 172.025391,168.323242 C171.878906,168.192382 171.691407,168.086914 171.462891,168.006836 C171.234374,167.926757 171.000001,167.870117 170.759766,167.836914 C170.51953,167.803711 170.241213,167.783203 169.924805,167.775391 C169.885742,167.775391 169.827149,167.774414 169.749023,167.772461 C169.670898,167.770508 169.612305,167.769531 169.573242,167.769531 L169.573242,166.896484 L169.866211,166.896484 C170.13965,166.892578 170.380858,166.87793 170.589844,166.852539 C170.798829,166.827148 171.007811,166.78125 171.216797,166.714844 C171.425782,166.648437 171.598632,166.560547 171.735352,166.451172 C171.872071,166.341796 171.983398,166.195313 172.069336,166.011719 C172.155274,165.828124 172.198242,165.611329 172.198242,165.361328 C172.198242,164.423823 171.661138,163.955078 170.586914,163.955078 C170.200193,163.955078 169.836916,164.011718 169.49707,164.125 C169.157225,164.238282 168.866212,164.390624 168.624023,164.582031 L168.295898,163.726562 C168.877933,163.285154 169.715815,163.064453 170.80957,163.064453 C171.250979,163.064453 171.659178,163.145507 172.03418,163.307617 C172.409182,163.469727 172.717772,163.717772 172.959961,164.051758 C173.20215,164.385744 173.323242,164.777342 173.323242,165.226562 C173.323242,165.77344 173.188478,166.222654 172.918945,166.574219 C172.649413,166.925783 172.27051,167.177734 171.782227,167.330078 C172.329104,167.447266 172.757811,167.703123 173.068359,168.097656 C173.378908,168.492189 173.53418,168.992184 173.53418,169.597656 C173.53418,170.367191 173.258792,170.98242 172.708008,171.443359 C172.157224,171.904299 171.4502,172.134766 170.586914,172.134766 Z M180.242227,173.628906 C180.253945,173.515624 180.288125,173.215823 180.344766,172.729492 C180.401407,172.243162 180.445351,171.833986 180.476602,171.501953 C180.507852,171.16992 180.531289,170.878907 180.546914,170.628906 L181.701211,170.628906 L181.701211,170.886719 C181.509804,171.66016 181.228557,172.574213 180.857461,173.628906 L180.242227,173.628906 Z M201.480586,171.794922 C201.093865,172.021486 200.640745,172.134766 200.121211,172.134766 C199.601677,172.134766 199.146604,172.020509 198.755977,171.791992 C198.36535,171.563475 198.051876,171.24219 197.815547,170.828125 C197.579218,170.41406 197.403438,169.937503 197.288203,169.398438 C197.172968,168.859372 197.115352,168.259769 197.115352,167.599609 C197.115352,167.056638 197.153437,166.55469 197.229609,166.09375 C197.305782,165.63281 197.423945,165.214846 197.584102,164.839844 C197.744259,164.464842 197.942499,164.146486 198.178828,163.884766 C198.415158,163.623046 198.697381,163.420899 199.025508,163.27832 C199.353635,163.135741 199.718865,163.064453 200.121211,163.064453 C200.621214,163.064453 201.063592,163.173827 201.448359,163.392578 C201.833127,163.611329 202.145624,163.92285 202.385859,164.327148 C202.626095,164.731447 202.806757,165.208005 202.927852,165.756836 C203.048946,166.305667 203.109492,166.919918 203.109492,167.599609 C203.109492,168.259769 203.052852,168.859372 202.93957,169.398438 C202.826289,169.937503 202.652462,170.41406 202.418086,170.828125 C202.18371,171.24219 201.871213,171.564452 201.480586,171.794922 Z M201.146602,164.429688 C200.861444,164.11328 200.519651,163.955078 200.121211,163.955078 C199.722772,163.955078 199.380978,164.112303 199.09582,164.426758 C198.810663,164.741213 198.596798,165.16699 198.454219,165.704102 C198.31164,166.241214 198.240352,166.861325 198.240352,167.564453 C198.240352,168.2793 198.31164,168.91113 198.454219,169.459961 C198.596798,170.008792 198.810663,170.443358 199.09582,170.763672 C199.380978,171.083986 199.722772,171.244141 200.121211,171.244141 C200.519651,171.244141 200.861444,171.083986 201.146602,170.763672 C201.431759,170.443358 201.645624,170.008792 201.788203,169.459961 C201.930782,168.91113 202.00207,168.2793 202.00207,167.564453 C202.00207,166.861325 201.930782,166.241214 201.788203,165.704102 C201.645624,165.16699 201.431759,164.742189 201.146602,164.429688 Z M209.846836,173.628906 C209.858555,173.515624 209.892734,173.215823 209.949375,172.729492 C210.006016,172.243162 210.049961,171.833986 210.081211,171.501953 C210.112461,171.16992 210.135899,170.878907 210.151524,170.628906 L211.30582,170.628906 L211.30582,170.886719 C211.114413,171.66016 210.833166,172.574213 210.46207,173.628906 L209.846836,173.628906 Z M227.850821,163.234375 L228.782461,163.234375 L228.782461,172 L227.745352,172 L227.745352,164.318359 C227.350819,164.576173 226.868402,164.796874 226.298086,164.980469 L226.298086,164.001953 C226.360586,163.974609 226.487538,163.919922 226.678946,163.837891 C226.870353,163.755859 227.013906,163.69336 227.10961,163.650391 C227.205313,163.607422 227.325429,163.546875 227.469961,163.46875 C227.614493,163.390625 227.741445,163.3125 227.850821,163.234375 Z M235.84793,173.628906 C235.859649,173.515624 235.893828,173.215823 235.950469,172.729492 C236.00711,172.243162 236.051055,171.833986 236.082305,171.501953 C236.113555,171.16992 236.136992,170.878907 236.152617,170.628906 L237.306914,170.628906 L237.306914,170.886719 C237.115507,171.66016 236.83426,172.574213 236.463164,173.628906 L235.84793,173.628906 Z M252.744493,172 L252.609727,171.039062 L255.639024,167.675781 C255.84215,167.449218 256.038437,167.156252 256.227891,166.796875 C256.417345,166.437498 256.555039,166.132814 256.640977,165.882812 L256.775743,165.513672 C256.775743,165.029294 256.640978,164.653322 256.371446,164.385742 C256.101913,164.118163 255.719104,163.984375 255.223008,163.984375 C254.394879,163.984375 253.742542,164.224607 253.265977,164.705078 L252.926133,163.826172 C253.465198,163.318357 254.254253,163.064453 255.293321,163.064453 C256.0902,163.064453 256.724959,163.280271 257.197618,163.711914 C257.670276,164.143557 257.906602,164.7207 257.906602,165.443359 C257.890977,165.498047 257.86754,165.571289 257.836289,165.663086 C257.805039,165.754883 257.737657,165.933592 257.634141,166.199219 C257.530625,166.464845 257.422227,166.716796 257.308946,166.955078 C257.195664,167.193361 257.052111,167.455077 256.878282,167.740234 C256.704453,168.025392 256.527697,168.263671 256.348008,168.455078 L253.875352,171.097656 L257.935899,171.097656 L257.871446,172 L252.744493,172 Z M273.004336,172.943359 L274.644961,172.943359 L274.644961,164.083984 L273.004336,164.083984 L273.004336,163.310547 L275.658633,163.310547 L275.658633,173.716797 L273.004336,173.716797 L273.004336,172.943359 Z" id="[-4,-2,-1,-3,-0,-1," fill="#000000"></path>
        <circle id="Oval" stroke="#FFFFFF" fill-rule="nonzero" cx="149.5" cy="64.5" r="1.5"></circle>
        <circle id="Oval-Copy" stroke="#FFFFFF" fill-rule="nonzero" cx="137.5" cy="109.5" r="1.5"></circle>
        <circle id="Oval-Copy-3" stroke="#FFFFFF" fill-rule="nonzero" cx="194.5" cy="105.5" r="1.5"></circle>
        <circle id="Oval-Copy-4" stroke="#FFFFFF" fill-rule="nonzero" cx="204.5" cy="141.5" r="1.5"></circle>
        <circle id="Oval-Copy-5" stroke="#FFFFFF" fill-rule="nonzero" cx="209.5" cy="95.5" r="1.5"></circle>
        <circle id="Oval-Copy-6" stroke="#FFFFFF" fill-rule="nonzero" cx="220.5" cy="109.5" r="1.5"></circle>
        <circle id="Oval-Copy-2" stroke="#FFFFFF" fill-rule="nonzero" cx="124.5" cy="76.5" r="1.5"></circle>
    </g>
</svg>