<?xml version="1.0" encoding="UTF-8"?>
<svg width="330px" height="191px" viewBox="0 0 330 191" version="1.1" xmlns="http://www.w3.org/2000/svg" xmlns:xlink="http://www.w3.org/1999/xlink">
    <!-- Generator: Sketch 52.2 (67145) - http://www.bohemiancoding.com/sketch -->
    <title>histogram v1</title>
    <desc>Created with Sketch.</desc>
    <g id="histogram-v1" stroke="none" stroke-width="1" fill="none" fill-rule="evenodd">
        <rect fill="#FFFFFF" x="0" y="0" width="330" height="191"></rect>
        <rect id="Rectangle" fill="#4C7EF3" fill-rule="nonzero" x="74" y="18" width="27" height="133"></rect>
        <rect id="Rectangle-Copy" fill="#4C7EF3" fill-rule="nonzero" x="102" y="85" width="27" height="66"></rect>
        <rect id="Rectangle-Copy-2" fill="#4C7EF3" fill-rule="nonzero" x="130" y="118" width="27" height="33"></rect>
        <rect id="Rectangle-Copy-3" fill="#4C7EF3" fill-rule="nonzero" x="158" y="53" width="27" height="98"></rect>
        <rect id="Rectangle-Copy-5" fill="#4C7EF3" fill-rule="nonzero" x="214" y="118" width="27" height="33"></rect>
        <rect id="Rectangle-Copy-6" fill="#4C7EF3" fill-rule="nonzero" x="242" y="85" width="27" height="66"></rect>
        <path d="M59,151.5 L283.617188,151.5" id="Line" stroke="#000000" stroke-width="2" stroke-linecap="round" fill-rule="nonzero"></path>
        <path d="M59,118.5 L73,118.5" id="Line-Copy" stroke="#000000" stroke-width="2" stroke-linecap="round" fill-rule="nonzero"></path>
        <path d="M59,85.5 L73,85.5" id="Line-Copy-2" stroke="#000000" stroke-width="2" stroke-linecap="round" fill-rule="nonzero"></path>
        <path d="M59,52.5 L73,52.5" id="Line-Copy-3" stroke="#000000" stroke-width="2" stroke-linecap="round" fill-rule="nonzero"></path>
        <path d="M59,19.5 L73,19.5" id="Line-Copy-4" stroke="#000000" stroke-width="2" stroke-linecap="round" fill-rule="nonzero"></path>
        <path d="M68.9956636,173.716797 L66.3413668,173.716797 L66.3413668,163.310547 L68.9956636,163.310547 L68.9956636,164.083984 L67.3550386,164.083984 L67.3550386,172.943359 L68.9956636,172.943359 L68.9956636,173.716797 Z M89.9527731,169.826172 L88.9566793,169.826172 L88.9566793,172 L87.9723043,172 L87.9723043,169.826172 L84.0113668,169.826172 L84.0113668,168.929688 L87.8609762,163.234375 L88.9566793,163.234375 L88.9566793,168.976562 L90.0348043,168.976562 L89.9527731,169.826172 Z M87.9723043,164.564453 L85.0426168,168.976562 L87.9723043,168.976562 L87.9723043,164.564453 Z M96.5729294,173.628906 C96.5846482,173.515624 96.6188275,173.215823 96.6754684,172.729492 C96.7321094,172.243162 96.7760542,171.833986 96.8073044,171.501953 C96.8385545,171.16992 96.8619918,170.878907 96.8776169,170.628906 L98.0319138,170.628906 L98.0319138,170.886719 C97.8405066,171.66016 97.5592594,172.574213 97.1881638,173.628906 L96.5729294,173.628906 Z M113.469492,172 L113.334726,171.039062 L116.364023,167.675781 C116.567149,167.449218 116.763436,167.156252 116.95289,166.796875 C117.142344,166.437498 117.280038,166.132814 117.365976,165.882812 L117.500742,165.513672 C117.500742,165.029294 117.365978,164.653322 117.096445,164.385742 C116.826912,164.118163 116.444104,163.984375 115.948008,163.984375 C115.119878,163.984375 114.467541,164.224607 113.990976,164.705078 L113.651133,163.826172 C114.190198,163.318357 114.979252,163.064453 116.01832,163.064453 C116.815199,163.064453 117.449958,163.280271 117.922617,163.711914 C118.395276,164.143557 118.631601,164.7207 118.631601,165.443359 C118.615976,165.498047 118.592539,165.571289 118.561289,165.663086 C118.530039,165.754883 118.462657,165.933592 118.35914,166.199219 C118.255624,166.464845 118.147227,166.716796 118.033945,166.955078 C117.920663,167.193361 117.77711,167.455077 117.603281,167.740234 C117.429452,168.025392 117.252696,168.263671 117.073008,168.455078 L114.600351,171.097656 L118.660898,171.097656 L118.596445,172 L113.469492,172 Z M125.445117,173.628906 C125.456836,173.515624 125.491015,173.215823 125.547656,172.729492 C125.604297,172.243162 125.648242,171.833986 125.679492,171.501953 C125.710742,171.16992 125.734179,170.878907 125.749804,170.628906 L126.904101,170.628906 L126.904101,170.886719 C126.712694,171.66016 126.431447,172.574213 126.060351,173.628906 L125.445117,173.628906 Z M143.449101,163.234375 L144.380742,163.234375 L144.380742,172 L143.343633,172 L143.343633,164.318359 C142.949099,164.576173 142.466682,164.796874 141.896367,164.980469 L141.896367,164.001953 C141.958867,163.974609 142.085819,163.919922 142.277226,163.837891 C142.468634,163.755859 142.612187,163.69336 142.707891,163.650391 C142.803594,163.607422 142.92371,163.546875 143.068242,163.46875 C143.212774,163.390625 143.339726,163.3125 143.449101,163.234375 Z M151.446211,173.628906 C151.45793,173.515624 151.492109,173.215823 151.54875,172.729492 C151.605391,172.243162 151.649336,171.833986 151.680586,171.501953 C151.711836,171.16992 151.735273,170.878907 151.750898,170.628906 L152.905195,170.628906 L152.905195,170.886719 C152.713788,171.66016 152.432541,172.574213 152.061445,173.628906 L151.446211,173.628906 Z M170.586914,172.134766 C170.063474,172.134766 169.597658,172.066407 169.189453,171.929688 C168.781248,171.792968 168.483399,171.634767 168.295898,171.455078 L168.624023,170.59375 C169.174807,171.027346 169.831051,171.244141 170.592773,171.244141 C171.178714,171.244141 171.64453,171.098634 171.990234,170.807617 C172.335939,170.5166 172.508789,170.109378 172.508789,169.585938 C172.508789,169.30078 172.464844,169.051759 172.376953,168.838867 C172.289062,168.625975 172.171876,168.454102 172.025391,168.323242 C171.878906,168.192382 171.691407,168.086914 171.462891,168.006836 C171.234374,167.926757 171.000001,167.870117 170.759766,167.836914 C170.51953,167.803711 170.241213,167.783203 169.924805,167.775391 C169.885742,167.775391 169.827149,167.774414 169.749023,167.772461 C169.670898,167.770508 169.612305,167.769531 169.573242,167.769531 L169.573242,166.896484 L169.866211,166.896484 C170.13965,166.892578 170.380858,166.87793 170.589844,166.852539 C170.798829,166.827148 171.007811,166.78125 171.216797,166.714844 C171.425782,166.648437 171.598632,166.560547 171.735352,166.451172 C171.872071,166.341796 171.983398,166.195313 172.069336,166.011719 C172.155274,165.828124 172.198242,165.611329 172.198242,165.361328 C172.198242,164.423823 171.661138,163.955078 170.586914,163.955078 C170.200193,163.955078 169.836916,164.011718 169.49707,164.125 C169.157225,164.238282 168.866212,164.390624 168.624023,164.582031 L168.295898,163.726562 C168.877933,163.285154 169.715815,163.064453 170.80957,163.064453 C171.250979,163.064453 171.659178,163.145507 172.03418,163.307617 C172.409182,163.469727 172.717772,163.717772 172.959961,164.051758 C173.20215,164.385744 173.323242,164.777342 173.323242,165.226562 C173.323242,165.77344 173.188478,166.222654 172.918945,166.574219 C172.649413,166.925783 172.27051,167.177734 171.782227,167.330078 C172.329104,167.447266 172.757811,167.703123 173.068359,168.097656 C173.378908,168.492189 173.53418,168.992184 173.53418,169.597656 C173.53418,170.367191 173.258792,170.98242 172.708008,171.443359 C172.157224,171.904299 171.4502,172.134766 170.586914,172.134766 Z M180.242227,173.628906 C180.253945,173.515624 180.288125,173.215823 180.344766,172.729492 C180.401407,172.243162 180.445351,171.833986 180.476602,171.501953 C180.507852,171.16992 180.531289,170.878907 180.546914,170.628906 L181.701211,170.628906 L181.701211,170.886719 C181.509804,171.66016 181.228557,172.574213 180.857461,173.628906 L180.242227,173.628906 Z M201.480586,171.794922 C201.093865,172.021486 200.640745,172.134766 200.121211,172.134766 C199.601677,172.134766 199.146604,172.020509 198.755977,171.791992 C198.36535,171.563475 198.051876,171.24219 197.815547,170.828125 C197.579218,170.41406 197.403438,169.937503 197.288203,169.398438 C197.172968,168.859372 197.115352,168.259769 197.115352,167.599609 C197.115352,167.056638 197.153437,166.55469 197.229609,166.09375 C197.305782,165.63281 197.423945,165.214846 197.584102,164.839844 C197.744259,164.464842 197.942499,164.146486 198.178828,163.884766 C198.415158,163.623046 198.697381,163.420899 199.025508,163.27832 C199.353635,163.135741 199.718865,163.064453 200.121211,163.064453 C200.621214,163.064453 201.063592,163.173827 201.448359,163.392578 C201.833127,163.611329 202.145624,163.92285 202.385859,164.327148 C202.626095,164.731447 202.806757,165.208005 202.927852,165.756836 C203.048946,166.305667 203.109492,166.919918 203.109492,167.599609 C203.109492,168.259769 203.052852,168.859372 202.93957,169.398438 C202.826289,169.937503 202.652462,170.41406 202.418086,170.828125 C202.18371,171.24219 201.871213,171.564452 201.480586,171.794922 Z M201.146602,164.429688 C200.861444,164.11328 200.519651,163.955078 200.121211,163.955078 C199.722772,163.955078 199.380978,164.112303 199.09582,164.426758 C198.810663,164.741213 198.596798,165.16699 198.454219,165.704102 C198.31164,166.241214 198.240352,166.861325 198.240352,167.564453 C198.240352,168.2793 198.31164,168.91113 198.454219,169.459961 C198.596798,170.008792 198.810663,170.443358 199.09582,170.763672 C199.380978,171.083986 199.722772,171.244141 200.121211,171.244141 C200.519651,171.244141 200.861444,171.083986 201.146602,170.763672 C201.431759,170.443358 201.645624,170.008792 201.788203,169.459961 C201.930782,168.91113 202.00207,168.2793 202.00207,167.564453 C202.00207,166.861325 201.930782,166.241214 201.788203,165.704102 C201.645624,165.16699 201.431759,164.742189 201.146602,164.429688 Z M209.846836,173.628906 C209.858555,173.515624 209.892734,173.215823 209.949375,172.729492 C210.006016,172.243162 210.049961,171.833986 210.081211,171.501953 C210.112461,171.16992 210.135899,170.878907 210.151524,170.628906 L211.30582,170.628906 L211.30582,170.886719 C211.114413,171.66016 210.833166,172.574213 210.46207,173.628906 L209.846836,173.628906 Z M227.850821,163.234375 L228.782461,163.234375 L228.782461,172 L227.745352,172 L227.745352,164.318359 C227.350819,164.576173 226.868402,164.796874 226.298086,164.980469 L226.298086,164.001953 C226.360586,163.974609 226.487538,163.919922 226.678946,163.837891 C226.870353,163.755859 227.013906,163.69336 227.10961,163.650391 C227.205313,163.607422 227.325429,163.546875 227.469961,163.46875 C227.614493,163.390625 227.741445,163.3125 227.850821,163.234375 Z M235.84793,173.628906 C235.859649,173.515624 235.893828,173.215823 235.950469,172.729492 C236.00711,172.243162 236.051055,171.833986 236.082305,171.501953 C236.113555,171.16992 236.136992,170.878907 236.152617,170.628906 L237.306914,170.628906 L237.306914,170.886719 C237.115507,171.66016 236.83426,172.574213 236.463164,173.628906 L235.84793,173.628906 Z M252.744493,172 L252.609727,171.039062 L255.639024,167.675781 C255.84215,167.449218 256.038437,167.156252 256.227891,166.796875 C256.417345,166.437498 256.555039,166.132814 256.640977,165.882812 L256.775743,165.513672 C256.775743,165.029294 256.640978,164.653322 256.371446,164.385742 C256.101913,164.118163 255.719104,163.984375 255.223008,163.984375 C254.394879,163.984375 253.742542,164.224607 253.265977,164.705078 L252.926133,163.826172 C253.465198,163.318357 254.254253,163.064453 255.293321,163.064453 C256.0902,163.064453 256.724959,163.280271 257.197618,163.711914 C257.670276,164.143557 257.906602,164.7207 257.906602,165.443359 C257.890977,165.498047 257.86754,165.571289 257.836289,165.663086 C257.805039,165.754883 257.737657,165.933592 257.634141,166.199219 C257.530625,166.464845 257.422227,166.716796 257.308946,166.955078 C257.195664,167.193361 257.052111,167.455077 256.878282,167.740234 C256.704453,168.025392 256.527697,168.263671 256.348008,168.455078 L253.875352,171.097656 L257.935899,171.097656 L257.871446,172 L252.744493,172 Z M273.004336,172.943359 L274.644961,172.943359 L274.644961,164.083984 L273.004336,164.083984 L273.004336,163.310547 L275.658633,163.310547 L275.658633,173.716797 L273.004336,173.716797 L273.004336,172.943359 Z" id="[-4,-2,-1,-3,-0,-1," fill="#000000"></path>
        <path d="M53.0263672,20.8261719 L52.0302734,20.8261719 L52.0302734,23 L51.0458984,23 L51.0458984,20.8261719 L47.0849609,20.8261719 L47.0849609,19.9296875 L50.9345703,14.234375 L52.0302734,14.234375 L52.0302734,19.9765625 L53.1083984,19.9765625 L53.0263672,20.8261719 Z M51.0458984,15.5644531 L48.1162109,19.9765625 L51.0458984,19.9765625 L51.0458984,15.5644531 Z" id="4" fill="#000000"></path>
        <path d="M49.6748047,56.1347656 C49.1513646,56.1347656 48.6855489,56.0664069 48.2773438,55.9296875 C47.8691386,55.7929681 47.57129,55.6347665 47.3837891,55.4550781 L47.7119141,54.59375 C48.2626981,55.0273459 48.9189415,55.2441406 49.6806641,55.2441406 C50.2666045,55.2441406 50.7324201,55.0986343 51.078125,54.8076172 C51.4238299,54.5166001 51.5966797,54.1093776 51.5966797,53.5859375 C51.5966797,53.3007798 51.5527348,53.0517589 51.4648438,52.8388672 C51.3769527,52.6259755 51.2597664,52.4541022 51.1132812,52.3232422 C50.9667961,52.1923822 50.779298,52.0869145 50.5507812,52.0068359 C50.3222645,51.9267574 50.0878918,51.8701174 49.8476562,51.8369141 C49.6074207,51.8037108 49.3291031,51.7832032 49.0126953,51.7753906 C48.9736326,51.7753906 48.9150395,51.7744141 48.8369141,51.7724609 C48.7587887,51.7705078 48.7001955,51.7695312 48.6611328,51.7695312 L48.6611328,50.8964844 L48.9541016,50.8964844 C49.2275404,50.8925781 49.468749,50.8779298 49.6777344,50.8525391 C49.8867198,50.8271483 50.0957021,50.7812503 50.3046875,50.7148438 C50.5136729,50.6484372 50.6865228,50.5605474 50.8232422,50.4511719 C50.9599616,50.3417963 51.0712886,50.1953134 51.1572266,50.0117188 C51.2431645,49.8281241 51.2861328,49.6113294 51.2861328,49.3613281 C51.2861328,48.4238234 50.7490288,47.9550781 49.6748047,47.9550781 C49.288084,47.9550781 48.9248064,48.0117182 48.5849609,48.125 C48.2451155,48.2382818 47.9541028,48.390624 47.7119141,48.5820312 L47.3837891,47.7265625 C47.9658232,47.285154 48.8037055,47.0644531 49.8974609,47.0644531 C50.3388694,47.0644531 50.7470684,47.145507 51.1220703,47.3076172 C51.4970722,47.4697274 51.8056629,47.7177718 52.0478516,48.0517578 C52.2900403,48.3857439 52.4111328,48.7773415 52.4111328,49.2265625 C52.4111328,49.7734402 52.2763685,50.2226545 52.0068359,50.5742188 C51.7373033,50.925783 51.3584009,51.1777336 50.8701172,51.3300781 C51.4169949,51.4472662 51.8457016,51.703123 52.15625,52.0976562 C52.4667984,52.4921895 52.6220703,52.9921845 52.6220703,53.5976562 C52.6220703,54.3671913 52.3466824,54.9824196 51.7958984,55.4433594 C51.2451144,55.9042992 50.5380903,56.1347656 49.6748047,56.1347656 Z" id="3" fill="#000000"></path>
        <path d="M47.3925781,89 L47.2578125,88.0390625 L50.2871094,84.6757812 C50.4902354,84.4492176 50.6865225,84.1562518 50.8759766,83.796875 C51.0654306,83.4374982 51.2031246,83.1328137 51.2890625,82.8828125 L51.4238281,82.5136719 C51.4238281,82.0292945 51.2890638,81.6533217 51.0195312,81.3857422 C50.7499987,81.1181627 50.36719,80.984375 49.8710938,80.984375 C49.0429646,80.984375 48.3906274,81.224607 47.9140625,81.7050781 L47.5742188,80.8261719 C48.1132839,80.3183568 48.9023386,80.0644531 49.9414062,80.0644531 C50.7382852,80.0644531 51.3730445,80.2802713 51.8457031,80.7119141 C52.3183617,81.1435568 52.5546875,81.7206995 52.5546875,82.4433594 C52.5390624,82.4980471 52.5156252,82.5712886 52.484375,82.6630859 C52.4531248,82.7548833 52.3857427,82.9335924 52.2822266,83.1992188 C52.1787104,83.4648451 52.0703131,83.7167957 51.9570312,83.9550781 C51.8437494,84.1933606 51.7001962,84.4550767 51.5263672,84.7402344 C51.3525382,85.0253921 51.1757821,85.2636709 50.9960938,85.4550781 L48.5234375,88.0976562 L52.5839844,88.0976562 L52.5195312,89 L47.3925781,89 Z" id="2" fill="#000000"></path>
        <path d="M49.9355469,113.234375 L50.8671875,113.234375 L50.8671875,122 L49.8300781,122 L49.8300781,114.318359 C49.4355449,114.576173 48.9531279,114.796874 48.3828125,114.980469 L48.3828125,114.001953 C48.4453128,113.974609 48.5722647,113.919922 48.7636719,113.837891 C48.9550791,113.755859 49.0986323,113.69336 49.1943359,113.650391 C49.2900395,113.607422 49.4101555,113.546875 49.5546875,113.46875 C49.6992195,113.390625 49.8261713,113.3125 49.9355469,113.234375 Z" id="1" fill="#000000"></path>
        <path d="M51.3681641,153.794922 C50.9814434,154.021486 50.5283229,154.134766 50.0087891,154.134766 C49.4892552,154.134766 49.0341816,154.020509 48.6435547,153.791992 C48.2529277,153.563475 47.9394543,153.24219 47.703125,152.828125 C47.4667957,152.41406 47.2910162,151.937503 47.1757812,151.398438 C47.0605463,150.859372 47.0029297,150.259769 47.0029297,149.599609 C47.0029297,149.056638 47.0410152,148.55469 47.1171875,148.09375 C47.1933598,147.63281 47.3115226,147.214846 47.4716797,146.839844 C47.6318367,146.464842 47.8300769,146.146486 48.0664062,145.884766 C48.3027356,145.623046 48.5849593,145.420899 48.9130859,145.27832 C49.2412126,145.135741 49.6064433,145.064453 50.0087891,145.064453 C50.5087916,145.064453 50.95117,145.173827 51.3359375,145.392578 C51.720705,145.611329 52.0332019,145.92285 52.2734375,146.327148 C52.5136731,146.731447 52.6943353,147.208005 52.8154297,147.756836 C52.936524,148.305667 52.9970703,148.919918 52.9970703,149.599609 C52.9970703,150.259769 52.9404303,150.859372 52.8271484,151.398438 C52.7138666,151.937503 52.5400402,152.41406 52.3056641,152.828125 C52.0712879,153.24219 51.758791,153.564452 51.3681641,153.794922 Z M51.0341797,146.429688 C50.749022,146.11328 50.4072286,145.955078 50.0087891,145.955078 C49.6103496,145.955078 49.2685561,146.112303 48.9833984,146.426758 C48.6982408,146.741213 48.4843757,147.16699 48.3417969,147.704102 C48.199218,148.241214 48.1279297,148.861325 48.1279297,149.564453 C48.1279297,150.2793 48.199218,150.91113 48.3417969,151.459961 C48.4843757,152.008792 48.6982408,152.443358 48.9833984,152.763672 C49.2685561,153.083986 49.6103496,153.244141 50.0087891,153.244141 C50.4072286,153.244141 50.749022,153.083986 51.0341797,152.763672 C51.3193374,152.443358 51.5332024,152.008792 51.6757812,151.459961 C51.8183601,150.91113 51.8896484,150.2793 51.8896484,149.564453 C51.8896484,148.861325 51.8183601,148.241214 51.6757812,147.704102 C51.5332024,147.16699 51.3193374,146.742189 51.0341797,146.429688 Z" id="0" fill="#000000"></path>
    </g>
</svg>