<?xml version="1.0" encoding="UTF-8"?>
<svg width="1214px" height="941px" viewBox="0 0 1214 941" version="1.1" xmlns="http://www.w3.org/2000/svg" xmlns:xlink="http://www.w3.org/1999/xlink">
    <!-- Generator: Sketch 51.2 (57519) - http://www.bohemiancoding.com/sketch -->
    <title>2 panel_example_4</title>
    <desc>Created with Sketch.</desc>
    <defs></defs>
    <g id="2-panel_example_4" stroke="none" stroke-width="1" fill="none" fill-rule="evenodd">
        <path d="M926.226234,805 L926.226234,790.556641 L927.925453,790.556641 L927.925453,803.496094 L934.282875,803.496094 L934.224281,805 L926.226234,805 Z M942.240903,796.269531 C941.76564,795.696612 941.11135,795.410156 940.278013,795.410156 C939.444675,795.410156 938.764343,795.70475 938.236997,796.293945 C937.709651,796.883141 937.400409,797.688797 937.309263,798.710938 L942.96356,798.710938 C942.96356,797.649734 942.722676,796.83594 942.240903,796.269531 Z M940.600278,805.224609 C939.044281,805.224609 937.818707,804.729823 936.92352,803.740234 C936.028334,802.750646 935.580747,801.396493 935.580747,799.677734 C935.580747,798.01757 936.013685,796.671555 936.879575,795.639648 C937.745465,794.607742 938.884776,794.082031 940.297544,794.0625 C941.625676,794.0625 942.678725,794.516597 943.456724,795.424805 C944.234722,796.333012 944.623716,797.545565 944.623716,799.0625 C944.623716,799.140625 944.622088,799.283853 944.618833,799.492188 C944.615578,799.700522 944.61395,799.85026 944.61395,799.941406 L937.260435,799.941406 C937.279966,801.15886 937.59409,802.107744 938.202817,802.788086 C938.811544,803.468428 939.630221,803.808594 940.658872,803.808594 C941.79169,803.808594 942.927747,803.509118 944.067075,802.910156 L944.320981,804.228516 C943.233736,804.892581 941.993514,805.224609 940.600278,805.224609 Z M947.064166,805 L947.064166,794.287109 L948.431353,794.287109 L948.636432,795.820312 C949.059611,795.292966 949.588577,794.868166 950.223346,794.545898 C950.858114,794.223631 951.543329,794.0625 952.27901,794.0625 C953.515995,794.0625 954.430699,794.409176 955.02315,795.102539 C955.615601,795.795902 955.911822,796.861972 955.911822,798.300781 L955.911822,805 L954.280963,805 C954.280963,800.703104 954.277708,798.401694 954.271197,798.095703 C954.245155,797.18424 954.061238,796.516929 953.719439,796.09375 C953.377641,795.670571 952.806357,795.458984 952.005572,795.458984 C951.165724,795.458984 950.465861,795.660805 949.905963,796.064453 C949.346064,796.468101 948.981485,796.992184 948.812213,797.636719 C948.747108,798.072919 948.714557,798.574216 948.714557,799.140625 L948.714557,805 L947.064166,805 Z M962.961647,803.603516 C963.515036,803.603516 964.000057,803.50586 964.416726,803.310547 C964.833394,803.115233 965.158912,802.845054 965.393288,802.5 C965.627664,802.154946 965.801816,801.770835 965.915749,801.347656 C966.029682,800.924477 966.086647,800.462242 966.086647,799.960938 L966.086647,799.169922 C966.086647,798.649086 966.028054,798.168948 965.910866,797.729492 C965.793678,797.290037 965.613016,796.896161 965.368874,796.547852 C965.124732,796.199543 964.799215,795.927735 964.392311,795.732422 C963.985408,795.537108 963.51178,795.439453 962.971413,795.439453 C962.522192,795.439453 962.113667,795.524088 961.745827,795.693359 C961.377987,795.862631 961.075255,796.085611 960.837624,796.362305 C960.599993,796.638999 960.398172,796.961261 960.232155,797.329102 C960.066139,797.696942 959.947325,798.06966 959.87571,798.447266 C959.804095,798.824872 959.768288,799.205727 959.768288,799.589844 C959.768288,799.96745 959.80735,800.341795 959.885476,800.712891 C959.963601,801.083986 960.087298,801.445311 960.256569,801.796875 C960.425841,802.148439 960.630917,802.456053 960.871804,802.719727 C961.11269,802.9834 961.413794,803.196614 961.775124,803.359375 C962.136454,803.522136 962.531958,803.603516 962.961647,803.603516 Z M960.451882,809.902344 L960.305397,808.427734 L962.297585,808.427734 C962.850973,808.427734 963.332739,808.388672 963.742897,808.310547 C964.153056,808.232421 964.494849,808.103842 964.768288,807.924805 C965.041727,807.745767 965.263079,807.547202 965.432351,807.329102 C965.601622,807.111002 965.730202,806.827801 965.818093,806.479492 C965.905984,806.131183 965.964577,805.786135 965.993874,805.444336 C966.023171,805.102537 966.037819,804.684247 966.037819,804.189453 L966.037819,803.242188 C965.647192,803.802086 965.194723,804.233397 964.680397,804.536133 C964.166072,804.838869 963.511782,804.990234 962.717507,804.990234 C962.105525,804.990234 961.540752,804.884441 961.023171,804.672852 C960.50559,804.461262 960.069397,804.179689 959.714577,803.828125 C959.359758,803.476561 959.057026,803.069664 958.806374,802.607422 C958.555722,802.14518 958.373432,801.666669 958.259499,801.171875 C958.145566,800.677081 958.088601,800.179039 958.088601,799.677734 C958.088601,798.89648 958.184628,798.173831 958.376686,797.509766 C958.568745,796.8457 958.853573,796.253258 959.231179,795.732422 C959.608785,795.211586 960.105199,794.803061 960.720436,794.506836 C961.335674,794.21061 962.040419,794.0625 962.834694,794.0625 C963.537823,794.0625 964.151423,794.19759 964.675515,794.467773 C965.199606,794.737957 965.669979,795.152992 966.086647,795.712891 L966.086647,794.287109 L967.678444,794.287109 L967.678444,804.228516 C967.678444,804.684247 967.667051,805.083006 967.644265,805.424805 C967.621478,805.766603 967.56614,806.145831 967.478249,806.5625 C967.390358,806.979169 967.271544,807.337238 967.121804,807.636719 C966.972063,807.936199 966.762104,808.237303 966.491921,808.540039 C966.221737,808.842775 965.899475,809.086913 965.525124,809.272461 C965.150773,809.458009 964.686911,809.609374 964.133522,809.726562 C963.580134,809.843751 962.95514,809.902344 962.258522,809.902344 L960.451882,809.902344 Z M973.986082,805.195312 C972.931389,805.195312 972.182699,804.938154 971.739988,804.423828 C971.297278,803.909503 971.062905,803.079433 971.036863,801.933594 L971.036863,795.498047 L969.445066,795.498047 L969.513426,794.423828 L971.027098,794.287109 L971.583738,791.835938 L972.657957,791.796875 L972.657957,794.287109 L975.636473,794.287109 L975.636473,795.498047 L972.657957,795.498047 L972.657957,801.640625 C972.657957,802.454431 972.781654,803.027342 973.029051,803.359375 C973.276448,803.691408 973.699621,803.857422 974.298582,803.857422 C974.513427,803.857422 974.978917,803.805339 975.695066,803.701172 L975.763426,804.990234 C974.988682,805.126954 974.39624,805.195312 973.986082,805.195312 Z M984.893329,805 L984.893329,798.525391 C984.893329,797.451167 984.722432,796.669924 984.380634,796.181641 C984.038835,795.693357 983.44151,795.449219 982.588642,795.449219 C981.768325,795.449219 981.0766,795.654295 980.513446,796.064453 C979.950292,796.474611 979.584085,797.005205 979.414813,797.65625 C979.356219,798.144534 979.326923,798.688148 979.326923,799.287109 L979.326923,805 L977.696063,805 L977.696063,790.126953 L979.326923,790.029297 L979.326923,794.384766 C979.326923,794.755861 979.313902,795.214841 979.28786,795.761719 C980.205834,794.628901 981.423269,794.0625 982.940204,794.0625 C985.329539,794.0625 986.524188,795.465481 986.524188,798.271484 L986.524188,805 L984.893329,805 Z M995.067198,799.667969 C995.067198,800.937506 995.348771,801.954749 995.911925,802.719727 C996.475079,803.484704 997.297011,803.867188 998.377745,803.867188 C999.445459,803.867188 1000.25111,803.486332 1000.79474,802.724609 C1001.33836,801.962887 1001.61017,800.937506 1001.61017,799.648438 C1001.61017,798.339837 1001.34161,797.309574 1000.8045,796.557617 C1000.26739,795.80566 999.448714,795.429688 998.348448,795.429688 C997.280735,795.429688 996.466941,795.813798 995.907042,796.582031 C995.347143,797.350264 995.067198,798.3789 995.067198,799.667969 Z M1003.29962,799.638672 C1003.29962,801.298836 1002.85692,802.644852 1001.9715,803.676758 C1001.08607,804.708664 999.862128,805.224609 998.29962,805.224609 C996.795706,805.224609 995.599429,804.703781 994.710753,803.662109 C993.822077,802.620437 993.377745,801.28256 993.377745,799.648438 C993.377745,797.981762 993.823704,796.63412 994.715636,795.605469 C995.607567,794.576818 996.831513,794.0625 998.387511,794.0625 C999.917466,794.0625 1001.11863,794.578445 1001.99103,795.610352 C1002.86343,796.642258 1003.29962,797.985018 1003.29962,799.638672 Z M1009.8514,791.171875 C1009.17431,791.171875 1008.71045,791.367186 1008.4598,791.757812 C1008.20914,792.148439 1008.08382,792.825516 1008.08382,793.789062 L1008.08382,794.287109 L1010.66195,794.287109 L1010.66195,795.498047 L1008.08382,795.498047 L1008.08382,805 L1006.45296,805 L1006.45296,795.498047 L1004.71468,795.498047 L1004.8514,794.423828 L1006.45296,794.287109 L1006.45296,793.808594 C1006.46598,792.428379 1006.72477,791.427412 1007.22933,790.805664 C1007.73389,790.183916 1008.54931,789.873047 1009.67562,789.873047 C1010.11182,789.873047 1010.64567,789.921875 1011.27718,790.019531 L1011.16976,791.298828 C1010.59033,791.214192 1010.15088,791.171875 1009.8514,791.171875 Z M1017.95496,805 L1017.95496,790.556641 L1019.65417,790.556641 L1019.65417,803.496094 L1026.0116,803.496094 L1025.953,805 L1017.95496,805 Z M1033.96962,796.269531 C1033.49436,795.696612 1032.84007,795.410156 1032.00673,795.410156 C1031.1734,795.410156 1030.49306,795.70475 1029.96572,796.293945 C1029.43837,796.883141 1029.12913,797.688797 1029.03798,798.710938 L1034.69228,798.710938 C1034.69228,797.649734 1034.4514,796.83594 1033.96962,796.269531 Z M1032.329,805.224609 C1030.773,805.224609 1029.54743,804.729823 1028.65224,803.740234 C1027.75705,802.750646 1027.30947,801.396493 1027.30947,799.677734 C1027.30947,798.01757 1027.74241,796.671555 1028.6083,795.639648 C1029.47419,794.607742 1030.6135,794.082031 1032.02626,794.0625 C1033.3544,794.0625 1034.40745,794.516597 1035.18544,795.424805 C1035.96344,796.333012 1036.35244,797.545565 1036.35244,799.0625 C1036.35244,799.140625 1036.35081,799.283853 1036.34755,799.492188 C1036.3443,799.700522 1036.34267,799.85026 1036.34267,799.941406 L1028.98916,799.941406 C1029.00869,801.15886 1029.32281,802.107744 1029.93154,802.788086 C1030.54027,803.468428 1031.35894,803.808594 1032.38759,803.808594 C1033.52041,803.808594 1034.65647,803.509118 1035.7958,802.910156 L1036.0497,804.228516 C1034.96246,804.892581 1033.72224,805.224609 1032.329,805.224609 Z M1041.98625,805.224609 C1041.25708,805.224609 1040.58488,805.146485 1039.96964,804.990234 C1039.35441,804.833984 1038.85474,804.632163 1038.47062,804.384766 L1038.6757,803.007812 C1039.76294,803.587242 1040.83064,803.876953 1041.87882,803.876953 C1043.46737,803.876953 1044.28442,803.317063 1044.33,802.197266 C1044.33,801.722003 1044.16073,801.347658 1043.82218,801.074219 C1043.48364,800.80078 1042.81958,800.494793 1041.83,800.15625 L1041.01945,799.873047 C1040.08194,799.560545 1039.41301,799.173179 1039.01261,798.710938 C1038.61222,798.248696 1038.40877,797.672529 1038.40226,796.982422 C1038.40226,796.142574 1038.73917,795.445966 1039.413,794.892578 C1040.08684,794.33919 1041.00968,794.0625 1042.18156,794.0625 C1043.3925,794.0625 1044.49601,794.296873 1045.49211,794.765625 L1045.01359,796.015625 C1044.00447,795.598956 1043.06047,795.390625 1042.18156,795.390625 C1041.49796,795.390625 1040.96248,795.525715 1040.57511,795.795898 C1040.18774,796.066082 1039.99406,796.44531 1039.99406,796.933594 C1039.99406,797.350262 1040.13403,797.66927 1040.41398,797.890625 C1040.69393,798.11198 1041.25382,798.365884 1042.09367,798.652344 C1042.30851,798.730469 1042.57869,798.821614 1042.90421,798.925781 C1043.98495,799.277346 1044.74992,799.69238 1045.19914,800.170898 C1045.64836,800.649416 1045.87296,801.295569 1045.87296,802.109375 C1045.85994,803.098963 1045.50513,803.865557 1044.80851,804.40918 C1044.11189,804.952802 1043.17115,805.224609 1041.98625,805.224609 Z M1051.46771,805.224609 C1050.73854,805.224609 1050.06635,805.146485 1049.45111,804.990234 C1048.83587,804.833984 1048.3362,804.632163 1047.95209,804.384766 L1048.15717,803.007812 C1049.24441,803.587242 1050.31211,803.876953 1051.36029,803.876953 C1052.94884,803.876953 1053.76589,803.317063 1053.81146,802.197266 C1053.81146,801.722003 1053.64219,801.347658 1053.30365,801.074219 C1052.96511,800.80078 1052.30105,800.494793 1051.31146,800.15625 L1050.50092,799.873047 C1049.56341,799.560545 1048.89447,799.173179 1048.49408,798.710938 C1048.09369,798.248696 1047.89024,797.672529 1047.88373,796.982422 C1047.88373,796.142574 1048.22064,795.445966 1048.89447,794.892578 C1049.5683,794.33919 1050.49114,794.0625 1051.66302,794.0625 C1052.87397,794.0625 1053.97747,794.296873 1054.97357,794.765625 L1054.49506,796.015625 C1053.48594,795.598956 1052.54194,795.390625 1051.66302,795.390625 C1050.97943,795.390625 1050.44395,795.525715 1050.05658,795.795898 C1049.66921,796.066082 1049.47552,796.44531 1049.47552,796.933594 C1049.47552,797.350262 1049.6155,797.66927 1049.89545,797.890625 C1050.1754,798.11198 1050.73529,798.365884 1051.57513,798.652344 C1051.78998,798.730469 1052.06016,798.821614 1052.38568,798.925781 C1053.46642,799.277346 1054.23138,799.69238 1054.6806,800.170898 C1055.12982,800.649416 1055.35443,801.295569 1055.35443,802.109375 C1055.34141,803.098963 1054.9866,803.865557 1054.28998,804.40918 C1053.59336,804.952802 1052.65261,805.224609 1051.46771,805.224609 Z M1058.94722,799.667969 C1058.94722,800.937506 1059.2288,801.954749 1059.79195,802.719727 C1060.35511,803.484704 1061.17704,803.867188 1062.25777,803.867188 C1063.32549,803.867188 1064.13114,803.486332 1064.67476,802.724609 C1065.21839,801.962887 1065.49019,800.937506 1065.49019,799.648438 C1065.49019,798.339837 1065.22164,797.309574 1064.68453,796.557617 C1064.14742,795.80566 1063.32874,795.429688 1062.22847,795.429688 C1061.16076,795.429688 1060.34697,795.813798 1059.78707,796.582031 C1059.22717,797.350264 1058.94722,798.3789 1058.94722,799.667969 Z M1067.17965,799.638672 C1067.17965,801.298836 1066.73694,802.644852 1065.85152,803.676758 C1064.9661,804.708664 1063.74215,805.224609 1062.17965,805.224609 C1060.67573,805.224609 1059.47946,804.703781 1058.59078,803.662109 C1057.7021,802.620437 1057.25777,801.28256 1057.25777,799.648438 C1057.25777,797.981762 1057.70373,796.63412 1058.59566,795.605469 C1059.48759,794.576818 1060.71154,794.0625 1062.26754,794.0625 C1063.79749,794.0625 1064.99865,794.578445 1065.87105,795.610352 C1066.74345,796.642258 1067.17965,797.985018 1067.17965,799.638672 Z M1069.65916,805 L1069.65916,794.287109 L1071.02635,794.287109 L1071.23142,795.820312 C1071.6546,795.292966 1072.18357,794.868166 1072.81834,794.545898 C1073.45311,794.223631 1074.13832,794.0625 1074.874,794.0625 C1076.11099,794.0625 1077.02569,794.409176 1077.61814,795.102539 C1078.21059,795.795902 1078.50682,796.861972 1078.50682,798.300781 L1078.50682,805 L1076.87596,805 C1076.87596,800.703104 1076.8727,798.401694 1076.86619,798.095703 C1076.84015,797.18424 1076.65623,796.516929 1076.31443,796.09375 C1075.97263,795.670571 1075.40135,795.458984 1074.60057,795.458984 C1073.76072,795.458984 1073.06085,795.660805 1072.50096,796.064453 C1071.94106,796.468101 1071.57648,796.992184 1071.40721,797.636719 C1071.3421,798.072919 1071.30955,798.574216 1071.30955,799.140625 L1071.30955,805 L1069.65916,805 Z" id="Length-of-Lesson" fill="#FFFFFF"></path>
        <g id="Group" transform="translate(32.000000, 164.000000)">
            <path d="M46.3339433,13.6367188 C47.4342093,13.6367188 48.2838101,13.983395 48.8827715,14.6767578 C49.4817328,15.3701207 49.781209,16.2766871 49.781209,17.3964844 C49.781209,18.4902398 49.47685,19.3886684 48.868123,20.0917969 C48.259396,20.7949254 47.4146779,21.1464844 46.3339433,21.1464844 C45.2401879,21.1464844 44.3938422,20.796553 43.7948808,20.0966797 C43.1959195,19.3968064 42.8964433,18.4967503 42.8964433,17.3964844 C42.8964433,16.2962185 43.1991747,15.3945348 43.8046465,14.6914062 C44.4101183,13.9882777 45.2532088,13.6367188 46.3339433,13.6367188 Z M47.9550371,15.5117188 C47.5709206,15.0039037 47.0305614,14.75 46.3339433,14.75 C45.6373253,14.75 45.0953385,15.0071589 44.7079668,15.5214844 C44.3205951,16.0358099 44.1269121,16.6608036 44.1269121,17.3964844 C44.1269121,18.145186 44.3205951,18.773435 44.7079668,19.28125 C45.0953385,19.789065 45.6373253,20.0429688 46.3339433,20.0429688 C47.0305614,20.0429688 47.5725482,19.7858099 47.9599199,19.2714844 C48.3472916,18.7571589 48.5409746,18.1321651 48.5409746,17.3964844 C48.5409746,16.6477827 48.3456641,16.0195338 47.9550371,15.5117188 Z M36.2753496,21.0390625 L44.0390215,6.72265625 L45.6210527,6.72265625 L37.593709,21.0390625 L36.2753496,21.0390625 Z M36.4608965,6.45898438 C37.4049116,6.45898438 38.16174,6.81217095 38.7314043,7.51855469 C39.3010686,8.22493843 39.5858965,9.12499453 39.5858965,10.21875 C39.5858965,11.2864637 39.299441,12.1653611 38.7265215,12.8554688 C38.1536019,13.5455764 37.3984012,13.890625 36.4608965,13.890625 C35.5168813,13.890625 34.7649357,13.547204 34.2050371,12.8603516 C33.6451385,12.1734992 33.3651933,11.2929741 33.3651933,10.21875 C33.3651933,9.13150498 33.6467661,8.23307646 34.2099199,7.5234375 C34.7730738,6.81379854 35.5233918,6.45898438 36.4608965,6.45898438 Z M36.4608965,7.54296875 C35.874956,7.54296875 35.4192314,7.80338281 35.093709,8.32421875 C34.7681865,8.84505469 34.6054277,9.47655879 34.6054277,10.21875 C34.6054277,10.9674517 34.7665589,11.5777971 35.0888262,12.0498047 C35.4110934,12.5218123 35.8684456,12.7578125 36.4608965,12.7578125 C37.0533474,12.7578125 37.5123271,12.5153019 37.8378496,12.0302734 C38.1633721,11.545245 38.3261308,10.9414099 38.3261308,10.21875 C38.3261308,9.47004834 38.1601169,8.83691665 37.828084,8.31933594 C37.4960511,7.80175522 37.0403265,7.54296875 36.4608965,7.54296875 Z M58.6171875,15.6679688 C58.6171875,16.9375063 58.8987602,17.9547488 59.4619141,18.7197266 C60.0250679,19.4847043 60.8469998,19.8671875 61.9277344,19.8671875 C62.995448,19.8671875 63.8011041,19.4863319 64.3447266,18.7246094 C64.8883491,17.9628868 65.1601562,16.9375064 65.1601562,15.6484375 C65.1601562,14.3398372 64.8916042,13.3095741 64.3544922,12.5576172 C63.8173801,11.8056603 62.9987034,11.4296875 61.8984375,11.4296875 C60.8307238,11.4296875 60.0169299,11.8137982 59.4570312,12.5820312 C58.8971326,13.3502643 58.6171875,14.3788998 58.6171875,15.6679688 Z M66.8496094,15.6386719 C66.8496094,17.2988364 66.4069055,18.6448516 65.5214844,19.6767578 C64.6360633,20.708664 63.4121172,21.2246094 61.8496094,21.2246094 C60.3456956,21.2246094 59.1494185,20.7037812 58.2607422,19.6621094 C57.3720659,18.6204375 56.9277344,17.2825603 56.9277344,15.6484375 C56.9277344,13.9817625 57.3736935,12.6341197 58.265625,11.6054688 C59.1575565,10.5768178 60.3815026,10.0625 61.9375,10.0625 C63.4674556,10.0625 64.6686154,10.5784454 65.5410156,11.6103516 C66.4134158,12.6422578 66.8496094,13.9850178 66.8496094,15.6386719 Z M73.4013877,7.171875 C72.724301,7.171875 72.2604384,7.36718555 72.0097861,7.7578125 C71.7591338,8.14843945 71.6338096,8.82551602 71.6338096,9.7890625 L71.6338096,10.2871094 L74.2119346,10.2871094 L74.2119346,11.4980469 L71.6338096,11.4980469 L71.6338096,21 L70.0029502,21 L70.0029502,11.4980469 L68.264669,11.4980469 L68.4013877,10.4238281 L70.0029502,10.2871094 L70.0029502,9.80859375 C70.0159711,8.42837852 70.2747576,7.42741196 70.7793174,6.80566406 C71.2838772,6.18391616 72.0992987,5.87304688 73.2256065,5.87304688 C73.6618065,5.87304688 74.1956554,5.92187451 74.827169,6.01953125 L74.7197471,7.29882812 C74.1403171,7.21419229 73.7008684,7.171875 73.4013877,7.171875 Z M8.18251462,33.796875 C7.09526961,33.796875 6.15940657,34.0605442 5.37489744,34.5878906 C4.59038831,35.115237 4.00608425,35.8248653 3.62196775,36.7167969 C3.23785125,37.6087284 3.04579587,38.6341088 3.04579587,39.7929688 C3.04579587,40.6588585 3.1499615,41.4482386 3.35829587,42.1611328 C3.56663025,42.874027 3.87912712,43.4990208 4.29579587,44.0361328 C4.71246462,44.5732449 5.25445139,44.9899074 5.92177244,45.2861328 C6.58909348,45.5823583 7.35568738,45.7304688 8.22157712,45.7304688 C9.33486394,45.7304688 10.4871962,45.4407581 11.6786084,44.8613281 L11.9618115,46.296875 C10.9917546,46.9088572 9.67991873,47.2148438 8.02626462,47.2148438 C6.93901961,47.2148438 5.96409446,47.0341815 5.10145994,46.6728516 C4.23882542,46.3115216 3.52594192,45.800459 2.96278806,45.1396484 C2.39963421,44.4788378 1.97157859,43.6910853 1.67860837,42.7763672 C1.38563816,41.8616491 1.23915525,40.8444066 1.23915525,39.7246094 C1.23915525,38.6438748 1.39865886,37.647791 1.71767087,36.7363281 C2.03668289,35.8248652 2.48752473,35.0419955 3.07020994,34.3876953 C3.65289514,33.7333952 4.38042693,33.2239602 5.25282712,32.859375 C6.12522732,32.4947898 7.0952697,32.3125 8.16298337,32.3125 C9.78408523,32.3125 11.1512591,32.6705693 12.2645459,33.3867188 L11.6004834,34.7636719 C10.5327697,34.1191374 9.39345818,33.796875 8.18251462,33.796875 Z M15.5057773,41.6679688 C15.5057773,42.9375063 15.78735,43.9547488 16.3505039,44.7197266 C16.9136577,45.4847043 17.7355896,45.8671875 18.8163242,45.8671875 C19.8840379,45.8671875 20.6896939,45.4863319 21.2333164,44.7246094 C21.7769389,43.9628868 22.0487461,42.9375064 22.0487461,41.6484375 C22.0487461,40.3398372 21.7801941,39.3095741 21.243082,38.5576172 C20.70597,37.8056603 19.8872932,37.4296875 18.7870273,37.4296875 C17.7193137,37.4296875 16.9055197,37.8137982 16.3456211,38.5820312 C15.7857224,39.3502643 15.5057773,40.3788998 15.5057773,41.6679688 Z M23.7381992,41.6386719 C23.7381992,43.2988364 23.2954953,44.6448516 22.4100742,45.6767578 C21.5246531,46.708664 20.300707,47.2246094 18.7381992,47.2246094 C17.2342854,47.2246094 16.0380083,46.7037812 15.149332,45.6621094 C14.2606557,44.6204375 13.8163242,43.2825603 13.8163242,41.6484375 C13.8163242,39.9817625 14.2622833,38.6341197 15.1542148,37.6054688 C16.0461464,36.5768178 17.2700925,36.0625 18.8260898,36.0625 C20.3560454,36.0625 21.5572053,36.5784454 22.4296054,37.6103516 C23.3020056,38.6422578 23.7381992,39.9850178 23.7381992,41.6386719 Z M39.8212275,47 L39.8212275,41.4238281 C39.8212275,40.9029922 39.8098344,40.4667986 39.7870478,40.1152344 C39.7642613,39.7636701 39.7121785,39.4056008 39.6307978,39.0410156 C39.5494172,38.6764305 39.4354861,38.3883474 39.289001,38.1767578 C39.1425159,37.9651682 38.9390674,37.7926439 38.6786494,37.6591797 C38.4182314,37.5257155 38.1057346,37.4589844 37.7411494,37.4589844 C37.025,37.4589844 36.4146545,37.6510397 35.9100947,38.0351562 C35.4055349,38.4192728 35.045838,38.9596319 34.8309931,39.65625 C34.7723991,40.1250023 34.7431025,40.6262994 34.7431025,41.1601562 L34.7431025,47 L33.1122431,47 L33.1122431,41.2480469 C33.1122431,40.7662736 33.0959673,40.3479835 33.063415,39.9931641 C33.0308628,39.6383446 32.9690144,39.2932959 32.8778681,38.9580078 C32.7867219,38.6227197 32.6646528,38.3509125 32.5116572,38.1425781 C32.3586617,37.9342438 32.1552132,37.7682298 31.9013056,37.6445312 C31.6473981,37.5208327 31.3446668,37.4589844 30.9931025,37.4589844 C30.2118486,37.4589844 29.5559307,37.6575501 29.0253291,38.0546875 C28.4947275,38.4518249 28.1382857,38.9791634 27.9559931,39.6367188 C27.8973991,40.1380233 27.8681025,40.6816377 27.8681025,41.2675781 L27.8681025,47 L26.2372431,47 C26.2242223,40.3007478 26.2177119,36.7298199 26.2177119,36.2871094 L27.5848994,36.2871094 L27.7899775,37.8203125 C28.1155,37.3255184 28.5777349,36.9088559 29.1766963,36.5703125 C29.7756576,36.2317691 30.4559893,36.0625 31.2177119,36.0625 C31.6148493,36.0625 31.9810566,36.1031897 32.3163447,36.1845703 C32.6516328,36.2659509 32.931578,36.368489 33.1561885,36.4921875 C33.380799,36.615886 33.5809923,36.7639965 33.7567744,36.9365234 C33.9325565,37.1090503 34.0692739,37.2783195 34.1669306,37.4443359 C34.2645874,37.6103524 34.3459668,37.7845043 34.4110713,37.9667969 C35.1923252,36.6972593 36.3869747,36.0625 37.9950556,36.0625 C39.1864679,36.0625 40.0604826,36.4026659 40.617126,37.0830078 C41.1737694,37.7633498 41.4520869,38.7708267 41.4520869,40.1054688 L41.4520869,47 L39.8212275,47 Z M43.7069902,51.6484375 L43.7069902,36.2871094 L45.1425371,36.2871094 L45.2987871,37.7421875 C46.2362918,36.6223902 47.3625826,36.0625 48.6776933,36.0625 C49.6542607,36.0625 50.4810754,36.3066382 51.1581621,36.7949219 C51.8352488,37.2832056 52.3349183,37.9440063 52.6571855,38.7773438 C52.9794528,39.6106812 53.140584,40.5839788 53.140584,41.6972656 C53.140584,42.7649793 52.9648045,43.713863 52.6132402,44.5439453 C52.261676,45.3740276 51.7457306,46.0283179 51.0653887,46.5068359 C50.3850467,46.985354 49.5891562,47.2246094 48.6776933,47.2246094 C47.9875857,47.2246094 47.3398058,47.0699885 46.734334,46.7607422 C46.1288622,46.4514958 45.643841,46.0429713 45.2792558,45.5351562 C45.3183185,46.2382848 45.3378496,46.9218717 45.3378496,47.5859375 L45.3378496,51.5410156 L43.7069902,51.6484375 Z M48.453084,45.8476562 C48.9478781,45.8476562 49.390582,45.7353527 49.781209,45.5107422 C50.1718359,45.2861317 50.487588,44.9785176 50.7284746,44.5878906 C50.9693612,44.1972637 51.1516511,43.7529322 51.2753496,43.2548828 C51.3990481,42.7568334 51.4608965,42.2181019 51.4608965,41.6386719 C51.4608965,40.4147074 51.2037376,39.4104857 50.6894121,38.6259766 C50.1750866,37.8414674 49.423141,37.4492188 48.4335527,37.4492188 C46.3632299,37.4492188 45.328084,38.787096 45.328084,41.4628906 C45.328084,42.9147208 45.5705946,44.0084599 46.055623,44.7441406 C46.5406515,45.4798214 47.3397972,45.8476562 48.453084,45.8476562 Z M58.4911904,47.1953125 C57.4495185,47.1953125 56.7122212,46.9153674 56.2792764,46.3554688 C55.8463315,45.7955701 55.6298623,44.8222726 55.6298623,43.4355469 L55.6298623,32.1269531 L57.250956,32.0292969 L57.250956,42.7910156 C57.250956,43.2337262 57.2558388,43.5885403 57.2656045,43.8554688 C57.2753702,44.1223972 57.299784,44.3844388 57.3388467,44.6416016 C57.3779094,44.8987643 57.4299922,45.0924473 57.4950967,45.2226562 C57.5602012,45.3528652 57.6546013,45.4716792 57.7782998,45.5791016 C57.9019983,45.686524 58.0501088,45.7581378 58.2226357,45.7939453 C58.3951626,45.8297528 58.6083767,45.8476562 58.8622842,45.8476562 C59.0706185,45.8476562 59.4807707,45.8085941 60.0927529,45.7304688 L60.1806435,47.0292969 C59.5100673,47.1399745 58.9469219,47.1953125 58.4911904,47.1953125 Z M67.5136719,38.2695312 C67.0384091,37.6966117 66.3841187,37.4101562 65.5507812,37.4101562 C64.7174438,37.4101562 64.037112,37.7047497 63.5097656,38.2939453 C62.9824192,38.883141 62.6731775,39.688797 62.5820312,40.7109375 L68.2363281,40.7109375 C68.2363281,39.6497343 67.9954451,38.8359403 67.5136719,38.2695312 Z M65.8730469,47.2246094 C64.3170495,47.2246094 63.0914758,46.7298227 62.1962891,45.7402344 C61.3011023,44.7506461 60.8535156,43.396493 60.8535156,41.6777344 C60.8535156,40.0175698 61.286454,38.6715546 62.1523438,37.6396484 C63.0182335,36.6077422 64.157545,36.0820313 65.5703125,36.0625 C66.8984441,36.0625 67.9514935,36.516597 68.7294922,37.4248047 C69.5074909,38.3330124 69.8964844,39.5455653 69.8964844,41.0625 C69.8964844,41.1406254 69.8948568,41.2838531 69.8916016,41.4921875 C69.8883463,41.7005219 69.8867188,41.85026 69.8867188,41.9414062 L62.5332031,41.9414062 C62.5527345,43.1588603 62.8668589,44.107744 63.4755859,44.7880859 C64.0843129,45.4684279 64.9029896,45.8085938 65.9316406,45.8085938 C67.0644588,45.8085938 68.2005151,45.5091176 69.3398438,44.9101562 L69.59375,46.2285156 C68.506505,46.8925814 67.266283,47.2246094 65.8730469,47.2246094 Z M75.7549033,47.1953125 C74.7002106,47.1953125 73.9515201,46.9381536 73.5088096,46.4238281 C73.066099,45.9095026 72.8317264,45.0794328 72.8056846,43.9335938 L72.8056846,37.4980469 L71.2138877,37.4980469 L71.2822471,36.4238281 L72.795919,36.2871094 L73.3525596,33.8359375 L74.4267783,33.796875 L74.4267783,36.2871094 L77.405294,36.2871094 L77.405294,37.4980469 L74.4267783,37.4980469 L74.4267783,43.640625 C74.4267783,44.4544312 74.550475,45.0273421 74.7978721,45.359375 C75.0452691,45.6914079 75.468442,45.8574219 76.0674033,45.8574219 C76.2822481,45.8574219 76.7477383,45.8053391 77.4638877,45.7011719 L77.5322471,46.9902344 C76.7575036,47.1269538 76.1650616,47.1953125 75.7549033,47.1953125 Z M81.3691817,36.2871094 L81.3691817,47 L79.7285567,47 L79.7285567,36.2871094 L81.3691817,36.2871094 Z M81.3691817,32.390625 L81.3691817,34.3242188 L79.7285567,34.3242188 L79.7285567,32.390625 L81.3691817,32.390625 Z M85.8018194,41.6679688 C85.8018194,42.9375063 86.0833921,43.9547488 86.6465459,44.7197266 C87.2096998,45.4847043 88.0316317,45.8671875 89.1123662,45.8671875 C90.1800799,45.8671875 90.9857359,45.4863319 91.5293584,44.7246094 C92.0729809,43.9628868 92.3447881,42.9375064 92.3447881,41.6484375 C92.3447881,40.3398372 92.0762361,39.3095741 91.539124,38.5576172 C91.002012,37.8056603 90.1833353,37.4296875 89.0830694,37.4296875 C88.0153557,37.4296875 87.2015617,37.8137982 86.6416631,38.5820312 C86.0817645,39.3502643 85.8018194,40.3788998 85.8018194,41.6679688 Z M94.0342412,41.6386719 C94.0342412,43.2988364 93.5915373,44.6448516 92.7061162,45.6767578 C91.8206951,46.708664 90.596749,47.2246094 89.0342412,47.2246094 C87.5303275,47.2246094 86.3340504,46.7037812 85.445374,45.6621094 C84.5566977,44.6204375 84.1123662,43.2825603 84.1123662,41.6484375 C84.1123662,39.9817625 84.5583253,38.6341197 85.4502569,37.6054688 C86.3421884,36.5768178 87.5661345,36.0625 89.1221319,36.0625 C90.6520874,36.0625 91.8532473,36.5784454 92.7256475,37.6103516 C93.5980477,38.6422578 94.0342412,39.9850178 94.0342412,41.6386719 Z M96.5137539,47 L96.5137539,36.2871094 L97.8809414,36.2871094 L98.0860196,37.8203125 C98.5091987,37.2929661 99.0381648,36.8681657 99.6729336,36.5458984 C100.307702,36.2236312 100.992917,36.0625 101.728598,36.0625 C102.965583,36.0625 103.880287,36.4091762 104.472738,37.1025391 C105.065189,37.7959019 105.36141,38.861972 105.36141,40.3007812 L105.36141,47 L103.730551,47 C103.730551,42.7031035 103.727296,40.4016942 103.720785,40.0957031 C103.694743,39.1842402 103.510826,38.5169292 103.169027,38.09375 C102.827229,37.6705708 102.255945,37.4589844 101.45516,37.4589844 C100.615312,37.4589844 99.9154494,37.6608053 99.3555508,38.0644531 C98.7956522,38.468101 98.4310725,38.9921843 98.2618008,39.6367188 C98.1966963,40.0729188 98.1641446,40.5742159 98.1641446,41.140625 L98.1641446,47 L96.5137539,47 Z" id="%-of-Completion" fill="#FFFFFF"></path>
            <g id="Group-2" transform="translate(192.000000, 98.000000)" fill="#50ACD5">
                <circle id="Oval" cx="6" cy="6" r="6"></circle>
                <circle id="Oval-Copy" cx="73" cy="117" r="6"></circle>
                <circle id="Oval-Copy-3" cx="173" cy="209" r="6"></circle>
                <circle id="Oval-Copy-6" cx="318" cy="209" r="6"></circle>
                <circle id="Oval-Copy-4" cx="254" cy="137" r="6"></circle>
                <circle id="Oval-Copy-5" cx="318" cy="137" r="6"></circle>
                <circle id="Oval-Copy-7" cx="438" cy="137" r="6"></circle>
                <circle id="Oval-Copy-8" cx="486" cy="203" r="6"></circle>
                <circle id="Oval-Copy-9" cx="611" cy="326" r="6"></circle>
                <circle id="Oval-Copy-10" cx="813" cy="243" r="6"></circle>
                <circle id="Oval-Copy-2" cx="173" cy="66" r="6"></circle>
            </g>
        </g>
        <path d="M151.75,164.5 L151.75,762.5" id="Line" stroke="#FFFFFF" stroke-width="1.5" stroke-linecap="square"></path>
        <path d="M154,762.75 L1075.50014,762.75" id="Line" stroke="#D3DDE2" stroke-width="1.5" stroke-linecap="square"></path>
        <path d="M150.492188,164.625 C323.293307,461.436825 620.795911,574.903677 1043,505.025556" id="Path-3" stroke="#50ACD5" stroke-width="2"></path>
    </g>
</svg>