<?xml version="1.0" encoding="UTF-8"?>
<svg width="1214px" height="941px" viewBox="0 0 1214 941" version="1.1" xmlns="http://www.w3.org/2000/svg" xmlns:xlink="http://www.w3.org/1999/xlink">
    <!-- Generator: Sketch 51.2 (57519) - http://www.bohemiancoding.com/sketch -->
    <title>2 panel_example_4 copy</title>
    <desc>Created with Sketch.</desc>
    <defs></defs>
    <g id="2-panel_example_4-copy" stroke="none" stroke-width="1" fill="none" fill-rule="evenodd">
        <path d="M926.226234,805 L926.226234,790.556641 L927.925453,790.556641 L927.925453,803.496094 L934.282875,803.496094 L934.224281,805 L926.226234,805 Z M942.240903,796.269531 C941.76564,795.696612 941.11135,795.410156 940.278013,795.410156 C939.444675,795.410156 938.764343,795.70475 938.236997,796.293945 C937.709651,796.883141 937.400409,797.688797 937.309263,798.710938 L942.96356,798.710938 C942.96356,797.649734 942.722676,796.83594 942.240903,796.269531 Z M940.600278,805.224609 C939.044281,805.224609 937.818707,804.729823 936.92352,803.740234 C936.028334,802.750646 935.580747,801.396493 935.580747,799.677734 C935.580747,798.01757 936.013685,796.671555 936.879575,795.639648 C937.745465,794.607742 938.884776,794.082031 940.297544,794.0625 C941.625676,794.0625 942.678725,794.516597 943.456724,795.424805 C944.234722,796.333012 944.623716,797.545565 944.623716,799.0625 C944.623716,799.140625 944.622088,799.283853 944.618833,799.492188 C944.615578,799.700522 944.61395,799.85026 944.61395,799.941406 L937.260435,799.941406 C937.279966,801.15886 937.59409,802.107744 938.202817,802.788086 C938.811544,803.468428 939.630221,803.808594 940.658872,803.808594 C941.79169,803.808594 942.927747,803.509118 944.067075,802.910156 L944.320981,804.228516 C943.233736,804.892581 941.993514,805.224609 940.600278,805.224609 Z M947.064166,805 L947.064166,794.287109 L948.431353,794.287109 L948.636432,795.820312 C949.059611,795.292966 949.588577,794.868166 950.223346,794.545898 C950.858114,794.223631 951.543329,794.0625 952.27901,794.0625 C953.515995,794.0625 954.430699,794.409176 955.02315,795.102539 C955.615601,795.795902 955.911822,796.861972 955.911822,798.300781 L955.911822,805 L954.280963,805 C954.280963,800.703104 954.277708,798.401694 954.271197,798.095703 C954.245155,797.18424 954.061238,796.516929 953.719439,796.09375 C953.377641,795.670571 952.806357,795.458984 952.005572,795.458984 C951.165724,795.458984 950.465861,795.660805 949.905963,796.064453 C949.346064,796.468101 948.981485,796.992184 948.812213,797.636719 C948.747108,798.072919 948.714557,798.574216 948.714557,799.140625 L948.714557,805 L947.064166,805 Z M962.961647,803.603516 C963.515036,803.603516 964.000057,803.50586 964.416726,803.310547 C964.833394,803.115233 965.158912,802.845054 965.393288,802.5 C965.627664,802.154946 965.801816,801.770835 965.915749,801.347656 C966.029682,800.924477 966.086647,800.462242 966.086647,799.960938 L966.086647,799.169922 C966.086647,798.649086 966.028054,798.168948 965.910866,797.729492 C965.793678,797.290037 965.613016,796.896161 965.368874,796.547852 C965.124732,796.199543 964.799215,795.927735 964.392311,795.732422 C963.985408,795.537108 963.51178,795.439453 962.971413,795.439453 C962.522192,795.439453 962.113667,795.524088 961.745827,795.693359 C961.377987,795.862631 961.075255,796.085611 960.837624,796.362305 C960.599993,796.638999 960.398172,796.961261 960.232155,797.329102 C960.066139,797.696942 959.947325,798.06966 959.87571,798.447266 C959.804095,798.824872 959.768288,799.205727 959.768288,799.589844 C959.768288,799.96745 959.80735,800.341795 959.885476,800.712891 C959.963601,801.083986 960.087298,801.445311 960.256569,801.796875 C960.425841,802.148439 960.630917,802.456053 960.871804,802.719727 C961.11269,802.9834 961.413794,803.196614 961.775124,803.359375 C962.136454,803.522136 962.531958,803.603516 962.961647,803.603516 Z M960.451882,809.902344 L960.305397,808.427734 L962.297585,808.427734 C962.850973,808.427734 963.332739,808.388672 963.742897,808.310547 C964.153056,808.232421 964.494849,808.103842 964.768288,807.924805 C965.041727,807.745767 965.263079,807.547202 965.432351,807.329102 C965.601622,807.111002 965.730202,806.827801 965.818093,806.479492 C965.905984,806.131183 965.964577,805.786135 965.993874,805.444336 C966.023171,805.102537 966.037819,804.684247 966.037819,804.189453 L966.037819,803.242188 C965.647192,803.802086 965.194723,804.233397 964.680397,804.536133 C964.166072,804.838869 963.511782,804.990234 962.717507,804.990234 C962.105525,804.990234 961.540752,804.884441 961.023171,804.672852 C960.50559,804.461262 960.069397,804.179689 959.714577,803.828125 C959.359758,803.476561 959.057026,803.069664 958.806374,802.607422 C958.555722,802.14518 958.373432,801.666669 958.259499,801.171875 C958.145566,800.677081 958.088601,800.179039 958.088601,799.677734 C958.088601,798.89648 958.184628,798.173831 958.376686,797.509766 C958.568745,796.8457 958.853573,796.253258 959.231179,795.732422 C959.608785,795.211586 960.105199,794.803061 960.720436,794.506836 C961.335674,794.21061 962.040419,794.0625 962.834694,794.0625 C963.537823,794.0625 964.151423,794.19759 964.675515,794.467773 C965.199606,794.737957 965.669979,795.152992 966.086647,795.712891 L966.086647,794.287109 L967.678444,794.287109 L967.678444,804.228516 C967.678444,804.684247 967.667051,805.083006 967.644265,805.424805 C967.621478,805.766603 967.56614,806.145831 967.478249,806.5625 C967.390358,806.979169 967.271544,807.337238 967.121804,807.636719 C966.972063,807.936199 966.762104,808.237303 966.491921,808.540039 C966.221737,808.842775 965.899475,809.086913 965.525124,809.272461 C965.150773,809.458009 964.686911,809.609374 964.133522,809.726562 C963.580134,809.843751 962.95514,809.902344 962.258522,809.902344 L960.451882,809.902344 Z M973.986082,805.195312 C972.931389,805.195312 972.182699,804.938154 971.739988,804.423828 C971.297278,803.909503 971.062905,803.079433 971.036863,801.933594 L971.036863,795.498047 L969.445066,795.498047 L969.513426,794.423828 L971.027098,794.287109 L971.583738,791.835938 L972.657957,791.796875 L972.657957,794.287109 L975.636473,794.287109 L975.636473,795.498047 L972.657957,795.498047 L972.657957,801.640625 C972.657957,802.454431 972.781654,803.027342 973.029051,803.359375 C973.276448,803.691408 973.699621,803.857422 974.298582,803.857422 C974.513427,803.857422 974.978917,803.805339 975.695066,803.701172 L975.763426,804.990234 C974.988682,805.126954 974.39624,805.195312 973.986082,805.195312 Z M984.893329,805 L984.893329,798.525391 C984.893329,797.451167 984.722432,796.669924 984.380634,796.181641 C984.038835,795.693357 983.44151,795.449219 982.588642,795.449219 C981.768325,795.449219 981.0766,795.654295 980.513446,796.064453 C979.950292,796.474611 979.584085,797.005205 979.414813,797.65625 C979.356219,798.144534 979.326923,798.688148 979.326923,799.287109 L979.326923,805 L977.696063,805 L977.696063,790.126953 L979.326923,790.029297 L979.326923,794.384766 C979.326923,794.755861 979.313902,795.214841 979.28786,795.761719 C980.205834,794.628901 981.423269,794.0625 982.940204,794.0625 C985.329539,794.0625 986.524188,795.465481 986.524188,798.271484 L986.524188,805 L984.893329,805 Z M995.067198,799.667969 C995.067198,800.937506 995.348771,801.954749 995.911925,802.719727 C996.475079,803.484704 997.297011,803.867188 998.377745,803.867188 C999.445459,803.867188 1000.25111,803.486332 1000.79474,802.724609 C1001.33836,801.962887 1001.61017,800.937506 1001.61017,799.648438 C1001.61017,798.339837 1001.34161,797.309574 1000.8045,796.557617 C1000.26739,795.80566 999.448714,795.429688 998.348448,795.429688 C997.280735,795.429688 996.466941,795.813798 995.907042,796.582031 C995.347143,797.350264 995.067198,798.3789 995.067198,799.667969 Z M1003.29962,799.638672 C1003.29962,801.298836 1002.85692,802.644852 1001.9715,803.676758 C1001.08607,804.708664 999.862128,805.224609 998.29962,805.224609 C996.795706,805.224609 995.599429,804.703781 994.710753,803.662109 C993.822077,802.620437 993.377745,801.28256 993.377745,799.648438 C993.377745,797.981762 993.823704,796.63412 994.715636,795.605469 C995.607567,794.576818 996.831513,794.0625 998.387511,794.0625 C999.917466,794.0625 1001.11863,794.578445 1001.99103,795.610352 C1002.86343,796.642258 1003.29962,797.985018 1003.29962,799.638672 Z M1009.8514,791.171875 C1009.17431,791.171875 1008.71045,791.367186 1008.4598,791.757812 C1008.20914,792.148439 1008.08382,792.825516 1008.08382,793.789062 L1008.08382,794.287109 L1010.66195,794.287109 L1010.66195,795.498047 L1008.08382,795.498047 L1008.08382,805 L1006.45296,805 L1006.45296,795.498047 L1004.71468,795.498047 L1004.8514,794.423828 L1006.45296,794.287109 L1006.45296,793.808594 C1006.46598,792.428379 1006.72477,791.427412 1007.22933,790.805664 C1007.73389,790.183916 1008.54931,789.873047 1009.67562,789.873047 C1010.11182,789.873047 1010.64567,789.921875 1011.27718,790.019531 L1011.16976,791.298828 C1010.59033,791.214192 1010.15088,791.171875 1009.8514,791.171875 Z M1017.95496,805 L1017.95496,790.556641 L1019.65417,790.556641 L1019.65417,803.496094 L1026.0116,803.496094 L1025.953,805 L1017.95496,805 Z M1033.96962,796.269531 C1033.49436,795.696612 1032.84007,795.410156 1032.00673,795.410156 C1031.1734,795.410156 1030.49306,795.70475 1029.96572,796.293945 C1029.43837,796.883141 1029.12913,797.688797 1029.03798,798.710938 L1034.69228,798.710938 C1034.69228,797.649734 1034.4514,796.83594 1033.96962,796.269531 Z M1032.329,805.224609 C1030.773,805.224609 1029.54743,804.729823 1028.65224,803.740234 C1027.75705,802.750646 1027.30947,801.396493 1027.30947,799.677734 C1027.30947,798.01757 1027.74241,796.671555 1028.6083,795.639648 C1029.47419,794.607742 1030.6135,794.082031 1032.02626,794.0625 C1033.3544,794.0625 1034.40745,794.516597 1035.18544,795.424805 C1035.96344,796.333012 1036.35244,797.545565 1036.35244,799.0625 C1036.35244,799.140625 1036.35081,799.283853 1036.34755,799.492188 C1036.3443,799.700522 1036.34267,799.85026 1036.34267,799.941406 L1028.98916,799.941406 C1029.00869,801.15886 1029.32281,802.107744 1029.93154,802.788086 C1030.54027,803.468428 1031.35894,803.808594 1032.38759,803.808594 C1033.52041,803.808594 1034.65647,803.509118 1035.7958,802.910156 L1036.0497,804.228516 C1034.96246,804.892581 1033.72224,805.224609 1032.329,805.224609 Z M1041.98625,805.224609 C1041.25708,805.224609 1040.58488,805.146485 1039.96964,804.990234 C1039.35441,804.833984 1038.85474,804.632163 1038.47062,804.384766 L1038.6757,803.007812 C1039.76294,803.587242 1040.83064,803.876953 1041.87882,803.876953 C1043.46737,803.876953 1044.28442,803.317063 1044.33,802.197266 C1044.33,801.722003 1044.16073,801.347658 1043.82218,801.074219 C1043.48364,800.80078 1042.81958,800.494793 1041.83,800.15625 L1041.01945,799.873047 C1040.08194,799.560545 1039.41301,799.173179 1039.01261,798.710938 C1038.61222,798.248696 1038.40877,797.672529 1038.40226,796.982422 C1038.40226,796.142574 1038.73917,795.445966 1039.413,794.892578 C1040.08684,794.33919 1041.00968,794.0625 1042.18156,794.0625 C1043.3925,794.0625 1044.49601,794.296873 1045.49211,794.765625 L1045.01359,796.015625 C1044.00447,795.598956 1043.06047,795.390625 1042.18156,795.390625 C1041.49796,795.390625 1040.96248,795.525715 1040.57511,795.795898 C1040.18774,796.066082 1039.99406,796.44531 1039.99406,796.933594 C1039.99406,797.350262 1040.13403,797.66927 1040.41398,797.890625 C1040.69393,798.11198 1041.25382,798.365884 1042.09367,798.652344 C1042.30851,798.730469 1042.57869,798.821614 1042.90421,798.925781 C1043.98495,799.277346 1044.74992,799.69238 1045.19914,800.170898 C1045.64836,800.649416 1045.87296,801.295569 1045.87296,802.109375 C1045.85994,803.098963 1045.50513,803.865557 1044.80851,804.40918 C1044.11189,804.952802 1043.17115,805.224609 1041.98625,805.224609 Z M1051.46771,805.224609 C1050.73854,805.224609 1050.06635,805.146485 1049.45111,804.990234 C1048.83587,804.833984 1048.3362,804.632163 1047.95209,804.384766 L1048.15717,803.007812 C1049.24441,803.587242 1050.31211,803.876953 1051.36029,803.876953 C1052.94884,803.876953 1053.76589,803.317063 1053.81146,802.197266 C1053.81146,801.722003 1053.64219,801.347658 1053.30365,801.074219 C1052.96511,800.80078 1052.30105,800.494793 1051.31146,800.15625 L1050.50092,799.873047 C1049.56341,799.560545 1048.89447,799.173179 1048.49408,798.710938 C1048.09369,798.248696 1047.89024,797.672529 1047.88373,796.982422 C1047.88373,796.142574 1048.22064,795.445966 1048.89447,794.892578 C1049.5683,794.33919 1050.49114,794.0625 1051.66302,794.0625 C1052.87397,794.0625 1053.97747,794.296873 1054.97357,794.765625 L1054.49506,796.015625 C1053.48594,795.598956 1052.54194,795.390625 1051.66302,795.390625 C1050.97943,795.390625 1050.44395,795.525715 1050.05658,795.795898 C1049.66921,796.066082 1049.47552,796.44531 1049.47552,796.933594 C1049.47552,797.350262 1049.6155,797.66927 1049.89545,797.890625 C1050.1754,798.11198 1050.73529,798.365884 1051.57513,798.652344 C1051.78998,798.730469 1052.06016,798.821614 1052.38568,798.925781 C1053.46642,799.277346 1054.23138,799.69238 1054.6806,800.170898 C1055.12982,800.649416 1055.35443,801.295569 1055.35443,802.109375 C1055.34141,803.098963 1054.9866,803.865557 1054.28998,804.40918 C1053.59336,804.952802 1052.65261,805.224609 1051.46771,805.224609 Z M1058.94722,799.667969 C1058.94722,800.937506 1059.2288,801.954749 1059.79195,802.719727 C1060.35511,803.484704 1061.17704,803.867188 1062.25777,803.867188 C1063.32549,803.867188 1064.13114,803.486332 1064.67476,802.724609 C1065.21839,801.962887 1065.49019,800.937506 1065.49019,799.648438 C1065.49019,798.339837 1065.22164,797.309574 1064.68453,796.557617 C1064.14742,795.80566 1063.32874,795.429688 1062.22847,795.429688 C1061.16076,795.429688 1060.34697,795.813798 1059.78707,796.582031 C1059.22717,797.350264 1058.94722,798.3789 1058.94722,799.667969 Z M1067.17965,799.638672 C1067.17965,801.298836 1066.73694,802.644852 1065.85152,803.676758 C1064.9661,804.708664 1063.74215,805.224609 1062.17965,805.224609 C1060.67573,805.224609 1059.47946,804.703781 1058.59078,803.662109 C1057.7021,802.620437 1057.25777,801.28256 1057.25777,799.648438 C1057.25777,797.981762 1057.70373,796.63412 1058.59566,795.605469 C1059.48759,794.576818 1060.71154,794.0625 1062.26754,794.0625 C1063.79749,794.0625 1064.99865,794.578445 1065.87105,795.610352 C1066.74345,796.642258 1067.17965,797.985018 1067.17965,799.638672 Z M1069.65916,805 L1069.65916,794.287109 L1071.02635,794.287109 L1071.23142,795.820312 C1071.6546,795.292966 1072.18357,794.868166 1072.81834,794.545898 C1073.45311,794.223631 1074.13832,794.0625 1074.874,794.0625 C1076.11099,794.0625 1077.02569,794.409176 1077.61814,795.102539 C1078.21059,795.795902 1078.50682,796.861972 1078.50682,798.300781 L1078.50682,805 L1076.87596,805 C1076.87596,800.703104 1076.8727,798.401694 1076.86619,798.095703 C1076.84015,797.18424 1076.65623,796.516929 1076.31443,796.09375 C1075.97263,795.670571 1075.40135,795.458984 1074.60057,795.458984 C1073.76072,795.458984 1073.06085,795.660805 1072.50096,796.064453 C1071.94106,796.468101 1071.57648,796.992184 1071.40721,797.636719 C1071.3421,798.072919 1071.30955,798.574216 1071.30955,799.140625 L1071.30955,805 L1069.65916,805 Z" id="Length-of-Lesson" fill="#FFFFFF"></path>
        <path d="M151.75,164.5 L151.75,762.5" id="Line" stroke="#FFFFFF" stroke-width="1.5" stroke-linecap="square"></path>
        <path d="M154,762.75 L1075.50014,762.75" id="Line" stroke="#D3DDE2" stroke-width="1.5" stroke-linecap="square"></path>
        <path d="M154,277.910072 C154,277.910072 228.251131,177.570706 310.529412,406.344461 C392.807692,635.118217 408.861991,344.134054 408.861991,344.134054 C408.861991,344.134054 451.004525,123.387448 539.303167,470.561656 C539.303167,470.561656 569.404977,552.839936 589.472851,458.520932 C609.540724,364.201927 633.622172,247.808262 663.723982,398.317312 C693.825792,548.826362 701.852941,476.582018 713.893665,464.541294 C725.934389,452.50057 752.022624,402.330887 762.056561,544.812787 C772.090498,687.294688 1041,506.683828 1041,506.683828" id="Stroke-1" stroke="#50ACD5" stroke-width="2"></path>
        <path d="M78.3339433,177.636719 C79.4342093,177.636719 80.2838101,177.983395 80.8827715,178.676758 C81.4817328,179.370121 81.781209,180.276687 81.781209,181.396484 C81.781209,182.49024 81.47685,183.388668 80.868123,184.091797 C80.259396,184.794925 79.4146779,185.146484 78.3339433,185.146484 C77.2401879,185.146484 76.3938422,184.796553 75.7948808,184.09668 C75.1959195,183.396806 74.8964433,182.49675 74.8964433,181.396484 C74.8964433,180.296218 75.1991747,179.394535 75.8046465,178.691406 C76.4101183,177.988278 77.2532088,177.636719 78.3339433,177.636719 Z M79.9550371,179.511719 C79.5709206,179.003904 79.0305614,178.75 78.3339433,178.75 C77.6373253,178.75 77.0953385,179.007159 76.7079668,179.521484 C76.3205951,180.03581 76.1269121,180.660804 76.1269121,181.396484 C76.1269121,182.145186 76.3205951,182.773435 76.7079668,183.28125 C77.0953385,183.789065 77.6373253,184.042969 78.3339433,184.042969 C79.0305614,184.042969 79.5725482,183.78581 79.9599199,183.271484 C80.3472916,182.757159 80.5409746,182.132165 80.5409746,181.396484 C80.5409746,180.647783 80.3456641,180.019534 79.9550371,179.511719 Z M68.2753496,185.039062 L76.0390215,170.722656 L77.6210527,170.722656 L69.593709,185.039062 L68.2753496,185.039062 Z M68.4608965,170.458984 C69.4049116,170.458984 70.16174,170.812171 70.7314043,171.518555 C71.3010686,172.224938 71.5858965,173.124995 71.5858965,174.21875 C71.5858965,175.286464 71.299441,176.165361 70.7265215,176.855469 C70.1536019,177.545576 69.3984012,177.890625 68.4608965,177.890625 C67.5168813,177.890625 66.7649357,177.547204 66.2050371,176.860352 C65.6451385,176.173499 65.3651933,175.292974 65.3651933,174.21875 C65.3651933,173.131505 65.6467661,172.233076 66.2099199,171.523438 C66.7730738,170.813799 67.5233918,170.458984 68.4608965,170.458984 Z M68.4608965,171.542969 C67.874956,171.542969 67.4192314,171.803383 67.093709,172.324219 C66.7681865,172.845055 66.6054277,173.476559 66.6054277,174.21875 C66.6054277,174.967452 66.7665589,175.577797 67.0888262,176.049805 C67.4110934,176.521812 67.8684456,176.757812 68.4608965,176.757812 C69.0533474,176.757812 69.5123271,176.515302 69.8378496,176.030273 C70.1633721,175.545245 70.3261308,174.94141 70.3261308,174.21875 C70.3261308,173.470048 70.1601169,172.836917 69.828084,172.319336 C69.4960511,171.801755 69.0403265,171.542969 68.4608965,171.542969 Z M90.6171875,179.667969 C90.6171875,180.937506 90.8987602,181.954749 91.4619141,182.719727 C92.0250679,183.484704 92.8469998,183.867188 93.9277344,183.867188 C94.995448,183.867188 95.8011041,183.486332 96.3447266,182.724609 C96.8883491,181.962887 97.1601562,180.937506 97.1601562,179.648438 C97.1601562,178.339837 96.8916042,177.309574 96.3544922,176.557617 C95.8173801,175.80566 94.9987034,175.429688 93.8984375,175.429688 C92.8307238,175.429688 92.0169299,175.813798 91.4570312,176.582031 C90.8971326,177.350264 90.6171875,178.3789 90.6171875,179.667969 Z M98.8496094,179.638672 C98.8496094,181.298836 98.4069055,182.644852 97.5214844,183.676758 C96.6360633,184.708664 95.4121172,185.224609 93.8496094,185.224609 C92.3456956,185.224609 91.1494185,184.703781 90.2607422,183.662109 C89.3720659,182.620438 88.9277344,181.28256 88.9277344,179.648438 C88.9277344,177.981763 89.3736935,176.63412 90.265625,175.605469 C91.1575565,174.576818 92.3815026,174.0625 93.9375,174.0625 C95.4674556,174.0625 96.6686154,174.578445 97.5410156,175.610352 C98.4134158,176.642258 98.8496094,177.985018 98.8496094,179.638672 Z M105.401388,171.171875 C104.724301,171.171875 104.260438,171.367186 104.009786,171.757812 C103.759134,172.148439 103.63381,172.825516 103.63381,173.789062 L103.63381,174.287109 L106.211935,174.287109 L106.211935,175.498047 L103.63381,175.498047 L103.63381,185 L102.00295,185 L102.00295,175.498047 L100.264669,175.498047 L100.401388,174.423828 L102.00295,174.287109 L102.00295,173.808594 C102.015971,172.428379 102.274758,171.427412 102.779317,170.805664 C103.283877,170.183916 104.099299,169.873047 105.225606,169.873047 C105.661807,169.873047 106.195655,169.921875 106.827169,170.019531 L106.719747,171.298828 C106.140317,171.214192 105.700868,171.171875 105.401388,171.171875 Z M40.1825146,197.796875 C39.0952696,197.796875 38.1594066,198.060544 37.3748974,198.587891 C36.5903883,199.115237 36.0060843,199.824865 35.6219677,200.716797 C35.2378512,201.608728 35.0457959,202.634109 35.0457959,203.792969 C35.0457959,204.658858 35.1499615,205.448239 35.3582959,206.161133 C35.5666302,206.874027 35.8791271,207.499021 36.2957959,208.036133 C36.7124646,208.573245 37.2544514,208.989907 37.9217724,209.286133 C38.5890935,209.582358 39.3556874,209.730469 40.2215771,209.730469 C41.3348639,209.730469 42.4871962,209.440758 43.6786084,208.861328 L43.9618115,210.296875 C42.9917546,210.908857 41.6799187,211.214844 40.0262646,211.214844 C38.9390196,211.214844 37.9640945,211.034181 37.1014599,210.672852 C36.2388254,210.311522 35.5259419,209.800459 34.9627881,209.139648 C34.3996342,208.478838 33.9715786,207.691085 33.6786084,206.776367 C33.3856382,205.861649 33.2391552,204.844407 33.2391552,203.724609 C33.2391552,202.643875 33.3986589,201.647791 33.7176709,200.736328 C34.0366829,199.824865 34.4875247,199.041995 35.0702099,198.387695 C35.6528951,197.733395 36.3804269,197.22396 37.2528271,196.859375 C38.1252273,196.49479 39.0952697,196.3125 40.1629834,196.3125 C41.7840852,196.3125 43.1512591,196.670569 44.2645459,197.386719 L43.6004834,198.763672 C42.5327697,198.119137 41.3934582,197.796875 40.1825146,197.796875 Z M47.5057773,205.667969 C47.5057773,206.937506 47.78735,207.954749 48.3505039,208.719727 C48.9136577,209.484704 49.7355896,209.867188 50.8163242,209.867188 C51.8840379,209.867188 52.6896939,209.486332 53.2333164,208.724609 C53.7769389,207.962887 54.0487461,206.937506 54.0487461,205.648438 C54.0487461,204.339837 53.7801941,203.309574 53.243082,202.557617 C52.70597,201.80566 51.8872932,201.429688 50.7870273,201.429688 C49.7193137,201.429688 48.9055197,201.813798 48.3456211,202.582031 C47.7857224,203.350264 47.5057773,204.3789 47.5057773,205.667969 Z M55.7381992,205.638672 C55.7381992,207.298836 55.2954953,208.644852 54.4100742,209.676758 C53.5246531,210.708664 52.300707,211.224609 50.7381992,211.224609 C49.2342854,211.224609 48.0380083,210.703781 47.149332,209.662109 C46.2606557,208.620438 45.8163242,207.28256 45.8163242,205.648438 C45.8163242,203.981763 46.2622833,202.63412 47.1542148,201.605469 C48.0461464,200.576818 49.2700925,200.0625 50.8260898,200.0625 C52.3560454,200.0625 53.5572053,200.578445 54.4296054,201.610352 C55.3020056,202.642258 55.7381992,203.985018 55.7381992,205.638672 Z M71.8212275,211 L71.8212275,205.423828 C71.8212275,204.902992 71.8098344,204.466799 71.7870478,204.115234 C71.7642613,203.76367 71.7121785,203.405601 71.6307978,203.041016 C71.5494172,202.67643 71.4354861,202.388347 71.289001,202.176758 C71.1425159,201.965168 70.9390674,201.792644 70.6786494,201.65918 C70.4182314,201.525715 70.1057346,201.458984 69.7411494,201.458984 C69.025,201.458984 68.4146545,201.65104 67.9100947,202.035156 C67.4055349,202.419273 67.045838,202.959632 66.8309931,203.65625 C66.7723991,204.125002 66.7431025,204.626299 66.7431025,205.160156 L66.7431025,211 L65.1122431,211 L65.1122431,205.248047 C65.1122431,204.766274 65.0959673,204.347984 65.063415,203.993164 C65.0308628,203.638345 64.9690144,203.293296 64.8778681,202.958008 C64.7867219,202.62272 64.6646528,202.350912 64.5116572,202.142578 C64.3586617,201.934244 64.1552132,201.76823 63.9013056,201.644531 C63.6473981,201.520833 63.3446668,201.458984 62.9931025,201.458984 C62.2118486,201.458984 61.5559307,201.65755 61.0253291,202.054688 C60.4947275,202.451825 60.1382857,202.979163 59.9559931,203.636719 C59.8973991,204.138023 59.8681025,204.681638 59.8681025,205.267578 L59.8681025,211 L58.2372431,211 C58.2242223,204.300748 58.2177119,200.72982 58.2177119,200.287109 L59.5848994,200.287109 L59.7899775,201.820312 C60.1155,201.325518 60.5777349,200.908856 61.1766963,200.570312 C61.7756576,200.231769 62.4559893,200.0625 63.2177119,200.0625 C63.6148493,200.0625 63.9810566,200.10319 64.3163447,200.18457 C64.6516328,200.265951 64.931578,200.368489 65.1561885,200.492188 C65.380799,200.615886 65.5809923,200.763997 65.7567744,200.936523 C65.9325565,201.10905 66.0692739,201.278319 66.1669306,201.444336 C66.2645874,201.610352 66.3459668,201.784504 66.4110713,201.966797 C67.1923252,200.697259 68.3869747,200.0625 69.9950556,200.0625 C71.1864679,200.0625 72.0604826,200.402666 72.617126,201.083008 C73.1737694,201.76335 73.4520869,202.770827 73.4520869,204.105469 L73.4520869,211 L71.8212275,211 Z M75.7069902,215.648438 L75.7069902,200.287109 L77.1425371,200.287109 L77.2987871,201.742188 C78.2362918,200.62239 79.3625826,200.0625 80.6776933,200.0625 C81.6542607,200.0625 82.4810754,200.306638 83.1581621,200.794922 C83.8352488,201.283206 84.3349183,201.944006 84.6571855,202.777344 C84.9794528,203.610681 85.140584,204.583979 85.140584,205.697266 C85.140584,206.764979 84.9648045,207.713863 84.6132402,208.543945 C84.261676,209.374028 83.7457306,210.028318 83.0653887,210.506836 C82.3850467,210.985354 81.5891562,211.224609 80.6776933,211.224609 C79.9875857,211.224609 79.3398058,211.069989 78.734334,210.760742 C78.1288622,210.451496 77.643841,210.042971 77.2792558,209.535156 C77.3183185,210.238285 77.3378496,210.921872 77.3378496,211.585938 L77.3378496,215.541016 L75.7069902,215.648438 Z M80.453084,209.847656 C80.9478781,209.847656 81.390582,209.735353 81.781209,209.510742 C82.1718359,209.286132 82.487588,208.978518 82.7284746,208.587891 C82.9693612,208.197264 83.1516511,207.752932 83.2753496,207.254883 C83.3990481,206.756833 83.4608965,206.218102 83.4608965,205.638672 C83.4608965,204.414707 83.2037376,203.410486 82.6894121,202.625977 C82.1750866,201.841467 81.423141,201.449219 80.4335527,201.449219 C78.3632299,201.449219 77.328084,202.787096 77.328084,205.462891 C77.328084,206.914721 77.5705946,208.00846 78.055623,208.744141 C78.5406515,209.479821 79.3397972,209.847656 80.453084,209.847656 Z M90.4911904,211.195312 C89.4495185,211.195312 88.7122212,210.915367 88.2792764,210.355469 C87.8463315,209.79557 87.6298623,208.822273 87.6298623,207.435547 L87.6298623,196.126953 L89.250956,196.029297 L89.250956,206.791016 C89.250956,207.233726 89.2558388,207.58854 89.2656045,207.855469 C89.2753702,208.122397 89.299784,208.384439 89.3388467,208.641602 C89.3779094,208.898764 89.4299922,209.092447 89.4950967,209.222656 C89.5602012,209.352865 89.6546013,209.471679 89.7782998,209.579102 C89.9019983,209.686524 90.0501088,209.758138 90.2226357,209.793945 C90.3951626,209.829753 90.6083767,209.847656 90.8622842,209.847656 C91.0706186,209.847656 91.4807707,209.808594 92.0927529,209.730469 L92.1806435,211.029297 C91.5100673,211.139975 90.9469219,211.195312 90.4911904,211.195312 Z M99.5136719,202.269531 C99.0384091,201.696612 98.3841187,201.410156 97.5507812,201.410156 C96.7174438,201.410156 96.037112,201.70475 95.5097656,202.293945 C94.9824192,202.883141 94.6731775,203.688797 94.5820312,204.710938 L100.236328,204.710938 C100.236328,203.649734 99.9954451,202.83594 99.5136719,202.269531 Z M97.8730469,211.224609 C96.3170495,211.224609 95.0914758,210.729823 94.1962891,209.740234 C93.3011023,208.750646 92.8535156,207.396493 92.8535156,205.677734 C92.8535156,204.01757 93.286454,202.671555 94.1523438,201.639648 C95.0182335,200.607742 96.157545,200.082031 97.5703125,200.0625 C98.8984441,200.0625 99.9514935,200.516597 100.729492,201.424805 C101.507491,202.333012 101.896484,203.545565 101.896484,205.0625 C101.896484,205.140625 101.894857,205.283853 101.891602,205.492188 C101.888346,205.700522 101.886719,205.85026 101.886719,205.941406 L94.5332031,205.941406 C94.5527345,207.15886 94.8668589,208.107744 95.4755859,208.788086 C96.0843129,209.468428 96.9029896,209.808594 97.9316406,209.808594 C99.0644588,209.808594 100.200515,209.509118 101.339844,208.910156 L101.59375,210.228516 C100.506505,210.892581 99.266283,211.224609 97.8730469,211.224609 Z M107.754903,211.195312 C106.700211,211.195312 105.95152,210.938154 105.50881,210.423828 C105.066099,209.909503 104.831726,209.079433 104.805685,207.933594 L104.805685,201.498047 L103.213888,201.498047 L103.282247,200.423828 L104.795919,200.287109 L105.35256,197.835938 L106.426778,197.796875 L106.426778,200.287109 L109.405294,200.287109 L109.405294,201.498047 L106.426778,201.498047 L106.426778,207.640625 C106.426778,208.454431 106.550475,209.027342 106.797872,209.359375 C107.045269,209.691408 107.468442,209.857422 108.067403,209.857422 C108.282248,209.857422 108.747738,209.805339 109.463888,209.701172 L109.532247,210.990234 C108.757504,211.126954 108.165062,211.195312 107.754903,211.195312 Z M113.369182,200.287109 L113.369182,211 L111.728557,211 L111.728557,200.287109 L113.369182,200.287109 Z M113.369182,196.390625 L113.369182,198.324219 L111.728557,198.324219 L111.728557,196.390625 L113.369182,196.390625 Z M117.801819,205.667969 C117.801819,206.937506 118.083392,207.954749 118.646546,208.719727 C119.2097,209.484704 120.031632,209.867188 121.112366,209.867188 C122.18008,209.867188 122.985736,209.486332 123.529358,208.724609 C124.072981,207.962887 124.344788,206.937506 124.344788,205.648438 C124.344788,204.339837 124.076236,203.309574 123.539124,202.557617 C123.002012,201.80566 122.183335,201.429688 121.083069,201.429688 C120.015356,201.429688 119.201562,201.813798 118.641663,202.582031 C118.081764,203.350264 117.801819,204.3789 117.801819,205.667969 Z M126.034241,205.638672 C126.034241,207.298836 125.591537,208.644852 124.706116,209.676758 C123.820695,210.708664 122.596749,211.224609 121.034241,211.224609 C119.530327,211.224609 118.33405,210.703781 117.445374,209.662109 C116.556698,208.620438 116.112366,207.28256 116.112366,205.648438 C116.112366,203.981763 116.558325,202.63412 117.450257,201.605469 C118.342188,200.576818 119.566134,200.0625 121.122132,200.0625 C122.652087,200.0625 123.853247,200.578445 124.725647,201.610352 C125.598048,202.642258 126.034241,203.985018 126.034241,205.638672 Z M128.513754,211 L128.513754,200.287109 L129.880941,200.287109 L130.08602,201.820312 C130.509199,201.292966 131.038165,200.868166 131.672934,200.545898 C132.307702,200.223631 132.992917,200.0625 133.728598,200.0625 C134.965583,200.0625 135.880287,200.409176 136.472738,201.102539 C137.065189,201.795902 137.36141,202.861972 137.36141,204.300781 L137.36141,211 L135.730551,211 C135.730551,206.703104 135.727296,204.401694 135.720785,204.095703 C135.694743,203.18424 135.510826,202.516929 135.169027,202.09375 C134.827229,201.670571 134.255945,201.458984 133.45516,201.458984 C132.615312,201.458984 131.915449,201.660805 131.355551,202.064453 C130.795652,202.468101 130.431072,202.992184 130.261801,203.636719 C130.196696,204.072919 130.164145,204.574216 130.164145,205.140625 L130.164145,211 L128.513754,211 Z" id="%-of-Completion" fill="#FFFFFF"></path>
        <circle id="Oval" fill="#50ACD5" cx="230" cy="268" r="6"></circle>
        <circle id="Oval-Copy" fill="#50ACD5" cx="300" cy="379" r="6"></circle>
        <circle id="Oval-Copy-3" fill="#50ACD5" cx="389" cy="465" r="6"></circle>
        <circle id="Oval-Copy-6" fill="#50ACD5" cx="541" cy="471" r="6"></circle>
        <circle id="Oval-Copy-11" fill="#50ACD5" cx="603" cy="399" r="6"></circle>
        <circle id="Oval-Copy-4" fill="#50ACD5" cx="485" cy="310" r="6"></circle>
        <circle id="Oval-Copy-5" fill="#50ACD5" cx="528" cy="428" r="6"></circle>
        <circle id="Oval-Copy-7" fill="#50ACD5" cx="662" cy="399" r="6"></circle>
        <circle id="Oval-Copy-8" fill="#50ACD5" cx="714" cy="466" r="6"></circle>
        <circle id="Oval-Copy-9" fill="#50ACD5" cx="836" cy="600" r="6"></circle>
        <circle id="Oval-Copy-10" fill="#50ACD5" cx="1037" cy="508" r="6"></circle>
        <circle id="Oval-Copy-2" fill="#50ACD5" cx="409" cy="345" r="6"></circle>
    </g>
</svg>